{
  "title" : "",
  "description" : "",
  "author" : "",
  "targetLoudness" : -18.0,
  "shouldApplyLoudnessNormalization" : true,
  "videoFormatFrameRate" : 30,
  "audioFormatSampleRate" : 44100,
  "width" : 1920.0,
  "height" : 1080.0,
  "version" : "3.0",
  "editRate" : 30,
  "authoringClientName" :  {
    "name" : "Camtasia",
    "platform" : "Windows",
    "version" : "19.0"
  },
  "sourceBin" : [
    {
      "id" : 1,
      "src" : "C:\\Users\\ungerw\\Documents\\Camtasia\\Aufn. 07-11-19_006.trec",
      "rect" : [0, 0, 1920, 1080],
      "lastMod" : "20190711T145940",
      "sourceTracks" : [
        {
          "range" : [0, 876],
          "type" : 0,
          "editRate" : 30,
          "trackRect" : [0, 0, 1920, 1080],
          "sampleRate" : 0,
          "bitDepth" : 0,
          "numChannels" : 0,
          "integratedLUFS" : 100.0,
          "peakLevel" : -1.0,
          "metaData" : "2b7b6a00-7a1f-11e2-83d0-0017f200be7f;2b7b6aef-7a1f-11e2-83d0-0017f200be7f;2b7b6af0-7a1f-11e2-83d0-0017f200be7f;2b7b6af1-7a1f-11e2-83d0-0017f200be7f;2b7b6af2-7a1f-11e2-83d0-0017f200be7f;2b7b6af3-7a1f-11e2-83d0-0017f200be7f;2b7b6af5-7a1f-11e2-83d0-0017f200be7f;2b7b6af6-7a1f-11e2-83d0-0017f200be7f;2b7b6af7-7a1f-11e2-83d0-0017f200be7f;2b7b6af8-7a1f-11e2-83d0-0017f200be7f;2b7b6af9-7a1f-11e2-83d0-0017f200be7f;2b7b6afa-7a1f-11e2-83d0-0017f200be7f;"
        },
        {
          "range" : [0, 1280000],
          "type" : 2,
          "editRate" : 44100,
          "trackRect" : [0, 0, 0, 0],
          "sampleRate" : 44100,
          "bitDepth" : 16,
          "numChannels" : 2,
          "integratedLUFS" : -32.6335431405923,
          "peakLevel" : 0.21807861328125,
          "metaData" : ""
        },
        {
          "range" : [0, 1290240],
          "type" : 2,
          "editRate" : 44100,
          "trackRect" : [0, 0, 0, 0],
          "sampleRate" : 44100,
          "bitDepth" : 16,
          "numChannels" : 2,
          "integratedLUFS" : 0.0,
          "peakLevel" : 0.0,
          "metaData" : ""
        }
      ]
    },
    {
      "id" : 2,
      "src" : "C:\\Users\\ungerw\\Documents\\Camtasia\\Aufn. 07-11-19_014.trec",
      "rect" : [0, 0, 1920, 1080],
      "lastMod" : "20190711T151315",
      "sourceTracks" : [
        {
          "range" : [0, 991],
          "type" : 0,
          "editRate" : 30,
          "trackRect" : [0, 0, 1920, 1080],
          "sampleRate" : 0,
          "bitDepth" : 0,
          "numChannels" : 0,
          "integratedLUFS" : 100.0,
          "peakLevel" : -1.0,
          "metaData" : "2b7b6a00-7a1f-11e2-83d0-0017f200be7f;2b7b6aef-7a1f-11e2-83d0-0017f200be7f;2b7b6af0-7a1f-11e2-83d0-0017f200be7f;2b7b6af1-7a1f-11e2-83d0-0017f200be7f;2b7b6af2-7a1f-11e2-83d0-0017f200be7f;2b7b6af3-7a1f-11e2-83d0-0017f200be7f;2b7b6af5-7a1f-11e2-83d0-0017f200be7f;2b7b6af6-7a1f-11e2-83d0-0017f200be7f;2b7b6af7-7a1f-11e2-83d0-0017f200be7f;2b7b6af8-7a1f-11e2-83d0-0017f200be7f;2b7b6af9-7a1f-11e2-83d0-0017f200be7f;2b7b6afa-7a1f-11e2-83d0-0017f200be7f;"
        },
        {
          "range" : [0, 1457152],
          "type" : 2,
          "editRate" : 44100,
          "trackRect" : [0, 0, 0, 0],
          "sampleRate" : 44100,
          "bitDepth" : 16,
          "numChannels" : 2,
          "integratedLUFS" : -35.5770798141246,
          "peakLevel" : 0.1943359375,
          "metaData" : ""
        },
        {
          "range" : [0, 1452032],
          "type" : 2,
          "editRate" : 44100,
          "trackRect" : [0, 0, 0, 0],
          "sampleRate" : 44100,
          "bitDepth" : 16,
          "numChannels" : 2,
          "integratedLUFS" : 0.0,
          "peakLevel" : 0.0,
          "metaData" : ""
        }
      ]
    },
    {
      "id" : 3,
      "src" : "C:\\Users\\ungerw\\Documents\\Camtasia\\Aufn. 07-11-19_015.trec",
      "rect" : [0, 0, 1920, 1080],
      "lastMod" : "20190711T151602",
      "sourceTracks" : [
        {
          "range" : [0, 822],
          "type" : 0,
          "editRate" : 30,
          "trackRect" : [0, 0, 1920, 1080],
          "sampleRate" : 0,
          "bitDepth" : 0,
          "numChannels" : 0,
          "integratedLUFS" : 100.0,
          "peakLevel" : -1.0,
          "metaData" : "2b7b6a00-7a1f-11e2-83d0-0017f200be7f;2b7b6aef-7a1f-11e2-83d0-0017f200be7f;2b7b6af0-7a1f-11e2-83d0-0017f200be7f;2b7b6af1-7a1f-11e2-83d0-0017f200be7f;2b7b6af2-7a1f-11e2-83d0-0017f200be7f;2b7b6af3-7a1f-11e2-83d0-0017f200be7f;2b7b6af5-7a1f-11e2-83d0-0017f200be7f;2b7b6af6-7a1f-11e2-83d0-0017f200be7f;2b7b6af7-7a1f-11e2-83d0-0017f200be7f;2b7b6af8-7a1f-11e2-83d0-0017f200be7f;2b7b6af9-7a1f-11e2-83d0-0017f200be7f;2b7b6afa-7a1f-11e2-83d0-0017f200be7f;"
        },
        {
          "range" : [0, 1191936],
          "type" : 2,
          "editRate" : 44100,
          "trackRect" : [0, 0, 0, 0],
          "sampleRate" : 44100,
          "bitDepth" : 16,
          "numChannels" : 2,
          "integratedLUFS" : -36.0022869453066,
          "peakLevel" : 0.156951904296875,
          "metaData" : ""
        },
        {
          "range" : [0, 1209344],
          "type" : 2,
          "editRate" : 44100,
          "trackRect" : [0, 0, 0, 0],
          "sampleRate" : 44100,
          "bitDepth" : 16,
          "numChannels" : 2,
          "integratedLUFS" : 0.0,
          "peakLevel" : 0.0,
          "metaData" : ""
        }
      ]
    },
    {
      "id" : 4,
      "src" : "C:\\Users\\ungerw\\Documents\\Camtasia\\Aufn. 07-11-19_016.trec",
      "rect" : [0, 0, 1920, 1080],
      "lastMod" : "20190711T151953",
      "sourceTracks" : [
        {
          "range" : [0, 1750],
          "type" : 0,
          "editRate" : 30,
          "trackRect" : [0, 0, 1920, 1080],
          "sampleRate" : 0,
          "bitDepth" : 0,
          "numChannels" : 0,
          "integratedLUFS" : 100.0,
          "peakLevel" : -1.0,
          "metaData" : "2b7b6a00-7a1f-11e2-83d0-0017f200be7f;2b7b6aef-7a1f-11e2-83d0-0017f200be7f;2b7b6af0-7a1f-11e2-83d0-0017f200be7f;2b7b6af1-7a1f-11e2-83d0-0017f200be7f;2b7b6af2-7a1f-11e2-83d0-0017f200be7f;2b7b6af3-7a1f-11e2-83d0-0017f200be7f;2b7b6af5-7a1f-11e2-83d0-0017f200be7f;2b7b6af6-7a1f-11e2-83d0-0017f200be7f;2b7b6af7-7a1f-11e2-83d0-0017f200be7f;2b7b6af8-7a1f-11e2-83d0-0017f200be7f;2b7b6af9-7a1f-11e2-83d0-0017f200be7f;2b7b6afa-7a1f-11e2-83d0-0017f200be7f;"
        },
        {
          "range" : [0, 2558976],
          "type" : 2,
          "editRate" : 44100,
          "trackRect" : [0, 0, 0, 0],
          "sampleRate" : 44100,
          "bitDepth" : 16,
          "numChannels" : 2,
          "integratedLUFS" : -35.5604646509693,
          "peakLevel" : 0.155670166015625,
          "metaData" : ""
        },
        {
          "range" : [0, 2570240],
          "type" : 2,
          "editRate" : 44100,
          "trackRect" : [0, 0, 0, 0],
          "sampleRate" : 44100,
          "bitDepth" : 16,
          "numChannels" : 2,
          "integratedLUFS" : 0.0,
          "peakLevel" : 0.0,
          "metaData" : ""
        }
      ]
    },
    {
      "id" : 5,
      "src" : "C:\\Users\\ungerw\\Documents\\Camtasia\\Aufn. 07-11-19_017.trec",
      "rect" : [0, 0, 1920, 1080],
      "lastMod" : "20190711T152304",
      "sourceTracks" : [
        {
          "range" : [0, 1130],
          "type" : 0,
          "editRate" : 30,
          "trackRect" : [0, 0, 1920, 1080],
          "sampleRate" : 0,
          "bitDepth" : 0,
          "numChannels" : 0,
          "integratedLUFS" : 100.0,
          "peakLevel" : -1.0,
          "metaData" : "2b7b6a00-7a1f-11e2-83d0-0017f200be7f;2b7b6aef-7a1f-11e2-83d0-0017f200be7f;2b7b6af0-7a1f-11e2-83d0-0017f200be7f;2b7b6af1-7a1f-11e2-83d0-0017f200be7f;2b7b6af2-7a1f-11e2-83d0-0017f200be7f;2b7b6af3-7a1f-11e2-83d0-0017f200be7f;2b7b6af5-7a1f-11e2-83d0-0017f200be7f;2b7b6af6-7a1f-11e2-83d0-0017f200be7f;2b7b6af7-7a1f-11e2-83d0-0017f200be7f;2b7b6af8-7a1f-11e2-83d0-0017f200be7f;2b7b6af9-7a1f-11e2-83d0-0017f200be7f;2b7b6afa-7a1f-11e2-83d0-0017f200be7f;"
        },
        {
          "range" : [0, 1654784],
          "type" : 2,
          "editRate" : 44100,
          "trackRect" : [0, 0, 0, 0],
          "sampleRate" : 44100,
          "bitDepth" : 16,
          "numChannels" : 2,
          "integratedLUFS" : -35.5087074103345,
          "peakLevel" : 0.14276123046875,
          "metaData" : ""
        },
        {
          "range" : [0, 1658880],
          "type" : 2,
          "editRate" : 44100,
          "trackRect" : [0, 0, 0, 0],
          "sampleRate" : 44100,
          "bitDepth" : 16,
          "numChannels" : 2,
          "integratedLUFS" : 0.0,
          "peakLevel" : 0.0,
          "metaData" : ""
        }
      ]
    },
    {
      "id" : 6,
      "src" : "C:\\Users\\ungerw\\Documents\\Camtasia\\Aufn. 07-11-19_023.trec",
      "rect" : [0, 0, 1920, 1080],
      "lastMod" : "20190711T153004",
      "sourceTracks" : [
        {
          "range" : [0, 932],
          "type" : 0,
          "editRate" : 30,
          "trackRect" : [0, 0, 1920, 1080],
          "sampleRate" : 0,
          "bitDepth" : 0,
          "numChannels" : 0,
          "integratedLUFS" : 100.0,
          "peakLevel" : -1.0,
          "metaData" : "2b7b6a00-7a1f-11e2-83d0-0017f200be7f;2b7b6aef-7a1f-11e2-83d0-0017f200be7f;2b7b6af0-7a1f-11e2-83d0-0017f200be7f;2b7b6af1-7a1f-11e2-83d0-0017f200be7f;2b7b6af2-7a1f-11e2-83d0-0017f200be7f;2b7b6af3-7a1f-11e2-83d0-0017f200be7f;2b7b6af5-7a1f-11e2-83d0-0017f200be7f;2b7b6af6-7a1f-11e2-83d0-0017f200be7f;2b7b6af7-7a1f-11e2-83d0-0017f200be7f;2b7b6af8-7a1f-11e2-83d0-0017f200be7f;2b7b6af9-7a1f-11e2-83d0-0017f200be7f;2b7b6afa-7a1f-11e2-83d0-0017f200be7f;"
        },
        {
          "range" : [0, 1369088],
          "type" : 2,
          "editRate" : 44100,
          "trackRect" : [0, 0, 0, 0],
          "sampleRate" : 44100,
          "bitDepth" : 16,
          "numChannels" : 2,
          "integratedLUFS" : -36.0449525904817,
          "peakLevel" : 0.137481689453125,
          "metaData" : ""
        },
        {
          "range" : [0, 1367040],
          "type" : 2,
          "editRate" : 44100,
          "trackRect" : [0, 0, 0, 0],
          "sampleRate" : 44100,
          "bitDepth" : 16,
          "numChannels" : 2,
          "integratedLUFS" : 0.0,
          "peakLevel" : 0.0,
          "metaData" : ""
        }
      ]
    },
    {
      "id" : 7,
      "src" : "C:\\Users\\ungerw\\Documents\\Camtasia\\Aufn. 07-11-19_024.trec",
      "rect" : [0, 0, 1920, 1080],
      "lastMod" : "20190711T153322",
      "sourceTracks" : [
        {
          "range" : [0, 2193],
          "type" : 0,
          "editRate" : 30,
          "trackRect" : [0, 0, 1920, 1080],
          "sampleRate" : 0,
          "bitDepth" : 0,
          "numChannels" : 0,
          "integratedLUFS" : 100.0,
          "peakLevel" : -1.0,
          "metaData" : "2b7b6a00-7a1f-11e2-83d0-0017f200be7f;2b7b6aef-7a1f-11e2-83d0-0017f200be7f;2b7b6af0-7a1f-11e2-83d0-0017f200be7f;2b7b6af1-7a1f-11e2-83d0-0017f200be7f;2b7b6af2-7a1f-11e2-83d0-0017f200be7f;2b7b6af3-7a1f-11e2-83d0-0017f200be7f;2b7b6af5-7a1f-11e2-83d0-0017f200be7f;2b7b6af6-7a1f-11e2-83d0-0017f200be7f;2b7b6af7-7a1f-11e2-83d0-0017f200be7f;2b7b6af8-7a1f-11e2-83d0-0017f200be7f;2b7b6af9-7a1f-11e2-83d0-0017f200be7f;2b7b6afa-7a1f-11e2-83d0-0017f200be7f;"
        },
        {
          "range" : [0, 3220480],
          "type" : 2,
          "editRate" : 44100,
          "trackRect" : [0, 0, 0, 0],
          "sampleRate" : 44100,
          "bitDepth" : 16,
          "numChannels" : 2,
          "integratedLUFS" : -36.1712303573506,
          "peakLevel" : 0.20672607421875,
          "metaData" : ""
        },
        {
          "range" : [0, 3222528],
          "type" : 2,
          "editRate" : 44100,
          "trackRect" : [0, 0, 0, 0],
          "sampleRate" : 44100,
          "bitDepth" : 16,
          "numChannels" : 2,
          "integratedLUFS" : 0.0,
          "peakLevel" : 0.0,
          "metaData" : ""
        }
      ]
    },
    {
      "id" : 8,
      "src" : "C:\\Users\\ungerw\\Documents\\Camtasia\\Aufn. 07-11-19_027.trec",
      "rect" : [0, 0, 1920, 1080],
      "lastMod" : "20190711T154222",
      "sourceTracks" : [
        {
          "range" : [0, 1840],
          "type" : 0,
          "editRate" : 30,
          "trackRect" : [0, 0, 1920, 1080],
          "sampleRate" : 0,
          "bitDepth" : 0,
          "numChannels" : 0,
          "integratedLUFS" : 100.0,
          "peakLevel" : -1.0,
          "metaData" : "2b7b6a00-7a1f-11e2-83d0-0017f200be7f;2b7b6aef-7a1f-11e2-83d0-0017f200be7f;2b7b6af0-7a1f-11e2-83d0-0017f200be7f;2b7b6af1-7a1f-11e2-83d0-0017f200be7f;2b7b6af2-7a1f-11e2-83d0-0017f200be7f;2b7b6af3-7a1f-11e2-83d0-0017f200be7f;2b7b6af5-7a1f-11e2-83d0-0017f200be7f;2b7b6af6-7a1f-11e2-83d0-0017f200be7f;2b7b6af7-7a1f-11e2-83d0-0017f200be7f;2b7b6af8-7a1f-11e2-83d0-0017f200be7f;2b7b6af9-7a1f-11e2-83d0-0017f200be7f;2b7b6afa-7a1f-11e2-83d0-0017f200be7f;"
        },
        {
          "range" : [0, 2692096],
          "type" : 2,
          "editRate" : 44100,
          "trackRect" : [0, 0, 0, 0],
          "sampleRate" : 44100,
          "bitDepth" : 16,
          "numChannels" : 2,
          "integratedLUFS" : -35.7607514137223,
          "peakLevel" : 0.146209716796875,
          "metaData" : ""
        },
        {
          "range" : [0, 2704384],
          "type" : 2,
          "editRate" : 44100,
          "trackRect" : [0, 0, 0, 0],
          "sampleRate" : 44100,
          "bitDepth" : 16,
          "numChannels" : 2,
          "integratedLUFS" : 0.0,
          "peakLevel" : 0.0,
          "metaData" : ""
        }
      ]
    },
    {
      "id" : 9,
      "src" : "C:\\Users\\ungerw\\Documents\\Camtasia\\Aufn. 07-11-19_028.trec",
      "rect" : [0, 0, 1920, 1080],
      "lastMod" : "20190711T154730",
      "sourceTracks" : [
        {
          "range" : [0, 793],
          "type" : 0,
          "editRate" : 30,
          "trackRect" : [0, 0, 1920, 1080],
          "sampleRate" : 0,
          "bitDepth" : 0,
          "numChannels" : 0,
          "integratedLUFS" : 100.0,
          "peakLevel" : -1.0,
          "metaData" : "2b7b6a00-7a1f-11e2-83d0-0017f200be7f;2b7b6aef-7a1f-11e2-83d0-0017f200be7f;2b7b6af0-7a1f-11e2-83d0-0017f200be7f;2b7b6af1-7a1f-11e2-83d0-0017f200be7f;2b7b6af2-7a1f-11e2-83d0-0017f200be7f;2b7b6af3-7a1f-11e2-83d0-0017f200be7f;2b7b6af5-7a1f-11e2-83d0-0017f200be7f;2b7b6af6-7a1f-11e2-83d0-0017f200be7f;2b7b6af7-7a1f-11e2-83d0-0017f200be7f;2b7b6af8-7a1f-11e2-83d0-0017f200be7f;2b7b6af9-7a1f-11e2-83d0-0017f200be7f;2b7b6afa-7a1f-11e2-83d0-0017f200be7f;"
        },
        {
          "range" : [0, 1147904],
          "type" : 2,
          "editRate" : 44100,
          "trackRect" : [0, 0, 0, 0],
          "sampleRate" : 44100,
          "bitDepth" : 16,
          "numChannels" : 2,
          "integratedLUFS" : -36.7827846560778,
          "peakLevel" : 0.136871337890625,
          "metaData" : ""
        },
        {
          "range" : [0, 1168384],
          "type" : 2,
          "editRate" : 44100,
          "trackRect" : [0, 0, 0, 0],
          "sampleRate" : 44100,
          "bitDepth" : 16,
          "numChannels" : 2,
          "integratedLUFS" : 0.0,
          "peakLevel" : 0.0,
          "metaData" : ""
        }
      ]
    },
    {
      "id" : 10,
      "src" : "C:\\Users\\ungerw\\Documents\\Camtasia\\Aufn. 07-11-19_029.trec",
      "rect" : [0, 0, 1920, 1080],
      "lastMod" : "20190711T155018",
      "sourceTracks" : [
        {
          "range" : [0, 846],
          "type" : 0,
          "editRate" : 30,
          "trackRect" : [0, 0, 1920, 1080],
          "sampleRate" : 0,
          "bitDepth" : 0,
          "numChannels" : 0,
          "integratedLUFS" : 100.0,
          "peakLevel" : -1.0,
          "metaData" : "2b7b6a00-7a1f-11e2-83d0-0017f200be7f;2b7b6aef-7a1f-11e2-83d0-0017f200be7f;2b7b6af0-7a1f-11e2-83d0-0017f200be7f;2b7b6af1-7a1f-11e2-83d0-0017f200be7f;2b7b6af2-7a1f-11e2-83d0-0017f200be7f;2b7b6af3-7a1f-11e2-83d0-0017f200be7f;2b7b6af5-7a1f-11e2-83d0-0017f200be7f;2b7b6af6-7a1f-11e2-83d0-0017f200be7f;2b7b6af7-7a1f-11e2-83d0-0017f200be7f;2b7b6af8-7a1f-11e2-83d0-0017f200be7f;2b7b6af9-7a1f-11e2-83d0-0017f200be7f;2b7b6afa-7a1f-11e2-83d0-0017f200be7f;"
        },
        {
          "range" : [0, 1235968],
          "type" : 2,
          "editRate" : 44100,
          "trackRect" : [0, 0, 0, 0],
          "sampleRate" : 44100,
          "bitDepth" : 16,
          "numChannels" : 2,
          "integratedLUFS" : -33.9739147693725,
          "peakLevel" : 0.174041748046875,
          "metaData" : ""
        },
        {
          "range" : [0, 1245184],
          "type" : 2,
          "editRate" : 44100,
          "trackRect" : [0, 0, 0, 0],
          "sampleRate" : 44100,
          "bitDepth" : 16,
          "numChannels" : 2,
          "integratedLUFS" : 0.0,
          "peakLevel" : 0.0,
          "metaData" : ""
        }
      ]
    },
    {
      "id" : 11,
      "src" : "C:\\Users\\ungerw\\Documents\\Camtasia\\Aufn. 07-11-19_030.trec",
      "rect" : [0, 0, 1920, 1080],
      "lastMod" : "20190711T155256",
      "sourceTracks" : [
        {
          "range" : [0, 1902],
          "type" : 0,
          "editRate" : 30,
          "trackRect" : [0, 0, 1920, 1080],
          "sampleRate" : 0,
          "bitDepth" : 0,
          "numChannels" : 0,
          "integratedLUFS" : 100.0,
          "peakLevel" : -1.0,
          "metaData" : "2b7b6a00-7a1f-11e2-83d0-0017f200be7f;2b7b6aef-7a1f-11e2-83d0-0017f200be7f;2b7b6af0-7a1f-11e2-83d0-0017f200be7f;2b7b6af1-7a1f-11e2-83d0-0017f200be7f;2b7b6af2-7a1f-11e2-83d0-0017f200be7f;2b7b6af3-7a1f-11e2-83d0-0017f200be7f;2b7b6af5-7a1f-11e2-83d0-0017f200be7f;2b7b6af6-7a1f-11e2-83d0-0017f200be7f;2b7b6af7-7a1f-11e2-83d0-0017f200be7f;2b7b6af8-7a1f-11e2-83d0-0017f200be7f;2b7b6af9-7a1f-11e2-83d0-0017f200be7f;2b7b6afa-7a1f-11e2-83d0-0017f200be7f;"
        },
        {
          "range" : [0, 2780160],
          "type" : 2,
          "editRate" : 44100,
          "trackRect" : [0, 0, 0, 0],
          "sampleRate" : 44100,
          "bitDepth" : 16,
          "numChannels" : 2,
          "integratedLUFS" : -36.2432953789546,
          "peakLevel" : 0.195281982421875,
          "metaData" : ""
        },
        {
          "range" : [0, 2793472],
          "type" : 2,
          "editRate" : 44100,
          "trackRect" : [0, 0, 0, 0],
          "sampleRate" : 44100,
          "bitDepth" : 16,
          "numChannels" : 2,
          "integratedLUFS" : 0.0,
          "peakLevel" : 0.0,
          "metaData" : ""
        }
      ]
    },
    {
      "id" : 12,
      "src" : "C:\\Users\\ungerw\\Documents\\Camtasia\\Aufn. 07-11-19_031.trec",
      "rect" : [0, 0, 1920, 1080],
      "lastMod" : "20190711T155520",
      "sourceTracks" : [
        {
          "range" : [0, 2062],
          "type" : 0,
          "editRate" : 30,
          "trackRect" : [0, 0, 1920, 1080],
          "sampleRate" : 0,
          "bitDepth" : 0,
          "numChannels" : 0,
          "integratedLUFS" : 100.0,
          "peakLevel" : -1.0,
          "metaData" : "2b7b6a00-7a1f-11e2-83d0-0017f200be7f;2b7b6aef-7a1f-11e2-83d0-0017f200be7f;2b7b6af0-7a1f-11e2-83d0-0017f200be7f;2b7b6af1-7a1f-11e2-83d0-0017f200be7f;2b7b6af2-7a1f-11e2-83d0-0017f200be7f;2b7b6af3-7a1f-11e2-83d0-0017f200be7f;2b7b6af5-7a1f-11e2-83d0-0017f200be7f;2b7b6af6-7a1f-11e2-83d0-0017f200be7f;2b7b6af7-7a1f-11e2-83d0-0017f200be7f;2b7b6af8-7a1f-11e2-83d0-0017f200be7f;2b7b6af9-7a1f-11e2-83d0-0017f200be7f;2b7b6afa-7a1f-11e2-83d0-0017f200be7f;"
        },
        {
          "range" : [0, 3022848],
          "type" : 2,
          "editRate" : 44100,
          "trackRect" : [0, 0, 0, 0],
          "sampleRate" : 44100,
          "bitDepth" : 16,
          "numChannels" : 2,
          "integratedLUFS" : -35.6955845711711,
          "peakLevel" : 0.157379150390625,
          "metaData" : ""
        },
        {
          "range" : [0, 3027968],
          "type" : 2,
          "editRate" : 44100,
          "trackRect" : [0, 0, 0, 0],
          "sampleRate" : 44100,
          "bitDepth" : 16,
          "numChannels" : 2,
          "integratedLUFS" : 0.0,
          "peakLevel" : 0.0,
          "metaData" : ""
        }
      ]
    },
    {
      "id" : 13,
      "src" : "C:\\Users\\ungerw\\Documents\\Camtasia\\Aufn. 07-11-19_032.trec",
      "rect" : [0, 0, 1920, 1080],
      "lastMod" : "20190711T160843",
      "sourceTracks" : [
        {
          "range" : [0, 1095],
          "type" : 0,
          "editRate" : 30,
          "trackRect" : [0, 0, 1920, 1080],
          "sampleRate" : 0,
          "bitDepth" : 0,
          "numChannels" : 0,
          "integratedLUFS" : 100.0,
          "peakLevel" : -1.0,
          "metaData" : "2b7b6a00-7a1f-11e2-83d0-0017f200be7f;2b7b6aef-7a1f-11e2-83d0-0017f200be7f;2b7b6af0-7a1f-11e2-83d0-0017f200be7f;2b7b6af1-7a1f-11e2-83d0-0017f200be7f;2b7b6af2-7a1f-11e2-83d0-0017f200be7f;2b7b6af3-7a1f-11e2-83d0-0017f200be7f;2b7b6af5-7a1f-11e2-83d0-0017f200be7f;2b7b6af6-7a1f-11e2-83d0-0017f200be7f;2b7b6af7-7a1f-11e2-83d0-0017f200be7f;2b7b6af8-7a1f-11e2-83d0-0017f200be7f;2b7b6af9-7a1f-11e2-83d0-0017f200be7f;2b7b6afa-7a1f-11e2-83d0-0017f200be7f;"
        },
        {
          "range" : [0, 1610752],
          "type" : 2,
          "editRate" : 44100,
          "trackRect" : [0, 0, 0, 0],
          "sampleRate" : 44100,
          "bitDepth" : 16,
          "numChannels" : 2,
          "integratedLUFS" : -35.0950524149963,
          "peakLevel" : 0.13116455078125,
          "metaData" : ""
        },
        {
          "range" : [0, 1609728],
          "type" : 2,
          "editRate" : 44100,
          "trackRect" : [0, 0, 0, 0],
          "sampleRate" : 44100,
          "bitDepth" : 16,
          "numChannels" : 2,
          "integratedLUFS" : 0.0,
          "peakLevel" : 0.0,
          "metaData" : ""
        }
      ]
    },
    {
      "id" : 14,
      "src" : "C:\\Users\\ungerw\\Documents\\Camtasia\\Aufn. 07-11-19_035.trec",
      "rect" : [0, 0, 1920, 1080],
      "lastMod" : "20190711T161515",
      "sourceTracks" : [
        {
          "range" : [0, 837],
          "type" : 0,
          "editRate" : 30,
          "trackRect" : [0, 0, 1920, 1080],
          "sampleRate" : 0,
          "bitDepth" : 0,
          "numChannels" : 0,
          "integratedLUFS" : 100.0,
          "peakLevel" : -1.0,
          "metaData" : "2b7b6a00-7a1f-11e2-83d0-0017f200be7f;2b7b6aef-7a1f-11e2-83d0-0017f200be7f;2b7b6af0-7a1f-11e2-83d0-0017f200be7f;2b7b6af1-7a1f-11e2-83d0-0017f200be7f;2b7b6af2-7a1f-11e2-83d0-0017f200be7f;2b7b6af3-7a1f-11e2-83d0-0017f200be7f;2b7b6af5-7a1f-11e2-83d0-0017f200be7f;2b7b6af6-7a1f-11e2-83d0-0017f200be7f;2b7b6af7-7a1f-11e2-83d0-0017f200be7f;2b7b6af8-7a1f-11e2-83d0-0017f200be7f;2b7b6af9-7a1f-11e2-83d0-0017f200be7f;2b7b6afa-7a1f-11e2-83d0-0017f200be7f;"
        },
        {
          "range" : [0, 1214464],
          "type" : 2,
          "editRate" : 44100,
          "trackRect" : [0, 0, 0, 0],
          "sampleRate" : 44100,
          "bitDepth" : 16,
          "numChannels" : 2,
          "integratedLUFS" : -34.6939404785799,
          "peakLevel" : 0.20123291015625,
          "metaData" : ""
        },
        {
          "range" : [0, 1228800],
          "type" : 2,
          "editRate" : 44100,
          "trackRect" : [0, 0, 0, 0],
          "sampleRate" : 44100,
          "bitDepth" : 16,
          "numChannels" : 2,
          "integratedLUFS" : 0.0,
          "peakLevel" : 0.0,
          "metaData" : ""
        }
      ]
    },
    {
      "id" : 15,
      "src" : "C:\\Users\\ungerw\\Documents\\Camtasia\\Aufn. 07-11-19_036.trec",
      "rect" : [0, 0, 1920, 1080],
      "lastMod" : "20190711T161729",
      "sourceTracks" : [
        {
          "range" : [0, 714],
          "type" : 0,
          "editRate" : 30,
          "trackRect" : [0, 0, 1920, 1080],
          "sampleRate" : 0,
          "bitDepth" : 0,
          "numChannels" : 0,
          "integratedLUFS" : 100.0,
          "peakLevel" : -1.0,
          "metaData" : "2b7b6a00-7a1f-11e2-83d0-0017f200be7f;2b7b6aef-7a1f-11e2-83d0-0017f200be7f;2b7b6af0-7a1f-11e2-83d0-0017f200be7f;2b7b6af1-7a1f-11e2-83d0-0017f200be7f;2b7b6af2-7a1f-11e2-83d0-0017f200be7f;2b7b6af3-7a1f-11e2-83d0-0017f200be7f;2b7b6af5-7a1f-11e2-83d0-0017f200be7f;2b7b6af6-7a1f-11e2-83d0-0017f200be7f;2b7b6af7-7a1f-11e2-83d0-0017f200be7f;2b7b6af8-7a1f-11e2-83d0-0017f200be7f;2b7b6af9-7a1f-11e2-83d0-0017f200be7f;2b7b6afa-7a1f-11e2-83d0-0017f200be7f;"
        },
        {
          "range" : [0, 1038336],
          "type" : 2,
          "editRate" : 44100,
          "trackRect" : [0, 0, 0, 0],
          "sampleRate" : 44100,
          "bitDepth" : 16,
          "numChannels" : 2,
          "integratedLUFS" : -36.2986142722428,
          "peakLevel" : 0.11651611328125,
          "metaData" : ""
        },
        {
          "range" : [0, 1050624],
          "type" : 2,
          "editRate" : 44100,
          "trackRect" : [0, 0, 0, 0],
          "sampleRate" : 44100,
          "bitDepth" : 16,
          "numChannels" : 2,
          "integratedLUFS" : 0.0,
          "peakLevel" : 0.0,
          "metaData" : ""
        }
      ]
    },
    {
      "id" : 16,
      "src" : "C:\\Users\\ungerw\\Documents\\Camtasia\\Aufn. 07-11-19_037.trec",
      "rect" : [0, 0, 1920, 1080],
      "lastMod" : "20190711T162704",
      "sourceTracks" : [
        {
          "range" : [0, 1070],
          "type" : 0,
          "editRate" : 30,
          "trackRect" : [0, 0, 1920, 1080],
          "sampleRate" : 0,
          "bitDepth" : 0,
          "numChannels" : 0,
          "integratedLUFS" : 100.0,
          "peakLevel" : -1.0,
          "metaData" : "2b7b6a00-7a1f-11e2-83d0-0017f200be7f;2b7b6aef-7a1f-11e2-83d0-0017f200be7f;2b7b6af0-7a1f-11e2-83d0-0017f200be7f;2b7b6af1-7a1f-11e2-83d0-0017f200be7f;2b7b6af2-7a1f-11e2-83d0-0017f200be7f;2b7b6af3-7a1f-11e2-83d0-0017f200be7f;2b7b6af5-7a1f-11e2-83d0-0017f200be7f;2b7b6af6-7a1f-11e2-83d0-0017f200be7f;2b7b6af7-7a1f-11e2-83d0-0017f200be7f;2b7b6af8-7a1f-11e2-83d0-0017f200be7f;2b7b6af9-7a1f-11e2-83d0-0017f200be7f;2b7b6afa-7a1f-11e2-83d0-0017f200be7f;"
        },
        {
          "range" : [0, 1566720],
          "type" : 2,
          "editRate" : 44100,
          "trackRect" : [0, 0, 0, 0],
          "sampleRate" : 44100,
          "bitDepth" : 16,
          "numChannels" : 2,
          "integratedLUFS" : -34.0847416255717,
          "peakLevel" : 0.2174072265625,
          "metaData" : ""
        },
        {
          "range" : [0, 1573888],
          "type" : 2,
          "editRate" : 44100,
          "trackRect" : [0, 0, 0, 0],
          "sampleRate" : 44100,
          "bitDepth" : 16,
          "numChannels" : 2,
          "integratedLUFS" : 0.0,
          "peakLevel" : 0.0,
          "metaData" : ""
        }
      ]
    },
    {
      "id" : 17,
      "src" : "C:\\Users\\ungerw\\Documents\\Camtasia\\Aufn. 07-11-19_038.trec",
      "rect" : [0, 0, 1920, 1080],
      "lastMod" : "20190711T162917",
      "sourceTracks" : [
        {
          "range" : [0, 1368],
          "type" : 0,
          "editRate" : 30,
          "trackRect" : [0, 0, 1920, 1080],
          "sampleRate" : 0,
          "bitDepth" : 0,
          "numChannels" : 0,
          "integratedLUFS" : 100.0,
          "peakLevel" : -1.0,
          "metaData" : "2b7b6a00-7a1f-11e2-83d0-0017f200be7f;2b7b6aef-7a1f-11e2-83d0-0017f200be7f;2b7b6af0-7a1f-11e2-83d0-0017f200be7f;2b7b6af1-7a1f-11e2-83d0-0017f200be7f;2b7b6af2-7a1f-11e2-83d0-0017f200be7f;2b7b6af3-7a1f-11e2-83d0-0017f200be7f;2b7b6af5-7a1f-11e2-83d0-0017f200be7f;2b7b6af6-7a1f-11e2-83d0-0017f200be7f;2b7b6af7-7a1f-11e2-83d0-0017f200be7f;2b7b6af8-7a1f-11e2-83d0-0017f200be7f;2b7b6af9-7a1f-11e2-83d0-0017f200be7f;2b7b6afa-7a1f-11e2-83d0-0017f200be7f;"
        },
        {
          "range" : [0, 2008064],
          "type" : 2,
          "editRate" : 44100,
          "trackRect" : [0, 0, 0, 0],
          "sampleRate" : 44100,
          "bitDepth" : 16,
          "numChannels" : 2,
          "integratedLUFS" : -35.4385299226558,
          "peakLevel" : 0.140960693359375,
          "metaData" : ""
        },
        {
          "range" : [0, 2011136],
          "type" : 2,
          "editRate" : 44100,
          "trackRect" : [0, 0, 0, 0],
          "sampleRate" : 44100,
          "bitDepth" : 16,
          "numChannels" : 2,
          "integratedLUFS" : 0.0,
          "peakLevel" : 0.0,
          "metaData" : ""
        }
      ]
    },
    {
      "id" : 18,
      "src" : "C:\\Users\\ungerw\\Documents\\Camtasia\\Aufn. 07-11-19_039.trec",
      "rect" : [0, 0, 1920, 1080],
      "lastMod" : "20190711T163248",
      "sourceTracks" : [
        {
          "range" : [0, 1077],
          "type" : 0,
          "editRate" : 30,
          "trackRect" : [0, 0, 1920, 1080],
          "sampleRate" : 0,
          "bitDepth" : 0,
          "numChannels" : 0,
          "integratedLUFS" : 100.0,
          "peakLevel" : -1.0,
          "metaData" : "2b7b6a00-7a1f-11e2-83d0-0017f200be7f;2b7b6aef-7a1f-11e2-83d0-0017f200be7f;2b7b6af0-7a1f-11e2-83d0-0017f200be7f;2b7b6af1-7a1f-11e2-83d0-0017f200be7f;2b7b6af2-7a1f-11e2-83d0-0017f200be7f;2b7b6af3-7a1f-11e2-83d0-0017f200be7f;2b7b6af5-7a1f-11e2-83d0-0017f200be7f;2b7b6af6-7a1f-11e2-83d0-0017f200be7f;2b7b6af7-7a1f-11e2-83d0-0017f200be7f;2b7b6af8-7a1f-11e2-83d0-0017f200be7f;2b7b6af9-7a1f-11e2-83d0-0017f200be7f;2b7b6afa-7a1f-11e2-83d0-0017f200be7f;"
        },
        {
          "range" : [0, 1566720],
          "type" : 2,
          "editRate" : 44100,
          "trackRect" : [0, 0, 0, 0],
          "sampleRate" : 44100,
          "bitDepth" : 16,
          "numChannels" : 2,
          "integratedLUFS" : -35.5343119292713,
          "peakLevel" : 0.1663818359375,
          "metaData" : ""
        },
        {
          "range" : [0, 1586176],
          "type" : 2,
          "editRate" : 44100,
          "trackRect" : [0, 0, 0, 0],
          "sampleRate" : 44100,
          "bitDepth" : 16,
          "numChannels" : 2,
          "integratedLUFS" : 0.0,
          "peakLevel" : 0.0,
          "metaData" : ""
        }
      ]
    },
    {
      "id" : 19,
      "src" : "C:\\Users\\ungerw\\Documents\\Camtasia\\Aufn. 07-11-19_040.trec",
      "rect" : [0, 0, 1920, 1080],
      "lastMod" : "20190711T163639",
      "sourceTracks" : [
        {
          "range" : [0, 1184],
          "type" : 0,
          "editRate" : 30,
          "trackRect" : [0, 0, 1920, 1080],
          "sampleRate" : 0,
          "bitDepth" : 0,
          "numChannels" : 0,
          "integratedLUFS" : 100.0,
          "peakLevel" : -1.0,
          "metaData" : "2b7b6a00-7a1f-11e2-83d0-0017f200be7f;2b7b6aef-7a1f-11e2-83d0-0017f200be7f;2b7b6af0-7a1f-11e2-83d0-0017f200be7f;2b7b6af1-7a1f-11e2-83d0-0017f200be7f;2b7b6af2-7a1f-11e2-83d0-0017f200be7f;2b7b6af3-7a1f-11e2-83d0-0017f200be7f;2b7b6af5-7a1f-11e2-83d0-0017f200be7f;2b7b6af6-7a1f-11e2-83d0-0017f200be7f;2b7b6af7-7a1f-11e2-83d0-0017f200be7f;2b7b6af8-7a1f-11e2-83d0-0017f200be7f;2b7b6af9-7a1f-11e2-83d0-0017f200be7f;2b7b6afa-7a1f-11e2-83d0-0017f200be7f;"
        },
        {
          "range" : [0, 1743872],
          "type" : 2,
          "editRate" : 44100,
          "trackRect" : [0, 0, 0, 0],
          "sampleRate" : 44100,
          "bitDepth" : 16,
          "numChannels" : 2,
          "integratedLUFS" : -34.456603170231,
          "peakLevel" : 0.14501953125,
          "metaData" : ""
        },
        {
          "range" : [0, 1743872],
          "type" : 2,
          "editRate" : 44100,
          "trackRect" : [0, 0, 0, 0],
          "sampleRate" : 44100,
          "bitDepth" : 16,
          "numChannels" : 2,
          "integratedLUFS" : 0.0,
          "peakLevel" : 0.0,
          "metaData" : ""
        }
      ]
    },
    {
      "id" : 20,
      "src" : "C:\\Users\\ungerw\\Documents\\Camtasia\\Aufn. 07-11-19_041.trec",
      "rect" : [0, 0, 1920, 1080],
      "lastMod" : "20190711T163831",
      "sourceTracks" : [
        {
          "range" : [0, 229],
          "type" : 0,
          "editRate" : 30,
          "trackRect" : [0, 0, 1920, 1080],
          "sampleRate" : 0,
          "bitDepth" : 0,
          "numChannels" : 0,
          "integratedLUFS" : 100.0,
          "peakLevel" : -1.0,
          "metaData" : "2b7b6a00-7a1f-11e2-83d0-0017f200be7f;2b7b6aef-7a1f-11e2-83d0-0017f200be7f;2b7b6af0-7a1f-11e2-83d0-0017f200be7f;2b7b6af1-7a1f-11e2-83d0-0017f200be7f;2b7b6af2-7a1f-11e2-83d0-0017f200be7f;2b7b6af3-7a1f-11e2-83d0-0017f200be7f;2b7b6af5-7a1f-11e2-83d0-0017f200be7f;2b7b6af6-7a1f-11e2-83d0-0017f200be7f;2b7b6af7-7a1f-11e2-83d0-0017f200be7f;2b7b6af8-7a1f-11e2-83d0-0017f200be7f;2b7b6af9-7a1f-11e2-83d0-0017f200be7f;2b7b6afa-7a1f-11e2-83d0-0017f200be7f;"
        },
        {
          "range" : [0, 331776],
          "type" : 2,
          "editRate" : 44100,
          "trackRect" : [0, 0, 0, 0],
          "sampleRate" : 44100,
          "bitDepth" : 16,
          "numChannels" : 2,
          "integratedLUFS" : -32.5679269173877,
          "peakLevel" : 0.20721435546875,
          "metaData" : ""
        },
        {
          "range" : [0, 337920],
          "type" : 2,
          "editRate" : 44100,
          "trackRect" : [0, 0, 0, 0],
          "sampleRate" : 44100,
          "bitDepth" : 16,
          "numChannels" : 2,
          "integratedLUFS" : 0.0,
          "peakLevel" : 0.0,
          "metaData" : ""
        }
      ]
    }
  ],
  "timeline" : {
    "id" : 21,
    "sceneTrack" : {
      "scenes" : [
        {
          "duration" : 616.233333333333,
          "title" : "",
          "type" : "",
          "csml" : {
            "tracks" : [
              {
                "trackIndex" : 0,
                "medias" : [
                  {
                    "id" : 22,
                    "_type" : "UnifiedMedia",
                    "video" : 
                        {
                          "id" : 23,
                          "_type" : "ScreenVMFile",
                          "src" : 1,
                          "trackNumber" : 0,
                          "attributes" : {
                            "ident" : "Aufn. 07-11-19_006"
                          },
                          "parameters" : {
                            "cursorScale" : {
                              "type" : "double",
                              "defaultValue" : 1.0,
                              "interp" : "linr"
                            },
                            "cursorOpacity" : {
                              "type" : "double",
                              "defaultValue" : 1.0,
                              "interp" : "linr"
                            }
                          },
                          "effects" : [

                          ],
                          "start" : 0,
                          "duration" : 416,
                          "mediaStart" : 446,
                          "mediaDuration" : 416,
                          "scalar" : 1,
                          "animationTracks" : {

                          }
                        },
                    "audio" : 
                        {
                          "id" : 24,
                          "_type" : "AMFile",
                          "src" : 1,
                          "trackNumber" : 2,
                          "attributes" : {
                            "ident" : "",
                            "sampleRate" : 44100,
                            "bitDepth" : 16,
                            "gain" : 1.0,
                            "mixToMono" : false
                          },
                            "channelNumber" : "0,1",
                          "effects" : [

                          ],
                          "start" : 0,
                          "duration" : 416,
                          "mediaStart" : 446,
                          "mediaDuration" : 416,
                          "scalar" : 1,
                          "animationTracks" : {

                          }
                        }
,
                    "start" : 0,
                    "duration" : 416,
                    "mediaStart" : 0,
                    "mediaDuration" : 876,
                    "scalar" : 1,
                    "metadata" : {
                      "AutoAppliedSmartFocus" : "False",
                      "WinSubProjectDisplayName" : "",
                      "clipSpeedAttribute" : false
                    }
                  },
                  {
                    "id" : 25,
                    "_type" : "UnifiedMedia",
                    "video" : 
                        {
                          "id" : 26,
                          "_type" : "ScreenVMFile",
                          "src" : 2,
                          "trackNumber" : 0,
                          "attributes" : {
                            "ident" : "Aufn. 07-11-19_014"
                          },
                          "parameters" : {
                            "cursorScale" : {
                              "type" : "double",
                              "defaultValue" : 1.0,
                              "interp" : "linr"
                            },
                            "cursorOpacity" : {
                              "type" : "double",
                              "defaultValue" : 1.0,
                              "interp" : "linr"
                            }
                          },
                          "effects" : [

                          ],
                          "start" : 416,
                          "duration" : 930,
                          "mediaStart" : 37,
                          "mediaDuration" : 930,
                          "scalar" : 1,
                          "animationTracks" : {

                          }
                        },
                    "audio" : 
                        {
                          "id" : 27,
                          "_type" : "AMFile",
                          "src" : 2,
                          "trackNumber" : 2,
                          "attributes" : {
                            "ident" : "",
                            "sampleRate" : 44100,
                            "bitDepth" : 16,
                            "gain" : 1.0,
                            "mixToMono" : false
                          },
                            "channelNumber" : "0,1",
                          "effects" : [

                          ],
                          "start" : 416,
                          "duration" : 930,
                          "mediaStart" : 37,
                          "mediaDuration" : 930,
                          "scalar" : 1,
                          "animationTracks" : {

                          }
                        }
,
                    "start" : 416,
                    "duration" : 930,
                    "mediaStart" : 0,
                    "mediaDuration" : 988,
                    "scalar" : 1,
                    "metadata" : {
                      "AutoAppliedSmartFocus" : "False",
                      "WinSubProjectDisplayName" : "",
                      "clipSpeedAttribute" : false
                    }
                  },
                  {
                    "id" : 28,
                    "_type" : "UnifiedMedia",
                    "video" : 
                        {
                          "id" : 29,
                          "_type" : "ScreenVMFile",
                          "src" : 3,
                          "trackNumber" : 0,
                          "attributes" : {
                            "ident" : "Aufn. 07-11-19_015"
                          },
                          "parameters" : {
                            "cursorScale" : {
                              "type" : "double",
                              "defaultValue" : 1.0,
                              "interp" : "linr"
                            },
                            "cursorOpacity" : {
                              "type" : "double",
                              "defaultValue" : 1.0,
                              "interp" : "linr"
                            }
                          },
                          "effects" : [

                          ],
                          "start" : 1346,
                          "duration" : 765,
                          "mediaStart" : 27,
                          "mediaDuration" : 765,
                          "scalar" : 1,
                          "animationTracks" : {

                          }
                        },
                    "audio" : 
                        {
                          "id" : 30,
                          "_type" : "AMFile",
                          "src" : 3,
                          "trackNumber" : 2,
                          "attributes" : {
                            "ident" : "",
                            "sampleRate" : 44100,
                            "bitDepth" : 16,
                            "gain" : 1.0,
                            "mixToMono" : false
                          },
                            "channelNumber" : "0,1",
                          "effects" : [

                          ],
                          "start" : 1346,
                          "duration" : 765,
                          "mediaStart" : 27,
                          "mediaDuration" : 765,
                          "scalar" : 1,
                          "animationTracks" : {

                          }
                        }
,
                    "start" : 1346,
                    "duration" : 765,
                    "mediaStart" : 0,
                    "mediaDuration" : 822,
                    "scalar" : 1,
                    "metadata" : {
                      "AutoAppliedSmartFocus" : "False",
                      "WinSubProjectDisplayName" : "",
                      "clipSpeedAttribute" : false
                    }
                  },
                  {
                    "id" : 31,
                    "_type" : "UnifiedMedia",
                    "video" : 
                        {
                          "id" : 32,
                          "_type" : "ScreenVMFile",
                          "src" : 4,
                          "trackNumber" : 0,
                          "attributes" : {
                            "ident" : "Aufn. 07-11-19_016"
                          },
                          "parameters" : {
                            "cursorScale" : {
                              "type" : "double",
                              "defaultValue" : 1.0,
                              "interp" : "linr"
                            },
                            "cursorOpacity" : {
                              "type" : "double",
                              "defaultValue" : 1.0,
                              "interp" : "linr"
                            }
                          },
                          "effects" : [

                          ],
                          "start" : 2111,
                          "duration" : 1699,
                          "mediaStart" : 26,
                          "mediaDuration" : 1699,
                          "scalar" : 1,
                          "animationTracks" : {

                          }
                        },
                    "audio" : 
                        {
                          "id" : 33,
                          "_type" : "AMFile",
                          "src" : 4,
                          "trackNumber" : 2,
                          "attributes" : {
                            "ident" : "",
                            "sampleRate" : 44100,
                            "bitDepth" : 16,
                            "gain" : 1.0,
                            "mixToMono" : false
                          },
                            "channelNumber" : "0,1",
                          "effects" : [

                          ],
                          "start" : 2111,
                          "duration" : 1699,
                          "mediaStart" : 26,
                          "mediaDuration" : 1699,
                          "scalar" : 1,
                          "animationTracks" : {

                          }
                        }
,
                    "start" : 2111,
                    "duration" : 1699,
                    "mediaStart" : 0,
                    "mediaDuration" : 1748,
                    "scalar" : 1,
                    "metadata" : {
                      "AutoAppliedSmartFocus" : "False",
                      "WinSubProjectDisplayName" : "",
                      "clipSpeedAttribute" : false
                    }
                  },
                  {
                    "id" : 34,
                    "_type" : "UnifiedMedia",
                    "video" : 
                        {
                          "id" : 35,
                          "_type" : "ScreenVMFile",
                          "src" : 5,
                          "trackNumber" : 0,
                          "attributes" : {
                            "ident" : "Aufn. 07-11-19_017"
                          },
                          "parameters" : {
                            "cursorScale" : {
                              "type" : "double",
                              "defaultValue" : 1.0,
                              "interp" : "linr"
                            },
                            "cursorOpacity" : {
                              "type" : "double",
                              "defaultValue" : 1.0,
                              "interp" : "linr"
                            }
                          },
                          "effects" : [

                          ],
                          "start" : 3810,
                          "duration" : 1055,
                          "mediaStart" : 53,
                          "mediaDuration" : 1055,
                          "scalar" : 1,
                          "animationTracks" : {

                          }
                        },
                    "audio" : 
                        {
                          "id" : 36,
                          "_type" : "AMFile",
                          "src" : 5,
                          "trackNumber" : 2,
                          "attributes" : {
                            "ident" : "",
                            "sampleRate" : 44100,
                            "bitDepth" : 16,
                            "gain" : 1.0,
                            "mixToMono" : false
                          },
                            "channelNumber" : "0,1",
                          "effects" : [

                          ],
                          "start" : 3810,
                          "duration" : 1055,
                          "mediaStart" : 53,
                          "mediaDuration" : 1055,
                          "scalar" : 1,
                          "animationTracks" : {

                          }
                        }
,
                    "start" : 3810,
                    "duration" : 1055,
                    "mediaStart" : 0,
                    "mediaDuration" : 1128,
                    "scalar" : 1,
                    "metadata" : {
                      "AutoAppliedSmartFocus" : "False",
                      "WinSubProjectDisplayName" : "",
                      "clipSpeedAttribute" : false
                    }
                  },
                  {
                    "id" : 37,
                    "_type" : "UnifiedMedia",
                    "video" : 
                        {
                          "id" : 38,
                          "_type" : "ScreenVMFile",
                          "src" : 6,
                          "trackNumber" : 0,
                          "attributes" : {
                            "ident" : "Aufn. 07-11-19_023"
                          },
                          "parameters" : {
                            "cursorScale" : {
                              "type" : "double",
                              "defaultValue" : 1.0,
                              "interp" : "linr"
                            },
                            "cursorOpacity" : {
                              "type" : "double",
                              "defaultValue" : 1.0,
                              "interp" : "linr"
                            }
                          },
                          "effects" : [

                          ],
                          "start" : 4865,
                          "duration" : 886,
                          "mediaStart" : 31,
                          "mediaDuration" : 886,
                          "scalar" : 1,
                          "animationTracks" : {

                          }
                        },
                    "audio" : 
                        {
                          "id" : 39,
                          "_type" : "AMFile",
                          "src" : 6,
                          "trackNumber" : 2,
                          "attributes" : {
                            "ident" : "",
                            "sampleRate" : 44100,
                            "bitDepth" : 16,
                            "gain" : 1.0,
                            "mixToMono" : false
                          },
                            "channelNumber" : "0,1",
                          "effects" : [

                          ],
                          "start" : 4865,
                          "duration" : 886,
                          "mediaStart" : 31,
                          "mediaDuration" : 886,
                          "scalar" : 1,
                          "animationTracks" : {

                          }
                        }
,
                    "start" : 4865,
                    "duration" : 886,
                    "mediaStart" : 0,
                    "mediaDuration" : 930,
                    "scalar" : 1,
                    "metadata" : {
                      "AutoAppliedSmartFocus" : "False",
                      "WinSubProjectDisplayName" : "",
                      "clipSpeedAttribute" : false
                    }
                  },
                  {
                    "id" : 40,
                    "_type" : "UnifiedMedia",
                    "video" : 
                        {
                          "id" : 41,
                          "_type" : "ScreenVMFile",
                          "src" : 8,
                          "trackNumber" : 0,
                          "attributes" : {
                            "ident" : "Aufn. 07-11-19_027"
                          },
                          "parameters" : {
                            "cursorScale" : {
                              "type" : "double",
                              "defaultValue" : 1.0,
                              "interp" : "linr"
                            },
                            "cursorOpacity" : {
                              "type" : "double",
                              "defaultValue" : 1.0,
                              "interp" : "linr"
                            }
                          },
                          "effects" : [

                          ],
                          "start" : 5751,
                          "duration" : 577,
                          "mediaStart" : 36,
                          "mediaDuration" : 577,
                          "scalar" : 1,
                          "animationTracks" : {

                          }
                        },
                    "audio" : 
                        {
                          "id" : 42,
                          "_type" : "AMFile",
                          "src" : 8,
                          "trackNumber" : 2,
                          "attributes" : {
                            "ident" : "",
                            "sampleRate" : 44100,
                            "bitDepth" : 16,
                            "gain" : 1.0,
                            "mixToMono" : false
                          },
                            "channelNumber" : "0,1",
                          "effects" : [

                          ],
                          "start" : 5751,
                          "duration" : 577,
                          "mediaStart" : 36,
                          "mediaDuration" : 577,
                          "scalar" : 1,
                          "animationTracks" : {

                          }
                        }
,
                    "start" : 5751,
                    "duration" : 577,
                    "mediaStart" : 0,
                    "mediaDuration" : 1840,
                    "scalar" : 1,
                    "metadata" : {
                      "AutoAppliedSmartFocus" : "False",
                      "WinSubProjectDisplayName" : "",
                      "clipSpeedAttribute" : false
                    }
                  },
                  {
                    "id" : 43,
                    "_type" : "UnifiedMedia",
                    "video" : 
                        {
                          "id" : 44,
                          "_type" : "ScreenVMFile",
                          "src" : 8,
                          "trackNumber" : 0,
                          "attributes" : {
                            "ident" : "Aufn. 07-11-19_027"
                          },
                          "parameters" : {
                            "cursorScale" : {
                              "type" : "double",
                              "defaultValue" : 1.0,
                              "interp" : "linr"
                            },
                            "cursorOpacity" : {
                              "type" : "double",
                              "defaultValue" : 1.0,
                              "interp" : "linr"
                            }
                          },
                          "effects" : [

                          ],
                          "start" : 6328,
                          "duration" : 467,
                          "mediaStart" : 613,
                          "mediaDuration" : 467,
                          "scalar" : 1,
                          "animationTracks" : {

                          }
                        },
                    "audio" : 
                        {
                          "id" : 45,
                          "_type" : "AMFile",
                          "src" : 8,
                          "trackNumber" : 2,
                          "attributes" : {
                            "ident" : "",
                            "sampleRate" : 44100,
                            "bitDepth" : 16,
                            "gain" : 1.0,
                            "mixToMono" : false
                          },
                            "channelNumber" : "0,1",
                          "effects" : [

                          ],
                          "start" : 6328,
                          "duration" : 467,
                          "mediaStart" : 613,
                          "mediaDuration" : 467,
                          "scalar" : 1,
                          "animationTracks" : {

                          }
                        }
,
                    "start" : 6328,
                    "duration" : 467,
                    "mediaStart" : 0,
                    "mediaDuration" : 1840,
                    "scalar" : 1,
                    "metadata" : {
                      "AutoAppliedSmartFocus" : "False",
                      "WinSubProjectDisplayName" : "",
                      "clipSpeedAttribute" : false
                    }
                  },
                  {
                    "id" : 46,
                    "_type" : "UnifiedMedia",
                    "video" : 
                        {
                          "id" : 47,
                          "_type" : "ScreenVMFile",
                          "src" : 9,
                          "trackNumber" : 0,
                          "attributes" : {
                            "ident" : "Aufn. 07-11-19_028"
                          },
                          "parameters" : {
                            "cursorScale" : {
                              "type" : "double",
                              "defaultValue" : 1.0,
                              "interp" : "linr"
                            },
                            "cursorOpacity" : {
                              "type" : "double",
                              "defaultValue" : 1.0,
                              "interp" : "linr"
                            }
                          },
                          "effects" : [

                          ],
                          "start" : 6795,
                          "duration" : 742,
                          "mediaStart" : 36,
                          "mediaDuration" : 742,
                          "scalar" : 1,
                          "animationTracks" : {

                          }
                        },
                    "audio" : 
                        {
                          "id" : 48,
                          "_type" : "AMFile",
                          "src" : 9,
                          "trackNumber" : 2,
                          "attributes" : {
                            "ident" : "",
                            "sampleRate" : 44100,
                            "bitDepth" : 16,
                            "gain" : 1.0,
                            "mixToMono" : false
                          },
                            "channelNumber" : "0,1",
                          "effects" : [

                          ],
                          "start" : 6795,
                          "duration" : 742,
                          "mediaStart" : 36,
                          "mediaDuration" : 742,
                          "scalar" : 1,
                          "animationTracks" : {

                          }
                        }
,
                    "start" : 6795,
                    "duration" : 742,
                    "mediaStart" : 0,
                    "mediaDuration" : 793,
                    "scalar" : 1,
                    "metadata" : {
                      "AutoAppliedSmartFocus" : "False",
                      "WinSubProjectDisplayName" : "",
                      "clipSpeedAttribute" : false
                    }
                  },
                  {
                    "id" : 49,
                    "_type" : "UnifiedMedia",
                    "video" : 
                        {
                          "id" : 50,
                          "_type" : "ScreenVMFile",
                          "src" : 10,
                          "trackNumber" : 0,
                          "attributes" : {
                            "ident" : "Aufn. 07-11-19_029"
                          },
                          "parameters" : {
                            "cursorScale" : {
                              "type" : "double",
                              "defaultValue" : 1.0,
                              "interp" : "linr"
                            },
                            "cursorOpacity" : {
                              "type" : "double",
                              "defaultValue" : 1.0,
                              "interp" : "linr"
                            }
                          },
                          "effects" : [

                          ],
                          "start" : 7537,
                          "duration" : 809,
                          "mediaStart" : 20,
                          "mediaDuration" : 809,
                          "scalar" : 1,
                          "animationTracks" : {

                          }
                        },
                    "audio" : 
                        {
                          "id" : 51,
                          "_type" : "AMFile",
                          "src" : 10,
                          "trackNumber" : 2,
                          "attributes" : {
                            "ident" : "",
                            "sampleRate" : 44100,
                            "bitDepth" : 16,
                            "gain" : 1.0,
                            "mixToMono" : false
                          },
                            "channelNumber" : "0,1",
                          "effects" : [

                          ],
                          "start" : 7537,
                          "duration" : 809,
                          "mediaStart" : 20,
                          "mediaDuration" : 809,
                          "scalar" : 1,
                          "animationTracks" : {

                          }
                        }
,
                    "start" : 7537,
                    "duration" : 809,
                    "mediaStart" : 0,
                    "mediaDuration" : 846,
                    "scalar" : 1,
                    "metadata" : {
                      "AutoAppliedSmartFocus" : "False",
                      "WinSubProjectDisplayName" : "",
                      "clipSpeedAttribute" : false
                    }
                  },
                  {
                    "id" : 52,
                    "_type" : "UnifiedMedia",
                    "video" : 
                        {
                          "id" : 53,
                          "_type" : "ScreenVMFile",
                          "src" : 11,
                          "trackNumber" : 0,
                          "attributes" : {
                            "ident" : "Aufn. 07-11-19_030"
                          },
                          "parameters" : {
                            "cursorScale" : {
                              "type" : "double",
                              "defaultValue" : 1.0,
                              "interp" : "linr"
                            },
                            "cursorOpacity" : {
                              "type" : "double",
                              "defaultValue" : 1.0,
                              "interp" : "linr"
                            }
                          },
                          "effects" : [

                          ],
                          "start" : 8346,
                          "duration" : 1828,
                          "mediaStart" : 52,
                          "mediaDuration" : 1828,
                          "scalar" : 1,
                          "animationTracks" : {

                          }
                        },
                    "audio" : 
                        {
                          "id" : 54,
                          "_type" : "AMFile",
                          "src" : 11,
                          "trackNumber" : 2,
                          "attributes" : {
                            "ident" : "",
                            "sampleRate" : 44100,
                            "bitDepth" : 16,
                            "gain" : 1.0,
                            "mixToMono" : false
                          },
                            "channelNumber" : "0,1",
                          "effects" : [

                          ],
                          "start" : 8346,
                          "duration" : 1828,
                          "mediaStart" : 52,
                          "mediaDuration" : 1828,
                          "scalar" : 1,
                          "animationTracks" : {

                          }
                        }
,
                    "start" : 8346,
                    "duration" : 1828,
                    "mediaStart" : 0,
                    "mediaDuration" : 1900,
                    "scalar" : 1,
                    "metadata" : {
                      "AutoAppliedSmartFocus" : "False",
                      "WinSubProjectDisplayName" : "",
                      "clipSpeedAttribute" : false
                    }
                  },
                  {
                    "id" : 55,
                    "_type" : "UnifiedMedia",
                    "video" : 
                        {
                          "id" : 56,
                          "_type" : "ScreenVMFile",
                          "src" : 12,
                          "trackNumber" : 0,
                          "attributes" : {
                            "ident" : "Aufn. 07-11-19_031"
                          },
                          "parameters" : {
                            "cursorScale" : {
                              "type" : "double",
                              "defaultValue" : 1.0,
                              "interp" : "linr"
                            },
                            "cursorOpacity" : {
                              "type" : "double",
                              "defaultValue" : 1.0,
                              "interp" : "linr"
                            }
                          },
                          "effects" : [

                          ],
                          "start" : 10174,
                          "duration" : 2027,
                          "mediaStart" : 21,
                          "mediaDuration" : 2027,
                          "scalar" : 1,
                          "animationTracks" : {

                          }
                        },
                    "audio" : 
                        {
                          "id" : 57,
                          "_type" : "AMFile",
                          "src" : 12,
                          "trackNumber" : 2,
                          "attributes" : {
                            "ident" : "",
                            "sampleRate" : 44100,
                            "bitDepth" : 16,
                            "gain" : 1.0,
                            "mixToMono" : false
                          },
                            "channelNumber" : "0,1",
                          "effects" : [

                          ],
                          "start" : 10174,
                          "duration" : 2027,
                          "mediaStart" : 21,
                          "mediaDuration" : 2027,
                          "scalar" : 1,
                          "animationTracks" : {

                          }
                        }
,
                    "start" : 10174,
                    "duration" : 2027,
                    "mediaStart" : 0,
                    "mediaDuration" : 2060,
                    "scalar" : 1,
                    "metadata" : {
                      "AutoAppliedSmartFocus" : "False",
                      "WinSubProjectDisplayName" : "",
                      "clipSpeedAttribute" : false
                    }
                  },
                  {
                    "id" : 58,
                    "_type" : "UnifiedMedia",
                    "video" : 
                        {
                          "id" : 59,
                          "_type" : "ScreenVMFile",
                          "src" : 13,
                          "trackNumber" : 0,
                          "attributes" : {
                            "ident" : "Aufn. 07-11-19_032"
                          },
                          "parameters" : {
                            "cursorScale" : {
                              "type" : "double",
                              "defaultValue" : 1.0,
                              "interp" : "linr"
                            },
                            "cursorOpacity" : {
                              "type" : "double",
                              "defaultValue" : 1.0,
                              "interp" : "linr"
                            }
                          },
                          "effects" : [

                          ],
                          "start" : 12201,
                          "duration" : 1056,
                          "mediaStart" : 15,
                          "mediaDuration" : 1056,
                          "scalar" : 1,
                          "animationTracks" : {

                          }
                        },
                    "audio" : 
                        {
                          "id" : 60,
                          "_type" : "AMFile",
                          "src" : 13,
                          "trackNumber" : 2,
                          "attributes" : {
                            "ident" : "",
                            "sampleRate" : 44100,
                            "bitDepth" : 16,
                            "gain" : 1.0,
                            "mixToMono" : false
                          },
                            "channelNumber" : "0,1",
                          "effects" : [

                          ],
                          "start" : 12201,
                          "duration" : 1056,
                          "mediaStart" : 15,
                          "mediaDuration" : 1056,
                          "scalar" : 1,
                          "animationTracks" : {

                          }
                        }
,
                    "start" : 12201,
                    "duration" : 1056,
                    "mediaStart" : 0,
                    "mediaDuration" : 1095,
                    "scalar" : 1,
                    "metadata" : {
                      "AutoAppliedSmartFocus" : "False",
                      "WinSubProjectDisplayName" : "",
                      "clipSpeedAttribute" : false
                    }
                  },
                  {
                    "id" : 61,
                    "_type" : "UnifiedMedia",
                    "video" : 
                        {
                          "id" : 62,
                          "_type" : "ScreenVMFile",
                          "src" : 14,
                          "trackNumber" : 0,
                          "attributes" : {
                            "ident" : "Aufn. 07-11-19_035"
                          },
                          "parameters" : {
                            "cursorScale" : {
                              "type" : "double",
                              "defaultValue" : 1.0,
                              "interp" : "linr"
                            },
                            "cursorOpacity" : {
                              "type" : "double",
                              "defaultValue" : 1.0,
                              "interp" : "linr"
                            }
                          },
                          "effects" : [

                          ],
                          "start" : 13257,
                          "duration" : 768,
                          "mediaStart" : 51,
                          "mediaDuration" : 768,
                          "scalar" : 1,
                          "animationTracks" : {

                          }
                        },
                    "audio" : 
                        {
                          "id" : 63,
                          "_type" : "AMFile",
                          "src" : 14,
                          "trackNumber" : 2,
                          "attributes" : {
                            "ident" : "",
                            "sampleRate" : 44100,
                            "bitDepth" : 16,
                            "gain" : 1.0,
                            "mixToMono" : false
                          },
                            "channelNumber" : "0,1",
                          "effects" : [

                          ],
                          "start" : 13257,
                          "duration" : 768,
                          "mediaStart" : 51,
                          "mediaDuration" : 768,
                          "scalar" : 1,
                          "animationTracks" : {

                          }
                        }
,
                    "start" : 13257,
                    "duration" : 768,
                    "mediaStart" : 0,
                    "mediaDuration" : 836,
                    "scalar" : 1,
                    "metadata" : {
                      "AutoAppliedSmartFocus" : "False",
                      "WinSubProjectDisplayName" : "",
                      "clipSpeedAttribute" : false
                    }
                  },
                  {
                    "id" : 64,
                    "_type" : "UnifiedMedia",
                    "video" : 
                        {
                          "id" : 65,
                          "_type" : "ScreenVMFile",
                          "src" : 15,
                          "trackNumber" : 0,
                          "attributes" : {
                            "ident" : "Aufn. 07-11-19_036"
                          },
                          "parameters" : {
                            "cursorScale" : {
                              "type" : "double",
                              "defaultValue" : 1.0,
                              "interp" : "linr"
                            },
                            "cursorOpacity" : {
                              "type" : "double",
                              "defaultValue" : 1.0,
                              "interp" : "linr"
                            }
                          },
                          "effects" : [

                          ],
                          "start" : 14025,
                          "duration" : 232,
                          "mediaStart" : 17,
                          "mediaDuration" : 232,
                          "scalar" : 1,
                          "animationTracks" : {

                          }
                        },
                    "audio" : 
                        {
                          "id" : 66,
                          "_type" : "AMFile",
                          "src" : 15,
                          "trackNumber" : 2,
                          "attributes" : {
                            "ident" : "",
                            "sampleRate" : 44100,
                            "bitDepth" : 16,
                            "gain" : 1.0,
                            "mixToMono" : false
                          },
                            "channelNumber" : "0,1",
                          "effects" : [

                          ],
                          "start" : 14025,
                          "duration" : 232,
                          "mediaStart" : 17,
                          "mediaDuration" : 232,
                          "scalar" : 1,
                          "animationTracks" : {

                          }
                        }
,
                    "start" : 14025,
                    "duration" : 232,
                    "mediaStart" : 0,
                    "mediaDuration" : 714,
                    "scalar" : 1,
                    "metadata" : {
                      "AutoAppliedSmartFocus" : "False",
                      "WinSubProjectDisplayName" : "",
                      "clipSpeedAttribute" : false
                    }
                  },
                  {
                    "id" : 67,
                    "_type" : "UnifiedMedia",
                    "video" : 
                        {
                          "id" : 68,
                          "_type" : "ScreenVMFile",
                          "src" : 15,
                          "trackNumber" : 0,
                          "attributes" : {
                            "ident" : "Aufn. 07-11-19_036"
                          },
                          "parameters" : {
                            "cursorScale" : {
                              "type" : "double",
                              "defaultValue" : 1.0,
                              "interp" : "linr"
                            },
                            "cursorOpacity" : {
                              "type" : "double",
                              "defaultValue" : 1.0,
                              "interp" : "linr"
                            }
                          },
                          "effects" : [

                          ],
                          "start" : 14257,
                          "duration" : 338,
                          "mediaStart" : 358,
                          "mediaDuration" : 338,
                          "scalar" : 1,
                          "animationTracks" : {

                          }
                        },
                    "audio" : 
                        {
                          "id" : 69,
                          "_type" : "AMFile",
                          "src" : 15,
                          "trackNumber" : 2,
                          "attributes" : {
                            "ident" : "",
                            "sampleRate" : 44100,
                            "bitDepth" : 16,
                            "gain" : 1.0,
                            "mixToMono" : false
                          },
                            "channelNumber" : "0,1",
                          "effects" : [

                          ],
                          "start" : 14257,
                          "duration" : 338,
                          "mediaStart" : 358,
                          "mediaDuration" : 338,
                          "scalar" : 1,
                          "animationTracks" : {

                          }
                        }
,
                    "start" : 14257,
                    "duration" : 338,
                    "mediaStart" : 0,
                    "mediaDuration" : 714,
                    "scalar" : 1,
                    "metadata" : {
                      "AutoAppliedSmartFocus" : "False",
                      "WinSubProjectDisplayName" : "",
                      "clipSpeedAttribute" : false
                    }
                  },
                  {
                    "id" : 70,
                    "_type" : "UnifiedMedia",
                    "video" : 
                        {
                          "id" : 71,
                          "_type" : "ScreenVMFile",
                          "src" : 16,
                          "trackNumber" : 0,
                          "attributes" : {
                            "ident" : "Aufn. 07-11-19_037"
                          },
                          "parameters" : {
                            "cursorScale" : {
                              "type" : "double",
                              "defaultValue" : 1.0,
                              "interp" : "linr"
                            },
                            "cursorOpacity" : {
                              "type" : "double",
                              "defaultValue" : 1.0,
                              "interp" : "linr"
                            }
                          },
                          "effects" : [

                          ],
                          "start" : 14595,
                          "duration" : 925,
                          "mediaStart" : 41,
                          "mediaDuration" : 925,
                          "scalar" : 1,
                          "animationTracks" : {

                          }
                        },
                    "audio" : 
                        {
                          "id" : 72,
                          "_type" : "AMFile",
                          "src" : 16,
                          "trackNumber" : 2,
                          "attributes" : {
                            "ident" : "",
                            "sampleRate" : 44100,
                            "bitDepth" : 16,
                            "gain" : 1.0,
                            "mixToMono" : false
                          },
                            "channelNumber" : "0,1",
                          "effects" : [

                          ],
                          "start" : 14595,
                          "duration" : 925,
                          "mediaStart" : 41,
                          "mediaDuration" : 925,
                          "scalar" : 1,
                          "animationTracks" : {

                          }
                        }
,
                    "start" : 14595,
                    "duration" : 925,
                    "mediaStart" : 0,
                    "mediaDuration" : 1070,
                    "scalar" : 1,
                    "metadata" : {
                      "AutoAppliedSmartFocus" : "False",
                      "WinSubProjectDisplayName" : "",
                      "clipSpeedAttribute" : false
                    }
                  },
                  {
                    "id" : 73,
                    "_type" : "UnifiedMedia",
                    "video" : 
                        {
                          "id" : 74,
                          "_type" : "ScreenVMFile",
                          "src" : 17,
                          "trackNumber" : 0,
                          "attributes" : {
                            "ident" : "Aufn. 07-11-19_038"
                          },
                          "parameters" : {
                            "cursorScale" : {
                              "type" : "double",
                              "defaultValue" : 1.0,
                              "interp" : "linr"
                            },
                            "cursorOpacity" : {
                              "type" : "double",
                              "defaultValue" : 1.0,
                              "interp" : "linr"
                            }
                          },
                          "effects" : [

                          ],
                          "start" : 15520,
                          "duration" : 1105,
                          "mediaStart" : 19,
                          "mediaDuration" : 1105,
                          "scalar" : 1,
                          "animationTracks" : {

                          }
                        },
                    "audio" : 
                        {
                          "id" : 75,
                          "_type" : "AMFile",
                          "src" : 17,
                          "trackNumber" : 2,
                          "attributes" : {
                            "ident" : "",
                            "sampleRate" : 44100,
                            "bitDepth" : 16,
                            "gain" : 1.0,
                            "mixToMono" : false
                          },
                            "channelNumber" : "0,1",
                          "effects" : [

                          ],
                          "start" : 15520,
                          "duration" : 1105,
                          "mediaStart" : 19,
                          "mediaDuration" : 1105,
                          "scalar" : 1,
                          "animationTracks" : {

                          }
                        }
,
                    "start" : 15520,
                    "duration" : 1105,
                    "mediaStart" : 0,
                    "mediaDuration" : 1368,
                    "scalar" : 1,
                    "metadata" : {
                      "AutoAppliedSmartFocus" : "False",
                      "WinSubProjectDisplayName" : "",
                      "clipSpeedAttribute" : false
                    }
                  },
                  {
                    "id" : 76,
                    "_type" : "UnifiedMedia",
                    "video" : 
                        {
                          "id" : 77,
                          "_type" : "ScreenVMFile",
                          "src" : 18,
                          "trackNumber" : 0,
                          "attributes" : {
                            "ident" : "Aufn. 07-11-19_039"
                          },
                          "parameters" : {
                            "cursorScale" : {
                              "type" : "double",
                              "defaultValue" : 1.0,
                              "interp" : "linr"
                            },
                            "cursorOpacity" : {
                              "type" : "double",
                              "defaultValue" : 1.0,
                              "interp" : "linr"
                            }
                          },
                          "effects" : [

                          ],
                          "start" : 16625,
                          "duration" : 1016,
                          "mediaStart" : 26,
                          "mediaDuration" : 1016,
                          "scalar" : 1,
                          "animationTracks" : {

                          }
                        },
                    "audio" : 
                        {
                          "id" : 78,
                          "_type" : "AMFile",
                          "src" : 18,
                          "trackNumber" : 2,
                          "attributes" : {
                            "ident" : "",
                            "sampleRate" : 44100,
                            "bitDepth" : 16,
                            "gain" : 1.0,
                            "mixToMono" : false
                          },
                            "channelNumber" : "0,1",
                          "effects" : [

                          ],
                          "start" : 16625,
                          "duration" : 1016,
                          "mediaStart" : 26,
                          "mediaDuration" : 1016,
                          "scalar" : 1,
                          "animationTracks" : {

                          }
                        }
,
                    "start" : 16625,
                    "duration" : 1016,
                    "mediaStart" : 0,
                    "mediaDuration" : 1077,
                    "scalar" : 1,
                    "metadata" : {
                      "AutoAppliedSmartFocus" : "False",
                      "WinSubProjectDisplayName" : "",
                      "clipSpeedAttribute" : false
                    }
                  },
                  {
                    "id" : 79,
                    "_type" : "UnifiedMedia",
                    "video" : 
                        {
                          "id" : 80,
                          "_type" : "ScreenVMFile",
                          "src" : 19,
                          "trackNumber" : 0,
                          "attributes" : {
                            "ident" : "Aufn. 07-11-19_040"
                          },
                          "parameters" : {
                            "cursorScale" : {
                              "type" : "double",
                              "defaultValue" : 1.0,
                              "interp" : "linr"
                            },
                            "cursorOpacity" : {
                              "type" : "double",
                              "defaultValue" : 1.0,
                              "interp" : "linr"
                            }
                          },
                          "effects" : [

                          ],
                          "start" : 17641,
                          "duration" : 669,
                          "mediaStart" : 36,
                          "mediaDuration" : 669,
                          "scalar" : 1,
                          "animationTracks" : {

                          }
                        },
                    "audio" : 
                        {
                          "id" : 81,
                          "_type" : "AMFile",
                          "src" : 19,
                          "trackNumber" : 2,
                          "attributes" : {
                            "ident" : "",
                            "sampleRate" : 44100,
                            "bitDepth" : 16,
                            "gain" : 1.0,
                            "mixToMono" : false
                          },
                            "channelNumber" : "0,1",
                          "effects" : [

                          ],
                          "start" : 17641,
                          "duration" : 669,
                          "mediaStart" : 36,
                          "mediaDuration" : 669,
                          "scalar" : 1,
                          "animationTracks" : {

                          }
                        }
,
                    "start" : 17641,
                    "duration" : 669,
                    "mediaStart" : 0,
                    "mediaDuration" : 1184,
                    "scalar" : 1,
                    "metadata" : {
                      "AutoAppliedSmartFocus" : "False",
                      "WinSubProjectDisplayName" : "",
                      "clipSpeedAttribute" : false
                    }
                  },
                  {
                    "id" : 82,
                    "_type" : "UnifiedMedia",
                    "video" : 
                        {
                          "id" : 83,
                          "_type" : "ScreenVMFile",
                          "src" : 20,
                          "trackNumber" : 0,
                          "attributes" : {
                            "ident" : "Aufn. 07-11-19_041"
                          },
                          "parameters" : {
                            "cursorScale" : {
                              "type" : "double",
                              "defaultValue" : 1.0,
                              "interp" : "linr"
                            },
                            "cursorOpacity" : {
                              "type" : "double",
                              "defaultValue" : 1.0,
                              "interp" : "linr"
                            }
                          },
                          "effects" : [

                          ],
                          "start" : 18310,
                          "duration" : 177,
                          "mediaStart" : 31,
                          "mediaDuration" : 177,
                          "scalar" : 1,
                          "animationTracks" : {

                          }
                        },
                    "audio" : 
                        {
                          "id" : 84,
                          "_type" : "AMFile",
                          "src" : 20,
                          "trackNumber" : 2,
                          "attributes" : {
                            "ident" : "",
                            "sampleRate" : 44100,
                            "bitDepth" : 16,
                            "gain" : 1.0,
                            "mixToMono" : false
                          },
                            "channelNumber" : "0,1",
                          "effects" : [

                          ],
                          "start" : 18310,
                          "duration" : 177,
                          "mediaStart" : 31,
                          "mediaDuration" : 177,
                          "scalar" : 1,
                          "animationTracks" : {

                          }
                        }
,
                    "start" : 18310,
                    "duration" : 177,
                    "mediaStart" : 0,
                    "mediaDuration" : 229,
                    "scalar" : 1,
                    "metadata" : {
                      "AutoAppliedSmartFocus" : "False",
                      "WinSubProjectDisplayName" : "",
                      "clipSpeedAttribute" : false
                    }
                  }
                ]
              },
              {
                "trackIndex" : 1,
                "medias" : [
                  {
                    "id" : 85,
                    "_type" : "AMFile",
                    "src" : 1,
                    "trackNumber" : 1,
                    "attributes" : {
                      "ident" : "Aufn. 07-11-19_006",
                      "sampleRate" : 44100,
                      "bitDepth" : 16,
                      "gain" : 1.0,
                      "mixToMono" : true
                    },
                      "channelNumber" : "0,1",
                    "parameters" : {
                      "volume" : 0.989010989010989
                    },
                    "effects" : [
                        {
                          "effectName" : "NoiseReduction",
                          "category" : "categoryAudioEffects",
                          "parameters" : {
                            "denoiserAmount" : 20.0,
                            "denoiserThreshold" : 0.0,
                            "noiseProfile" : "Vb4pQNla1z4e4qI/dFBBPk6UZT3QdOU7EXSwPMflhjvMSqE7r9JvO3dJ3Do4zSY86hQYOwCB/zpu\r\nhUI6M9HjOb4bDDoSpn46zS5HOpQ/CDoawZo59MvIOTvTzjnNwQo6yRNlOc0eCzrqePU5FqQ0OZyX\r\nqzl3y0E5yrw2OeXp6zm4Tmc5dRGZOT6qmDlafb45NfIROpGJEzocQoM5/FEcOveIzjnihRA6nvJ1\r\nOmbWEzunMhM7VulEOpAZITr+ge06Lq41Okg5Jjpvu6w5buLdOSws9zi/r4k5CaMeOY8Hkjnp39g5\r\nqwydOU9iSzlFq0M5wCaCOXbsrTm0lsE5b86/Oc/NADlCiRI55D/lOTjltjnqFUM5SEdpOo0vSDoX\r\nuHQ6sC8AOlBdvzkpRBg6v7HbOHIx7zi0Zeg4ekVYOGi5Njkkzr84Bk1POegUFDnucNA47MvROEhA\r\nFDkqJ784oln2OB75CTkAKrs43TYPOdzo+jhe+4A4KxEFOU9wgTjEyLo49pkSOeg+6DisDOY4ohod\r\nOfIECDmQ3604u1OlOEbqnzjqRrQ5ZkyIObpvyThaYaU4ZRgWOXeZizg9SLs4naYCOIrnbDjffqA4\r\n4LigOHxTOzjoqnM4GjOwOJwJ0zj9mHI4/iGIOA6qPThijIY4xM4GODiNpzdbADs4mSa+NzxI6Dg6\r\nf+03nViuN+fXBjgXEEU4el+qOPWlxji0eeY3z+6cNxmmEzg2uWI4TMxhOCK+EjlX/Kc4tGtEOPxD\r\n6zhtPJg4Z3mROAeNmzjhEkw4frV9OCf06DhmmvI4RPEJORZNqzgyBJg4GgbqOC6ZrDg6UBE40cB5\r\nOOK8JDjiU2M4MF1iODp8Rjiv9BU4qYGqN/FiOTh0WSo41ZK6OE+O/jdNl5A3fy30NxjNlDeBsZ44\r\nfFcrOFqiTzgzsJs4ystcOA2FuDd/Hso3WpSdN868HTh5s2034SHXN/JdNzhWU403rx9VN3371zdY\r\nVVI43HDtN/cTMTihflc49f+EOK+1wzisoEE4enAIOBzHUjdgf3A312VZN73EOTcCmZQ3Tl0hN55F\r\ncDe3L4M3ByaMN24qbjcmL2c3XQeON5Cd1De8Nhw4mc/rNy6NvTfLpyg42M7XN/wRxzefiKE2F6yU\r\nN6iOXDdlWlE3Sl1yN528Uze3WAs3+PuSNiSDEjdo6pQ3rn6cNwtZezfQKtg2QRFBN1leDTfDPkI3\r\n7sZBNwq2Vjf8u+M3juLXN1A7PjeebiI3vl5EN1UhJzdHKgI3ypVtNzY7Bje/mk834JwRNxVkHzc+\r\nzUo3H1R/Ny5PrzeWXCc30iscNxKSjzfOwR03YXQuN10GHDfvlx83+MQEN0I/szb6erQ2EkDbNk4H\r\njjZaJ8A27P9nN2r62zYiIrA2DMYNN3uKgjcoZjw3LjDJN9V6wDfsHoM3500PN6gpdTeDIFM3FpWI\r\nNkVbvjeQNxA4Zl01OJY2szilZ544EtGTONzdRjfA1zQ4anjWNzv+6zcRQwM3IN1BN1o5KDcT1u03\r\nsAZYOG0tcjjoU883gAkbOGhzWjiZlhM4iIAZOHZ1bze+aVw4+IdvOPJvdDhz5Ag4+h11OC7yLDhw\r\nGdo41UOwOB1CxTil5Lk47MMgOMJ4QThPqoU4cKnOOLRyADlXXgg5Bf2FOOfXPjmUIkw5tFtuOfLE\r\ncjlqb0k3ELAkObxsbjmVgPc4ZyMDOXIrfTjj6+430ckoOEA+OjgMAyU47JqzN7lC7Tcg9uo2nvU+\r\nN38aYDdW3jU3TAgsOORImjema8U3B56yN/Qh4DYDfRM3w2IFN8D9zTdCkjE3Mt8yN7umAjcTP+I2\r\nlquENkw7ojYYZvg3pVubN1yEjDaWKyM3CGuqNwSYhjdpuew2lxNJN2hzDDfoqoI2HgvfNpiz9jYQ\r\nMWo2RaTRNj5q6Te8HAA4woM3N6IJDzikgB0460b9NxiNbzje6Wo3NKGSN6rFSTdUu5Y3cgfaNubT\r\nlzYbvQI3VtaqN1+xDjfH6Jk2ur8ANxx0Pjf6xMA3DZPfNmK7TDaYPmM37j0CN1myvDYpZ502F39c\r\nNoFjlzdhEIA390QEN2UlqzZ9IKI21msHN98izTeJawU33uujNos72jZvvmI3haDyNveoezbqL2c3\r\n3WeAN0hIZzauCQg4TtELOAvNBzh0Yqw3uX11N1hA2DeGkBs4+0IhN1zi6TZUHCo4oN2iNy8lEDcQ\r\n3TA3ko2WN1ddjTexXiw3JPy5Nl4o6TeCH/o3dH3ENoxoWzfKIl82HyFQN3qIoDeCXRM3Rl/dN1va\r\nWjc7Zo42HxOfNiBerjYSHRY39gQfN2LhgTb9cfk2TSXiNkQ8rTbCYIY3upsXN4iqqzaSpzc3PQZR\r\nNkZ/FDcl2Ao3r508N4oQ6Dds+ao2TI0zNySTijdW0sw1hhFJN7drITexzQs3qvv/N1N3tjbLOoc2\r\nuHkXN0yOKTfEbvM2cYtbNkQzIDfdmIU3NiH/N8ZUGjcTaRw3vSm0N06H/TbTEsU3q5IKOI8BTDcf\r\nowQ3kI3PN+BtqzeegcM2Vfo0N3t2qDfYlQY4EbfUNjmryzbN+BY3o/9MNlHWrjcGwd42Fl5GNsaO\r\nYDYYuLw2ukMAN3BrgTf4Xjo3Y7QjN4RkeTfNQVM3b5kuN7AMcjeCbjc3Rb8XNponhTf/BXk2ACDV\r\nNiGBZDdAGQE3RzuLN1dc0TYUWy04tzRvN7JDdTfv9Zg3TEmhOHmD4zdBe502FbPWNqgQDzgAEGY3\r\nhG1BNiurLTfKV502cAdIN/EtEDbuTFw3+B/KN9T3MDd8ZOU3zl/UN9TewzeC+mw3mEI+OOuKGjg0\r\ncGw32/dVNnLXiDduAFg32p92N6s6FjckVBs3+G6DN3OpJDfx7WM3lD1XN7yhqjdL0og23GG+NvYJ\r\n3DYCGRM3RQfsNi7pVTdrqKo2+UulNnuUijYq0BE3s57HNlgShDYC3Ag3wssMNz3BGjd8RKE23Mu9\r\nNma/5zUUTwM24JhdN3rbszbih8A23scGN/ijYzcF6Ws3cP6ZNh0qCjeeF2836gKSN9MY+Dbw3VU2\r\nkZQKNzR4mjb2Dss2ZR/qNrK/4Tda54I3lXZFN+6lpTUB5ys1qPxjNjo1sTVCpAA2mjCPNS7dEzZx\r\ns3Q2lGG5Nc5xjzVkF7Y1AGRfNdW5ATaAX5o1PVfNNY0dtTUxQQg2yoIGNyr5ZjaysQ02PG/yNRho\r\niTUGl3w1SopsNWoG3jXxML81I46MNZfeizUS6sM1at4INjtONjYLWmc2hQMBNtDnMTbSrFc1KEvH\r\nNSidZzaIjaU1XJDzNfbdsTVhFGI1LC6lNfxt+DRT2Tg1LrZ5NSSPLDV/OZI0HEMmNZ9s/TVzu2E2\r\nzuvCNeUQDTV6bRg1Nt0KNbYzVDV+lQ81wB2cNWXLDDXFNRw1cZoPNa+OSjUHNco1Hkp9NYzSdzXw\r\nHus07nKFNeunzjS0bQk1fLwRNVAEqjUWvzs1VTAWNcC5CDUu49s02oz0NKAmyTQpcf80PaAmNabz\r\nUjU0Hhs1Pp6wNBTHRzX+6mo1JL27NIbuzDRABq41umRRNVL3ETWZcCU1pvM2NTLCWjVaAD81vHqG\r\nNHqBOjXqTiA1Y88NNb7YGTXwHz41oFQmNZxWyzRsUOE0kzLzNAifYzUDrB01Q2oTNRgKizUuQKg0\r\n4udwNafUMDXS9FM1BiuHNU0rYTVOpwg1U1LtNFnKGDVi1wM10cUwNRbfBTXPE9s0uaHyNQR47jRl\r\nSkI17Xg/NXx1wzSBNR41GlMdNacFSjWZ9RA2RC15NlhIvTZrIXY2pLE7NauQQjWpMEw2QqoLNqkc\r\nODbNWBg2Pe/GNBpudTXhQ0Y1z0q2NpSY2DZIONc2ib/CNbQwZzWzUgY2/EXyNSSajDah8nc2AV9p\r\nNnv2ODaDB1k2qDkMNq8sSzaTTLw2uh8qNydSWzab0+w18k1MNSWDAzb1EjY1WuU9Neh29DRmCDM1\r\nVhPrNPQA4DSgVow11n7vNLKfQzX+lX41xM+INbj7VzWjtQE16kMKNdIc5zQqz340PgkINTo6PzXK\r\n5c00nZB4NVL+QjUDr980AHiGNNY1TTXDS/k0oUNoNSGpszTWCr80/A4RNfQthTXpS8k0U62qNaFA\r\nZDUFlyI1Inr6NBLBHDXQbZQ0s68VNcMtSDW57Dg1XFR+NWFfxzR21d40hKQTNfpbpjQ6/FQ1Oa0A\r\nNYK1iTXMyho1H04sNRVa7TQo7gU1BdXaNJFCsDW6QFw1H80VNaYRADUkoXo1flF0NZ5WYDUpPyw1\r\n/FOpNYDMszXtAkA3jpwhOHjhczj+CoM4FgYsOF+Q9zciiKs3pG8zOHPRyzdEftQ3Wcb4N+bF0Tih\r\njsY4/I6YN7/gDThLFM03tjfVOJL5ojjPDwc4wP0YOHp6lzZaVq02uuFcOD1oYTjlUAo475yuOFeq\r\n0jhFC/k3PjbDNysN2DcwSoA4cgefONMv6Ddj9I81L51WNdH0IzXXgAo1OGoNNTRKjjVAdhs1TC8A\r\nNQw9rjWqIhw1Gl9INdUJPDWmSEg1vu4oNZc4MTUIfX41IijNNCBhYzVujJA1o5UxNYJt0zS9qQU1\r\nGlqDNeRDETVBf1I1MXqnNSUP1DRWdFM1ErkjNULT/zQDlwc1qCrKNGkK7jSF3CU1B9FnNUCSFzXA\r\nTsA08wXRNP9YUTXZGjY1MDHkNNBw7TQRwNs0e3+UNU0HDjXt5BA1IpTnNN+aKjWuuy01PyATNfW0\r\n+jSW9gc1wp3eNBkpwzSEID41FVZWNc5r7zRbZTM1WEuGNOTjCTXO9yQ1+SwcNbijvTUwSgE1SCtg\r\nNZu9VDXjzdw05qmNNBOH2jTGh8c0TfPkNFBEPTXKAxo1P8hBNdQ2IjVaBRA1cDPjNCxX7DQbYC81\r\nhSqqNDJpfzT6KXM1GcKTNIys6DTlBd01cTolNZH53TSpovk08AaeNYIt6DT2lS41HgCrNWjOBzUA\r\nhMk0ndclNQCdCTWfQo81z57uNJZ66DQTcDY1jd6yNKMyBzXcwsc0zVpONZSaBDU2BA013MkFNTrX\r\nPzUvoEI19uwYNTrq0zSF5CM1lnVLNeva2jTsXxI1sPvHNLtlxzSUIHs1zryhNP5L5jTqMB81Ig4W\r\nNT2kVjWLDBg10g7ENLwQbzWNgxU1JYQRNdsBAjUq0PY0DhWoND9+KTXwsUE1XljHNBwmUjXRRh41\r\nTikcNWHDsjQ2SRY13iW1NKq8KDW6y/M0myUZNSIfGDVJY8g0v1wjNV29hzS8emE16i2lNHIwwDT1\r\nFAQ1DGpjNSPf5jRWuwE1UrO3NC6hNTUmj440ukEuNTLyODV6Rx81nw1CNaNiBDUh3yo1YFn1NIVh\r\nGDVAlnY1FXyhNEyT+TR9e6E0SrOhNDGvNDVQHSc14Hg1NaZHQjVekZI0nmARNbTMOTU2rtE0wgbZ\r\nNG70AjUelX01obYNNcxz/zQF3Qk1iDk5NcAqHzV6/sw0CPKYNJqAvTRAeL00AbwANQAgqzVCuNk9\r\nMrS4OqwzbDpVIb064kQROkMunjoQdWA60oH0OsYOOzpYV6c6Low5OupH1Dpxi5Y6r+RVOoJ7gDq3\r\nuak6cVmfOjzToTqk4KM6qynmOtOBSjqmNqg6u9AEO0k5ZTooF6I6PZ6dOmY/8DoOlmM65TW3Og4c\r\nqTooD206mLiPOuYIrjq+YGg6f9uuOt0lLzrvL0E6ulxjOi6smTrSsac68fuOOnymZjoG30068bJP\r\nOoQuVToKiyc6BADbOiKGATubhIA6JIEzOoiGvDre8uE5fsw4OuempDoMC0M68vfGOhDs4zqJG5M6\r\ncOcxOvaEmToxDZ06vrfAOhf7jDpmfMY60YWMOky+rDqmZ2I6Zjz9Obrf5jmrG5Q6DiKsOpz8xzoz\r\nzVE64OY5OmuYHzq+PYU6/siGOu1WhjpO7sY6wwFVOlrMjjpOV7868+qbOhENRDqsQo069ZqNOhfc\r\nSjqEjpQ6DPAKO37JkTqkSlQ697ycOu1dOTrOxy46hP6wOmzvmDpcqiQ6G+3YOlTKnzp0db06TLto\r\nOjuiVzoSsmc6DqSGOqFcTjoL8dc6geaMOqs6kjqSxVg6/PwcOiAoQTpnAoQ67wRoOsxLhTpvQSo6\r\nFGyJOlzaUDoWy4A6KGoEOxixDTr6iT86RLyGOoAdejqXE7k63iOjOsK3qTrw5rs5YgGIOkuNkzro\r\ns7A6CSR2OhdHWDrVWI46VKKCOnGGdjoFjGA6FRtQOh2OnTpcAfU6lDBoOucfXDqyRWY6stszOmn3\r\nbzqEHZs6zlqqOonYxTrOIQ46RmQTOrrN6TkOrrc6JSN9OuoPlToMN446W+ndOcspjToRi1M6KCUO\r\nOirnrzrgxJA6rT3EOv6mhjqZ3pE6ULKWOlk7kzql+mg6S/QwOrKjjToOzZI64ERcOpJlGjo0Ufw6\r\nyMzKOlp9WTqwNJI65rZtOiU2Lzohak862BawOjK5pzo+4z06gszROiwFLjpRwgY7+UGUOjC+iDpq\r\nAYM6pKw0Ou41XDrA/mM6KpCVOhlnjTplrJQ6DZJaOkQykjo95iY6yTzBOtQgnDpQ2D46mUPUOrg8\r\nXjq1Pv06mysmOstDbzp8rbM6aU+mOswCeDp0IiU6tUSLOuRBxjmHfdE5qFclO2RaVjqB04U6mlSZ\r\nOkWqvTpNuao6RFu8OsaCBTqRyZ067obAOumfozpmXTQ6LzsKOrZ+lTo1VvU5gvXIOgpHYjpaQzI6\r\nWqFgOv5EmjqtzY86SiGpOgJcwDpChB06sb2jOjL/IzpSG1A6/d+QOlHnkzp8/ZU6xEd1OjoUjzpF\r\npBs6HMp3OiO3gzrwXLA63OyuOgNiozoYyIU6iWGFOjSQCjrUWK46DwwsOl0arTpsVcw64mMSOjxx\r\nbjo4ZJo6Ko64Ot1UsDpNAWI6rI6zOhreBDuBuzA6hfecOmG6XDoEgy06DntOOhpEdTpA9lM6I4iT\r\nOu8IWTr6Qqg63NI6OruAxjqZz2M6SuyqOoe9lToVHZo6s6h2Olt9SDpuCI860b6yOsrSpjpdx+E6\r\nmfcdOpwbWjoYoCA6Cl6HOgqYWDr7aX86JxCYOkhlMjsqi5U6RF9xOoKD1DrpJ5o65XxwOuXXHzqT\r\nHZ86Oq0IO9+lRjrEqqU6qzaIOmbHpjqQVJw6Vo+DOip7TDoRMKA69k9oOrLOvDqFQlo6/nP5Oabz\r\nUDqrSaU6fpSAOnZGTzqbJeQ6HDJEOiubWDrNxHI6TYJgOq/3nDp0HY46szFqOp7uKzoLaZk6u7Uy\r\nOlf2fDov5F86O43nOVVtlzpUIU46mj4oOqu76zq1J1w6d4icOrASkTrJ8cI6nAtrOpuxkDreRJ46\r\nrrvBOl6UWjoU1Gw6orhzOlG9gDryqMY67CyDOibs3Tp38oY6ZLR+OgLKPDrb+Tc6Prh7OmiGhDqy\r\n+kU6L9EfOixjcjpu87M6xGUsOu4LHTpWMH06hHIPOpClPzrYCEk6OgdzOkebeTrSy7A6tcYrOnYO\r\nZzpCsL46afmUOtndtzqICmg6djEQO/K6jzr9AuU6wLfdOktNTDqfvC86QyWHOvzY6Dp3fIo6isRx\r\nOl5S1jnYxIk6AGN/OsfHKjpUlKk6fv6SOl+wdjq13qw6MIqMOu+XDzpeeh86+M8tOs7Efzqkydg6\r\nd/sROmrXizoqglE6F3ShOhG9MDqMTy863bzHOozAjjpgu306QOpSOkDSYzo0dU06xVaGOonxjzq5\r\nHrM6qGoZOp6/cDplIJA6ya/SOnmFADuQDqI6uzKMOrg+9DoBRR46CeVFOnesOTrbYi06FgmJOhnc\r\ntDrC6ik6g3RMOopIODqhX1k6+8uGOgSBOTo6/5I6hkHAOt5dnzoKvSQ68H1rOsGKWTrHh4Q6cRDL\r\nOsvbjDoc8oc6LkGNOrELvjodnm869jvaOm3o3Dq8qbc6khMJOq/3bzqzKl06ayVTOkbqKTqLyXs6\r\nFVMkOg+WsjqHRFo6TyqXOn9KgDrm/WI6oHSVOpn2QDqKQ7M6PwFpOkcloTrMUUA6Ag6fOpaNiDro\r\n0Cs6NuaKOvEq/Tq99Lw6ZapfOqUWtDqVaXs6z0cfOpo4hDqcqaA6pA4kOlDECTsPXJc6Xc6KOrCO\r\nlzpcgrA6+2XNOr4CmjpFl4o6LKiCOsY8sDruByw6FncDOlcPEzp3nu86ZWHmOa7UFDqHOGA6okgQ\r\nOvFTkzovgpA6M38xOkhYajoqzLg6eKWPOqKLhjryuQU6/dlQOjWMGToa9yA6YoWvOkCwFzpLptA6\r\nBBCuOpIFbzo+RHs6mDQkOlBcmzq6mwk7GtZqOk+9Vzq3poo6bByiOixMnDrqF286l2IxOkUChTpy\r\nIIg6+CBbOkXZCTsmFOo5+ipBOrBJEzq52/85LSEBOrbgZDoGH006AXtPOmrKXDrNnvg5Or6yOjFx\r\nxDp4V2g6JgmHOtDOiTr8BSE62TMwOiInljrJbUg6KiIcOoWnpDpdGL46jkegOtlSNzqUzC46SVT4\r\nOSfSQDq8Fos6oohbOrgcVjq2yYo6oUH3OvRHyTqr8Go6DGefOuILujrQJYU6Uqo7Ot62ojqJzSM6\r\nkaoeOtI7MDoZYbo60GpjOnKhzjpRVCw6nA/gOpqsDzrweXs6FIC9Ol1bhzri+9s6YjksOjxlhDpJ\r\nFno6wjepOnAf3Tp0hX46gkLmOgXbgjoKpjc6QPeeOhgonTpsfVM6xpnHOtBITjou5YM6qARlOhvM\r\nCzrorXI6bMcPOitIKjoX4S86dAU7OtX+izoChXc6UTgKOl+ueTqCYSQ6zA8uOssnlzodLDI6oCgJ\r\nOjG3DzqvBDg6GJVBOiCagzphyYw6uGywOjkE6Dp94SY6LtfMOuikMDpOgAA7xihJOrOxFDrk8lQ6\r\n3GoiOvsZmDol/dI6a8VeOl4rKjo5MaE6N4hsOvJH7Trcz5I6poJpOptcSjoMvHc6yxJkOjozhjpp\r\nVoE6byxMOhkNazr0CFs60eXmOegIizrYI7Y6wgweOkY8nTqsr6s6GksiOq+aYTowryg61zlpOj+a\r\n6DqIIC06bT/cOo/LTzpI3BE6Yk4uOgDsdDqhIoQ6MqJGOlGOfTrO3/s5kFRiOk0zTzoUOqQ6/MYp\r\nOvdPvzmAEuM52wc1OhCxgzo68IY6HgZDOnjXezqlCfY6guaXOrwtZzo4O1A6xhmrOvYwrTpWB9s5\r\n64ClOp5WqjpCEks6nWIQOln9qTpEL5Q63gc4OuW2hzowNXA6wtYlOm3IbzoCUQk6jjuiOsPyNTqJ\r\n5yY6YWszOgVyFzokBgA76ksvOhEGZjrRpkc6I++6OQUwzjgZ9s43e4xeOKDK5Te377c58CS1OW5y\r\n2ji6wYE57pO3OIMTCDoVZhw6CqHBOVE0cjmmvzs5jBiGOGgEzzeL2w42HJwWOQR3fDmVWQc59uop\r\nOL4iDThtAKg3pBaAN7fZVDkm6845fBe/OMHnPzgNPsQ3G56RN5LziTWRFqw1DzZ6NXS4QDUAUVE1\r\nRS2LNUwhnjUk+YU1aKtKNZS9SzUzkIU1GD6RNececzVIDHE1KgSSNX0ikjWmNFc1u78nNX+edDVQ\r\nlg41bHUUNY8jBjU644Q1pvV+NciTNjWSm8k1BszKNLOHHjV2kJA1x8JeNdAv8DTSrhM19H1SNcoV\r\nIjVcNSE1qigRNdhG+zQUUWs1CfkCNXWcLTUcQzM1IA47NXdwQzUHiD81gGWCNUyRpzXA+EU1WM4z\r\nNVTjsjSZG2Q144IoNTiZDDXqkZs1Nk/ENR0uQDUcGio16GCBNZpLhzWRQEI13RmqNf5H0DW39pA1\r\ntK7ZNaR/KzdZySs4Gt9zOL1LhTjLaDU4QQgHOAVF1Tdozh04R8b6N/zS9TdM+Pg3AKrFOJHDuzhV\r\n/og3NyAUOOZm8Tc6PbU4r7S5OLK2IjiHTSU4VOaWNrP1YTbzo0Q4WFlwOFZ09TcD9Ng4R1PzOKuC\r\nBThJtMU3YAUEOIiTSTjZqpA4FWXdN8VPiTXS4701dF4nNYGunTX+j9U1YKeNNXJrFjb4d4E1Y3Bb\r\nNSoe5DV6D9g1VApzNcmsXDWqjl01xAEtNRlshzW0ByM1jrIgNeQLxjU4WSs1wQ/wNKMHJTUnT4I1\r\nmhrgNMRL3TTT20M1rIIgNekOxTRU3RA10BIVNfxlBzWFtBU1PptHNY7bCDXdlVc13KIYNY8LJDWz\r\neBk1vgk+NT1ElTUC6g41fJjpNMMmETW3I880N3QzNQICUjXw8+Q03sEONcpX/DQNgfM0XmbcNMDI\r\nTjXuugw1j42xNJSw6DRhXQM1U1s1NW9xuTR+4sA0oY1iNaFY5TS5XzQ1Cjm2NJ8RnTXGVao0MaUX\r\nNbApCDUzKSM1x2m3NL0QwDQbYiI1/CTZNO1TQTVcFqo08ATuNJE1AjXfmxA1TlIcNTVnADWEhKo1\r\nzD7aNABu4zRqWvE04EDVNKsVUDVYwIE0pBzLNDa0pTRIQDE1nFdUNdaNzzQzTS41aH5iNGfD7DSZ\r\nD7w0YMO+NCS5UTUy3ZA0m3smNfKsKDX0CQM19WwaNQnXKTV1SW41M0BSNUDpGzUacGg1qP0UNdDd\r\nrTRvYv80W3EkNX014DRejfM0S/jfNMvoxjQs7Kw0NhSYNKLIdDWHb+I0QJaeNKMvMTUuBBM1eM8m\r\nNd7tCTVlw7g0QMjEND4QdjUlKpk0GOXbNDIveDUNKho1dtMuNf4olzSGWjo1XwcNNXCsQzVWb5I0\r\ntm0INdw+0jQo+BE1EHS+NGLcRzWoQto05+0iNbzfdDX450c1itaiNAK2JTXqYU41VBeFNL8XETVk\r\n6Jo0/sS4NMr9BDUTHGI1MrIINdKN3zRnxgI1iF9QNQZkyzQQ0bM0qjsfNUHnzzSnulc15jKPNV2w\r\n6DRRJB01CWttNcCc6DSONOM0eM8PNXAWNDV4T9k0KnIINfhMETUDY141uwX/NKF0SzXx4xU10h9Y\r\nNfS3hjVqjdE0eus2NT4j/zT7isw0lMrbNDu0MTUSiO40ULAYNfLmAzVkabM0AABENQ==",
                            "noiseTrainingType" : "default"
                          }
                        }
                    ],
                    "start" : 0,
                    "duration" : 416,
                    "mediaStart" : 446,
                    "mediaDuration" : 416,
                    "scalar" : 1,
                    "metadata" : {
                      "WinSubProjectDisplayName" : "",
                      "clipSpeedAttribute" : false
                    },
                    "animationTracks" : {

                    }
                  },
                  {
                    "id" : 86,
                    "_type" : "AMFile",
                    "src" : 2,
                    "trackNumber" : 1,
                    "attributes" : {
                      "ident" : "Aufn. 07-11-19_014",
                      "sampleRate" : 44100,
                      "bitDepth" : 16,
                      "gain" : 1.0,
                      "mixToMono" : true
                    },
                      "channelNumber" : "0,1",
                    "effects" : [
                        {
                          "effectName" : "NoiseReduction",
                          "category" : "categoryAudioEffects",
                          "parameters" : {
                            "denoiserAmount" : 20.0,
                            "denoiserThreshold" : 0.0,
                            "noiseProfile" : "r8YFQP1eVD4qMFA/DkYzPZgtuDyfv487/quXOwfpnTuWiOA7CoZ6O0x1GTuIonY744heOtLJ4ToD\r\nsE46BdM4OvHHMjofGeY5xboeOth9Mjqp97k5BIOSOeeBfzm0hYk5MbOFObQvQzmYsHE50iBaOQzB\r\nQzkLyjs59vsyOfPEhDmNxTc52+4nORDHHzned505tvAeOY7w2jlMV3o5pA99OfzXUzlS0lM52Mop\r\nOW/iEjkil385vktgOVs0zzniNXg5ne/XOIDByTg0/Zs4NwlkOXSALDlgPzw5pQNLOXMUKjl12gM6\r\nyUV8OeGEfjmcS4U5EkQ9Ob/1kjlFnOk4wLAIOUxSljjVMLo4ynlSOcIYtzgEtlw5lnyeOfWS1jg6\r\nTe84WGYYOZLR2zh4c9g4WEhmOQTjIjmfiok4LA4oOYtGqjg/+Fo51kS7OMqSyTjwdBw5ytwQOLoB\r\nPjn4CYc4TtCpOHaU3DjA2ws5hLcaOacoIjmZZqQ47HcNORQq4jju+W84u8z+ONbvQjnYveQ4+lpF\r\nOcCtGDocyPU4ShkBOSFbIjlqIN45deqSOdTXRTncYQQ53GPqOKdPvDhapow4YtZROKgDkjjcLKY4\r\n5S5AOSWBKDj5qck4z23COFhjizgg8K44qmOfOCQHMDi8/L03apK3OFvGHzi9VpU4/moBOcat0zif\r\nPX449mgZOJMoXThi9QI4iEM2ODC/LDjkL4Y3oAWqN9//LzhQLGE4rnlGOOw3JzjjRsk38L9mOAK/\r\nojcKN4M3mI7fN9Fwdjhcs+w33qMRODM3jTcdnxs4CKiNODn+gTjsY2w4nepiOIqb6zdoXDo4DXW7\r\nNzaEuzdYORo42ryJOMYxXjiorM43Pp+HN9CDIDe/QAc4O+bHNzsyszeZ6rg3PHptN58INTizPW04\r\ntd7iNyoEOjhqd3w3gRypN9iXhjeZcYc3VFSeN+whnTfbD3M3yIUANwGANzfqF5Q30X+XNzNXvjfQ\r\nFGs3WnJoOBVMPjjA/cg3WAf9NiPKDziJPWQ4yIvvNlUBiDcpO503auIgOH+2eDeBg103aMBINxrH\r\ncTdUhrg3aUdYN8GU2zdyVF03CAQGN+jrUzcT7Rs38Ni9N/ZmKTfKulE3hfm3N87RKDfMtRM3tKau\r\nN4eoizcD0FI3HBcfN8l+yje+mUw3gMfGNjSTDTczvxU3rhxON54baTboiRA33r97Nz9RfTcu0/Q2\r\nat4iNyBiOzcuzqU3dlRmNxD6qDdbzow2uBhtN67DkTd66OA21jUZNyLe0DYtnR43+pgTN8ntCjen\r\nqRE3UB8zN/LHjzckaJM2aImfN0zTDjem6EA32lUCN4VZgTcItLs294ehN9YVRjcks/o2uHqXNg4R\r\n6TYZDOs2vNF/NryFzzarPtk29j2+NviKszao3Jc2Tr+RNn70cDZgHQg340nTNoAx5Db6jxg3mckH\r\nN9P1kjazT/A29OyxNiufDjetD8s2RyJNN2bmpjaezcE2nzU0N13yNDdddhw3EFQBNwKd6TbC5782\r\n/YIXN6iNBDeQK4s2lpF3Nwi3KzZYB4s2rrHSNg7DXjfnPEI3wIhfNxvZAzcj8I43qOjSNtC5FDcV\r\nuZ82wnAXNte2yTb5wQQ3u1C+NhaDezfsUHk2EzXVNvC4bTbx0Xs2vdAeN7SiuTZXysc2DibINgNT\r\nkza+DiU3myikNkw/ATd6soc2hEsvN43yvzZN+yo3uPNYNq0daTa7oAw3Vp+PNor4cjfe4tA2LLbJ\r\nNorfEzdLFNE2cEupNjWrDTe41ug2ZP7wNv9kkjYgoO02DB6XNu98IDfUw542BMu4Nv/OxjasEFU2\r\nTP2yNuVt0TYoxrE2DIKPNlmt4zZAHis2ll4xNs50ODad00o2UW9RNuJ2OTa/yqc2Olg4Noxe5jUm\r\nQm82Sg6VNtmJzjZZfEA3yXs5NoNzujY/+Lo2HV4QNtrXIDYVl482dZMsNgLrizZiDTE2YyR5Nti4\r\nhjawHao2hgH1NohmvjYE1UY2tv3YNcA6ZTYwpII2K8weNuPtgTa8DEM2PAI7NgUYvjbAwEM2X7qO\r\nNqW4+TXxaYg2+t5rNuDXNTb0MFA2qFjfNb44FTaDfAw2HKAnNtihszb8foc2YDprNsqx0TaGgqo2\r\n/uhJNiaYijbwU7o2ngH9NeIicjYEfYg2pZgJNhYLDDYjDlo2pEDmNSKxMDZYQIA2kbtWNjld1TWi\r\nuzg2d89ENq+vtzbikqk2Jr/zNbJM8DawdgQ3bmoIN7fReTYRviM20JB0NteZEjbzQtk1J1+BNvxj\r\ncTaq9xo24rE2NvAEYTZdnkE28p8MNieRAzceSR82/yBfNi5+5zYWhww2xEAjNo+AoTaJ2EE2VIT2\r\nNfdcLza+yRg2dl42NkdJzjVQHkY2SJCdNuAVCDZ1yoQ2/Fk6NpGQ8TXF89k1ydoKNi6SNzZSLB42\r\nUM1hNl6+VzYWn082FgEkNiLkwjW9qFw2UVOBNjSdLzYYQhU2kL9eNjJYgDbq5x02yuPqNf3pBDcG\r\ndBQ28/h7NlP+FzYK7Ak2aFVbNjSihDYl/CI20DJmNqJUETaL5So20wcWNlHN0DV+0hs2Og3jNfcZ\r\nxTU4I+k1PvYCNkgQAjaEgII1D1vDNHwkZjVqoko1dTWNNS66szUV8nc1q1CSNU0YfzXcVDY2YqWy\r\nNWpQBDZsanw1u9mSNfv3gzUYvF41lq2oNdDALzUU4R01nPADNuNQkDXQTz01MFVhNclzLDYAQDE2\r\n09ezNUY6aDVGoGA1LAZ4NeKqOzUHHXs1bFU5Ne2giDUSMjI1XNpMNYwFJzWeugc1MsNKNZ9IazVO\r\nfCU1WYIuNf1lhjV8WdQ0GuqVNQlzmTU1ghU1cIR4NSrdBjUT+qM1kgooNUDMKDUYEDg11mSDNcm9\r\nNTVP6zE1FyWENfFe1DUbULM1sqJeNVWoEDUtCrw1+cWYNT1W8TUhjKU1mH75NWoVKzYzCgU1YGiK\r\nNd8ejjUr9i01p0oPNtAKoTZNk242mdt2Nd0n3jW5RMk1OIGxNcoMjDVi03Y1gSUYNdDYpzX93XU1\r\nsvmKNbT3xDRGS4k1reLdNFWhiDXCQXI1KqyTNYqf/TS84jQ1KApZNabMazWpAIg1PrAuNRDpxDSI\r\nHfk0UKmyNRiquzSgxik1r6IiNc4tMTVOHVI1hLdANW5JfzVUnQc1pSvzNEjEfTXDliA1kBKRNQYl\r\nsTUSJJs143DQNPlNgzUHpi019uIhNWgInjXZTCE1UNkENQtPFzXbtPc1nB6iNXtq/TWM4BI3OT7q\r\nNmYeuzV9YHc1ozLrNNR4hDVylBI2YHx/NpByuTUsme01V7EzNUCgNTUJd401DUYENl7BqzW2b+E0\r\n7f4XNbrr4DQXclk0PR2jNQvI7TUGlpE184tkNZz+CzWENFM1IWmsNchjODUyEw81xnVTNYdAqzXd\r\nRMk1vx2XNavRkTUM1hM123lTNSqwczVqxek0K1M1NTMPDTZHRBQ2V4BUNaeOpDW8nkc1az6yNeeZ\r\nGjYLsLo1YVYHNhBZcTYeIOw11GuyNa7JtzVQOtw1xoo+Nv8LJTaCVBo1Vkj0NV1juzUolSU19LSQ\r\nNdL4ezZEZzY2MNuCNTIS4zbo1r4282BPNcAzijXejZ41ggycNQyxbzWBNkU1nD1XNQZyDjVzjB41\r\n7GkoNc5UMjV17Co14szLNI1AWTW4umM1BBwRNqnyCza3mfU1xqX2NcYONDU8czY1r1fZNbz6FjZj\r\ndvs2Z/ovNt67TTYUu0c29onANfhiPjX74vU1Te0CNb6fwDXVbZc1w5LxNSDCsDanT/w2Xk6YN5WW\r\ngzeDMZ82RFu9NbAjFzYgChk2zERqNnj1NzatmsU1BGt5Nut4oDZrrEc3FWIMN54ZTTW7RT022lwt\r\nNoH6HTUKvvc2hK8GN5gf2TZMf4E2eXTrNvpAcTaDmGE2sL5iNqSi+TV5H1Q1rNYYNV7/xDTWab80\r\nr4f6NDZTITVAj+g04a3kNFidGTX4EAo1VmzqNB0cFTWEQFk1c5AgNXIG6jQaZP40rvxZNc/gUDVC\r\nSDo1bLBMNa6oSjXd/K00xOheNTiJkzUUcg01HrrfNPvBPDUeafo0WqlZNUAYLzWsGlU1wru2NcJm\r\nZTXglYI0oxIeNTNnHzXSurY0jnp4NZttszViPJE1Oc2aNBGigzUEgR01gL8rNTXh0DQas4I1iXMC\r\nNbSqCTVhjNQ0eBvINN61DTVrmjg17jmxNOKG+TRNbrg05LwjNcvdpDSGt1Y1H7i1NESgIjX5hvo0\r\n3WjGNDIKZDT1lZM1NcD2NFs6ojXoxTM1cWUuNUtrHDW2pSA16ikQNTS3wDQxof80Wf9aNW6kzzSe\r\nmAM1J3EYNZdeoDTp/UQ1WNmGNU2u2TTyXRY11WgjNXK3kzWJ4zg1/iMUNcq3JzUw6e00olNFNXiJ\r\nljXLo/w0zbA1NUKzzjS7xxY1AEXxNNAQPTUrIiA168BoNSfq/jT+Ql81RbL2NKbE5DSMOmY1T0Vh\r\nNdtrAjWKqAM1uDxcNRJZ0DTSQ2Y1sSDXNDF6azUxEQU1IiITNQS3DTVcULg03DEPNbFqwTSMG0A1\r\neHcyNcXiMTUT+X00H3V/NSXHATWNEdA0Qy1CNf/44DWZYBI11eeBN5JnfDfgNbE4NZDrOI29gji7\r\nU0c41ArROE4e/zjd7J84AIvhNw1VRTguSX0393dBN0veazdJF8I2AHFLNYWGCTV/ChM3r8ZROGr4\r\nBzj2w6c3uES1OE7S3jiu8w056T+cOAygeDfUKZI4L6uQOO7ywDdnAGA4zHzVOE5SRjjSZH83DVN5\r\nNRC3BDV0XCY1KWwyNSJCYTXykwc1eQoFNVJ1HjVhegM1ZgUhNRx9wTQymyc167iLNbTTtjTkOhM1\r\nPRcnNSmbNzVY3gY1FZxLNVVsJjUU2S818yuxNebD+DQ2nDQ1UgIvNWYs9DSmRDg1kUIRNTPw9jRo\r\n9SI1ejf3NAxEETUoptM0rrscNVrx4TS3Yw81P+wyNV/bOjX/e/I0ogyKNaQP/zQSNMw0NbVHNRC/\r\nqzScVe80zi/eNBv8rjX6UR012f28NKyxJTUPAiQ1WC0GNZaXYDUpONY0GeofNbJSiDU4ijg1LZsd\r\nNSJm4jQidU01rxcNNdkjFzWyfqY0/3qUNNhYqDQB1pQ17Ii7NKoB1DSMVBc17vxrNd0sOzXg45A1\r\nn7fcNMLeiTWB/V018/r5NE679jQu3gk10ADwNFzBLjVangA1uepNNcob1zRXqzA1z4INNUhp6zTj\r\nkC01xC9iNUQ3ZTTowS01V0OKNe10VjV0VuA00rTMNWrI7DTS7401HuniNH4xQzX5UwY1wgTbNNg7\r\nyDRB9gY1yfsXNUc7KjVKxfM0bMD+NPS/LDXlXNo08GaJNZJ2izTcfCw1oEcCNeVysTTiLHY1xFga\r\nNdVr6jSDotk09FCvNMg6KzXaccc0Hc10Na6mMjVh1AY19M+WNFuvBjUBx8A0bv4MNQBAHDZItI89\r\nEmnSOh3u9jqUTGo67COnOoYsrTo+J7866oasOl0qsDqoAZc6lL1dOgEqozrJhgM6EfaqOiT7VjrG\r\nQI86yWfvOXpSOToDu4g6//b6OmEukjqT/zc6HPq0OmiVGjo5ZK06tjUCOum4gjq+DIk6EVGqOjoy\r\nnjpIjI06LhV5OmMSpTr0Rc86TkKjOnJQyzqdb386VgoLO+zogzoUX1Y6W+RLOm0aMTroBsA6JmTZ\r\nOf+Phzo9ozA684dhOgx3Tzr0e5A6oQZUOj2RtjrEb4A6qgRFOj61yTq9rm86yCxaOigoozravJ06\r\nBLF9Okh4jjrafmY6DUqfOtaQcjo3zmo66kVvOt4+kDp2FB46W+beOYzDgzqPiUc63COdOg0UVzoo\r\njbE65kg1OsB/bzqbcTc6kpmAOgYwtDoRtWk6ws6yOkK6VDq77H46qzqPOtxjAzseO6Q6OAmGOldo\r\nojpWJ2o6PxCiOmJ9cjqhTsE5oFpzOhPcvDpHapc674eAOiZwpTqcQ4M6zZCWOk4k/Do1BQY6NkKQ\r\nOo43jTqqePM6t8J9OopXgDo/Fsk6BLvhOqS0CTvdHaU62p2POpRuazoYu7E6bOINO2B2nDr11N46\r\numusOqB9eDr/COY6JTxdOkYqkTpYTlA6Ewm3OhQeYDoOp7k6OJoSO/5Ocjru0CM6C8WOOuwahTod\r\nNdI6ohEmOqdrdjrDvFQ6zfOyOs5RXTqZO746Y3i+OtTp0jo8qWY6qTjmOl42izqcV806Zp+AOjLc\r\nMDoYtlw63p9rOtQVkTpOAIY6StkbOk76iTo/zHk6W8I4OnlSlTpUHW46qiuQOpS1WDoG+386fuTa\r\nOvM3MzqD+wA7LHNoOlvJRTrMiAk76QacOmPb3DrkPEU6v7ehOqWbqjpr/Wg6Ao1ZOk+XmjphmYw6\r\nfzicOqCVxzpwyik6OOefOrx81jp4alk6ctLpOfdc+jm0b346HqTCOlildTpzI9U6203uOhzKjDrQ\r\nyzI6RbJSOteKYTowBKc60BlhOjHGMjrPZO856toyO1hnlTp9VDo6TnnTOmHNiToSkiQ63cENOurV\r\nlTqSSKo6ybJXOopKbzrZZcc6UC+AOs5i7joXt2c6ZDd6OtOmcDqMuaI6Zm+aOpzMXjoWmKY6x4dk\r\nOvB/iTpZ64Y6RF5cOq6zhzoX4b86QGipOhT3HTrcF8Q6IxnCOsAOUzpSaS86ePWEOj4wSTrREbU6\r\n0DKEOgA0pTpchaE5Z7BiOstIfzqQTcA6GPRGOqvtoTpallg6e2zROqJVmzqe3oU6Gna0OnLXPTrE\r\nvkI66QPNOjhYDzuVXmE67tGIOkCf2jo6v486jl+xOmjJnTpivSE6hoNgOvx4TTolU3w6gV5YOgAI\r\nXDqZcBs73ts2Ov7KZToat5A6etlbOvahnzoi/d85CWy8OlzpQjo4Z0M699eVOhqSoTrs2bg6FvWU\r\nOkd4gDqR1EY6vntvOhXQEDrldlA6JUOeOiyVYTpTDok6pS41OuPYgDp29lM6ZTNgOmIqGjrkYz86\r\nq97sOab2dDoQ6HU6ZEjVOQi4Yjr85kk6lA3kOX8tMzrT9I864eNoOkuJuDq1UIk6ULoUOpx+Vjp+\r\nK3U6kLuaOpuu0To8+BA66EKROrzkczrafNA6E4dqOiO3PjrD5OA5mdiQOiLRijrQ37g6Ei9mOiDU\r\nWTr90lc6Ss21Oh7jRTr0jFI6KNu5OutDlzpHeY86YtDWOjpuSTpsZzc6K0RFOsXnWzqmd4o6qSoB\r\nOvDHETu4q3E6R+WOOn/MUDpmof46ghyKOiSrNTqiwkA6qA1SOoqCgToKDDU6QVboOcSRVjoVjbY6\r\nwEuQOh/3Yjrt6po6nNnAOrhppTpNmII6+e2+OcT7aTpcO7Y6DZrPOoyjqjr3Wqs6CSyOOkAzQDqq\r\n0zo6xltOOqbXiTq9Yh87VMeMOpLSVjq/VIo6RQccOvyMYDqywWU6RuaWOveeOTq+FCM6CrdwOmnN\r\ngDpFkpI6En6eOk5AsDrq2yE632AzOr7HvDpzYMg6Rcx/OmHV2zpQDq86U6VFOnRpVDqvPYw6vJBJ\r\nOvhIsjrKOYo5oYGUOm8V6zo8+ek6eoXUOokjijqZMFI6eWwGOkcLTjpRG7w69d2dOvRZdzpTOXI6\r\nVG7MOjQ1fToTTEQ6NI5BOsREDjrWyXA64LMrOhvkjToDsU46wfgHO6rjjDqlEnM6QKM+OurTSzqM\r\nJV861QeCOl3PLjq7kqg6y0qzOuH1TjrgZN06+DprOq/DojoYyFg6+px1OkK8kDqI9IM6PDK+Ojxb\r\nnDqnoaI6y+EsOigqsTr4pTQ6PWBuOpimcjqQRkk643kVOrv/FzqtGFM6q+CqOkc3SDpSGmM6pHRM\r\nOlzdDDorAYM6QLICOqzBNDqlIdY6yQ5LOqj+jDrr+906UzXOOqlv5DrS66k65ziROqoeGTpm7gE6\r\nzKmYOrkjYzo8B206ZVm8OgRwOzohMVE6dSp+OhaxLTqKKCw7Sj8JO/fzjDpchQI6WQ1SOgwKEzoX\r\nzvI5YheaOmM7OzrL7d061f7tObNKfDrjrDs6vK1qOp9ngDp+tRk60N0MOiQTGzoKVG06tdrVOnCQ\r\ngTqLrJo6t4aBOoleuzpA/TA6/hqNOgqlhTp6sWQ6TH+mOtrw5zmeJqc64+a/Ojr0hjpPKGs66ZxJ\r\nOhA1WDq+klw6rvRKOvkRCTuxgac6v77wOjW/SjoJ06s6ZOUaOj4tkjoELZo6Cgc+OohAwjryb6Q6\r\n0R8wOsVbrzqZFmQ6itTZOuJDjjqqMBg6WrFtOtQThjolN0Y6jzyrOf3rlTpO9qY6DhNCOqHnizrs\r\nUB06nZ6KOnxtvTrCAX86fhaoOr4A0jrcwDc6L+FCOin+jjr2imI6IUjoOr16Ujq5pMo6CGCFOqBj\r\npzpoNrg6Ys1POqbWozqoDJM6z5HROSJ5Wzq3txU6kJA2OnoAcjrMBIw6zhOFOlNMAzpCnV461QpU\r\nOo/WhDqOnhk6uTKOOo/OIDoa+6M67ImxOh83YzrNoV06x5OyOtKMgzqww7k6JgZOOg7tnTphUAA6\r\niEgIOgQZejrZ2IA65hhKOtCffTqym686mMtmOpkVEjpN5w07Ag+xOmneZDpDgqo6s6xyOpuXVToE\r\nYmM6L0qLOubGdDrsFUw62dgwOvftsTrQLAw6iMOrOkB8cjqNXXA6dLxROi5hzDkM9Go6N979OghI\r\nPTocBeU6RDSjOkEATDr4TEE6ivpqOh2IqTpIOQ86vgUfOmfSmDqztn86JQ33OWduKTr9GpM6cDnH\r\nOjJ7uzr5I446GxkJOpAyYDraWUM6aJNTOhvPGTq6XZI6ZdCVOiNkdzoy8rU6A3CrOknQWzrMqIk6\r\nsBIhOn+nUDqAuno6Nc9UOsxZJzqCv0867l5uOmuz0DqGu3E6iNbVOVjhiDpELmA6IurYOi+0Rjrc\r\nr406aFuOOm646zoLbE46PnaROvTo/TmcsUo6Xd5AOn4ywzp+cZE6HepcOmGdSjpLDnE6NhVyOsMN\r\nbzo7PR46VkZ/OrTFDzrSwwk6YuHROkgMKTr6xUA6fpY4Okc4vDoxPhs6IT6QOmmmyTk874c6kB0Z\r\nOsF2MDq9Cxc6e/NXOgKQPjq92Zk66ZnZOvYPEDpmNJI6ZRKcOhsbGjqhZjo6LsibOujZhToaQjM6\r\nAFknOjQySDqSbVE6xi2vOgUzgDqOs+A6ciHUOsbsTzrwuis63nAqOsMphDqwMH06MXmzOp6ESjqL\r\nR046YnGNOod2+Dng1gQ6zlUHOgnl+TlEvF05k63lOZ4InDljFmo4msD2ONtFlzinjnE5ftzbOa7G\r\nOTh7iyI4Xoh+OIGcZTheF5g5tB/lOZhKXzk7iac3ejIDOGIzaDnWLbg5ar7tOO2zIznS0P85QNqM\r\nOeqqqTh4JHs4y+D5N88ohThA+LE4Km/QOJIOIjncjr857htSOYKLfTUeHo010P2lNR6ykjUjDXc1\r\neFVzNbm2oTWgQXo1kmtvNb8TiDVMPfg1kkzTNYp5zjXhnKY1DHl2NYmrVTWrVWY17jh8NQ0uhzX3\r\ngz01ARXWNWosCzUAfDw1ZomkNRUrETbIZ5A118+RNVIPTTU+Xp41e9hQNbosqTUeThs1Ku+WNUCf\r\n0DX2c3g1dVt6Nb32hjXJvY41j25yNSdCDTU+w1g1B/JuNYJ4gDWWz4w1OfuwNQzybDUjz3k1FHmA\r\nNXiXUTUJ91c1fG85NYX47jTvnoI13oDsNFlYSjUQDCQ1apVYNYF9NjWtCl01Qt5VNXzHgzVS3V41\r\nIrJQNdSeGjW0IbY14+MpNRiKOTUm2xw1VoXvNKlVMDWtrIY1lUqINbF4QTXYxgM1b8k5NYMLhjV3\r\n0Yk1ABjxNFwe+DS/5Vg1prAfNVk+RzX98V01kRkHNdd1UzVt1wo174kcNRkgCTXeeUQ1Kl79NNCA\r\nRzUYcMQ0SJAENXdc9zQp2Vs13dE7NfQQBzV5Uo81CjTeNJ7CITVRfIg10rGMNWXj7zQ3Y8c0OMZ/\r\nNZNfOjVqqS01yc0xNSUdyDX7igU1FdxlNVMmLTVn3QI1wItINezJuzV7q+k0og0SNYNyDjWAHA81\r\nzJ5KNVoeZDUKjo41H8xlNd4f0TRAd9g0os5bNcNd6zQqhkY3e7mpN5x2rziFcws5fKFJOHjpMThQ\r\nB9M4E+QHORfanjjN7+s3XJgiODN6QzeGc/42R6MzN6Aq0jaKtEc1dDoPNRbjRDctpv03+cj2N+kL\r\nnjdqXJQ4tKPvOLJ1Fjnv36w4uzDCN7VrrjgWI8I4URWIN98sVziMSs04w1M+OFo4PjfESHw1yWoA\r\nNQdfpTSK0hE1eN20NEycQzUvrVA1UZMTNdZBTjWN2z01WwjONDrziTXuAuc06DDONJArAjUWZQQ1\r\nYAGkNRfBrDSuAeo0q4lzNdwiGDV4LTE1iP6wNASuVzW7WEg1jfbxNJ+zhDXa0jg1BgEcNR4D+jRU\r\nTeM1NU0sNYDqEDVkRBc1it1MNVAECzU1WzU1FHxUNRLY3DSRo0w1eEuJNTRmxzROtx41a13ONIrB\r\nNjXAhx81AMrVNCYeJDU48iY1tUDFNN1EujQBAjU1meRoNUy1pTS+/AU1oNozNQZXCDVHZGM1K5VE\r\nNVNrvTTSCJ01ypHUNMvrEDVNmmQ1P3wLNczacDVNMWw0ThrkNGQLRDXRqbY0KmAGNW7VuDSM6U41\r\n5UkoNYIhtjTkGUc1H6sONXXpETWvY+Y0PQKtNFT6DTWDLVg1VisUNeNP4DQCmSA1PpZUNTVIHzXD\r\nEqY1RtEcNYvU0DRU3is1Lz/zNP+HtDQqZwQ1Us1KNemBdDV8dho1Ne9dNZJTOjXP2DE1fMX7NEyB\r\nGDXM+YM1+I03NawsPzUTCfY0enC3NXfhDjULn301GBw7NQL7mTVjmkM1p1IlNYhASzX+JAU1bEhO\r\nNUSNCzUCb+g0XGMUNc2SYjTlyxU1u15qNQorJjUp7hI1XYveNB1WlDRm5Kk1AEAcNQ==",
                            "noiseTrainingType" : "default"
                          }
                        }
                    ],
                    "start" : 416,
                    "duration" : 930,
                    "mediaStart" : 37,
                    "mediaDuration" : 930,
                    "scalar" : 1,
                    "metadata" : {
                      "WinSubProjectDisplayName" : "",
                      "clipSpeedAttribute" : false
                    },
                    "animationTracks" : {

                    }
                  },
                  {
                    "id" : 87,
                    "_type" : "AMFile",
                    "src" : 3,
                    "trackNumber" : 1,
                    "attributes" : {
                      "ident" : "Aufn. 07-11-19_015",
                      "sampleRate" : 44100,
                      "bitDepth" : 16,
                      "gain" : 1.0,
                      "mixToMono" : true
                    },
                      "channelNumber" : "0,1",
                    "effects" : [
                        {
                          "effectName" : "NoiseReduction",
                          "category" : "categoryAudioEffects",
                          "parameters" : {
                            "denoiserAmount" : 20.0,
                            "denoiserThreshold" : 0.0,
                            "noiseProfile" : "kCzfPgzGSD5CiEc/Qj9CPf8TFzxBgBE8sew6PDObCDuuiNA7llXjO1wlNzuT7KA7dK9IOzRODDsk\r\nBAU7u4iqOo9sfTrg7x46iWMTOtW1JDpI6vE5FI7dORimcDmaWuE5UaelOZRBWTmj8YI5dHPKOUhu\r\nXDnFpjg5ggsdORhaUDkKIjw5dIISOU8DATkXKcw5Yv6TObM2sjm6hCc5aN1vOeQ4kjmkewQ5wj5V\r\nOfvzmzmQjlw5t4V9OXKDfDn+VIw5M8wuOaOtXjmWv944zGNfObCAizloHI05rrIWObvDtDkbE645\r\npr3VOEJlfzmJ88w45RbjOOobLTnsoK44T0VEOU3xVDnQn7M4qhzsOH5OIjlbN2Y5ymqPORiLvjng\r\ncTc5HMofOktGEjkTI485FelWOUILBTmwe744UHwDOR10kjiH5x85eRS2OPWrJDk2D9g45IHAOD58\r\nHTlUzr84e1yYOAPCGTnubMk4w+m5OBOjvDgmjVc4cLo4OYxl1jgx/rk4fnNIObWlcDmmszs5Hbv+\r\nOA2JiTncrqc4JYaAOO+IUjnDQpc5ppTJODtOSzkHhBU5bDbLOJ7dRDg8VBw4zbnmODgFJjk2wiw5\r\n4xkgOcOBODiS4Ys4wCy/OH4N8TeWjZM4GprYOCOycjgLiNA4afgoOIToPjg+QGc4gCZaOKQahDhJ\r\n3oM475S4N3n6EjgbXHU4C+yCOMbKVTgv/To3WFJ4OLwR6zdt/Wk4lyiaOBMoKTjyq+o3uyYGOFcO\r\n4Tcub5M3eFPyN/3POjhogEM48GbgN3H9qDfEE543WOskOHj5mTce/o03d7lSOILY9zcnjnc4+IbY\r\nN3EO0jfvcSU4Hf9XOJUP4ThbbOE3Q/8BOGzHCDjMtDQ4EHDnNwgrvDcOEi04l3NDOESbbDgE26A4\r\nxp3PN8xOzzep8Yk34RwcN+DfNDf4uG83jJIKOGwsCzj/6Aw4aL+ZN8u6XjfSwf82pKAaN+ljgTeF\r\nvMA3ltGvN6mvuzcJsJs36I4OOM27NDiYf1Q3sB7eN8Z8qzcAgQ84Z2WmONaJJzhJXBw4QM7+N3EW\r\nMTgM5kY4QdTjN/eRBzjKBA44i5u/N5Susjd4fSw3WNN9OCGeRjcTRnE3MOH6N66T0Dd4OrA39LDb\r\nN/MZhjgMFhs42KyXN+mGHjd3d6g3DkEIOM2B5ziA7aI5IOmjOfTmVDlmG3A4J8bDOObAuTg2fwI5\r\nMMw/OW8SmDjFtUw4viobOIA/rDguKas4fFKhOGxdPzgvTcA4ogTTOBeIBzl87zE5J441OehgDDmP\r\nWAk5W75dOeXynznah545MsqSOeutlzkYTk85i6EoObLC5zgpW1Y5L60kOsTORTpxei46lP4XOhzs\r\nJzoj0Do6gA6MOk5I8zr39Bo7L3MUOxi54jrjXvc6dyXmOt7UTzv43Xw7rfVvO2RWGjseguc6VYaF\r\nOnw87DkAsBQ6bELVOZaLxjmj5kA507cuOfAu5ziEOlc4nGImOOqADTnrPwo5ysSTONCWHTnE0oQ5\r\na1F4ORwV3Tjegos5SdGZOWTJizkLPV85WAOTORTskjnxzWI5z2JhOaOUwDkeHbk532A0OWZPvjlS\r\nbGk5cGVTOTxYNzlaz+44M+HTOKzTojnwSCM5qsgmOTXW1Dk6bco5xBKKOWmdpDmJOFo5cRQTOSTt\r\nPDnXhAQ6+ph6OTspljhE+bs5AzyoOdJJ7Dn/dFI5dhwwOaXPdDnBviI5NlqwOB9rHTh61hk45SS/\r\nOGj0ODmlkjc5wBROOZe+xTgVdXU5uNzDOVOl2Tk40Oc5Gay6OeVy7DlOEOE5yGwFOl8o8Tl1XxM6\r\nfn14OnLBNDqv9Sk6+SxjOu5QrznBnOY5sWi0OdgZXTkU0OQ5PYHUOQ5+OjkO6io535ZTOaltTTla\r\nLxs5FHPcOFzmFzhfKS043jEtOHLLnTf5qaM2xIgTNxEAqzY2nto2tQ2+NpyKEDdiJCs2aiEAN5HE\r\njjaZZqw2sYOENgiQ8jZ2amc3Yq2jN+SJbTdMaeU32f+IN+e8vzfXJPI3jVoOOLYATzeDlqA3KnHy\r\nN62n8jeYw703sC3ZN7K3sTcwMNA3GjSdNimDjzf4srw30LWLN61BhTeCRkw3TdQuN26+jTe0V3Q3\r\nLpdcN4L44Ta/4DU3jAUjOCC1QDgL6FU4kBIcOEu5NTiNiT84/ekbOLKFJDcR6dA2VcXTNlReNTcO\r\njt82m48hN5/lMTcg1eA2Y5UQNxTg0zap3ZI2O2AkNoCIYja292w2UKaENp4LjzYsvOc2aL1MN6Lt\r\nXjcrcNM3Q/sXONnRHDg75hM4NwApODb//zfg76c4dRiyOJRlfzg7vYA452OZOEJp0DhrWeE4/OSR\r\nONZoVjinagQ47kBsN4Xh8zc/gCM4UlloOPzo3jeq1HA3IUlTN1ooFjegrZQ38CC0NzaAEDfhuLM2\r\n5KtgNkzIqjZMDVs3KiTfN6yuCzcoKYs2WlJsNiYsjjbmdnk2odCANpBfJTZIf8w1c9D3NVJ/BjZ4\r\nAhk22weTNmI8UjYFLig2F2yjNuuPrTY4sVI2+05BNgU2pjYdXWs2K2X+NQWngjY4jMk1DokxNnpn\r\nQjacLYc2Q/3FNbcC0TYHLpE2J1hsNl+vsjYcJc41b5ImNjJ0JzYNjOw183+INUYJtjUB/Fc2BQoF\r\nNjAifzUkcOk1JQvCNdrOlzYgWkM20NWkN2YCYTdTJo02wW+oNpC8pjXNi8I2OAqBNzz3lDcABFM3\r\nviMYN0SgjjcAcFE2HPsVNxbGAjddmKQ3itnLN6gnvzdNCtA39+LaN4Qn8jcleBs46PBjOOIRPTiW\r\nsjM4rhfWN8kSBjiPP0I43wuIONcfCTgjA404SBOrOOZiWzha1HI4fLZ1N8khUzj9TiI4YiriN44E\r\nozcR/QY4XN6/NzR54TeBCI44WYIuOBquYDhKSDA4Ti8TOM7WiDjjoYM4ZzVSOB1o4DeXsjE4Dngr\r\nOL6kdTdD5oE4NKY7OIW4CjgQcuQ3s6MsOIQWoTjBYzQ4ztRmOAHxBThlAEg4OCA6OEK2djjktUM4\r\nblGLOIqgjDigHRQ41VW6OPpRdDiogYY4RfIuOCS5FzjY58o3MORtOMd+mjhXahY4xLaaOIt0wTjp\r\ngAg3d4/mN/wQ7DdsYQ441lShOFlaPzgcWCE3N+nLN+1PVDd68SE32QmuN5I5ODfgW/g3hpyROEMT\r\nAzgWiSY4hZpFOAb/AjiSAIk4lFMrOBWinDeAuwo4RscCOI0ehzWCsKs3qxKINwb0NjUHbyQ3I9vF\r\nNgjT6Ta8yxw36DAeNlcbpTU5cbk1k8LjNZ/hSDYG/X41146nNezFizYPhLk2ZlzDNYL37zaArV43\r\nujIsN3R+0TbiVE03zK8nNzM6TDcyYsA3ogB2N8OrfzfRT+k3ii6tNiVaijdMEYA3FvYUN0iI1zeW\r\n/7g3mA4ZN21XLTcJJfo2mM5wNskZeDcgZ/k2tAABN5IxSjd4Fn427iNzN4QgEDcftBc39R4vNywx\r\nlzYwmNo2fq6CNti3Lzbsp6M2SWUJNyFCaTa2WMo2WEmsNvmkVzaOzuk2qcklNtw1sjb42w43AoUT\r\nNjMsQzbue/w1Fk8jNuWdrzVDFYE269wkNjXXAzU4VjI1AYdLNSB2wTZp8nc2x/sMNf7+QDec47Q2\r\nEOjYNkdMZDaxYVA2o4Z5NtRuGTZnnLk1Th9LN+ay3TYu/xg38xYpNyLKxjX07dw2fmCQNkUZuzUk\r\nPR03lY0ANyu+FTbWLUc2GcYpNmHUvDXYrZ82C4Y9Nmms/TWHLz821uFDNcbwZDaq92I13/89NRvk\r\nTjYg04o1/n/ZNVJYXjW5qb80r+ugNRFPGjaEtb41+QGrNQYP2TWNqPM0lv/rNdeOPjVmyeQ10uC9\r\nNbwzCzVqyqU1co/tNJwJuDTwvLg0ab8NNtzeLTVByCU20514NZuY+jS4TOA1vdcTNjJNiDYLI+I2\r\nP7TLNo08AjaJrqI2qNleN/PMnDevLuM2GwtNNjdUkTbhyaU2nOujN4fVDjaG2/k27tkvN1aM+Tb+\r\n3nA2+KdRN7TqLDcqJLE2cHTjNmI/vTZTTok29meGNoKZATetDaY2Lk47NgQATjaMbc027oQjNtmM\r\nCjWsQwU2pwwtNhTcWTUqrIU1RjxRNaZKWTUQvV02Zq9UNfQ1JzVGQUM18P+jNbhBHTa/LSg1MdIg\r\nNtaj+DXC8PE08vWrNX+HhjZnC0Q3eWeSNoSABTabpZo1MoRFNfTSyTXWDcI1iOlKNtrQkTYpl1g2\r\nb9vgNSSOmzb+H0Q2CF4DNdJyDjXWMfg0Upk9NUqXvzRbNzQ1/3cHNTCxNTVQHs80dSMINTUVmzRa\r\nflc1LWdfNaO67TQZbCY195PbNPkdlTQPG8g0kjF0NUMrLzUot+E0BqAWNZBtwjRhrW80RTUYNaZ0\r\n6DTX5Ik1gWg1NWi+lDWbGB41dig3Nc3C3zUaXxA2910HNiA5ojVogdE1ki6RNueS0zaW2rQ2gB9y\r\nNmN/njWeihY12ZJKNm2eQjbuGx02WhIDNksrYjWBHj81u8T+NMOYXTU6B5c1qKFQNVPWUjVyLII2\r\n4n82NlWayTVDbRY1+2cwNlQLKzdvqGc36FWENZWa0TUpc4s1Op8nNWclvTQ/NwU1BVXTNKVDBTWT\r\nxR81va2PNPTnzzTNdlE19j7uNO7qOjWSWFc1ReGYNOn4GDV7VlE1IKLdNBq0EjW0ihw1FtkzNThH\r\nuzRkfHU10Y4lNWZMDzWOFOs0fk9FNWgd2jQn/aQ0G7/5NE6XkTXG/9Y0VhdaNGD3DDVyXZc183jP\r\nNLASGTUadNY0LgkRNUqphDUZN041ECUrNZ9yejVGrSE1VLUKNQh90jRNYgY1xf0NNSi+wDT2dxE1\r\nMIDLNMPuCDVK0ZE0Ohu7NHREpjR1t9U0dzrbNHtUPTUy+iI1Q4zuNDIlezWt9Lo1W4XpNA2rgTQf\r\n8Ew1er/BNCwawzQGHbA0IOSxNNi/zDQPaF81fJbRNO1+czVE2ds0iXgCNYLa8TTdoIQ0HFUINU55\r\ngzUEL+E0tOcHNfLbQzXPY/g0n0A7NQZVEzWsceg0cHCwNTREwDSQUQE1BlIENVmQPDWV7Qg1pE9F\r\nNTkNCTUPFa818n2+NJ3+YjUw8Ac1BqJENZUTaDVrDRg1IU0DNZ1rBDUJU7Q01iaLNcr6lzRIi+U0\r\ncRGgNWzOCTWsDwY1RYZKNe7G3zQwgQY1zBW7NHa9DzUCX8k0BZsuNdFr3zS8fgk1rt/uNCyj1DQ0\r\nlfI0RYHXNKafwDSyquc0Yb6YNUJd+TQrMc00wGsMNaJJ2zTKXyU1X8/gNPMYCTVVI0k0cIBWNeOX\r\nDDV6owQ1kQzKNAwZOjXE/TE1/STjND+tBzX6AQA18r2BNA01jjSpZoo1YZM3NQCrTTWpI+o08Sjj\r\nNJAP9jTcXPo0mMgwNQBBwzSY//U0UAuxNPeqCjUeixw1XLfCNEUEGzXjkTk1ThS/NAAA8jQEPwo8\r\nkdtAOreejzrgZ2I6HGbiOurMpzot5UU6QyeQOt8OjzogjeE69A6FOvyzUjrokII6sSz0OuvasDpi\r\neMg608CnOvbDMzoQSXU6uQCyOnoHfzp++p86FwamOiHuXDrsz1Q6s8S5OigTljrVYtM6okm+OjQ0\r\nmzqd/XQ6EuIuOiv/FjqaAZM6QuyxOu3DvDomDaU6SWHBOu1aijrRioM66NH4OsEDpDoZ2ZE6hLxt\r\nOmnVcjpuBSc6xgbEOsrhTjozm6M6vbabOv5mhzoEey07vkk4OtZeMjp8Mng6F5eiOrhTDTqtEKE6\r\nwPHFOvE8yzovp1E678ObOod5dDqiWDY6ZwakOjJi1DpgNRU69bkQOoIEjzpWh346u3Y1OslIJzr9\r\nEmY61i20OpN+ajoRyJA6cl+kOvjvDDteKYA6zyJOOouDNzo0OaY600owOvuDwTrnJWg6CwcxOuFd\r\nFzu9cR460Je+OpJ9FzqtoYY6pIEpOs6OjDoIyZk65pegOgKcijqCrms6JqmVOsgUfDqcDCI6oHZd\r\nOuJlSTo0VHg6Rv+LOqVVijoFkps6Q7UWOp29TjrwA5o6z/VdOtVgnTqpYIk6rVAxOrZsPzoXqs06\r\nUTZWOrhutzpNJw07AMe4OjQ/yjpo6aU6hYaKOrM9UTrfDtk6Pu1oOuO+SjrkJQ86te8nOrRpmTr3\r\ndz069oIZOupcmDpHP5Y6m/L3Ouox5jof4546VkJ4OrMWvDqCnpE6IEBpOi1pBjukiF46vFRJOoBi\r\nUTqzpLc66oMvOjKfPDpEKh06Rj6uOgDp9znoFHM6darDOrbnDjqFQhQ7Jq2NOsx4Tjqji4g6f2GT\r\nOtBfqDq7hAw6Fh05OodyZjpkJ4Q6D5mxOrT3jDrX7T06mLauOga8ejqKbJA60yCyOqZ5hzrOrtM6\r\nFsFWOg3MlDr9Ubw6lQdyOkKHhjogf246GaqrOm4QlTr59hw6deUvOqeHmzqGrYg6L5lPOnL8qDrN\r\n31M6DrwpOgXkozrkPz06k8dZOj+SgTpJ95A6/mcZO3dJejrSuPU6bA3dOjPEITp88FY6thQ6OiST\r\nJjpFJWI6+tC4OmgOPDrY2Z06rgWyOuB1FTtjl5E6VWViOk25UDo4aCg5ouEyOmQV4zpvrts6o4S+\r\nOmfEhDr2y+Y6nCqkOkxJKDp/seo6EKC0OuCxxDlzp9Q69IJfOk2RnTqCez06DDAWOjrISDrJFZM6\r\nOPUCOu7RQjpncVg6O3sVO1gfijqwu1U68e4MOzr8xzrJXq464j3aOj77+Dnj3VA62ic6OkXuJjrj\r\n6KY6QM9wOsBzjzrfAxc6hLIpOmjQMzq5vKQ6hQqVOvvazTomOjY6QilsOmjWlTp2CUE6pxdUOirI\r\nkTqEbM46vdZ1OgDuTjo/WZc6iVQxOgugiTqk7MA6qauFOkjc9jnKClI6ah6qOnpnzzqWcWM6WQTu\r\nOg3LTzoPHww6v6mnOioWmjpN7wg7oNQ5OoXHlTpcz6c6CHsZOpxraTpNfxU6FRFkOsmCpjqm3qs6\r\n1d3POmuglToZPaI66gRZOlQnfTolhh4648xQOtQ5CDqmf686wLVUOtGldTrjh4U64N5xOsT0gzrJ\r\n1aE6J7o2OjGcYzolVwg7uh+sOtzOwzqZdHU6ouDqOqLDCjrzbWI6PZHKOoT0sDrBih46PA5xOi85\r\nTDqWTL06e1qMOgWCSjoeVGA60BnYOqvAujo5a4A6IqPHOn+tYTq6GCY6+ytBOoCxbTp+Qrk6YSc1\r\nOjxWiDqmAMw6x326OjWXXDrop1Y6JqS6OkLFXjo01ic64VBlOl0pYTr5os86/qb1ObhKxTlYyFY6\r\nKQoVO0TrCDtYu406eF/zOTHQBjqzhJQ6xEC2OoJ+6TqVI486BIxgOqamWDpze0Y6WZaNOgkIojoF\r\nURM6otToOv6P3jnGWFU6fkLJOtPtdTrCt4M6s4qTOl29bTp2MS06RZXvOXM01TqHJVg6/sVoOlh4\r\nBjtaSpQ6RuiOOnuKljrqVoM6vcSOOs4MEzplNWM6cMOVOiy1szrgY6w6yri5OgAS5jqaGCE67c+F\r\nOlYjMToHGQE6Zq4iOhCStDqjpoE6sx+xOhUBkzq58Vs6CoGAOrwRDzvVPyA6SE+zOcVhWzpjoCc6\r\nG890Og9DTTrc+3Q68cJGOmd3PTrFZLU63wVyOh4G0Dq6fjI6xq/MOY9crDp+Lg06k3sROnJJcDpv\r\nP4Q6plqZOl6FmDpWlnA6tiiEOjmKejp8SzY6fuMaO5JGmDrJKJk6t/8JOkZ3hDpzroM6sAsqOnRd\r\ngTpl6306RodWOk2LuToxEbY6gYMJOnHnvTl5YsM6td+TOgiUPzqrgRs6ssi8OoZoNDoRtuQ6tD2b\r\nOtP6qDrXfhI7uo1zOmbdhTojKpA6DER7OnHElDqZ4Y86roo8OhXGvDqWvCU6joZPOhgsmzoehI46\r\nXaRlOoHiPzpkzjQ6hTtcOgTVKjrZSWQ6Dt+1OhjqXzpNK446StI+OtlDTToolDE6rA5vOifERjqJ\r\nIg06K/5OOvNJtDnybtQ6uqFEOuQaMzqB+JQ6sYhyOmF9BDrh2jY6w8gTOmrnkjrEhJk6LqaPOoHJ\r\nkDrK2qM6GmFgOnjrNTpCeZg6+XFaOqRrPjr5fjM6R8oQOnAjljqpGnc6FQ8gOpLMWTqgbW86tpt2\r\nOhJniTokrTA6L0qeOnYDHzqNqCo6KP4cOhubPjqiTQ46OnIoOjuWaTrWo4I6bB4bOqAbKTo5fVU6\r\nFKElOpplTjrwZhA6/vqYOl593TpUx1M6Gm1hOsIacToilA47MgSOOiAMUTq9QKw698FWOhrrhDpt\r\ntZE6KwQ6OuRwYDq1pRE7xBJ1Os7GajptjjE6zK2POmL5Xzr99246STBeOgUfQDqQU+s6vn5XOpI5\r\ntzr5tgU7IMqdOv9D1Drc2oY63GRDOh3AfzoJxYg63W+DOgiAPzqQld06xba8OsJiwzlkuCc6Rkxo\r\nOpQNXTr4s1c655jCOree6znraqk6skwROjqNbDqkZDE6rMqHOuJvmDrGqj06EAaMOggTKzpviKw6\r\ngJ7UOZxOKDpjcMM6pnCAOjYErzq8C9Y6IiQgOo8eOjo/LHk618/6OWcEZTqydz06UvVLOmwxuTqG\r\nMH06rgRjOuA+hTpM+sk55OV9Om/aIDqZ/Ag6DJABOlEEMzrNGiQ6Xy9aOuBweDr5uDY63ZwfOkNb\r\nFTqWB0M68r+wOozh3jqAzDw6xeXgOgUQkDr0Ljk67CuCOgVhljql0ic6yQq2OvnDTDq/0tA6FE4+\r\nOt1IsDoVrFU6mQWVOgZ93Dq2nsE61VnyOmdVRzpMLFw6TBXGOg2oIzrIQ4g6rn50OiLoKDoKsVs6\r\n40S6OpHabjoYyJA6bhRhOuIzhTqmoAs6KE4POu9OcjoCC606PMq5OustMzquHJY6QeyAOiq5fDrE\r\nlZM6YGuAOvp7dTqETY86citHOi6M9DmYA3o6hGmwOgz2sjqkIZo6rk9JOkJZkzoQlD462FqGOhIs\r\nkjoWkV86xh+9OkVVrjroBp86YmtbOkQWtDo7BV06VcCaOgaTQjoMr4E6LHZCOvexNzoGm1w6vBQQ\r\nO7yInDo2Yp067S1COtaQizqyVi46QGkJOw+swTod0BI6PSqLOn4/hDosI1Y6aimWOg0sBzrFiEU6\r\nl+M4Ok2gGzrYJIA6awM1On5B+zmFOLA6SvECOlZW1Dllfl46+qBlOjmshzpiBbg6RdduOiDxeTrM\r\nQbw5kLX+OdkSOjogY+U5sMZDOr/yNzqN8xs432JHN4/qPjcDzgQ3luwpNxBkwzbEy+E2nBPoNo3O\r\nmTbQT8M2puLMNiG+lDaiKK82GEx1Np3SHja4W6Y2YAsSNmRYEzabLVY2HLpdNn5XKzaWBew1aDO1\r\nNQSL8DUjMVU2q6V7Npx7SDazT3k2DNabNps49Da+hkk3eHo0OBp9ejiirZE5e2FmOQjmkDmKGXA5\r\n9U8ROpqeHjpq+Jk6D+gZOkljCDrKfbU5rNzOOdWsEzqJ/3M6dL8eOgbRqTrWogU6XJwoOVRQlTlM\r\npag4dFNJOpiWhTqQfPs4Qlc+OVD0nznGu3E6c6tLOrZxwTgS9po5aGoNOCjO1Di5B7Y4q0MPOBat\r\n8zh3M9441DgBOTiPuzk/o6M53jmkOUehYzmpa9w4BF9POEkkljiSTA05QmV8OfhB5TiYAf44VHu8\r\nOYnqHDri3KI54rMNOdr2dDj8hnM4XAjuN1ZCnThEbzo6rYx5Oo74oDlqP1g4MFyBOPVtEzjEc9I4\r\nEzHcOPV+2jdCbYc1E1ufNUpbNTU6OGE1kOu7NSzuSjW//Go1dB2TNQELqjWOumg1SZegNX47izWy\r\n/t01k8ukNcm7hDUSnwc21nSJNfuXSTWnIoQ1BgTHNeAekDWSszQ1DCVMNdM0QDV/KCc1jd2BNUA3\r\nJzUM75E1BMIGNcrJkTUt9b81/Q4OOPSkAjgf83I3tC+ZOJfBnTihCCo5N7HGONaFJjjQY1o5Q+7J\r\nOd8NmDpaOYI6jyGIOanDHDi4Wbg1komkODh8vDlkG8s5QV2IOeJe3zlmRUc5+vveOApvPzkeVfs5\r\n6EoXOnQD+TiMJY84bb7sOH+ZTzk4JWc5KkB4ObN93Tir0lA406t0NYVMwjUCd6A16jmONRPtFDUD\r\nDo81J/MXNVqG1TTAPU41GayhNZOTHjVM7VA1ElBdNTRzKjUCZkI1fsd/NfYz9TQ4rFs1ir9JNdPJ\r\nFzV4HdA09KtUNYCQCzWkQ+o0TTVMNSyrqjSTaoM1+AzHNEjRBzWy6xc1nC4GNX524DTkukg1cRTp\r\nNP2EjzVHQd00XndpNcAJnDVmfic1hXSaNQtyMDWlU8k07sDoNOmphDXIrio1emWDNTuKuDXjuuA0\r\nCUOpNVdmXTWbIAY1PqfRNAgQMzUs7rM0ivfLNHCOLTUTvGo1zgKKNSwELzVDIKQ1xLZ4NdthOzWD\r\nZA01nlc2NRwZJDW+p0s1Eo5CNc4DBzU+yXs1G+AvNcSqXDXf+Hs1ieWYNb9kjDVMjxw1CsEpNUOa\r\nfjVQJio1kq3xNIyJIjUgQh018er5NL1FRjVjT041ViGONdKKOjXRMmM1RlZwNazjZjWJ7Q81iJAl\r\nNQGxRTUI0DY1h+jUNPxf8zSyURU1F9ULNcKmfzUUsZA1lI6wNXq33DTau9I0alciNUTOITWLIiU1\r\nRAQ6NR0YhTVAxFQ1t/YgNbsLrDSTnk010HEHNTNDGjW848w0KIQxNWa9MzUkZx81B8DXNGOLyDQs\r\nnPw0HH9ONUJnFDURehw1IOmkNNA3yzS2p/M0Ajn2NPUavTUWrR41ZGEnNdbvbjVswXY12sVYNV1c\r\nnzU2pys1nqJ/NOQ9VjWSHCI1Vak9Na23eTWPCIQ1PVXjNI0szTXgkWg1xwvANMhbcTWtCVk1TXsl\r\nNV1oijVKLSg1UQLmNEgd6zRzVyk1qvdDNfqb5TRyfcA0GWVLNexHaTVBYh01AICQNQ==",
                            "noiseTrainingType" : "default"
                          }
                        }
                    ],
                    "start" : 1346,
                    "duration" : 765,
                    "mediaStart" : 27,
                    "mediaDuration" : 765,
                    "scalar" : 1,
                    "metadata" : {
                      "WinSubProjectDisplayName" : "",
                      "clipSpeedAttribute" : false
                    },
                    "animationTracks" : {

                    }
                  },
                  {
                    "id" : 88,
                    "_type" : "AMFile",
                    "src" : 4,
                    "trackNumber" : 1,
                    "attributes" : {
                      "ident" : "Aufn. 07-11-19_016",
                      "sampleRate" : 44100,
                      "bitDepth" : 16,
                      "gain" : 1.0,
                      "mixToMono" : true
                    },
                      "channelNumber" : "0,1",
                    "effects" : [
                        {
                          "effectName" : "NoiseReduction",
                          "category" : "categoryAudioEffects",
                          "parameters" : {
                            "denoiserAmount" : 20.0,
                            "denoiserThreshold" : 0.0,
                            "noiseProfile" : "+LD/P9jbPj9o9Ms+k1nAPRQ1Hj3y6ZU8PhkTPbeXmjtuEiE83hX8O9USBzyJSgY84BR0O6e49zvj\r\niMM791fFOxN1xTsomzA7/es/O2Zl1jpjiZw6HMqLOqyx+zo3l286Z80yOgt8izq1n986sDMNOupQ\r\n8TnQR/o5IPEaOpfxNTrYdzg6IRHVOefE+jlnjgI7MbhFOxR88Tt9z8M7C94MPGUvozrqJt8768XU\r\nO4AvfTt7jbA7kb66O2ePwDsA+o47+rdQOh6wWTpgHFc7pV+UO/OOxjoGAyU7QMPPOYIBAjoMyJY6\r\nl8WJOnjOkjpuFX056N/7OVv0CTs8eu069pzuOtzb6Dm3ztI52IaMOV6ytzna8sY6sj1XOvs1lDo0\r\nY5M6FPdeOt3aQTrfpGA5IomNOQMHzTmJ+AY6qhbBOg00pTku+8A5RQFiOZoQhjlD4Vg5Leu0OT4v\r\nljke9Bk5O6MCOXhLYTkzDaI5Zig0OUEIdDnMh8M4go3hOBjzgjgXmhc5jQ0lOb3fUDmKAvk4R9c0\r\nOf6EpDl1VGk5okkrOZWMHzmb18U54TiGOX0pIjnkQJI5DAkMOWqA4Th+TKU4SYAWOdcyDzl/III5\r\nt9ptOfa9yDgEgA85YLIGOUiAyDeuM6Q46uHLOP1FRTkck8w4CvqOOJg4STjzmA85bAOVOJpTqzkz\r\nqcQ4NEqcOC9hiDl+dCI4FGJrONJS3TgenYU4i3YSOI0IOzjd+Vk5w+wMOa4vfjhUiKM4z6brONpb\r\nejgItJ45w4FVOlZvpTkWUJc5z0K2ORj10zmVveg5xM7HOPWEAjmCoys5dHwdOSDTOTirG004or+E\r\nOHqmljiwG3U4uC/lOHMf9jfvfL84Y8w7OLVA/jjDoGw4D8YyOEV/WTn2qm04g3dsOUtnCzrDsNs4\r\nsheJOafzNzqJwkg57ARZOERabDjCsco4WCSlODXSZTlKRe44kODGOG7hVTjIOI05hmbDOG+YETjU\r\nONQ4hgKHOI18FzjCa/U36ztQOFZQ/zc9zY43QNOGOEMy/TeRoMg4kmUaOLR6ajgNFpw3VrKDOIr9\r\nxzj9t5c4GILXONtENzjoLYQ4rmrIN/AbPDhq6Mo33tstONOqlDdrstQ3NLLMN47DizdekNQ3FCvX\r\nN5A2TjjWIvs38vkFOEcAnDfsWeg3DNcDOHTjrjekqZs3j2LTNzRzxjcuWoI3IyWlNxuUsTes0tk3\r\nPd39N0iz1Tci8/o3m6ZhN/SCJDi75Ks3fA02N/p2STcYorQ3l5YZOL5Umjd48ZE3VqOrN8MnLjhE\r\nH8I4wj2ROBsTiDggimI4Xy+xODmtCjiPRV84Qj9LOO5NsTe+KZI3Nu1UN8AAmjfn/9s3KIrBN389\r\nlTeY8GQ3m+UoN8BpuDeKblY3n7GFNz6GWjcsiu026NzXNxxm1zdDS6g3kNklN0IAdzdhcYc3+myk\r\nNxr01TdPhHI3gpmJN8dWhjcgsXo3tuGWN38HyDeTmKY3gM/UNwoAbTf0jSs3tK0LOLCnVjeMB443\r\n0FmqN+KIhzeyA5A3P2BrN3dpmzeOOF03w836Nwd+8TesgQ84LWK+N3/bnTcHShA4ythQOJROajcg\r\ngLs35qMzN/LyXzfLCCc33pGgN2JfqTflQjE3b9M9N3JRWjcoo2M3Q61sN4yRRzdoBa03aKgkN1Dj\r\nJjc42Ss3mmtMNxlKxjdIA5430nyEN/4mvjfpaDU3iRbKN2CP+jdfw0w3x5RzNzzLezeS4CM3gYmw\r\nN3t9ozfEoWs3U5BEN267+zbggDM4ju8EODnCZTjtUCA4/ufiN6vZ+jfj6nw3ICfNN1z0NTe03HI3\r\nTwaiN2I2yTfnDTA3Ig4UN04OmDeyy2s3MDzXN11vCzjcW583bfIENxjHbjdpAI0355zlNmxF4TaW\r\n3j43eF+1NtOoLzeNHIU32EjbNoDjDTeYsVQ3bOMdN38T0DZx7jQ3Ysp+N9IGwDZ/8LM26AKeNqzi\r\nBDdyH4c3R4MpN7o9HzcuRkA3NYbkNpLkIDdyUag2iDbpNhQZ7TZObE82Rs8wN8fvmTbMk2M3jliA\r\nN/jvHzc24vU23s8zNxG6tzfj76s3MuLrNt/c4Df4iVY3xt2RNtvC6zYiDdQ2IycoNypEKTer3ZU2\r\n5LgaN9uEUzf+tvs2Ms2cNsBfazerivE2oBmpNsytlzbZ+l42/kVyNowJHDfYk1g3iZTINh5UGDeh\r\nLvg2PTOGNjb3mjbdrxg3xpwQN+XykjaRZfE23FyENjC8zDb3m1A2n8y5NhWIkjYNtUA2oVPmNp+d\r\nzzbHtWA2zjbENgl33zYWqyo38J/MNtAmfzYxrhU3IyKBN1rnCTdiQjg3FL3bN849Ajfc0Ec3LPDP\r\nNwabPzcGhvE25Mw2Nw4GQzco4HM3ZkDMNh3eaTfv82036kmeN8DMHzdZ3Zs2eL99NuUyLjfIHFk3\r\nBLTKNs8jkjZUmYk3To5JNs7NzTY0Miw3eMS6NvDtjjZCfMs2tG7WNgeFiTf/3VM3sPnWNh15rDZb\r\n8W82/RnjNn628TY60MA2yNZnNoB3vjao1Jk2CbNGN0pEFTeu9IY2LKYKNwyjcDd7WpE3niGqNjLG\r\nETdMluY3CpJ6N1UyOjdpp0M3HdaMN39LGzcQSWc3+k7nN8aOOjcf2Qk31sHKN11OqTdQlmM3gosM\r\nODAuWjcSaOk3GYKJN7ckgDdUPLk3U0tZNgdKATcYOls3yGiDNv+XijaFUy835ZeCN29jnTYAsrI3\r\nDzW3Nv5v7TZl6uc2+lUVNzoSMzdsrAA3dI70Nhs59DaZv0g3luC+NhV6Ljdb4c82p8UfN31gkDao\r\nkG43l0lVNtVkvDaMhkY3WsR3N2uOKTdpOTM3CYdKN0XvezeeGfI2CfeBN8wgxTbs9lA3jEe/Nt/h\r\nCDd239s251ohNx6xCze4RFE3tiMRNwIlsDZAb2E3KM8jNzzYXzdiOAU3vHsSNy9E1TYSIxo30w/o\r\nNnmj+TbbmZ42UaQvN5RCADdK87o2huM8NyCZ1jZTrB83/vlQN6i4MzffA942vHkJNmf8YzdqaSY3\r\neZryNccyxzb7miE39gfbNkQIzDbT7tI2QkYWN1geUjakqR82hGxZNnR2ODbTrB42YDrjNdVy4DUu\r\nRcw1QKkSNgC2LDYKrbk1FsumNYohwzVGDts1D2WfNSIdiTWq3sQ1mWqnNcN0hjUg7Ik1hCacNQYd\r\n1jVSktE1aGjWNaDmgDWbQ+o1fWekNY9/rTWua9E1px/PNSSX0zWkZeQ1wYXrNREfozYUoY824zsm\r\nNkGQHzaDyiM2tvgQNvYyqzZGmRU2+KnjNQq0uDY3ih430mCMNuZV5TYBQPY2N56fNsfYfTYwcuo2\r\nwOzZNq/8TjYa3eA2eG0lN73yQjZWNo02ZAS9NrrzjTaqnaA2lGWoNvKq+TYWsTc3eUwSN9MAgDaZ\r\n5J423CJGNoeLkzaVHpE2+1baNi905jUJOm02Ngk3NmUzFzaudgU2khT7NSyLAzaCTAc291A6Nl/e\r\nBjaaydQ13SQENrn6Hzay7Rc2YPaaNdmryjUsGE81Fa/kNS7j2TWCxNk1g3/DNbAMwTWDfvA1BhyA\r\nNej2gjWiSrw1vs4XNoLHkzUgIf01Wiu7Nv1PZjZ1rm02lxe1NdINyzUY2os19ffeNWaMqTV1/gM2\r\n3ybaNT462zW64Ak2YQFVNejtvzWwt9k18kMPNs03tDXSyG01aXPZNXHPrjWEnZM26efnNRDLNjZH\r\nUUw2X+nfNenkQzYWGeE1JPDmNTiZazWVKLA1qfcMNh6tEDfPxAs32XggNin2qDXRba01f5mwNuqB\r\nyzWd7Z83Pya1N1U5qjYLtM42EF8iN+DW5DZEy8k2XrC8Nsr1XTaHpMg2XNiwNg1guDXkwwc30SW4\r\nNpQgGDfSeoE2ssOKNfxP3Tb+N402xVQNNl7PvzVz4g42UngNNjWVnDUr+fw0BvmsNYRMdjXYnoU1\r\nqeXrNOwhzzXh3Ao2himnNUAzljVEV1E10hyCNQArqzVka8E1ofOsNUrtrzVGox01QF9PNZgNWTUA\r\nxls1WeaNNVvqHDXyIa81QNR3NTrTWTX/n7I1I+uNNZ5TWjWuwIw1pKnaNc3GnzX8DRQ2B/RiNs9U\r\nhTiob844eqtnNxPSSjbtqKA3zqeKN5WhMzjq0Oc35tVYN0ddkDcmPYs3EpBpN7WFDjaO8YA3se5S\r\nOFykvziMS7c4WdT2OGwRJzlG5ZA4AQkxOBWG/DffsPk1p3ftNzGmfjd96lQ4+Zc2OLbRGDhAo/44\r\nwXUeOSJA5Ti5S4U32hHnONSQVjmEqRk5F6AhOdWZADnHza44VBHcN3NE+jbSMZQ3HB+fOPTAzTjd\r\nQig4UOsTNwNGgzciBGs3gRUWN0ws3Dd8CIE3iLSmNwZH6TdrRr84Nu07OUavFzd+eHc3V/5MN6oA\r\nszeONZY4s+/YOHHOlDjQ+Ek30y+oNipKlDamLiQ2TIBhNeh0jzU9rWg1qNRiNWntnDU5dZM1MKJ0\r\nNZiAhTU52pc1FxBzNfu/YzWmmeM1/4CuNaJRojW1MOQ1n0iKNT7ugDWU2Gs1QlIuNQfqYzW7yaA1\r\nHu/iNYANMDbx5ns1gLCkNf4mhTXe9Ew1FHopNYC5RjV0jUU1AkqiNdqpJTWTW8M1oFfsNShVkDUX\r\nX5g1G9EkNWIqTDWvT4U1NGycNUq+XTVJzT41FVUFNvji1TWXsBw11vfBNYS5wTXzB201jyePNYMd\r\nbTUpK3g1s2J4NXaJgzU5pS01zV5QNe8W7zWYNBs2MbWSNackojWQ6og1ZICzNVLZ0DUM+No1md6S\r\nNVG+czU4oZ01oHdWNQDuUTUKGng1Hh53NYeS4DV7EYY1klCPNf1SLTUBkP81kEtHNR+8UjWQoJw1\r\n94ycNcz0gjVg50M1WilwNfhuizUE5Gk11AaCNeZPbTV2j+M1Of98NR57rTXzm4Q1hT23NRb0yzU8\r\nrXA1SKmHNTNAZDVG5+E1+Q9eNf2jpDVzNec18HBnNTNGXzUM9E01T7yaNQvPgDVuNl01JruqNdps\r\nYjViCaI1Qu11NUGUmDUr5N81drU7NQXlpzXG0RQ23098NV/viTV7q5o1CLcXNdochDUwsng1Rqu1\r\nNcF2ODUvWmI1yHuDNfZNZTVk71I1eJ2BNTlpzzU7m+k1QOhxNWrZoTVGA3k1ZYs2NX2PkDXB4Hs1\r\n77onNRB53TWWKbM1TY8+NfiMLTVhsxA1tMidNXo+TzU8I7o1Vcq4NYz6VDUWyV81UVTbNYJbNzVv\r\nJRU1fASrNUBliTUuLY4194Z9NT5BeDW+WlM144p9Nc4O4jX9uBw1VNMoNba7KzVQE0k1hilLNQbH\r\nqTWRJ2g1e/mNNQCmODXrM6U1kkkDNb4wdDUrmSw2cI6PNaN9cTVFgBs15cx7NawTajXosAY2u04z\r\nNZjlhjWpTIs1pM+ONZw/RzVtjiY1rBHONTpZYjXdi6s1zhJSNachoTX5TFc1t2SMNQAAojUxSig9\r\nfTepOi8V9jopxaY6Kg9xO6D+IztI+4Q6rBm5OvsLkjrJ8HA6Jj/lOuj2lzoUs5g65p/aOjVeJzrP\r\nqIQ66wN7OiTxoTr+zI86GSQrOs60TTpC5H06ZEiJOgxEJDrienQ6UNkPOz4MiTqToyY6zJVnOlAq\r\noToeCyQ65C4iOvPntDowcFQ6Ntg0OlzuJzreSos6VZYgOsGkKzrZ55I6sdcuOhxwTDqfXlE6YYE9\r\nOl8Nhzrrhys60UZROj7iLjogqbE6jFqMOrQPHjojD1w6vAObOn3pgDo7xqE6RoszOh+MoTp2Htc6\r\n24ePOqm4rjqKtpU6KJ9BOtjNaTrp5iA6DrxLOrbkVTpcfc46UrqDOka/Lzos6w07Rf6lOsXCijpo\r\na006VMTkOvQdmjry/k46711bOmN7dTq9Tk46QGE6OrTWIjqCJXk6aod1OkQx9TrnrkM6WM8eOij0\r\nQjo0gow6m021OkEqjTqxfrc63ISVOnI3iDp1yEs6LRJLOgpx2zosNnI6ijpTOuZGlToLya06hG5X\r\nOpd5jDrpDq462VsuOvvTtTo4Zjo64SyAOkT42jqca3Y6YjCJOqkZcjpLFuE6GhU4OgY6kDplhIA6\r\nmEhJOuculToTD606WfKHOjzOkToC4lc6dL+COmJkuzoTmVw6N2pHOvo2BjpbIqg6juGeOsQ54jlQ\r\nv406LwKEOoD2RDoNBX06QZUFO/0h8zk9dMI6sll1OuxQbzoFpbs6bs3WOgX2qDqeWTI6dOqSOjjt\r\nvDpSsXs6+NEDOjMlbDrDKMw5kKwsOu9sBjsUTEI69xePOqyDDDtyWCg6IdWGOlIfgzpIpaE6yE3f\r\nOaA8rzqjYdA6LoeAOo/jODqlwNg6eCEtOg5tjDp5SLc629SNOqQivzpQIpg6V7ozOrcnnzrIRzA6\r\nHx15OmfPVzq5ZjA6YE10OoqssTqhOIo6b/5kOgJ6DjoR4BQ6AwA4Omz8ETrsb586wdC5OspmfjqT\r\nGhI6C/90OowBNDpEd5Q6ARVxOgMX/jk529w6gF1BOkBurzqM14A6j7OoOoTwKzpjmrA6XiKlOvYc\r\nhTrOmCE6iT+1Oq6iaDrjuM86V3IZO/TVRzv5qDs605vUOYfN2jq/AMo6PAhXOk61gDqPZ7g6NDLm\r\nOiknFDrsZGk6nXeAOuDbyzqdGjs6ZvQsOkL4njpI6bY6IrH4OhQrYDq+7oM6dzWHOs9WXToC7w86\r\nwDCGOpSypDrxTow6CmeXOiguaDq4+Ik64VV/Oqx8ijp1y6U6t5awOp21Rjoovf86YsEcOpoQvDrS\r\nyRw6rJuhOtR7DDt0OcI6t4VWOhYTzDnDTI06sk75OpInjToYclg6UE6cOkZpojoTCgU66/aEOjWT\r\n6zqs1l86OBcgO/KIWzoeojY6HksGOkJOVTow3VU6GwC6Ov7vJDp2iVA6cJu9Or23gTorGKQ6Ic9D\r\nOrtrjTrBaQk7FAceOkJ9kjovo4g6vueSOoJOnzp5Y2Q6T+y6OmQWqjoqs7E6JSuhOu0mLDr7q446\r\nJ+g0OgC3oTpSm7Q6lGqMOgb/YjolAiM63+i0OiIC2jr0mLA6dryQOhYcQjqT3c06j673OWTcjzrA\r\nIWU6xIdPOtAz7DpnZQA74jWNOoDdITrOIII6JVxkOoWLjjpm8Hg6M4WWOnoygzp2IHc6FlBCOl0M\r\ngzo4+ZU6RtUnOkR4sjoA0PU5mIR5OkaFmTocs8A5m/eDOjRayjrMrXA6h6vOOttXvTpGP2s6Ludu\r\nOtD/nTppqts6cow2OuDs1TqTzXs6Sw4HO9iWWzoe6WQ6y8M4OjV5KTrOuLs6PupFO5z7Kjr9TR06\r\nBXNOOg8LbzpRWZE6smqYOjPwkzqd2Vo6WR4vOoQ4iTpwbdM64peNOk7xHTpVjWE66zTYOv22ijoG\r\nV5U6yDuHOr6XijqPyQ86RI68OqOQiDrL0CM6bW3mOhT45DnEnU46ToWGOsAuiTrfbIY6PgBpOmCx\r\nfjqaeUk6zIjTOnTbKDosdXo61UJ+Omy9kzpwL3Q6OJtNOs4NqzrmD4Y6/nVVOo2NizonHQ06xzZu\r\nOiGlKzptFKs6q3WcOrqMITqAPG863G83OgAFojrupXM6TUqXOhVWPjo7Obg6ZcKSOom4QTrbBbU6\r\nntFnOuF7NjqlS3o64Oc3OsGxvTp4WBo6wEW5OkMUpzrb3vA5oLK2Oma9fjo3sSU6bbs3OhpcRTqU\r\no3w64s64OojJQTqUZ7Q6ZbdvOi7dWzpZXW06msFAOptstTqJ94s6QMqpOgoGwDorGYs6BPVdOlI+\r\nlDryJLA6T/q7OufMPzqJT8A5FhiWOjcM5Dqe+CE6pItbOqCoQjqeFVc6gkxTOmImjDr6Q4I6jQcu\r\nOj/Cljq6II06YrN4OiJXmDoXwmo6FqEfOuxFhjoiI3A6/lmPOqWxhjrbR8M6nqFIOoGtmToqU4Y6\r\n6bzCOoBbMzp6NSs6YBXeOgJ3uDqRm1E6m1Q+OrUPKzpw5lA6hmVKOsVRlTq2fnA6ZnOXOhrjWDrQ\r\nTRQ7+dpAOsCnvDpc4kY61QEaO9C5QTo+vVA6ZIU/OhIYjDqosAk70dlsOkOAWzoGxAc6pa3KOg8G\r\nhTolhlk6H1iCOoWXODqiBJQ60ODDObPPkDq7JVM6to1IOn7htDp77oU6x30NOlY8VTp4JCY6Az8c\r\nOhx9HjqqDx06WS7aOukEHjo90NY6qLxZOqnjjjqZbdg63dFJOolHxzpSilA6fYx8OhDMtDo47Gs6\r\n5XR7OjwJpToPR/Y54seQOnsLcjrshcI6uDq7OoHheTo5Pl06Hm65OiqmcjoMuh867CuPOvkRSjoq\r\nKFk6DMNUOktWNToOZ48667V1OqNDRzoDwoc6pm1IOoLPjTqs8CA69dWROnocGzpLpQY76ioHOmRH\r\nmDoDAlw6TKiqOnVbaTrmPTw6zOtKOqyf+zmzNDg6TwYdOpBKazo7x206ep3ROddbDzqYoAk6tFdB\r\nOofhbzpiqaA6sE4hOg/2hTppKTQ6T2aFOm+/ZzqtnYM6VupgOpyoPzqPE5A6TVUyOkJJHjpKNgA7\r\nfJ5TOuL4pzqduyw6mM0oOnHnrTqZMAQ7hPQ/OispFjpe0aY6mBBZOhFDpDo/YyI6uA5TOqMzRzr4\r\n4qM6UASLOn6TTTpK2B86PtsPO2ydZjq4XxE6vLJCOjTPfDrxTGI6XhIeOrWtgTpsxgM6utEyOiZT\r\nGDrwy9Y6yBRhOt0xOTqQB5M68cIMOuxHMzq40+k6tnaQOsjUqDrEis46LrWPOpKZRDoyWRE6Ux8+\r\nOqcvsjpSFmw6IDk9OnvbITrfjAo6bhPeOhmAcjrp38c6Z9tFOjZAgDoqZXo6xAuoOvhiYTrIbU06\r\nxNcnOl8cfjqS+y46SlwOOtREajqm/Yg6NRWKOjnVQTo0o1c6gkYqOvDiujrv8L86YaCjOvK2Azqa\r\n/+Q67+S2OrhIPTpcf5c6EDRqOixxsjq6oJ86ff6POm19ODrfAW46b4VJOnAIhjrwNfE5capSOnqh\r\njjqki5I6P/OiOuycizpVuy06Pi8LOwv6Bzqqjkw6+pUzOuW1TzoTcHQ6BS5ROlYaLDqWOW06Dpol\r\nOugxlDpYzpQ6iGFoOgCOTjq1lkI6d2f/OmZokjqYJoM6ng21Olj4Szq8fmk6PIf8OoAgPTo8CmU6\r\ntSyvOoo6Xjo5tUo67FBMOlwPAzoMCII6zGYhOhTRiDq+VBU69JWUOmeTMjoU3mA6ciaDOsYzeDqr\r\nHiQ67s2JOkM5vjorRgw62TpmOj5aMTrOxsA3kmwoN/XfNTdlJYo4gqANOT6usTg4hY85OhxAOm6B\r\nFTqS8oU5gFqPOFNhHjrv+xo6SdlYOSGL4TnubA05ryf1ONi1UTl/tRE60uYbOsNomTkDxKY5BmbI\r\nOfSUAzpxOFo5GnNgOcF5IDlUyfU4ZGPvOHnAiDglMAc5BwKCOARx0TWTeMA1JtOINY6+QTWTZaM1\r\ntPB6NQvQeDWjjIU1eRY9NdznhjXEdCQ1d8k6NaSbeDVWY4g1YRQtNUdZtDXQgok1DsCLNS0MMjVY\r\nCa81Gp80NXNufjUGMpk1i+aZNShNQTXUBpw1BjYUNW4yKDVRmi41Zgp4NZRifTU13zE1QjWEOM4n\r\nvjjnYMY3znmRNTSUhTegk5w3yQQiOPpBMzjz24o3xhysN79/ije5jNk3NTwVNQa1sDcidE04NeCS\r\nOHHOxThunxQ5Lu4wOSZ2ejg1xxY466mTN3ExlDVG47g37K2ON1xzSziJl0w4wqMgOCssNDkX0Dc5\r\n9yPFOPkAgDduYfM4APtHOZB5BDnEUCU5+PsNOawppzhkusI3DiznNiZZnzefP5M4vYnPOJRpLji7\r\nIRI3H5Q3NyeCczdRmxg3Zj/UNxUSjzfTAbY3Dvq/N9wzvDgK5ys5K174Ns57fDdvVqg3Edq1N7Ll\r\nfzh777Q40xCiOMO7oDe7uew2vN3DNulNejWy89I0bPGONcK3LDW5xzg1Vok4NZQKfDUGRVQ1RWso\r\nNbiZbDVvmaY00q00NUXDiTWACdU0z5LuNANhNTWNGho1Ulb8NC0S+DROnUE1rxGaNE61VzUTOqY1\r\nOmJyNWKGJjXRIGw16PSCNXdwmzU2fjU1IxPJNOB4GTWwr2Y1A3JONc0dMjWm7g417eh+NblWATW+\r\nY5s1ZdcwNcMbRjU+GQA1pIohNVXpcTWslzE1kxUHNXm+ijXm2CE1HroLNUXEMDXEwQc1kp6SNXGC\r\nJDWYyPg0lDFRNeivjTXhuRs19oYZNbsPATW9iwU18MxSNWx8CDV2NHM1HYsINcSHDTW3QgE1CtdX\r\nNXCcDTXhZyI1OsjdNF0lBzW7OMw0f5VmNSiRpzQjGtw0J+AuNYZvIDVlfg41VXikNWroBjX7Qig1\r\n6ArlNPqEuDSNXyA1fBzvNAa73DRF8h81jZ8kNemVCDVC8UY1KyQpNQedgzWkezU1EkkINfhVKjW2\r\nkN00cZbxNOhM0zSL6hQ1bbr1NISncTV2dus0/CqRNYJFEzXRy/c0VhURNTq1IjXicSc1PBsZNZG3\r\nCDVsShE1xObyNLTzHzUR0TU1MszTNLBFGTV/Ggs1PEYJNdg2CzVwkhU1t1gYNZaV1TR/kQM1Pr9D\r\nNVvZATVBYFM1PFBUNQQ7zTTMos41PpX+NLZEhDWD2KY1MagVNZceCTVspRA1CZkuNSC14TQKotM0\r\nYxjvNJTQ3zRPGC81HXHbND6EMDVcpeo0ar0vNWZE/DRiNB01OMdNNYX6LTWT/1g0PfYpNXiIFDUx\r\n4Ro1W/0MNU+fFDVjLzI1syAQNQjUwzT9R/Y0/kInNbvINzWSMyE1dHS5NOCGEzW0cRE1VUsXNYqA\r\nJTW6p9M0VO3SNJ4qvTRtuuY0hz7fNKgnBzXV6IE0z93mNBLyRDVIghQ1ehH/NHpXdzU0wxU1yod6\r\nNT0G/DTEBRc1doKANMEWhDWZbb40MBoUNXInuTSU/6Y1F00bNf05LjV3GP80AAAQNQ==",
                            "noiseTrainingType" : "default"
                          }
                        }
                    ],
                    "start" : 2111,
                    "duration" : 1699,
                    "mediaStart" : 26,
                    "mediaDuration" : 1699,
                    "scalar" : 1,
                    "metadata" : {
                      "WinSubProjectDisplayName" : "",
                      "clipSpeedAttribute" : false
                    },
                    "animationTracks" : {

                    }
                  },
                  {
                    "id" : 89,
                    "_type" : "AMFile",
                    "src" : 5,
                    "trackNumber" : 1,
                    "attributes" : {
                      "ident" : "Aufn. 07-11-19_017",
                      "sampleRate" : 44100,
                      "bitDepth" : 16,
                      "gain" : 1.0,
                      "mixToMono" : true
                    },
                      "channelNumber" : "0,1",
                    "effects" : [
                        {
                          "effectName" : "NoiseReduction",
                          "category" : "categoryAudioEffects",
                          "parameters" : {
                            "denoiserAmount" : 20.0,
                            "denoiserThreshold" : 0.0,
                            "noiseProfile" : "UYiSP6Ykbj4YNBM/izF7PbTYrDzJgz08b4WGPGipDTyvug88QnzsPKtswjtFGdY8wkYQPIquyzs8\r\nfdM6zds1O68PrzoxFjM64qu/OnCUjTrljSE6iBCSOWhnpjneE/E5nUUhOl2Fsznhuvc5wu3uObhG\r\nyjlq4TY5qwQ2OZ6WTDk9P0o5hiF1OQa6HzqwJNI5iBICOkCTFjpgGcI5bGD7ORNOkDl2TV45HZah\r\nOT+3zjkvcFI5pNcwOWvXrDmYudU5giFqOYWHUDlqx7A5MxlwOYKLmzl5hZ45uAJCOX6zajk+Dik6\r\nmiXkOQPeeDnPWhs5Ox+5OOtojTmCzw45piFnOUIkGzkSiV05AsrSOQqh8DgMUTw5VjucOQIBOjlm\r\nWJA50KCfOShbATkAFzo5aOXpOEYNfjlcjI04QuU1Oc+2KjkmkiE5BIkWOeboEjmYrAU531yBOCoz\r\nCTk+ZmE4nBnZOAOAAjls9SU53I/vOJHs8zgU7R85kAMIOdjHojiuvNA4NbzKOJgM+TgFpuA4BFBj\r\nObTv4TkUVIw4O0NkOBSJzTjEeoI5Y3tfOVJPzTgzcyE5JREROdnBfDjQBog4ck3KOPrgJTnvCwE5\r\nHVePOeyVoziNg3w4sND1OJb8Fjg+4/s34xp1OHI6QThrJCk4d4LlNzvJoziKT5U4F0dVOAxM9jh1\r\nVlU4WjTEOCzAsDiVaRo5EOuWOIm8SDnopvo4LP1gOJydMjhpnFM4Kp3oOHPayTj2/HQ4yr7yOCaX\r\nFTnQUW04/p8OOJyzQDiWLr84GamSOADjhDiE3Uo4CR+EOFx5BTjhLjI4LKm8N5Xn9zeL4lk47gZg\r\nOAWHFDhOTVk4ojIGOBLxxTcNAQc42TApONHpGTgKvRw4DFpvOORvJziWF3o4PP8lODqLHDhN5DA4\r\ntWzAN6ssKDjSIKQ3PtNvN+khjjf38Ds3npewN03qvzdoOHE3dEaNNxp4ijfG+Pg3U7SfN1+vpzdJ\r\nRBI304kBODITmzd9OhI3SyyCN8y4RDfn9WQ3KcHWN9sjvTeCOLo3ceqTNybCVzcIRzM3dk1vNwAH\r\nMTcYSNQ3XGPxNygcszeCoYI3BDQJN+ogijdy3HU3pNQ8NyKBIzf8tGE3Hf+kN0gclzfEW2w3vMy9\r\nNztPzDdNRHE3+ZzeN3tzzjd26xA3W78AN0YC1Da6EFk3EV9eN27uQjfSZFw3rCUbN7R92jdIqx43\r\n4oHENkaejzf7Ins3XQ5XN3n/fjf9AIQ3fPGlN01G2jY46BQ3ENZTN2Nt8zZ8ZBA3CdMLN/b3Jze3\r\nQG433stpN5jGuDZjSxk3Xm45N98xFzdNpQI4hE3iNrRHgjcy2Vk3Fg/HN2CDTzd3bGA3iEDiNzld\r\niDeQA4k3gOtuN4COgzfu0hc4Bxw/N4aLhTewaXs361UhN4My/jbheew3tAtfNyYCjTeN6rA2pqGU\r\nN1Z6gzc9D583iWCxN8GmmTiWkXw3rY6zN01nmzcuKyE4xeEcOF3cNziM66o3+K1OOCj6IjeQBPs2\r\n5f2CN6fgijeFF783Qrg5N6A1JDcgKc02IEWMNhUZkzdhPzQ3cMkaN+awwze8Dic3CrSUN61d1TaJ\r\n2Bg3Nc/lN59/kTZ45Bc3V9+2NzzX9DY+FRo3kzwON/bTGTkAWZM4iA5iNykCNDhUcOc3TnsPOMIX\r\nGjiCaBU4MZyMNyj+gjgCjw04Qn1gOGUIhjfcwkE4OB6IOOKxyjjw+Bc3DGBgOBWmnTicgFw42hP1\r\nN+IaMTmvQx04otHZN+PRFzjogiA47+OmN4nGnDhobew3YvEMOIVqETju4Xs3JZw7OLgbYTeSqKY3\r\nGKgEOGGhOjdiThM4QHOFODmHUDdXsDg335fPNsIrgjj4rGc3AgsaOG76xDcTeZM2xBv9NtJEKze/\r\nEPA2UhYcNoCrGjc2bhU3er2LNscQcjebH5I2CUdtNkVVhDZuW6M2FMCENvu5SjZ4Qyw2/NEUN/kM\r\nUDaMQY02/xFsNhLMlDYWOv821CU4N+u8NzZ75GY2/+QZNjjHUzYnFZA29EntNqIcqDY2ygU2Xh5W\r\nNiDNVzYmO4g2W51INh7HxzbGGY82lEa/Nv5KkjaAc0Y2RCZLNtgSXzYb75g2X7mrNuz1xjZD3jk2\r\neFWONszdhTY0a1s257BMNgHjHzaXTCU2mAjBNkMn7zaKm3Q2NfvZNv97SzYNmgc2ft3GNo0xSjb/\r\nZJg2koQmNnRSjDb+QxQ2ffFnNhjjCzbUiyQ2UqHmNQLlCjYJ6xw2iJ0xNmb1IDZMZPg1UvdvNo/c\r\nkzZyfJA2YIsmNjq0gTY/1XY2IvlSNqrmGDYTIuU1y+KBNs6AjDZERSg2nTCMNsBWUjaNm0422F8V\r\nNgBscTYB/x02dtfrNfBeajYyMbg2z+UCNivvBjagwEE2SCK7NuWucjZmhH42U0g8NjdAFjYEbjE2\r\nVruVNubUgTYuoVY2Kxg9Ns3L5DaKMFI2AndSNny6ajaYnmE29eANNiOS+DXYkHw2Fcs0NlbzQTba\r\nrk02yVoONh48VDa2nv41xAsyNn8WdTYIkAc2sBI0NhW4bTZqSxE2bA18NeKZVDUqDic1o4RFNdQt\r\n1TU2RIQ15+BFNRCfwTVudGM1mjVTNZUeIzWrWGg14Gq/NceCIDV9CoE1dFqmNegYizUkws81qGiS\r\nNYoCYTWLmU41u2CbNQArJTXMO3Q1FqAONeYwFDXQ0Us1SkiYNePRdjUvIKE1n9yJNQaNfDUAQDU1\r\nxN05NWK+ZjWcHHw1+vZQNeQBZzVc+dc1foGiNQOK3DUX/SQ1JqY2NRaAFzXmf1E1iD6JNVCuLTUY\r\nm5U1rmNLNfZ2BzXP+YU1Kdu0NZJBVTWMV7I1krslNX/SPDXiZIQ1HyGONdVxITVwvoM19CXWNdEN\r\nPDU8QX41aPdhNVLErDVx7XM14tPiNNcGkTVfw7013rgTNeLwojWcNp81XJhwNayLdDVib7k1Nccs\r\nNfwQIjWE6041OaAINfzAVDVXMZQ1omvnNPV+9jQbI1M1PsqiNfsYVzWOPFQ19DNiNYG67TTHx+A0\r\nKE1QNR7anzVorzg1/D6eNT7L4zU1qYQ1xsoPNk95/TUPV6Q1i/PYNRJgjTUU4pE1OaumNWOTJTXG\r\nrnQ13AOdNa/dQzXif0k1Jpi6NXGUTjUtV3c17/IvNoD51zXpd8o1uFGpNbWrBza6cx02AAIeNtCb\r\nojVi90I1ShHFNV7RhTU674k1bYW2NYSxKjYgjj82mugYNq9wnDUS7kY1jP0SNZKuMDXaBII1aJMX\r\nNap6jTUOBC01RuJGNYDBPjX+wYw1WvRaNZGEQTVViFI1txJgNe9GSTUTp3g1kCnVNVQbGzVT5k81\r\n8vxZNS/0QjWB0UE1OiphNcw8QjVuqVA1x4R1NQr9YDWyIVc1y1GTNSgjTjVu4hI18FSoNcQ8pzV/\r\nrGs1A6tDNUjKjzXqw7M1I99VNasAcDUHCus0hVl6Nf1WhDWtcGM13NZZNTOVVDVisUg1whOENeII\r\niDW1hCY1+2DCNZpNEzYzaCI2LVRPNTJqRTUndp81VGiPNv++KDaXo2w1Psf2NBaBODWdu5M1fK8v\r\nNSqOOjUaT0g1RXWpNUvAITVZ6JQ1TVI4NV6xQzU8mhw1e2FeNh2xgDXUH2Y1AoqyNcwQBDXjlzs1\r\njvBGNcJFITU5g2411qh8NYYsOTXc4PE0jGGFNQ+jOzXDfWI23XWENcYt7DWQjLc1zYp2NSjPRTUs\r\n5us1PNOCNnsmuTZv9mY1dgHMNWyMeTVUY782oRscN9pscTfmTN02z6wxNm9GGjf2i7I2IyV+Npqk\r\nLjbJMvg2qLhKNxlZrTZWB5Y2qhaENjQPqDX8/Qc2T4PMNhB7/jZi7Hg26IUSNs0YVDZEU4g2EY0h\r\nNsuh4zVw4LE29g7eNhyT6jboBz02DDKGNn2BIDXbGfI1DDDxNVD5Aza23yU1ckuMNSiUFzXi7Wo1\r\nmGmMNRGz9TQw3zU1EuwcNewgYTU4lNY1CZ/mNMbwxzSOR/00ckLANGUvZDVG3lI1QHxhNUZIRTWq\r\ny/E00u8GNQ8sdzVP5w01wNCQNbBP2DUsAZk1v88fNeRxSzWH5Us1cpCKNaofmzVWXcY04+46NZsI\r\nTTVnamk16whYNZAZmDV+iuU0nqI0NSYzCTXunWY1snD5NCW2FDXC0yE1qWdeNd9lvDWsMCU1bRYN\r\nNXCnwTRtkxg1rEUuNf2kCDWJZDM1ovBwNUAUZDUrQws1HXJTNechejWTKOY0FkgDNW6IKzW6YmY1\r\n2dI5NbeoJjWwvUQ2/O1vNleHtzY8Lc82IbRhNZy+wTbLsMI2YqqWNteerzaE2pQ2O8ctN6NxHzfW\r\n3n818XiDNtj/eTZG89w2FEiwNrgWijZx5AQ3atAENjVfCDYhke80rcWfNYxq0TYiB5A3ZNdrN3Pg\r\nAzfzbh42G2GVNtkElzbLYmY2L2QXN6gDZDaFbt80I1baNPL0ITWqtVg12HH6NGzomjUUhHM1nwdr\r\nNSncQDVeJrQ1zw0ANd+YMTVZhSc1FxMlNVWgJzVlNKc1RGUpNdDKgTUqcA41D3FCNZBDCjUXyF01\r\nEW2CNaJTKzUhwiY1LEGxNA4V7zTIMFk16yvdNBmGDTXTALY0g8cJNbrnVTXzLh41ZA01NUCLODVm\r\nuDI1L9Y0NR5H6jS8CBI1T9PXNGTKcDVa7401Ckl6NeJkZTVpdR01ScWvNCkjYjWWax4142FiNUv8\r\nLTVAdww1IMMzNVE+mjWMrns1IuhGNfMVjjWO8pM1kj3bNTdPWDU4Mv80WwIANRUlHTVBgzM14a8m\r\nNSLApTXgY2Y248itNivYgTYa4bU1mhhDNVREizXChqc1xssbNtFlVTXXGRY1YGoFNZBZWTYLlYA2\r\nEn8xNopmIzYMWvA1BNUjNaLyADZbhv42VnFmNolCkDVVpuc1CJZkNWzJXjUHGWg1u6SGNYSnBjX/\r\nw/o1gLOqNY9WRTVUC740WHYlNcjZHTX6eFY12XAHNcIGPjW9KB41ULADNQ0GijXNx5Y12MOVNEq+\r\nPTVSMTw1IK5VNfop+TSWSw81VcpmNeZxAzXqfzQ1S1cJNWdeCDV4aR41sVSPNdGMXDVwdyQ1tIWJ\r\nNSrk6zRI6Tk1BEMPNW/XgzV83YI1gASNNXC+2TTAQx01VnEZNbP9YzXLaQQ1tLsLNR1I7jQyp1o1\r\nyIATNZbFYzVIGyY1A2Z6NeuBDzUNBhQ1fdEfNbbnUTXa4m411sdBNZrVYDXR5dA1llkyNfoaEzVq\r\nYlI1BqA1NbMhCTVeWwM1004bNeILDDUWKEs1xd1MNXskKTUli4U1YkEeNTsSATVmxkU1+FrsNW1e\r\n/DSFuiI1kMkCNSZWETXkvBU16ADNNJm2ejVTN8I1/o0tNXNCAzVuwj41Zn45NVGraTUcD1g1xpsL\r\nNQj0azVfEHE1RLDdNNRLCTX0tOg0BR8iNXwMhDXyqNA0pzMQNWb8JjV6OA41CCbZNAAAyDScp8Q8\r\nWf/TOuJjyzorULU6IGybOhIQ0TqySXU6By6LOmh1Szp3mJM6XjGSOoGY+jpdA1Q69SUZOyyUpjpv\r\nukI63B82OuQ6oTpd29g6mWSROhvtKjp2RXY65tunOsICnDoVpC07aAOxOilJCTqGL1g6hhq2OiGe\r\npTpBvn46zKRlOmTCMzpLom46HccKOlPvbzq2zBU6gR3lOo1FijpsT8g6dkEAO8VP2DolQaw6DDnP\r\nOpPBxTotbC06KqSROvaQnzo65KY682vgOp+wUTpw/RM6gPqxOronITrzzWA6zEacOtWONDpIxl86\r\nQjXSOhJDfzpWDVs6QZ9COjrAbzo+HG46Z83hOo3GsjolSa86drYEO0tOqjqOIlc6AWvAOjPIjzry\r\nRJA6DAWLOjR/pTpqhj86roNhOn1Tyjq4yIA6oAwvOqrPvDo6jo46ylyROliBpjpSUXs6BKRpOlFg\r\n7zqOarQ6pPV2OgMUJjoJNUs6uLybOoCPEDrmrH46LsgAOiu07zpFGY06LgwwOlSPojo+2Uo6qBiK\r\nOmaWUTqxahE7vLrDOrY2cjr291c6MgJCOvnhRTpP8YM6cgEKOu3IiTrwux06LlNDOoIXuDnvF6A6\r\nuuApOiVMGzulROM5+BGXOrDtljpSLzY6LM6qOicjKzoKDpA6mD0zOgp3aDqCrFs7p9RvOmFZTTrI\r\noJE6lyxaOrSimTq2Sgg6wviNOjknvzqcM/s6oYmhOuJsPTrj/qA699VnOjFRuzp1y4M6YwaDOu5K\r\n0jqty7Q6poJNOhUQkDq6ZCo6mj5TOnW4YzofHdc6jOgbOmthhzquboM6am6QOmWEQTpNzUA6gV8J\r\nOhhSZzp7Hss6y1iDOvpiUTp8p0E6w5G3OlDsrjqiD6U6pNtTOuVVUjrHBUg6/S8jOvGKFTrniLs6\r\nKJApO3Wlkzow0J06sB7OOrqgwzpCEAw6jJyIOiM+JjoyqF46z36SOhcRijqNrmw6yBATOmvfEDrr\r\nCLQ6aDixOjL+kzqyLno6BPGIOkBk6TlI/pg6d11KOnC2hTrAiaE6Y3svOraHlTrQbrQ6O/57OhbP\r\nVjoKcsg6p1BtOrKpgjrILmg6Lsg0OmaDdzvZ01U6ICpdOotZ7jq25lE6Bg+uOlZuoTpo/Eo6uBdQ\r\nOkLvpjpXh/Y5kMLJOtnSpjrb9oE6xaadOrElKjqoIJ06RHsdOmCgQDo2+M86hY2XOrQxIzsa5pc6\r\nHjIROgu5iTquN4k6+xWqOuTygzpDo1A6JJGBOvjuuDryYlA6iM8aOtrZizpFrQQ7UxwLOp+ajTpF\r\nRD06g/yUOtwAbDp3rMk6N658OpQIizpk9wM6j2JiOoyckDpJsa46OWN0OnOtkzqOYrU6qchdOr5F\r\nWjpXuGw6GMdqOhtJlTrnv+A5O1KdOmbmDzpA+kM6SJOGOl25HzrTZTU68n0LOpqIEjqmzmA6IHqz\r\nOoBqUjqEY6s6CTqdOkgu3Drp9JU67DR9Ouo2SDrAbPI56QEeOk8SwDpCXqg6mjGCOjXFuTokBos6\r\n9TyDOt8FRToVeXY6I2gYOy6GyzpZzp46fjCaOk6jbzoHwkQ6gEmIOq0Mqjqu6oQ6QddWOnamMTrM\r\nCYQ6ofC7OiNADTuuasg6eCU0OguZlzoq5dQ6gMS6OkpaPTozXGs6TdMjOtTyijod2Rg6/Yc8OtoJ\r\nazoSdE46SqCbOnppWTqlUrs6h0ABOxfxbTooMaI66gk6OrxVyzrXqpc6TohkOlUaUjpkkwk6pBEm\r\nOlIfpTp8BrQ6w05ROtcMHDqGkAc6FfOXOiQbWTqkgqQ6tAFzOsTNVzpf6b06FMFEO5tJFTrAmqY6\r\nTvwqOg7hVTqg6Uw69Il7OkUHijoakac6HwOROovUizogkpM6SedfOjnwhDpMNr06Qs0IOkeriDoD\r\nkJQ6KG28OiBMJzogH9M61KlOOjZCGjr2ZLA6FkBtOua3fzpMMec6Uhr/OlQvZjpyOIg6clxpOmpa\r\n0Tm0lsE6ufutOncVhDq0UQs6AgyuOnl3+TlO0r86yC2COqCviTpg0K86aNQQOr4jbDpnf5Y6TMw6\r\nOr8ZhzqPiwQ6xHJuOsjJLzoTJD46YrU6OpbbKDoDF4g64BZSOvVIJzoAY1g6BiRUOmh+izpeMZ46\r\ny4fdOnKmPDo1yIU6UGejOsrpSjrIEJg6ElWoOgipiDog8F46ZgyrOuQnGToOTWQ6LcS2Oq29iTpc\r\n43E6I2G7OjD+mjq8DWM6Ii13OlOaZjp172I6wLFuOohxZzoxuak6fp+GOgNWijqePdU60VxmOmW9\r\ngTrBM446i5hbOjJ5rTryDFU6dcdBOhBpODr+ENA6o0B5OtLgUToNqLs6fCEQOjjHkTqpEmk6NW0Y\r\nOlpALTpb0J86UKuGOuTLpTqX6hc6SxGsOolmtjq3dKY5WAhTOrssrzrDC3M6SNrqOoEroTqOUkQ6\r\nTJW+OlLnMjre7ng66rt/Ov1nJTr3qoY6oau6OmNRhDq6L7g6CU0NOgyUMDqVjK46Xh4oOqaykjrW\r\nytw5AJFROsjQVDocjC86MtNkOhw2tzrJAIo6nVelOldMqznQ7h069tVWOvhdcDosrYE6K6StOsQ5\r\nlzrhgXk6zNd2OtDUlDrjymU60bifOuz2pDo205A68Oj9OUIHXDr9S6U64JR5OiD4VTo60H06dvgd\r\nOpd7vzrNTFI6UHjgOlA8dTqDxQI6xDXtOjsxZjouqL46FLI8OsTxizqxjKs6D7zLOlCfiTpkoyw6\r\nZCPsOqrfRzo6m046juv2OgoWXDq67Io6/QB+OqiLnDoQjOY6oTlNOnzgPDo0vTk66BqMOspC9jqj\r\n7Ao6YH+QOiafozpwVG0649J7OiQsIDqGdFA6RSiEOhhvizoehRA6NmuyOj7knDqzG2M60l9UOsn6\r\nVzq8q8Q6BuS5OryFLDpxCzs6VBXuOc9sFzqV5w867mKWOiqHJDo2hlE6VpccOmAZHTqJTbU6Ej05\r\nOtTfwDpcc6s6wkYrOhJaRTqlWLs6I9eBOshsSjrgpZ86TJ4aOhJxcTrswQ064AWOOgughTosQyM6\r\ntmgKOtTejzoWO1k6kMZcOvYgojoQ2fE5iYuIOlq5YDoy2RY6VRLrOljqwToSLAw61Kc0OruShzo/\r\n8O06piMgOhN1GjpQyRE7LrX8OYAUZTo0kmw6zcdqOkxWbTrGRF06v0VVOtwzLzry00Q6QqN8OmIF\r\nkzraouk6Nf9/OiEcpzqRE5w6iaReOspmKTowXEc6VC4+OnIWajq3vE06hu0ROty+bzoAJ8U6RNV7\r\nOu80KDrpnU46Lh+gOgMiuDpoomc6R6b1OiklEjrgCEw61yfCOkFRIDqiJzM6h+9fOrIotDqX34k6\r\nry2cOhQgDDr8I4w6hR/nOpfimjrBVDs6pIjROhrxWjpDwV46ycGLOkmoiDro6UM6t/FSOrRujTpW\r\n9mM6rfJwOviUUDrPKLU6SaOQOtaEHjoVtkQ6hbwEOnfOSzp0oag6RMFtOvaFETrjWFM6DCudOvGG\r\noDpAmRs60oyVOu0BIjr5pEM6RqirOi+NbTpVKK86cktkObMA9jr7AkY6lAG5OrQQ4jrIGQo6Y7Qw\r\nOsCjVjqgRlk6RabaOcJ5QTooPeo6m1W2OgTwRjotjHE64yVYOqO1jzoHHGo6BJFkOqhyBTpbzIE6\r\nV8VUOl34UTpTY5Q6wU4AOi2AQDqBGmU66Y2UOs1XaDrkm2U6zeFxOj8xLTrQh8U6PonSOtdmozrz\r\nSNY58BnDOqBxcDpfMxs6redMOhQcnzniq8859y+7OFNHZTk6Nsc2YIZQOddWijncZew4Or7MOWIr\r\nJjo+MLA5+sOxODFzuDl73YM5kIJtOP3/RTnIPsQ5kgZMOW0sSTk6HvU4NqAsOKL9Izj/l7Y4qTXK\r\nOJ78wzj0TW84RB2fOXTyGDkK6Vg5xpmdOfnfVDmkp+U5DiVzOGsihTW0Qh41aIeFNc732TVBSY01\r\nnTokNQpzbTXnvWA1YkU5Nbo+ZTV7l4Y1V9QfNdk0MDVwDEM1U+wMNTLHDzUGemc1akoLNbQVcjV/\r\n/U01Z6qJNWjeejV/1Yw1A1WFNZJCdzW1QbE1kl4rNeLquzSYPHQ1JXN5NQaBjzUP3RE1kLDRNbqZ\r\nPzXFEFE1eG8VNXUNLjUKZj01cgkbNYSRKTV5WkM1UjGHNc6AJjW4yhM1F77PNJ9ToTS+0AE1tHIG\r\nNaAsazXrcgI17IKFNLDMJDVqL3o1I89jNXQSATWkbpU1PJx2NVS5BjWtcB41i9vgNL+/PjWCSEY1\r\nJB/8NLw6wDUQPWQ5KoRGOUb2oTi+OQU55wQaOR5hgDkgABQ5lGH7N+iHADhF58g4t94SOVT0izkP\r\nct05NCDTOa6VtzkISIs56szeOK26GDltkCs6/P97OlzVfjkh3eo3mPFSOIvuSzkyjTk5oAeEOLR2\r\nsDiyU5E4DJ4MN7mJXzmjA9g5PkE0OLID6TT+zoQ1bAv3NHz2NjWh7Cg1CFETNWLwAzXYvCA1Kse+\r\nNcdjMTVnPBg1M5YpNc1tKzXL1aw1xkLdNceo9zSy5EU1ipgMNVCdITUtHGY1wsgVNdDOOjWovyk1\r\npi9dNVEVzzRmyUk1fSY9NYTpgjV0WQY14rkeNUHEEzVMoWQ1eLQ+NTbAdzVeFG01RHcTNTps1jQF\r\nbbA0JBIXNX6sKzXWgzo1cnUlNQD0FTXaUUo1nvn0NPCFHTXotSU1Y7QkNXnihDVxqi41UXTaNMBV\r\nVjWUOiE1TUIYNf7+ETVmJec0Ku6pNKEg6TQTPAA19P6tNPrxXzU/3hs1G78RNfggyzgJeiE5YE0f\r\nNo6LSThCtZg5z1I2ORjFiDaWJA04pT0UOYkggTl2IuE4+JifOBrCXjj6mnU57DrmOS68UTlfPoU3\r\nHR4BOKYfjzmMkR067bTtOVPQKjkSWy043Df8ONdrBDmo8j44uaSrOLYvuznh59s5yYMKOqP7VzkE\r\ncSE4w1r7NmYL6DSeYRU1NnXwNKxACjURYis14NL8NFon5jQiYcA0MlzhNKQOLDWJTBk1D5WrNEMY\r\nqDREeRs1k5TnNGL2oDTmp/I0iMJoNJhj8jRf/Mo0CtXVNBzmyzTchwk1A6vlNFM2szREPAc1NbIK\r\nNZxhsDQ1esM0h8eCNV20HDUQFRw1M/UfNRxPKTVRjdI0J1ZrNUlQ9DSh9Ng0mdIfNdFoUTXxKQQ1\r\nJURBNYIs4TSxDb80YuNTNKQ21jSsPHg1UUKgNInGDjWSNMI0tFnbNXOKLzVS3S01HGw6NVqEuzTS\r\n/n80TBcMNbQwJjWk/gU1Lw3xNGilDDU20/A06HDGNOh9KzXjAg41H9CuNEFDvjQ3SKk00EgBNale\r\nIDVaAh01PAgXNXSNlTQVA/40rQ47NLjxATUBKrA0YzDJNEzjujTsclM1lN3HNNLatDTMFSs1xMGU\r\nNIOSEzW2c281/qd7NRrk5jQNHMU0Xh4UNQca8zTYQBs1KEHQNH6TLDUgpM40AAApNQ==",
                            "noiseTrainingType" : "default"
                          }
                        }
                    ],
                    "start" : 3810,
                    "duration" : 1055,
                    "mediaStart" : 53,
                    "mediaDuration" : 1055,
                    "scalar" : 1,
                    "metadata" : {
                      "WinSubProjectDisplayName" : "",
                      "clipSpeedAttribute" : false
                    },
                    "animationTracks" : {

                    }
                  },
                  {
                    "id" : 90,
                    "_type" : "AMFile",
                    "src" : 6,
                    "trackNumber" : 1,
                    "attributes" : {
                      "ident" : "Aufn. 07-11-19_023",
                      "sampleRate" : 44100,
                      "bitDepth" : 16,
                      "gain" : 1.0,
                      "mixToMono" : true
                    },
                      "channelNumber" : "0,1",
                    "effects" : [
                        {
                          "effectName" : "NoiseReduction",
                          "category" : "categoryAudioEffects",
                          "parameters" : {
                            "denoiserAmount" : 20.0,
                            "denoiserThreshold" : 0.0,
                            "noiseProfile" : "R0KWP6C+Cj/ayH8/PqkNPuWUEz1X6nw85zvIPCrCBzwOb8k7QLEyPFzmvjsCB4k7wwi/O6XzmDsK\r\nMQk7RUR2OkT3nzp3PC06miv3OhA/gTqQiRQ6kAM1OqlvUzoYdhc6FLqhOQWpLTqpKfg5AqfYOczd\r\nxzmrM3w5/VaAOQzmrTmZExU6eJRsOWampzmsmZE5vOYVOtrqDzpHd1k5BUQtOe4UkTkadTY5roPK\r\nOQ7zDjn5HYs5Jw1MOZUVgznIz1c5uLmFOXqFlzk+pWo5Mnx4OYLmqDnYD5U5wdZOOTPrlTlkR705\r\n81I9OW54oDlv3PM4PAp+OXQjCjrFRPw442tROdnnajnwjBo5kk08OegQxDlfv7M4HrXNOSRwiDkg\r\nOzY51sU5OXYxDzm2P5I5obxSOVhzJjlm7Rg5bM1YOW6ygjlmVHA51Z63OMmaAzmot8c4ugClOHmJ\r\nMjl1taU4YtfBOHCEKThmPzY5H+L1OHpU8TiBp4w46moWOeLN2zhr8484SffFOQI/JjmWris52EkN\r\nOW4SwTnPlqg5o8w+OSf+CzlQCmc58p4+OWDQrTnknoU5uvUVOWwPnThv4fQ4jFiHOMdEAzkNFog4\r\nSOoLOUA8cjgk+I04OrLPOGYvgDg0mBU41/uAOIjlzjcXQfQ3ZDcJOESnWTiIuYY4H5x+OF4jVTjg\r\nFg44vgZ/ONsphjiAyqw3r/QmOMpZ5DePxco3jDnnN32QIDg6xAA46gPEOIE+ijjbzQg42cdKOMkh\r\nEzjz/vo3BVsKOCJOBDinDuc4UzkhOLK+TDhmmDQ4DKwoONb8tjdAu0s4+fWKN/axBDiGRCw44lHh\r\nNw9LojeqLEA4ZfIDOK8IiTh1Jxg4Cwk9OAweuzePzzM42NpON+fTTzgSUuc3kS6OOBayTjgFUhQ5\r\nRiz+ODJfzjjg94M4t0IFOLjlLjheoKg4HwYxOYaTKznW2q84u/kZOSW/lDiimt44a5A1OWSj4Tgj\r\nkq04OtoSOUS5kjgzkGc4SLfTONTBBjnuiGc4oMUdOBzR3zeQcqY3MT7bN3OplzfsQW03CpBJOKuS\r\nRDhy9cU3AmHMN2kChzebGdg3oZrlN+9D2jcBDSQ3cphDN4d+sDcbskM3MRV2NwAbtTfBLXw3ZcmA\r\nN0ijCjiJg1I3KDDyN2S1Gzdq4t030IRuN3IjKTccoXw3jMaMN9BG9zfSv4s3Z9UwN89bqzcaLDM3\r\nHEeEN6wUrTe/jFY3qiOHN00DJDhKs2431E1dN9utFzdFn7w3+f+GN9dhAjgZBMI367O/N0xvYzdA\r\nRS04bwoSOAhzrzckOoE3r2e0N74oDzfhXII3HXkPOG6cqDc958E3JB0UOI6ACTeZ5YM3ms16N0p3\r\nPTeM6hM3LgkZNylNWTcG8oY3v0srN0u3HjfujYw3GgxNN4K0mjf9yqk3hb/CNzLWjzccLF83gfKX\r\nNyp2PTew6fY2wzuWN5+grzd/Ui43RQUVN3BZWjefZoQ3QiG6N4iNCTjQWDQ4BZCIOKjDTjjEK0k4\r\n5NZAOPBv/DcOlwM4HOkiOPpdCThy3P83mTfjN2joGTiVidc3ZpiVNwTeLTgMbmo4xrLsN6X8GTgm\r\nWj04zFprOETJEjj5cIY4OCHIOC9YwDh0iQk4Fi2XODRRYDgWryM4O+2VN1wxOTi3N/M38dIKN6C/\r\nTzcbXSw3UKq0NweoIThYF4k3VYwjOL62CThjbiM3EC+BN4oCjzdbYFM3guSGN2QtJzhytP03kg2N\r\nNwpJZjcKqFI3UHFLN3SeKDdGy2w3WvgCN/kvwzd2fII3S7c5N2NTPjiyXzA3yPlkN7wCxDfKxnM3\r\nJhWxNq96ITfyJqY3KIBxN/AlgTeSvI43iwVZN/xEHjcnO5k3aqgFONCPgDe6/jQ3oOZrNxYe1zeE\r\n45c3QhGwN/oRCDjc8Uo4moMGODj7ljftY/M3yXbLN8JN4DeOKxk4tOUtOHOLOTiUP+s3m3xDN/LC\r\nVTciIAY3HR4nN797KTfcFdE2rOokNzwN7jbeiLo2F8cwN9hkizfKFQM3PCkVNwSb1zY0ohs3cWUt\r\nNzjIrTY40f42KwANN38ZIzdtlUY37ZCyN5awCTcwMfc245vBNlQnyjZqoU83KqwbNxmDvjbngPU2\r\n41KoNsDitzbF2oU38MkxN1Ay/DYKFio2QRqLNumkvzacV/k2SM7ANuVk/TbMVis3WXltNkeePjes\r\nHPo2/ia2NjwEcTa1VL82jPWpNgIPEzcsxEo3k27hNg1PBjeCZk43iur6NpQ4AjcXYeA29kSUNlnn\r\nyDb63ho3LfysNlowkDaMpsY2Z1upNiUBqjatCxU3vW6WN1K7BjfkzTI3ce+YNkkWejcBISg3QBt6\r\nN5RbeTeS4i03IMLUNqWMqTYLkTQ3PEbwN4L7kDf0/pI3aRXkNtVHnDYswBg3kqZ1NygwgzdiZLc2\r\nmRkVN09UBDZK/xY3Ew7ZNl6k3jY2Ay03NERrN+tppDbkGaQ2MyMZN3R7jjf6BOQ22t9aN4aftja8\r\nHg0357Y8N1C1izfjYpI3lgZhN4otSjdSJZ43ZrBfN3/9hDfyq6k3EnCyNyYkWjcdI243hfpUN1uX\r\nozdL4Ss3ZSY0N34ajjdomoA3+1UpN9oEDTebX842VD+uN9YNDzdngiE30SFJNwBHFDerkpM2AKYE\r\nN2CjWzfoXIk3WltkNzl5rzeT4o83SRrNNtZbPjdYsYg2WjErN8QJHjdARKI36wwhN9ObkzYARBk3\r\n0ooPOOw1qze7rNI2COiINyEaOTcHrpQ3XK/BNu5TGzc/3Qg3c0ekNhvahTbWFGU3dogON6hv+DYc\r\nKe42SxZUN/SJiTYX5842l3f9Nu6ZbTb6YXg2yAfhNtVZGzf0Vgw3Sg5oNpgYKDdKRSI34hxKNigW\r\n6TYNlDE3xEGjNjHpeDb/MvI2PnuMNjtHLjeVTSE3J+lmN2pOHzd+RNo2vBKTNlWILTeuqrA2f+Wo\r\nNvh4ijaOiDE3HFJBN9LRBDe56RY3TEM+Nzo8CzdhdM42H/OSNwAYDzckDaE2fTwONytApzdSTZQ3\r\n3MUBNxsKzDe+bmw3euvKNiseuzYJzlY3aoQmN9eHWTaZCPc1GgrSNZuZ2jXpE0Y2ylnENi+qfDb4\r\n4c81uzLlNQkX2zXrZbE1Ps+3NR9w6DUlUPg1ho3kNRM5QzbuPuw1wzNkNt7CJTbpfjA2fnoaNqyQ\r\nUzbemjw2DW6jNiyA0DX/tMo2w0EmNhussDUodrE1hI84NvcTSDYhLlM2L04+Nc66zDWOkqs10V6u\r\nNQjzTTUgwMk15nBeNVKUszV9goU1LgyQNecXyDUJ2YI1CRjENTgEqTVAA101X7bHNdl5mzU3YZ41\r\nigybNTcXnjVgbZY1RAkNNqaKqDWouOU1kIqaNbvMvTUInbo10vJnNRruqDVmvy41KlxdNbd0XzXV\r\nZqk1ngOfNXaGkzX+GJU1TZ0qNQ+0UzUJeqQ1cSWWNUBg8zXuuME189s7NaRRVDW4u5o1+jqkNRrr\r\ncjW5kMc1gPOUNSsamTWzSk41VcmRNVGBaDXbDas1UGqRNf6DrzV85qM1i0yTNW42ZTWzK9Q1lein\r\nNe2zizVZj4Y1jrd9NT4ZJjUuYZE19IiLNQujtTUs42Q1zKj5Nd5bQzUSD601400cNaNQfTWQrYI1\r\nPOf0NXbJUDUSCkk1IYF4Nb/iszX8EYQ1afKFNbrpIDVefc01ery+NeNzwDXjYpg1ICe9NS0FlzWG\r\nSPA1FK2tNbdfdTWkl001yQmVNRzgiTXFqFc3j3PdN3Y9lThE4Ic47EsJN7HcZTdchdM3tQ0RNgg4\r\nBTeyXtE3EBz0N65LujeLn6w3bebtN5wLVDhmD9c4hAuGN0wUvzaE8aQ2Fc/TNyUssjhTgEY4wDsw\r\nOHLqNDgjcw85Af1XORcnXzgdwIE3d8BXNzhSpjdD06M4wozAOEdM2zUHAc41hRWbNcVQMDY33DA2\r\nzuHZNi2VvDbxZKo2g/YBN8TpbDbfl182hes4NhSDRDYFVRY2qOdCNq8D9zVPnbk1QA6FNYwrgTWT\r\nAFQ1wD/INQuLwjWmrLI15TpvNWsxazWUvlU1FCOoNdNFCjYKZZ82OSIONjxFjjZk3yA37lxjNjNQ\r\nLTUcYcc1xhydNa8XaDW6LTc1KnyKNXJ8WDU3uoY1Mr2KNdG2yDVGY401KbFaNbUFpjW5k4Q1tfmG\r\nNZSOqzUlPIw1dz3XNQFJSTWhWrE1lgaKNRZ52TVefVw13K83NUSPpDWMn4Q1xJZzNdl5lzUG8QI1\r\nYOeHNadilzWV/601B5PnNeifWzYp8w02oamnNo47Ajex5Qg3GfdFNluluTax1mE3yeihN9bvSTf/\r\nCVk1z6jLNZK6hDWyYKU17iXrNbYxhzXuB3M2a3iKNh79pjZwFys3C57SNu2xYDU5HDI2qZ4lNqaY\r\naTU+IH81ShG5NXKFlTVluik2C+CBNTsLTjaIf2U2VLGENm2OqjVJpmE2m7MsNsh9iDVlkF41Ybjw\r\nNZesKjb+rgg2xxiBNQhoWjVObz422FrbNqNwjTWs8JI1oRuUNaMWMzXaCH02vE9pNvY5gzV4Hhg2\r\nNBzWNZ5VhTb57DU1t0zSNYvomjZuHyA3XkLqNowE5TUnyL4211iyNuLuVTVWnoQ1x71SNeOLpjUz\r\nrnQ1YDVlNRCNRDU8xmg104gYNYcSUDUXXWI1pmGqNVTpLTUm7lI1wFMZNaMipDVQgYs1sJOCNR16\r\nSzV35Zk1ZoFwNQrLoTV9wI81BqygNUIa2DXJ6Eg1ambdNLI7djVjVBo13weINae/JDWJtng1nO1O\r\nNYcApTXJMxE14AmUNTiHQDUM/z01H11sNehdIDUakE41hmakNW2VPDW623o1ALhUNVxGdTXiZKQ1\r\nbnI0Nc4TCjW9iu41qKAXNWy9JjXWDYc1r1g3NdK9dTVH8kA19y0+Ne3fhzXkcAI1lNJJNTYIPTWP\r\nHmI1E0GCNWHXsjW+SKs1ZBkrNfRccTWTcWY1mt46NXq/2jTcrxY2FNGmNfFvFzV2B/01JuVNNVDb\r\nezUP9FI1GoqENZ62MTV0CMA12LJwNUQ8jzWHjY41PaTrNd8jODV+1kg1gsKLNa+/ozX+F6o1mWen\r\nNf9KzzSqqTw14NKcNbEYgDU68341gj7fNU9DZDUCizE1pLFPNXzQXDUb/BU1wZ/nNMy3EDW8WEY1\r\nxK+HNf49jjUheiM1iEqiNTjTgTUaMeo1wNsBNfk50zXRvAk1HzuANf+jFDUSi5A1xjxLNUIJgzUK\r\n9141qgheNdrIEzUdTMI1Yla8NfLVFjX+Zmo1CtXDNdbbXzXT+Ko1ymaCNYc7mTWP5QQ12ctlNX2v\r\nfjWcT5A1X3MlNUGxcTXxcmQ1u1a1NRFxdTVNDqc1a0QKNZVkXTWcrpk1GG+UNVqKdzV9OZ81BiJM\r\nNfNrVTXsXV01niN4Ncov3TTINrw1Y8OENRDLWDX8pqA1wBX9NNnqXTWrMFs1T31INQAgqzX8EKc9\r\nfnY+OjfqRjpzvAg6czOyOue9iTrJiYQ6CpFtOhwJgzosepY6MqGOOnT2PDrxb586BAF6OktVqjqt\r\nSIE6zZi/OtE4KzqMdH46GrleOviTqDq+hnU6TBqVOuqyRTp4S4869vbBOh+pnjp4aw46jh+iOpts\r\n4TqkeIU6DDRqOg2pGTumBYw6RiopOkrTVTo4ALA6oPtXOr7AXDpnd/06VP+MOq+udzp60FQ6jOKI\r\nOtDngzriGOI6pvcuOx9d0zqSbIo6bq28OudbmDpBpwc7TX2WOllakjq1MFk6+nJLOoeGGDpJ6zI6\r\njVWDOrq9sTpGeqA6KriBOun6UDvK7KQ6IraiOkt3lDrH8KI63Dc8OiJqYDr4WSo6z4G+OvrsEjrN\r\nkIE6w2JqOocpjjr4wNE6uaEbO0KJZjpHilI6ntMiOkgUvTqCwoQ6bZqSOsbnkjrEs6s6DG6/OiuS\r\nPjpiAu85uSkCO5afZzpSWtU6iOHHOg8a5TpUQZg61wPIOir2RjqjtbM6zsBEOqzxSTp3StA5UdSW\r\nOr0NnzqIsGU6lXmmOu4OiDo0JaE6fBYcOrDhrDqdAFA66ANoOuzpWDo5fZU65/iLOtIgejoJMwE6\r\ngPeIOhUuUzo2S+g66lSMOiHDrDq4jxU63RqIOvS4yjobPzM6WXx3OjhbPTqX5XA6fBwAOwgSbjru\r\nXxg6QiZDOv+8gzoxNxE6Ig34OetEajpZap86pKxJOuuz1zpMpXg64PSBOt/JkTrXAR86rZEmOpC2\r\nPzp/u7A6gxwlOipElDonioQ6W0w5OkGAUDpW30s6OvicOsKmUDoBdE46BG2KOg5nhTqID7Y6g85/\r\nOrlblzq/NpE6gJVpOtSLiDoFPyI7oj2QOuA3HDpTThg644GwOk4DGDr4FF06xypLOlK1bTpytfU6\r\ntJVZOrSuMjpCYGA6egfzOnGKmDob0XI6t2QKO0DcgTombpk6HDy3OsYkhzocCmc6flqrOuSzzToM\r\nYew6QaBdOkvpjzoWtfc6/XxEOva9HTrwpGg6Re2qOuxowjq2e2g6jO9+OpbqkTr4uTY6bMLxOnJg\r\n7zpzJoc6py1+OtdP4Tr2PIQ6/UpXOu8rmjrqhcg6RJE4OoP6sDpyEzc6aQqrOvb/AjsBUJ06GlRa\r\nOlOELjrPP5o6R0OGOpBXLTrdCVU6WY2kOhpMYTrmbLc6Yr5wOmP4Uzqj26Q6pAL7OmRAqTqiv1s6\r\nXKNqOryJrzop6Ho6+IGsOoa6ADvOn6s62lt6Or2bkDp4mh87p0KDOoJ4oDr7Gxk6O7/jOmmhczoh\r\nYts6SDGcOu+ALDugIjM6uPSZOqZzAjr3wMI6zWt6OoMCJzqSp5g6FoQHOlwjfzpZYWk65nJvOi4k\r\nczpFCH06MjuYOlqpqjqr0Iw6kFDjOhuvoTpxIhM64KaZOq8eLDqrwkE6I5k3OvYxojowrHU65sOm\r\nOklnmjpo/lU64Nm/OqLUrjkeDo46QGAnO9/5dzok1ZM6/7GNOquGXDqNb1s6OSmAOtmLQjp8dFw6\r\ncKNwOgJoATsC+2Q6hVaTOqqSkDoIu4c6LogkOnYfRjo+0gQ6oi6eOsMxHDrhU6063NSjOo4ggDp9\r\nvsY6ofgZOpazizrh1qc6ToiHOsHTZjpM1HA6eIkyOrmpqzodmh06WN9NOnTTzjoyqWM6BJJEOvhR\r\nlDpSDoA6MZt4OuVEVzpLe5w6DtxIOnoamTqU4EA6yUtMOmgKQToTpWU6H1NcOs6iKTr1R5A69FiF\r\nOoCwhjpEzGM6H3BFOhythzqkqrg6G3KIOvjsYzqknds6paLeOuZGGzpgG9g6qDaROtk0izo+f/45\r\n4DWSOkTR2Tor/JQ6b/O7OgYNHDpZB7g6HuqBOvZbnzotuIc6Yh4lOkdisTrONE46ZAZ1OlosdToh\r\n2Zo6qzyaOuK9BjrNTYA6SdeGOph5yzpkAtM6/uCjOlHAbjqhU1s6x9yIOr04Nzq0myw6EMGdOiaw\r\nfDqaVyY66upSOoRdgDpsMoQ6aP9FOsbWRDohow47TtKDOphKMjrlEag6WOjTOuPYWDqF14I6iinF\r\nOk74FjrDeo06lIBCOqgGDjomJQo6tP/zOrxFnjqn2i86d/P0ORXv1jrkVBM6fgQYOtsHpzqfVZ06\r\nBl94OtcogjoxiA46fHsXOuWlRDpZhoE6EPJgOkCnXDq5cVs6gV1COnNY/jq6lsA6QzQlOoLijDrg\r\nM4A65F7UOjsqFDpzr506J70lOhAR1jmr3hc6ENU8OpDsmzqQMXk6hGSeOpARgjr2C0s6GG9WOnjg\r\nrDpywiI6ArEROiKebTq9lV469qiUOtxvhDrcZmY6EDGdOtF+cDqjiYs6cKijOsTufTrLvyA6VIQJ\r\nOj++xjpDTvk5/jQUOrtAhTrns506tjU4OpXGcjpy11c6aKk2OtJ3jjrBBZE6Hz6ROhznQzrVIIg6\r\ntbJVOnb2STrI/oM659wpOiTsQzqM7XA65mdAOk6QDTokDXA6mTp1Ou4toTqtFHg6QeCAOqKoRzqb\r\nE1k6/swzOjL/uTqEYmU6zgCOOhSDpzpXeog6wOuGOpiRYjoLWaE6F3SXOncBtzoStJ06ggNrOkLk\r\nuToUqXM69quYOstBKjrgJ346Uhe9OkoxJzowmzU6jiBvOvz6RTpTnoI6YzyMOmWgUjqhzX46fsek\r\nOo6i8jpmWWE6519oOnGnkDrUSK06S1w9OltGPTr3lGI6iG2DOrpsMTonD486NbxIOkBGMDoTXSA6\r\ntAI3O5KT0To2jmM6JhfVOkBipzrArrs6BsJ/OiypGDryVDo6dguVOvIhXjrxaq86TuZAOgm2bDqY\r\nRXk6jI3DOl4crjovXTE6RMi1Oizf2zohbGk6Lqi8Or62RTps1II6jkaCOoxwSDo3dNY6f0xtOkZP\r\n3zqjm4M6kvZ8On/SYzqZ6SY6Dr+oOjqFhjpWyAg65qOBOro3rTrVMGk62lqtOkoYlDo7fiA6sZZH\r\nOu6ZITrOz486h64JOq2i5Drp83Q6/DUAOhTSejoirmk6mteHOrE2KzoglYg6jZiKOoPrjjq8H5Q6\r\n6ieBOsR2IzpKrH86xH52OiOyDTpiJio6CuxlOjv4Ajr2oHg6HyVgOrZvXDoNH5Y68+pXOoOKizr1\r\n9hw6KyUFOxu8nTrMol06dPwQOgxlTToI+JM62jQoOqvmCTovpSw6rj3SOnptIjqyxAQ6sHgjOv8C\r\nvjqJFW46/6jlOgwOQTp3kww6+w64Oh9iaTqi4ic6rtpTOjwMWjoHwh46vX2VOmxfHTo58f85yl7d\r\nOolkeDrK7lk6f2SOOuZ+BDsezVY64rFoOteYkjrmapY6i2LUOqBmszq3iNc64IuPOo7vmzpbHkU6\r\ns2jJOkGznDqkcnc6BSrkOgfeZDqGgX46n693OrkQizqWTnw6EDwsOh/VOjoKWuE6VKGSOr0MwTrp\r\niMw6vBSEOqCyczqMNPU51gFBOpLERjoYubw6qKIjOiKnODrB9cY612FxOmsnsjpKtWE6yfKlOkjI\r\nwjp2XkI6KH27Opx1rTrxjqc6+PWqOsocIzqansA61jeFOqhGtzqtpy86T05iOsv8Sjp0XYU6jWBD\r\nOujvxjpVv4A61H6mOkSzNDp2yqI62q51Or2VvDmTPnU6FZJ4OhmumjprbII6x8eIOgt7JzrNNnY6\r\ne2uIOqZAVzosD106pej4OgJn2Tp48cM6UqqVOtd0iDqbEnI6ddxAOukabDqVKVM6QXs8OhwKizrq\r\nU2I60hBVOsZ5UDr0NRg6OjNsOl0rKzq4IHc6T7/XOdiNPjlcHOQ5CgoaOmMWFDqlH3058qvnOHFU\r\nNzigyos5y4kNOmOQ7zgxrds4RV6HOUPPgTlHXzc5j30lOgptGTrj91s57mzvOLrU5zhZem44r6MD\r\nOXcMMjnuU205B9mSOcDhCjoieA46GgE0OoKLczmoyds5cBiTOfhcJDgxnQk3PfUrON5jYTjdSxw5\r\ngHv6OAQd/jhWWLc5CfvVOKoglDmhlek5PPQaOcTcezkTdxk6v13EOZ7RHzj6TQM5qMR6OSgrVDni\r\nZpo4h3WcOOJNHDmV6OM5AllNOv4PyzlHjq85GyvKOTp+BTnAI5o4p12YOeEHwDkyXAU547W0NaCj\r\nnzXfnfA1tXWYNVILsjVEv+g1QdOMNS/zmjX8FMg1mEkmNkxrxDW8+NU1A8sANraCzjXwpas1Uby3\r\nNRvx0jXwlwU24v9GNrEr1DXw6Rk28UcJNmDNFzZTyxc2xu42NkyQCDYIPBA2Po2ENlySZTYB40w2\r\nCSxQNtHKMzb/TyU2nYBjOK1JbTnvDQg6IkbeOUxCezm/VW85yo9mOcS6CDlCCQw678DGOYbSnDgM\r\n3OQ4PKSsOBN3MTjvviA5fJdROSmOajbUBkU5P5whObR9WznIya45EkqJOMDMjjjYB4Q4Tp+wOFi5\r\nNTk2+ug5I7fPOfguhjnBTDk5i9woOXSnUjlcoSA5J4WiOMrkzDgzlF448OlgOI8Gqji+Pvs4uXJx\r\nOjh2HjrqYew3QquiNoV2GzjHiw04EfzFOOi84DjqtUM4UcFpOFl8HTk6NOc5mNSjOXi9gTgEf1c5\r\njgsQOQ8LIDj9BqA4X+/PORRXuDl6xQ45OSIoOctlszhTsp44txeqNVcw7zWn0Qk2Nyj5NXsa8TVb\r\njCc2qBKvNdegKDZebgI2Z9w9NgBXKTYBcNY1MTfoNe36AzbDr6A1GTUKNnPZ0jUEWgE2wenSNShN\r\npzUL9hs2yKiDNoghpDVathU2ktZmNacHpTV4Brc1jpCmNfO76TWkyw42k+hnNdYhfDYkEpY10GaY\r\nNZj3bTVgVIY1aTppNToNhzUpQLo13ajiNZae1DViWS02WCeUNblIojWtzZQ1ihCyNSTfsDUc4Jw1\r\nk9eCNdOcmjXVYNk1FT5xNQC5ljWBvNI1e8ChNfJnIDURQ3Q1+caUNZCpDjZxT4s1VZ5TNXQOMDU/\r\nxh01QYquNc0qKDXb1Us1wc+NNTXI2zUYpHE1FR45NcgcvTVa0cY1dJByNdhinjVMtmw1F1Z0NeQf\r\nVTVepDk10PBxNZE/hTX9Glg1520FNbF6fTW8zS418LxgNfwEfzVWexY1/rKBNSVV9jQjU1I1Q1Il\r\nNdDX/jT8T4Y1X3FRNeBXJjV6gSE1eV1VNYvXjTUvzUc1Y6n1NIJyYDUnp481N9vbNE1KbDU3+cU1\r\nL/IjNS6UqDXcHoY1jN3mNEztTzXzmC81I4SCNRRWBTUJMJw1rGIPNSn1QzU8sD811kVMNbpzuTSQ\r\n3qc1MvaKNf65PDXqvUs1UoSINfv2gzXrhBg1NiHTNJpqWDVjBYA1PD2mNVXLWzWAhbY1gtMoNTCj\r\n2zR3zdQ0E/cSNRXHcTUaFHA1lhpmNe8/eDU0oQY1ynksNQmmEzVgQzI1dlV2NW/tkjU7YFI1s5bL\r\nNTR1IjVSRkU1pGwhNcmIQjVV7EA1ZfoNNZJ7CTWaHEc1TbhENX05lDXD3pE1AADINA==",
                            "noiseTrainingType" : "default"
                          }
                        }
                    ],
                    "start" : 4865,
                    "duration" : 886,
                    "mediaStart" : 31,
                    "mediaDuration" : 886,
                    "scalar" : 1,
                    "metadata" : {
                      "WinSubProjectDisplayName" : "",
                      "clipSpeedAttribute" : false
                    },
                    "animationTracks" : {

                    }
                  },
                  {
                    "id" : 91,
                    "_type" : "AMFile",
                    "src" : 8,
                    "trackNumber" : 1,
                    "attributes" : {
                      "ident" : "Aufn. 07-11-19_027",
                      "sampleRate" : 44100,
                      "bitDepth" : 16,
                      "gain" : 1.0,
                      "mixToMono" : true
                    },
                      "channelNumber" : "0,1",
                    "effects" : [
                        {
                          "effectName" : "NoiseReduction",
                          "category" : "categoryAudioEffects",
                          "parameters" : {
                            "denoiserAmount" : 20.0,
                            "denoiserThreshold" : 0.0,
                            "noiseProfile" : "PjhOQECwRz5Eakg/RKrwPZATKz2GKYI8tQ2IPK0o5jsIufM7NpEEPMmLjjtunJk7DM+dOzyxPzvz\r\n7kk7gc3qOuZZSjsrDjI6hR6sOpTGXjoaPSk6KW4SOpxYLDrhWpc62peUOtwH+TpEfEw6Yz25OUCl\r\nwTkvEbE5bHChOX9AwTmQlP45+qmBOYpKszmzkdQ6RZ6bOymTwjsBGwE8rpg1PEoAujsjbUc8eJQt\r\nPLkDPzxCox480ZKbOzCXKzvbezM7Ggk3OyIjAjsGGoU5mqGNOsaAQDqS0M46fGdXObgdBDmVm/I5\r\n0m50OpAr6TkaYmI5PuUMOpk9tjkI1ZI5m9AtOZyR9DkGoHc5VOzQOnJDbjqIFD46BpOAOujkyTpI\r\ntYI6xq9BOvJnCDqSREQ6sFrzOXkAnTlC6B45U9W9OCZzIzn+NRE5ux1DOW5wqjmhFHw5JMtPOctU\r\nXDlaJSs5mq6rOGuGCjlw24U5/SYdORMYxzjtNak4fdrzODaAmzhNLb44ioUEOSfUVDnSV8o4C0iQ\r\nOTDXajpAhVY6hwvbOGu6Mzmnpy85gHRMOS28kTj0+eo4iB9FOWJ2rjhi+xg5Fp2JOXbj/Dnsoaw5\r\nJP+HOeZlEDrhqR061gzNObT1yzlMd4A5VvDqOVTNRzn/SLk5nZQ2OTIeRjkQgSs5ybCbOYZLVDlS\r\ncgI5urQVOJChSTgKAWQ4RjCCOBil5TchChI4KCu3OFDD3jf/ayo4YhOiOLpqEDgZ/gU4qFcMOIdg\r\nBzhetq03WOEjOKf+EzigeUY4DLl7OCQRAzgGdmo4XS3xN2qTpTf6NJM3sNq1N//DGzhS6x84FEJx\r\nOONTHziTDTg4A1rsN0XnADgAec834jmmNx6Z0DfXb7w32pOBNwegrzfk9ZY3tNf8N/Ke5zdGMuc3\r\nyaeNN3Q2lTcSDlw3YsHWN3hDuTf8WzA47e2iN4KvLTgW+2A3wSW4N69rKDjOl243BgqsNz2iqze/\r\nOeE30fcSOHAFhjfsoKE35JtzN1DcwDc+qPo237S8N1GfhjdtfWY4aleAN9R4izeHOks34gsMOLN2\r\n+TcIxf04v/NKOFtPcjdKyIQ39edjNwwQSjcAvN43lOtrNyd6WDeKbxs3Y5WCN9OHDjd7wFY3Waoy\r\nN8sIRzfUxVA3ZKR/N/lgAzht2Vo3YDyCN/txNjc0PmM3HJQsOJci9DgvDE45yozpOT4PBDo2XSE6\r\npD8hOt7/PTq46SA6bnHxOQ+TCTqGMyA6XP0JOmqu+znazZA56zi2OXVftjlamag5tQqGOdNHcDnw\r\nxEk5jncPOQoRkDhisfI3aHTeOMkyqjhWwTY4q6h8OIvXhzha95U4frrdOBTsDjmp0QE5WmZbOeJd\r\nYTnz+XQ5oOVxOai0hTkAsMc5PSzQOW3cBjr4UMw5oWGjOR/0BDqub+05e6mtOfclWzny2oc5HB9B\r\nOdBapjir2NM4RkoFOeAn1jhgI4Q42BprOACkNDdAcSI3VrgyN73/1jYF9OU2/k3yNqJdgzcz42c3\r\nCP0vN55xkTb5teE2q4gpN2gD9DeBofg321ffNoLqvTZ4zbY2nRPBN3aCZzfxOY43x2yDNzoVADeu\r\nZOo2aTGsN/QEFjjj8gY4XXYFODDSHjhA8Kc3fPzJN4WqTTg1D9g3xUC9OBAXyzj13Ko4OrOnOL4E\r\nmjg7JY045EJqOKtQ2jcPHr039RAWOMYyvDf8rxw3tHyIN0ONTzdVDuA2dPFPNxrUaTY+PDo3Cty6\r\nNvN/JTcIDlU2n1K4NhuBbTb4n6w2kJXBNkHWUTb/Y9o2Ga25Ng7xzzaGs0Y26lHSNpbUzzZ4w5E2\r\npdaPNq6QojaWOcY2ZD+lNlmZvzaasw03cPOiNlM1iTbh7Zg2lRW3NuAo3DbJUwg3QiqSNl8R1Ta8\r\nKhA3ZDy3NjArujZqzoU2FWqsNmiJjTZE/xY2lxKWNieiojaHobY25CTONkMsNzYpVdo2ODkBN2BJ\r\npTbnogs3FxFTNy5L3jeAseA3IeDUN5b8KTi5zAo49DuwN14ncTcwhoM32RIYN1LQJjcbO342tCjW\r\nNyeuRzfNEAY4mkPyN0iNlThPP404EcmFOAybDjnJsBQ5rVsFOW1gITlAtx45bkHVOHQ2rThSge04\r\nORm4OPilvzhdPZk4V19hOEGhCDhOVaI3PpucN4Bu9DZkjYQ3mrhfN+3AnzffzYI3lsM9N3P9/jbe\r\naY82jtEKN4C/LDbkiTU2RM3rNcyOwjb320A2OvyTNmqZhjaFwEg22r2ANhwLnDZ3NVY2exYGNqes\r\nMzaUcOk22V5WNgK/Tja+gXI20JKfNoz+nTY+46c2/Yg/NuTRMjZauOA2WfEhNncyUjaKipk251Bk\r\nNvV0hjaT4Ho2f44aN12tRzaZEHw3UNRmN853WTcYpLs3r2XZN0ktIjiXhrk3TlaUOIQuRThw+iI4\r\ni4oFOKKyUTjp5gQ33sb3N2ZRDjiQvUE4kNd8OFq4Mzh1D1U4u6HINqMUfjfxB9g2igeIN7r7Pzdu\r\n3hQ3wAVnNvR5FDdaFdg2nIhzN84DBjiQYd03fbOaN1gC2za+NwY3XrVANh7VGDdYzME2cweBN00w\r\nnTdIIoU2Bkv0NYgiSTeEqd42dbatNmaxYTcjSeE3WFFNN0sZwjdKeAA4Jxq/N86nzjcKa8Q3yrg8\r\nN5PQ0zZ9XWg2vw4RN7SdtDZj0IM30U+nNmi/kDWmNx02R7oLN27yCzj4rhw4JsdWOKpxhTgA0Io4\r\naQhSOARXZzhWNC44ioJKOMo+HDj4bPY37L2sNxjgoTaukdA3gJ05OM0nAzhRmsA2erZDOFJ4mjhM\r\nanE4zCXyN8cYOTj9jh84lco5OIOZjzcr2+A3G0OAONWCfjjLGfE3DXzvN6sMuzjeC+E4j2+5OL7M\r\nFDjS/FQ4jzihN10hHDgHAcA3r2hoN0faGTd7ugw4l7kwOMLXWjhL9Vw4XljCN8lcxDfpaDs4s+E0\r\nOFoW5De6uB03yKY1OFahiDhh1ow4AL9oOERzZTg6YbQ3pNaZOKapSjgzTqo4WjrEOLUp0zieHhs5\r\nXdoDOS1ePzjdlWw4WLC5OP2qsTjCBHs4OnQcOOU1OjiEvjY4lkAFOKvPLTcCSRU3hNhWN4UlMDca\r\nS642sZZ/Neh/8TVybAo2VkLCNsCSqjeTmTk39I6MNichMDYcmwk2essZN48Juje8Biw3dNVtNvB8\r\niTeig9o3DOtgNwfVRjeRYUo4vtELOGCGNjd4/A44iNxPOEbUtzfKNfg1ntklN7Yb/Dbeo8k2tOWu\r\nN5bsgDcrIck2m3SRN5ihJTi0vR84gmZ3N9NKHzeMExs4e4bxN3kcJzc+XGI2FvCNN7+A1jcs0qw3\r\nctKANvcpojbUC8c3PjyzNyZ9GzeV8VI2vlDeNlKNfDdgCis3V9LgNTBUCja75tw2IoU4N2dU7DYq\r\n5202FIpjNjwaKDagVgI21ZJyNSjnHDYGbTA3APNtNuaDkTWy+no2xTOVNgBRUTaCA7I2el7oNQ2J\r\nxTVjzMM1iTSqNTrj3DU7wWU20R5NNg3efzXYYq02SEZ5NuJ80zby6no2H8eENeDHjDXoAas1ydoP\r\nNvUONzYrj4c2PrUfNquTHDVXuyk2KDNMNvpvSzaJ4b41ifqbNWDGazXO8m02EoCCNW+OyDU+WMc1\r\npC5pNbF6gTXdLrE1IBGzNSzXmTVvDU010Nx5NYj4RDX2/RA2DOXDNfFrjTUtuDo1QF2UNmJ2XjY0\r\nQDY2BJmENtT7ODapMQk3IhCfNdKLZzYQw5817C4/NWSg4jWaI0w1/WwFNi0qaDbztUw2pVC2NfyK\r\nizUJ8Rc1HSq4NVESGDf0Ees3jBKrNyi2FzdDIks2o4eJN23J3TY1N6M1kURNNUa2kTXS7EU1MK4d\r\nNmtUIjY13YA20rEVN39RBzcDCCU2UkDKNa9ORDYMGJg1nFN7Ne0t2DXmlVo1Pf2CNSgZXzUQi4w1\r\n/dyiNaAxrTVg5oI12Ni/NZonODXAEc81X02YNUkuXzVnk2s1TreWNU9znDUQCnE1celUNflmZjUC\r\nlzc1thCcNXKQ/jRGRpo1StZWNdungDWvWyc1zJeRNaC7MDW8M9A14k0wNa+beDUEO6M1nlyBNsZu\r\nTTaYKrc2FJaDNhtO4DXDkAA2XhHHNZjYiDVWyTA2m1xyNvdbETYk/4M193c4NoyziDYeasQ2RWfo\r\nNe57Kja6pWQ1LmrVNYZ2ezY4O302g15WNk3vTjYESA82zoZmNhTgFzZKUCw2MPbrNgyrxTYyqUc1\r\nNvsQNnLiiDXSJik1WsM+NaMJJzXDzq013LVQNdMcIzb5kqg2ExVlNkPSyjXjU+41PpnRNmsF7zaF\r\nnIU2Z9lwNfujwDUGdks1fvdTNRiD3TZufbU2ElZyNsTxrzXqIdE1eoSCNggo2DVC4041uI8+Ng4Y\r\nujW07Ws1JRPZNRg6SzVtWTs1SN4lNU8szTYuKgw4uYXmOBfBnTjr6SQ341ewNRh1ATgRTQI5cCNX\r\nOAicATiC26o33LwOOFb8wDg9NQQ5QFouOJMD0zdE6TM4RpG+OBo2GzmwhEw4T3yjN0oJTjjxy784\r\nDPXWOMMkRThYmdY2f9QeNgoXbzeSoB831I24Nf/5EzjInjk46IW8NVPRSDVYtJM1BSVONTQjEzWT\r\nniE1ZoLgNVBRhTXqImk1/I2sNQ6ycjXyVk415ZKTNSvJaTUf3MQ1XxBNNU9iiTUKK1M1Zg6KNTdi\r\nhDUAaPE0lnKiNSO4Dja1ED01KMwxNSJuXzW9nt41iR48NRrT2TXCeeE1E7m/NaZErjVN5/Y1WDoh\r\nNsomZTcgP+c31IRlNz0FpzdKP6Q4lu5DOAh3Kzgn+5A4lwoBOHbXgjcTryI4LBA/OIqBMjghGWM4\r\n8QSEOJV/3TjMdws58sSoOM/IJTlmLgM5iOEqOH14KTh9kbQ3uLRAOJnmljieiB84Rr8XOCpNqzgM\r\nI704j+MVOKw3BjfFLDE1TJW4NWoUITWtDUM1OtKONVRwXTVbv1c1ysWfNWgHLjUo5zY1amMINT8r\r\nBDW2u0A1EfVMNfVpEzWDylY1WyQJNYiqwzWc64c1wIKFNQtZLzV2cEg1YX1ZNVxDijV8O3I1roXR\r\nNfJeFjUW0BY1d4AoNQUJajXklzs1C9sXNe6dgDVx96I15jt/NX6H/zSHplo1yIulNR/n+jRJ7oc1\r\nN9l8NYReoDXsJzk13oSgNRjLTDXpcHE17kcSNQoLVzXuIQ01g889NQ6vBTXHBpU1XixwNREQaDWR\r\nxok1JolzNcJNUzUMs5g1K4eFNa51JzXJDXg1nO7YNe+lSzWPEFA1sO1cNfQjhzWcgWU1hn5lNfFb\r\nDzVlenQ1MRwENaI5bDWo7IM1ptByNfzGPzXVOJg1tJ7cNFXekjXlUTk1ogdoNTUdcTUTLpo1FaRF\r\nNcsqfDWxm0E1FsVZNaDaQjUwYVg1F7KQNaqAoDVcURo1sEUmNaLgPjXXBOY0crTzNAAAgDWklI48\r\nVjzMOs2RqjqAXLY6oxOzOlAexTqzt1g6tA1+Orb/4Dnu1wA6A4ahOnowuzq9tlU6yvjmOmCxqzp7\r\npNE6STW+OiarAzsNfMk6H/OxOmcdAzuy9Yo6TSJnOlVhjDoKtFI6mP75Omdt2Trc2zw6LHQZOqIj\r\nkzoBcnc6qAwmOkekJzo6GzI6XQC+Oqxjpjrj43469N12OitHkDqkOKI6s9COOpYgtTpVhGA69uPW\r\nOugGvjokJ3o6LMaHOoOqqjrAaCI6gbaZOpLCJTqd31c6r90LOjSjWjpdb/o6nJrBOmbR6DozeR47\r\n35VzOkjOoTq6TEw6DCy+OsWSyzpP4CI6EgJwOgIDYDoJKmU6U3KROi6OkjocYbo62NZhOiFvHToR\r\n9FY6PjqqOlZcdjoPH0o6WDnBOk69JjrKAWY6VYpPOrMxtTpswRY6U/qBOssieTosfCc6df18OtJM\r\nNDpD9MM6Bu2xOkCnXjpUS1o6vBpQOvWXpDoxkpo6NqCVOvCIfjo5eqg6NgBcOoHfcjrXaRk7GwUj\r\nOtXKujoDIyk6kn9hOkA+eTrU+rs6Ht4pOj/BIDua/4U6nuXpOhbQpjr0tR06RlHsOqEoPDpIA0U6\r\nrXn5Otv2PTr4NMk68DhzOokAFTqWM906kzKJOoet1zrIIJo6qC0wOig8kzr0u646m7S6Op6dBTuG\r\ntZU6wwE6Ol6mUDoI3MA6NrWJOjGNSDoaz1o6N+yJOiijgjpvDHg6JCe/OvO3iDosBnQ6PurUOjoS\r\n8TrAaXs6IhQyOipY8zrr9uI5aNYQOmMtuzqKB9k6vCA1OuZgmjptu6M6MK+NOlbNXjrBcrM6XRwW\r\nOgQ9bDrgHF06FJIbOsLssToOf3E6SIByOulVhjrFUZg6mVKdOhUXbzo0KlY6nIgLOl3vEzrcNmg6\r\nSCycOpIZWTrBQKQ61JydOunFmzqbaww6d2eOOpA0pToztiE6BtWcOje3sjpqaQA6hSVwOqpTYDqo\r\nFko6U4N8Oonfrzlguz868q//Od4DVzq4FuA64AtTOijnRDrsZZI60YafOsJGMzqpCAY7lOWaOtBU\r\nvTpwun468AKsOg0wADso8FY6k2KPOhJ05jryttI6DKGIOmDGRzrtFjg6AlEtOn4/FDtrE4o6aIt6\r\nOmVgJju8LVI6Q9XcOqkGuTrnhb465omwOor6gjoEIMA6X6FsOlXTlDpBmis6zPMfOpuFZjpkypk6\r\nGL8mOlD25zlFJFU6Uz6dOswBizrTieo6prufOk4G2zoefVE6zbJdOkyMoDou0lk6PqCAOoKoDTrT\r\ncoE6IE2gOqhlmzopOyc6V6xyOtO8Fzs0TuU6htdJOuJ8KzrnM9c6yLPGOg3MlDoyZag6dmjXOtkg\r\naDoPotk6jg1OOlcKpjrCV1w6ex0+OrvugDq9BZM6WBiLOh4vrjpkwpI6SfEnOoMUizlLK4U6TEo/\r\nOg6O8Dn1h/A5BHMpOvSAaDof+J86SIY6Ou0eIToUu4c6k+zbOqr/JzqJAaA6BmCMOjQfWTpJgOE6\r\nSjl5OnSBTTo9PL069h66Ooj4szoSJFA6SnanOqoH1Tq4+Ho6ZGq1OmLciDosKAg7zHlSOohKSDrW\r\ntk066s9SOmjgsjrlZkI6OaSjOu3TYzov8CM6Y+ObOiCGgjp61nU6ereXOrBpWTrEjU86fOpjOivU\r\nUTroZ50654FVOoC/6TqEMCY67XUeOnvufToZcv46L5GwOm79MjpjZ+Y5WIFVOudxhTqQLuI68LgV\r\nOxBZZzo493c6CSIjOs/gvjpE7w06aJWCOpQoXjqcN+Y6hs48OspURjpmEnU6951KOm6QiDqCdGw6\r\nIaqfOqU4rDofn546TmWFOgdFEjr//BI65MBdOmMMADv57JA6YogCO7GOczpRNso50RVyOkZ+ITqK\r\nL7g6HPEyOhVmcDrXvGA6I+QzOrUSizqXWGM6buiROhov2DqdZhI6E9uEOkAjZDosCnw68T2TOl8O\r\nmDr5bc86MXCOOiSQpjrF2i461YCrOjshljrIwnc6IBG4Or4qijr2SDA60otXOtihSjrbjQs7Atef\r\nOumnLTrC0nM6lrJKOgSJtTpBBYo66NKuOh7CgjpU3z86T/euObqjZTpA1yw61iazOmAE4zlXtzE6\r\nxddOOsh4pjoK5H86R1AxOqEjrzqblaM6FogHOyG2PTo1oy86kA/KOhEDhTrPMU467hysOhR9kzp+\r\nT1Y6hQglOj9YiToh7pY6YRuNOgx1NTqLlgE7E1eBOlDWqDoQz0w64ApROuPcszpPW5Q6rB9/OsQZ\r\njjq0YBs6do8iOrFgCjqmsDU6vGUDOiwjajpb3vo5KPcaOvLvHjpimYo6cl6AOtLJVjqysUU6OkJA\r\nOomfPzqSj2s63toZOlTdgzrmr0g6Mr9COgo4wjpZqEk6y+yvOkOfXzpDKxI6C8zGOuKI1DoYVk86\r\nfuOfOlIfijplbDw6rhltOkXr4jqVSmE62swtOkMlQDr+ENk6gTK3Ok765Tpg6nw6XW/4OeJ8gDp8\r\nLqM6A2SAOn+hPzoN3w86fs5nOpY6ezpDEN46KDknO3V+Wjq4oxU6rL5cOm5lfjrvz6k6NNKVOps5\r\ndTpE0/Q6sAdcOnpANDpNoIg6Vo9uOnH/KjrNrXg6qOaTOolDwTr4f0I6hA4LOv8KnTpHX1g6MjLw\r\nOTYNszrdIkg6/gCEOrB1hDoq2H066s3kOpeiizr+lKU6DVr3OhaihTqnXIQ6O6WkOiDVazrArmw6\r\nDBrxOZ8YLjo9pqA6QsAzOmAKojrXBZI60oMiOkdrqjp+7Kc6B1CtOlrQ8zq7NVc6fRieOmtMTDro\r\nlC46ptQoOmPqdTo2j4E64R0qOujV4DrTEoo6IGhTOnorpjr7z146i5PSOkCWdjqUAJs6yJCGOr8B\r\nEjo4m1M61XCQOnCCxDn/E4k6PRujOuh7ijq5nJ06ELCQOmXIgzpoHhg64W6bOigvCztpWWA6OYZx\r\nOjVSXjpGa4c6rJ+YOn62PDqd/hU6wjadOnhYGzpFoVA6NrjsOYgeoDquLm862W6POl6YkTqk/SA6\r\nWo8+OllPqTqZHVo6V/MrOpewTDrOnJ46j8QDOvY6vDqdg7g6nLzJOXNutzqejU06h16wOo3elTrs\r\nfDc6IZW3OnpBgjrtals6sEmHOkSUJDqjyGM6iz8gOolv2TpC0o46B5plOrA3/Tm9WY06vaFIOuQX\r\nKDp+EGY6Kyu4OkGR1ToZ4146dZwqOq7neDrrNK86kXBkOiFsIjrtWCY6bZBZOuA6RjqZ+gU7sK65\r\nOlZlTTqYfn464SsOOg17bDp48So6AqqtOgyZ4TmCF0E6qgx9OtqrcDoki5A6aJ1EOmGUcjpvjmg6\r\nWgxzOgC7cjphzo46+RsfOuvXLjpn+D06xoK9OtBmPDrbTI06Phu3Om6EejqoC5k67wOVOpk6hjoJ\r\ni1E6OjRcOv8jEjra1sI6pqCVOriEfDoRUgU6zy0+Og9tdDqcR846+vtiOmYHCDrhviQ6MHDOOvn+\r\nhzpYVvw6WrQaOnLubTrRMy86W7eDOmxDgzpYZFI6WrYkOk7+cDp2gjE6JtlTOsaERjo8fkA6bZeE\r\nOmfYIDop65M64AruOjdomzpvnAY6tJZMOsePSjqTlIA61PRfOo9bTTrpzZc68xYpOhUfSjqP7IQ6\r\nClIOO2Uzbzrc6po6DQwuOrkRJzpGCBs6Zsn0OtRGgDqiZW86LMuBOmkUhzpX7KQ6vd1mOvjdNTrm\r\nP5A6f1VeOhwkgDo9JYk6ni9tOnhuJToMKTw5JnzJORlOAzmg+g040piAN/VfYDiA4DM6lFqxOaVz\r\nIjm0A6Q5oCVNOdhS4ThCyT05unMcOY+U4jlfhDE6bFSdOcxx7zbJNrg2CiKQNsv/QTapVQQ4JQ20\r\nOHYynDlMskQ6DnADOsQYgzhcSw04KyfBOLM/5zip65k5uG4zOY34MTZ4xCY2VhQaNjSJ1DX6dgA2\r\nLgjWNWhwDzbtgLc1hdyaNfLygzW3IHA1Fij6Nagd2jVl0nQ1r5jJNaOeGzZWfHU12hYDNk5ytDW4\r\nCoM1z0HYNXlKozVU68A1Kqn0NaTuizWP9Hk1H/mgNb4d3jV4opM1UrvSNXCizjXODrQ4+xTWOCbW\r\n6ziz/r05hzn6OUOdLznPUwY5M4NKOU/fSTr4nIA6n0aOOddeYTjkXo84o8UnOT+YQTntJIU4CLEJ\r\nOAj4VTXjtig4IcEWOZ6GajiUbtk4xrfCOR7ChzmsOhU5iN3DOVFwbTr8Skg6uGSIOZCSGDhBowU4\r\nR+gJOX+KzjhbFMk4KH+tOOIKmTXoXcA3s2KcODrXiTkc2m45i1VPOAPvEzjOn4A54XwIOlQDYTom\r\nF2Y65mMtOvxmUjm0ZBk5wg/dOEH5nDhcNUg4iQw4OEVexTiLKXQ44G4lOOSUADpYZEA6WkEVOvHl\r\ncTm+8Zg4fzRwNcSEbDlGwIQ5MxJzNky76DczGOM4qA+6OGYtbjf8Ul02F3UCOMr0xzghxVk48UfH\r\nN8Nm+jdj0rE3pOzvONi8FTmJhFk4hbehNxjqIDj0Le04FoIgORA5ijiGMtw3+p49OKrZwzgqVso4\r\nkyBMOG/I/jaAUgs2O+o9NzHDFjc2N001ZeswOPPgXjgUCjA2QfKXNaqJCDXtjGA1J5ZRNZZ9zDWy\r\nybc1pv8gNbI8szUIJXg1tq99NQ+kEzUF25g1qXIcNfIDBzUqyD41vqElNYvpTzXzTG41GdhjNYkb\r\nSTW2iGQ1oWCFNdagUTXVZNc0vYWWNcr1SzVkzhY17uIrNV7dRzW4BOc0o7dCNY65lTWZ2BA2eCiA\r\nN74N5zc+3nM3TtWQN/5lkThv0jI4L/gTOBXJhDiSvgs4BlifN0YESjjkbxw4dzo3OGN/WTiJ3Wg4\r\nAorkOCyXDDnyKKE4Ih0jOc7q9Ti7rCU4YBdMODpvhzeJIEc47CmfOP3FEjiKsNw3p1WeOBi7rjgY\r\nMQA4WQCtNkQ3oTTqXmo1190ENesLTjXGsCE1D2QGNVQGXzVVp4I1vMt8NValNzVdvkc1tHHzNJfb\r\npjSZQ281XEMlNVnKODXPrvg0RuuaNTEtGDUmJCA1fHuYNX7HYDWzSrI05YIrNRsJHzVjvDA1Ngkg\r\nNfTW8DSGY6M1DZU+NZT6zjRTpzI1HFsVNTq/3jSQm3o1ZvDANAWykDU0iSM19EfgNLPe2zRwqCQ1\r\nmUDyNCho+zT8SMQ0YW45NMHCZTVC+cE0xCUlNRMHGDUoHgc17VqxNLycGzXSFek0OvFmNdZy8TTT\r\nIgs1VE9ENZjJRDWbKyU1Fzs6NZi1/TTPqb00GX7GNJpSbjUtj1Q1pVMhNce0HDW01lE197lqNY/2\r\nLTX+eco0iu9cNa7mFzXbfl4173wHNTmo7zTUbTk1KVZKNQkQjTWUtw01+REQNRokJjUJlkA1N71V\r\nNcDyVTW4pQs1UfHMNGDviDWx7BM1uA+3NGliDjVtFwU1kOgTNZUigDXm2+E0ACCrNQ==",
                            "noiseTrainingType" : "default"
                          }
                        }
                    ],
                    "start" : 5751,
                    "duration" : 577,
                    "mediaStart" : 36,
                    "mediaDuration" : 577,
                    "scalar" : 1,
                    "metadata" : {
                      "WinSubProjectDisplayName" : "",
                      "clipSpeedAttribute" : false
                    },
                    "animationTracks" : {

                    }
                  },
                  {
                    "id" : 92,
                    "_type" : "AMFile",
                    "src" : 8,
                    "trackNumber" : 1,
                    "attributes" : {
                      "ident" : "Aufn. 07-11-19_027",
                      "sampleRate" : 44100,
                      "bitDepth" : 16,
                      "gain" : 1.0,
                      "mixToMono" : true
                    },
                      "channelNumber" : "0,1",
                    "effects" : [
                        {
                          "effectName" : "NoiseReduction",
                          "category" : "categoryAudioEffects",
                          "parameters" : {
                            "denoiserAmount" : 20.0,
                            "denoiserThreshold" : 0.0,
                            "noiseProfile" : "PjhOQECwRz5Eakg/RKrwPZATKz2GKYI8tQ2IPK0o5jsIufM7NpEEPMmLjjtunJk7DM+dOzyxPzvz\r\n7kk7gc3qOuZZSjsrDjI6hR6sOpTGXjoaPSk6KW4SOpxYLDrhWpc62peUOtwH+TpEfEw6Yz25OUCl\r\nwTkvEbE5bHChOX9AwTmQlP45+qmBOYpKszmzkdQ6RZ6bOymTwjsBGwE8rpg1PEoAujsjbUc8eJQt\r\nPLkDPzxCox480ZKbOzCXKzvbezM7Ggk3OyIjAjsGGoU5mqGNOsaAQDqS0M46fGdXObgdBDmVm/I5\r\n0m50OpAr6TkaYmI5PuUMOpk9tjkI1ZI5m9AtOZyR9DkGoHc5VOzQOnJDbjqIFD46BpOAOujkyTpI\r\ntYI6xq9BOvJnCDqSREQ6sFrzOXkAnTlC6B45U9W9OCZzIzn+NRE5ux1DOW5wqjmhFHw5JMtPOctU\r\nXDlaJSs5mq6rOGuGCjlw24U5/SYdORMYxzjtNak4fdrzODaAmzhNLb44ioUEOSfUVDnSV8o4C0iQ\r\nOTDXajpAhVY6hwvbOGu6Mzmnpy85gHRMOS28kTj0+eo4iB9FOWJ2rjhi+xg5Fp2JOXbj/Dnsoaw5\r\nJP+HOeZlEDrhqR061gzNObT1yzlMd4A5VvDqOVTNRzn/SLk5nZQ2OTIeRjkQgSs5ybCbOYZLVDlS\r\ncgI5urQVOJChSTgKAWQ4RjCCOBil5TchChI4KCu3OFDD3jf/ayo4YhOiOLpqEDgZ/gU4qFcMOIdg\r\nBzhetq03WOEjOKf+EzigeUY4DLl7OCQRAzgGdmo4XS3xN2qTpTf6NJM3sNq1N//DGzhS6x84FEJx\r\nOONTHziTDTg4A1rsN0XnADgAec834jmmNx6Z0DfXb7w32pOBNwegrzfk9ZY3tNf8N/Ke5zdGMuc3\r\nyaeNN3Q2lTcSDlw3YsHWN3hDuTf8WzA47e2iN4KvLTgW+2A3wSW4N69rKDjOl243BgqsNz2iqze/\r\nOeE30fcSOHAFhjfsoKE35JtzN1DcwDc+qPo237S8N1GfhjdtfWY4aleAN9R4izeHOks34gsMOLN2\r\n+TcIxf04v/NKOFtPcjdKyIQ39edjNwwQSjcAvN43lOtrNyd6WDeKbxs3Y5WCN9OHDjd7wFY3Waoy\r\nN8sIRzfUxVA3ZKR/N/lgAzht2Vo3YDyCN/txNjc0PmM3HJQsOJci9DgvDE45yozpOT4PBDo2XSE6\r\npD8hOt7/PTq46SA6bnHxOQ+TCTqGMyA6XP0JOmqu+znazZA56zi2OXVftjlamag5tQqGOdNHcDnw\r\nxEk5jncPOQoRkDhisfI3aHTeOMkyqjhWwTY4q6h8OIvXhzha95U4frrdOBTsDjmp0QE5WmZbOeJd\r\nYTnz+XQ5oOVxOai0hTkAsMc5PSzQOW3cBjr4UMw5oWGjOR/0BDqub+05e6mtOfclWzny2oc5HB9B\r\nOdBapjir2NM4RkoFOeAn1jhgI4Q42BprOACkNDdAcSI3VrgyN73/1jYF9OU2/k3yNqJdgzcz42c3\r\nCP0vN55xkTb5teE2q4gpN2gD9DeBofg321ffNoLqvTZ4zbY2nRPBN3aCZzfxOY43x2yDNzoVADeu\r\nZOo2aTGsN/QEFjjj8gY4XXYFODDSHjhA8Kc3fPzJN4WqTTg1D9g3xUC9OBAXyzj13Ko4OrOnOL4E\r\nmjg7JY045EJqOKtQ2jcPHr039RAWOMYyvDf8rxw3tHyIN0ONTzdVDuA2dPFPNxrUaTY+PDo3Cty6\r\nNvN/JTcIDlU2n1K4NhuBbTb4n6w2kJXBNkHWUTb/Y9o2Ga25Ng7xzzaGs0Y26lHSNpbUzzZ4w5E2\r\npdaPNq6QojaWOcY2ZD+lNlmZvzaasw03cPOiNlM1iTbh7Zg2lRW3NuAo3DbJUwg3QiqSNl8R1Ta8\r\nKhA3ZDy3NjArujZqzoU2FWqsNmiJjTZE/xY2lxKWNieiojaHobY25CTONkMsNzYpVdo2ODkBN2BJ\r\npTbnogs3FxFTNy5L3jeAseA3IeDUN5b8KTi5zAo49DuwN14ncTcwhoM32RIYN1LQJjcbO342tCjW\r\nNyeuRzfNEAY4mkPyN0iNlThPP404EcmFOAybDjnJsBQ5rVsFOW1gITlAtx45bkHVOHQ2rThSge04\r\nORm4OPilvzhdPZk4V19hOEGhCDhOVaI3PpucN4Bu9DZkjYQ3mrhfN+3AnzffzYI3lsM9N3P9/jbe\r\naY82jtEKN4C/LDbkiTU2RM3rNcyOwjb320A2OvyTNmqZhjaFwEg22r2ANhwLnDZ3NVY2exYGNqes\r\nMzaUcOk22V5WNgK/Tja+gXI20JKfNoz+nTY+46c2/Yg/NuTRMjZauOA2WfEhNncyUjaKipk251Bk\r\nNvV0hjaT4Ho2f44aN12tRzaZEHw3UNRmN853WTcYpLs3r2XZN0ktIjiXhrk3TlaUOIQuRThw+iI4\r\ni4oFOKKyUTjp5gQ33sb3N2ZRDjiQvUE4kNd8OFq4Mzh1D1U4u6HINqMUfjfxB9g2igeIN7r7Pzdu\r\n3hQ3wAVnNvR5FDdaFdg2nIhzN84DBjiQYd03fbOaN1gC2za+NwY3XrVANh7VGDdYzME2cweBN00w\r\nnTdIIoU2Bkv0NYgiSTeEqd42dbatNmaxYTcjSeE3WFFNN0sZwjdKeAA4Jxq/N86nzjcKa8Q3yrg8\r\nN5PQ0zZ9XWg2vw4RN7SdtDZj0IM30U+nNmi/kDWmNx02R7oLN27yCzj4rhw4JsdWOKpxhTgA0Io4\r\naQhSOARXZzhWNC44ioJKOMo+HDj4bPY37L2sNxjgoTaukdA3gJ05OM0nAzhRmsA2erZDOFJ4mjhM\r\nanE4zCXyN8cYOTj9jh84lco5OIOZjzcr2+A3G0OAONWCfjjLGfE3DXzvN6sMuzjeC+E4j2+5OL7M\r\nFDjS/FQ4jzihN10hHDgHAcA3r2hoN0faGTd7ugw4l7kwOMLXWjhL9Vw4XljCN8lcxDfpaDs4s+E0\r\nOFoW5De6uB03yKY1OFahiDhh1ow4AL9oOERzZTg6YbQ3pNaZOKapSjgzTqo4WjrEOLUp0zieHhs5\r\nXdoDOS1ePzjdlWw4WLC5OP2qsTjCBHs4OnQcOOU1OjiEvjY4lkAFOKvPLTcCSRU3hNhWN4UlMDca\r\nS642sZZ/Neh/8TVybAo2VkLCNsCSqjeTmTk39I6MNichMDYcmwk2essZN48Juje8Biw3dNVtNvB8\r\niTeig9o3DOtgNwfVRjeRYUo4vtELOGCGNjd4/A44iNxPOEbUtzfKNfg1ntklN7Yb/Dbeo8k2tOWu\r\nN5bsgDcrIck2m3SRN5ihJTi0vR84gmZ3N9NKHzeMExs4e4bxN3kcJzc+XGI2FvCNN7+A1jcs0qw3\r\nctKANvcpojbUC8c3PjyzNyZ9GzeV8VI2vlDeNlKNfDdgCis3V9LgNTBUCja75tw2IoU4N2dU7DYq\r\n5202FIpjNjwaKDagVgI21ZJyNSjnHDYGbTA3APNtNuaDkTWy+no2xTOVNgBRUTaCA7I2el7oNQ2J\r\nxTVjzMM1iTSqNTrj3DU7wWU20R5NNg3efzXYYq02SEZ5NuJ80zby6no2H8eENeDHjDXoAas1ydoP\r\nNvUONzYrj4c2PrUfNquTHDVXuyk2KDNMNvpvSzaJ4b41ifqbNWDGazXO8m02EoCCNW+OyDU+WMc1\r\npC5pNbF6gTXdLrE1IBGzNSzXmTVvDU010Nx5NYj4RDX2/RA2DOXDNfFrjTUtuDo1QF2UNmJ2XjY0\r\nQDY2BJmENtT7ODapMQk3IhCfNdKLZzYQw5817C4/NWSg4jWaI0w1/WwFNi0qaDbztUw2pVC2NfyK\r\nizUJ8Rc1HSq4NVESGDf0Ees3jBKrNyi2FzdDIks2o4eJN23J3TY1N6M1kURNNUa2kTXS7EU1MK4d\r\nNmtUIjY13YA20rEVN39RBzcDCCU2UkDKNa9ORDYMGJg1nFN7Ne0t2DXmlVo1Pf2CNSgZXzUQi4w1\r\n/dyiNaAxrTVg5oI12Ni/NZonODXAEc81X02YNUkuXzVnk2s1TreWNU9znDUQCnE1celUNflmZjUC\r\nlzc1thCcNXKQ/jRGRpo1StZWNdungDWvWyc1zJeRNaC7MDW8M9A14k0wNa+beDUEO6M1nlyBNsZu\r\nTTaYKrc2FJaDNhtO4DXDkAA2XhHHNZjYiDVWyTA2m1xyNvdbETYk/4M193c4NoyziDYeasQ2RWfo\r\nNe57Kja6pWQ1LmrVNYZ2ezY4O302g15WNk3vTjYESA82zoZmNhTgFzZKUCw2MPbrNgyrxTYyqUc1\r\nNvsQNnLiiDXSJik1WsM+NaMJJzXDzq013LVQNdMcIzb5kqg2ExVlNkPSyjXjU+41PpnRNmsF7zaF\r\nnIU2Z9lwNfujwDUGdks1fvdTNRiD3TZufbU2ElZyNsTxrzXqIdE1eoSCNggo2DVC4041uI8+Ng4Y\r\nujW07Ws1JRPZNRg6SzVtWTs1SN4lNU8szTYuKgw4uYXmOBfBnTjr6SQ341ewNRh1ATgRTQI5cCNX\r\nOAicATiC26o33LwOOFb8wDg9NQQ5QFouOJMD0zdE6TM4RpG+OBo2GzmwhEw4T3yjN0oJTjjxy784\r\nDPXWOMMkRThYmdY2f9QeNgoXbzeSoB831I24Nf/5EzjInjk46IW8NVPRSDVYtJM1BSVONTQjEzWT\r\nniE1ZoLgNVBRhTXqImk1/I2sNQ6ycjXyVk415ZKTNSvJaTUf3MQ1XxBNNU9iiTUKK1M1Zg6KNTdi\r\nhDUAaPE0lnKiNSO4Dja1ED01KMwxNSJuXzW9nt41iR48NRrT2TXCeeE1E7m/NaZErjVN5/Y1WDoh\r\nNsomZTcgP+c31IRlNz0FpzdKP6Q4lu5DOAh3Kzgn+5A4lwoBOHbXgjcTryI4LBA/OIqBMjghGWM4\r\n8QSEOJV/3TjMdws58sSoOM/IJTlmLgM5iOEqOH14KTh9kbQ3uLRAOJnmljieiB84Rr8XOCpNqzgM\r\nI704j+MVOKw3BjfFLDE1TJW4NWoUITWtDUM1OtKONVRwXTVbv1c1ysWfNWgHLjUo5zY1amMINT8r\r\nBDW2u0A1EfVMNfVpEzWDylY1WyQJNYiqwzWc64c1wIKFNQtZLzV2cEg1YX1ZNVxDijV8O3I1roXR\r\nNfJeFjUW0BY1d4AoNQUJajXklzs1C9sXNe6dgDVx96I15jt/NX6H/zSHplo1yIulNR/n+jRJ7oc1\r\nN9l8NYReoDXsJzk13oSgNRjLTDXpcHE17kcSNQoLVzXuIQ01g889NQ6vBTXHBpU1XixwNREQaDWR\r\nxok1JolzNcJNUzUMs5g1K4eFNa51JzXJDXg1nO7YNe+lSzWPEFA1sO1cNfQjhzWcgWU1hn5lNfFb\r\nDzVlenQ1MRwENaI5bDWo7IM1ptByNfzGPzXVOJg1tJ7cNFXekjXlUTk1ogdoNTUdcTUTLpo1FaRF\r\nNcsqfDWxm0E1FsVZNaDaQjUwYVg1F7KQNaqAoDVcURo1sEUmNaLgPjXXBOY0crTzNAAAgDWklI48\r\nVjzMOs2RqjqAXLY6oxOzOlAexTqzt1g6tA1+Orb/4Dnu1wA6A4ahOnowuzq9tlU6yvjmOmCxqzp7\r\npNE6STW+OiarAzsNfMk6H/OxOmcdAzuy9Yo6TSJnOlVhjDoKtFI6mP75Omdt2Trc2zw6LHQZOqIj\r\nkzoBcnc6qAwmOkekJzo6GzI6XQC+Oqxjpjrj43469N12OitHkDqkOKI6s9COOpYgtTpVhGA69uPW\r\nOugGvjokJ3o6LMaHOoOqqjrAaCI6gbaZOpLCJTqd31c6r90LOjSjWjpdb/o6nJrBOmbR6DozeR47\r\n35VzOkjOoTq6TEw6DCy+OsWSyzpP4CI6EgJwOgIDYDoJKmU6U3KROi6OkjocYbo62NZhOiFvHToR\r\n9FY6PjqqOlZcdjoPH0o6WDnBOk69JjrKAWY6VYpPOrMxtTpswRY6U/qBOssieTosfCc6df18OtJM\r\nNDpD9MM6Bu2xOkCnXjpUS1o6vBpQOvWXpDoxkpo6NqCVOvCIfjo5eqg6NgBcOoHfcjrXaRk7GwUj\r\nOtXKujoDIyk6kn9hOkA+eTrU+rs6Ht4pOj/BIDua/4U6nuXpOhbQpjr0tR06RlHsOqEoPDpIA0U6\r\nrXn5Otv2PTr4NMk68DhzOokAFTqWM906kzKJOoet1zrIIJo6qC0wOig8kzr0u646m7S6Op6dBTuG\r\ntZU6wwE6Ol6mUDoI3MA6NrWJOjGNSDoaz1o6N+yJOiijgjpvDHg6JCe/OvO3iDosBnQ6PurUOjoS\r\n8TrAaXs6IhQyOipY8zrr9uI5aNYQOmMtuzqKB9k6vCA1OuZgmjptu6M6MK+NOlbNXjrBcrM6XRwW\r\nOgQ9bDrgHF06FJIbOsLssToOf3E6SIByOulVhjrFUZg6mVKdOhUXbzo0KlY6nIgLOl3vEzrcNmg6\r\nSCycOpIZWTrBQKQ61JydOunFmzqbaww6d2eOOpA0pToztiE6BtWcOje3sjpqaQA6hSVwOqpTYDqo\r\nFko6U4N8Oonfrzlguz868q//Od4DVzq4FuA64AtTOijnRDrsZZI60YafOsJGMzqpCAY7lOWaOtBU\r\nvTpwun468AKsOg0wADso8FY6k2KPOhJ05jryttI6DKGIOmDGRzrtFjg6AlEtOn4/FDtrE4o6aIt6\r\nOmVgJju8LVI6Q9XcOqkGuTrnhb465omwOor6gjoEIMA6X6FsOlXTlDpBmis6zPMfOpuFZjpkypk6\r\nGL8mOlD25zlFJFU6Uz6dOswBizrTieo6prufOk4G2zoefVE6zbJdOkyMoDou0lk6PqCAOoKoDTrT\r\ncoE6IE2gOqhlmzopOyc6V6xyOtO8Fzs0TuU6htdJOuJ8KzrnM9c6yLPGOg3MlDoyZag6dmjXOtkg\r\naDoPotk6jg1OOlcKpjrCV1w6ex0+OrvugDq9BZM6WBiLOh4vrjpkwpI6SfEnOoMUizlLK4U6TEo/\r\nOg6O8Dn1h/A5BHMpOvSAaDof+J86SIY6Ou0eIToUu4c6k+zbOqr/JzqJAaA6BmCMOjQfWTpJgOE6\r\nSjl5OnSBTTo9PL069h66Ooj4szoSJFA6SnanOqoH1Tq4+Ho6ZGq1OmLciDosKAg7zHlSOohKSDrW\r\ntk066s9SOmjgsjrlZkI6OaSjOu3TYzov8CM6Y+ObOiCGgjp61nU6ereXOrBpWTrEjU86fOpjOivU\r\nUTroZ50654FVOoC/6TqEMCY67XUeOnvufToZcv46L5GwOm79MjpjZ+Y5WIFVOudxhTqQLuI68LgV\r\nOxBZZzo493c6CSIjOs/gvjpE7w06aJWCOpQoXjqcN+Y6hs48OspURjpmEnU6951KOm6QiDqCdGw6\r\nIaqfOqU4rDofn546TmWFOgdFEjr//BI65MBdOmMMADv57JA6YogCO7GOczpRNso50RVyOkZ+ITqK\r\nL7g6HPEyOhVmcDrXvGA6I+QzOrUSizqXWGM6buiROhov2DqdZhI6E9uEOkAjZDosCnw68T2TOl8O\r\nmDr5bc86MXCOOiSQpjrF2i461YCrOjshljrIwnc6IBG4Or4qijr2SDA60otXOtihSjrbjQs7Atef\r\nOumnLTrC0nM6lrJKOgSJtTpBBYo66NKuOh7CgjpU3z86T/euObqjZTpA1yw61iazOmAE4zlXtzE6\r\nxddOOsh4pjoK5H86R1AxOqEjrzqblaM6FogHOyG2PTo1oy86kA/KOhEDhTrPMU467hysOhR9kzp+\r\nT1Y6hQglOj9YiToh7pY6YRuNOgx1NTqLlgE7E1eBOlDWqDoQz0w64ApROuPcszpPW5Q6rB9/OsQZ\r\njjq0YBs6do8iOrFgCjqmsDU6vGUDOiwjajpb3vo5KPcaOvLvHjpimYo6cl6AOtLJVjqysUU6OkJA\r\nOomfPzqSj2s63toZOlTdgzrmr0g6Mr9COgo4wjpZqEk6y+yvOkOfXzpDKxI6C8zGOuKI1DoYVk86\r\nfuOfOlIfijplbDw6rhltOkXr4jqVSmE62swtOkMlQDr+ENk6gTK3Ok765Tpg6nw6XW/4OeJ8gDp8\r\nLqM6A2SAOn+hPzoN3w86fs5nOpY6ezpDEN46KDknO3V+Wjq4oxU6rL5cOm5lfjrvz6k6NNKVOps5\r\ndTpE0/Q6sAdcOnpANDpNoIg6Vo9uOnH/KjrNrXg6qOaTOolDwTr4f0I6hA4LOv8KnTpHX1g6MjLw\r\nOTYNszrdIkg6/gCEOrB1hDoq2H066s3kOpeiizr+lKU6DVr3OhaihTqnXIQ6O6WkOiDVazrArmw6\r\nDBrxOZ8YLjo9pqA6QsAzOmAKojrXBZI60oMiOkdrqjp+7Kc6B1CtOlrQ8zq7NVc6fRieOmtMTDro\r\nlC46ptQoOmPqdTo2j4E64R0qOujV4DrTEoo6IGhTOnorpjr7z146i5PSOkCWdjqUAJs6yJCGOr8B\r\nEjo4m1M61XCQOnCCxDn/E4k6PRujOuh7ijq5nJ06ELCQOmXIgzpoHhg64W6bOigvCztpWWA6OYZx\r\nOjVSXjpGa4c6rJ+YOn62PDqd/hU6wjadOnhYGzpFoVA6NrjsOYgeoDquLm862W6POl6YkTqk/SA6\r\nWo8+OllPqTqZHVo6V/MrOpewTDrOnJ46j8QDOvY6vDqdg7g6nLzJOXNutzqejU06h16wOo3elTrs\r\nfDc6IZW3OnpBgjrtals6sEmHOkSUJDqjyGM6iz8gOolv2TpC0o46B5plOrA3/Tm9WY06vaFIOuQX\r\nKDp+EGY6Kyu4OkGR1ToZ4146dZwqOq7neDrrNK86kXBkOiFsIjrtWCY6bZBZOuA6RjqZ+gU7sK65\r\nOlZlTTqYfn464SsOOg17bDp48So6AqqtOgyZ4TmCF0E6qgx9OtqrcDoki5A6aJ1EOmGUcjpvjmg6\r\nWgxzOgC7cjphzo46+RsfOuvXLjpn+D06xoK9OtBmPDrbTI06Phu3Om6EejqoC5k67wOVOpk6hjoJ\r\ni1E6OjRcOv8jEjra1sI6pqCVOriEfDoRUgU6zy0+Og9tdDqcR846+vtiOmYHCDrhviQ6MHDOOvn+\r\nhzpYVvw6WrQaOnLubTrRMy86W7eDOmxDgzpYZFI6WrYkOk7+cDp2gjE6JtlTOsaERjo8fkA6bZeE\r\nOmfYIDop65M64AruOjdomzpvnAY6tJZMOsePSjqTlIA61PRfOo9bTTrpzZc68xYpOhUfSjqP7IQ6\r\nClIOO2Uzbzrc6po6DQwuOrkRJzpGCBs6Zsn0OtRGgDqiZW86LMuBOmkUhzpX7KQ6vd1mOvjdNTrm\r\nP5A6f1VeOhwkgDo9JYk6ni9tOnhuJToMKTw5JnzJORlOAzmg+g040piAN/VfYDiA4DM6lFqxOaVz\r\nIjm0A6Q5oCVNOdhS4ThCyT05unMcOY+U4jlfhDE6bFSdOcxx7zbJNrg2CiKQNsv/QTapVQQ4JQ20\r\nOHYynDlMskQ6DnADOsQYgzhcSw04KyfBOLM/5zip65k5uG4zOY34MTZ4xCY2VhQaNjSJ1DX6dgA2\r\nLgjWNWhwDzbtgLc1hdyaNfLygzW3IHA1Fij6Nagd2jVl0nQ1r5jJNaOeGzZWfHU12hYDNk5ytDW4\r\nCoM1z0HYNXlKozVU68A1Kqn0NaTuizWP9Hk1H/mgNb4d3jV4opM1UrvSNXCizjXODrQ4+xTWOCbW\r\n6ziz/r05hzn6OUOdLznPUwY5M4NKOU/fSTr4nIA6n0aOOddeYTjkXo84o8UnOT+YQTntJIU4CLEJ\r\nOAj4VTXjtig4IcEWOZ6GajiUbtk4xrfCOR7ChzmsOhU5iN3DOVFwbTr8Skg6uGSIOZCSGDhBowU4\r\nR+gJOX+KzjhbFMk4KH+tOOIKmTXoXcA3s2KcODrXiTkc2m45i1VPOAPvEzjOn4A54XwIOlQDYTom\r\nF2Y65mMtOvxmUjm0ZBk5wg/dOEH5nDhcNUg4iQw4OEVexTiLKXQ44G4lOOSUADpYZEA6WkEVOvHl\r\ncTm+8Zg4fzRwNcSEbDlGwIQ5MxJzNky76DczGOM4qA+6OGYtbjf8Ul02F3UCOMr0xzghxVk48UfH\r\nN8Nm+jdj0rE3pOzvONi8FTmJhFk4hbehNxjqIDj0Le04FoIgORA5ijiGMtw3+p49OKrZwzgqVso4\r\nkyBMOG/I/jaAUgs2O+o9NzHDFjc2N001ZeswOPPgXjgUCjA2QfKXNaqJCDXtjGA1J5ZRNZZ9zDWy\r\nybc1pv8gNbI8szUIJXg1tq99NQ+kEzUF25g1qXIcNfIDBzUqyD41vqElNYvpTzXzTG41GdhjNYkb\r\nSTW2iGQ1oWCFNdagUTXVZNc0vYWWNcr1SzVkzhY17uIrNV7dRzW4BOc0o7dCNY65lTWZ2BA2eCiA\r\nN74N5zc+3nM3TtWQN/5lkThv0jI4L/gTOBXJhDiSvgs4BlifN0YESjjkbxw4dzo3OGN/WTiJ3Wg4\r\nAorkOCyXDDnyKKE4Ih0jOc7q9Ti7rCU4YBdMODpvhzeJIEc47CmfOP3FEjiKsNw3p1WeOBi7rjgY\r\nMQA4WQCtNkQ3oTTqXmo1190ENesLTjXGsCE1D2QGNVQGXzVVp4I1vMt8NValNzVdvkc1tHHzNJfb\r\npjSZQ281XEMlNVnKODXPrvg0RuuaNTEtGDUmJCA1fHuYNX7HYDWzSrI05YIrNRsJHzVjvDA1Ngkg\r\nNfTW8DSGY6M1DZU+NZT6zjRTpzI1HFsVNTq/3jSQm3o1ZvDANAWykDU0iSM19EfgNLPe2zRwqCQ1\r\nmUDyNCho+zT8SMQ0YW45NMHCZTVC+cE0xCUlNRMHGDUoHgc17VqxNLycGzXSFek0OvFmNdZy8TTT\r\nIgs1VE9ENZjJRDWbKyU1Fzs6NZi1/TTPqb00GX7GNJpSbjUtj1Q1pVMhNce0HDW01lE197lqNY/2\r\nLTX+eco0iu9cNa7mFzXbfl4173wHNTmo7zTUbTk1KVZKNQkQjTWUtw01+REQNRokJjUJlkA1N71V\r\nNcDyVTW4pQs1UfHMNGDviDWx7BM1uA+3NGliDjVtFwU1kOgTNZUigDXm2+E0ACCrNQ==",
                            "noiseTrainingType" : "default"
                          }
                        }
                    ],
                    "start" : 6328,
                    "duration" : 467,
                    "mediaStart" : 613,
                    "mediaDuration" : 467,
                    "scalar" : 1,
                    "metadata" : {
                      "WinSubProjectDisplayName" : "",
                      "clipSpeedAttribute" : false
                    },
                    "animationTracks" : {

                    }
                  },
                  {
                    "id" : 93,
                    "_type" : "AMFile",
                    "src" : 9,
                    "trackNumber" : 1,
                    "attributes" : {
                      "ident" : "Aufn. 07-11-19_028",
                      "sampleRate" : 44100,
                      "bitDepth" : 16,
                      "gain" : 0.857871486969923,
                      "mixToMono" : true
                    },
                      "channelNumber" : "0,1",
                    "effects" : [
                        {
                          "effectName" : "NoiseReduction",
                          "category" : "categoryAudioEffects",
                          "parameters" : {
                            "denoiserAmount" : 20.0000000000001,
                            "denoiserThreshold" : 0.0,
                            "noiseProfile" : "IkmcP7MrtT7cUYo/FpG2PVTHYDz444U8zjbOPPoN1Dsb/I48w/MUPIwdlzuw3iE8c5VBPGPemDsv\r\neJ07xkkxO4JdSTumHDA7cP8WO1rMezoniHc6AcRAOlLzVTowDKU5k87xORaD5jm/htw5u24wOtgw\r\nCzpqMBE5M7PNOZVCdjlUOqI5crZsOf1prDk8x7I5d183OssJjzvwnDQ7NLRdO1L9qTm2MiU6/Pap\r\nOoVn7TotCBw6NI1mOXC7dDmueXc5tRvYOVqVjTo9f6I6QSReOk+QLjoGFhk67qoZOmc12TmGObs5\r\nS9SFObVzczlOZgo5FhZiOQjPJjnSXUk5xTN5OXCR8Thcp8Y5s6JnOXDXszn3vHA6jFGWOk9TCjr5\r\nNg86VqPaOYlbwTkVWds5tNyTObQ0bTnW7yA5pamjOHymqTjQcdg4BeG2OFiQrzkny4M5FoQ+OUjy\r\nPTmZtrQ5hMCYORetOjli3eY4b0RrOYovWzlfvZo42nqIOMnIuTgEZwI51kgQOamwYTn6w405JRC0\r\nOHYRmDlnEjg66zH6OPIc+jjYCuM4poVUOBIc9DgQGgo5lKllOO//Tzl3mdw4jZ7dOBkgwzj+8As5\r\nBsIROVc2DznnKRA5O4Y7Obe9jjnYAlw5AP7PORGAGzmeGtc5/onWOQgJmjkE9c85UZEUOmdo4TlP\r\nYSg5plJdOUTWvjkPZGs5nt3FOOnSFjjb98U43DfbOIW1QjhywJQ4YlgDONJLgjihkuw3QFUSOBpZ\r\nQTizvg04oyjEN6gpUTiKeEs4AuGxOPUQ0TdT4Gk4xANSOLrPojet1jc4+V0UOA3QqzcIbzY4D7fI\r\nN362UDg5xR04oVWaOEa2vzcf9lw4NQHfN0GazzfdknU41Y9YONzciDdMKYw3TmC1N+M1jTcugxo4\r\nCFs4OWvR2jgDyaA4log0OG/tZzc/8m83V+QZOBIpPTmry6c43KMPOPpyBjjMtxw46mLDOJCdYjg6\r\nJWQ4s72bOK43ZDha3Zk3JGm/NyAuCTiK9iU4VBS8OCMk0Dg6JqA5SGunOeWGEDgL12k5yu8VOYM/\r\n5DgvhXY4aLozOKobdzeL/Ys3vVamN/R2aTil9o84NDiUOK9X0DjnPhg5FdANOcyUZjmqf1I4GUtr\r\nOAE4mjh2vqk47JYOOaaHjDnm7Qk5ylJnOVAB8TgIOsE3MhKeN2tpEjeW/vc27JAfNxFQZjfyHcA3\r\nniW4NwBLgjgcBLI35OwwN1jGXjh9DHs4RjZ9OMNKejdzcLQ3XUjrNo/ndDcM9g43ijZWNyJHBziD\r\n7Ec4cFUgOD6VSzdX3Js35uT7NimtCTgnLJg3F8JGN6RVuDZzsgA3cLddN1iyPDfaYBA38nxvN5oS\r\njDZBrJc2JmNJN2YTGTjkeYI4bclcOLHXujhwmi058n+GODTgvzcUJ9c3/BM1OHTGDzjGuIw3x1jH\r\nNsyyLzerKuI2sLBlNnvZQDcX6k03SxzHN9bLBTjMYIY4IWchOO0sBjjeVos36CHSN7eDizcxwDM3\r\nXwk7N9I+FDfeKwA3eGM0N/UazDa4wtQ2siCDNmNDvzZUObA2FgC0NnrbETfv+rk2mp0LN5uiGTck\r\nP142xmWENpAbsTbCDaA2nPSVNo/Opja6GbM2Om72Nnm+kDfPFwE3RJayNjEiRDfJL+g2xJiRNhhR\r\n/za0dCc3/HI8N0tP7Dd2jX83UN9zOIgsATlWUAk5XbIsOS43DjkvNTU52pc8OQUPOjlmBg45qJmX\r\nOGhbJzgSSJI36rfyN498uDct4aI3h8FhN04MwTfiSbE3ABPDNyXGcDeyDoI3bBETN8v+VDcwUSw3\r\nSlYKN440JDfbXlY3lKckN5o8MTcZsk03V2bmNnsZjTachgQ3AxWtNoYBDDeb9II32s8eN5VifzYy\r\nnNc26fo9N3IECjflLTM3fFTpNkXpIDeb5hc38NoAN4RGAjdYQ0w33GgCNxiITjcQpCY3iDTqNvrT\r\nBzfWLGM3DoqHN4r8WTa5nIg2Yi/eNsqNYzfCwJE2pQYkN6jmHjfyGpE266teN3Cprjb81702+E32\r\nNqUCHjZgOS02EjMnN9y/NjZtBdE2nYunNmecTzYrG4A2LPBENlXOOTa279I2B6CmNoL4Vzaazos2\r\nYMyfNn3LEzfUdsY2bXbjNhrBvDZSIxY3Es0VNyONcjeSsnQ3p+8vNro4yTZ+jnw2ts66NiKdhzZJ\r\nPaI29DeONsdOpDbAL3M3mweAN6xSoDcZ/KU3HIxJNizX3DZGxRU3ST4mN6S9kTZ/iuM2a7+ANt7/\r\ndjZA6i42wMxANmZw4DZnUhg3OM2CNpjZ+jUKFQ433DW3Nqt1ADcFCXo3T8+MN0ixXDcL62s3VeuA\r\nN6vNgDeKR9c3nJKiN/IKgzcd9kQ3/0j2Nik7PDd0l+c34EsMOD8USDhWtUQ4d/9aOLkHyThy1ws5\r\nI501OREdETlrRps4mWCMNyIqDjfT8oA3lNMtNxolLTdiQuM3+uz2NzpLqzc6QJo3b3lCNvrCrTbA\r\nqzI3ZLkqN7nAZTcCqds3niZYNwTyTTfqE2M2+zIZN/sqhTdCUYQ3Qr+INzcAzjdSToc2WlJfNp6r\r\njjZAUwc3MwB3Nydj9jcCG3o3MMwTOP0IHjj0OcY3/envN9m6qTgC+vI41mKmOAIJETgN8wc4Lo+F\r\nONbX9TiEFoY4tH2AOHhOVzhPOBc43i0dN9CfJDYiqNo12R9tN22fOzid22E4dyezOF4A5TiAXMI4\r\nWrDJOBLIcTjMX/M38hyKN8KX4jaanCk3PnzTNmv4STcaWiY3w7/BN6nFrDfLtJM3A2veNhVUoTYj\r\nFNA29TIMN+9rljd72lA3JenKNqBeVzcaThA34oEVN74xUTdQoH03mN2VN/46gjfzOic3OnSCNgS2\r\nMjaIGUI2sp2sNgT4ITbeAWA2RdO9NVlTmjbGOz8202ZdNta9NDcEow437VQPNzcaOzaBwg83zC8y\r\nN+9cJTd/gQM3oTbTNTrF+zUB3Jw1hKUdNpdrKTbMjb02cBETNw4biTcwjHw33PWaN8OyszelGLA3\r\nBhcqN4iDuDaLG4w1mxhQN9mz7jfhTwo4CvcrOC6R5TciWxA4e5b8N0qXZzcFK5M3UI5xN5irDjdb\r\n1oY2jdxjNuZNETYa0qs23upYNZJaQDUCa4k1lIoaNZRToDX4R0k1WSnQNaLJHzUNdqE15ZELNX/p\r\ngDXXxoE1oZ2GNRRaFTakTZU1h22BNZVpHjV+aoI1vkWVNbIcvzWpfoc2kvWFNmsKBzZWkAs3mt9A\r\nNgYCEjabojo2FinjNdMGWzYwWmc2Ycw1Ns2mADYoBU02Hnu6NcRKGjYe8MI1qMszNgAIGzY/c801\r\nJKBBNurjETZ1fHQ2NL/tNrB5zzahIyU2YqynNazbEja/bAk2VvVoNiOzlzW3DC01lacvNhrP7zVp\r\njwk1iv3PNYxEwTUltCU1hvzaNWyWgjZwZAU3CAh9NnmN+ja+VHQ26rG3NkNLtDboyBU1wNSNNVhC\r\nKTUM4aA10RbRNLSErjXmpU41FKoaNq2gkjaocWA1j4kQNSZ6gDWydbg11t5QNrvQkDaNWD42hoBa\r\nNjIo1DalraQ2rvfnNuRBBjXa8eA1IJd2NTb5EjYk/0E2rLC0NaIRQzWH7Ug1TT4bNUy5HzXVI1A1\r\n4ulaNbaigzVk4is1lmjvNRZ0ZzXOEnE1w3n3Nf542DUnCtE1xgH3NWuDGzb3zJ41AF03NXKi5DWD\r\n7Hw1r1YCNj51FjZeBq81UhIINtD3ajVvamY1bDQpNVsa7TWcyug1yP01NoSDdTbuIy82ymQzNb9y\r\n1za6GMQ2Rv+xNf2+NTVUHz41XlV5NuBKZzat1qA1lF1oNQdUITUkGcQ1j6BHNS0RKjXciGs1Praj\r\nNWWYejWhZS82xNGdNuXEGDaY3Z428HvSNVsSRTU+rjc1HFVZNkb9+zbZ9CM3LYXaNt7efzYRoHw2\r\nQ3OjNeoBxjWOlYg19YvDNWOf5DXV9v81EK6oNjPUjzY2X6w1MtRmNRGWKjaFYIA1TkTYNRz+BjbE\r\npIE1FpmfNQxzBjeNOO82MDuuNa3aJDVe0rs0h15eNggaETat7Wg1n9MYNZsVeTVdBYM15fm5Nt7U\r\nlTbc2ZE29ZlzNo7DtDYxjic3UvJWNrMxKzbeVlc3IFRDN251lTZJARY2pF3sNrK38TVDA1E2TwrF\r\nNnm2nzWQu6M1znPRNqhJyjUCMcI23hUcNyrP9Db/AWI2qeuxNiT6dDfcuus2Aj3BNdbKrDZJg8g2\r\nPNFKNgbyCja2vKs17CRFNa3sFTVs5iI1WBNQNThbcDVbVwY1SySqNcprNzWSGUQ11NgdNd8KwTSe\r\n4Fc18QAQNTRFGzXpxPw0iWIENQUYAjUOj001ZCcbNUtr4DSFlEA1Du4NNeTjPTXWoZM1R5ZCNaim\r\nFjXAD6M1SfgWNdzYGDUoz341cKweNQkgzDTUbCo18C5jNWabETXBHxY1FtAiNfRhwTTgHL81DqM+\r\nNULk8DSp9jk1cFo7NQJBYjV1piI1k9NyNT0sKTV2IjM1XwQRNVcLFjXO4iw1OIVNNcDFRDXdpN41\r\n4VlJNfaaVjUMZ3I1ff37NF5y/jR5n/c09vMMNTMorjV90Nk0TgAMNainCjU4gA41DnX7NK4JsTW2\r\n4sU1cpZCNUTuUDUoaGU1sIYwNbqXFjUaFK00kBSANbXpojQbjZw17LUaNRfISTV8UD81mi1FNe1t\r\nHzXaAZE1frLLNP6ptjU6oi81A6pYNW93CzWEhaw0UVPwNK7EfDVQ7t407xE9NfMKbzX2lj01ag0j\r\nNdrWlDVWH2Q1Ky56Nf61gDUGMCM16j+iNCD6/zSh3PQ0MFmENXUugTWWPp412VwvNbVtCjXSuQM1\r\nePu/NRKuHTWgRhg1HFpLNbBwhzWK/kU19F4ONVcmSDWM1As1UJ8GNS4UfDX91BM1FuQdNaNvKzUJ\r\n7EY11gLXNDG48jSbbTQ1QNBSNQ8/GjXw7F41cA81NfoZEDV2oRw1yvU9NYUCFDUc5oI1+/lANeGl\r\nmDXlNss0bsgDNYDJGjVWtUU1Za3DNPJASDXxBek10FUPNaA1MjWWgS01KwqLNUlcbzWY8P80gzZO\r\nNSK4OzUaZzA1WW1ZNWfP6jRuzyQ1AL0PNXjWFDXm9DE12XcRNVfsUTUKRwc1KZdsNXle1DSBvh81\r\nkT4RNUYcQzVKkt80EpEtNSyLEDXcUDc1fEn4NIS3fzWLzSA1RlJJNQisAjUIfIc1jZmsNDKcnTV2\r\nt+o08rR0NYonbTVwxJk1+qRTNdNGxzTwEh01apjONNdgJTUC/y81IZghNZJsNzVk3gY1nJEKNf8d\r\nMDVKECA1LfYANU93BTWEMFo1jlUENa32pzQMezE17fcLNVrxNzUqjMM04mlhNSdgPTWELwQ1GPsA\r\nNXpLTjWrjyA1kVzpNFAKcjWtQEg1wgt6NTKXRjVqevc0EPPNNEKqIjUBs+k0GNMjNQAAYTWCHtc8\r\ngjRqOhFDzDpuF7o6tO9tOqq/PDpYZjU78WWTOgCRozo8XlI6IBhROhcJRDrOhqY6VGJCOpDMwjo0\r\nM0M6MaeIOuQ/EzsG+ls6Ik8IO1qrszqshDM6/FTQOjWDGzpu8rM62zvKOqbVgzr0o7E6w1jBOjkz\r\najq4fYg6Q5oKOlE3gzrIRkc6MbVkOnuKrjks/7w6PwyNOsZJgToarY06TPxDOnBmmTqd/zc6eaUy\r\nOlz4rTr8N506zCvSOr1mVjq7OnE6fCVMOvi0mTredNs6EQWcOjTujToQMk06jPNdOjhW3Dm9IKI6\r\n0WZPO25z2zoqqo06rywQOiwetzpCYqc6StUZOoqaPDpu6lQ61YyLOmsnQzo2uWs63HwDOubphjo8\r\nlrM6gGKEOmCBdDruFOE54WKmOplpeDpcfJc6X3cHOrhujTpKhNQ6gh91OlwXPTrWCoQ6z1EyOve4\r\nuDpO13Y62U8rOrE+gjpk9dk6c36OOqI7YjpxtyA7BWzlOiCoOjrQd5c62K+cOjQzETpISS46raT1\r\nOcu6lDowiJk6ivJbOgdciDrCWtI5yKPOOffmjDqkXxQ7s4qXOlTNmzqZBJQ6/7g8Omo2RDqw2Gs6\r\ndhgZOwgrBTu3dJU6G/vpOt8exjoa+YM626U9OsrCXjrBInw6Cc2/Oq/svTo0FlQ6i2y9OtiCwjqj\r\nzMk6dJsuOtKssToGwRQ66CVLOljLpDrpI8U6IxrEOsDJujrSvYU6sFBOOgEXAzuBfSE6PjdcOtR7\r\nhzpY1j862n6/OoRMGTpQPe46ZcCsOmoBjDrtid86FuzKOm1cKjvSRDY6e9pHOnEwmTqECH068mu4\r\nOiTzHzpsHqk6392tOtxGXTpNGIc6xBWrOjjwyjrApPg6uOoeOkjdRzonGuY558SIOvZgdjrQYoM6\r\nzgBrOoYOgzpZZZI63l+jOqiU0TrhbJ86Ft5cOsUBgjoa/uw6tLLZOgmixzlol3w6ggR0OvLigDrC\r\nYRM7EuaiOrqWlDoIVJg6g12EOjsK3TpdBMI6HhmTOu3RCjo/OV86LZJ6On9e0DlIHq06/CwqOh+E\r\nrDpMIMY6MB+wOpj+qTpEXIQ6TQZKOgfHkjp6cTc6m6kbOmCByzpbQqA6KoGDOkQ5iTr826A6rMRu\r\nOi6OMDrExVs6Giy4OmAMljrg+Oc67AFkOpK85Dn6by46rJCGOtDRvjpTupY63eX9Orlo8joNTfM5\r\n7HmrOsDSgzoEw+c5J8RJOqPloTrnYX86CLuBOs03hjoI6n06RdV/Op2dRjppDag6xdLHOmztIzpR\r\nr9Q5iFdQOjyHUTrUTWI6wjAxOu0GYTp18XE6XuLmOmM+njoo8no6leV8OpVLbzrEcpc6X3BHOgZY\r\nnzp478s6D7BdOr5cjzr77Do6Z1UtOhyvUDpuflo6yDWvOmiL9TnIc1A6kgV0OoYl9Tp7o4g6C9qJ\r\nOt5tADsF6rE6HRguO2xrkjpKZJY6+PsIOlE5rDoarkA6wRHGOiWukzois4Q6ksCgOmDzOzoOzlc6\r\nkkjEOq5u6jpxKp46HDB3Ot5mdDqbRkQ6bsfSOo7hXDqc7kE6FFVwOiHMmjr605w6yPMxOkZs+jna\r\n0XM6YjdgOuSaUTrDTp067a9aOlBTbDp6gSg6UPkqOsuhdjoR98s6JJ2bOjMNMDpOXJQ6Knd8OpEe\r\nNTqTHxI6Eu//OSWwXjobiKU6xARUOpXIwzpN6+g6YBGNOpjlczowqzI68FNPOi42PToG8Z865KTY\r\nOoxkIDrzhZM6Uh4+Ok/3hzqEjdk5aYGROsYaODpiC106a4KCOtfqEjvhzV46aGogOlZE2TqDK0k6\r\n/RngOcyfLDoGJj46dlKYOtRGBjoW8K46OQAyOh5FUjqE+oU6lLE3OvzSnjqCUyk6TFaxOtl/YTo+\r\nt046kmJ3OrgTljqR/pQ6+TaNOmaZtzqTBdc6kqcgOgsdtDpg8yk62Q9gOl54oDo4uG0637b+OXtY\r\nVDrv8Zs6GE1OOkwMlTqjhpc6vLlaOveHWDp/QyU6SwVyOsj/Lzpiw0A6YySHOgHGRzrihoY6xUKx\r\nOrXnbTrAp5U6+ujnOu3GCDuKrPY524+lOt4hhzq2ybM6gK05OicDJDp4Ids6vp4eOxiOuDrApak6\r\nPGUgOzcRqzoSzF06pv0tOtNrOjqOviE69hk2OqCiqzr2/u06FnJ6OqQdfTqggXo6SqnxOWv/MDoa\r\nSks6KAY3OtJAAjs9MFY6rNeFOlgDMzp/8Co6yjQSOxy5cjpk56A6omCcOhJKKTqkHaI6SD+lOlTh\r\ncTuJzvg5acuKOgMwdzoOsSA6LJEtOl+VOjpFnig66BF3Onbsgzp5/6M6HkyZOgH6VTq0AVw6wDll\r\nOhUsTjrQBx06Jjw4OkUSnTqLRmY6z239Oa19NzqiTQw6PNVLOhTlCjq0Syk6woOaOhyS9TnZKgY7\r\nyG00OrZhGjrsInM6I0bNOolTezrDfUw6DNE5OvBdOzrxl4I69gSFOuR26zpmMAU7xIbTOk1FbjoG\r\nIxw6XgLbOqZVgjqgNDA6Ky1zOl7Xjzq7Yt05wh16OuiUNzoteoE6m2IWOgbbNDoOikQ6JGGaOjpV\r\nwzpEIaU6ngk0OjrtGTqD8E06b1brOjp4gjqXkJM6es5KOgQoxTqm1VU6X4ZIOuLvKDqS7Fg6XVcR\r\nOi8UnTqKFSg6aFjlOrm7EDptm4c6Eg9JOjTGRzoSa2w6tRyzOvQ9dTrG1og6OVOLOgh2hTpuDps6\r\nE3VuOppKsDpd2Kk60u+oOgiIcTpAFFw6vbG7Ot/f+DnBGGQ6xzd5OjCAojrOQoY64K4vOnui4Dof\r\nJEM66UUDOqH9RzpGMpQ6kpK8OkSWIzoCtY06ygdlOkf+lDqCVfs6OtNiOvj0rjoEu5E6rkVuOlv9\r\nQDo+4jY6aBGcOjjegTrieCQ6kDZYOtG53TmKgsY6FvCXOjhbkDoXD286O7BCOi7hjTqUxCA6ialA\r\nOnEGBzoIOFc6V7mxOoMU1DpMIZs6DvSMOnPjkDqc9UY6m6AEOh0M+jmFkZc6XXyCOoNNHzod+0c6\r\nnqWyOizRajqaZF86du6dOkqlkDoeEWM6WtiqOqAV2DoMT6Q6TtXdOejKdTpLowk77PafOmYzVzp7\r\n5F46evUtOtTA9Dl130A6RT2AOmeU0zoJ6jY67F94OqrlTTp1Eu05zcNdOvPRoDoQ9fM56zsaOr8J\r\nhDr1aDw64/gyOoyz2jrlw3k622HKOh5aOjrVo146gX0TOsmVITq7kok6yX+XOh1WEDrqI2k65D+o\r\nOvnlsDoe9mw6WgteOkZWJjr0dx06J/SMOh2V2zoYq+A6+km9OdDqcTp+J7M6U+GgOulOtzqttE86\r\nVNqtOgg4EzpNX106HwUmOuSiTzoUfoY62+u1Opz4YzpAHoA68us1OqSeizpMjDc6YH/vOuHO5zmG\r\nn3Q6r9VIOi15Azok5C06fRYfOmsmdDqhC2s6XSdSOh7Mkzop8/M6XN9QOttaYzqdML06b0tLOght\r\n8DmUB246b+5VOttUOzrt+jE6eqPDOppi4Dr2jFI6WmYgOoIB1jkLZSk67w6yOjUxUTppwAk68XQS\r\nOogGpzqM3jk6iQq5OkK56zm9hUA6blVgOoOGlzp/xiM6Hzw6OozXGzt6EXM62HxBOsfIYTpCA3k6\r\nN0T3OZldUTp+I446Pf1YOoYpVjrWLZk6QrPZOiLZkTprFxQ6YXgqOjaQmjrn8Sc6R+vQOhBgzTqC\r\nL7o6DoKsOi1QhDp/+kY6Rl1IOt5N+Dn+O1k44V4FOr4b9zlG1zQ5i9w3OU0PAjjNJPA4bJh0OYsx\r\nxzgCww44BAGsOIzftDhkUVk4GudkOQBNiTnQxJ44cxWeOJbIGzm2pIU5YHRyOThYZDhspPg5sSBN\r\nOrjVOzqdRmc5VvgbOSJcQznOfgA5WhpaOZA7gDhr6G44T3TfOKzisDkK4RQ6dt2cOXbU+zjwK+Q3\r\nRpEOOGJobjnX2qE5/dcvORIyXDlaKPc5slR+OXseITd0KgY5QKBMOuYKKjqpVg451OseOXlXCjnp\r\nLmI4LaUNOF2UMzkrfE84UC+eNWGryzlAXBc64WU/OWaVeDm5LAQ6ozaNOR/4RTnIvck5xeP9OVO6\r\ndjkjDPI5X7GIOc0mozpeghE6v2NvOvuBtTkqLSM6zawEOhUNzznU32k6SUO6OZgKujnWGlY6nFiE\r\nOmQ63zlUEjE6z8ZCOho3tjnsBQw570DkOEm4XDmZcNk512FFOrcYAjnsE4E6IFDjOeaymTnpJUI5\r\nwVy6OdBXdjlBWR0414cvN62wOjeB4Ls2ejWmNrzTiDZElmg2uK//NXW7SzY43v41mlvgNW41zTWe\r\n0Bg1l6amNcBIhDU7hL01osg8NaO/TjVOE881EqwsNUFCiTV6OYc1KKUcNagKJDWlP8M1xt32NO7+\r\nNzVPoBc1SVsuNX5/MzWMTjU1sZpzNRq/UTXMtv40cmIBNaSNFDVkdg01zWoWNRAAGzUrSyU1YqcD\r\nNa9w7DSE+cQ0vCgHNTmXKDVwags1yF45NVsJTDUZEHA1PDSnNO/y1jT2ECQ1jD1yNXEYnzWuhKw0\r\n5i0WNdRNkzRLvS41liVGNcl+MDXgkDY1/iQiNVbA/TQEABU1X6/VNI9cNzXltOU0GyneNOBaETXm\r\nxys1EIXkNP5WKzW0S/80FiAeNRATKTX4XQ010l4ZNdTANjUW5yo1sbthNUhpKDXjYlI1FCvkNJwP\r\nBzVAzAs1+NMQNedYYjVaLKU07uuxNJNUijWgX7w0RB/5NJXkSDU0A+A0KLkMNXYA7zTqrxA1cU9l\r\nNTxtLTVWLMo0iGMbNb4HlDQh4dI0tlIuNYJJZTW46ks1rvgENTcDOzU4cAo1+wgDNb/x9zSHZts0\r\n/IYiNUSTlTQSgSo1X0FLNbgcYDUgqQo1xyBwNV5OADWJWwA1fR8cNVHDyTQcyvQ0WLS8NJr0+DRP\r\nKqA0WY87NdfgGTXh2d00vpODNBPS6TQnpgw1js/uNEqz4TQYzMA0hGYKNa8zLjVyCSg1bTgoNdU6\r\nwzWxNAU1ePxsNWPy3TTCoUE1ttTING1VIjWa8+Q0L6j0NJaUzDSVjCY1bzFONbGsCDVvevc0QEv/\r\nNNZq9DR4+No0VXvbNMLfITUu9SI1hdsZNZkiDDWsBRE1pUYANYHeKDV6WcE07oZMNYAIEzUUJYo1\r\nylEpNT7H6DQ2aj41anEZNRUh1TRYO6w0ZuEWNW3zIjW8cb0032QsNWOhRzUVkqk1CharNSwJqjRx\r\naxc1RB0FNeibLzVAzzw1q4EBNQsFHzXXTcQ1phAYNYqYFDV07wQ10NQ8NSmPTzUqiAU1JEThNEtn\r\nGjXzUEs1zDYXNQQGjzTt+eM0hK/GNAFy/TQ2duo04EqANf9epjRYvvg0iruuNCpx1jScdbU0n7kg\r\nNauuLzVEP4M1Dn2/NN4ZMTWkJ0k16FIINWS6CjXcLTc18uAxNdbzuDRIID01AEAENQ==",
                            "noiseTrainingType" : "default"
                          }
                        }
                    ],
                    "start" : 6795,
                    "duration" : 742,
                    "mediaStart" : 36,
                    "mediaDuration" : 742,
                    "scalar" : 1,
                    "metadata" : {
                      "WinSubProjectDisplayName" : "",
                      "clipSpeedAttribute" : false
                    },
                    "animationTracks" : {

                    }
                  },
                  {
                    "id" : 94,
                    "_type" : "AMFile",
                    "src" : 10,
                    "trackNumber" : 1,
                    "attributes" : {
                      "ident" : "Aufn. 07-11-19_029",
                      "sampleRate" : 44100,
                      "bitDepth" : 16,
                      "gain" : 1.0,
                      "mixToMono" : true
                    },
                      "channelNumber" : "0,1",
                    "effects" : [
                        {
                          "effectName" : "NoiseReduction",
                          "category" : "categoryAudioEffects",
                          "parameters" : {
                            "denoiserAmount" : 20.0,
                            "denoiserThreshold" : 0.0,
                            "noiseProfile" : "vdMgQSExCUGex4U/6WUDPpdCZT5dKKg9WmCXPTmT5jzsJQw9+x5DPTh51zzqdro8Kih1PGoQrTvb\r\nAwY8/uH+OyDnjTykVqY8SBbzPHzSAD3onhE89vLiO5agmDt5L4A7Ok80O9P0jTvAwhc8BM6TO6Q1\r\naTu+NXo7HLyZO8tlrzua2Tk7TBqOO9ggzzsZ0qc7hPO5O5u0PTzor348oqGRPI6dpjuVPKA70H+X\r\nOwrjKDv+yak7cpxuO+xOsTsKW2c7KOMfO5lRJDv2cFM7jZFpO2L24Tv9bu46gU0CO95+VDrQ7586\r\nPlDsOuOHMjtIhng6ThoDO+yYrzpQZk86Rtl6O2grRTr8RE46uQjuO9II1ztuJto6841ZO9BoFjvH\r\nEU879UiCOvX6njqJaSQ7gU72Ol4q7jtFsiE7ww5QO+9YkjsQBhI7O/L/OgviCTuWrew6mUvQOira\r\nXjsis+M6AXaLOgvaATt9JNE7RqT2OsOLxTojc+860CivOv5OXTq3ATE77puNOomjvjlOaGw5dlRp\r\nOvLdADqMr106IrQfO9PaCjyeygw7ahGuO56RQTvlj4I6SyM8OzpYVjsCE0c7GVpaO5IytDvDm8M7\r\nHetdO/eMhTtEjlE77kWJOppJ0ToKvm87KXo8O2qdFDvTDwk6R21ZOei8fTmLpis5yUw5OUSfpTku\r\nacI5AT7POEcbUDn4VjQ6ffHmOE6MfznUXZo53+8POWOnkzkzDYk53SFuOZWzPDlsIGM5IhZ8OVOK\r\nvjkdIsM5zNphOcodfjnmE4o5BH5ROSQidjntAgo5Do45ObthHDp8Wa05+JhsOXxzoDly/9Q58bWF\r\nOSOdvTnPbpY5SgKiOSWXrDmPsQQ62m8gOkKfoTkox4w5xw1wOVmbMjqa0W85ePS5OXfvXzooDUw6\r\niAEOOd6YnzmQePk4cNL3OEGt9jiApTU5v/F5OYPrBTnTn144iNfcOH+HDjkhnZU5SCs5OnrFnjlg\r\n93M6SjfyOeo+eDpGdhE6Ua5OOk49nTqI9+w5TBaTOq4OtTkgOSQ5vtIsOQQMMDntSrA5njyoOZYJ\r\noDl4fww57saHOPEWGjne6E84vXhZOZXvyDgVzJk45DQPOfqTmjjvnNs48cV2OEDnzznBdGU4ml12\r\nOSZFuTh1WMM42ThVOahUkjmzrl04uwbUOKbgHDnS5As5LzIpOZii1jhwa4I4dnPvOP54yDiyhJs4\r\n2HxxOZZbeziu/MI4V9j9N5JCJjkF61M5T6WKOM4pgji4FFo4yWGTOIBBgzh9b5s4zC4lOOgYBThc\r\nXqM47EYmOAvFTziSqfM3O2/rN/pI9zd1v50408jMN+g6tTcz+iQ4wO0dOEvM5zcwEjs4XfU6OHb5\r\nRDjNyUs4JI+FOHkgCTihGk44rPxQOAuEsDhVzLo4BC8XONb3rjj2Y9s3IuWjONyGDjiXS3o4j9OC\r\nOCWwvjh6ZBc5f0hdOPD90zgm2KE45D1QONXxbTkYPzk4VI3cOMJQYzjNaDU46j6vOLzmlTjto6o4\r\nIG9YOIH2HDiAcgE50z0KOEniSTiaBi04exorN+Knhjg2cZc3UXIZOJ3ZnDgHjJw3mR9aOKbAujfy\r\nCCY4+iFoOJa6Xze/KF83s1VFN963NDg2srs3cpYhOOLOWDfc4YE3MAyGNyjowjfutGo48ncIOJ49\r\n9TdRWsA3KEhtN91AJjimuPo3FIWLOM4wPjg55rQ4FJPROACwqzjNB1Q4HISNOKTJMzjKjpQ4E5M5\r\nODkTHji/V703dJSrN7sJxDdkOB44aoxpN5krwDeo5PA3lvvbN7Rf3jc6Gdc3fO+lN/xb7TeJmIg3\r\no1KzN/NgyjeV+YQ3O6WwN/j4TDcNygI4uCqQN75WHjhfdEs4rUOgNxxcFjjHPWs3ehd3N+9LWDeS\r\nSwE46tLvN3DFaTdtXAo4K5+ON7tIJTfWrMI3+8ixNwHFrTd6Nro3pvxoN8Pylze92h04Ue+cN8vI\r\n/DfDiA045liZN9YMBTc8FpA3SmnaN1qVYTfw3gk4jMzjN5DcWDdRqrY3MZneN5i8KTg0nvk3+fBO\r\nOE2TIzgM6bc3LF+rOOPWPzig5j04KqI9OCZqWjetDZE4Vs8NOCzwODggdrI4ko+5N8DE7zjkodo3\r\n80ybOMlCgjjcPqE35F9kOJGL7Tdww4g4OC2AOJeGojdQ4D04jq5BN/4qKDiANwY40vWIN4SZ6TcT\r\n3OI3VwvpN9rbCzi0+Ks3T0KaOMbu3TfMRp43W/CfN8sVojcYvrk3OiMWN5ZKDzd2gYk3mkxWNwSZ\r\nIDg1oGw3NXhqN8YzkjfBNDM30OVjN+NAdTfZJ2I3eH6QN2UYgDc42YU3+/WyN1VOkjdqufQ3VKmr\r\nNs7rdTfYnoY3qFBqN091tzcNHwc4V8aFN+YeOTeV+3s3idOnN1aRhDe9J7M3NBtNNxUPxTdjqGE3\r\nIYAEOIuR6zZjejE3PlxPN99k8Tdiepo3yQpROIvnlTcHfdU3w6f3N+0i5jfdlM43LeDCN3JX5jfP\r\nPvk3Qx2wN4zkhDj4GD83psarN4G5GDgMQl84C3tIOFAu7jc8D684fG5qOCjmZzj7d4g4ESJLOCs1\r\nMjhbOS84ugq/N8dSMDh928c3oH/WN0b/Gzh72Co4yjOVN2xzVjh4rMA47jdwOEahjjiRyLg48dIK\r\nONSg2zjKxMQ3U4VwOH5Q5DdKV2E4o4IuOINEijjl34o4XSJNOLRLnThKxRQ4uPw1OFxhlDgAWqA3\r\nJpsCOP8/xTen/bg3yz5mN2ofYTdqNTI4h2lnN4Od4jdIJnY4ZdCyOFklQTjptNQ41C7bOLgvTDiu\r\nbkU4AucOOCLkSjjgjCA4Sq0YOGG9Rjjasmk4B2hzONpzpTgo4Y049UajOJ75RjiSa+c4RfOBOHF1\r\nsjjU8Cs45RqoN4+lGjjJYIg4tT8yOL64Jjgi2ec3rOpIOF2ICTdWQX84pQ/MNyal1zcGZiA4J1YB\r\nOBfEUzhceCA4DjhZOH5qezhPjxQ51vxUOJjFFTlsT9U4MjnfOMlv3Tjykb44iAHqOJ9mwzi6Zh45\r\nOmO+ONYzpDg+vrc4qpPfONQgWjnNuCM5PI86OYieIzlGvCE5PLn9ODRhoziK3ss46Ke5OEq4vTjo\r\nEdk4Ws6MOHDr6Tjl6N84OtD3OMK7CDnHWwA5l+cjOZTBCDk4sLU4WrMiOal+MTljwyk54F2dOBNH\r\ndTjuALY4Adx/OCKKhjgKUFY5irc2OXqZqjj/gbo4jGD8OGumsDi5GjA5dKJNOcQhfTjSHNk4ro8W\r\nOd7fuzjSc8E4/EafOMoPIThyud04a6LgOKByXjiMkjU47javOGz2mTiyo0M4iJWEOAujxDh6yz44\r\n2DnHOFQwtThbC6k3u+wROFGxQTisnqA3t/0qOP9KkzhwsIY405vbN27brziQ6no4xiq6NyseIDhE\r\n0PQ3Bmr5N6yitDe9aC04/0zVN9Yp9jcAMqs4eCXmNysiGDgAbpQ4GTIjOBTwLTgbuZ04InTcN4t4\r\nbTi0TZc4uNY+OOleWzhA2CA4SOK4N9o3VDhQTWk3Cn0xONZgNjjBw5g3gaShNkxgxzeLIxc33EX9\r\nN3Je1zeVjoY36z0wOGwVuDfG+Ak4XAEGOPEMvTdQazM4pgWNN/dbFDeKxx037nBwNr/IzTZ+QcQ2\r\n3Xd2NrzOVzauOZ82laDNNnrPdDYkvlk2o6dgNo2gPTbAU4Q2eNZlNl2igTaAsqc2BQVBN+QUOjfH\r\n/Ng2EmRhN8+B6TZkN003yO2XN0DXGzddZoQ3FLymN7y7LTfNJqY3CahzN9kHBjdGV3Q3bEvDNiwh\r\nKTdVyQ03VauRNgnvCDfby2E2eiEsNvI0ijYIoTg21F0hNtgUTje4oKU3/owBN1lqYjZhRpk2iMWN\r\nNu64XTYU9O020liCNtaEjDaWXoI2Q0/kNvx4Gjc9w2U22KE6Nt4mRDYvr2c2ntNTNiqliDYasR42\r\nCTMbNv/ITDZtJr01vR5aNgb/OjZGhvk1HeaBNnMjZjb1k4E2QTeNNphNpjYQPKA2hOSPNgDmeTbH\r\nvpg278QvNlSEETZmA2k2SA6BNoo9eDZHbIc2hc1tNg7wHzaCWJ02kNF/NvlwoDY+bCE2P+MqNkab\r\nhTaioSw2WrGXNu5zhTasdmg23gV5NgRXnjZ+KbI2u3ZgNj1CbDa4uF42B25QNglqHzbQETU2jo94\r\nNuZ7SzZ02pI28PmINnexfjaQMC42udZeNmhzKzaY944205ZANkTbWDYZqXw2qbCaNgHJlDYuVsI2\r\nwHaBNvwOnTZLX002zPSiNmrZazZnz2823CaiNp4DrTbxI0M2lSZ5NjS3wTaO8BQ3TG+ANouykjYQ\r\nO9U2hJYPN1w+kTbEv3Q23kmONvaskTbQeO42QSmENnbwojblYiA2JjeNNgrRFTelBB83CJgnNlkR\r\nqza7WbE28IA8NzTKYzd26lQ2m0xwNr4iTDYCFEc28sJMNo+XNjYQIC42vjiMNtInQjbX4jY2RE26\r\nNs+KkjZFlZQ2siHcNeOHCTYZc0I2vU2yNtyo2jWau3U2rOePNrZE6jXFPwE2Ceo7NtvudDbkvC02\r\nHg9bNtZdeDYWX7Y2n4PaNURgUjZcLzM2lk9+NvLHkzY8Qzs2TLdXNgp8lDZ2bL81jNfgNZlBRja/\r\nsUE2x/RyNr95fTao/wI2VV0ANj//ajareJw2UN5mNhRjXzZ1j4A2o4hINsDJPzYo2hM2cSCANnpw\r\nLTZguxQ2btAZNlJ2PTazGkY2FzFyNr6VkTb8+Dk2Br5tNvdkIjbKV0U2IIf1NfWYiDalFFg25GIZ\r\nN2plmzaXFXo2OwUrNv4TNjbTc4s2cE5iNuBeDzaWVbU2TbZ1Nh/o5DZviMc3rPq/N6TsLjd4LmQ2\r\nV76tNg8hgzZlvlE2Ck6MNgaSgjZbUqo25m1kN4vHUjamQBE2lR8JNgpQbza0VRc270uFNkdskTZO\r\nKYM2e/ucNtXMYjaqJQQ2+d1XNh1mAzZpMJc2J0JMNmgmQjbblK42oyyENgfJeTZPXCI2l8vdNeyu\r\nhTZngZw2QheyNnNtmTbybhI21E9YNldMPDavGtk16gweNgQzRjaPM1I2oTQ+NhQ9WTYVXLw1Ggow\r\nNnUoTjba0Gs21sNsNmYCWTaYWxw2h9N8Nn/xCTZj/pg2siQ5NrxlATbaQHc2uhBVNtIiJzZKUTg2\r\n7QMwNmC/GDaPt/c1tH4zNutwNzYEwu41mQxaNohcPzY614Y2x9SVNswDEjY8Kxo2m/FUNhulEzbe\r\nvyA2ftzHNcHoNTZg6/41BZknNhHhKzZATZM2Fq9LNvTKczaqn+k1CfOGNlfvWjbuh302Iw6HNlMS\r\nPTZi3Eo2+veLNulvazZ8YCA2xoY/NmMwRja0Q1g2o59NNqv1vjaQ1rI2y8m1NmuVBjamnZU2i6Dp\r\nNby7XjbPwgY2s3sNNh/8kjaXZYw2WXWGNncM1jXEt3s25sf2Ndr/UDZkouQ1XvFYNgBAHDbEKyE9\r\nqbGyOi4lVTqGoyo6T+UbOlX0DDrnuNQ6VmBrOoL0VjryxGQ6yu2bOsjQ/zqAbuE6m4iHOk+rhjqX\r\nldI65K9aOpSPqTpqQaY6kndxOvJchDosaOw6SFCdOl+GlTorYVU6G9z8OmBnlTqq+2o6UAv2OWyK\r\nnToPvsE6VQV3OlKeeTod4sU6vYwZOmQhzzr/k3M6DvtAOtJD1Tra4Ig6MZ8NO6TCczqYOW46UvfH\r\nOpZyYjrxHYU6CdeYOh/r6zrNljM6bUpEOtgPZDqa/Es6JvqCOj5iXzofIng6o7XYOqLciTqQc+46\r\n3ttKOlPtizovfsM6pAOSOqYlKjqc8pE6l1O/OjfkpTp+X546tWxmOginyTqXcmk6D0lNOqufhzpX\r\nDLQ6EC9COpKmgzqRQqs6jb1zOpC0lDo8MRE600YdOk7oJDqYkyY6sL4cO9hzTTqzq5Y6KNxQOhwu\r\nVjqwQro6DVlwOjRCXToT7oA6VWiQOoA8RzoT6586OMnYOuTfXzp85mE60sdVOjnBZTqkL9M6UvF3\r\nOtEUiTo6Lnc6Nv4wOr9VmDocI4E6U3ejOugNRjruV4A6RFb5Oi37hTobaJU6lLx+OkNo7TkqGW06\r\nWze4Ot9RKDrNV+s6jdZ/OnX+ZTrT/8o68v8WOjL/ETtzD5Y6kL8nO0JnXDpY6yE6/FWzOq+QbjqH\r\noNA6iri2Ok49kjo6XLs6lL+vOuKMmzqsdog6lzwGO3yiYTpsQCo6foAiOiIZ7Tn4/r46mOUTO2IP\r\nYToJWYY6zMWTOiaDlzom2G06sfK6OthIWjpyp6c6N/JDOkue1TqGE1E6psEnOoaw1TmfKhA7esyh\r\nOsE9MDpamqA6xkPPOrMUNTrJo3o6uH8XO53tIDr2xYQ6n68CO7tp9zqG65E6rB4/OoJjVTpXFlA6\r\nG/iHOnDxrjoeFao6PwG4Omr99znJkjk6R0vOOosOljpgWIc6BfQMO20fkTrYnhE6FUaDOtKU3ToS\r\nwoQ6eS3wObC2hDp4GFc6++5ZOlK8cDpG6sc6fHelOiw4MDri9DU6SBqgOtYs2zq2z506DM7TOhEY\r\nfTqczF460t7COnOQtjpw8pM6QAemOpNOaTpm+Ho6hGU+OlbxqDpIFeQ6nFGpOudq6jqrIZI6QTXN\r\nOvYTezqS3YI62iu7OmVNDDo7XiI6EPDxOmTMizowD+Q5fMx8OmA+6Do44As6EUlqOh4ydzoJR2Q6\r\ny0reOkpoajqqJ5s6ukidOqG1mTpcQ4w6wYGIOs1mbTpmHnM6Hl5mOkI6hTqgWYk6DjV/OgIbZDr0\r\no0w6FhaHOk8WVTqC8Xk63WqxOp2rZDoK+aE6KiAsOl9bojpHJaU6XKCXOtKKojqClQY76GIgO45h\r\n5zqyKWQ65HN7OoAdhjqGi3M60/2QOgq6WDrqDtE6ygagOv+NMzrCol06584YOifxOjrvafg6rjF4\r\nOupPbjpVao46QisUOigyVzp1t5E6k/V3OnBAOTrXnjY6OfQ6OjQaATpoNT06bhIRO++pLDoA25I6\r\nBCw4Ov4gkDpd16U664aOOmH20TqOwYo6E0fFOr7wDzoXhaw6o3WjOs8UhTqSXKs6rVtnOnYKCTrJ\r\nKbw6lydkOrCPhToAFAk7pHuoOknHZzoJY5U65bx1Oqt1tzq7SXY6L7rMOiJ7oDrSMmQ6gJozOi0v\r\nXjqJzqE6VvksOgn0JTtgH1w64Yf/OvnUIDo9H6c6rBh4OtACtzoYaBM7wTOBOqiL/Tmgghw6pthY\r\nOswrhzrEZj46EbGhOppbPjpId486TQg4OiJVbTqzCjw6kncXOuIyDzroH986oJn+OUcNjjqDR9I6\r\nrpbPOoZglzr4pxE6eqw+OobKWzq/yos67xXFOdgptDpApKk6d/dOOh3XuTrgAS463G2YOu6QFDpe\r\nfzU6hwEvOoVurzpk/Ak6AjqKOrIaKTojVaw65vGeOh3wdDoBoCI72GPAOnMrlDoiX4k6NmcTOipR\r\nNjptGJE6B9g7OjBxEzrXHaM6TOMfOn5yNDqW9GY6RkFsOmFHZjrYFYs630BaOhSwjjpIEoo6pD6Q\r\nOrYUhzqgcSo6nVlJOofdkjqy5iQ7VaKnOluSoDoeHmw6BOSJOslgXjp1z/o5ay4cOsrYSDooO/46\r\n4Z80Ovu96joX2J06hZmeOvpxzDpTwLQ6Z0RxOpx+5jrGtLQ6uhh5OhjxezpY0kI6iobvOoLTlzoa\r\nCYg6Z00UOkXHiToQgoY6t30zOuN8IzoVa3A62KaZOjQ1hTr1XMg6qkH4OtLCNzqANJM6DPNrOk1U\r\ngjqmSn46k0JFOu7NZzoWvGc6CgqUOmBDWDqOl346TXiwOkofgDrk6VQ6nmRNOrOmQjpbOn461LoX\r\nOjfbQDrYllE6bRawOiyvFDquEHM69NIPOvYtlTpac7852d3hOeBaVjqiUUk6XFqmOsbPTjqEzTM6\r\ndo2XOriEeDo0TH06Dnw2OjwFlTqUdE46nKupOi/aLzqLRJM6ngQKOzMtJzrY3U46NG1YOlIovjpV\r\npLk6FX2nOnj8pjqy4ic6nJduOsxvlzotloo6B2+yOsl9jDqipYo6IBZSOoTMUTqKkGA6IBoBOgQ5\r\nkDrglY86yP9EOsQxhDpC9EQ6YbNeOnm0gTrhqCU7LNkpOqlNOTpHwYs6eRkJOghNhTqG1Bk6dpSS\r\nOmzrsDr6VaY6IMV/Okh8sDrLykA6WE5pOp0CdjqNIzM6IDM5OtO3YTrRl0I6KxdMOug4vDrxL0g6\r\nobiGOi4Z5zq1GTA6hTQ4Onax9zoT6AY6xR5sOq66dDosqF866/6hOmvAVDpobG46Yh6VOnTrlTqq\r\nwmc6EGdmOkjNUzqNRKY6TRUkOhogHjofmGY6GuzsOkhtEDvOS2c6jhHZOXzqujrfLYs6OZ93Oo3F\r\nnjpOuH466IZqOmprMjrYkYY6vrh4OlYmgzoWVKY6LnZwOrKBqDq4nfg529iDOieTtjr9i086nJY8\r\nOjX3azo0/R468LHEOhgOHDqOKII6nLp1OjIKLjo6CM86nDRQOkbiQzqGZGw6jZBXOvxAQjpl1Uk6\r\nXS53OhTchjruLrs6DsMFOr69jDq0t7w6oOVIOh6KoDoqh2o6n/LnOmjBwTn0xEA6qFGbOrC3cTqj\r\nDg06GQv/OfiBXDpgHoc6+I7HOt3mNTqVPVw6NaB6OqiaXjrMarM6OAzXOrOWIjqCiCA6YQsBOvwA\r\nqzroeIQ6lwS0OnS5CzqpKHI6JLOLOtwKsjrQTCQ6MzcdOtTaPTrUgDE6cmn/OTKIWDpkTXY6ar5p\r\nOojssToR2sA6ziNqOviUuDq5H4E63NmMOhhBWTqKR346++sbOwCAFzp/dDA6bTqJOl1bGDrmGsI6\r\nzDSaOn8qWzqs9q8527JYOu8NDTo0LBY6KIueOoqqhDq38io7+IHAOhzY3Drs2cY6YyGHOtDKcTro\r\n5ok6DIo6OtHUhjrgM0Q6XVl3OjpJkDqdV1o6YhZQOvKO/DrNCoM6Pu/NOsVKJDryjM85GHeeOl1y\r\nWjpvPBQ64lqDOtxuBTqqHdI6EJ2WOiCirDqLS9o6L+qKOlfmpzr8bpU6pGQqOouNkzrO6sM60NPM\r\nOTBBTTohjFU6C2NtOva8rDrKyJ46B0eIOuWYOTpVW1A6b3ZBOuPVQTo7Fa06VKR1Oi19pToS78A6\r\nw8ytOnzECzpnRGE6wdxjOuCXVjqSa6A6JtGOOgRC2Dqf3kU61i5HOmyKNjp21R06adhbOhdEEDqt\r\nprg6lvlCOrChbTo3TKk6QH+cOgVL4DmUgb84ZN29OA9evDdb6wI57fXpOAR6QDk91SU5fAGPOA/E\r\nWjnUe2E6fMh1OktIoTlrB3g4mFCDORxejjmiCgo5rigGOd55rTjVd4M5rbFXOSQ2TTmPUAs6pN4o\r\nOYyTODhmT2U4Gm+xOPJYNjnRykk5pVWJOaEzpziyDdI4rBklOCqNHDY/e8Q1Zy5ENkkJFjaujAs2\r\nzLU1Nn62KTYl4ME1xMkuNktpCTaUPAU28Lj9NSnetjWlg5s1ngdXNl8k3jWshLY1HMsbNnsT0DWD\r\nF8M1HtukNR0IdTXi4tA1E1iLNZtzxjVsicU1UzfQNbZkuzWj3+01zZGVNUn8jTVvQGQ1yWHENZJT\r\n7TVyBuY1xG6uNTsSkDVcngU2HaGKNV+bPjUs78Y1Z9GLNfdYnDXFjYw1QlJONX4gBzbe1o41wBme\r\nNY4bdzWIzy01yFiFNbu6UjVdSk010VBbNU6yszVMJMM1ymZ3NXGXODZyTK01euouNfaLCjXKPbA1\r\nyIBBNR7soTg1yBw5JmJlOFLwqzjGt7A5ilM4Oed2UjYV9MA2Y5gHOmMVPDpiaDk4tqkBOeizZznO\r\no585WCgcOjNLsDnCaYw5YCWAOCRqgzZ5Q8o5GtJhOjqhCTrlWgE2EidROElqbjly6LE4nVuMNiq8\r\nYjnYGjU50JVPN38RrTYSjxI4hHMtOAa8BDXYopg1TadGNQq3FzU5c6k10y0lNZg2MTWKyPQ1mwsN\r\nNV2NSDWkYYg1opykNSUaWTUfFDU1AkD5NOnGPzWeeRg19Gg+NRGHJDU6iT41CMkjNQk3dzQC+zs1\r\nsCVSNSlukDVgpAw1IAlBNdCGRzUEVBc11cfjNDRCdzXynn81fg82NTBERjUgIRs1se6VNYEJODXQ\r\npV012q5HNRoxcjWsqcA0I+dKNSsTgzWRmYs1NnpQNRR3jTWNiDg1qbDwNWbTVzVHGkk10n7/NdIj\r\nYjVTBlE1hdFjNaaVoTWBGzw1wnRjNTYRqDUWQJU1+f2MNbjeKjULg7g1Hf7mNbCNJjbkkIA5UvJ3\r\nORUCxDjM14Y4udvqOO0k9jj0+rk4V1eEOBvr6Dfu6ek4ND/9OeU1DDoLZFw5fFhpOSd0CzmcVVw4\r\ncf9rNhTxYTleOZU5tfuJOK3spjnVWMI5gF2JOK81fjlAj2Y5/DnAOLbz9TbYI3s2yDQWOeEurjlC\r\nrDU5LKYsNSi+1TWPQKY1rjYbNVSOAjUsQw81d2buNIimQzWl1PA01aJjNagCGDVeIh811egvNdZf\r\nBzWxjGU1jjRGNeZiHjUigxI1xg0PNdRMzzVi4tc0O2RANS+fZDUyq18162UZNUZ5uDSGxYY1DZIV\r\nNXdNzjS98Vc1gPakNT+HBTVexAo1HrmsNBKcAzXWEE816uQwNRpRhTRZmLo0dC8/NTIVJzWGLgE1\r\nqMnXNJ5edDUmrCQ1LjBzNU2NCDU5xhg1gwwDNeLaUzXEeS011aHJNIjShTXpn0E1hRenNG+JszTt\r\n9h01vdxSNcFBBjXa6og0JpmUNeZ/2DQa/Qk1rpt1NfvnljQYxSw1JWXhNPy4OzVir1Q1hlLtNLOB\r\nCTXtuIM1ngvnNOaNTjULTMw0FI27NYqvKjXfzu80ZinMNDZaQDW6pf40F/+JNBeqUzWjrdI0bgLX\r\nNC34izUG0RQ14R8nNWgkPTXSKow1FgUuNYZ7NzVuj401VnuGNXoxDzWB6EI1AAApNQ==",
                            "noiseTrainingType" : "default"
                          }
                        }
                    ],
                    "start" : 7537,
                    "duration" : 809,
                    "mediaStart" : 20,
                    "mediaDuration" : 809,
                    "scalar" : 1,
                    "metadata" : {
                      "WinSubProjectDisplayName" : "",
                      "clipSpeedAttribute" : false
                    },
                    "animationTracks" : {

                    }
                  },
                  {
                    "id" : 95,
                    "_type" : "AMFile",
                    "src" : 11,
                    "trackNumber" : 1,
                    "attributes" : {
                      "ident" : "Aufn. 07-11-19_030",
                      "sampleRate" : 44100,
                      "bitDepth" : 16,
                      "gain" : 1.0,
                      "mixToMono" : true
                    },
                      "channelNumber" : "0,1",
                    "effects" : [
                        {
                          "effectName" : "NoiseReduction",
                          "category" : "categoryAudioEffects",
                          "parameters" : {
                            "denoiserAmount" : 20.0,
                            "denoiserThreshold" : 0.0,
                            "noiseProfile" : "RbqsP5hdrT9YJkVAV+wiPvWDPD1FFb08EUGtPOoN6Tun1Kw7B5uxO9pWzTv6qok7a4FjO/vynjtN\r\njxA75NSXOvli/TpOUgc7kUKeOi+qvzocH4M6EdiOOuauajrecus5OMoyOtPhXTrNB0Y6GcpCOgbX\r\nFzpbLzg6L44SOiQA2zmHE5Y5SI4KOjHzLTrQ+6o55xzPOce98znX8t85KiI4OTPxrTlK2aM5AyaQ\r\nOSynhzkLmrM54M2dOb6IizlSPnk5mwHGOeIOSTkAzhw5ch+TOYuraTkWR285qW7wOC+qKjlmazU5\r\nUIZfOVumizkASu44ei6BOcqUejnaGiI58MlaOe/GBTlo0gA58razOH+VDTkwwk855H1EOXY1Xzno\r\nRNk5npebOaAtFjlaukk58Z+DOY9q5Di0k/I43YEiOX2e3jg8klA5Z+WkOPrrRTnxMLo4txfxOMHH\r\nnDjCSzg4uuS0OCdVtDi3nD85fZgFOdCG7Dh1Ihg41AxLOeYLJzkLhVg5xMs2Ofp0FTnuizM5IgQV\r\nOY/NtjmqUV46X/2tOB/yJTmqac85wgphOX9VFznusWk5I6jjOEC7lDi4X3g4ooIYOcTlmDipf+o4\r\n0JDqOJbZ0jjM/pg4ViISOcVFqTioRUk419DDN7jyIDjIMck3kNJhOFnaUTgP7d84cLqFOLN9uje3\r\nDEQ4IDsFOC0XETg47lg4Xh9UOJxCujfowzI4jB8GOJPmujc0seU3vN2ZOBXrkDi/T+w3P0vpN2a4\r\nIjiKHik4VscnOObnJzj65Io4TIQjOK3cyzgP4Lw3Hr3yN5hSxTc1Kio4iRcrONoeIzhp7d83Grwb\r\nOKa48zcAlxQ4xQHDN4hXBThMXEs4kuOEN1hRlTf47Tw4iZGlN/Mijjc2JNI3NOCVONl3ETj9uK03\r\n5H+IN9AblzhUiLY3bTvaN66VBTgM4xU4nuN5N+mfOTfYMjU3uzGLN6Pulje6yaI3WjcSNxs4dTdc\r\n+BM4gRDzNzqr2TdGLpI3So5KNy9K3DcOlZc3UBqjN/RWZDeqjmk3FEkRN0o4+TcOYqk3R4dCNyVA\r\ngTeGYJA3hmbIN6cW1jegyEM3JBvAN5KqyjcS2Jg3etqaN2DpZTdeNkE3ldxxN389VzdPYqI3qU5y\r\nN8/TkjegMqs35OwEOPuIPDfpoAE4P9OuNybIezcBgtI3otyFN9kw6jbnxo83B6dyN+5/ijfctzI3\r\n2g97N0czCTd6khc39Ui8NlFzuTe/ehI37/LuNts5QDf0vYM3Dbk5Ny+hlDcVeK03usNZN2LjIDfR\r\ntMU3oLYCNxeIhTdGCyc3kKeIN0959jYprhk3V2MKNyCPdzedQ9A2NXNNN1bLpTbF3ng3tVMEOF6n\r\nADecB3k3Rs6yNg21IjcGA+I2T7U6NxFt6jYFhYk3O984N7iSQTf0ll43W9HQNmPhaTctfh84jg5x\r\nN6Ux0jbuQwE3n+VXN3n3zjeHoTU3C1wEN/M+fzdGgOQ2VD4XOANwBzeUvPs2ZHfQNs+cgzeOGQ43\r\nRMxpN5bA/Takm0M3kopON0MPpjZjpuw266MQN6jMezf31SA4E5/RN8sJSzcpeyo3jTYLN/Ncyjf9\r\nJjE4RL++NwMzBzgbM9A2KLRAN8pTPDgNo7A3Bq92OCk/8TYsMn43hUwNN58tCzfe8wc4WAOHOPos\r\nOThz+o83z7mtNiIqWTfagqw3TQFgN/DLwDfex9c35ng+N3bN8za6Rps2KXVnNwPVkDeu9TU43KA4\r\nOODRTDeRI7Q24/6HNw7lATcJ40s4hkHbNjpfbjdZ04g2Z0ybNuOCtjYAMbY280z5NsgzWDcvflM3\r\n2zIEN1Tm0TZL2NI2aVGrNgeWUDYQZxs3tm/uNqKoIzfM8hc3u0i5NiWiwTZNmSo2fSe7NkLJNDYC\r\nzgI3Rd2ONiQUDjbkJH4277+NNlh4ezdGxM025lmINrT86ja00mY2NCO/Ni4hBDcHK302sxbJNpwd\r\nHjbtz5g2QUbkNszMpDZ0I6E2++nENivQQjb61yw24LN9Nl6eITbgsbA2xIA5NlAUwzbApk02f33l\r\nNpoARjabCew2Re6ENiXopjaK53c2CxKmNtC+CjYViF02JDSWNhyY0DbcbXk2sKUXN4VOqjZG4bM2\r\nGXRaNmUsEzZgTnE27x3qNUSJDzaEqb82R8VfNsIHPDb66rY2OJvxNmI0OTbOYYo2rWHrNrV4GjfJ\r\nXnw2HRGENj61wzb8vzQ36MTmNqL5zzZ6eCw2tl+YNoAsYzYQ85s2jzOBNq8ApzZLcEA2t2umNhv2\r\nQjb/6z423FFCNi2YpDZfHdA2Qg9YNvUQTza5Jjc2sqeQNvZbnjaXeH422O48NiA9Hzc6Qmk2fRl8\r\nNpUrkzY4lCc2273hNZOyMza4DSo2AV0zNpwetDZLG4c2+ooUN2oWATbtSmU2BpQxNiVJNjaiI5I2\r\n7kk9NpewFjZW2Zs2Tfh8NpYgkTYQBUg2iEQkNsL+fTbpeoQ2s9b3NROrgTZcZOg1xJZHNiLZTjYj\r\n+rs2b/UgNpwIPDbAPVI27xzLNmDSRjZjK4Q2sAWPNn4yIzbGrTY2eBt+NneojTYFgjc2yJdONmRQ\r\nUDbmHyM2wagdNvDN/jUv8Ok1oMgfNs28gjbSHEQ2cuYbNhthSDb5f3s2k/8KNqpNLzY/BlM2pG8X\r\nNmAihDaUQAM2pgMZNto7TTZNtvw1nDvuNc5HJzZwWSM24MnsNTxkQzY5sg02MPspNpFYIzYAUCo2\r\nHp8gNp/azDVA3zE20to8NkQr0zUykBM2l2sFNkAgSjaSJgY2UGHUNUZaEjYCsiI2ikoYNn611zVs\r\nO7811lEMNrFYDjZ7dQE26aEENnisnDVtH901wspANh6YGDbuqCQ28J4PNs635TX9uQo2hJ83Nr4h\r\nAza63uw1mXcNNk3+3jUU+hI2WvwhNs4/HTZ5DkI2bo/4NbIPIDYaYBI29rcPNhJYkTXSCGU2jTfR\r\nNRGPuzVBSwo23cGONdj5JjZJ8RA2tg0HNvIHvzU1uys2VHhGNh7Y/TXDCZI1VGARNmyZ/jVyJf81\r\n2qQtNjLKIjb7+BM2pijtNVDNpDUit/I1SKqxNbZ5tzUfZz82TDIHNnt+GjbsVZQ1tSXoNVpC7TWI\r\nrYY1YioUNsakQza1WQo24iwfNtX4BzbunbE1R1kjNjf6bTV6/s41WOg0NvpegjUdNCc2LwiANYPC\r\nCjYExBI2vfedNVvgGDb3JOY1LC2QNW+cEzaSsSw2QMYrNv30rzXZcvM1xiEINnlUATaQego2Aa5Q\r\nNSw5wjWn9vI1Zkj4NbCPvDXmVfQ1ivHqNR0FKzYnQvI1zpmMNU32lTUb/dw1j6x6NdYERDWlpsY1\r\nb3MDNvlHADbefl81gDjFNe44uTVYjAQ2OA0GNruYbjVF3Lg1mmNLNbU6rDXQgNU12WmaNQAn1DXw\r\ngaE1QhTkNdme/DW+B/A14sYtNvZ+jzWVmuM1iVV3No0r8TXY+eM1u0LjNfa43jX4uB02l4IHNojm\r\nJDZirwU21SNlNULqmTUDfKA1RTE4NtAksjWIBak1WOy2Na228zW+Tiw2UbgDNrTx2TXPmjg2GxD8\r\nNbT+Rzb7k7k1PiMDNr2tozWwsUU14BoCNl4jkDbwviI2MaTDNR160DWFJ7Y2pvpkNjRvZTaSjo42\r\nLPq2Ntrmfjbrsxc2NbR9NipaLzfAyhg2+q4RNvBW6jUfYZg1ISKxNcQZzTWYHMQ1Hki8NgSWuTYT\r\nDj01Lx3bNSgJlTX7pLA1IRcXNfZcRDYHtXc3VO8lON2FYDiEpTU4gOunOA7XDzkUiMM4/GyHOKDm\r\nqjdEkKE38vj3Nio4ZjgmIq44HMC1N/eASziT0vM3NrIaN6TjHDgH4QY598kQOaxQQDgLuZg2R1gg\r\nN7IQZjd6qzM4C0glOI5e1TWQbtU2RXIaNxP1XTdSgnA3LARGN2JmQDfVRy03oIemNjZkazYoJJs2\r\nkpfINULyqTWa8/Y1dim9NfC+nTUVqdo1gnjeNXYQojWsR4k1jsqmNh5sbzYTp/Y13LwQNisdBTbi\r\nXb02eyj7NhLmvDUu2AY2zUZGNhWBwzYW0rg1B9/5NpnSyjbmWpY27fPBNZtVWDaD/is2eNyINs7O\r\nwTVKWKY1ifeeNXOc7jWOXt41jSeENe0TujU7auQ1POWZNbx6HDb3MYs1EivjNdAVuTUMhbQ19DO5\r\nNeLP0zWO6iI1gAkNNgxvmzXAnSI2EHmtNQWNkDXPXQk2MeDLNcvTnjVFDEs1sq0eNdjXfjWDR4Q1\r\n3qSoNfSdtjUp3v81/P2CNZ6y+jUOEMw1WwCWN3HqpTfug4Y3Pt0sNwXYhjdfCxM3UjEnNvT9ljUY\r\nCu414YhsNoRTZzZu7Jw2cIoQNt1hIjYc+Jw22s60NuIYjzbB98w2wgQeN0r62zbi1Ak2MK9HNjP0\r\nEzdUmxw3LIHTNeS7kTXPUTs2Ug6rNQcuFjYE6rQ2kLwKN369CjdqbQ43nAtUNfxnjDZoaoM3hpzY\r\nNg5nlzZJxI814OLxNmvcqDZ3Ebw2VmUfNrkFgzZUoPk1pfpsNvlGnDZ5+CE2r74SNslojTWsoII1\r\neErnNUulezUCDm42fT0INl1osDXN58k12RS2NcqC4zZLbNQ1kJHYNUZbWzVTfYA1UdQ0NmjRuDVI\r\njI01gpScNQn5hDVQ7QQ2+xSLNc8EBzZCXJs1UiyeNY2HpTVykxc22s7RNVy6jDWmMm41rDlkNe6P\r\naTXYtIc1XMCqNaHzSTXx5aQ1NIafNQjSSjUMmX41tWSkNQYgajUQgh01XKkiNrieYTVNx4k1BEre\r\nNeOOlTXZYbM1wdcYNYwImDX7Vg026sWZNQTiTTWKx5c1CmPqNQhYYzXD3bE1zSR3NYLlzzXW/TE1\r\n7MDNNWIcJDWGKbs18k9BNS+fyzVybvk0cLTENXnu5jWC2D01iLShNWILpjUL27k1eNM8NXVqRzUu\r\nv0w1GJWQNWr47jXuov80rkIONVY5szXQ+qA1MeJtNcrAyjXmSmE1aYBjNfBTxDWroZQ1bt+QNWY6\r\nJDWcBXo1MDyJNbSAZjWyh5w1lXyENVi3ejVH12I1wJBRNetsgDVyg5E1ViaYNYjUyzW3ssg1IhyM\r\nNRqDozVPAbc1/VlcNWj0xDWHK4M1vGEBNvWIUjX0E7U12RuBNYa5MjbfsM01n+AYNSvKhzWOZbs1\r\nYK+UNY9VLzWQbJE1i/QBNqB1PTWVg4w10G5JNS00mDXzFkY1hNtoNXPcgzWLc4I1POqmNWKUCDa1\r\njok158m3Nbq7lTVII7s1l86NNTjY3zUlKh81p5I7NTjtpDXj00k1Q/uONaASdjW6iJg1M1SQNRZK\r\nxTXLw8g1gDEUNiEdxzUQv101CI7DNWh+mDW6pG41/InlNfjI/TXCrok1LvGDNcV5rDXfRak1CI3U\r\nNS60lTVbKxM1118vNa+GAzWJNYU17NyyNT9/OTWeXoY1CkwUNeD5azXmuo019uYvNQBANjYJixw8\r\nnaEEO2QhkjqePqw6gcbBOsso3TrMC3E68BnSOjHcCzplDKQ6+Fh4OopIljpEOwc7frbGOiXKqTq6\r\nufg5FQCPOgmZeTpn8hs7sEaQOprVcDr36J06gwSCOgRBiDoFEig6RDWEOg+Z7Tl+SHE6WCqjOhPC\r\nlDpnsyk6j2o+OpRGPTqiT046R/Q/OtxWpDqp4WA6fGOOOhZIfDp9kXs6S1mpOm81nDpkuS06DWiF\r\nOjr4ZDqBAm86j0OIOpIIuTqYHR06dPOLOqCZFDoF90s7OEcTOnzDcDptO4A6E7GpOq14szr5wIU6\r\ntz0XOoHojDqEZaE69QOvOmbEujpauiw6TEJGOrjHnjr688g6qHTkOrBBBDrWepU6QBiqOlI59DlO\r\nTIk6CDh6OrCO+TmO2ZE6DlkOOgCIKDqwHAM74DqYOhYaWzoAl1M6dmKyOvDaqTpmo3A6NupEOuFB\r\niTpb+c46ijOBOjgKRTqrVEs6pQpjOoDJfzpiB8w6bslWOoYNYzoEpAM6JHzaOhWDPzpyaqc6xgLk\r\nOS8GPToOKms6901gOlobrDpmJos6cKLBOtb5vTrIVbo6fj4hOphCijoNBqU6CQqBOtBQXDsSAaA6\r\nY44gOoATkTrhJ746wQuLOtvOjTqDPXg660pKOhknpzpx6EQ6Gg8cOu9aTTrsiOk6DBNlOjjdsTrn\r\nWq46QKkuOlZRXDrEfiI6jndLOhCAjjoBZ8Y6DPWdOlQKXzokBps6dLxdOjnoCDt0Qo46k09SOjpv\r\njzoQj6Q6FgOLOnbaOzoEj4s6MAS3OnbUCTp1tCE6QEfOOtGypTqmxJw6An+6OrwdCzqgPIY6TkJz\r\nOlVVhDqO/jU6f6eWOmG/hDq1yvY6TTqMOtg4XjqwjY46+4RqOt7YRDqWeoQ693Y5Ok5pkTpwG5g6\r\nTPQeO/lsTzrhuUI6SBptOsroqjrkdnk6othjOjzAgTpTfmA6S9SuOs98DTo2nxg68FFmOjHUqTqZ\r\nYyc67S+dOgf0FTql3X06ChdNOnCYrzrl8AY6xwXgOgtwTToKfFc6xqWSOuIrfjpCMhA6J3dUOgDt\r\nCzssLXU6jmZfOluGljrKZlo6xNyeOkx1oTqqHuE6aeSXOmUQjzrEPYY6Jz5QOlTAljohQk06PkQ6\r\nOkPwpzrr41s6gL7tOVrUpToZEn86ELpMOoDrfzoaOYI63sEWOpr0iDp1O+Y6RyygOk7J8DpLIwA7\r\nWxr8Otrb2Dm5/qY6+TWgOsvhpzqs/CA6UfA9Ok2tCzpNtTM64Cg9OoSyYToUfKY61N1wOiAfPzpY\r\nwwQ6IXaMOmPSrzqRuYs6G7FYOr30NzoQFb46jjneOtLFnDpgYT86cEmKOjWZITq6tFg6Yes/OplX\r\nejpBFpM6hBkUOvxYSDot9B46SpUZOmWHFjpaVVE6PSyUOsZj3DoTixY6wFijOhZ6azojLrc5bhBE\r\nOomWdzpGPZw6c+iGOrz1dDpNdJI6eDmkOsQlmzp+w3w6NLCtOo6fijqpG0Y6P6w9OhJuizrVgtk6\r\nMeS3Ok6jCTtEsx06ykWrOoSYlDoHY506+bgmOmOerDrTrBQ61i51OnboMzp0PYM68INjOmbzjDqS\r\nznY6xlZpOr+kFjpRu2s66ks5Oqo2bjpziNk6XZmUOonrIDpql3868yg+OjvepjqA6Jw63NyoOrRJ\r\ngjpqOaQ6tFkROoztTTqFbaU6eNlyOtbMjzom3cg687+TOs6wTTrDEX86GsafOpa2mjpeXU468Q9+\r\nOrHPMjowvNU62tmzOohgejrII3c6ulLLOsw7CjtcerE6mgc/Oq/ofDrLimU6nI9LOm8IszkcIno6\r\n25xmOgggjzrG2Pc6Dt65OpiZcjpYrA46Rgt3OrkRpDrLNDQ6uGCqOvjCbTpHzDE6aH33OkZ1jzoQ\r\nCE462FlIOih7PjrLHh46XeMoOtqpjzo3EIE6kHRuOm/biTolbiU6kH6JOnqJXzrcWX86CBKROiO9\r\najr5noI6uH1nOttShjqtbZY6kBCpOsA9gTqbXdg6fJX3OrhKvjoiRJc627evOlLcIDqiRLU6sklV\r\nOnN4ZDrg0Ks6lFWjOk/R4zrNoRU6v/WGOo6fpjqJLoY6dZfPOlCSVzpIL/o6wLtrOpbqrDoY90c6\r\nuQDPOhbGiDrUmv869zpqOj2skjregDc69G15OiwIRzp4w286g70OOh10RTr//C06Vwq7OgVzjjrt\r\nqcA6RPYyOuZM3zpPNis6GMfmOncelzpSlhU66AtFOtamxjqCFpc6lB6TOtzH4TodDpA6NCvxOixl\r\nZDoKTHk6L1qVOuS/ojplBRs6gD86Oh187Drt9RU7JUKSOsujdjqCJw47elvWOmlZijpurAw6MhlT\r\nOmxbVjrjmN45xPyFOqEeQDoBhoM6/IHTOoS/tzqoOe46Dyg3OhRLEzrFFB86h3geOkl8XDodR1E6\r\n3VD4OayrqjrGQyg6bkHGOdwYajpEr3I6vQ37OVTBBDoJZWs66FtBOrIRNzoOu9I6Nu1HOtYnOTpV\r\nS486MrKnOvFMmDpv6d85zCX5OqGySTr5qIo6Jum5OhKF5jnETMo64r+XOjwXCzq4umg6Jh/NOgRC\r\ncjotTrM6dRqUOueTEzoQCi46fK+SOjTrMjppLD46RG0kOj9tWzqZlss60LlqOgI6jzoiJ5w63cCK\r\nOu13qDrgYy86McCxOg9WYToX5Oc68+WnOvfscDoeo4E6ZgNfOkClIjoC8gI65hIGOlDxrDoKzlk6\r\nxfMwOqYOeDrt/FM6uNNdOvbCYjoW/po65MqUOpU5dDoHNoA65UyVOkkTWjqllZY6uk6XOhpBmDoE\r\nouc60q2EOgwUJDrr1hw6VqEIOnbLijrTWA46gTxROhFeZToctqY6DDRXOkCHsDof4bU6et4mOrOI\r\nVzqH+Xc6Wm6COtdBizrvEA46CcBQOjKNmzpv7X86RZg9OjHwUzpnYyQ6UoXIOq78gDrS8P858fHU\r\nOvfkvDoYaRU7ZpGZOlMJMzqLJY06cNdBOhwVezqdjU06/QaFOsHIlDoQQyo6n6T0OoYsQjqp6qg5\r\nm8esOiMeYzpeZ/U6+Z7VOhi27zqlizY6MIxAOoaDJjoSa7Y6ftswOjDuZDptpdY6kI9iOlY9tDpE\r\nxzY6ZhakOhdtYjqIXUA6iExDOpGiHjquEwQ6NrUuOuMqPjreaoU6GFOJOjw+vDoIWJ06OYyoOg5N\r\nxzrRSDU6re1VOmd27TqRdjE6gMrqOmw6gToEAzs6SJaJOoRJlzoUrSI6AIo6Ou8ChDqzdDs6iKWw\r\nOsjleTrRDE46GshfOhKVJTriqpo6WMFVOjIuXzoDplE6Ihs9OrgNbTpsnYU6g4SwOrVMVDoOS606\r\npfhsOuAuijoQc5Q6d7rZOkRkRTqqDIs6ChHfOoKAUzr1iZo6IBe/OpTMmzrpCec6UghxOniVYTpT\r\nPh86OjCPOgpAPzr7fNM61eSfOvbnLDqoqVs6ymsrO97WhDq++HI6Pb4aOivJNDoVELk6DUo5Otpy\r\nGTojbbQ6qkmzOt2yBzqSUE86LWDQOnPMYDoSXGo6vFUJOki7UTpjEHs6tHDJOtP7pDoiSQg73NaN\r\nOoQ+oDrxqyU6z/c7Okx5jDqSqg06+SQjOgeQizqJGEg6pOAROmZM3Tl4MF461ucqOrKU/DkAB1M6\r\nzyvCOghnRzp+/1g6tg8SOhM5iDpSPWk6ey7aOk76KDrQ/HM6LLjZOrd2GDqgqLo6chwvOlgONzqo\r\nra06oQhBOmB6ezocBIo6wih3Oszg7Dkpqg05Yh+0OO5y9ThYJ7s47jUrOW/otDiXPs03oPRcOAqb\r\nBDjGryQ3DCpvOCSwnzj77Qw3Id/2N8fUwzeQIi03kpNmOLMpITlsStc4jFgsOCyS0zZmj082st1U\r\nN3+EjDjZckc4hJjfNU1/Lzc+cH43jrumNzqQIDdNWAc3hKaXOTMYRzpVsg86TQmDOQjAFDlgpG44\r\nBP87OHWSDDmwdNo595fUOWEpnzhnr9I4QbBLOSnoijhAN3E56pUCOcVnmjexZmI4SSPfOCo3fzlA\r\nlEI5yQ0dOV5KFzk9bww6AdllOb2FlDjrWv82E0fMOOzlwDghUuk4gUL4OUYcRzlVAhQ4DhS3NUSJ\r\nUDUi6gI2+DhDNqrvHDamgfc1n/8HNojxETaqD5I1EouBNv4JNDa31nw2tD/tNQ4+JzYVDSQ2fjXd\r\nNadArDUpIyo2PlGwNeCINTY64bI1lCgGNvcc3TWQ/Qg2fPgeNlV8GDbjyA02cnSVNf9nrjXhjwQ2\r\n1ORINrKINjhNTiA4MpAgNtSRYjhp81c5t/nKOeRK6znCHZ05LpWBOdLioznQXS85QwEjOe68lTh1\r\nBLM4iQCDOG7zPTjyFj44M/5COfSbKDlYIZs5wXrjOY70lzlXOH45rFKuOHEE9jn4XB86Ll2HOQkl\r\nxThFuNE3P0AeNhlk/DWS+SY5/p9YOWlxuTdlmEw5n8ecOQwuYDnuZQY5fL11OWjmEDkqj3M5zUBs\r\nOXTIGTk4qBA5b2GqOb47szluYAg5SFwDObq9hjklcuk5j8nwOV0xjTnJ1BU5YMVmOJq9xzewRPA4\r\nmKO7OBvfljjNd684+uzPOTrhrTnh0ck4+k4GOXI62jhivKU1mZC8NVYggjXSpig153VqNReZBTad\r\nPqI18HRtNbdG8jSKul01yMGkNSeInzUh1xw17PHVNdB62zWbJ4g1LS9LNUr+jDV06bE1EroPNY0V\r\npzU8JzQ1AxVANQSUzDUDkI417ZxzNTfLbjU7CTI1+YviNNaTkjXJA1k10pRKNaB5qTWYwoQ1o7P8\r\nNNnJGDaurpw1Rho4NZ5mozX+t5s1h1rgNOL5KzWJWXA10LBqNXlHrTXgEU815lujNbDoHTWLyYI1\r\nlflyNeHPizWPiww29IyrNQ1CYzXCaYw1+IzFNNzoNzX6VKc1lgetNWQJiDWrNjg1tCRPNSeK1TT8\r\n8tc1Mv/BNfC/ZDVG/og1p3RpNQhpfzWaaJg1QbM9NWNDHDZGEyk1dmCJNSomhjUcOKo1YiyLNRAe\r\nazWhm7M06VPXNcrqCTVrhlc1g5RYNUsBfzXAUIw1EPvbNSipcTVZqS41ktc+NRVuZzWxvqY1s+PB\r\nNbADPzW7ors1skMdNeREgTWEJUo1tTkkNbdytjVbNic19OlyNZdNGDUJ4H81GPLHNdIFHzVL5gY1\r\neYRDNYK4wDUlKFw1ian2NAx2hzX9b5g1Swo4NTBjujUo94k11jyuNdGMhzWgLkg1TmAnNfOFgTUG\r\nAE01AVtWNZlHpDVyY8I0Z1u9NcDjzTXpe9g0hT5wNcWUODUIzpU1/uuHNfqCHzWO3kw1arWINSM+\r\nhDWSKl81URiDNSTvAjZDgT01SIRaNQkaJTUyuyc1Rzs4NbG08TRP8sw0ouSSNeuNRzWcaqc1GpTK\r\nNEpGyzTBPs01xz1HNSJaATUmbZg1/w08NQVCFjWMG0I1S7LvNCInRDW48S01ACCINQ==",
                            "noiseTrainingType" : "default"
                          }
                        }
                    ],
                    "start" : 8346,
                    "duration" : 1828,
                    "mediaStart" : 52,
                    "mediaDuration" : 1828,
                    "scalar" : 1,
                    "metadata" : {
                      "WinSubProjectDisplayName" : "",
                      "clipSpeedAttribute" : false
                    },
                    "animationTracks" : {

                    }
                  },
                  {
                    "id" : 96,
                    "_type" : "AMFile",
                    "src" : 12,
                    "trackNumber" : 1,
                    "attributes" : {
                      "ident" : "Aufn. 07-11-19_031",
                      "sampleRate" : 44100,
                      "bitDepth" : 16,
                      "gain" : 0.91745037350662,
                      "mixToMono" : true
                    },
                      "channelNumber" : "0,1",
                    "effects" : [
                        {
                          "effectName" : "NoiseReduction",
                          "category" : "categoryAudioEffects",
                          "parameters" : {
                            "denoiserAmount" : 20.0,
                            "denoiserThreshold" : 0.0,
                            "noiseProfile" : "uFiSQZxZiEGHVSlA38KJPobC3D1GVpM972aAPeZUKD2bAxA9e2BSPDwdvzzpUX08fkKbPHfPjDyq\r\ng/E7JBbRO4gEdzw5x8w7cuy+OwQKkzvCvYo7+oSeO14xsztQ+oM78sq6O8krmzuA3iU8ogWFO/BV\r\nZDzsbk474r7TO+rxgTxJbPY7KX7SO/2hEDtqnhQ7o/oQO7rSsDpCpKk60mtbOzCouDqBOBQ7LJmu\r\nOguzXzoTGns6elGROs0H0Dob3xQ65tgwOkzaBjpyZF47G4A/OvmMMjrNApo54tLKOpDWLDqeMT06\r\nNhllOlEiPTpo5h464DYMOnj+hTkjiDE6LCcwOr2WGjq1fUY6n+KZOm6dpTmn0uY6iDkIO8KAzjvg\r\nmPw6xNAOPJMJRDsbZWQ79SInOpSadTsMY646QrX2OV+Ayzm+irA5/AmyOXydmDpuGyA6meANOvK5\r\n+DlODGc5IRxeOYXzDjlkm7g5kdfROQ/4lzlmYqk5cGGqORbjQDmS+RU5ALSeObakhDm4W2w5KmV5\r\nOYAwCjqSmZA6Em2hOfUQljlC8Jg5NxCtOU+1xTkgtTE5KeIxOS7mzzhh5zM53U0IOXeTKjlBjIc5\r\nt1yAOR2sHTlsXrM41uInObSlKzlPcls5kZD0ODL0AjnhZjQ5cz8cOT4wkTgw2u84ZHaPOQbILjkW\r\nF1Y5mtesOFw8QjkUgfE4Tp/uONvPwjh6+qs4RuV8OMYHFjltArs4xmNLOX+39zjsq944B4+ROAdw\r\niDghP6A4BksVOdONujjWEOI4WZ0FORyxRjnnho85RokAOReXCjkuYbM4JeWeONVYwjh7/r445ora\r\nOOsNSzjOuMo4TOf9OBlGBTn3uNc4XowAOcoaoTgggM04cl/QOK8BFTnRHCE5zjMcOc6IaTliyaQ5\r\naLQeOboJtTk/mYs5FipVOc/KJjgyhZo5Q2WbOEho9zhbzBU58ogROcsjqDiWekM52rpOOXaWzjj2\r\nSW442TG1OApBfjilul44RSpAOetegDg0k0M4UDucOOnSJTgSff84pyQJOCs+Jjgy/dc43OchOSlN\r\nXzjIkuM4e5yCOLo/vTcmv4I4c+AvOHBBTDnQ0tY4ZZODOFC+Azg3cSE4Ph+fOIYSpjieOUY4lCl3\r\nOL62WDi2Jm04gAgROL7HSzgI4zY4JEFsOL7JFTgwqQE58UA2OCZqwjcwAZY4hJtjOFUgEjiuWEI4\r\nDqkbOF5+kTiV2hg4w5EaOPtOFzjRTEQ4i0cNOMAdxjcaqiE4uhbcN5DtGzivDjY4lrZJOEdvqTgr\r\nxhQ4SjuGOF07mjfktag3/m00OFgK9DcQlHM40vANOHOCZjjAUEw49ukcOF1VKzhum245Cun1NwwO\r\nFziYQyM4iv6yOBgBezhxe2U4hxQfOV3QMDgz7E046AkXOMSGTTjNNXA5jUe+N17Q8DdLInE4iCPt\r\nN5CxgDkefac4zQ6WOEGfJTnsO4U4862EOJjvuThXjZw4i3aBOPkmLjkCBtQ3Za2gONJvojh6aG84\r\nAFM+OR4zpTh/CVc41/WJODQvIDjbFCw4KpPZOKJemThQDUE6HqWvOdgfjzn5ljU55rG4N0ibGTls\r\nnuk4ddkeORQShzkofp43n0cEOKENrTfZMiA4hnq2OVi7tDlWJCg5Ek2VOOX3HTnQCWI4hn9QOIOx\r\npzi+BQo4AqC4OMKodjiEnM83FDiROUkAHzkbX0855rrgONJQHjmXX+s4aABaOVbZkDj2wN03X4me\r\nOCbfoTlJ5pE5bs+EOv8Pizj+Ils5FU3GNwYDSDm+sIc5pVA5OHn/Djgez8E5Mo3MOSEYjzidUGk5\r\nkfCdOUhzBTq/mD85OsWyOfFh2ThVd5M5qi5mOb3RVzg5fd84iMHeOCQsozj2N743fyYLOSpZHzmh\r\n3is413mTOHdhaThpnZE474KwOHR8DTjea5M55NXBNyvwlDigMJI52X+wOPOt7zhLkAE4pbTlN+7G\r\nJTcyZGQ3ZnfvOCU2QDfWkRE4jrwdOO7evjdOeN44Oi8xOKouJDmVoeg3SjpSN8am/TdBvhw4wcDd\r\nN9u3rzgUu0Q4SxfqN7p8jTdGt9M4aWQtN7WS/jbMe3432AbhN5DysDiEc4s3/WGMN9M+ITja5HM4\r\nwDIBN2plgDicwc44XQY/OC+dNDeSWC44sdJJN09FATg+V7s4uLBzN1BpnjdIzZM3JtSQN3e6rTeW\r\nVbM3KHQVONIyYjgZlHg3PPZVNyBBwDdRlng4jwuSN5zXvziUvCo4LY0+NxjfHjjbZMU3XIIkN14X\r\n4Tcll6g45Kg5ODL7TDfxB3Q3bq52NxBqgjisfeY3WCqzN9gNLDi9FCg3Fv6VN/u+MjjuwWE3DJel\r\nN7k9Rjj3QH43ZBZBN+iqXziXTA84iW3DN7yE/DduUiA4SfvdN/7PcDhHlMw3mj4KOH5awDhfF0U3\r\nsAtkN8CkkTgcAb43ON7XN54VtzjpJaE3VtmiN6kekjgj9Os3uBcVOK4lkTgP9JM37LRzOIMHVTgB\r\nWoI3JUArOKMeEDh0C5Q4ukebN0bugDjAKDI4gpNfOKniZziDee43BbgRONw9ODirBS04aLB0N+Nd\r\nxjf0tfQ2l2GEN6zptDdqfeM3zIRQON2yoDisVuw2Wqo4OIUWmTdWYKw37+IdOA/XNjfGnoU3sB4B\r\nOARSCzeHIQc3rikzN1M00zY4PHI3QwmHN9MhIjebgfE2S1KCNyJM/zcSqZQ3tvIDOIBjvzcAApQ3\r\nEgbANpkV7jaGwys3KQjwNz2DfTbaVpo3sv4TOHTIDTcQBk438BH1N32oqDemLKM3pDa/Nl0A3zYd\r\nH9s3jNvHNkLJdjcxTao3bNl9NydFUjclJhw3VNyDNyx99jYYlVM3ZtboN2dRDzfI9t42xiUhOPvC\r\nCTdEVJM3xUoMOBqclTYt8TA3i7T5NrV4DTeAXQw31D/XNi0H6DZGgNs2ggGHN5oiJjeI+PU27qPj\r\nNpOYzDZxou82PJHvNzBS2zbFFdM3Qi3oNxS3NDfHYO02ADMQN0r4FzcFRbw3V/VyNjXBAjcAEHs3\r\nDrLNNpx2DzduaUM4a8AWODADnzbwWxk3kAjANl7rsDa+hf43VlkTOMZ85DYifz04tzP3OO9y0Dbu\r\nQIk3UTw5NwZanDbLuJw3/3ngNrVMGzeZRRA4LhIuN1J85TaAS703IHi6Nx2KgDbQNBM4pP7zN4jA\r\n5DaSIuc30/lEOKSaDzhcWYQ4zFy5N238Jzd574k4nPmAOIKpAjieaXI458QVN8Izqze1zZY3i0MS\r\nOPugoTf6mnM3ZHDBN6EXmDaWD982SLA4N3qT8jYMs8A21vQWN75O5jbYLng3+2+VN/McJjeC1j03\r\n2h+AN5RayjYZe7o3Y1imNwQz6Dd8bmk409aCN6oHezcAsmQ4qDGuNyJhYjeYto03BtGINwJBuza0\r\n4b820huvN1pr0TcaHYo3JqpZN7RM4DalUyM3HJkNN3P9vTcLxO03vXy+NgZHTjeWXfc2myTQNkeh\r\ndDdBo1k3BdvrNoXiCze42SI3/Mu7Nn37wTZYGJA2JV5uN0rmizeKiCc31J9ZN70eXzcW95E33do+\r\nOIBPizjC4R834IIHNw8WOjfAUgU37EQIN8Zo2jbpiqI2sBNkN+ZJtzdgOSQ3r97bN7WacTcqG5k3\r\nBH/9NwTsqDenUzI3vmlRN9f/KDfqpgk34bkMNwtSqjaenik2xEn9Nk8VozaqItA2/tcUN+KBDTfR\r\nTF43RwvjN+RjbzfE7LY29jQPN9cqhTZT2pM2wS+XNgcD9jZcXNA2TzczNmBGjjZidSs2/NamNu1u\r\nnDZ5DqM2WXSpNlaPYDZf96Y2z2+ZNjDi7zb19OE2N2GyNlBtojYt2a82HerjNqBDGDff4YU2vCif\r\nNtlPoTY5no82sWG2NvSEazbxd6c2fSnyNnQXaDbP8Pw2/X6AN1J4TDeR6cY2YQAyN5g2cDdLwfM2\r\nvp6VNrH30zbeOhY3HdhrNvEXvDawabs2IoH3NusbwDZdsiY37vbNNuP+Zja+Nr4276vKNmg5yjbt\r\nfvY2ETPWNpE5yjbP6pg2tk3NNk4psDaClNU2EgAbN6xgUTf0cQ83zD1ON2BIITeqRBE39FclN2wv\r\nnzYoDKE25H6/Nk12hTa33LQ29YiSNtmzojbe48w2TYmpNsJ4pTZW2sY24BOSNhrKrTagQ+c28q2H\r\nNl5ZCTe6/HI2DJbJNlinpjZKyY82PBG7NvEIVzbWTUc2SgTGNqjoXjZCkaM2XGyFNjfKVjaXdls2\r\nWlWLNgS1ljZsIJ02PzyaNu0CYzanUlQ2t6V6NsPcVjZQRH02OjOeNsIpCzdvDpg2dWeVNkhXvDY0\r\nNKU2alLONpoclDbAKps2rSSMNnKcgzYnHsE22sheNqG1iDaysPU2i9qNNoujazZKSTY2kMJqNj4M\r\nrjaXtL42ePebNh1MgDbOUoY27T/BNrXijzb9KB03AgyJN1U5LzeXylY3sajxNuj6PDYneIg2RIXR\r\nNm25sDfqomE2zZyXNrgSPjY/iEI2+EwPN0UfEzdoXpY24Z7MN85VjTe4I9I20tJPNsIQ+jbNaVQ3\r\nP4FQNlIpETeUu742Dma3NjOZCjf0ES43cjcINwINETceOHU3t+j+NoYsbDah/XU2BwbiNqd/jjb5\r\n73U2YGvRNpS/OTZrTGo2RsyQNkmZbTbXdoc20cXONnxfMTYxotc26/27NhIuezZMFic2hSJSNjvG\r\ngzcidbM3hOQNN9pqZjbqLpc2roqWNrypjjaJM8U213KwNrNRMTetavc2FK92NnC3czaHIrs2WLao\r\nNsulmjbKoUU2QlozNrsqhTYfHYo272OPNgdHjzZIcgQ2PcZ0NlSLsDY2W1Y2jO+CNtrDpjaO/2M2\r\nwBc5NpL3ljY8IWE2iPh8NhLlrjYA23g2bzm2NpxkijbJTgY250KMNsxQrjZ0eO82/Ze3NkztVzZV\r\nQnY2ybCWNky+YzarpIg2vmVgNixERDZSiIM2wVQ9Nk27pDZIkoA2MKdUNupzjTao/5Q2smk+NhRC\r\nojZ0HaU2GwkxNlNYkDbXBJQ2n+9wNnPddjZgL5Q2nJaWNvD/azZFXJc2ER57Ns0GazZo3MA2tLKk\r\nNgB1kzZFrY42oGChNvAaZjbr80Q2xZ9qNnj/aTbf/4k2TZtaNtwAjjYWh9Q2clM3No/9RDYz/FU2\r\nuKy/Nn4PYDafj1o25BC7NvADezYqmWA2JRe7NjJ8RTbnLK42g4jDNkKUpTZtSoU2D1T6NfBjjzYE\r\nKKI2XWLfNtbcqzbOi4Q2vE1CNr5aWjY3HLA2BSeZNsULjjYHCY822HVSNjWfnjZvXpo2CyUrNv+p\r\nIDfHDjM2yFF8NuWVRzbddh02b0JINsORWDbOwDY2CrSKNqFmkjY2I1w2brtnNtw0xjZOiYs2nxm0\r\nNgxOXjZ2dLw2S8N6NpJAjTaA1Ug2pi87NneFwjY2GrY2rqBUNiAztjaxTZA2qugtNgBABDbJTBM9\r\nPmeSOm2OiDoxerA6ueOTOhM6ojpBjSs6WZbBOhzGZDp+v4U6QwxBO1BQazrZJk46zeKNOvJdFjqe\r\nU6w63CuxOuSUxTrOZKk6BaGEOvpKMjrez6k6katEOjxuBzvY1r860QnOOhWikzr4nYA6aHyOOrQq\r\njjod8D06VMhGOmB+PzpuxBc6lBaLOuR5nDoJB5w6aFC+On5CPTrmAuw6sjkSOtZgyjoTWz877hwz\r\nOiK2kTrEfQc6mrgqOjdJjDrH4MM6DEPcOlWIbTpMJKw6Y3lBOnBEtDoGh6U6rAx/OlUrCzozWpo6\r\n1qVPOl9HrzqOjVs6tvKNOl1hVjqG4VY6BkUoOuqSNTqae2c6dDzKOgdkfTonqKo6FKFJOnxdJzqM\r\na4s6hnmMOj2IqDqf5W46mCesOv57VjqaRN06mcOTOhHTrzoSicw6zcF/OpwVgDq0gGE6AuT2OmGd\r\nmTqxsLE6tB6pOp59ujo4wYE6fc0gOvzaRjprYmc6sCaUOgOrUjo66bg6zYNIOtqQ0zkdPp06puWc\r\nOoawlTptLIM6Hy2uOqmyLjo4fT46WyEHOkUTOTp+b7M6oCZOOijqjjrY/pc6RzBeOg7nmzpLKqU6\r\nPiNSOrF1zzpDAUI6L6GbOt297znPIYQ6Vl1MOlZXOTrXbE06gdUCO8Ss8jn+tIc6gMiXOj/Rezqb\r\nVxM6Gr6mOtBuyzo/qns6MJcZOm/GjjrLjmE6qr/pOeSAHjqPjoA6LORQOqGW2Trujww64ZHCOm77\r\njjoWD3A6VPqoOrTddTr0XkQ6Bs4NOj5mODp0sdA5pTCaOoYVAzt7zmw6phUqOrm+gzqXdkA6Ln5t\r\nOkjiujnQCJo6aSMdOy+diTrWiqg6G0AvOm0KyzoDrJw6hJ++OjsDYjoCn6Y6id6WOsTJrDq5vLk6\r\n2Q2lOkq8jTrGrBg6AJi+Oolw8Tms7Wc6roGFOspnWTpeid06pDikOlbMwzrKrag6ZtB+OqtSoTo0\r\noJc69n41OvZgoDpK8Qc7FohYOqz6tjrNKIE6aBjZOuaJWzrq6qw6olcuOr2WPTrpClM6wWFyOmhA\r\n9jqfgbY63vt+Op7tjDo0Gbg6S4pcOqVHfDrRSpA6zcalOtgvszruknk68jKaOhQhpDoMfog6GeeT\r\nOt3WqDqnOGc6koZmOu9/+Tn5MtA5ag/XOVzBJDqB87g5prWtOpCPLzox4406AAMROoFI/jo3bns6\r\n5RuTOm53kjrUAb86Z10XOr3vnDo5gpE6U9dHOjlPNzpecBg65iM/OthTXDp2Ls86t1MCO1wVeDqW\r\nG346RBSYOhgfxTpYhjo6lvaVOhZzszpm2O868PYWOv5cZTqyM406b35OOueTWzoqHbg6SBX2ORya\r\nSTqmCGQ6+b5bOni7Vjo0Km06YbCBOnJduTq6UC06aGlsOtK9LTqnX5g6/05HOpIMRTpojHA63LZl\r\nOshGNzr1Nsc6ZCiDOr+raTqc16E6111SOrHLbjokMEQ6zy2XOsvupTqq/wk63PcLO820aTqrUVY6\r\nZl7EOkh2VDpPuqU6YDxjOuPMjjoqOck6/AHLOsvKAjvtj1w6AqRGOuHoFzpFtV46Ib1UOkYFBTqE\r\niZ86qJmKOgcH3jqpKIk612G5Oi0NNTraptU6//NiOi+tqToluKg62smAOmNuUToMcF06MCyeOiRF\r\nizr+qB06uk1SOochSDqrVFY6f3PJOimDoDpinE46lvp3OpyfbTqDZv45r4XoOkQubDq3L886A7ty\r\nOoRddzq4Inw69vy4OvqpfDrHdNQ6wBjvOSj7TTrcTgo6Ft1VOuX2Rjr/GCQ6pVFDOmKQmDpfXQ06\r\nWyRGOn8rYzrluqU6Bh3ZORVgSDrGMLA6ouNoOlGdVzqdTFE6VmowOuXRajpfOa86oz0nOjbS3jlj\r\n47A6PjenOdK96znht5s65JB0Oi6JaDpTfhc6+PssOqGjQTr1HKQ6ms7aOpjelTpOjFI6OkJhOhsE\r\n/TqMPLw6JvmkOr60RDqofI46tSJGOuuJnjoYkQE6CNmHOjjOODqw84U6iK6pOgsTYzoQSM86uMNt\r\nOu7PBDuFMpI6VK4UOvp8LTqzppg6PdAeOjQlWDrYo446c2UhOm8eUzr758c6pCoMOq4sqjrzEVg6\r\nbimGOqi8dzrhTns6G52qOklRbzpXeaU6Egp5Olj7bjpEQ6A6AhuROuMBtzpJvUQ6AF00OvkYpTq3\r\njbc6sIarOmz+hTrr4aI6VnwbOm7gczqbDJ86FmX4Or1zlzqE5Ek6UIdAOnlYjDpqAKw6wIDAOr0f\r\nJju5wjk6ZhhLOnr2vDoUglo6e/KKOneOeTp3BMI6WzAWOjLWQDp4rmU6hmlhOgsUiTqb44o6dzxz\r\nOooTfjqKN1I6vGhIOnrpgjozqQo6+BE3OmvenDolKp46JFkROySHTTrFtYs6+TpPOjqLATu1E3U6\r\ndXefOrRI6znEAlU6wg1lOpVGSzqsXgI7wHWoOtTPezomsFE6Et42OrO/jjrJ55I6Wh0kOs6Q4Trw\r\nL4o6AtyHOq2OHjoxcH06yj2JOnS+sjrOUNs5jlNrOvI/bDq37pw6RZnpOtQ4kTru6FQ6wJTfOhmf\r\nTToyT8c6tKIIOjJPazp62VM60dMaOtkMzjoF8nY6LHm9OpgMSzriB2Q6TjVIOhCjRTq+KXs6Js+H\r\nOopwZDpoK4U6SpIDOzQkhjo6/Yc6DLqIOgazoDptCm866OF/Orbiizrywlg6f6ypOlA5PDoamHM6\r\nRMJnOsYoRjqHMUk6WLOkOnhCLDrB/uk5XmSpOkvASTqqFjU6O5ahOnUFUzr8xqA6+3wcOnzTpjoi\r\nqHM66tqeOhAP+Dl+3gg6GASUOh+4lDpvLxg6lJ+4Oew1DzrNRMw6DQa3OnUIkTr2U2E6O7atOpRG\r\niTqkblk68Ae/OZxTTTrsNAM62uhcOiOeOjoqc5I6zHiKOkMogDqesRw6lZ4yOvJogDo0Mbw6vhzt\r\nOflAjTpi96M6nRebOt5BDzr2LHI6OnOVOnp8nzqGooc6LjUAOvFNmjoMtlQ6mh82Oja9Hjo3JUY6\r\nk856OmD9iTpxVYU6zSAwOpVxnTqAP4k64TChOgbUhDpGUro62I6IOjlzRzq+QEc6p2h3OqInvDqo\r\n+7U6Lt4AO/JZuzrLwfA5LiiYOhrF3TlmJgc6VRRXOhlRjTpz/K06eASpOj/zxjrgyK86T+FyOpmg\r\nrjpeRno6UC0kOofQYzr86l06RY+DOisQwjqpmBQ7/Iu0Ohc/VzqlBS06XQMqOuLwjzrGs2c6ekOZ\r\nOh0SVTq+Uys6eOEqOskEwzqQixk6+mUVOsh5jDoAZlo6lOZbOlrrlTp5jI46EiiZOqoJozrzi1o6\r\nyQF5OlSdQjptLfo6jJaxOoNgCzqDjoY6+R1lOoCaVzoWEFk65XuKOsZhbzpEjes6U9tEOk9+QDpG\r\n9Tg6k2ZFOkcvjTrm77M6zhFwOpxTRTrrPF46UT3ZOZgnRzrkF5A6qNBvOri8SToYX2s65i5SOoep\r\nmToiEJQ6LASeOv+doTo9koU62mhuOvIupzoDGDQ6761tOtiVxDp6Dkc6FWdqOv8cdjoU8+Q5yp3z\r\nOnVxJjrZrGs6NZE8OgoDfjr1yr06hdCsOmBtFTroaA46tMdROu53fDoUimI6trsSOjerTjptqEY6\r\nim6+OiI0LDpr3q46FENqOvqzgzpPWBc6TIDUOj3dhTrpgD0621MYOscw4Tp+6MY6sjjjOVU8jjpe\r\nHuc6Jq+YOtbMCjo62GQ6nTWAOlEfKTpG+vw4qgGrOQihkDlwa4w4esBEN6nuOzhU2aE5JZ3kOKCs\r\nQDr9E6461UklOqtqGziRO084lpBOOVedjDkVTwE5S44LOmqDojna1qM4GxjyN75CBjgKBEc4IsMm\r\nObPtEjnBB0c4R25SNsYFyDedN8M4Sa/VOMwKyTgAC8E45sUkOauObTlv+6s4NHuoOO66Xzh3smY4\r\nEX88OKf0ODj2h5o5xZQTOl1O/zguhKA4dIgxOBh16jiBL7s5VM8JOfF9kzjiZM451TqiOTSTJDk6\r\nRQE63mOfObKahTlTC945+HopOf8mQTleqb040kP9NxHjfzlMWSo6+KDiOSpPIzmbmIo4xbuyNQ04\r\n2zUOQIU1BOjaNePTnDUlnUU1vs+kNT1BizXBUSc1SGv6NVUe8TW7LKY1apKZNUtruzWvl6w1mSyv\r\nNWNxkzXhbLA1tkeTNXiIjzU9hcA1XYusNSxmmTVEOYM1VxKjNR5pvTUKCbg1WJ6+NfUciDUw26k1\r\nVO6MNYPRBznVuU451efTODxkMDim6wg5IBxLOWpqQjh2rwE4QzmQOLvVcziNn7o16NYOOZ5fxTgx\r\nRlk5jzc4OaYDkjkStgM6SDHxONwy6jmjoHU64rctOvJbozehdM84WqV6OJm4pDm0I1M571qAN9Gc\r\nKDjTsRM4MNgFOhtPOzrIgNM5IYi0OLhEBDm2Svw4PCBMOd8Y8Dhaqqo5GNWzOX+FfTgCjXg5GkvQ\r\nOUcvWDrOWn850SnuN5h6FTjFjWk5Kr8OObzKzDiRr1M5ivXTOflOhzqlkgw6bHWnOKgczTj8P7w4\r\ndtRhOc6HYjnZ2EM57kEjObHmgji384c4YzaLOMe2CjjU9XQ5mHd5OcSdEjjnEYw5yyjxOcpuiDjS\r\nIkI5h8doOV/wmzd/Z603gTQXONYoBjmwO1s5bZWbNi5CUTlHMO85Mug7OT6yoTjk/qE4LB2SObDv\r\nqDn42QI5wDAaOW6QjTihfks5IYrAOVQmPTnYAFU4QG1pOHr4+Dh2JL04VZABOfgQYze8KSA1ARwg\r\nNbZEbzVy61Y1HeoaNQyABjW4xlY1kBPiNB2DADXnyTQ10KM0NQ7oCDW2GZE1qUgZNT0xADXIY/Y0\r\n3VjqNKp5JzX+EhQ1RJQpNaBNkTWRSWs1fwqaNWQv6DRR7hI18uyMNTg+WzXoS/k0EFVoNdgiKjVL\r\nzDc1/nqxNOdTnDTerPQ07ZsQNcmc8TTh0QU1AqZANQyIwTT+SlA1OVB4NYtc3zSkpBM1Bu65NDAZ\r\nJTU/TSg148D0NJ/8GjUpdwM1l7v/NGTKSzXc13s0xBXyNB4lFTXmTzY1kl4ZNdFXLTUwkgc1R37G\r\nNBAkUDX8Ze40lrR3NXk2iDUWxk81uM9wNYOrATUTdvc0qv0kNYofojT8E2c1GvQRNVaAkDWrZCE1\r\nXF0pNTFn5TTdSwo1YPaWNB7x3zShUsQ0cpUPNeMRTjUEJDk1Nin5NFB0BTWKaTc1JCmwNFurKTWG\r\nuAs1RUQpNarfNzXaKh81LyosNaTNHDUuICA1soIfNWgjFjWw5rE0lEoLNQKaJjWKfO00/pRHNazd\r\nZTX+JMo0P2FRNcRMIDX4gB81TswLNXbvcTWHCPE0gMdbNX5QTDWp3Bs1UUsQNePueTUWAx41Wuo8\r\nNZ2d7DS5iS81UCv2NJ4uqTSxAQc1h2jYNDWSXzU6pgA14sj6NPkBbTXRmeo0AEAcNQ==",
                            "noiseTrainingType" : "default"
                          }
                        }
                    ],
                    "start" : 10174,
                    "duration" : 2027,
                    "mediaStart" : 21,
                    "mediaDuration" : 2027,
                    "scalar" : 1,
                    "metadata" : {
                      "WinSubProjectDisplayName" : "",
                      "clipSpeedAttribute" : false
                    },
                    "animationTracks" : {

                    }
                  },
                  {
                    "id" : 97,
                    "_type" : "AMFile",
                    "src" : 13,
                    "trackNumber" : 1,
                    "attributes" : {
                      "ident" : "Aufn. 07-11-19_032",
                      "sampleRate" : 44100,
                      "bitDepth" : 16,
                      "gain" : 1.08610518204894,
                      "mixToMono" : true
                    },
                      "channelNumber" : "0,1",
                    "effects" : [
                        {
                          "effectName" : "NoiseReduction",
                          "category" : "categoryAudioEffects",
                          "parameters" : {
                            "denoiserAmount" : 12.32,
                            "denoiserThreshold" : 0.0,
                            "noiseProfile" : "2XP8QdR/KkLgHe1A/n7SQCu/HEGk66xCL482Q23Yz0KHaB9EG926Qzs2mkMnuiRDGZ+lQ2KzskNX\r\nUxBDkuI4RPRUkkPkRblCn+wtQzyB10LCgC1CSj3SQTR6ykEhkQNCW2VHQexPQ0B9fApBC2ltQXAg\r\nt0A2GolA6dyEPz1jlD+F6rQ+AeDbPtgC7j6LDlM/e+2NP10kCT+Yeco/aqLcP9ZdRz8U0xI/vAEz\r\nPzIvkT4mLvY+6w0/PwZiGEDiFVZAPnAFQEHWzj9uBJY/aVs0P3PVjT87C1s/V7GkPxiPHT8vamI/\r\n/ey4P4Rjrz+zcPw/QXtQQJx/sz+uB5c/RUQ2P+wALD6N8Qg+2c4gP0wBOz+wXzhA2oZ5P3+r5D/z\r\nGJI/auoiQBt9nD+17VJAzGe8QN9PmUCXwKtAeTssQLbdaT9tYps/Yr76PvYKZT+Lw5E+bckLP0NX\r\nyj7zraA+5bJcPg6H1j7yajo/JsCvPVYvBj4JqzA+mauvPTyLwT5Fi7A+cPavPgdiuD3CrsI9+uTa\r\nPXkQVD0wqcE9cFyCPqj4CD94s0M9ufUjP2Q3gD6z35Q+md/VPetksj28LfM9YRudPUltUj7hNfI9\r\n9qZVPY+MEj3g8ZY9ehGbPSq62zyid9U9N5n0PIfpUD1XZT49CKyWPBnUkT386989q5j+PMoCyDw2\r\n4h89X39sPSihyjzgaI49FOOaPPyfFT0ti6s8JwZgPQk7szwiF8g8JmcVPVEz6DwZr1w8NG8JPSeU\r\nDz2YY1c8y86jPMhRSD26+GE9vZHEPF5dkTwcvfg8MwX5PAAX0TwXLyE811QxPQzgyzwuQhw9UpSc\r\nPlbpbD0ieZQ9iOydPT7HjD29u4Q9rFaCPetmRj7IQd49Xjw2Pd4F1zy7GHA9NYqnPHjFAD4Y+Gg8\r\nBPMIPftpTj1p/oo9fpLjPEVxXT0Ee8I8otbFPW/HSD4rYJo9MxbCPLwyFD0oKVc8yyscPWb4lTzt\r\np7U9r/s4Pss8HT1OEz09cQcNPv/sXz2b25k8vD5gPXjhpjzfuRc94LCWPQ2rODzpC1Y8AXKSPFYx\r\nXDwkWYE8mDe/PPWZ9Tzc5hw94Ok0PEEI3zt8b2M8WJHMPGIvzDyiF7M8YUIJPFCTnjtHT188iLOX\r\nO+wrpju/jqo7bgdzPPBQ6jtvp7M7qFfGO34+MjwueGI7FgM9PO++5ztwtt07t3ECPJqqxztMIrM7\r\nmywNPMGlYDxnx8k7MvzJOzeJcztyIMc86DQcPPhzyDumZ6o82Z+eO9BAzDulG2A8QTKWO1Wn1jtk\r\n0687r5aAPNxo+TtN8lI94BniPCxHwjuFNIo7mKjKOwJzgjtAqoo7TV3aO82BszsOHtE7AeL3O5Gb\r\nhDuVq5Y7pX2NO2b5zDtTAcI7ZHfyOyI5qDu76547MwlsO7H+pjuJ62s7u109OwZF+DvtOYM7C5uH\r\nO0XZrzscHEQ7uECpO4J6wzt1PGY7mbrmOx0zsjuObdg78NyLO9OZ9juokE07zFh5O7+oOjvQUHo7\r\nzAViO37XfTseArs7yLtiOw1P+jsxZFE7pm8MPB6BDTy496A7pEIRPC/lAjwWeiw8htUuPLiVXjy+\r\n6qY776UyPI3OnjsivwQ8uFk2PEcSITwSYJQ7LwwSPLqdMjwC/cc7Oor/O+36kjsr9Yw7c9w0PFSo\r\nfjsGj807qIOaOwV6gTt4f7g7uEiPO0k7uju7lq07I1iqO/Zrnju64QI8OtsyPIwNYztnrRQ8tCj6\r\nO/OQDzyrdWA8gNRUPJMq9jrCqoQ7YYJxO2cfIztTKKI7BX58O4WLSjuDUtM7DobmOywbxDvwA087\r\nZKZQO2XRJzu62kk7XP90O5ZoVDuKyF07JvBFO6b2NzvZY1I763wxOw2kWzs7VVk71LlXOz4OOjvF\r\nMEc7cqJVO9/bVDsCLVQ7tHkDO5aDgzuwxRo79CwwO+iHSTvVixA749dAOxbdRjsnUhg7EKKIO7fr\r\nBTvXCCY7m8YZO+aDdzsLYmM7YQ4dPHy9KDvKYog7ql+tOx4pjztUZ507EIt8O2I6bTuLBZU7eLdD\r\nO1JiljvaD647CxncOtKGQTtk1zU7IyIDOy3VljsOh4c7nGIKO+TBDztSlbQ72HL6OnIPCDt6Jeg6\r\n9oF1O5xehTs0IoU7RtftOhs0Sjsg0qE68sGjO+ahuzrT93A7EuzxOqJXiztGeiY7DAk8O5OyPTus\r\nmaY7WNwgOzquETsnBRM7zFsUOyfJSzsE6C07gL6NO3hUJDs8vwo7nBMYOzqOLjtXsQ47BFAVO1mh\r\nCzv4SxQ7/CETO0iXDzsoCSE7Z7cRO6faCzsCciA7fssDO1UJCTsXkgs7aAIBO+V8CztbIEQ7xDJp\r\nO3ZLQjtR7T47VLbJO9aCgjxOAl88LeP6PLeJxDwUd0g83h7wO5xtMzs0kU87MsLROtI3HzsAF9Y6\r\nah8EO3zGLzvRC5k6Q/sUOzHM0DoD5iw7D6XgOk5VszpUvAA71D/tOsFMPzv0T6o6nCsZO5yJJTte\r\n1b46X77vOsgVzDqwtT47GuPjOsYc0zqWEAI7Mv7hOhX1BzthavY6xnQLO/mb3Tqoluo6p5y0OhOM\r\nzzp20EU7hC/DOihSqDqEwv06m3gJO/UTlTpW4Dc7S1rvOrw4nDqSIew6gJtpO7I/PztmSoo6FBXQ\r\nOmrsRjviFQE7RyQfO2l+xzpqgBY7AimwOjZG4jqn6tQ6YnzyOsYDGjsmtfc6PmAOO6E22zp0fwk7\r\nrZP4Otyt2zrlAuk6Kq8OO/Z85Do9mgc7OfUhOyxZ3zomUpo6qFTcOtvrATvMls86UurqOuGdrjuk\r\n2LU7hNzbOj6PFTvBu/Q6kHUZO2pjsjrmgvM6rDr9OvB16TrwTb06TijDOjSxGDtbiQg73p+4Ovb1\r\njjrmVoM7EnOjOouK9Tpethw7EtnLOgLRqDp70f862WamOkhMpToOgOs6aAftOkA0FzuJAIU7FUPK\r\nOs5Vlzrci9U648rJOkCn2jrtQ9c6DK7mOvYxwzrJR7Y6K+PBOgP7yzpIma86lN/EOpCxxjpaJ306\r\nZhq+OtItATuBcwA7hUalOjCEozpA0406VJShOvdIlDpkCnk6L8OTOoRaizoO/D06gSGSOpw8uzoI\r\njq06UGyTOhsKmDroyvg65ZmiOgirsjoYzp86NMqzOq7JqjoiOdI62VayOimInjo8Sn061T5tOv3Y\r\nvDocej06K3uWOjwtcDrperk6ttTTOjQ5oTqCSQI7IqWQOuvXcjo8iwA72YGROrqifzpSRBQ7NcpS\r\nOmlRITvoc9k6qgquOqPKkTqeYlg6DHzfOmO/kTp+0sQ61sK4OqyjnjrXFsI613bZOgeTsTp4GQ87\r\nDiOtOlIRZzqqFYI6LrLVOkwszzpbKNg6dBvuOm1uiTpolZY6PLv0OpXc2TqDfr06w47KOo7lnzrS\r\nYbQ6iGunOrhGyDp0Uj86JV1lOmi9kzrWVaU6auiiOojrnzp2Olg6ti8LO2YYOjr46J06IpKDOnM5\r\nRDoQllM6+fuHOoQGrTpL1zs69DxtOniVczrfgrc6ZZavOhi0rTox8bE62J2HOjAXsDqwr7I6OT+t\r\nOuJmjjruBow6WdqAOtRtmTp5NpI6JnGXOsTvjjo+yZI6qTyQOs33jzoBIow6ypySOltwjzplgYw6\r\ndQ2NOuKDkjrYtIw6NviMOq+JjTrWS486RICLOt20izpDr4w6MHuGOjLpjDr6DIg6xzGJOkvHjDqm\r\nDI06GE+KOti8ijrRf4c6FpOJOrAjizoUCYQ6SlyGOlV7iDqgcYg6PdyMOo+6iDqz9oY62h+JOms7\r\nhjrdOIg6NqOGOhzRhjrk5oQ6LROFOhO4gjpMZ4Q6DCGBOhn3hDqgG4o6yFiIOte9hjqoBYk6bROH\r\nOuAVfjpxJ4Q68C2EOpkThDp4gIM6shF+Orp1gzq8D4Q6gX+COiqZgDpnN4I6mjqHOlv+gDp0mIM6\r\nYGWBOmYUfjrQgYE6lw59OqqRgzqRdII6OFV3OjRJgjrb34A6eEKDOmqKeTpEg3c62u52OjWmgzrS\r\nYX869It1OvorgTonvYA6Qox5OtNEejqfk4E6qT14OpCEfzo6vHo6oBR6Oo3tcTperng6UgN5OuiX\r\ndzoCHnc6cGB8OpK2eTqL5ng6INNyOlJDbzoNM3o657JvOmUiejrqjXs63dZ1OgEbdTp4k286Ma9t\r\nOs6FbTqp02w6eXF0OrQ0dTohjHk6osNyOq1kcTon+286uOZ0Ouq6tjqiiXQ6ov1rOppOeDpkpHM6\r\nIb1vOj77fzq5A246Hrp0Op4pZjq65HE64ddyOhKrazruenk6ohV4OtbmbTrGDmo6kuVrOpLZajoj\r\n32Q6qX1uOsSDZjrFIW06+HhnOirgazpOZ2w60MhwOq6xYzphYGs6QsdoOiaEcDqHnWw6yYhmOmc7\r\nZjpLfm86/zNoOhCtaDqbrmk6kExuOjbjZTqe6nA6vchxOkE6aTpRBmE6s0JtOoBgYzqLEGk6Ehhk\r\nOlyfbzrHCWU65hFeOlsdZDpebWc6YpVpOnVuaDrMGWI6ot5lOgvEYjoi/2M60I5hOtxrZTp8nGE6\r\niFBnOii5Xjpzl2A6dwtdOkHtYDqywVs6TjxkOh6hYTqmcVs6iMFYOtjsYzr7s2E6walbOhEqWzrV\r\nE2k6TOheOhcXZzrZA1o6KtdaOpADXTqxNmE6WPNoOt2qWTq/Xl46hzhgOmBHYjr3J186vvlgOl72\r\nWTqz62M61jJgOtVtXDq7BVo6cCNaOoTBWzrigVs6N+NlOp5bWzr8dFk661BcOrqWUjrJRV46x3Vj\r\nOuznXjpLtl062U9WOtysXzqSG106VONXOnGzWjokD1w64jRhOu3HVDpqWVY6vABUOm3hTTrNHVU6\r\nS9tTOmrtXzpiiFk6sK5hOgz+YDpxQlg6fa1WOr1jWzo/UFw6hB9XOihLVzpOm1g6Ck9XOkJEXTr+\r\ny1M6ksBUOv+IWTp07lw6Ik5SOvgsWjpQHFs6MsxYOrMTUDqSJVs6pkFaOvqTUjr2iFE6ps1YOkeJ\r\nUDref1U6CwZTOgXVVzpYClM6ZdZYOskPXDomMlc6FxZVOkPMTzrBOFs6/yVTOgklUzr6P2E6fyBb\r\nOgHvVTpwxFs6tCxZOv+nVjqztFw6xYBUOjrtUjrFglo6JhtbOpilVzpucVY6DINXOiYFUzoO51I6\r\nc8tbOmMNXDpnSFA69ZZeOnT5TTpZVVI6VzhNOhp9Xjqjuk46X1tOOnNBUToHWFY6BKpYOr9HVDoT\r\nZ1U61yFQOtf8VDoCpVI6apZWOvKwUzpGb1A6dWlVOifbVjo6NlQ6rxtSOofaVDoIFlA6sPVKOsKq\r\nVTrYsUk6rbNPOrTWUzq1U1Y67q5MOrIxTzpeCVM6k19UOjpyTjrL00w67fRSOhagVzpnIFY6jspL\r\nOjNyWzq0AFs6CPVZOkU+VjqgoFg6U9hWOgrHVjouyVQ6HCRROqDhWTpsh1M6ohZSOpDyWjrJMEA9\r\n6L2lOszysDqFNZE6Pe2AOtyLgDr6Ooc6SRyXOgZ2gjqUIqA6lyilOuCiojrONYc6kjKOOhnyZzoI\r\nQpU6Y5hcOk3PgTrloi06GPPYOutsOjpPcyA7drzGOqDo8Tq32oM63vKXOpHmkzqQ8Lg6YmKlOmlT\r\nwzoWbDc6yl+JOnY0kzrTdYA6nucJO3J3OzrQPnc6TRyUOjpmtzqguZk6kFkbOlAw4zrMyWo69rWF\r\nOsFjTTq7hJw62G6GOofnYDrmQ+U55qZmOpogaTpEOwk7L2faOkVxtToHFWY6c6wUOl+hMzrokbQ6\r\ndOiLOu8wDTtksDg6NUwwOjSQmTqTj086N3eBOlZkUjoO5J06P0RJOgf1YToucKA6r9ntOl57gDos\r\n5i86vjNGOkpcXTqQeDY6NnUjOh3SjjrKRTY6xjBeOsPvSjo+PKw61SV6Or6GMzpvnlc61sITOhfE\r\n/DmTWys6+shmOqSOHDrI57I63wSIOo0fizrfUHQ60EqQOiNIhTrw4qQ6q4JKOohO0TpUIS068f3B\r\nOqCctjrW3VE6lhk9OjihEjpg8/s6+IOMOsu0iDp5OW86E2xfOox3VzpfKb06fju9OoaOrTqn8I46\r\nHNbaOmOWhjqfVLo6+HaBOvqYnDrng3Y6bJZUOmKw2Dm7iG86vSCNOizxLTramIY6nv2QOhlEPTpZ\r\ni4M6Gw8lOszXbzr2MDE6E45oOmMIojpeSGA6CykhOplOYjrVETs6TQGROnwNgzro6106whylOoZ6\r\nozpmPaw6Gt6mOm6PXToJ/Cs6Js6DOgs6QDoDT2M6S6kwOp1WBTrEv3A6045MOrA5ujpAxSI6jvyI\r\nOi5zsjrFZ7M6yw+uOriZjjrJoz06M+dQOjSZhDrIx5s6Xm7UOgqhjzqLNL86S/50OsZc7jqffqE6\r\nhgHROvQh8Tli2p46Dmv/OvOPMToGR5E6FKCdOmO4iTrybMI6d340OjJ73zp2rZg6Ri1GOnD+6zp/\r\nJKk6SNsDO5v8GDre5pc68z8POgkVmTpLtJc65J3JOrsAozrjm206IuXjOuasPzo6uqM649/EOoEQ\r\nYTqCjJ06URFKOijj0zp6qJY6oTY7OnHaojo4wWQ6Kll/OmZBgzrvrk06eYJkOurMQjrE3RA6TNuM\r\nOsBAkDqycG069krvOTg2oTr81/o6U3hnOtzAJDqrG306O0MIO8tuxTrI6p86uGidOjjv1jo58Ks6\r\nuwigOnHHqTqT7bg6sijHOqvKpTok/Es6asGZOkWdnDpfpA06VqI4OtVpdToalX86W+VDOsyGnzo0\r\n4zY6ei0/Oi/wVjosoWE64KZCOg7DlDpifqQ6psIxOsR02DrpJ206lMhlOqdEFTrtavE6ttfWOvkb\r\nJzoGyAU6MEFcOp4ufDr7eJ46N7KyOoR+CTuG8pc6W7Q1OihsZTp4sSY6FLhgOsvTfDrC0yc6fkRd\r\nOrbNbzr6xaE6mQkrOuBmYTpbr6U61nPWOV7QRTrf4pU6MJJTOrmldjreUyg7CslGOleIAzrWexo6\r\nxMqQOm6DgDpnUkc6n3KqOqTAiToUa2c6DRuAOn9/LDp78uw56/iAOuRdvjoM8AU7gCPxOfwOaDru\r\nLG06ehobO8qzgTrF6Mo6dyecOu6OYToaxOc6G9VIOvCrKToil3k6aG3eOk8ptjq8axY7QRSGOm4k\r\n+DpJcl06mhAzOiv/VjqFZZg6Fu0sOi6pTjrelDY64ApHOpQGTjpXMZc6jFxkOk8NkzptiK46tiqG\r\nOiWoazr7lME6HJvROorS9jpqPiM64CziOjv9ZDqQAsE66g3KOpQR7Tq0o4g6dFdgOnyxQTqyxLg6\r\nrVw4OlJSVTqaT5M6qgNxOoDciDoZK1Y6tKzVOlbtJTo7UT06cC24OlKNJzo8dJQ6vmKwOetBBzpQ\r\ntY86G9aEOveuijqhD0U6AxkhOjOQkTqvzho6psTHOsqejjpJyKw6FeH2OtwbxjqtZ1E61+SDOu72\r\ngTo/DUU6MDVlOpQFUzrAaiA6JIrbOmN3gzoK22g6XMIEOtxznTpw6pQ6oGVxOtdmbzrOjgg6+F+i\r\nOiVHiToO5eo6sPpTOhTcQjrK9TQ6jygdOvfWkDrut0Y6M1xmOnhvdDqI+tI5svwuOqsfPzofmcQ6\r\nit3POWgUYTpLsbc6BoyyOpQKbDo2N9Q6oQ9+OmbSgTpgI2k6WAStOreYmDqqSLQ68F8zOgFh2jkg\r\nqCA7dFxxOoEDcjqeJVo6SD6sOmWeojosjbU6I4R4Oo/wiDp2zo46iNViOqROlDpNi6w6TGuZOuIp\r\n6jqzvW86wpSaOgxihDra8YM6lWGCOhBQjjps9Hc6BbdwOkZ0lDrbmZg6Iw8iOm6QbTpAsmI6gvmI\r\nOhLOTzrvANQ6rMI1Om7fmjpgNII6v053OtjuuDqCw2Q6QX4sOgUWQjreY586lJ00OvOycjof8Gg6\r\nsH0EOuqDyzrYeuo6hNQDOlxTuTlZKwU6FYsROrBF0DoBEb06FF1OOgxvmjpo3Hk6nk2BOvXcdjpE\r\nsok6iUaFOn1mGTrUjoo6KRk8Ov5vSzrUHF86gHVMOrw9fTpVdZo6nKpROg0m6TlPJWg6NkFgOmqR\r\nmTqICiQ6Yz/XOTrdVDpSUmM6RKGNOtp8OzrSbn86pjg3OiUAGjpt2C46gnr8OdPyeToXBhI6AdqL\r\nOjWrozqoiLg6cmSnOmwYETpvekI6/WhyOu4OMjpqYqI6AaqZOsXj9TrUy686eGGTOqCPhTrw8J86\r\nnSMuOkLF6DpHNpQ6i29yOkuhoTrx1X86DcJNOur0fjrcMIU6wlWROh+O+jkEvpE6ccurOhK6czp8\r\nPJ86DgRXOvHkYDqqTCg6C/EVOwHYQjrvN6M6z13cOkFtTzrGUJE6YLX5OrdCxjozoI463BZuOjIo\r\nRTqFPYU6+EsPOsu5mzpRAYs6WnzxOk4tQDur6kk6ICJ8OlmjKTpRrzs6qcQrOvbefzogBhE6erRR\r\nOg+mmDrsLzs6cGoZOv1+VTqwWlc60w0xOncmPjp58ys6AROcOpBFKjr4W5I6rjhVOjpcKDreNuk5\r\nd5SBOrpmWTqEAnE6+rC6OXSlpTqeM9s63nn+OYhjgDpCMW463s9iOluA7DkI2Y06XrBROvI4Azo5\r\nt4I6IEyJOgqapDovS3I6ZwNNOrwDSzqIj1s6vlUPOmc0UTqEuvA5X9EUOtJUpzk6g4o68DKpOqcm\r\nXDou2/Q50TzUORxvkzrg+7Y6X0c+OqfhjDoye1M6T+uPOtcaFTqdVUY6hCCKOk1vfjpsHl46OkJZ\r\nOr7/zjo6xNQ565S8OgVvrjoqd5U6vNetOtDWPjpw+n46Fe6jOq/ZxTmcDYs6FPVNOmB5QDqtsl06\r\nWzFxOhnGRzqc2wk7++1uOgtmxjpWcac6TgFHOnDuDjrNHQw62maDOqJUOTpEk4I6BSWZOiu2VjoJ\r\nLkw6TQRoOum+Izo5KbM6liQBOtTVijoz6ms6HiohOlnJhjrFwZQ6jFUmOukhpjr1gSg6fZw7OhUc\r\nJzqPbho6fD8kOpL3HDpOYDg603uVOoP/hjr1uKU54AmVOq7tEjrouIw6r6wLOje6GTpGHzY68u1H\r\nOoxRhDqmRec5hrgwOkW+pTpsvGg6ELBvOgyqZjrOIh86MOKkOlDHgDqP8YE6GuhIOtA1qTrUfUU6\r\nme5/OuBHljoyD5I6kaJmOrwHJzq1ZEk6L3QGOuyRqzkqmAs67lSHOv0CUToGtx8785ECOkQ/QToI\r\nSU461EDsOeplcTqggBU6HhkqOh2G0jlyDJI4NlYoOBBinjh+tLY4tBYyOE7GrjdPHDs4pf6zN5Jz\r\nlzjyd5U4tIY0OKCNODgw+Dg4EqijOJF8lDh1su04stqhOODA/TdjSJ83do+oOMwCozhxalo4Ei/G\r\nOF4GzzibYoc4bsZDOMt49DeSMZg3kGSGN4dJjjg80pA4ou8uOeQh1jnxQwc62v7KObYf0Tkecv05\r\nkhsHORsyEzmLEPI58Zq9OQTtJTkuEjc5YBwwOdJZOznG7Gw5UJeQOXri8zmPWu85Sq1kOVgq2Tiz\r\nGO84QsJOORNNmzm9ZO450CQUOl9VoDm8Ntg5Mf0MOgj6Ujlqsi46ZGlmOoKGWjrdj9A5nC+BObzI\r\n1DkE5No5DmaBOahrajlkhwk5+d41OHD90Dd/CnU4vVOGOCnpLThkjDc4xpi7N9zaITl8Vk45psH/\r\nOKnRODlf5g05kUK8OQZeYjhOAYE46LN4OCW/HDjd0UI5n5WYOUg1sjk05J458j2jOcjHUjnDYFk5\r\nCjp8OTZx9DgY1QM3tDIUNjt/qzU9F+01wTucNShI/DWomMU1XBkwNdBIvjV0vXk1me2NNULFfTWA\r\n0Mk0R+GaNesxCDUOUYs1JKxcNfLxTTU/0II1FN72NCqGWjU+SuM1Ge8SNo0YFjWrF2g1yE/GNfrP\r\ntDZO6zU2IqIeNncLEjfFoto329fCN8w+rzkYZrs50nefN+vkvje4kTw3TJSeNqWqBzZK6E82jCYK\r\nNl3GADYFBJA1PyKiNQbKGzVCERY2l7B1NXTiVjXAzpc1japZNRe9LjWkgkM11qsWNTXO6jS0lRU1\r\noz/CNaaFLTVQ6iQ1wDkONXD5NTVnSS419u8aNeOhUjVDURg2dFF7OBj58TjH4Nc4v5mpOFK4Ojh7\r\n3Aw4GCSvNpGtCzqvXho645wmORuoFTmr+Zw5RCk5Oa7HgDkwqe85VxFpOV4Spjj32kA5hXqrOTjn\r\npjpW+GQ6SZy/OVY0vDX8slI4clmEOQZNxTnhcog5SEtKOcWLkTmRyEA5yg86OC3T+Ddsb7o3UhA9\r\nONF3qDi5POo3Ukg5NQTTwjXXfKY3HEQ6N4EAgTdMgpU3WhkMOB0fbjhicgE4VvOgOEW6wziTTlA4\r\nX/cUOfk3mjkYOrw4gYQHOAd6GzUxlCI57J+uOTJfgzllDgc5Zk4uOOv5MTjC5pc41sWjOMLO+Tdo\r\n4pQ1I5R5NbIBrjQUUV01rTeQNM0eizUyhOg0NOjGNf7lyjQOgUI1V5H2NJvZvDS2Ovg0kwhnNQtI\r\nJzUSios1CqcPNY5L4jTklcw0ut/jNDYGETW09UU1Gz7sNFh5KDRA04Q0+KLFNATfFjUgYhQ1CDUQ\r\nNX7J5jSptw81bfy+NGVS9jRZBuE0lAcBNaibkzTp/KA0KiIDNQZEHjXjPwE1EQcANV6CFjUA3ws1\r\njqrqNAHNEzWA5gI1ChGeNW7vAzVd+cg0QBjKNLbVqjQiLfM0ccsZNSjd/jSY7Os0PGuINYRJ/TSI\r\n0gg1JhIXNTLf4jSLWfw0wFIINR7hEDVCvCU1cjQBNUQlUzWXb6M1hzEkNe2syzT7jIo0hErmNJVQ\r\nJTXb1wg1KvkHNW2OIDUW0BE1w3YENYrOgDXT6cQ0x5LuNOXVBDWtpwg1H7QJNRrQ7jSg8uY0xsz8\r\nNKZS9TTWcUI1tn0oNYUTDjXD16U0rY/PNFM5CDWMIwo1eCWUNGKdwjTY+f00AEAENQ==",
                            "noiseTrainingType" : "default"
                          }
                        }
                    ],
                    "start" : 12201,
                    "duration" : 1056,
                    "mediaStart" : 15,
                    "mediaDuration" : 1056,
                    "scalar" : 1,
                    "metadata" : {
                      "WinSubProjectDisplayName" : "",
                      "clipSpeedAttribute" : false
                    },
                    "animationTracks" : {

                    }
                  },
                  {
                    "id" : 98,
                    "_type" : "AMFile",
                    "src" : 14,
                    "trackNumber" : 1,
                    "attributes" : {
                      "ident" : "Aufn. 07-11-19_035",
                      "sampleRate" : 44100,
                      "bitDepth" : 16,
                      "gain" : 1.0,
                      "mixToMono" : true
                    },
                      "channelNumber" : "0,1",
                    "effects" : [
                        {
                          "effectName" : "NoiseReduction",
                          "category" : "categoryAudioEffects",
                          "parameters" : {
                            "denoiserAmount" : 20.0,
                            "denoiserThreshold" : 0.0,
                            "noiseProfile" : "k5ONP/8NEkCH30c/lYmKPWxZXjwR0Io80aNvPFdX6zvwwgc8PSMRPEYKyDv7QSY7GtXcO91W1Tog\r\nEJQ7LbmhOngbzDqXPEY72VgTOxabwTqm7E46JSQ8OtV+SDqmM506kCBiOrnvfDrW6No5JYI+OaIX\r\nxjksh7Q5sIqnOfqj6TlIxxk68hHEOd5J/zmxm9w5CLzLOXl1pzlc7z45Pq+KOfH8oDk+iJk52LBo\r\nORi4jDlxrSY5Qg2zOZJPqTnq4qQ5bB6EOSUfITk1VtM5PpgROh6eHDqV6wE6AlKtOs8xxzrW8Pw5\r\nEDo9OjV/+DpB4Gw66VNHOyKwPzoQz1Q6tpdPOlzcmTnOBJY6XRs1OeZw5zlHNis52CA6OTiPWTl4\r\nVkg50EnYOeViGTo/9Kg5GJ1gOX5WBTpXCw46xYkDOo0sgDlYxC05dNJtOWZs+zgU3A4672utOMqb\r\ndjnB+Lo58rVbORGQ1jmIuLw4pyLiOPX4STjQVfo4C08cOYqqwTiU10c53aC+OGp8IjlM97c46jZR\r\nOWgD+zk4NhQ5gi9KOXdYIzmCADQ5J9q+OVYQcDjK1Ps4WJ1kOKgQojgY25s4MyMYOIeIqTidgg05\r\nf4NOOdcgqDi9NZ44wjMWOf1Y7jiotUw4cmnYOPlyGTgNrZc4cuzDOBTmkjg8FQw5UmWzOOIepjnu\r\nXBo4JSnUOHyWgDmW2984UJOTOIv8fThQQKc4h75jOFDXADivSCk47LhWONkwGjgWB543iGSSOOTj\r\n2jdE+Gc4OTjUN1s5zzjsR8M4ALy9OHDp8zcKuZk4gomPOHQyHzixnNY3/jQkOC0pEjgthJA47DFE\r\nOJW+TTjwMYQ4QITtN0t2GTjsuRI4OjLFN6Q4tjepqgA4X8+1N3cUsje4a5A3iVcpOO4vCTg5D5Q3\r\nyFi8N412ATgU4Uw4K7ZeOFCFEjgjxGI4k0szOIqiHzhUAhU5MsO7OA0Eizdcrwo4ktGDOIyhaDfK\r\nJdE3ms7MN+qT7jdmPo44JXAYOAJuwzfpKIs3QUW2N+YvXzdQpUU4nVSDNxZUCjg0Po04lLI3ON8Z\r\n9jcrGrg3NQglONaPnDdIMyA4RvjyN+wlJji23Yo4EdqcN3BjiDh/GUI4mQ0NOL7ByTdMPLU3MkT9\r\nNmnOMDddeXU4XlCHN4PeSDdyoQ43qJ7JN6xTYzcU78E31KxgN42bJDeflwA3Y8CbN631sTcKRgQ3\r\ndQ0xNzO/CjcoQ3g355c0N1LNmzeaO703FqweN5hX7zY2o0E3hUVDN423hzcuo0k3lROPNsKclTfn\r\nmJA3Gw8hN87WEjcvSYs3TQJ8Nw4lajcI55k2FBNTN61OKjetFyk3RIRdN6vbCjdHLDQ4ONm4N/Ij\r\n2zZuGIg3X40ZN07+UjeWHAU3BYqyNmLkxja8Hgg3dDNIN+RQrjai0AM3Ar02N1yTmDYNbqo2A2wS\r\nN9YtADcBdBk37v6wN8AXiTc/7lo3GFWcNuNX3TYK+yE3gjUAN9FRHDfzCxY3n+x4N1jaqDaY1yw3\r\nbafmNs9UejYKmo42w3MXN/FeSTdaNVE3CmPwNgCt5DZ53rg2k5FDN3MxHjcQzdY2iIbjNoR2Azcx\r\njxA3OOS2Nk+A+zZfu0Y3fH5DNmPRODcI1Kc22hscNwFg6jaMjQw3gF7ANnIEMDfH7oA2mi7lNpM5\r\nIzeM88Y2ZXieNl9lYTeNmR83dpDzNoOw4zaKOZk2AbMUNyRLvTc6Kjg3g+rwNlY7EjeAaqo2k9m+\r\nNqgYbzZuQnM2O9h7NtFVTTaY/Zk2KTcjN/6eADckl+o2br35NoC49zbAN4Q2eQ6UNh7JmTYeq6k2\r\nJhzoNgrhUDYv3oE2U4iMNjTrZjaf7W027lKSNrOqGDd0l802wjdeNh9enDbQM7c2BCqXNofG7TZe\r\nob82hM6nNmCUbjby/c42vOmXNhT3wjaoXJg2r+KbNnIO8zZQ63c2gImUNm4AizZWsAQ3/qrJNi0k\r\nXjY6E7A2JrWtNgicXzbFJEI2WMi6NpEMHzeGpl828KqoNjQgtjZBoi42yESrNhdMVzaE0lc21nen\r\nNrxivzYVW5k2Z8WzNop/fzbUUrY2oAlZNopz+DWp7Do273uQNhyahTaSvD02UvPjNsrnXza7Mpw2\r\n11plNhZ/izbnXgs2+P1vNiatuzblKw82sQgzNv/2ljY2jmo2LAsvNpUBaTY4dlw2lJgWNp1UETYF\r\nslg24nSjNpQhHDYYvmg2xDiINsZ+MTbqOKA2wWARNhYsAzb0/lA2nfJGNn7wjDbQ8UA29oizNqKC\r\nwTYMKr42FryuNvyYETZuH682glstNk2O5jXUIFw2NUW3NmC5iTZ8sV426HcoNus/PTY/9b42ruhi\r\nNgK5szbwRc01FP9RNnhCMTaYPCY2SpDKNbRKdjat15E27KdANnXqkTbOEKo1rxGkNkwlqzZlJWc2\r\nxmCVNjwnpzZJpy42Tz1INnpAhjYvxJs2MWAUNkTvaTYTGBY2Cb2mNnDNnzbkRDI2/eTZNk1phTbj\r\n51Y2ydIRNv1ERDZ8HHE2RvS9NnCfUTb/q442hLTYNvD4nTYmk1U2VMm5NeJLzTXJZfI1nyUMNusb\r\n4TUaHaQ1f2gCNhrgHDY8Mfs1O3ATNiqq9DUc8+s1ioHtNYz0SjaOa8I12ri7NcqwDjZMeUY2dBwo\r\nNTN4CjahT5A1t0oKNtbLwDXaUQ82x8keNqLuuzU61wc27g1MNtROxjUIB6I1FHQsNuFDHDYAoMM1\r\nmMhDNm0HDDYoTtY1ufrhNUiyBjbSDvQ1nJaYNQKrjTXiaaE1+abqNW7ZHTaVG7g1jhTNNWpSkzVy\r\nSgo2kR7iNYIHeDV6EPE1TWQCNl3I5DUWL981dgKPNdIHhzV7gZY1HJ3rNcGI1TWXbIs1eV/5NRhZ\r\nlzXoCMM1mphcNeZyqDUunbg10pSLNfjXKjYOopc1ofCNNUDNlDU20Aw2ko2mNfL4VTZTdqY1c0a/\r\nNQ7WvzV++5419+/iNWi9UjUhP3A1pmzPNUZRRzVKIiQ2gQ1UNUVD7zWGQ9c1RyeWNb60gjWGyYo1\r\nHObXNfZtNTYCR8s1oiqaNRRTRTXxgZI1YMffNnlEvTYIz7Y1HH2ZNRc5vTUCU581zcOgNaCUPja6\r\nsq41dxTcNbl1vjVxXjA258iNNZjn0jU5sJ82LqveNYpoCzYvRz01ahDUNXos1zVWpZs1dGzXNVBf\r\n5DX2AsA1BZCxNZPQkDU0Ipw1F8P0NWqfJzYuzy02RSPKNf2myTWmMjA2qmlcNbhv8zXIJJ02RNFR\r\nNr50EDbWZqs13o8/NsuBqjUrnUk2docdNo11rjWIuQE2TcfxNa8XFTZxkb413HBnNpW6AjbER7g1\r\nM3W+NafaHzabhJk1ZBEJNoUlRDaphQM26PWjNd8wjTYkAZE2SSMPNptV0zWk5o42ovaFNuhBxTWm\r\nP8Q1x/tWNkz7Azb6kU82ZvnXNR6I7TWuyfc1idXMNS67yTXA2JA1fi9qNV7RrzWeIO01gq6RNhKS\r\nnTWt5gI1C2fKNTcNNjbSso42O+ibNix0tDVueaY28DSLNiglqjWUq4k2OLE7N9DhLTaXHog1ubWO\r\nNhHT4DWW9Zg1lzKYNX6IdTblYj023d7ANRTO8zXt9qE1qga1NajkJjaylRE2pm60NXD6MDai04Q1\r\nNcLkNeliDjbTYjQ24TvZNhRz6zWGBZ42H6UwNrbz6zW/ZVk2G/CwNrAvYTZkjjw217h2Nm7PMDZ2\r\n+ss1H2lGNhfXrDYTiZE28ChGNmi00DXskjk1ALjiNRpodzUGjJo11jIXNWqauDUFM4Q1VNsfNuG6\r\nUDWChq81TZ44Nc7m9jWJXc41Qi/fNS48pTXAn1U1m11YNai5ETVeJR41bwlKNWbddTVmWKI1dmtA\r\nNYis0DWy3K01Fd+DNW82aTXdB401CyWiNbeZujXCIbo1/nRONb86nDVpv6o1Bho2NiUBfjYBzl02\r\ngtGONmNstzVCb+Y1Sn3qNf49bjZR4Og1goL6NfBgQjaIJmo1oZabNZVr3TV2TBs2/L9PNddGgjZ6\r\nOXI1um6CNpYrzjZh/+41IlskNndfSDdQQVI3nBtZNvrxzTWWMhI3npnjNmyNBzewmFQ2HzwvOMe5\r\nHjmNez855jLnOOxDsje3s2E2fhT8NxX8ODh5LYQ31CXKN5BE6De+P0Y44oiVOLCpFDgHgYQ4sCXc\r\nOH6wjjgVxAc5/L3eOIP71jdy1FE3Bl/BN4Zu+DfFg1A3fTVjNz0MTjhKTNE4/zwtONMTGTgwXiQ4\r\nlkK/N+KR+zavMZs20pu9NU6b8DXK5Y02xpDsNdtLLTbF4i82KGFxNSLy+TWtJJY1TjIqNiIlCjZ2\r\nyIE1NNefNUdzUzUEdDY12h0JNftHozXE9041o3Y1Nr071DUV7SI196G3NTDi0jUNYYc1wnowNtQq\r\nHTZa2lo2bNJTNXT3rjUcX4I1JPF1NSiFEDZq1lQ2nf+ENhm7ZjaYefI2xKgDNy76vzbbeHU3Ppc3\r\nN9v2NDaSqI02CAoaN7bqbTfBCpc2vyDzNpKvojYwpk82Y+riNvge/TYYthg2JaQJN223gDfUDJc2\r\nyoCENsZh8zamZIQ2rjndNm/vIzeQfSs2A8xBNbZNkzad2982G1GBN9FYqzi7JlE4KYqnOAco5Dip\r\nj5c3BHPQNyQXYzk1AQY6dUifOWQgSDeKL9g2PzhzN74asDero2o3cawNNwTMAzfBt6U3sPUuN4bV\r\nhDdkvTU4LMU8OB+0IDgCq5A3C0+5N1sdhTdWZ+U21qfvNx1xhzgrDbo3oBIgN1onSDYwx9Q1Kq9/\r\nNeAdszU9D001KvVLNas2LzXzgqo1ZEMONY3HdTXe65I1ZQdqNfSgWzXs/Dg14higNY2hvDV6CnM1\r\n2cB3NUh1szViLSc1OAPzNeIDMTXRFKU1+9hANcKZhDWBHSo1BuvxNKh3mjVrgIo1WgtrNZQh1TQ2\r\nU1Q1NRAsNY0ujDUsbo41iwiRNQuEazWkCp81wreUNWwFyjWSv3g1GAKFNdlnfzUkwXE1uNMyNeIM\r\nVTV7BkE1CIJGNVer2DV2J2g1nDJGNVP4jjUa35c1wUcCNSGHXzVI/WA1mloONbp1azUQBGA1mUp+\r\nNce+TTXt1Dc1A9UQNRs7aDXMVa81SnhjNWZHczWAUZ01s9QANf1vvTVWsE81+InlNciv5jQGrVo1\r\n3GvGNaBFXTVUM6s1NkiPNXfSiTUIrXI1eXqdNW6cfjVWVJQ1GGJ5NZDwczU9lyg1wsMONsq8iDV8\r\npUM1LL7MNWSBsTVUYrM1Iij+NVVOCzbmCWE13kCDNUehcDVF9Uw1tx5JNa6vRzWYdE81HsNoNc2N\r\nVTWvJFE1vXs3Nb9YJjVos6Q1KQ+dNSV8ADWq8kg1b/k7NdRehjUgGi818FVjNYx8QzWQzc818YxB\r\nNT7PoTUpioU1/cNwNRURgTWmJhM1N+pVNcnVkzWBsB81SRQxNTxinTWo+Qk1hSoINQAgqzUgj4U8\r\n9XgYOrbUEjp3usk6V0iJOh8A4jrjtZg6cdfjOpx0oTrKOe86uqrLOqhQeDpafgc7XWE7OpgIPTpp\r\nrb06EDWHOkRdvzrufk06fjFGOtSoTTourx86H+H7OqqMVzruWR07+sgeO+zCWzr3dE067Z6gOhl1\r\nBju0QvY6Qjb/OUThZjrItZ86hD6VOkRGdDpimOo6pyuROmrKhDokEGI6ZnVDOj3ZHzqs+uU6vUTN\r\nOsgmSDoddYE6f3PsOkZrazrrIIw6x7+9Ohb2aDp6TPo6ASPTOio9ljpk2Bw6I9tTOjRL/jph9lY6\r\n+X/DOs17CDvstpQ6prtsOg+9ojqV4k46pExaOp5wgzqaiD46rtqSOrCCLzpS1BI6f5eWOsx0Ozr6\r\nzjQ6fz7dOg6ndTrhcWA6gB7kOd3TszozYb066yuoOkRCWjqBg6g64LgGO4RuADt4LZk6vduxOipK\r\nkDo/MYE6LpLOOnYhUjr4GQk7oO6MOmt3JjpkZ9g69xGKOns9hDqSNgg6pTiQOnwmhTpGT5w6w26z\r\nOlaAoDq+f4g6l3cHOr3eMjr4IjQ6YhwuOuqXizpEDVg6rbkIO2MJYjquCbw6TDWqOjCwzzqRgDo6\r\nK5qqOlqeTzo+y2o6BNtoOiw7MjohD1I63k+dOhyxSTpE08E6jHU/Ouw9Ljqsvko6TPqaOgzuEDqm\r\nJ0o6feJUOsFGiDoAlYA6/oufOps1zToF5lU6PqBwOhE2ZzpKGNg6aDEpOstN8TlKDfA5gQCLOnad\r\nDjp6GuQ6aL1ROoA8hzpK9aQ6O4jeOneupTpF4ZU6MhbMOpxN6zk6Sog61JQwOuJLmTqAEL86b2ld\r\nOo84TjrmAkQ6f2ILOlwQuzrDbbc6yJr8Ooye7joY/Bk6+WbuOoDDKDpM75U6b8iVOgDRaTpCgpQ6\r\nRPqFOhWnKjpEl0Q6hmp2OhFvODrSOQ87dm+lOuYhEjoDG2U6g2+OOmdymzoUS6o66l1sOrkulzqk\r\nLzY6unCbOps/mToArWs6bH0/OlL+qTok+JM6vqWWOjUTnzqlmcg6ZC+zOo4Fwzo88jY6ps5OOrwX\r\nODpb6IA6Z0eSOq7XczpN3ag6KLdwOvWfijoXw0s6R1ovOgFBmTrz2PI55jyqOiIhPTrYgXA69cgJ\r\nOjAYfzp5KY86EMYqOuTHgzoUIOE6zSOiOjOPSToAQG86Hd3tOmsA8DoKwqY6oT+6OqG/qTr0+Yo6\r\nNMiiOhIvvDrmXZ06DGKFOoVbdjofrKM6s+h1Ok4AbzrKLIY6yvUWOjcDqzq0Hag6pvqrOjVkpDrT\r\n/Fs6v6KqOjUpkzooYKA671oHO/SG7joo2EA6hTuAOouGijoxjto6sP21OhH/OTrJZjI6WeUSO6IN\r\n0zoQdqk6vVrCOpk4hDoyTCw6nTysOqRkgjox3ME6kLx9Ogf1MTpsJQM7kr/YOtTIZDo99GA6rLYG\r\nOz5kjTo9UOU5IUfeOpG4Rjpbx6s6gyVMOtIolzrR+IA60iI3OuoWFTqsfRY68SOtOioLRDpK+f86\r\n9DUnOu+3TTouGxI6Ht4cOvoorzrGFmw6ACVnOldZhDqqHDU66SNzOvRtIzoaPYY6OMWGOqZbLDoZ\r\nbzQ6gwtmOhRlpzoDcmo62x8JOpBcmjpDotk6XCinOmRoJTqk9ac6POTvOpZxfjpU0Io6tHwoO4TZ\r\nTDpc6pc6jgioOl5atDqm9XA65shdOlEQmjrUR6o6JCpiOmy1TjpOJEQ6Y4TAOhjdGzol8Hw6jOMw\r\nOkobpzoi2+g5nzWOOkcvXTrVcGM6UbdeOq20Wzqzfys6A9m+OuDg0DrTWDU6vu1rOkB0VzqvMcE6\r\nMB0tOmocRjpz4mI6YxlMOgRXJDoQhSg6hoK3OqavwDqY/jo6MLlqOkldMzrkQFg6ExxcOnLXnzpo\r\nBnI6h8ttOplKDjpIqaM6JODHOgiIDDrjjwM7Zph7OnFHgDqijc86VqDKOiC4STr6Sks61O34OYXp\r\nvDpvEuM6RdZKOj0OmDrey0c6IkRtOsY4jjqhPKw68Q0hOmp8OTqd/6A6RDqtOrTXdTqfBQk6Htlg\r\nOk+kdzphlIw68aUyOmu+czoIfsA6hLUBO37xHzq/R3o6ftXaOso6vzoHfFY6p9GFOlqKNDquBnc6\r\n1S52OhVciTqyF0k6ADEVOgAfUDqsPG46ORZjOnSsijpNok06XX63OstJ2ToalPU5Km6FOm4sdjpP\r\nwXs6PFufOlvcBTuZE5U61zvSOvZmODqLnYo64B1/OtJpsjpYxko6buo6Ov4pbTqwFV86bWMZO0rz\r\nizpQu6k6xJ1KOq0PwTo4OSQ6o/h6OloQjDpi+Ik6KQnQOqG4hzoxRRY6Hsk9OjStSzo8w3466cOF\r\nOv4IhDqAw8w6mDl1OjtdijoxyoA6PngOOnAgIzpPcHY6GDybOo5cxToQwoo6JzUMO4UsrjoPoEM6\r\ndI6VOh2mzjrUyEY6IBkYOk4YaDrT3186vDtiOmGHkTrEkdc6XCjOOlomlTqzSgc7FvhGOiomMDpg\r\n9AM6vWQZOlAH2DnTKYU6PgAGO9V3fDofiwo6lx7XOsRhijq0hEQ6RDOcOnd/pDpPGQw6LXlVOn4B\r\nejoCsGM6kaVSOtkmMTrkap46dsihOlXlnDpHCdI6TVE3OumzQjrSvRg6OCSqOlD6cDr9HnI67n0N\r\nOulaqzmVBFs6wZCOOpgXJjpPvdA6R0JeOgc4ZDokoMQ6mjdlOoi6JDopojY6gvZ+OqBDLTpGtSI6\r\nIa+yOiKZPDpk6v06giouOvgwWjoCOCI6kjhpOqFYnjo4kX06zOmDOtZFiDrJJf06mG+wOjzuOjrV\r\n7zY6hczpOhYrXDqaRzw6sLiKOmVY3jqI1IY6pFeAOhkzfTrsgTE6bVyWOs1aejoHZlE6IOwQOkCT\r\nVTpRxDQ6izVEOqRfcTrKJM86KL/OOp8OHzoUyTw6mGl5OqjuhjpEyqo6Fju3OjRsFjosIJE6ozXk\r\nOVDbVDpLTmc69Pp+OnRGdzrJjrs6LvqVOgBysTpm7J06xkOWOhERXDqQpRw6OVZoOvBUeDohNww6\r\nFZ0JOgKOtzr+Jpw6JyEwOtomHzq6/j86yeOdOnNt6Tmf4IE6+9FnOlTYiTpo0Gw6qfoBOtPFszo7\r\nKmY6E2ZbOlCRMDo4sLA6RO+POhHFgDoLuqE6gigxOoxgvDrVV/0671uEOmoyyzrELoI6AGkSOtNl\r\nSjplJgI7/CgyOgncETr03xc6Wk2COr4QBDopoiE61xsjOvnUzjoIDN46b6eWOnwXFTrQhHQ6xE01\r\nOvbzTToATZY6z7BVOqkfiTrOnYs6OGysOuQHwjqsaKo5jkIOOrndLjqaWp86BSgjOj6aZTpyeN06\r\nUPmTOskBIzr+vXA64SeFOuZRfDroYJ46in5SOsaTEDpqQ0g6w5RQOotNlDqg15M6EX+rOpFMsToT\r\ngws6i+JoOr0xdDoquTg6sjzZOherljohllM6Cp2jOq4MbToKMHo60ECNOioMnjqF2Lc6/320Oj/b\r\ndDqe2yQ6zMuXOqBo1DoHq5Y6m++WOhn7mDrGn1c6jB2FOt1LHzp2ct86C26TOsNQiTohVY86tThn\r\nOt7YVjo30jg6NHzFOsEafDpCwEc60DwoOhu3tjlV5sA6mJVaOh6nnDrbwUo6dJKIOgkcEDqgLfc5\r\nw1OAOk61mTruA2g6LSIcOkHgkjoSB4Q6NJJ3Os4kQTpWDUk6ozUrOumFEzq6sb06Nv5cOp11fDr3\r\ntQY6MzJQOtjkWjpiJ686Ag1MOijq6jmNepQ4BMlmN4/QGjcifBs3CuK/NuPQvzbdSgI3/buqNogt\r\nizZ8XHE27HUjNmtafjZMj4M2Up+ANi4UXzZ0b0Y2dWBCNtwmkjbu3kw28X1nNpB2WzYWQGQ2kZ5b\r\nNlpfNDZC2lM2jqaPNgovlTYcQuE2zbXLNuIqNTc0yUs35GaUOHOXAzn2sb05dhd3OWD6sTqTrYs4\r\nLVQ0OhFmSjk9eLI51YX9OYKIhjmnCcY4bDXtN+UPBjkUXLw4TpTbOJ6L1jY2aDM69I1NOmgYYDkc\r\nhzM6sG0JOjlZaTl6a9w5tlU7Or4+SzqueMI5ruvTOVsDnzkgMV06n1EwObgOBjm5a284kWQKOaka\r\nvTkhoog63yIsOgEXsTnzbok4twEROXWXujj6siw5+Y+DOdf0mTlc0Uw59ugdONbh1jgN/wk5BDvL\r\nOPDCkjkX6oY5HbngODQVOTk3EOo4+l4KOLSE6TgqmAA6dbDYOQG0NDldLMo55oMMOfEAOjhpSLo3\r\nwssaOLTQzjh+ErE5fGJuOXTGQjkh/ZI5YlbeODfDOThmGjs47XMxOEDHiDjcbts55GkjOvRnhDl2\r\n4to43OuUOVOzLDn32gc5JQbSOMQJBDkC9kM4hHb1N5jlBTjXT5E53fCAOa8VFjm1XSI5wMpAObs0\r\njDlBTBQ5bMabOaYdEzquFgg6uuZ6OXNf8DjoxN44DciaODzjRTjzZTI5i0csOY4uEjkP1xY6IlhA\r\nOqTjgzroCck5x10BOrNyxDkHmJY5UGGxObJqgzlMPxI5GSODOb+WpjnIzC051wj2OUt8ADpHco05\r\nq9W9OQcNzDlElAo5bxkKOiS9JDozczI4V7hyOcvuFzms/I4408cROSmJgDjSb4s42AfWOPLigzgG\r\nBb840XlWOUNVBToZfEo6lGUmOsgYMDibQ683LAPWOOonLjm2/2c4M8E/OE5f4DcGkyY4zWjiON1c\r\n0Di30qM5zIM9OvjttTmyLkY5bdAGOBhpbDlIhVM6OKHpOUOHfjjsIS04t7GZN2FvuzfnAIU1jhVu\r\nNVF+cTUTHjM2RWIaNaAUqTW3e4E1VKOdNalWcTX10nY1dG9ANfKcODVb/Bk1fJtRNebYTzXjQV41\r\nfEiaNYLEAzXaWY41fxY0NfwFhTUjTOs0uT+LNe3RjTV/wk01OKwVNYKOojWWtDw1VuJ5NWSQWTVu\r\nVRA1yoc7NaGQdTV6RyY19M57NSzEMDX8UdI04y1mNWZPezXhIrw0MEgGNb6PETWFEqc16eiuNYRm\r\n6TS00lU1ECNENf6I6TTW4Dc11z+oNOPxVzUbJAw1KgQzNb3PnzUF/U81Qi16NSjogzVfoAg1uzAd\r\nNU6NXjW5hbs1G8sJNcJPMTWSdjg1sQcnNVxoLTU5jeg0CsxONYYJeDXMYKg0PagcNcGfBTVoAEU1\r\noSAhNSaT2zQuE+80MdRhNctiODXZX0Y16myPNb2dCTVv/us0F/FPNYh9JzUHsxQ1sMCINQDnKDWb\r\nCio1uEvfNAi3EDUoHiI1UhhpNQTPfTUAQ0E1KxX/NCUuJjVHpvw00o7iNIR77DTPhpE1ylgANTrx\r\nKjW7cn810ZqANd1q8zTGngg1kEk/Nc7pgTUYeLc0KOwUNZwdyzRZKmE1fGZMNcjoKTW18+M05/UB\r\nNZZGFDVo9HQ1sh4bNY+QoTSH9sQ1BBdXNblhKDWlCis1zA4gNU0vaDXNdmA1AAAQNQ==",
                            "noiseTrainingType" : "default"
                          }
                        }
                    ],
                    "start" : 13257,
                    "duration" : 768,
                    "mediaStart" : 51,
                    "mediaDuration" : 768,
                    "scalar" : 1,
                    "metadata" : {
                      "WinSubProjectDisplayName" : "",
                      "clipSpeedAttribute" : false
                    },
                    "animationTracks" : {

                    }
                  },
                  {
                    "id" : 99,
                    "_type" : "AMFile",
                    "src" : 15,
                    "trackNumber" : 1,
                    "attributes" : {
                      "ident" : "Aufn. 07-11-19_036",
                      "sampleRate" : 44100,
                      "bitDepth" : 16,
                      "gain" : 1.08610518204894,
                      "mixToMono" : true
                    },
                      "channelNumber" : "0,1",
                    "effects" : [
                        {
                          "effectName" : "NoiseReduction",
                          "category" : "categoryAudioEffects",
                          "parameters" : {
                            "denoiserAmount" : 15.52,
                            "denoiserThreshold" : 0.0,
                            "noiseProfile" : "QlvcPxSQUD/H/7BAIpAGQG3miEDP5OlAavXNQoQ680LOkIlDqVyMQiq4kkFpzzZB78xDQcgFIUPx\r\nbABDPLBuQlmZCkPumRpC7Ls2Qe3LoUD1QERAsZkcQLd2bj+stnlBrBO2Qd/8DEFqasBBjAaEQLAs\r\ncUJeupFCkSnfQbhXuUHg7yVCwn71QSXFPEF4LSZBfBJFQUGAS0ANgog/TI9vQD/RaUBskmBAtRzE\r\nQLCeAD9ntpJATmhaQIc5GkCdLoM/raiFQCvDxT/CLS8/YKHDPtYsKj6ryBo/6sgPPuqtJT5EKsQ+\r\n6O8qP7AAlj4qgaQ+LSgsP4/tuD5369I99iizProsmj+7pKg+t3vNPmGE/z8qNtc/gYzOP+FL6z3D\r\n8s1AYsyEQWfsn0HROqNB8XUBQXTyCEHnaElCH3DPQOP5AEH4VidBaCvGPxXZA0AwtPA/ShybPi1k\r\nxT/xPn0/asZtP5k85D5GCeI/boVJP7ZOfT4T3AA/VXtgPgJhtz9+oNg+hyZ6PuhaYz6qkVw+N9bx\r\nPowPbD/Iq8k+9y/ZPxRhD0AosIE/oBOnP+eK3z+bKg4+w+oKPzXBST9ksF0/QeKWP/zyOD7WWt8/\r\nI409P58riz4g7oo+e8fUPvaeyj18G5s9yF0APt63Fz5E8kM9CwlSPSQoHj3HHaI9MPQUPht+Xz2a\r\nUNo8fZGtPXqcXzxbuYA8ycEHPf05rDxzFuQ9celjPJvgXjxIkHQ99QtuPboBCD2WyfE8ni99Pcbh\r\nMD2YpjE9QkXrPTXEgj1knjI8skJiPGznujzg5Rs95NCuPM+O6zwzAOg834qHPIVMDj3EumQ8sjd7\r\nPZeFNT1Ktas9yxOXPtseLD2ACNo+JpcQPhNxgD6+5CM+lWnpPeDXQT5h29E9GtZCPvG+Zj46Gts/\r\ngrfwPiRLiT9qM70+zsjvP8rhET9eeuw/tmNnP0i/nj644xw/WOEKPy/EIj/u6gY+IXraPAdc0D4S\r\nEho++AC2PrZvNj7grE4+W/JZPVlOBz2PCG88djTlPITCXz3GN0U803SZOxZFeD0qR8E86h2EPerk\r\n9jxjTRo97NutOy5dsTwRkLk88RGEPNqscDyaqT47FXr2PGJCJj1nIho88nfHO999JTzAWqc8MAAn\r\nPEd4vjyzfHc8tQ6FPMsEEj3NVNw8BJ+1PTaNDj1ZyIU8n4Q7PcQ00DyKDIM72Py3PKJZkjx4og49\r\nHQQHPXqCgTytUU48YfM+PFDJozzYBkw8f9YIPeZaFz34BMQ6LhtCPMP7TjwcRQE8scmTPA4a5DsX\r\nTRA9xCfJPQ4b2TscKr09yzIFPXK5hT3a+yE9nzkaPUJCfT3f91U+DEtjPtqlGD3ICxo+CHmnPZsz\r\nBj0cQU881yQdPo0T+T01O2E9gw7eOwUvCjw1ImQ+5h+HPW1zED0oSOo9f0idPDD5lT3dFh89a0/e\r\nPD5kvT34CLY9qSBkPuQoST2h8Uk98mtWPaprRD1zD6I+9ka7PsOrqD5sUQM+W5+5PYOeAz6J9Qc+\r\n01JNPXLbMT49rBI/R3ovPr29Ez0fBEA9wauqPVi/wT6CEV4+0hTtPfW7JT8gAI8+BNeePY4yJT7o\r\nGb89F08EPg0uEj1K0dg9SI8RPu5trDxwmgI9Q91DPWyT2T2kyuo9N7EtPQYUQj15tBA94XzDPftb\r\nRj3Fu1M8r9fjO3Ao2DsBYBo9wrTAPBgmwTzy1wY949dWOi2JijxVCqk8Ksr3O7gyOjwzR3A80D6Z\r\nPIruzTyWwvM8GIOyPH8uQjsCg608MFupPGIuqTxdqLw7zaEcPLMghDzh1T89hSuhPRlrljyXUmw8\r\n1I+LPLPqwDyWLG49f9jWPNF75Dw8mqo8UfEjPCof8Tst6bM8MriCPAVP9Dt4sGY8DReePCg94jwR\r\nKAI8buUQPNmkAz1cYIY8vgaOPFjvPjv23Pg5Q/qHOxxGzDvN1M47tltmO9kuZTx+5dQ7sVgHPL1v\r\nMTzE3lU70udMO5ZEzTvA6q05E+SpOxv4NzxexoQ7JiiHO/FzUjy/vZk7KnzmOtSZBD3eGeM7LWiN\r\nOxFbTTvjnm47kGi/Owm1FTycymI7h+WGO5OocDrKtis7eHfjOouttTsODZs5tpzyOmhZvTqWp0U7\r\nq2OCO7hgpzrNSXk62tOoO/y9fzvJMm070vLcO3ykKDkrxBU7xT/CO0OGTztYwik7fedDO8kzkjtA\r\nWlg74uB8O10xMztL9IM7dVV/O/jh9jqY4y47GaMAPIIssTsu9js70nWBO1IRRzurXpg7rnXsOlAH\r\njDoADWE7NTuSO6b3RDlL62M7kpJZPKwmCDqo/Jg767AYPMrSfDuKLFs76+0APH7XRTtkHSk7/i1m\r\nO3CIzDr6Xrc7MdR7O9TnEDsYYeQ7VuAtO+nC0zoK61U82tivOxPFqDqYf5g71+AsO4/fRjyOe6M7\r\n7C1FO9Q8sDuuTqg8RkrUO64/8jp70l47+/MCPO0Isjtc2yo7WpRcO3jjijvtrKE6JEUFPKoUuzuY\r\nMno7fq/8OobbgjwW2Vo74/6IOwITUTuETcY7j2JOPNX6QzzlJ7o7fto8O5pMSjtrppE7tAeaO9sm\r\nTjtA1Co8QYcQO0yrOjv83QE8X4JtO6X5bDsEl6o6IVCHPImdUzv4D4I7X0cyOwpabzye+5U7lJYX\r\nO3REXzw407Y7WqBYO7IvRTtEJKU7BvPAO+a/TjvQ58c6G/WEOzb5STv15q06A85JOoKsOjuA9tg4\r\nH5BuOpAsnDtgaQk7cP21O4mLHDtGWqQ7DzLFOlE0pjvOOJs6Q+jFOxdbUTo8X7M7lko7O9orvzqu\r\n2Bc7Ft/HO9NnZTuTi4s8iGypO6uVxTt3y8M7WqdUO14PZDxLdwo8rDaPO0Z5CjuL7UU8MLbkPLS5\r\nkjykDq47VYWIPFRppDuVUoY7kavcO0JPlDysU0g8UvzlO4Y7Czzerh87trB/OvnMLDwwesw7ktJR\r\nO2yvajtY/9E6ce/wO7/KtDujMwc8Nj1tO6ttVjyuAUc8Xnt7O48tazuRC2g7mQi+O/53Zzyl5RM8\r\n7A77OzStdDpkgs47+RhAOkteuDvA2oM7J3lnOsVLnjs8/nY78yCzOscxCDs/TJQ7/EkpO3zQajvs\r\nEdE6rNmjOqLLWDu67mI78nniO+JAuztkVQQ5zSA+Oq2ngTscVi87bJwQO47qcTkOFzI8hFWGO4cU\r\nqzr0EZE7Mdf1OuFK2DuZCkY7leu5O/XWLTxlxZI6iAkdOthX3zrqJ6Q7zPY4O2RqnTpuwBk6nhfm\r\nO967TjvIFjw7wecoOwniMTvYU6o7TPELPNK4yTpuDYE7IbsHPMhpCDulMjI7FPSIOz76RzvNLFg8\r\njIV4O4wTDjxQZE47gltEO0IWEzu8BSM7DVeZO3rlCDxByEs7EDwzO+AofDu89RE7lcGXO73mvTuG\r\neD47Q31bO/yqgTuY2jo74z6COiq8KDvXXkQ7kYK6O/Rzhzp2UsI7oYQLOljWGztaJAI76LgCOwPB\r\nrTqoiuQ6VuruOhDA2Tqm1CY7UFJpO2gxKDsk97E6yfpJOzqQBTsGeww7exLtOrLI/zpOiPU6Mkuk\r\nOt4IjzqHpBc7hLwNO+2y6Trijz87B70FO12NqDo6+fs6+4ZsOze4zjpAyOU6t8XCOvAoGzvsVd46\r\npDU4O5isfjp9lxQ7EQXyOWwMaDpQvyk7oPwgO2FEUjpgSzw7NsASO1YJyToo/tw6NqPiOjzZ7zos\r\nAZ861KXOOi4C0DokfiM7BHRMO+BhqTqDdcA6lmsVO4i9ATvC+/46DC0COxQ5ATtUeAA7Ro7FOnZp\r\nQzvIhJE6uAIDO17Ckzr4nS87vtS3Ojgm7zptCMk6VPINO/A/5DrnDB45xQkUOywEXTrYNig7A8ou\r\nOzluzTpAoIg5ZgoGOyo2yDrM04U6YHLXOipGNTqqMJM7RKM2OxYOojoyABg6cEdLO4Wa+jrKkbQ6\r\nZTsNOxx5uzrTY7k6pN7BOlUqDTumfLA6HvLxOooD9jp0z+46RCmIOg072Tohyrg6PAh2OpPnajuw\r\niIo6riENO82uszqvuw47aQoNO7GJsjostNk6YQZoOnw0Bjv84+A6Hnq1OnC+DTu8AeU6JqbfOipP\r\nrzqUkN063tzeOoNT2zotLrk6GDreOiIb3DoBZ9s6mkbeOlUF3zpFX9k6/B7dOq6y1zpiPt86m1rX\r\nOv6W3TpTKrI6rDjYOjCI2DojB9U6EX3aOm8V2TqaiNs6IfvVOhGI2zoaWtk67QbXOpKG1zpIodg6\r\nm7zYOvsg1jpshNU6zIrVOhoC1zp1YdQ6dXHTOjPL1Trh6NQ6eFTWOrEy1jrZkdI6hLHROuFO2Dq/\r\nKs46w8vROlR2zzpdvtM64gzSOkEF2DqZTNs62VPVOhRQ1jqKlM06FxTTOvwC0DppS9I6IF7KOnQO\r\n0Dqq/9E6IuXTOviWzTo14tA64nPROv5gzTrrMc86fvHPOice0DqD3886FMrNOlQL0jrN8sw6shTL\r\nOu3czTpO7ss6BYXJOlzEzjolH8s6luXMOkSdyjq7dcg64CDIOiRdyTrid8o69q/MOqJ20DrFSc86\r\nnr7IOieNyTrMTM06xpvNOs89zDq8cs86GBjSOmSczDq3A5E66zbLOpH9yzqzBsU6e/LKOh7ZyTqW\r\nAcc63bnLOkEKyTpC8cg6P6TMOgBqxzqSp8c6yd/JOlMRzDomxMg6NAvJOsNFxDoIP8k6UhjIOqyj\r\nzDqA5cQ6DILIOu2WxjrS/8A6ipPFOoUjvzphusQ603zJOuzSxzrP4cc6wCHIOixBxzqUE706MB/J\r\nOuVBxTp6YcU6AK3EOuqRyDpwVsQ6rNrIOlZQyjqH5sM65cvAOq+ZxDomtsA6eMjBOrhuyDpUYcI6\r\nIg3EOveZxzpeOcc6lt/FOl8EwDol5sI6rMPDOq4fwzq4oLs6l9zBOn6hwDqKAsg62gbGOnvbwzp9\r\n3MQ6xiTGOl+JwDpRgsQ6FK6+OtICwzpTQ7w6nqfFOlKLwjr0+Mg6qY3COpNmwTp8osM6XnfBOmZx\r\nwzr8lMI6iwbDOgVWvzp0Qr86NJy/OlLvwTqYqME6OqDEOqEIvjpDhME6GwzBOvb4vToxTL06273D\r\nOuXhvzqfg786N/PFOrkVvTqSiL46IOe8OgHhwTrkjMM6D+S/OhziwToc9L86Xr7AOhSFvTp1D8Q6\r\nHi2+Otk0wjrhC7466f67Os3MwTrcYsI6GSfBOibQuzpfN786s0e+Ohw1wDrZdL06e5K8OnywvTqA\r\nT7w65qa8OjyBvjo1BcM6mfe/OsYVvTqBGb86jjHAOmP3wTqmob46tNvDOpMwvjoZa786qzi9On+R\r\nvjqT77s67W68OidYvzpVLr469be9OiKxvDqnqLw6Mw2/OknIuzr8TL06EOW7OpGhvTqsn7o6Woa+\r\nOqfFuzo498E6KhG8OkFEuTqLGL46xMi+Oj5/vzoQQL06lOm6OlKnvTr0r786FSG6OsiavDo4txo+\r\n9M10OwK29TrHofM6Fb6wOkmvgzr4nYU6JOyIOpRd1joBWes6T6unOrBYADo1sgI7k4ahOnnRgToE\r\nOfU6d0OoOmPFHjv0d646/EGeOiFaKjpgmO06W1CrOjbw7TqayRE6ySc2OngwhTo4ks06P4xTOngc\r\noDqqbaE6eHQdOjwUqzpkTbk6WVOJOjDzJjqV6gc66l1BOpyexzqmPHI6plpkOnra1DnBYO45mHFl\r\nOkAGnTqEHo86DDwTOuylPzrJ91I6Ux3LOooF2Drdalo6s23YOiR5sjrE5IY6ZnK9Oi/gijrgLb06\r\nDqWrOunWDTv+z6c66pnKOt7+pToCHys6NxrfOsfKoToHM7o6hmNtOjkuQDrsHKI6y3+eOr8WPzrO\r\nUjI62TgVOzU8kzpcCRg6s2iYOrb/oDrSNkA6M2mPOi58+Dqixoc6KiuxOg9CnDpylU4664yLOlIR\r\nBTtmI3I6M3mmOtbqcDqw+6Y6wl2cOnz1xDkV9Vw68GLDOqECCzpjoHc6dsT9OmUSyjpFvIo6OjTD\r\nOu5zlzqLh1U64E9LOnCaaDpYGx06DyFKOot4UTpu9qY6cUpIOmXhQzrn+kg6/jWHOuJobjqjo6g6\r\nAFCWOmy4bjpKTz46rEZSOs7kXDqPk086yLGZOnUjbjoFjJI6qD1UOlTtCDtyOIc6VDKbOlCnHDrT\r\nTKo67fuTOogJ1DrHnAM7gQdJOgkwsjq6Ul461lBCOnr4XDqz7885nDSUOnXE4zqck7Q65oWSOiiX\r\n6jn8mkQ66u0WOm7zkTrN4EE6gzmkOugHlTr1XaU6dsFqOvqIbTqIe506N8naOk+RCzptQtI64T9t\r\nOpC0Kzoz/hA7mWbCOpBsbzpAhvM6g1Z4Oo0rozpXqYE682OOOjRTkzpf92k6noR2OpcDXzrw+V46\r\nlEdZOuc1rDoysGU6Rt8nOklfPDqu7Yk6uvonOpW+/TnG94U67mwWOsQ8YjpJ1/w63FMoOnECCDve\r\nlrE6NhRaOjMeujps3kM6BitxOhfUwjrhEc86nFxMOs8HZDrgwlo68juZOvqYQjrCKm06djCGOtUF\r\n4zrbt6A6ALqeOprRUToIu0k6mBoXOiRqWDoV06o6tFAOOiC9izp8mBI6Gg5POvJOVDru4Tg65j3G\r\nOvJjrjoeaDo6SLgSO+jfyzqMACE6zfBCOs/FNTrs6a86rQToOnjg7zlNmmo6It59OmmirzpOn5Y6\r\nemLZOnpUCzrxwY86MEupOhHPjTqvFII6OxCKOqkvJDpUmX46UHMbOkC6yDpTPbU6SBLJOtCmADvx\r\nGYY62qF/OqTKJTpavKo6FBu1Oh18jzqO7YA6OWGOOh4lljqcB2c61xWaOhgHnDqzbRQ6tJPJOqXi\r\n5Tqh5HE6vWbAOhH9STpGjKA6V47NOlPJjTrcH4I6qI0oOrGqozrZhrI6CFYvOuyQKjqyukA6AGuw\r\nOgb0NDr2i4E6GT4xOpgl4zoKtnw6pFdIOpSslzoprVg6AT2wOi6noTqA+7M6uMdTOjLwlzoOYpU6\r\nbWOZOhpjkDrMLvo6aU51OvA2vjoFccQ6iS/8OnP5gzpSm146G4oMOkxgdzqKU/A6Jq9QOlGBrTpq\r\nimA6z2SuOvFTgzqwtIw63LYuOl4GZDpyDjg7Ro2cOgHPgTqExWs6OZS8OowFTTqNVFc6/tE8Oqn/\r\ngDr0kqM6UsZpOo+WYjoYLH063XuGOgmRczqaNF06aSevOmDwjTpbRdg6INdPOgK9hToGi5Y6Eil+\r\nOrvo+DrP1aU6W5cKOhIOiToabm86guRlOr+hQzpYQuw6xm6YOl9q6zot3yU6OLkJO9GSgToovSY6\r\nx/LHOjIIdDq0j2o6w9OEOpBSqDqBjac6bb6cOvNUpjo5RXo6VgqZOgUF2jpuJ+06Fl2rOkjD6DqQ\r\nml46KTRDOn8dqzqSwSw6Rs7POmhsdDoSNm46S40uOr+VuzrrHFU6BUKCOkT3PDq/I5A6gMieOhIy\r\nZjqu43o6coVlOlIeizqj4pM6H8sNOlDEczo4e1w6aQAQOqceWDqoank69sPWOoK9TTpORyo6KUgZ\r\nO+hsiDp5O8g6uARoOuo3FTo8rjk62jKDOhXkkToH/Yw6ArG1OjyKWjq/8OY6PtChOjLiCToQ7Iw6\r\n6byPOkDgvzr8+Js6pNKmOmeGRjrw56Q65y5JOt8uYjrodXo6pCgeOjUM9jqAUPY5jo5BOg73NTpT\r\nj3A64nUhOlIrVzphIaI6/DzuOjmKMjoieZ06bFS1OgUiBDsCAHY63xHfOQ4YuzqnwpI6I6eeOlNV\r\nSjrSHgQ6GtaDOigb5Dq67JU6du+uOjY4ojqHUV46i4e7OkVJszr7ZN06jJ6OOqhdODp04nM6Imz/\r\nOX0htTo9ZaI6Qu19OvqKUTrTpo46Sy95Opf8hzqW8aA6gq8KOrzlgTqd8g062ClhOtCDkjpsBqc6\r\n7TOMOiyGOzrDzfY5rWArOrgKGzrJxBU6Cmy5OiZtqjo8m5s6kSqIOnRcjzoKuDQ6nIefOrXFMTpx\r\nsLw6IZoeOiyqhjqkZnQ6ST6iOoCPKzr5uY06afsgOoaIozpwSoo6T/M+OkViozobDYw6cFSDOrDz\r\nFzt0zak6HTE1Ot1MrTqtdy46nocyOpBsrjrUEpg6BRKWOg47NDq0GpY6M5lcOj5qwzqq4qM6MEuv\r\nOs0Mljr022Q6Lt8kOsopSjpJYG06AgFiOlxYgDp8bD86QCV9OithFTpOIoU69WXWOUC6djqDr006\r\nUJo3OksvFzso1Y860lAlOr7r3zo4XHo6mP0VOoWnKzo3zmM6rSo8OpmoEToUUKM6jYmSOnszBjro\r\ntak6ao9NOvnwGzqoV+w5Mub8Of4iDjruZaU69IhWOskJsTqeiAs6zj0fOp6ioDp1IK46hbG3OiGD\r\nmzonPGM6LkKyOpu0NTrTwAE7GhmJOkAJ1joengw60KNJOrKHNDoasAM6nHCjOuYNgzqioI46L5Nr\r\nOl+uQjoPFCk6xF3rOgBzcTpvNzU6xvVdOqlGXTrZRa469J9hOo5MjTrxoG46dEZXOur+njp+UwI6\r\nBFwXOu0ckzqg7S06Tar6OoiDQzrvaXc6avqBOke4QTr+Bz06UDHdOqzcNjrRjDQ6cowkOh01Ujr9\r\nRYA66S7HOUT/TjrcBdU5OGpWOlIxJzpqVkQ6j2kPO9Zubjp2H346zfMmOmwxJzpO6Io6rjcGOji2\r\n4Tk6Q5U6HApsOjJAnzp72mA6JjYROjVruDkM3Lc63xWAOnBIKDr4N106+dXQOgCqWTr4jbk65PNf\r\nOhh1Tzoy2bM5lkFiOmBicjpoS4E6D8euOseznjoM/pY6dgQtOpC31DrO96U6cRVIOj5QQjqhoA46\r\nj2GEOoWhLzqFr4U6umcXOke+fDoJdEg6UpC5OmorGzp88mY6+wJyOqScRTr7U486ffnpOli9pzqy\r\n8X06PvI/Os+GETon7Jo6auCZOvU3jzq0sYw6Th+POh2mJzp4/Ec6eTt2OtrSFDpRL4Q6xdv2OflO\r\n/jokOQg6HGpROgGiRzpoQMk68to4OtKUMzp+POQ5a5tmOqvYgDoFvH46+NZ4OhuaTDou0ZA6+0WQ\r\nOk0nUDoAfMQ6xyO3OiUcKzpX+EM6truIOnmTajrs0Fo6C3S6OjJitDo5LGc6nk5kOo0TUjpIQi86\r\nWNh2OktKsTq40Ac6j1FhOmoSQzpHm545vfSiOie3Ojqvm2o6GYyZOhUKPDp9gDk6Ka++ORg7rDo5\r\n01o67QIEO87hyTq4IPM6WgT/OYzu+TnHoWI5SsluOV/HcDlWtZQ5vQsZOs6aaDrv+mE65qT4Od27\r\nUDmbXao5KQypOXhEXTjDACA43O4YOVzoojgbj4Q4hPK8ObiWkDk2uwo5BhPOOZR3bzlqXWQ5wYsF\r\nOvZm1Tk0g3k6n4ZFOhUbujkUaCA5TVYUOR4t3zjJW6M5CF0fOjFRjzqbvLw5CLoOOVb6rzk9J805\r\na/ZeOcD1xzn6RM05Q316OdoZkjl7Jmk53v84OaxQhTn3kxQ5lfGDOQ7baDkjTio5YC/IOUU5vTgG\r\n5yk51x4pOXcAsTgATNs4chUVOX7F0jkNbOY5EQiAOZtTzzkV/Ec5QWf2OIPJIToLBi46hDuoOcSS\r\ngjnvBck5MksCOhC6IDq51ic6JHQDOjLi1jm42LU4B7iHOWNsXDlCtRo6406+OStaHzkSv9c4N8iu\r\nOQCmZzmUPMY4ZJvBOL8ynThEONU5Wq+1OQ6PNTnOzVI5wIsROYsjoTnTjXY6WM/bOYt8HToCzgE6\r\nEGQMOfNuHjkn1As4glLwNjPYFzfj9pI2WPCNNtDskDVG7QQ2QvOwNdzg9jUEsig1P5ugNdqdIDWi\r\nH6w17VOgNUIsKTVq1LI1bQFeNYbwgjXrvYg1kvRMNSmQrjXlSnw1D2RBNfNrNzW8tDo1seA+Nc0t\r\nZTV8WD817biQNZvUYjVeOmE1qpuUNaGLcTW0L2o1+43hNTQUvzXjLIU17IF0NZWrlzbZXco17XZ5\r\nNZCy9DUbKxQ3Dqa/NuDl5zbOdAo31WQpOMU6NTjOR4c54HqGOfYpFTlrQig3/L0aOcD6TznewDU3\r\nJrZTN76OWzett7c21/YfNXkGUzXyyRI1R41BNubY/jgwZO44YjOMN6hRQTeKD3A22pyANm9zvDaI\r\nBdo13hmCNWePbTUqGxs1hoEzNTqemDTWSkw18igNNhbVUTVUyYY1zIEZNVmdOTVy0wY1kY4PNd/I\r\nMTXbskA1cH3DNCvaDDWg3Rc1w1cQNUtXUzVfWrU0cTOUNasTODXYhjM18sb0NICQ/DQPyDA1OlUg\r\nNXYjBDUNMf00KXzmNAIBMTVzNPc0HybzNONCFjWFiLw0+O1rNFWGpDSHKg819GEhNeEXGTUGtUA1\r\nMqJCNYu89zR/wDw1M0XKNOTB+DR4lzs10j8WNfTl4TQ4mUM16p8aNZWfgTV0TzA1Gd8oNQrqCTXe\r\nnDw1+8egNEKA3zQAV4A1wjEQNc0oyjRMl+I0+2PVNJ7KBTVQkzc1+f0GNSiM7jS3Dq00cUwRNRW/\r\nCDUaNkE1YAIWNZGq6jQADQ01sXkxNWfQDjWWpg818zBeNe87PjXSYQw1ulOQNb/UGTXe5gg1/IUM\r\nNRL0CzU6VRM11y9LNY+kRjVWPAE1lmg9NcF4ADX41/Q0wiKTNZHZNTVhXQs1eelMNXrWMDWrshQ1\r\nxXFBNVOcFDWmyKw0cvpONYq3ZjVu1UY14vKlNAIHaDVmQdE0uLVONeNwJTX2Nwc1OFX/NMKgCjX2\r\nIN40/lnnNNe3xzRZ2RQ1WSsaNUMOSDUcxoQ1KH0jNSwsYTXKYgI1dWAaNYKg/zS9EuY0+tcmNRtR\r\nKzXAWwU1P+LuNNt7STWCSEc19IvJNN5X3jQurU81+hMiNQsvGjWbWAM1MsIoNRBMGTX7OV018FUV\r\nNWMi0TUnSNU02FYDNQK0yzQp1/k0ZGfwNGalmTWQnyo1REVYNcUgBzWJhvQ0AACiNQ==",
                            "noiseTrainingType" : "default"
                          }
                        }
                    ],
                    "start" : 14025,
                    "duration" : 232,
                    "mediaStart" : 17,
                    "mediaDuration" : 232,
                    "scalar" : 1,
                    "metadata" : {
                      "WinSubProjectDisplayName" : "",
                      "clipSpeedAttribute" : false
                    },
                    "animationTracks" : {

                    }
                  },
                  {
                    "id" : 100,
                    "_type" : "AMFile",
                    "src" : 15,
                    "trackNumber" : 1,
                    "attributes" : {
                      "ident" : "Aufn. 07-11-19_036",
                      "sampleRate" : 44100,
                      "bitDepth" : 16,
                      "gain" : 1.15301740191897,
                      "mixToMono" : true
                    },
                      "channelNumber" : "0,1",
                    "effects" : [
                        {
                          "effectName" : "NoiseReduction",
                          "category" : "categoryAudioEffects",
                          "parameters" : {
                            "denoiserAmount" : 10.48,
                            "denoiserThreshold" : 0.0,
                            "noiseProfile" : "QlvcPxSQUD/H/7BAIpAGQG3miEDP5OlAavXNQoQ680LOkIlDqVyMQiq4kkFpzzZB78xDQcgFIUPx\r\nbABDPLBuQlmZCkPumRpC7Ls2Qe3LoUD1QERAsZkcQLd2bj+stnlBrBO2Qd/8DEFqasBBjAaEQLAs\r\ncUJeupFCkSnfQbhXuUHg7yVCwn71QSXFPEF4LSZBfBJFQUGAS0ANgog/TI9vQD/RaUBskmBAtRzE\r\nQLCeAD9ntpJATmhaQIc5GkCdLoM/raiFQCvDxT/CLS8/YKHDPtYsKj6ryBo/6sgPPuqtJT5EKsQ+\r\n6O8qP7AAlj4qgaQ+LSgsP4/tuD5369I99iizProsmj+7pKg+t3vNPmGE/z8qNtc/gYzOP+FL6z3D\r\n8s1AYsyEQWfsn0HROqNB8XUBQXTyCEHnaElCH3DPQOP5AEH4VidBaCvGPxXZA0AwtPA/ShybPi1k\r\nxT/xPn0/asZtP5k85D5GCeI/boVJP7ZOfT4T3AA/VXtgPgJhtz9+oNg+hyZ6PuhaYz6qkVw+N9bx\r\nPowPbD/Iq8k+9y/ZPxRhD0AosIE/oBOnP+eK3z+bKg4+w+oKPzXBST9ksF0/QeKWP/zyOD7WWt8/\r\nI409P58riz4g7oo+e8fUPvaeyj18G5s9yF0APt63Fz5E8kM9CwlSPSQoHj3HHaI9MPQUPht+Xz2a\r\nUNo8fZGtPXqcXzxbuYA8ycEHPf05rDxzFuQ9celjPJvgXjxIkHQ99QtuPboBCD2WyfE8ni99Pcbh\r\nMD2YpjE9QkXrPTXEgj1knjI8skJiPGznujzg5Rs95NCuPM+O6zwzAOg834qHPIVMDj3EumQ8sjd7\r\nPZeFNT1Ktas9yxOXPtseLD2ACNo+JpcQPhNxgD6+5CM+lWnpPeDXQT5h29E9GtZCPvG+Zj46Gts/\r\ngrfwPiRLiT9qM70+zsjvP8rhET9eeuw/tmNnP0i/nj644xw/WOEKPy/EIj/u6gY+IXraPAdc0D4S\r\nEho++AC2PrZvNj7grE4+W/JZPVlOBz2PCG88djTlPITCXz3GN0U803SZOxZFeD0qR8E86h2EPerk\r\n9jxjTRo97NutOy5dsTwRkLk88RGEPNqscDyaqT47FXr2PGJCJj1nIho88nfHO999JTzAWqc8MAAn\r\nPEd4vjyzfHc8tQ6FPMsEEj3NVNw8BJ+1PTaNDj1ZyIU8n4Q7PcQ00DyKDIM72Py3PKJZkjx4og49\r\nHQQHPXqCgTytUU48YfM+PFDJozzYBkw8f9YIPeZaFz34BMQ6LhtCPMP7TjwcRQE8scmTPA4a5DsX\r\nTRA9xCfJPQ4b2TscKr09yzIFPXK5hT3a+yE9nzkaPUJCfT3f91U+DEtjPtqlGD3ICxo+CHmnPZsz\r\nBj0cQU881yQdPo0T+T01O2E9gw7eOwUvCjw1ImQ+5h+HPW1zED0oSOo9f0idPDD5lT3dFh89a0/e\r\nPD5kvT34CLY9qSBkPuQoST2h8Uk98mtWPaprRD1zD6I+9ka7PsOrqD5sUQM+W5+5PYOeAz6J9Qc+\r\n01JNPXLbMT49rBI/R3ovPr29Ez0fBEA9wauqPVi/wT6CEV4+0hTtPfW7JT8gAI8+BNeePY4yJT7o\r\nGb89F08EPg0uEj1K0dg9SI8RPu5trDxwmgI9Q91DPWyT2T2kyuo9N7EtPQYUQj15tBA94XzDPftb\r\nRj3Fu1M8r9fjO3Ao2DsBYBo9wrTAPBgmwTzy1wY949dWOi2JijxVCqk8Ksr3O7gyOjwzR3A80D6Z\r\nPIruzTyWwvM8GIOyPH8uQjsCg608MFupPGIuqTxdqLw7zaEcPLMghDzh1T89hSuhPRlrljyXUmw8\r\n1I+LPLPqwDyWLG49f9jWPNF75Dw8mqo8UfEjPCof8Tst6bM8MriCPAVP9Dt4sGY8DReePCg94jwR\r\nKAI8buUQPNmkAz1cYIY8vgaOPFjvPjv23Pg5Q/qHOxxGzDvN1M47tltmO9kuZTx+5dQ7sVgHPL1v\r\nMTzE3lU70udMO5ZEzTvA6q05E+SpOxv4NzxexoQ7JiiHO/FzUjy/vZk7KnzmOtSZBD3eGeM7LWiN\r\nOxFbTTvjnm47kGi/Owm1FTycymI7h+WGO5OocDrKtis7eHfjOouttTsODZs5tpzyOmhZvTqWp0U7\r\nq2OCO7hgpzrNSXk62tOoO/y9fzvJMm070vLcO3ykKDkrxBU7xT/CO0OGTztYwik7fedDO8kzkjtA\r\nWlg74uB8O10xMztL9IM7dVV/O/jh9jqY4y47GaMAPIIssTsu9js70nWBO1IRRzurXpg7rnXsOlAH\r\njDoADWE7NTuSO6b3RDlL62M7kpJZPKwmCDqo/Jg767AYPMrSfDuKLFs76+0APH7XRTtkHSk7/i1m\r\nO3CIzDr6Xrc7MdR7O9TnEDsYYeQ7VuAtO+nC0zoK61U82tivOxPFqDqYf5g71+AsO4/fRjyOe6M7\r\n7C1FO9Q8sDuuTqg8RkrUO64/8jp70l47+/MCPO0Isjtc2yo7WpRcO3jjijvtrKE6JEUFPKoUuzuY\r\nMno7fq/8OobbgjwW2Vo74/6IOwITUTuETcY7j2JOPNX6QzzlJ7o7fto8O5pMSjtrppE7tAeaO9sm\r\nTjtA1Co8QYcQO0yrOjv83QE8X4JtO6X5bDsEl6o6IVCHPImdUzv4D4I7X0cyOwpabzye+5U7lJYX\r\nO3REXzw407Y7WqBYO7IvRTtEJKU7BvPAO+a/TjvQ58c6G/WEOzb5STv15q06A85JOoKsOjuA9tg4\r\nH5BuOpAsnDtgaQk7cP21O4mLHDtGWqQ7DzLFOlE0pjvOOJs6Q+jFOxdbUTo8X7M7lko7O9orvzqu\r\n2Bc7Ft/HO9NnZTuTi4s8iGypO6uVxTt3y8M7WqdUO14PZDxLdwo8rDaPO0Z5CjuL7UU8MLbkPLS5\r\nkjykDq47VYWIPFRppDuVUoY7kavcO0JPlDysU0g8UvzlO4Y7Czzerh87trB/OvnMLDwwesw7ktJR\r\nO2yvajtY/9E6ce/wO7/KtDujMwc8Nj1tO6ttVjyuAUc8Xnt7O48tazuRC2g7mQi+O/53Zzyl5RM8\r\n7A77OzStdDpkgs47+RhAOkteuDvA2oM7J3lnOsVLnjs8/nY78yCzOscxCDs/TJQ7/EkpO3zQajvs\r\nEdE6rNmjOqLLWDu67mI78nniO+JAuztkVQQ5zSA+Oq2ngTscVi87bJwQO47qcTkOFzI8hFWGO4cU\r\nqzr0EZE7Mdf1OuFK2DuZCkY7leu5O/XWLTxlxZI6iAkdOthX3zrqJ6Q7zPY4O2RqnTpuwBk6nhfm\r\nO967TjvIFjw7wecoOwniMTvYU6o7TPELPNK4yTpuDYE7IbsHPMhpCDulMjI7FPSIOz76RzvNLFg8\r\njIV4O4wTDjxQZE47gltEO0IWEzu8BSM7DVeZO3rlCDxByEs7EDwzO+AofDu89RE7lcGXO73mvTuG\r\neD47Q31bO/yqgTuY2jo74z6COiq8KDvXXkQ7kYK6O/Rzhzp2UsI7oYQLOljWGztaJAI76LgCOwPB\r\nrTqoiuQ6VuruOhDA2Tqm1CY7UFJpO2gxKDsk97E6yfpJOzqQBTsGeww7exLtOrLI/zpOiPU6Mkuk\r\nOt4IjzqHpBc7hLwNO+2y6Trijz87B70FO12NqDo6+fs6+4ZsOze4zjpAyOU6t8XCOvAoGzvsVd46\r\npDU4O5isfjp9lxQ7EQXyOWwMaDpQvyk7oPwgO2FEUjpgSzw7NsASO1YJyToo/tw6NqPiOjzZ7zos\r\nAZ861KXOOi4C0DokfiM7BHRMO+BhqTqDdcA6lmsVO4i9ATvC+/46DC0COxQ5ATtUeAA7Ro7FOnZp\r\nQzvIhJE6uAIDO17Ckzr4nS87vtS3Ojgm7zptCMk6VPINO/A/5DrnDB45xQkUOywEXTrYNig7A8ou\r\nOzluzTpAoIg5ZgoGOyo2yDrM04U6YHLXOipGNTqqMJM7RKM2OxYOojoyABg6cEdLO4Wa+jrKkbQ6\r\nZTsNOxx5uzrTY7k6pN7BOlUqDTumfLA6HvLxOooD9jp0z+46RCmIOg072Tohyrg6PAh2OpPnajuw\r\niIo6riENO82uszqvuw47aQoNO7GJsjostNk6YQZoOnw0Bjv84+A6Hnq1OnC+DTu8AeU6JqbfOipP\r\nrzqUkN063tzeOoNT2zotLrk6GDreOiIb3DoBZ9s6mkbeOlUF3zpFX9k6/B7dOq6y1zpiPt86m1rX\r\nOv6W3TpTKrI6rDjYOjCI2DojB9U6EX3aOm8V2TqaiNs6IfvVOhGI2zoaWtk67QbXOpKG1zpIodg6\r\nm7zYOvsg1jpshNU6zIrVOhoC1zp1YdQ6dXHTOjPL1Trh6NQ6eFTWOrEy1jrZkdI6hLHROuFO2Dq/\r\nKs46w8vROlR2zzpdvtM64gzSOkEF2DqZTNs62VPVOhRQ1jqKlM06FxTTOvwC0DppS9I6IF7KOnQO\r\n0Dqq/9E6IuXTOviWzTo14tA64nPROv5gzTrrMc86fvHPOice0DqD3886FMrNOlQL0jrN8sw6shTL\r\nOu3czTpO7ss6BYXJOlzEzjolH8s6luXMOkSdyjq7dcg64CDIOiRdyTrid8o69q/MOqJ20DrFSc86\r\nnr7IOieNyTrMTM06xpvNOs89zDq8cs86GBjSOmSczDq3A5E66zbLOpH9yzqzBsU6e/LKOh7ZyTqW\r\nAcc63bnLOkEKyTpC8cg6P6TMOgBqxzqSp8c6yd/JOlMRzDomxMg6NAvJOsNFxDoIP8k6UhjIOqyj\r\nzDqA5cQ6DILIOu2WxjrS/8A6ipPFOoUjvzphusQ603zJOuzSxzrP4cc6wCHIOixBxzqUE706MB/J\r\nOuVBxTp6YcU6AK3EOuqRyDpwVsQ6rNrIOlZQyjqH5sM65cvAOq+ZxDomtsA6eMjBOrhuyDpUYcI6\r\nIg3EOveZxzpeOcc6lt/FOl8EwDol5sI6rMPDOq4fwzq4oLs6l9zBOn6hwDqKAsg62gbGOnvbwzp9\r\n3MQ6xiTGOl+JwDpRgsQ6FK6+OtICwzpTQ7w6nqfFOlKLwjr0+Mg6qY3COpNmwTp8osM6XnfBOmZx\r\nwzr8lMI6iwbDOgVWvzp0Qr86NJy/OlLvwTqYqME6OqDEOqEIvjpDhME6GwzBOvb4vToxTL06273D\r\nOuXhvzqfg786N/PFOrkVvTqSiL46IOe8OgHhwTrkjMM6D+S/OhziwToc9L86Xr7AOhSFvTp1D8Q6\r\nHi2+Otk0wjrhC7466f67Os3MwTrcYsI6GSfBOibQuzpfN786s0e+Ohw1wDrZdL06e5K8OnywvTqA\r\nT7w65qa8OjyBvjo1BcM6mfe/OsYVvTqBGb86jjHAOmP3wTqmob46tNvDOpMwvjoZa786qzi9On+R\r\nvjqT77s67W68OidYvzpVLr469be9OiKxvDqnqLw6Mw2/OknIuzr8TL06EOW7OpGhvTqsn7o6Woa+\r\nOqfFuzo498E6KhG8OkFEuTqLGL46xMi+Oj5/vzoQQL06lOm6OlKnvTr0r786FSG6OsiavDo4txo+\r\n9M10OwK29TrHofM6Fb6wOkmvgzr4nYU6JOyIOpRd1joBWes6T6unOrBYADo1sgI7k4ahOnnRgToE\r\nOfU6d0OoOmPFHjv0d646/EGeOiFaKjpgmO06W1CrOjbw7TqayRE6ySc2OngwhTo4ks06P4xTOngc\r\noDqqbaE6eHQdOjwUqzpkTbk6WVOJOjDzJjqV6gc66l1BOpyexzqmPHI6plpkOnra1DnBYO45mHFl\r\nOkAGnTqEHo86DDwTOuylPzrJ91I6Ux3LOooF2Drdalo6s23YOiR5sjrE5IY6ZnK9Oi/gijrgLb06\r\nDqWrOunWDTv+z6c66pnKOt7+pToCHys6NxrfOsfKoToHM7o6hmNtOjkuQDrsHKI6y3+eOr8WPzrO\r\nUjI62TgVOzU8kzpcCRg6s2iYOrb/oDrSNkA6M2mPOi58+Dqixoc6KiuxOg9CnDpylU4664yLOlIR\r\nBTtmI3I6M3mmOtbqcDqw+6Y6wl2cOnz1xDkV9Vw68GLDOqECCzpjoHc6dsT9OmUSyjpFvIo6OjTD\r\nOu5zlzqLh1U64E9LOnCaaDpYGx06DyFKOot4UTpu9qY6cUpIOmXhQzrn+kg6/jWHOuJobjqjo6g6\r\nAFCWOmy4bjpKTz46rEZSOs7kXDqPk086yLGZOnUjbjoFjJI6qD1UOlTtCDtyOIc6VDKbOlCnHDrT\r\nTKo67fuTOogJ1DrHnAM7gQdJOgkwsjq6Ul461lBCOnr4XDqz7885nDSUOnXE4zqck7Q65oWSOiiX\r\n6jn8mkQ66u0WOm7zkTrN4EE6gzmkOugHlTr1XaU6dsFqOvqIbTqIe506N8naOk+RCzptQtI64T9t\r\nOpC0Kzoz/hA7mWbCOpBsbzpAhvM6g1Z4Oo0rozpXqYE682OOOjRTkzpf92k6noR2OpcDXzrw+V46\r\nlEdZOuc1rDoysGU6Rt8nOklfPDqu7Yk6uvonOpW+/TnG94U67mwWOsQ8YjpJ1/w63FMoOnECCDve\r\nlrE6NhRaOjMeujps3kM6BitxOhfUwjrhEc86nFxMOs8HZDrgwlo68juZOvqYQjrCKm06djCGOtUF\r\n4zrbt6A6ALqeOprRUToIu0k6mBoXOiRqWDoV06o6tFAOOiC9izp8mBI6Gg5POvJOVDru4Tg65j3G\r\nOvJjrjoeaDo6SLgSO+jfyzqMACE6zfBCOs/FNTrs6a86rQToOnjg7zlNmmo6It59OmmirzpOn5Y6\r\nemLZOnpUCzrxwY86MEupOhHPjTqvFII6OxCKOqkvJDpUmX46UHMbOkC6yDpTPbU6SBLJOtCmADvx\r\nGYY62qF/OqTKJTpavKo6FBu1Oh18jzqO7YA6OWGOOh4lljqcB2c61xWaOhgHnDqzbRQ6tJPJOqXi\r\n5Tqh5HE6vWbAOhH9STpGjKA6V47NOlPJjTrcH4I6qI0oOrGqozrZhrI6CFYvOuyQKjqyukA6AGuw\r\nOgb0NDr2i4E6GT4xOpgl4zoKtnw6pFdIOpSslzoprVg6AT2wOi6noTqA+7M6uMdTOjLwlzoOYpU6\r\nbWOZOhpjkDrMLvo6aU51OvA2vjoFccQ6iS/8OnP5gzpSm146G4oMOkxgdzqKU/A6Jq9QOlGBrTpq\r\nimA6z2SuOvFTgzqwtIw63LYuOl4GZDpyDjg7Ro2cOgHPgTqExWs6OZS8OowFTTqNVFc6/tE8Oqn/\r\ngDr0kqM6UsZpOo+WYjoYLH063XuGOgmRczqaNF06aSevOmDwjTpbRdg6INdPOgK9hToGi5Y6Eil+\r\nOrvo+DrP1aU6W5cKOhIOiToabm86guRlOr+hQzpYQuw6xm6YOl9q6zot3yU6OLkJO9GSgToovSY6\r\nx/LHOjIIdDq0j2o6w9OEOpBSqDqBjac6bb6cOvNUpjo5RXo6VgqZOgUF2jpuJ+06Fl2rOkjD6DqQ\r\nml46KTRDOn8dqzqSwSw6Rs7POmhsdDoSNm46S40uOr+VuzrrHFU6BUKCOkT3PDq/I5A6gMieOhIy\r\nZjqu43o6coVlOlIeizqj4pM6H8sNOlDEczo4e1w6aQAQOqceWDqoank69sPWOoK9TTpORyo6KUgZ\r\nO+hsiDp5O8g6uARoOuo3FTo8rjk62jKDOhXkkToH/Yw6ArG1OjyKWjq/8OY6PtChOjLiCToQ7Iw6\r\n6byPOkDgvzr8+Js6pNKmOmeGRjrw56Q65y5JOt8uYjrodXo6pCgeOjUM9jqAUPY5jo5BOg73NTpT\r\nj3A64nUhOlIrVzphIaI6/DzuOjmKMjoieZ06bFS1OgUiBDsCAHY63xHfOQ4YuzqnwpI6I6eeOlNV\r\nSjrSHgQ6GtaDOigb5Dq67JU6du+uOjY4ojqHUV46i4e7OkVJszr7ZN06jJ6OOqhdODp04nM6Imz/\r\nOX0htTo9ZaI6Qu19OvqKUTrTpo46Sy95Opf8hzqW8aA6gq8KOrzlgTqd8g062ClhOtCDkjpsBqc6\r\n7TOMOiyGOzrDzfY5rWArOrgKGzrJxBU6Cmy5OiZtqjo8m5s6kSqIOnRcjzoKuDQ6nIefOrXFMTpx\r\nsLw6IZoeOiyqhjqkZnQ6ST6iOoCPKzr5uY06afsgOoaIozpwSoo6T/M+OkViozobDYw6cFSDOrDz\r\nFzt0zak6HTE1Ot1MrTqtdy46nocyOpBsrjrUEpg6BRKWOg47NDq0GpY6M5lcOj5qwzqq4qM6MEuv\r\nOs0Mljr022Q6Lt8kOsopSjpJYG06AgFiOlxYgDp8bD86QCV9OithFTpOIoU69WXWOUC6djqDr006\r\nUJo3OksvFzso1Y860lAlOr7r3zo4XHo6mP0VOoWnKzo3zmM6rSo8OpmoEToUUKM6jYmSOnszBjro\r\ntak6ao9NOvnwGzqoV+w5Mub8Of4iDjruZaU69IhWOskJsTqeiAs6zj0fOp6ioDp1IK46hbG3OiGD\r\nmzonPGM6LkKyOpu0NTrTwAE7GhmJOkAJ1joengw60KNJOrKHNDoasAM6nHCjOuYNgzqioI46L5Nr\r\nOl+uQjoPFCk6xF3rOgBzcTpvNzU6xvVdOqlGXTrZRa469J9hOo5MjTrxoG46dEZXOur+njp+UwI6\r\nBFwXOu0ckzqg7S06Tar6OoiDQzrvaXc6avqBOke4QTr+Bz06UDHdOqzcNjrRjDQ6cowkOh01Ujr9\r\nRYA66S7HOUT/TjrcBdU5OGpWOlIxJzpqVkQ6j2kPO9Zubjp2H346zfMmOmwxJzpO6Io6rjcGOji2\r\n4Tk6Q5U6HApsOjJAnzp72mA6JjYROjVruDkM3Lc63xWAOnBIKDr4N106+dXQOgCqWTr4jbk65PNf\r\nOhh1Tzoy2bM5lkFiOmBicjpoS4E6D8euOseznjoM/pY6dgQtOpC31DrO96U6cRVIOj5QQjqhoA46\r\nj2GEOoWhLzqFr4U6umcXOke+fDoJdEg6UpC5OmorGzp88mY6+wJyOqScRTr7U486ffnpOli9pzqy\r\n8X06PvI/Os+GETon7Jo6auCZOvU3jzq0sYw6Th+POh2mJzp4/Ec6eTt2OtrSFDpRL4Q6xdv2OflO\r\n/jokOQg6HGpROgGiRzpoQMk68to4OtKUMzp+POQ5a5tmOqvYgDoFvH46+NZ4OhuaTDou0ZA6+0WQ\r\nOk0nUDoAfMQ6xyO3OiUcKzpX+EM6truIOnmTajrs0Fo6C3S6OjJitDo5LGc6nk5kOo0TUjpIQi86\r\nWNh2OktKsTq40Ac6j1FhOmoSQzpHm545vfSiOie3Ojqvm2o6GYyZOhUKPDp9gDk6Ka++ORg7rDo5\r\n01o67QIEO87hyTq4IPM6WgT/OYzu+TnHoWI5SsluOV/HcDlWtZQ5vQsZOs6aaDrv+mE65qT4Od27\r\nUDmbXao5KQypOXhEXTjDACA43O4YOVzoojgbj4Q4hPK8ObiWkDk2uwo5BhPOOZR3bzlqXWQ5wYsF\r\nOvZm1Tk0g3k6n4ZFOhUbujkUaCA5TVYUOR4t3zjJW6M5CF0fOjFRjzqbvLw5CLoOOVb6rzk9J805\r\na/ZeOcD1xzn6RM05Q316OdoZkjl7Jmk53v84OaxQhTn3kxQ5lfGDOQ7baDkjTio5YC/IOUU5vTgG\r\n5yk51x4pOXcAsTgATNs4chUVOX7F0jkNbOY5EQiAOZtTzzkV/Ec5QWf2OIPJIToLBi46hDuoOcSS\r\ngjnvBck5MksCOhC6IDq51ic6JHQDOjLi1jm42LU4B7iHOWNsXDlCtRo6406+OStaHzkSv9c4N8iu\r\nOQCmZzmUPMY4ZJvBOL8ynThEONU5Wq+1OQ6PNTnOzVI5wIsROYsjoTnTjXY6WM/bOYt8HToCzgE6\r\nEGQMOfNuHjkn1As4glLwNjPYFzfj9pI2WPCNNtDskDVG7QQ2QvOwNdzg9jUEsig1P5ugNdqdIDWi\r\nH6w17VOgNUIsKTVq1LI1bQFeNYbwgjXrvYg1kvRMNSmQrjXlSnw1D2RBNfNrNzW8tDo1seA+Nc0t\r\nZTV8WD817biQNZvUYjVeOmE1qpuUNaGLcTW0L2o1+43hNTQUvzXjLIU17IF0NZWrlzbZXco17XZ5\r\nNZCy9DUbKxQ3Dqa/NuDl5zbOdAo31WQpOMU6NTjOR4c54HqGOfYpFTlrQig3/L0aOcD6TznewDU3\r\nJrZTN76OWzett7c21/YfNXkGUzXyyRI1R41BNubY/jgwZO44YjOMN6hRQTeKD3A22pyANm9zvDaI\r\nBdo13hmCNWePbTUqGxs1hoEzNTqemDTWSkw18igNNhbVUTVUyYY1zIEZNVmdOTVy0wY1kY4PNd/I\r\nMTXbskA1cH3DNCvaDDWg3Rc1w1cQNUtXUzVfWrU0cTOUNasTODXYhjM18sb0NICQ/DQPyDA1OlUg\r\nNXYjBDUNMf00KXzmNAIBMTVzNPc0HybzNONCFjWFiLw0+O1rNFWGpDSHKg819GEhNeEXGTUGtUA1\r\nMqJCNYu89zR/wDw1M0XKNOTB+DR4lzs10j8WNfTl4TQ4mUM16p8aNZWfgTV0TzA1Gd8oNQrqCTXe\r\nnDw1+8egNEKA3zQAV4A1wjEQNc0oyjRMl+I0+2PVNJ7KBTVQkzc1+f0GNSiM7jS3Dq00cUwRNRW/\r\nCDUaNkE1YAIWNZGq6jQADQ01sXkxNWfQDjWWpg818zBeNe87PjXSYQw1ulOQNb/UGTXe5gg1/IUM\r\nNRL0CzU6VRM11y9LNY+kRjVWPAE1lmg9NcF4ADX41/Q0wiKTNZHZNTVhXQs1eelMNXrWMDWrshQ1\r\nxXFBNVOcFDWmyKw0cvpONYq3ZjVu1UY14vKlNAIHaDVmQdE0uLVONeNwJTX2Nwc1OFX/NMKgCjX2\r\nIN40/lnnNNe3xzRZ2RQ1WSsaNUMOSDUcxoQ1KH0jNSwsYTXKYgI1dWAaNYKg/zS9EuY0+tcmNRtR\r\nKzXAWwU1P+LuNNt7STWCSEc19IvJNN5X3jQurU81+hMiNQsvGjWbWAM1MsIoNRBMGTX7OV018FUV\r\nNWMi0TUnSNU02FYDNQK0yzQp1/k0ZGfwNGalmTWQnyo1REVYNcUgBzWJhvQ0AACiNQ==",
                            "noiseTrainingType" : "default"
                          }
                        }
                    ],
                    "start" : 14257,
                    "duration" : 338,
                    "mediaStart" : 358,
                    "mediaDuration" : 338,
                    "scalar" : 1,
                    "metadata" : {
                      "WinSubProjectDisplayName" : "",
                      "clipSpeedAttribute" : false
                    },
                    "animationTracks" : {

                    }
                  },
                  {
                    "id" : 101,
                    "_type" : "AMFile",
                    "src" : 16,
                    "trackNumber" : 1,
                    "attributes" : {
                      "ident" : "Aufn. 07-11-19_037",
                      "sampleRate" : 44100,
                      "bitDepth" : 16,
                      "gain" : 0.937754446796636,
                      "mixToMono" : true
                    },
                      "channelNumber" : "0,1",
                    "effects" : [
                        {
                          "effectName" : "NoiseReduction",
                          "category" : "categoryAudioEffects",
                          "parameters" : {
                            "denoiserAmount" : 20.0,
                            "denoiserThreshold" : 0.0,
                            "noiseProfile" : "RgNzP/VoAj8wtxU/EpUePfOGwDzy5MQ7FzmgO9m9mDvaowc8GV/kO6SOPzvoYhQ874ynO/uXiDsY\r\nswA7fz6POsu8lzqyD7w6vnqWOjtZTjrwNE06M1GYOpQ1ADqWsBk676MiOv1XjTn5SIs60ni7OeW+\r\nBDq8XsI5v9amOaPrsDna8oI55Cq3OUOEZjkp8YQ5A32iOXxH0TkI6nA5r5HZOcShETsAvZE6lmZO\r\nOyiFjzpa/aU6Fk23OrqKIzvYxoQ7pQicOl6ahzp21UI6DWMOO9jbcTrFuUA6AvsrOqVZPzqR5Ss6\r\nYjUHOhYFdDqQATU5yQGJOqc/sjmUJRg6hpcNOq1GGDpWwP04A1OYOigcnjppSAU68R+KOnr3kDri\r\nBys6Gl65Oge4pjltUSg6EEjxOW6hmjknG385BKM+OY0nUDlhXiU6LKmQOQ23hTl1QzY5nz7LOa7S\r\nsDmOhFU4OobVOIBh3zjyNgE5VK8ZOQVPnjjHzrY4IaAZORTQETm/oh85h88jOQMm+DgiFyQ5Kb2i\r\nOcve6TgYeQs5tdQIObo5PzkELgY67dHpOLIwwDlCNjc5yAAJOaKhtjnlmMM5BcGkOdt+ijkKRRc6\r\nNYLHOUkVMTqNsxM6tIsnOa5p/DmhZwM6f4YvOhw6nDlRxxs60uJoOWL42DkWGJg5GGTZOZ7TZzme\r\n8UE5rjQHOZyHVTisxeA4NDEnOFnUFDgmLVI4zddcODRbsjjaSeQ3wN7+N9JIXDgEkfk3pD6cOK01\r\nFTj42w042EoDOKEcODjoaog4wGw2OH4+FThL6hk4JdgIOLDwCjjBY+I3LRFpOI29bzhN4Uw4KPo/\r\nOLS4BDjsz2k4eztzOJCiFzitFDM4Y48lOOVrPzgEBkM3WBkJOOxIuDdYvN43INCxN0VxEDig/gw4\r\nmp1KOIFuGTi1t1c3m36aN80ZhTcTgbo3MLFpN2PBpTf+uvI3+Ba4N/DaxTdvWV03aonZN8OtjjcO\r\nz6Y35B44OIAyPzd+EAU3/6iAN0ksljfMIsM3m7yAN65mDDg/aNA3qJu+N9S9KDdQ54E3CClvN6RN\r\nYTdpJgw3LqeRN5ybNjgRW5A4aAojOc9IjTgCtDk42SECOJKhrDfSGA03IWWXN0exDTiXNxU30AbZ\r\nN7dE7zh+VWo4yl/jOMzm8zjUIA05XCCLOZ6C6jmEvyA6uRUTOmSnMjrO80c6mmkQOjqCADobMwA6\r\neqErOq9MEzpeUs05/g25OSas9DmnIqg5ZHzROQmk3zl8LbY5XacIOQC8IDkN4tk4KuwDOawGkDgm\r\nJN442+fqOKoUETmMOtI3rbZvOI6GaTflcP84+ZVgOO/5Yjl4PYA5p/aAOZHgWjnMJnY5g5a3OSUy\r\n4znskCQ622s0OrGCEDpQQUM6Ffh1OgYVGjplzfE5lMN0OhXjgjrYm286/JkxOuo+RDqNgkI6o7xQ\r\nOoppYjrmR046iXYnOuMHCzoCNpg5BJ6BOaRLHzkQP+U4t4PEOGchrDj4qko4lzRPOHtUsTcboyg4\r\nzplBOAfSqTcigKg3gX0mNxiOOzfGrLI3k3EUNxu0rTeIpqw3j+UYOBXiezcF+w04FS7ZNh9gCzhW\r\nZGY3ksILOFqT4jeMMy44YJMCOD9DzjeFNaU4tzRgOMNFzDfw7qM41Hj+N44wXDg3F9w37Q6LN2z1\r\ndjf1yNg2AmGyNoILwza6lp43JKE3N3DOATeXjpo2XQFBNyWAlTezDiM3/ORYN+uxwDaqHIw3psi3\r\nNkDukDe0YYI2RBF8N8umKjdOszg3FZwYN8yXuTa01R033JOgNjGoAjevUNs2FrqfN1iBkDdKLfs2\r\nhDInN6eNtDaSmYE3aLnhNj8/pzdgg+A29At6NhaGvjbhhJo2/sf1NvVMtjao4I02tLWeNnACQzd/\r\nFWM3irbcNq01jzencb43HOORN/b6kjdprTY4cyGBN3J0UziIXbU37HnRN1VCJThQgeA3GgIRN8a1\r\nMDc0sns43KQ0N4pgxTerjLE4LVKXOD6KjTjxx4k4ivuROPJEtTeYoos2fZI4N9z0uzbe0Zw23v2U\r\nNvlk+jaStYE2oH0yNkSvtzZA59g2SCc+N/TnZTYg+0E32zifNryTwzYMoHo2hndWNnNqZjaIxHY2\r\nz5ueNvTThDa+3482LI40N/wibjactH82rLkBNzoAhDaDsDE2etvGNp/6JTaK75I3GJRoN0jeiDe2\r\nn/U3darKN+TjezfS++Q3g6j0N5z/1jf74cE3lgFYOKvATTfq5G03Syi5N0kDfjaEPqM2i2/aNpxG\r\nEje6qpo2UnrANjFSjza3Uh43XN4aN/3fjTZEblc3n+q6N1DKGjjkyQE4/+p5OK2QYzidfIg4dTqg\r\nOEw1mDile6o4IBGSOKJFijjf38o4iR0CORo+/Djsjhw5yZs6OfHOGTlXpFg5AOFCOWwxcDlsilI5\r\nHQSBOYZWOjm02285VolbOc3HJTmJbIg5MsgTORMGCzkz6d041pbFOJTNfTjLpZE4AlsFOYz45Dh8\r\nshI5lZowOV44YDmGyRM5mjkeOcQKMjlkgzc5GsJPOf3VTjkW+Uo5crPLOMy/KTkTlik5xKokOdEe\r\ncTn08IM50r1TOe1nFTlN9Ws50TpROcWYgDmYgIA5rsqAOaGGPTmcjRE54gNYOXzcNDkjpq45dVrQ\r\nOTSxqDnJGKA5Qpp1Od5Vrjkjg6A5n4DPOQn7mznh3oM52gOSOTk6zTkmFK4502y3OdrS5zmA8r45\r\nl6K4OVNGTzl96hk5s7QVOY6VHTkz5qs4vsZPOVZ+CDnR++w4/BoVOalE3Dgt2kI540clOay09jiQ\r\nRgI5IEAGOZo4wjiKU6M4XYhwOeiagTkrAME4EgyCOATBQjgqv3U4C8HyNzaJkDdTwws253EzNjoo\r\n/DY87QE3ylg8N9cTuTdyXd42Vv43N1R++zYSPB83QYFoN0vpFjeB22E25BaHNlJ6MTczKgs3784D\r\nNiURoTZETdI1dI2HNd32ijVUttM2ghnvNfmkFjZuLK41gBGcNidUcjZLESE3lqRLN168ITduwjY3\r\nl+aaNyY1bjfrRsE32l5LN+dhfjd0/5U3cpvuN67TvjeyExc4HV0hN9sCijcbq4s3pT8OODOy/jcp\r\nkl43WJj3N5t5vzdGH6o3iBgXOLFovzcP3Sk4Euv9N6cIxjfoEdw3HUuzN0ww7Dc9ADI4Qw26NijS\r\n3DcYRn43xeKXN12tyTdIKA43GUkUN3bsEzcWk503lH0qNgIiaDbKArM127GKNQJzbjUhAgA2CP1R\r\nNkqCBzZKoxA29dOQNZS7lDXng+I1CpjRNdjXLzVL9xc1GiEONnp0NDYZXZY1hCanNYqtkjamy9o2\r\nuL4kNgb9KzbiNdI10AGyNhu03zVZoyk1LWdMNfWZjDXCt3I1jt+XNVIsZTXKhM41kI9iNRrB3jWw\r\nCQ02/mYvNfK0yjX5IpI19OOgNRLe7jV+Qc8155LSNSZBlTWLgUE2Aq+ENRYisjXE7m01+IKeNQcV\r\nkzWLs8s11imVNWdcrDXYyHY1ElLeNUd/rTVABZQ2IQ7YNeYJbDXKb7A1Fsx6NekY4TRs28M1dBhE\r\nNh3iAzfOcvA1gJpjNWuV7zWJ25E1YAr7NCV6mjWfdLI1md0pNVbKXDXSL4U1+jmGNWmLKzWaftM1\r\nVrqyNUKoZTWW3is1WQ/2NfSewjVaXjY1J4R4Nc41hTXrbEQ1Vl+UNeI5qDWJlkA1OnkpNZ1KxDWr\r\n7rI1tLl5NQD7PTXzh2g1vV6MNeDVYTU1u9I13jA4NuVSizVMULw2f1aTNkzrETbHH4s1ak/0NVZm\r\nmzWa+BM2WANWNk+d/zVMhog2IFf8NjJccjaPpgc29FIqNqgnyzXAcTA2JcDLNe9QtDaEyNg2sBib\r\nNoUTAzbgw5Y2u4GONoqE/zV3Gyg2iBWcNkwH5zbun+I1Wl8FN+rA/DZCYYQ38LaeOHypKjhMSv83\r\nb+frNzkoPzc0AoA1TNibOLuwFTn8G504nbHBNwJK2DcUFw83kjNxN44YUTihUQU4BUPKN5govDcE\r\nmB44FAM8ODNFJzc3mMY4e84IOQEGgzfLmjc3pPw9N68qwThw3as4Vw6rN4GnPjjLLio4eEsaNxeM\r\noDahUJ83dM+DN1xe7jaUYr829JJUNmn60TZby7I2hYeKNlwJpDaK8FY2XMC5NpGicTdigwE3EqQM\r\nNiuNBjZWlQQ3098CN8BolTa7TD83vriCNn4oVTbzLRo3DnGbN9CP3zZgxDA2AlC2NsQB2Tac40c2\r\n83/yNd7bbzZkmRM2UtuWNrKSqDb+llM2T6/ENhWApjZM58E2A6kANxKujjbOqi83Ssb2Nzg2fTdy\r\n8Jo2ILqUNh9eazdqmfA3gIOiNyAiXzfXClI3Zr2dNzE+STcKVYo2fWXMNlaY9zbYJgU3dvUYN1YP\r\nsDbU+6c2uma5NjXCCTeMdDU3hXw4NygOzDV56lc1y1aONTJGgDVxgGc1BD/BNaaxkzXU+XQ1quFy\r\nNQkzvTU1EWs1ZBiFNWQpRTX8f441yvG+NdDkhjWNd3k1zLyINVtPfzXPfZY1wC/GNWKy1DWeIpI1\r\nES60NR5vozUf7ng1lhcrNkotpDXqNPA1UOrmNfmyyzWUYTA2Z3UZONUs8TjiBrI4JE2eOIpbQzhs\r\n9tE3F0OqN9uqkzfhc/s3Ybk+OCN+IDgAeI84O55POF/v5Den4U44WgHGOBJb5zcKNMA43VnQOF/U\r\n5DdP14E3u5ZFNilnzzVCIJY1vY+ANijOsDeD9l44o+vgN5QqjzX4YMs4rG/gOHB/CDjKX6c3kZeD\r\nNW8gnjWitOE1dNsGNrqDITaJoe01pBBSNdK1mTUs7w4257TYNay6ITZczRk2U8uyNW5+mDZEhtw1\r\nwrwRNfDowDWirlg2M79oNnCfQzafu5I1WW+SNXOJMjVD+cU2DNWCNoDNeTVUez821DGLNq4urja0\r\n5s82TraTNYA3hTURel41fwaONXep3TQRe2E1+xdkNREzgDWknKs1IrM8NRqYbDUo01A1TMdlNfwo\r\nHDXMLlo1RvpKNebvbzXtvFY1/v/WNVR7izWA3X01AdRDNQW3qTXKYiM1rLwmNYCXMDXAKzw18sIA\r\nNdGPzDVKNoI1rlM2NZY6LDXjzgg1FuiSNXICmTX7ukE13lahNZt4gTVFwTo1sk8KNesvwjV3cYU1\r\n6LaFNetEkzWx3Tk1dHoCNWngKDVHbRQ1j+CLNeFzmzVC2601pPnCNLd5ODVcKEY1iAc7NRIyozT2\r\n/Wg14l4xNTR8ETVOSVc1SeOBNaoRgjWQJL4175GwNI08JTX6/ZY12pShNYyiLTVPTlM1s6eENWeh\r\nODWoqB01R6iENaNzaTWdoW41DFkuNQNrgTUBFC81P/GMNYuliDV0lYs1GcEjNf1ctjW8iGY1S4KA\r\nNXwvKjWqZZM1qy2lNXD8LjU6Q4c1RgeTNYkBVjVFHSA1Drg9NXBPWDVg7j81ORzJNQAAojWQvAU9\r\nXkY2OjxwgTrFLUg6Nj2POhplujpGuRg68TqDOj6iKTo8P4E6HWRuOjY2iTpUeeQ614AUOogenzqE\r\nE486FXsJO/+6gjoaKmo66umfOhNuljp3RGg6feAlOhRt5joL00Q6imsoO5a+7zqJzrk6TtuXOiUg\r\n0DosJJ45hbA0Ol5eWTpTaJY60UKDOkcZPzr6KIA6sbZ3OlI0FzrbClY6yu+ROttRnzru7ek6AiPR\r\nOh2rATtoN0Q6cujXOgJ0mTrmusE6kKSBOsutXzqGm7M6UioLO488VzrZ87Y69lo6OusAeDpyesY6\r\n3C1xOm8qfjrBXY46EfSzOuR27TqQ1Yk6risROn31kzqMcyQ6GvcbOuUtkzoQmjA6YwD4OcoZRjr5\r\nXrI5x0yROohVpTqY1ag6RyUtOm7ZQDq+QhY6J9dUOspsTzpj1pQ6rmoOO1cvxTr0i486SuOyOtLg\r\nijquZ8A6qBMBOwzcaDqJdDo6vDtUOlnLNTqyC9s6eMxXOvfdIzrM8xU6C7jBOt6jZjo8f3s6r7Wk\r\nOkcBkTpLYkc6x1oUOqbUijp+PBU6NPR4OvJQcTqQ00c6wk6UOlyBizpKZlA6q8mAOpu5mjpScKk6\r\nt8NGOizDZDr0Xlc6Js2NOjHXGjr4Q3k6IvOwOgjoTTpMB0g64wHoOrZ9bjqVipE6IPCAOsr9zzoX\r\nr586ya+DOsNmhjr+q6Q6Vva4Ov7bgzqwjMk6zJMFO5v5KTrB80860x8yOhnMWjoBrCw6q8CeOkOj\r\ngDotZIA60KmMOh3vjTqrdaQ6gSjeOitStTpuQjw6NdC7OutDhDouhlY6H63nOhq04joO76k63lfE\r\nOhNueTqi14I6QCUzOi/cjDpB5pg6JripOkkhuDre3Oo5j5WcOuyqXzpLIJ46GpqsOgFcZDo2p5o6\r\nQZYKOh5/hDqLTRU65iizOma4mDqzTYs6KlZCOqB1jTqB8ns6Nq/rOixNIjq5+n86peeCOqEmqDp0\r\n6h07iusJOyMzmjp6wnY6fGgvOihzRzrSo885nv7ZOklcljqp5bI6LJFROlaqwTpdjWI6bJjcOgKG\r\n2zocL7E6AF7JOkAKEDqUoLk6BXBPOqrTNzrtyxs6D2e/OovxMDrjDI46vEK+OrRWozpWbd46/smT\r\nOuMg5DrCSgM7v+iXOvMbAjqOJKA6m9RFOkIFPjrbpp066NhGOvT6KDvvEDQ6cEWzOkAlQzo6n646\r\nNhaUOhJLEDuOIa86Tjm2OoJnTzoag546ym1YOv0noDreDPA57CCaOjSjITqwlg06Dw6sOiQk2Tlc\r\nzYk606R/OpmFQDoFn7U6epvfOhXCjjryvi47WLu9OoiudzogeDU64hScOvdL/zqN8Yw60/hkOuYd\r\nNjpiaKk6pOdMOtW7TDraURc6MhOMOlCueTpTxIU6pIaYOhInGTuQPhQ60OazOqgQwDrUP8Y6IHAv\r\nOm/7Wzopq406Cz1KOt7uwTqiRmU61ohoOsasLTpu/Y86PrzrOuRfpjrm1mU6shQ7OusmjTqrvSA7\r\nPIYAO0t3ZTqGyWA6JIyZOu6Oxzp5l4k64nqGOkFMfDp9C5Q6hzEqOpydkjrutcM6/iljOm5dvzo1\r\nIlY6M85LOhBKhDpQz6o69jo7OskZIDoTqYA6fJd3Ok3itjp+vdk6O3yIOk1mpjo+SyY68saFOsoo\r\naToMuVE6ey5OOq95kjobJgs6ZbXSOQQGZTpmMFA6mh/HOiJykzrPn0g6Ov42OuJezjqVakw6SFRp\r\nOjxFqDqFmJI6tvKZOnpCCzpGNtE6r8oqOpsuRTrDSac65EbjOm47JjsOB1I6D02OOiI5KDqJyCI6\r\nDmEkOkahljqG9aE6AmSaOkEGATrldF46elFeOmj6Nzo2e0M6SqWdOnwAgDr4FoE6OStSOrSDFTra\r\ncNw5fJ6IOktUaTolFwU7/dbJOulwrDplsok6MzXROjqTrzoE4pI6DmihOs0Bbjrv5M06XrWqOj4V\r\nyTq2jdU6SAB6OjvERzrmrJI64rcHO7IAWTqcYPg5xcyuOinV3Dl+6Vo6l5j9OTWJDTqzz4M6wBHW\r\nOk2/RDpce5s6+A5JOmXQkDpih6w6GXaJOq6uQDpdYAM7oKzIOl/ENzrvgbA6g1h1OlWrLTq59a06\r\njPSSOi59vzpk/FM6eGV3OjgnyzrPPmA6KE9mOoTCxDp+bBI6UtBEOoEkWDrQl6o6aE6GOsDVaDqm\r\n01g60SLmOlyN0TrmydU6VPiBOuKThzqKW046PtCAOlYtgzqGXxQ6jX2aOtwzjDqsJuQ6piiLOlRs\r\nKzr+FTc67a23Oh6UbjrQX5M605CVOt7afjrQkgA7s5lfOphNdDo3K8E6CVLiOoWrgzrnid46UQEJ\r\nOqAQrDpo+HM6w/5aOhHENDqG+tk6CmB6Oo+TQzrr1DU6M1xPOk25Zzp/W3E6UxuuOoCvpDqBNQo7\r\n012cOjk1izrzmSE6q5fIOgDj4zlYU606gQiSOoS5JTrP50Q7KQE4OuupGDpfwY86oz9sOjYVVDos\r\ni006L8eNOhRJPDoOt/Q6dpQlOiMLiDoB2iE6Rq8gOuTjaDo8OZo6vitqOuc/hDq8pYo67DRROjAW\r\n4Tq7sqw6leaiOs52pToyfyg6eb6jOlBCAzoCCIM68iycOh8Bbjpa1aU6joqgOjS5hzqMhVA63pSS\r\nOlwhKzoBMmg6/gIiOj/dzDqmXKE6GYSKOhE2izqkmm460zqKOsoHQjpt22s6cpR7OlChIjqH+5c6\r\nQbvzOlDbgjoYLAg6OihUOscVxjpygu45f64TOj0JnzrkrHo6APuoOuR1tDpryag6IB+0OsqOFzrV\r\nigA6cl69OYvrkDr6Vl46uzElOsAsGzryVWI60iH+OvGhYDqeOK463FK1OjdIrDoEQ5M6mH4POi/l\r\nGzp+3kg6M79cOvZ9xzlnlas62FeSOsMXXjrfSKc6sK4xOk6ryTp55yA6y+eFOjdxkDqbul06eKtP\r\nOmoAMTq+80065/AyOpRRlDpLiRc6pY0YOtBDqjqX57Q6xFuqOkcgejocf5I6WjZZOtjihzoRHMY6\r\n9Z6UOoC5vToYEQs64VDPOleaJDt83ZI65ixiOjSzGjpUbvg5wPNwOtKI0jqELpM6XheBOrDwizrm\r\nv1c6VTGdOryPXDoidY86GDTNOWw2uDoX5Zo6yO1xOqF9qTqZY5068t+UOrjubDqm+dQ6o2jZOZgk\r\nNjqoZOo5b55fOgV2ITrm1206z2BPOv+FkzooS4I6G1VfOu+3wDpE8Zk6Rrt9Oq25eTrDzn06W/KX\r\nOgatQzpFjGg6iLeNOgySajrbTqc6AnzvOmcbfzpsHvE5kVUaOrKTkzoFTxs6NOFNOkjD3zrdIbI6\r\nos5VOv+tKDpWsCI6onrqOo2YuTpgCb86P86AOl6dVjr2zAw761VlOpsBuzrVRXo6/YEROq8KJjpt\r\nCRk6MQDHOrZwATuHeGc6dnlvOrTiMzoqlWE60LimOlxhODoAKJg6ULEOOihU5TqBbnA6HYRHOtV/\r\nkDoNtiU6QkyGOoMHjjqLpyQ67lByOgxjKDrShZM6UhdAOnIorjqzp4E6Yoa1OnRG/jnAQYA6Z+xw\r\nOlALWjqKDr46rcBtOvjKyjoQXhE6ZsiiOagYhjqg1q460uM/Oj4vnDrQzcA6MuIGOt67jDrFZZE6\r\nXmdoOoKFRTozm0U6k2iiOhECYDqaWsg6Zr9sOrNbgzppxg86ROh3Opk+izrsFYw66kH/Oe7W0zmK\r\nlnI6rE4EO9+tTjpEqPM6YDFROiLz1zllWi84jvC6N8COkDk8GLE52L4GOa5SlzkXfQw6BaD3OTFV\r\nsznuoRM68wHuOfxYzjiGxIs52rQQOaLTlzldJZM5fNtKOWn2izlapjg5IbO4OdoVmjjchvE2H5Qt\r\nOADjVTmarAc6W2pqOSYn9jfZmIo4t4ULOcUeUDja1c44PMRKOKvWoDcIw5E4GA4VOLgh4TebswY4\r\nMZ1VNzIGbDXcyp04n3YVOVlpqzhD5ug31wpyNzHDNTf+Hkk3X4pVOBCX2TdORqs31NquN6AuOjiE\r\noYQ4pPldN64y1jjV+hU5ml4IN71t+jak9ns33pW+OJgYqjg2PZY3duNPOENnNzgWGpU5V84pOuDK\r\nLToJLeE5l3I3OUgR7Dj3Olo5GQ7pOco8EDoAYCU5oLReOPoMkzhUdA05qUTtOdZTMzpRUo85Pp2A\r\nOS76gzno9Cg5Jvm7OXMn6jipRKE4jpAsOQurQzlwrKY5bZ/XOY4a2zkqrZs5ntIOOVacIzkaCSc6\r\n2wRiOnJj1Dn2OE45OkGEOaQo9zjjigc43LUcOi5LHzqPvvk4qpW7OF39JDlLNY05f4w9OoojnTrW\r\ny7w5+zgMOe5jBDpo1As6uC/ROfcoVzlmLkA5ge6wObdXUDnwiU85hYRkOWEnOzm9/zU5jg/OOSNZ\r\npDmFwy85rOMXOdYSrjl/QrM5BDMvOBrImjVX+rA1bLI6NSdATDUQumU1jp6ANXAiUzX+iNs0pb22\r\nNR0cCTWQlPU18zOGNSyvtjUMfiw1UGRuNWiqcDXsqnA1J2lINehwVDWEj9s0fFEbNYyQUDUoxjs1\r\nUIx0NU1cLTWgkAU1H4fHNaIFOTUPsvQ0vtAcNWplCDVS/yw4B5wBObQHFTkSCEs5tDmWOb4QBTn2\r\nUBI4iHuAOPXlCzksIeI4tgA7OMmujjhF3M44KmDFONpxmDmhq0w5yhAeOWQy+jmikQ46xHV9OTc8\r\nIDnxMDw5GORMOb8drTnxhUg6oUMwOmEOsznGqM45Sg95OZZ3uDjiofE4eyt5OT9DEjkxnsI4AkmJ\r\nOaEhCzr5AVU5U27SNy+CTTe02oQ3xIWbOOVrWzm+qMo4PD8qOP+wvzdCeIs4YSMVOvNZuTl4m2U5\r\ncO/zOYWfbTkbOFI4KkJcOT0wBjlB3Kg37W07OW8OUzozyo06HncPOvN2oDn8Hso4w34FObgvAjnX\r\nxi45WV26ONzWIjW5cLE0WEPvNNazDjX/z1c1GdnZNIkhgjU4ci41OsGHNXYjLTUYmfY0QvLINFlf\r\nNDXqE5o0ctwsNUXMAzV8+2U1erjtNF1sLzVcqVo1uE4dNfItUDVuOeI0UtUNNT6ZjDX+PUg115qI\r\nNaRlMDXFjSk1xbhDNSotFTUOQd40C3DFNQZK0zTrXx41S6pZNRcEXzXw+540dDgdNVKWsjSI1RY1\r\nKM1gNfZj+DRZwws1Tl/uNFrGRjWZ2ak0qgUuNZi/XDVLJbg04p0mNVV2DDX3TFM1z+kNNTiJGTVm\r\nOpA1S6xdNWixSzUl8NA0GE83NZwZCDX1kpw0xjWjNb7OHjWfoxA1uqvgNBKxGDUYcyQ1pVp2Nemd\r\nATXty9o0KlPZNBvpGjV9NA81mtf+NPLkKDVUYSw1TEY7NRRY8jQcswU1/UpJNXSCmTVD8AM17JIF\r\nNbSs5zRWQwI1EZorNXIJPTVMxXk1AJASNRAfazWfnyQ1Yj79NB7hBDVnez81AEA2NQ==",
                            "noiseTrainingType" : "default"
                          }
                        }
                    ],
                    "start" : 14595,
                    "duration" : 925,
                    "mediaStart" : 41,
                    "mediaDuration" : 925,
                    "scalar" : 1,
                    "metadata" : {
                      "WinSubProjectDisplayName" : "",
                      "clipSpeedAttribute" : false
                    },
                    "animationTracks" : {

                    }
                  },
                  {
                    "id" : 102,
                    "_type" : "AMFile",
                    "src" : 17,
                    "trackNumber" : 1,
                    "attributes" : {
                      "ident" : "Aufn. 07-11-19_038",
                      "sampleRate" : 44100,
                      "bitDepth" : 16,
                      "gain" : 1.10818703311672,
                      "mixToMono" : true
                    },
                      "channelNumber" : "0,1",
                    "effects" : [
                        {
                          "effectName" : "NoiseReduction",
                          "category" : "categoryAudioEffects",
                          "parameters" : {
                            "denoiserAmount" : 16.16,
                            "denoiserThreshold" : 0.0,
                            "noiseProfile" : "xsQPQd7uBEGvthNAEpGcQBY32EDugMRB6OPcQsZanUKjV9RDnR11Q3/YlUK8RkRCUyiAQUiTLkLE\r\nwfBBHjyaQdTJe0JS2uBBlwDAQAbFtEA0+UhAwRYVQO9am0Ho7ntCz5lSQr2cCEL6IIlBfc6TPwll\r\njECykQpBJiktPzpMq0CNnYhAQ1e8QM0EsEDDk6I/2qkHQGtegz5K7WBAFqf2PuzQij/chPc/Ar7s\r\nPxeiC0Dn4yY/p6dBPjj2kT4JgIM+sVhgPjZpuz44fx4+RQw6Pjj6Tj3RQBU+T1HHPO2S0D103V89\r\nR2aVPR4Nxj4KQ/c+v6s0PmLrOj4aSVg/4JoyQL5TD0A4+XQ/kbjIP+9PCUB+TsFAzzqSQMI/oUEa\r\nIN1AZ1UeQXOrGEH0c7I/JWF2PtDPU0B0wC1BatOAQOjZAD+WQXJAbsCdQItvhz7MKis/UMWJPk0Y\r\nGj4R36U99LszPvEXnz2EbDg+pPnyPH7JgD0W7UA9xbIVP0AkRj6y7ys9avIpPnlrgT6Bbsg97Xmg\r\nPT5+ij0yzAU/nxu8PsGNb0AND+o/ugqzPp/fvz9Vw6A/hdsWPnUkEj0S4DA9zIjPPckkwTtxzS8+\r\nYzqpPcsuOD7CmV89sNQkPeiHLz1QLpw9FcEpPaNYpz0MD6M9Ot0hPX+TnTzHb6c79HWdPXaDoTyS\r\nUBY8ST0yPd2S9TsKFG09mN/0OyECDj2/pAo92xsZPdpqbz39yD884cCBPC0n+Tzem/g7tVsSPYhE\r\n8zug8To8YpCPPNWcwDyBawU9XerZPDEG7ztOXBk83lEkPHPnqzzDlBQ8iL3YPA4LczyMOTg7j7+C\r\nPBr7sjwLoos7ok/RPI6RrjxYhLM8zLTGPF+Y5DuQE008n5OsPGhVfD1kEo088/fyPEpihTw5hY48\r\ndYMdPTHdDjzUw+A8Kxd9PAJ+aD37YXQ9qrqqOyTYmT3Ayy4+4lb/PbCe0jxejyU9CUsSPs4GZD6m\r\nVmA+9POVPZ3sGD688JI+PomVPkv5qT2Go84+7IMqPsR6/zzEiko9/LolPujPEj6qwW88pJ7yPCmk\r\npDxTm4M8noXyPDItjzxljY871G1MPC4oADyy2487yg+tO1SvmjxLqzQ8o4XaO0RI0jv2ofM8ckbu\r\nO36cFjxyktc7LR+kPCx/Sjw6fWg7lDpePMy9Yzx2uYA8RY9FPPhdNjwAbS08XSTnO2sMhDwMsRs8\r\nbEo5PKbNvTsEL0M7mU4ZPDdNTjzK6Yo7xUItPHlRNjycOBU83m6OPEGfYzxs0qs7cFJBPKFDiDtx\r\nrT47+eoSPNJjITxi3yE82LbhO29MqzsK5ZY7yl2MO1AyhTtidHo7TzHdO4I9Qzt2YAg8APmlO7Id\r\nljtmbC87lUfmO775xztk9nQ7VzeIO7CkkjsUeNc7cGKqO1xmSjteEr872RKHO9NjPTtm6rc7vAin\r\nO/5OjDtyWg08+4i3OgbOhzs7Hqc78qOCO+V5Bzz2DTE7ttkMPSUJATyr8Ec7Zb6OOw42pzsQHBE8\r\ns1uGPDd6CzwjzjI7MS/JO/dB0zt5nmU7FDnhO+/NYjy86Ow8/PP1O4xaiD1bYWQ91WcRPQIf+jub\r\nJtc8rveNPVXelTw7ADw8NcMGPeerkjzshr875BgAPAEdtDubE6g7h/s+OyOYDzxGjwk88SNsO9Jb\r\n7DtaV0I7xWowO4PyjDvH+pg7CHmFOwSgjzu45VE7+UcPO1QFfTuEurQ7VS6MOwYruDoCML06FpeH\r\nO+oR5DypHdc7DB7EO3e7sDyoUwY9cF/DOxT+mDvvArY6M5bHOtdLTTyvS2M8nvaxOz89ijomxHE8\r\nbKMhO62TgTsxI5A6G9+3OipaFDz/H3Q88UHLO49DvjvsG3I60Na1O9uT1zqvqOk7pdoEPKyLgTte\r\nSCk78vd4OyH59zmqNSA7PVSCOwNRAzvOyXI70SIyO3kPZjt3UxE7RAeLOiuL8zo2qgI7sMBzOzL1\r\nWTswxGY7PdcXO7dTqjq+sTs7ahXCO1GjQztgzBs7XPT5OpTR+jvXit07PDIGO6DvNjuzi/c7iTQx\r\nO4EQpjsMtDI7eiTjOxJg4zqQwiE7voXXOsL5HDwMpQs7VDpjOyVeizulj506DSsKOwY6Dzu8Gb86\r\nWkiNOy8wATuBupE7fNMDO+JIbTsXapM7DmdJOaeOAzvSyJo731YROyi1BTsLK8I6+MbyOg4o/zoX\r\nvZQ7JJPZOgZH2TrIpxE7lg41O8KkljqjPvo6WPAgO+hLAzpSPMk6ITRAOzL4DDtHNNw6tSxHO/db\r\n8Do22gg7fNcpO9AsBzvXtPA63r/hOqfKBTs8szQ7lOgCOxRa3DpFVUc7emeQOpeLjjv4CK053gyO\r\nOjlclDq3mpU6nbcLO+oD0Toun2I7Br3fOQyRVTuKQbs6D8krOuwQcTm6Kzk6jR9kO2CUpzlIsZ46\r\nRpx4O/m3GTs+u4c6OeMVO1CtIjs+u30784V2OxJ8LzvPW8s6gFhnOlL6gzvQVJE7IY3sOu68mTvo\r\nvcY6lMcTOzzJEztC9AQ7ZzmiOtaBNTso9do6FgqVOvK+NztlXJs7NjB3O6sBWDuUMLU7fHQUPCR4\r\nmztA59c6OacAPGWvmztcNw87/77aO89nqDu85mQ7B6k+O/EL+joc7/s6k1eLOh+tRjtO33A6lDwD\r\nOzrOyTpcxq06CAbsORN9KzuIgEM7RmkAO0y1eToGLCE6oKndOUO5pjoXt4Q6S5aEOg1ZCDuIUPo6\r\nmvvPOR+ikzmMeso6ZeXNOvf6WDtHJgc8VWS9O9hfKjsBSPo6y23IOrxR6Tv2BPQ64kiEOqELATt3\r\nryA7hKUKO0L5RTvGqGY7YWgHO29Hfzr87HA6ZqYLO5qAsDqlP88679dKOrPLOzqvZEU6SnSnOuaF\r\ndjom/WU6Gn+dOvDcfDm6noc6KWNHOsCqAjv3GUo6Im3+Oof+pDs4TLs6yHG4O+ZRFDucZiE7JtQR\r\nO75q2zqp9Dc7OluUOysG6zpOth87dKYGO5sOWjqafYc6CWu3Og2q4jrqSyM7CxWmOvSI7Tp8o486\r\nnnNJOwdKuTpSqMU6KRuuOg2CJTq9ciQ7T4mlOsI3cTrlYoY6KryeOkowXTpESuA61ZYOO0oDpDrz\r\n4wA7HuGuOiDaazoQVI064aomO2D8KToCS/s64I+EOtw3TzrnfoY6DluJOvkE9TmV8oA6JBSgOv1w\r\nETu6dIY6bvB3Ou0D8Dqghu05jBClOtZ1jjqq1M46HjEXOyblhzoKbow6U56NOoKCBDsyyho6hQFu\r\nOooTTTslCx07vcg6OmYryzp9Npk7FF6wOhuP+jvYBcs68oI7O9UwnTsJDoI63GklO+XZJjuaRwc7\r\nXtXXOw2Cjjq4Kfw6bpPnOWrKhToEFe06IuLoOmsenTuf5+w67kN6Ox1P8DpK2JU5RE08OieLQjug\r\nVWM6EOvLOqCWXzqT1CI7YiYnOpfJBTt0T0w7G9sTO0uiUjo3Opw7SlnLOnVaDTpPinI6VjiTO3B1\r\nnzqBvoU5iZ0aPEucHDxecuY5+DbbO1GxNzrYgyg76YdaO1RrGzu9Vzw7MHMGOgRiezsoDQ08k/kj\r\nOoKHFDxnBmY7dugFOoHIXTuSb+U6BIZSOzSroDtTu9E5QOloO9PLYTybsMw7nhX4OqUJLTr3ehI7\r\n21cDPC812jq9/h4896v9O78BDjvyKd464XzLOqY5QzuAmNU6H1L4OrS+dDtqY9Y62pnOO1ITGzxk\r\ngU07kOFPPBijsTvJwzQ7rCyQOzLFgDrmRjc7Vc2lO7oVJTuDfTY7wsozOyKcHjs7LII7CAXLOxj6\r\n1juVvJ06PpvaOlxvODuSBvM6oTL8OtDICjs0dwo6XyJQO9tZSDpfWOw6mNPlOrwxCTr2Un070MNx\r\nOgb0ujkwzAc7NSQuOwC9TDoMpkk6iLp1Oth4TjvSzS46FW2+OuHeSDrDPZU61yRSOkbwPDrD3UU6\r\nfmmWOjsAjjnw/oY6BI8nOhEq+Tlk8BA6ZE4jOmwLhTqSOhY637kGOt42jjo966c6XF1NOiFSUTqM\r\nWmg6yPCSOvylyjkg5zo6GPQKOr3DRzosElo66/6lOgFIoDp0blk6/FUuOqZZLjr9mQM6RUcpOjjB\r\nXTox3qc5E2+vOW3KTDpaxAs6fJe5OXGDGzsqiiU6plHBORakDDrZyA86VsxNOnrfvDkcq8E5QXiL\r\nOjr1vzm92Uw6olgtOjt/njlAhk06OCNMOtcqIjq1TaQ5yDhIOtSjPjo06Bs6EMqWOZPJsTo12nY5\r\nD7UBOl58/jn/odw5bC2+OttR+Tow1Vs6NjApO8TvJTpq5Rw7zEEoOxcJ9zqtbhk7uxNRO9B5WTpf\r\nzGs6oJmROv7Y2ToBsGQ6jWmAOn55FTvKPZI6CpRkOo0XlTomUtg6K1nuOXdegjofsOQ6UpXNOjU2\r\nBjsEJrY6ayGTOoPPEjrM6YQ6t+4pOjStOjrujx86IRI5OoIOfjrR8ec6ECXfOSsGMzomsTk6osco\r\nOgAASTruHkE6ttcDOu6LADp9rwk6D7p2Os6mnTkb/ms6k3OhOqT6jzpackU6Z8FfOsWKmjr0vj86\r\nHce1OiYtgjpq0wk67MI4OpKufTrGuVs6wXJVOp7zLDpIKc45jFD4OWiM/znpLwE6AfwCOpIvBTrW\r\nnwE6AUgDOmX4BTrUxQs613sOOmfMBTrigAY6d9UKOn3TCTqfYQk6/DYHOiaUBTpn2wc6HVkFOhNf\r\nDDrK+Qc6XrcLOs3BBjoCNww6uSYJOt3ABzrujQg6DFYLOgq8CjoS4gk6DfgJOjUNCjrlxAw6Psm4\r\nOfA7IjpEyVI6bN0KOu8jujmpmiY62uOGOmb2HDrpSb0587BOOsXvpDk6dog6v02vOfhHTTqn9MI5\r\njgElOkq10Drnp6o5d268Odr0JzoD7Ig61SWxOZgKiTpVeq05aqlKOpDNDTqDnQM6IuQPOj+5rTnL\r\nx5w6SECJOh0IsTmwqAs6eQUKOtDhBjoVWgs6EjwGOqm4BzptlhA6PVALOtkUDTrKHwo61GcKOqDr\r\nDjokkAg6N9sSOhg9DzrWUQo6GgQLOnV5CDr2sgk64XgKOjOIEDpJzwc6i8AHOjJqBjpmORU6gOUJ\r\nOk15ETqVnw06P34HOureAjpMqgg6mEYLOvosCDpUBgw6KlYNOnY3DTpYEhc6P1UFOk4wCjq0nwo6\r\nPxALOgQ1Czr+zQk6/KQFOoH5Ajp6nQc6HmkJOqzIBjrV+wY6AbYQOt0qCjo/CQg6nMkLOqjkCDrj\r\nngo6y0kFOk/bBjotGQc6LTEIOirZAzrFBgY6GrMMOuptBDrXwAg6ANUFOhdvCzoKXAo67iYFOnZF\r\nBDrJKAQ67kAIOsIDDDoo5Ak62iQDOjxFBDo5AQc63IoKOpH8ATqtnAY6reABOs7KBTrkDwc6VoYP\r\nOsQGAjqO+wk6FrQIOjAtBzrO0AY6oRQHOjILBzrTFgo64I4HOtQqDzoEGAk6d/AKOgAQCjpZFE49\r\n9z+tOhkIrjrXptk6y666OhHthDrqhrQ6B6M4Osm5wToSMM46YAX6OiTBqDqgJNk60Qy8OtIP2DqQ\r\npr46+wXzOk5dMzu4bb863t2ROjKr1TpQ6qM6Ys+IOiLRwDpKSVQ6nWXAOp7Vkjowpjk66LJ7Onak\r\nKDpYPIg67kOSOhbvjDrMjZY6oPTNOiJQjzpAo2I601RzOhSanzoJdnU6hSCnOoFYVjp8ktw65bRS\r\nOliY/jlrTZA61f55OtrKnDpe+ZQ6NltUOlmlGTqrGLQ6FiebOm57gDqs+Fg6O9YJOmmnmzq5cKA6\r\nA7g1Olh0iDqMLlw6wJ9uOrY3ZDofa8o5d3loOvbodDpUrds6vguoOhztOTrSw5k6tVGWOp7fwjpi\r\nf6I6N9CmOghm3zpk2xM6PgSFOixEYjojOo06RGm0OuBuuDo3aEY65LKEOgxbrTpn8646nFVSOncG\r\ntTo3ro46eZuCOrtaRzoY9Q87AjqKOngBljogXk06prbjOQvplTroLow6fiLAOoCdHDqOAr46ZqzN\r\nOiMgNTr92KA6tIqYOv6ZXDpGC4Y6Aai7OhZDjzpyIoI6YvtROgSTiDowhVg6TBGmOpEpdDqo2I06\r\nX2SfOsQ35zqAEj86ZPx1OrA/Yzrf3bY6jNoWOulBajq+q386E/FvOpIMRDr870Q6EUhTOvbxBzpX\r\nb6c6tM0CO8EyizoAfRU7uNi+OpqiiTqoAa06C7UAOo0KnDqtnco6jmJpOsT6jjpHJG86uI7bOuiu\r\nLjpH2hQ6io6fOsDCVzrCfoM6KYmBOkYCJDpqmgc7EyK3OkdsfDpQAis6z/VSOmQqmTp4GY46XzVL\r\nOnNZPTqORm06/rC0OuDcODry5nY6LD2EOjXUhjrRuKQ6UugOOsdyVjoVQpY6X8RAO8JDpDoPYBQ6\r\nCALdOuijEzoGrnc6zCprOmQrODrErj87MOKVOiDXjjokXDQ6KfR2Onf2hjpYfoI6sVYgO1sjpTqf\r\nN3I6LIc0Ol0QPTpQwVs6xMdwOtv4jzrkiZY6hBd+Okk4sDp6N4c6D27IOpdpRDqpDTA69ZBCOoyr\r\nTTpThx86+rDBOvRbHjr7kGo6ISiHOmDEkjppJYY6xNqlOvgnZTox6FQ69V2tOsHyOjqN9KA6j54T\r\nOhCFMDp8XOw6IL6TOmCweDpyHDU6G+KjOgxTwDpW2D864AgTOqxrmjmx0NM66wHROh919TkcW4Q6\r\ndyTkOgrIDDrI6fo6rwmdOrdB2TqWShI6G9MkOhGh9TkG64Y6AdbxOtnKoTpyosI6DpKWOoTxczpE\r\nZ5w612CWOtvxYzrRYAQ7gt+FOpaJGjrTvW46LNWzOuypeTqqdMg6qH0ZOt6RfDpUsjo6oirYOmlS\r\n3zmkJYg6tZ2uOjbMhDqqJEc6tYlTOlJ6jTqvsY06AxydOnQBNzqy0iE6qoNaOgOReDpffuM6mzrC\r\nOlknzzqgUDo6jBVPOqefVDp+I5k6LkZEOgQPfzoWtX86XyVrOsEoJDr+Q6c6E+GpOt/npjpTpNo6\r\neI4AO0jaPDoGkd06f1szOmXAOjql6Kc6IExiOrZOdzrGT6c6Olx3OgWelTqGJls6b0WEOjNtTDqZ\r\n5ko6RnJVOnMMhjo4zW06lp49Og8dYDrODXI6ZN8UOg3WbDoJJ9w69bYqOjrJkDp6T7I6LIUgO8W3\r\nOTsR99Q6iOA2Opb7gjqrI6g6uRaMOuYFCTqaC286HpAjOjLvVDqIClE6vwq9Ooy18Dli1ow6HtFh\r\nOvl3LDpW1qk6vIYmOpAPPDr8GqE6z3YhOivzUjoOKhU6nv58OpbESTregL06zOUMO7yZujqkLt86\r\nyvjtOmgEZzqnVUg6vuloOgeu8ToiXZA66tlROk5TCDoif4o6HsGuOhB7gDpOmqU6wDA4OkRlDTrM\r\nVak6AIeKOilUpDoOhMo66Y6WOrXbczogG0o6UAVROpyHUTqlyrI69roWOuXmMjq6KQI76G3bOqBH\r\nwzo4MnU6T7whOoi0Rzr5AKA6vdJcOvzSmToy/hQ6W+JCOmcHhDqqAp86FS26Om64rjqFIjc6eq5q\r\nOof9HDrKzt86tJw3OiCzKDoBy0M6jyOGOp2G7zqUrUE6EmFpOmo0uTqS+Fo6Ca2HOnljGTpewGU6\r\ngHJ5Ou7uGTqLm4k6RpymOodclzqS0mQ64kxEOtXapzqyjrc6vaGGOpPheToB1T4621hpOp5yvjrz\r\n9F46MnVWO+begjpmOCY76P5vOiPAtDq4wtM5qhDNOiVyMzukisc6WjBPOpiGPzoi0zo6ZE26OgJn\r\nqDoufQs6STxDOl+lDjrWI446ws5gOhTSvTp2m0Q6kk1nOunwNDoKHYc6FnNAOsqlsTkuVsE6hhmF\r\nOhyJ+zohBzs6MDW5Ott+lTo+CD86rS+zOgRegTqWQq86eLRUOikOpDrrjLI6+EOHOnwphzpSMKI6\r\nnujgOTX6TDpKfxc6OGKVOqS9NTqQJ6s6UALcOeMifDqP/3k6fJ0BOtztoDqO4Z85QrSvOgJmSjqB\r\nPcs6Q10JOtOsNTr6iYk66t0FOnjKwDniQ5g6b/OtOnb2EDqyqKI6dj1cOo1FcjqXEpg60tD3OUr1\r\noDpkTNs6hHEkOv7YkTpzms86+U/8OXAdezrx6JI6IcaaOnqbKzsWsao6p7AVOkTl3zkOg0A6GR9k\r\nOgJR5DoWOMI6hkQ1OjOIrTrff2M6n21FOt0JODodU5c6U9AVO2azAzqCgXE6dFg9OqD9YDqEbhg7\r\nU5rUOk0wPzrIkL46YoFyOjlNijoBMGM62PgpOibc0zqpnTk6WkSTOtu2+TmGpZ06SFgxOr2BTjqn\r\n4Z86psZYOnSUiDoiAkQ6s6iOOmJBrTr89Og63hG4Om2tQTqjqUw6SMmwOvSqhjobbbE6NQNUOrzw\r\njzoOgDE6kGrtOmu50DpRszQ6Gs6JOplIQzohY8E6OPsEOthchjph4h46BBOfOnAIkDpMDwY6NiCY\r\nOqhuNDromSY6NJ2VOlBWaTr+NJM6CupAOrqoQDr9+vM6JuYeOkGyPzoUyxE6Olx4Oqr9kzpmM4Q6\r\ngoqYOimdljqI6Uc69YTKOqq3RToJskU6eQPNOrpvMDpUiYM6QMioOuzHPDpiJBg6FmJmOuN3gzqA\r\nxSI6TL2FOhQDxzosHyE6m3RNOmnULTqUN7c6kwF6Op1dwjrGBWw63RBHOnjiBToQqTk6GvVXOgZu\r\nVTrBoNI6UmeGOoGkqzpvqEU6BvnROs2bhDrZbCg6kYCaOjgRBDpyWYE62oHOOoBmdDrXl4s6tOAc\r\nOtN2ezrxcoU6+WSKOlYYPTqG04o6yNy1Og4/gDozuHk6xKgCOiif2jqd4YI6VW19OjIpIzvk8J06\r\n8VFPOl/WPjoUtEY61fNKOn/EQTp45l86A6VaOl9OSTrxTk06XISUOs52pTokb+U6wsR1OiCLRDrs\r\nONk67nZ7OuL5pzpf3ho73DASO2MtEjrzw1I6kp9eOnZDDDpcsD06hNNWOputvzraeX46Y52GOhAP\r\nDDokgwg6xTubOg0agDo9oI06MuLFOVVEGTpHRIs6ASROOq5LnTo74L06MHmvOjpNnTqQHUw7QhVX\r\nOjnDgjruNW86WOpSOkqNOzrK86k6kIl0OqbLKzqLR6g63Jd5Ormjbjrfi0A6JT68OjNgnjr8wJ46\r\nBOJPOvMyFDuCXHg69+KSOtpEJzoUC1Q6ZN1nOsNDhzrWr4A6MklSOmTdgjqSl+U6GAekOjTJNjrH\r\nuBI7wxveOQkogzqK3dE5FU3LOogTBzqA8VA5fko6OhTq9jkQ8ZE61d63ObwoUDodxP05snSNOfQr\r\n3jkCcxU5dFn1OShHcTpeMWY5rCMtOszWuzm+NZg6Tg/9OUEYdzqXTgM6XAXzOfEWeDllk3g57C2e\r\nOcGQ4zk2Ds05a1AROk6gRDpqZDw6Zmr3OQJG/zrySPM4iPr4OU5BkDljfOc4NnfINfJU3zhsSDM5\r\nrAThOLK9rDijFQ85gcj+NxxRgjdXWgI5MujPOH7LBTnqZmI5c8YaOZ0nfjllaYA4LYMzOOySTzje\r\nYl05HkhsObWGpzeuDvM3jG+mOLhmgzjo8k84ciPOOEDrGjniUsc4yK2POFQyRjnUki05cFBVN14R\r\nyzj2/ZI4p7JmNwIgIjclaZQ4au/YOYXOAjof4X845vinNgaXfDa3aAw4oxiBOHJAZThri1Y4kE+W\r\nOKwxvDdICtM47ADzOHFt4zdQ//Q3ntCQN3KS6jg82uU33ZnuN67cwTj4dgc6lgfKOX7xKzlXPgA5\r\n+nLWONencjmwyoc6dB02OlNwYzkmyJE5AW+bOHwgxTllmb44y0lIObI3KTpfpSE6OLUDOpXFgDmq\r\nqoU4KDatOZpYgThauN45l9gbOpaanjmICgc52KWsOUpJgzoesQQ5uQTLOer3izoQ9+A53UuwOYsz\r\nsTkEi5s5Yp8nObWCFzmt0F45LXf1OOjfwzZALYI3sKyoOPU+3jk8qdA5MeuLOEkjCzc6+xY2VELw\r\nNtX/iThxHtE4VjSdN0wQpTd6LJQ5r8gjOvwe/zjsBPM45II9OS2/mjlWyJo5ZgfPOFHpATlnthY5\r\nqLUTOUhZMzanjqA24G9COFKKXDiERVc4jzTQOGQ4hDj9bWE30X2qN+kYMjdmBpg3f2UCOEUm1TcQ\r\n2xU5p+meOfffOznkcwo4cv1VOAceDzj8TSA57HILOaJFszcHnjI3EFSFNt7qwjijpyw519+3OKeI\r\nijdGYaI3eYyiN2JeMzhBm004MhwPNk/R9zYuT343pbOoOG8xBzlmWAs5oVm6OIOrlDc0ga02JA+/\r\nON9aCTgXqAU2kvYYOKu6tjiP3YE4GK+COFD6PDepDqw2SMXjOFFvczh2AOg4/JgBOELzWjgu7Kc4\r\nYqaZOXGPmzkAd603Zs27OC4niDi2AA84mODsN70jKjjSZw84Ta/HNfIR8DVEgbY1zACkOVbvYTnv\r\niH84WGxtONgWazVNrNs1EhMbNnJsYTbhuw02gN/xNfSh1jVHMgI2C58CNpIJ6TVKGHc16FC+NctL\r\nHzbibf81oqsDNj3tnDWO14w1X3GLNSwu5zWMFJA1NVIFNjBY1jXYde81nZMhNYF+MTUNMsA1uNxZ\r\nNZla4TWTTQc2oLjUNKFXtDVSQ541Oq/PNVe6vTWuZZ01A68INWk1bjX0CMM1mmu6NcfytTWDWoA1\r\nDSuTNYj2OTW1uHU13CmkNbtLLjWswTk1+ODtNWPJHDXuR6g1Ps7WNWrzTTV6LZU1Yck5NRoFPzVb\r\nR6o1csyLNUP5sDVgsVE1HBmCNfSJqjUlRAY1Gr3qNdninjXFrns1XEGXNWYIGDVKMhE1r+90NZGY\r\nbzV6w+o1vl0hNVX2kTU0HF01PP/ZNVuENTWDVyQ2WtcfNWP9mTXchUw181u3NPYqGzVwUY41122E\r\nNVlDVDW2Cxg1Pg+sNeRumDX69FQ1kh5JNSynajWKVj819CPuNZUXgzXljRM1AEBSNQ==",
                            "noiseTrainingType" : "default"
                          }
                        }
                    ],
                    "start" : 15520,
                    "duration" : 1105,
                    "mediaStart" : 19,
                    "mediaDuration" : 1105,
                    "scalar" : 1,
                    "metadata" : {
                      "WinSubProjectDisplayName" : "",
                      "clipSpeedAttribute" : false
                    },
                    "animationTracks" : {

                    }
                  },
                  {
                    "id" : 103,
                    "_type" : "AMFile",
                    "src" : 18,
                    "trackNumber" : 1,
                    "attributes" : {
                      "ident" : "Aufn. 07-11-19_039",
                      "sampleRate" : 44100,
                      "bitDepth" : 16,
                      "gain" : 0.937754446796636,
                      "mixToMono" : true
                    },
                      "channelNumber" : "0,1",
                    "effects" : [
                        {
                          "effectName" : "NoiseReduction",
                          "category" : "categoryAudioEffects",
                          "parameters" : {
                            "denoiserAmount" : 20.0,
                            "denoiserThreshold" : 0.0,
                            "noiseProfile" : "wtmhP5+/ID40VWY+I20MPZT46TuXxxA8VXGdPLwAkjsej/k7aE1KO5MfCTtLe8E7yqnrOj9/rTo9\r\nGKs6aFttOrrk7DrIWt86uU3hOsW5Gzt9h6A6ih0TOmHPijq3NoA61wxJOtIiGjrktVE66AhpOsXY\r\neDqGcI05fuijOTOJ5jqlyk06DrPlObNQ/zkF5EQ63uohOlQAGToCUDg68KweOhTdJDoajPM56Qrx\r\nOWR62znim1E6vEiCOSr9WTomLVg5JqNpOeCMTDnRYYI5HdE8OYxKTjmL1+w4oh/mOPWgKDkARyA6\r\nbdR6Odgz1TkgSKQ5bdy6OfnamTkN+QY6AGgZO+r4QTumXCE75gNKO1N0ITsQi4w6KSs2OkoPrznc\r\ncx865DeZOgquEjoLjwE6ACEzOhE9UzpfXAQ6UbcFOagYTzkhEZI55M/eOcCYmzm160U5DBzqON4m\r\n7ziA7gY5lfu2OH4chjni83g5WEQFORBbAjnkWAk5NTMlOVBU6jj1PdI4ox0BOf2JbTkaYD45wdQE\r\nOYgkATmQO085wkkaOSJanTjG4Zg4S5m6ONBIyzj1jkw4SqyLONC3cjgNCZs41g2nOBlVcTgijHw5\r\nWHnfOGbaaTiLIoA4UY6TOPzxmzjHucQ4GTl5OEXq2jj4lrE4sNbFOI483jjzhbI43MPFOEp9wziK\r\nGhs5Mn7WODXIxziv7784gupnOPlOYTnjzgY5xlxNOdb0HDnpPSc5tnQ4OXeQoTi0PgQ5/pZWOHPX\r\nIzkocR85e1SLOUzPEznrrSg5fw3pOBPHgTfJJ6I4GB2EOOmx1Dgymn43lIJROB0svjh1Uxg456wv\r\nOLRKhTeRzC44gBPxN+HfgjfW1zw4sx8EOGgHYDeOxZA3/DigN8N9hjeMROM3HOmfN02gdDfs1Ik3\r\nVOtiN9F/HTflp+s3VIeaNyhg1DeD1JA30NXoNxCaazfXjz83r9oYOLuUOjd9Ps83vi/lNyrc3zcr\r\nCpQ3Sj9fNyxNkDeQimQ3m/j8N7OjNDci3+Y3YVJ3N/QPOTf4cRU3QylnN6QxETf4pqU39y8gN2sV\r\n4zbgGf43u5O9N6mPkTfm71E35FE5N6wzPze8ZRs3oXLVNuhD+zZJB0M3oAr0NoNZgTfoFgs3i9iw\r\nNhKVoTfDEm03MZ7DNrdt6jZkQ3M3RXMDNxzLCTeRSRY33KgVN9HIHTcQO4A2vOEaN/e1LTdF7682\r\npk1KNxhK7Ta+aUY3ShLrNpSC6za6tgo3BHElN811RDdyphM3B2opN7q/AzdeB7I23GpEN63JETei\r\naS43btjtNn9Q0zYWYMw2RvUNN6uzADf6Sr82AvI4N54FhTeRnsQ2UkHTNol3nTbnd/42DP3cNg/f\r\n4ja+WMI2RI0IN2rgnTY6BOQ2TtOjNgq3fjYw3902pLegN5O9Wjby9bQ2FODrNnh5+zawXak2bYag\r\nNhoCXzce62Q3uqHLNuiBgzfNA5Y20tWON7CRPTixc5g3xcXsN6b50zZi4mc36lLUNyKHEThral03\r\njiAhODnRGTfnxA837Ye8N+1DmDfoVhc4P/0kOI0C4Tc2v7A3ixu9Nl4nDji7pAs3OiksN2VDMjd7\r\ncHk3DdGeNqJvuTZ21Ic3ZOqFN/5PTjcr0wo33KLtNgfWJjcUcFE2SFx8Nji36TaN0o02QgeONl4f\r\n1zbIA/Y2bAJjN1D8Sze0QjU3f/gRN5iY8DZa9k03SVCxNvVTGDdcnos2djLkNh2JBThGOpw3w/AG\r\nN1m2tDajvx03mKLoNmcJCDc8RUs3LqalNpaA/zb+OB03aK8RN2ZUszZbG8Q2iLi/Nie2qTaQ/No3\r\nkPq2Nl7OBTcCVqE3lKjDNioPTjePZYo2POlWN1zpozYbv4A2NLOgN04RLThNxAU3w4TCN+2ykTid\r\nKns3s5ApNurXMjepmh04jlWENzmCHjeCol83aD0fN1NUWzZZKns2aa13NrNu9TbRw9s2KyoON7UV\r\nMDdMEcE2G+yINlSAVTag1pg2QGKENhYukzaKZMM2v8qLNio3ljbGeOI2XiyvNl4ijDZFiFo2oGI/\r\nNmwITDaSXJo2EoUFN/1mLTZAJ8o2Wh0eNg8agjboDlY2dtAjNn7VDzbE35M2zC5SNqEzUjZCHH42\r\n8BoWNq8S8zUpcLs2AzBoNvRVwjXfsR42VK9INswMbjZxaPs18A8/NvunlDYDoKc2EZuJNqL8aTZ0\r\nFHw2Ze9VNoo2GzY4UQ42sp+DNt4gbTYV+302uiOpNoG3sDZghZM2RIEKNrKdojbwPxk2bP9kNjBa\r\nlTZcM1U2I9AZNvfGOja+cIA1FvlLNjKWUjZc9T42XPtWNnw/Pjby6QA22PnrNflMVDZd6Zg2qo0u\r\nNjmHdzZRqRg2gA1bNkTBbDaVMaE25WvnNXayEjbyR5A2qLCwNii/5zXx2J42p+SSNraxWzYIy5I2\r\nwikuNickLjYI7ac2wpKENhQKRzZkIJk2vrmJNTaSmzb0wjI2KO70NrQEfjacVoo2PW7YNpz3/TVi\r\naL41L6JSNv8YAjaAJhE2UP9FNviZLza5dUE2fPleNsRATDZ4M3w28M2FNozZxjWc9V428r0/NpXK\r\nzjaf65g1H/qeNmQXqTVpq2o11jC+NRbMQjaZROU1smpkNvbDHTYtAoI2IrLJNrXxczaTB8o3Lo5p\r\nN9DHIjcXz143qZdxNsLOIjfO4Rk3NQ3oNgdlLDaWKUI2T9y3Ndx78zbFCo82PDggN7YofjYAQFA2\r\nzqkTN/YuFTcOlM029CohN9/CtjbfOLI2fwSqNvTKDDaVxuA14OpWNmYXxjaylVw2ICDXNvxGkzZV\r\n0YM2oZr7NY9v8jZYThc2HFQ+NsH0xzWxAb42TSdUNoB6DzZy+kU2eWuaNi7WnjYYNpk2TTYONpBL\r\nqDUEMBE2fvJfNhntOTZEW7Y1ZwalNeAcuDV7g8E1dlfVNcAjEje+Vdo27vGlNkDYlja5lHk28cJU\r\nN9CgAjcd5Dw28tq2NiTxSzcZCB43Gu/XNrGCxDbntIk2fRzfNo4XQDfV7Yc242FoNqxWkTZd0zI2\r\nBLZVNnrJZza1cd42bdCKNh+Z/jYcbw03V7JKN1UKkjXu3JE1my8ZNcxFWzXoljM1oRebNZNPoDVP\r\n/FI1hdJKNSgeuDWhDYc1Rgh6NWhgFDVOtGo1GkEYNTs1cTViPl41PYeWNdvtDzWQrfY1kS0KNfbj\r\nwjUFxxY1wCtrNU4+7jSIvxU1imggNXKQnTUgJtc0MFMfNQsjBjVINnw1QLZdNTj+bDUzTQk1kJ2R\r\nNYLS4jSYsvs0NLw+NaZGmDUcOGY1V4hmNUfEMTWL7gc130MgNSY0XzXv4lA1JGqQNQnO/DTIEDQ1\r\nPAoLNezpITWkoy41DNw8Nam//DRGICY1/6VBNTysPjWRGpI0CYEgNdroETVQxcQ1SbMnNfSyWTbM\r\nsYk1QuQzNkSb6zYiLZA2cv8ANnnnATek6OY2AI2GNhixoTZN+ww2TpkiNnqpaDYCKTE2h5JtNhRU\r\ngjZsltk1GguJNiQpKTYlNNw1X715NgODXTZ8Fg02xm0ANptqlTbjhks2Jq+pNQ/vGTZ1fqU1Rpum\r\nNVMy+zUa1Qo3RNTwNeRCczabmO02rvcWN5Z0vzbcg6s25UUBN8ISJTevjbw2FnTVNmkK8Da2yRo3\r\nShrWNj5sjzYWQdA2JlulNgzXOjeeJvU2LGcUN7IC3jbd57E2mD/VNnJNATeT9Qo3K13oNkV6CDfT\r\nKQM39vESNz43vDYUZtA2AnAUN4Yq2DbnhWc3kvmzNy9XCzgeQR04A5+aOLOJNjg6LKo4zGmlOLk+\r\nwDd0BGY36gkON0FmLDc4fKA4ItQ4OK/NFjeKCZs3Bd/9OP4UTDnBAvg46lVEOZ+8Czm+f+c3XnTr\r\nN/U5CTgnTqI3jTQ7NQqnlzeZErE3D9uZNwt8Dzgwu9k4ajetOKUfCDU2f/s1vr8iNmX7MDb1kvY2\r\n+6kiN6/v3jVcM042PAgcN1l8vDbg3eg1jNWVNtTrXjZu7xU23smANjJS7Da0dnc2FMehNabQqTZ4\r\nHFM2luqONsbpRDYbhYk276TnNkGbFDYojN01GRu7NSSLhTUVK002bWBXNZpjvTUH5O012yEpNjAg\r\nqjY7qvg2bI6ONQAywDV/a7U29atuNsEWZTazCKo2uuhGN2ihLzeOe4A3/GjRN9paGTen24Q13M+X\r\nNkxLbjZaBCE1t+ZnNcWQEzcebik2k/GGNd9HqjVf2UU2xYu6Nez31jVUaLE2cB+kNumCqzZVOu40\r\nCZOiNkWqkTb3+ZQ1BXCTNYp20jUNpYY1kJaANh9H3jV+kYI1DvuLNpXEDjbE07E1nkKGNn1D4TSK\r\nQn82eQyhNrRRgjW2dDc12pXyNYN/ETaKaxI2CHdJNlzxRDUIgzk1hGfPNvy6MDdfcRQ3IHJuNxd5\r\nhjdKxTw3hxjGNf3VvjW0T3A1PY/JNdtdvTZ2v7E2FFK7NrtzTzbTw101ZC/jNrdVLjeoPWM3ad37\r\nNkS1iTdK3qg3bLQbN4TjdTeA4jw3jGmFNcTH+zZwOSU3W9dGN+Q0ljf1WvI20JmvNgWjGzfm2702\r\n65NqNqNzwDbrLzg2vLqqNnI1lzZ/43w2WJEFN2QZ+zYbcM82UMA3Ntba8zS5Um81lPFZNcn0JTX6\r\ny+A0t/hvNblOIzXj/RE1OW7eNKB4jDXUv/w0w1v/NNpJFDVD0W81slEbNXBxLTXCaYQ0vUkjNYB5\r\nCzWvVQY1dKk7NQiIWjUXajk1wFDKNFvmAjV3Q1U1WwAKNTtVBDXIjG41B9abNWscFDXw9II1d5cC\r\nNSHnojXfOA41tGoYNa0S+zSKEX81UaC9NC79QzVMDNg0hLZXNbRWLTUKOrc1vPTNNE57izXiWds0\r\nyykfNY4VBDXRy0Y1YTA0NXn8iTXrrN006YYnNYBbzTSVLuA0JOr9NICSrTWKgeA0DPEKNbxGEjUA\r\n1wQ1AJQpNZqIzzTw0JY1VRYjNTxGMDXM6ls1p1wHNTfDdDXseko1PxQVNQTW4jS2cDg1OWkKNYXS\r\nhzQEIwE1EhERNV+m8zRgWSE1oOXFNK8UoTWpfxQ1uK1MNYxN3jRC/xw1wk7TNMlQITXBDTA1GPsh\r\nNS99JzVDGSs1pOQfNacK6TQDuvc0F0VJNX5JGTVuD+I0aB7qNOlbUTXm9iI1K5YDNSx8/zS8FTw1\r\nxQaLNQwVzTQA5JQ0YMB+NWebAzWCtsE0yiZJNRU48zQc5yk1bjHNNF5OADVGJOc0IEKCNJtAQTXX\r\nrxU1YUMiNRlBTzUe8gk1BHrcNMaKDDW0W001I0TBNUBzCjUP7Dw1ltU6Nd6KbDU21pc0nPoFNZSI\r\n6DSpOng14oz9NFyx8zQA3EE1VeKBNbIG9DQk6x810kxGNc2GPTVOsDY13RUsNdR/ATVwNqA18xK/\r\nNDQXPTWB6CQ1EtwwNUaIVDWoFJU1LBf0NPNrKzVyluo0CugmNYd2zTTon9E0kt3MNAAAKTV54ic8\r\n2wGBOrNp4jo1wUw6SXQPO646hzqxhxI7p4tDOrUzjTqYKbc6WWG+Oui3BTpE9bM6h4GROnfSrjpd\r\ntG06tVCJOjjmJzv4qbg6XEG1Os2itTqHh8o6vGLJOnPmPzq6rmM6IbEYO6ZpbTr4V7E6Czx8OluT\r\nOzoC02I6phKGOq6rlDq2EuM6xvKhOvN34DrYQac6I4qNOvBkwTpyEoE63guQOqxtTDpgWUs68HiZ\r\nOikSOzrC74s62F9IOhdGiDoAeps6HgeEOqbDeTpOsps6ProaOsJ+1Tq8ock63214OqhGRDqhEVA6\r\n36oROwJtMDpBwYc6AvaxOqrTPDq3UMg6Ol2nOguEgjqMs5M6tjseOxainjriOWw6uLsnOs//ZTr4\r\nITg6QfTiOhg1MjreHE06B9tyOmMFyDqHrAM7alC5Om2ZsDpDGhI6nAWgOrX3ejpNGps6GjBqOmfN\r\nkjpVEoE6Ato+Ov13kjomLYg6Zm1VOmTnyjpfzoA6noU5OlAEUjqj0q06RNSrOjveHzoJYa462CRK\r\nOvz6pjpqqt05qdepOrRfmjrElig6mdJ3Ol3t7DrCvaQ6O5GKOvLwijqisoM6AuxrOr8rizo9lNM6\r\njOmBOux4ODpZo5Q6MAWAOpp/RDqFRzw6+iOiOpcNBzvKIJM6Gx2dOhLLdToDkaQ6ucOUOhorWjpr\r\nlEM6lICFOjocbTriavY6Z6p3Opc5uDoJTWQ6s/vTOrgqYjryNC06YPrTOvsZhzpih0c6pCoGOpL1\r\nSTpOOFA6X4meOod9wzrRRaQ63acYOnRKhDq22kg6euaQOj5UkTqOHA46QuCuOp8QgTrw5s46gjWS\r\nOighXzq3hSQ6GR4wOqjDLjrYf886M84dO+h/dTpDgFw64ailOpzBTDqCCno65I9kOmyoIjq9gJs6\r\n9jg6OgwErzo63CU6kah6Or/KhTp49KE6PACOOhLTXjqBUMg6Ju6uOkaxRTrv/0c6ugWROlYMjjrz\r\nY4E6hLVpOgDhYjpR72c6ugXJOVfHVzq0bc86L4oQOhQoZzpbTCI6QG5ZOoNiljrqL2Q6/CKKOgaI\r\npzregZo6k7a4OtGKsjpul1I6gR8gOqJ0jzpSoDY6jSaDOmNQozrrkY86nnk7OtWDdjo60rU65xJZ\r\nOkjnOzp98Vg63VymOk9gnjpjCM86I8qMOooFTjqTc6s6MpitOrJzSjocxZE6V5mHOgOTlzrBQhE6\r\nD4eGOg/+RDqIAYw6dk6FOvhEDTqgxmE6+FSNOvkZGDq1Q5s6vpYyOhybojrLI5Y6fj6iOiUbpToI\r\nEoY6dzHHOpilSTr/NaY6jzDHOgY/DzrU5+c6NqU4OlrMkzoIdDY6Fc1JO0v2mDoeXzw6eMx7OqP5\r\nCzrsFGg6FudzOmaPqjonhHs6xJU7OlWnaTrIK5k6BpBFOu/bgzrSEx86h/SYOlChgTquaMI6j22I\r\nOvZ4cjoy9Ak7IsFgOo3XDDoky4Y6FC2YOkUotDlVbS463hZwOm44EDv2r3g6138MOvjPiTrzfzE6\r\nK7WcOtw1XDpoUg06/v3xOha/KTp5N446/S2DOrB1mTovTYE6ungDOr1iHTr8tMU6hxLLOvk7lTrK\r\nK6A6xTabOkEIhTqqLqQ6LTqtOtPPyDobH7g6wSMzOuygBjveCqs6gkeIOhchgjoM24Q6ProZOtSI\r\n5jmyHeo62HkGOupCnTqlOV86gFWQOh3AFTocMqk6gaiQOo8BfjqqB2U6VR2OOiDFDDpINRs6RT9d\r\nOsPTgDrtqzI6CPlSOjWIZzqknQA7uhODOm0AgTozByY6fj2ROlZChzr+0YA6oH5+OrGdWjqDOoE6\r\nKzdGOh1oajr7NDQ63u+IOhfRxzpKES86MG/wOWIinDo6Wks64u42OlmnxDq4DMA6zrihOvT4wDp3\r\nk5U6suSiOnzJbDpUjUA6tgjtOrBQtTquaYo6x3OuOqawSjrwUD86pa0uOu6CMTqnwpg6kwp8Ou7/\r\nRjpPZIU6rrUyOsCIezriwrM6/QOSOhggNzqWx786vBObOg7PGjq3rcA6EvxWOlgLYjpUSS86CQhc\r\nOmMZVDpymxc6uqq6OocwIDpR1hI6ORiEOkzglTrPDJI6Ft0tOjMvxjpZQEw6aHXpOSyb+Dp7yGU6\r\nD84EO9lWWzo2r4861qZSOiI2XzqgRJg6yvqVOqN5qjoq56Y6BcogOuU+mDp/R1g6dXF6OiD/+Tp9\r\nqo869fWLOtwRWDpnAoY6xFVPOgSsbTrUB2w609uxOg67gToJ/Tw6sFxVOl7ekDrInWA6UkT2Orzv\r\nVDrJwHY6X6S3OqYOdDqg9qQ6ZRlnOni6CDon4po6fROkOgxeOjoxsx86btcoOhykhzrOXlI6Fjlp\r\nOloHkDoZYoU6AEF3Oi8VnjooFkE6DrRBOpcKLTo3B8E6aVOrOjIoFToJlIg636C3Oqxxqzr0b6k6\r\nx98AO0ieBjvwbrk6RE7COhXkETsi0gk7JcMwOgOuCzrvuus6DgK8OtdvQzroU4M6JgdBOkxrRjoj\r\n3Y860UrKOrpYGDqcswc6OFxrOv7VpTrAakc6CJ3qOc+pfzp2UNI6Gh93OrIfvTmvsHQ62RBDOtR3\r\nwDpWn6U62GmjOqWyUDq+4s06uSR2Oj4VeTp1Loc6eB3AOomekjrTGfc6P+WaOpaFVTo6Jn06cFxK\r\nOmkaLzr9PYo6Bil2Osxpazqvmus6vcsPOpnMbTo2XEw6onuHOpc8BjpTkTg6nondOtCkxTpX3jg6\r\noi6pOsIbYDqwrHw6DaKFOsDNGDqcrow6ESGiOmBNjjoiiMI6FFxGOpv5wjok+9w5MFSEOqmSkDrp\r\niAw6rEWAOm9o6joVw0Q6Z/R/OiNmcDrzRZo6uEQrOmg7hzoWBEU6CKWOOpBpUjq4FUE6bLNBOjXd\r\n/znT4TQ6QsZpOo5SVDqLbXw66r1fOrhgfTpIhmc6xNx8OmyytjknIg06/u1oOlJpPDoJPgU65lNA\r\nOi01oTqIHfM5WOqcOk9SmjqKuTs6LouMOhdFkTpIwK065q9LOpbQTDr7zwU661gqOkgzQDoC17o6\r\noQjgOkIvQjqBGZ063I6QOl2WUDoVHgs6MlBJOrwBMTrgDWs6GCXsOmp1EjrpDt45cjmnOm0nvjrR\r\nZ0w6FRqMOm2+kDqZDj068p7COiqVWTqck386LqGROgzE7jpeUrI5wPiUOq1chzqkUC06DCAgOvXs\r\nNzqLo1g6jyE0Or1FTzqsDlo6CcNhOiO8izqKpTk6BvgAO+QFNTryCtk6oPN/OptYvzoCHC46lv5t\r\nOuq3rjr2Teo5nP+1OkbVXDpEZ4w63kiPOhoyZTqK+p86BbSKOmZIbzorsQU7sES3OlbaWDq2c5Q6\r\nrtN0OvBivDofjLU611+HOqLpITpr9QQ6/bckOlASPDoBFoE6YEQMO2VoiDoTdw06Rh0VOnly9jlt\r\nt7s5DDblOfP2rDpRBWU6y7D3OfsLQjoFaZA6W7NTOiUWUzqEf1E6vvt3OnfcjzoQ7IY6NMqdOkVU\r\ndDpMQoI6yJnzOcb5PDp5Qkc6KOlFOlEXgDqWcqM6uQyWOk3TqzojBz46nM0aO5uMPTq4NAs71H4Y\r\nOvwrqToAsVE6miqaOt14FjqV/OM5nq+bOsW5lzpiu1I6VNC1OeJNaDplO4E6Sd+rOl7qHjo/W2M5\r\nPf2mOv0bXjrIsVs6gYbFOi8ZQTpLTro6D5CUOhYXZDoUcIs6ix8nOo7OfTqbsRs65PH1OudRXDqc\r\nTIM6zP9DOnkWbjoTfTY6eGMWOnqt1jnuzXI4/b0DOPDJzzceMIs4ZpsyOLo/vDjKjLQ4OVzANxpP\r\nbDcWPA830V94NxIFwzjD1GI48oOYN0gqkDfQViY5+yRgOamX+ThExFE55p7kOPog5DenL7s3WzYd\r\nODjimjeq1cI2kl47NzPb2Te7hoM3iAAQOESzFjmDLtc4uMO5NeahFjf7cjc4TiifOUyaUjlauSc5\r\nS5nvOI4W+TgcSmA5GUiNOVvk5Tmmtjg67AAQOvoYgzgSmyQ4SLmpOKwJ1TgpfFY5PoBuOZjMXDjC\r\nbvs3Auc2OZgl9DgaBcI4s2POOJFvvDjey6E5qruhOcwtvzhjT4s4UNqBNuY1FDru1Bg6fP4BOUyK\r\nvjgWcZE4NB+IOVhC4TmGTKA5NfvuOC1frzknLds5BdoiOVZP0zn/x8Y5SYAMOlJj0DmeEgo4k4NP\r\nOJXCATn2KAc5IBwkOUUoCzhaFBA5xN/YOUMauTk03Ys5iuLBOEwHATkDzeQ4P/qfOaVkjDhwUPc4\r\nZxnKOWqWITmu6zg51caPOFu1BDhlQ+A4/cXGOHJdrzhwe6A5nZEcOVUo6DeWHss3Oa9AOB2EmjnM\r\n9Y85izjLOHQQkjmcE3A5dcEEODh5BThgnb45wtiFORD3uzi0BnM5S75GOXtWgTku4006PIpgOtYq\r\n2Dk3JnA5Xr6jOdbsojjLm6k4BGVCOQ4rSTmSrIU4ljKWOPIRTjnUarg5OsuoOVq8eDmqhAU6nhwp\r\nOpa7/jmj63c5UkYVOYF8lznijCw5yK5COUaDSzlFaG46QAykOnS+uDkIxW45EHSrOazKbjnOHnM5\r\nd1YoOf6bNTnwbvk4YeCEOM/SBTiYLl0582yyOfJv6Tj1og84oPOiNShOKTWnXbw10Mb7NC7oIzUO\r\nkoY1eEEoNer2RDVmY1815Q4ZNT2GRTUyIaE12qlYNdd+0DQAr1I1fDatNR47RzXCI141izkLNWro\r\ndjVtwCM1v+r7NGhQmzRTJGY1Mc5MNTatHDWZ+kU1eRELNf+noTTYkxg1caNCNXfnmDVa9rk1PuAP\r\nNUJ/SjVpcQc1SAMBNaj9HTWJWzg12qfmNCbIhjTg8JY12qV4NXY1LTWZ9640k4tSNXbcSzVAQB41\r\n4izoNPYxDjVc6Rc1iuAzNS/blTWcHkY1lkGlNR6UCzXV2E81k0RONdJJBzU0I381cbLgNFYhMTUY\r\nJh81pPcXNeU42zQUQos1evw3Nb0vfTVQGhw1TTwJNUuNKTVS9Gs1dv4LNXB8+DSq3DI1/YYMNXEx\r\nRzUgMPI0ZlIBNWTkIDXnZjg1WHFKNXRWjzTsfPI0CbHtNC9UhTVZ1DY1Nr8WNRQ5IzXpmJA0HfAb\r\nNXkODDVe1Ao1WjBDNZVsJDXeKPI0VHiCNLfUDjWvleU1spKYNQfOADVQxAo1NJ4iNeiBJjUzWyg1\r\nfHlONV1EDDUJdHw1cjkUNUpQQjV06cQ0eJu2NNoiHTXa/Sw1nwE0NYfYJTUm7iY1vKLsNKim4zQ8\r\nRoo1kkm8NK2TtTQqoOs0Ao3SNIkQQjVDvf40vl7uNMC65TQMDIU1NL4nNU6AAzVw5/c0BoQ7NQ/X\r\n1DTNna40rrncNDjHSTVxjO40FyXqNG2GNTUH+Q41MHO3NC45HjWv8iU1k+fKNG2SWDXoyEA1cR3v\r\nNLht4zSpVRs1ujLmNBpFhzUTUJI06aQxNUoGwjS20g41+XQKNS3mdTXnTBA1AAAQNQ==",
                            "noiseTrainingType" : "default"
                          }
                        }
                    ],
                    "start" : 16625,
                    "duration" : 1016,
                    "mediaStart" : 26,
                    "mediaDuration" : 1016,
                    "scalar" : 1,
                    "metadata" : {
                      "WinSubProjectDisplayName" : "",
                      "clipSpeedAttribute" : false
                    },
                    "animationTracks" : {

                    }
                  },
                  {
                    "id" : 104,
                    "_type" : "AMFile",
                    "src" : 19,
                    "trackNumber" : 1,
                    "attributes" : {
                      "ident" : "Aufn. 07-11-19_040",
                      "sampleRate" : 44100,
                      "bitDepth" : 16,
                      "gain" : 1.0,
                      "mixToMono" : true
                    },
                      "channelNumber" : "0,1",
                    "effects" : [
                        {
                          "effectName" : "NoiseReduction",
                          "category" : "categoryAudioEffects",
                          "parameters" : {
                            "denoiserAmount" : 20.0,
                            "denoiserThreshold" : 0.0,
                            "noiseProfile" : "1WWbQOH/4T88JRI/xSzLPQDaPD0QshY9afD8PD6QNTxOnwQ8+BzfO8xQ/jtDXxg85sZSPM42jzuP\r\ndvU7AKoWPFAlfzug6UA7TSymO76HgTsZPNo6b4hKOyQcgzr+JhA7ecKyO8vdrDox9Zs6oc6TOj6y\r\nDDpp9Hc5nvQnOmmXhTo4cl86QKtQOnUICToZo6k5jGlXOtktZzqrzS866tVPOhnGgDmqmKE6Dwe8\r\nOcNtujnOMOI5bkCyOY4pGzrJmMY5BAUFOs1F0DlkytY5+pwXOu94wDmR1gs6YTUEOkhQRjrQnSs6\r\n7lRXOuxIbjpz2M05JgRCOggkjjkySMA5DuCfOnhSEDphSLE52FgxOq7GrTqvxBE6GDiuOUw5vjoV\r\nh4I6lM4QOiA5OTpauT07AuAxOQ4phDmRsbg5XhRmOWcLBjp/jcU5W2YLOicwszlPqSQ5K2/PORCD\r\nwjkIHEU5WEukOUfrwjgAhd057IZMORPhgznElCQ6fv5mOeUo5TgsFFw4aS1tOWMYITnkrJI5Xp2U\r\nOYrdqDhEqIg5YSlGOSDKGDn1ogQ5BAhQOWRkJjno5M045kNtOZPUDTlqVo84uWbbOHBSEzkwgcM4\r\nb6GnOalYkTjlxOk4jrL4OLkeLzngNAc5LJ8DOYhjZDgAKOQ5KiusOPl5XTmF3tY4endaOcvnkDlV\r\nnu44zGBJOKwGGTl8xKo4RgRoOLqyvTh1dwU4jugGOY74bzgNAsU47Oq6Obyhjzjm8IU4K0GQOOQC\r\nSDgXkLg4HxqYOPi2fDjBMwc4IDL8OASXQDiiSkg49uAROQ0CmTguShQ4e00+OM9uVDhiXEY4cK2K\r\nOMbzGjhx2Ys4zTRdN+x2YDi8aFs4iFYcODrS6jewERo4PeUlOPPOQzij9sA3UX+yOPxuhDjrfHw4\r\nsJQMOLZtoDgLKzk44tv3N3w21TeGOBs46h4VON223zcaSxQ4x5OWODTeDjgj9rM3v+IpOJkZrTcQ\r\nuqc35gcQOBvFJjie9TM4hrhvN2E/ijfw4gs4spmDN5zaFDivzUU4s3PsNzJmLTgTUb04ysoAOPAZ\r\nfjgH0Po3CFh3N6MnAjiIjhw4R0R3OD2UZjePqrQ3AoseOC3HSzg+Ml84vjdwOC5NXjivCJQ3Ivzc\r\nNzvP8jg6SA04tCciN60nKjj9mM43woi/N9YDczeRKag3g9y6N40+mzdK6p03cvlnNwpsSTcj+QA3\r\n250XNzbs2jc03bo3HaI6N/umSTe/9cU3hlsxN8V+ljcUpl833IkxN5zlSjdv0G83lsk/N8msJzdg\r\nzLU3UtO3N8Qy9zewh7w3/zJeNwbmgzd5NZ03mRR/N1rZ7Ta513A3hrOpNwBoDDdRv4w35rSNN73k\r\nwDcAeGc3tptLN5RmQDdxaAM4Ch2MN3L2Jzf+4O428i/fN0CuazfpnGc3RPlfN6ER0jfrZIM3O6/N\r\nN7dPkjf6Kvc3l8KtN21SCThRaO83ZuK6N6u2CDctK4E3QlnuNypg5DeOy+83g92XNyjohDecrig3\r\nHPFbNwieLDeL9hA3JbSWN4Bh+TfCtq83SOr7NifpXjf2aB43pyLYN3T5QTfabh83rGqxNgGcMDcJ\r\n24c3hWOWN+fQRjdpevk3n0A5Nx5nNDfIJnE3CsEHN3x3wzfamIM3dm2+NxC1qDcQcCY3T1R+N3xC\r\nDTf0BZ83snV8N71MhTesjZA3SnUoN3kG2zZEHRs3e5t3NyjnZTfdrQ031bLsNp53TTeBKrY3wWwI\r\nNzrcljcWKIU3Z3BbN7IeWTdDx1A3TtORN36KPTeKBCc3uPCZN2g9vTZkRrQ2R9ohN3e8TTcqrCA3\r\nWvxnN5elDzfCJ9U3Jsf4Nlf4gDftNx032RQ9NzmavjYGHmw3mzwpN8NL9jYKCaw2p2JlN4SsOzdH\r\nICg3VLRfNwG0kTcPdR837LJJN26ZWze6eZ02CCQJN2DRLTe2Ds82QDSFN0pdsTaVxnI3uHAZN+1s\r\nMTemdnc2gBPANq+57zb6pVk2Zl0yN2GCjzerAPw2m94ANw+XiDfVRwQ3PJDUNuhy6jauHtY2r0GS\r\nNvTG9DYxee02BmH0Nn8IgzafzFA3XopsN9O67jbEQII3mTHZNv4dAzeWeoM2zJ7NNjaWyzZKUys3\r\nqFvwNmsGIjel0bE20VzvNvSF+jYN9PM2eR3NNoItDzceobI2FlAiN8S6eDcB87o2z6G7Nl/6ajeg\r\nClQ3FR+vNmw/sjYcmBQ37nijNidPmDaPDh0310QPN5z9aDdmraE27JwBNxwQNzciHmQ2rPzHNncF\r\nBTexbOU2qY5lNvIcODdS3SA3rzIXNwekNDfMews3rjLONgJ0yjbI58A2nseMNv4ZpjYry202CTC4\r\nNplxiTa62WE3ZbebNgsUNDag4Zc2wlhcNtRlCDeuUJw2AKayNnw0iTaaxo02aYhBN43bhjY5zFU2\r\n4BrwNkB2eDas27s20p6rNskWzzYRnBw2woy/NtsVdTaBvoA2jIW6Np7VtzaYJfA2dGdwNiEKyjaE\r\n+N02zmTxNsiRiDYO6zA2XGpGNqfVAzeLXgY3PlHiNlaktDagXAw3yMtZNoX1ezbBh7k2rJBxNsDX\r\nuzYJ5lI2P+OpNq4ziTaeGpA2KDRKNlXqgzaaBkk222iBNh/YiDaWytc2gmmbNjjC6TZqeXY2VtoC\r\nN9uUoDZwPLI2UYhdNqbXmzb655c2mLPaNg5pgjYzLFE2+n97Nil5izb+7iY2VGCONij/XTYAEMk2\r\nx6xuNr4gszYXafE2lxAHNz/ZjjbTWQI3vVWaNm5v6TYqUAY3xlYbN+l+IDcDTi83XYqtNkFVuDa2\r\n50A2l4pZN8TtfDYyjns2U5VFNuF/WzbGUHQ2C5FwNqoNhjYVPaI2JYoENi2M6TZSfs42yEfUNaBc\r\nGjfqzYQ2PY+KNkBjazYPcQU2F/I0NuUxETbYn/42Mjg8NqoSPjYIX442eXmCNkY7QDbASDc2335p\r\nNluWhDbMWA02TNBiNnJXLjZYrBo2upaANjY5tzZeTXY295o7Ns6oZjawbQo2QIo1NtjPbjbGJX42\r\nKqJONmrkgzYw1E02zgg8NoYPPjYyAyc2wPSKNuE2eTaA3ZU2MqY0NmSZmjbAQyo29MZNN1HDyzYV\r\nz5Y2mpkRNjKwpDZC9a02qHO5NjsfjjZNzqo2AiibNvIecTY4rtU2fIWdNho6YTa6uPM2K4l6NloX\r\ngTcqaos1RwICNh5SGTYLNvo1RdyWNQ+dtjVZKYw2RhABN6KnMzYrR9w2fihDNj4EcjZefrs2P4sV\r\nN1zFeDaHmSM2s6AvNhbJQzYFDlM2kpinNuRdrjVr8zU2E5SJNjboSzZ7cE02oTgZNihtjzaaUHA2\r\nKnpjNvs2LTaI2FU2HiCJNtpQyDY46PI2Z47ENjRUQDbUPZQ2A4l5NtwUXTdYziA2n+83No+rQDbg\r\nKC4285P9NSWGPTaUjSo21e8nNgp1OTbCbFA2UVtzNrgdHjZS/oA2jDZSNkqNEzZEXko2APsjNoow\r\nGzZmoQs2vnx6NsoWBjYzcB822X3INVbXdDYkh5g2F0U4Nlw66jUYmV02Ou4JNoDh/DWXdQA2Sv8Z\r\nNhgekjaEtBo2uU8xNu6fMTZ3gS42gpodNiwmVzY4OMw1fwMHNkmNBjZ62GA23D4FNkbJbDacpQY2\r\npQA4NhstEzZ8SCs2eKwGNnLM7jV+N0Y2CEeWNsVPizXxYgE2YbQTNt38KzbGafc1mlAVNstoyjXu\r\nqzQ2gdIlNl9QAjbg8U02rwN0NpJrxjXWxKs41uxCOSTKSjkoyDc5NrTfOWN8mTkeTvE3rVF3N6RJ\r\nkTdol0g31MAxNnThNzbhDgA4WKxCOJVN7jcc7Ak4mnsAODf24zfSplo4rEMdOICVczdYW7w4Oale\r\nOLZRgDeuOJ83HZ1TOJBHxziNkGE3f8GCN1QQxDeKPAs3/dXwNvuCCzZABS02axEuNvCETzYxTKI2\r\nYbkaN9ciKjeruUk3VCXDNmKFJDZkAas2VPzmNjo9mTbyJYk2c5lhNqaicDZekbU2eH8pNucXkjb1\r\nXgU3HOzhNqt1yDYY+wU3rKsvNv2fXTYcuEY2hjOcNu5PhjZBdXQ2ggQoNukvZjZXICQ2oNQhNgkF\r\nyDV3/082KOcLNka8HTaHuSc2xn4kNmTw0jUwboo2AQppNqIJTTbgwho2fXkYNiz/qjYsxbk2dUiB\r\nNn5NODYDPRo2cg0RNsOPgjYc97g2GfFXNuKjHzZIzxM2s5jlNVDzWDaLegQ36HCqNp1XUTY8RBo2\r\n97vlNdYb3TVzXMY1lWoYNpEjEjYIpyg2kEhwNgvZAzZokRA2gSfKNd0r9jVOCvs1L4wHNrNVTjb6\r\nQZw2y9AHNuDp5zUS/qw1UtTENQSJ4DUWT1c2z6keNuep+zXnnAU2x6AGNp/A/jVDX0c20KH/Ne4X\r\nNjaFMkE2PBHTNXPrEjYggSo2nKiBNT4J4zWCaRw2HAI3Nq03ATYPQ3o2ZHonNpSHBTYYyhM2SNAR\r\nNl1CZDYucSI2BgkmNrJkEzbk2jE2FacJNnDuSTaUkl82mskONk3zCTbFoFA2oSrLNdxx5jXdiK81\r\niNH7NdDLPjZa+8k1EQCMNqTs5zXPoyQ2GMs1NvlVBTbPhRc2fH4GNun40jWwCfA1y+CqNTwayjVH\r\nzDA29qIuNuXW5zUVYUY2qwEKNpRNJTakASE2hYEdNoDzXjZ56vg1Eq7GNe62IzbUBgk2q3oDNgJX\r\nFjaSCuk1aLISNgHoozX7pGQ29f8INsqDNzYs3SU2skxGNlguHTZm8fY1AAqjNXROETYq09w1KhoW\r\nNlMZDDbNDzk20G5yNjqGBza28FE2TQcHNhvifTaBAII2ab8tNlVIYzbi0P01blxmNsZuXTb0USw2\r\nGMQMN84EczZEUfY1DhRPNm5SqDYAgbM2BUIkNjg3fDam6JM2wgkWNt0f/DXqJQU2oDg0Ns6dYzbB\r\nd7Q12CT5NUO0iTZFnts1U+AdNmOfjjWkQwE2v+eVNdDtFzYY/CQ2VbeaNWkKGjZrYwM245m0NeGS\r\nyzU2tu81eFw0Nm7F1TUqcN41fLZZNp7tCjZASEQ2ktr0NSJ4AjZJJHA2TlzZNa3ozjVF3ho2Idsz\r\nNtMy9DXE7RI2J/+fNdr8Fja8KZ01QP3oNVmdIDYB3CA2NULtNW8PwTUeZg82Ea1bNpxu4DXAV8U1\r\n+xEjNtrJaDYqXKo1OJ/3NbzlGjaFfOQ1yubKNQi+OjYVD+k1GFEeNs9YBTacTQ82m64XNutXCjYS\r\nIco1LIkrNrg1sTUD99Y1fpEFNkBmdTXPP/816KobNiwA8DVEj741FZ7TNQiHJzb4tog1WGxSNsxk\r\n8jVW4QM2TlLmNdpFBjbIMvI1q8QwNs4ZRjZP4nA2NUYbNoQr0TV6ScE1YfIaNv96kDUkMpI1/Hbi\r\nNZx0XTZcGEA27lHdNbuCsjWrfv41imgyNSo6BTYvChE2nnzgNbvkBza++gg2CAmuNQCAtDVS+cU8\r\nDKScOmcdozq9dkA6cggIO635qzoMUSI7UDTiOhIhTjo0G0E67na7OpGdYzrB91E6+QasOlqbPTpG\r\n2ls6bv8lOj42xjpF3IE6bfNZOqQ7qTo/OV46HakSOhAjXTrM8ms63RZhOuBjWTpy5Vk6V5gPO+Lq\r\nCTrj1is6GEFROstxAzv5is06IJFCOi3OrjqRMYY6sHE+OrxC0DrBApY6k/eSOr5rHjp5fa46bikA\r\nOozyhTpVAVg6lP+bOnogtzrdUpo6sFunOlSKyzo5Ij46PQYlOodfqDogogQ79f6COiBAijrZ5qM6\r\nbNCSOkrHLDqlMaM63M2wOnDsXzquYjk6M5ACO5JBPjr6MI06hGOpOnK4pzp4WG86mXqKOtGXlzo/\r\nXpw6TmfuOv+ZmzqK5+462CRpOkRxlzpPuac6xNRGOiHASTqRt2Q6FJOkOqcxdDoAO2s6GyynOrTe\r\nNDq/VuM6vHF5OhownDqLs2U63hYuOv9MJDr8Lyg6yu9XOmRnTTrEzig6oMUrOuU4bjrjU406OKQ6\r\nOgSJWTpOrEc6JNJ0OqhLBzq+dQg6ssv+OWLjYjqamm46DTi3OkVjgDqgdJk6KsyCOptGTjqG6/Y6\r\nr/eoOvlphjpM67E6CvjQOt1vWToYxS06vT3gOja7uDqNPgE6knYZO3lhAjqiW5M6BaRbOo3piToJ\r\nyIw6wUwUOqL+Zzp+8aQ602qcOg5p3zlsL106aB1zOvdAmjoTsKs6KKAwOu+4jjpWTCg60ACqOqrz\r\nOjrIZT06V7qjOoR6VDrBznk6xaAQOmxLkDqwLmw6HqF/Oi6CYjoVMTQ6GrMCOq7+aDo8Ymw6sxlq\r\nOimOyjoLZgA7KlE2OvxnIDqKiCk6/CafOrOvcTqYkG46ozCPOvG1jzokzZ86wQPiOlBCljrt8K46\r\nol1tOpkklzrAV5Q60Cx2Oo7cdTqMjtQ6oaExOnigSzpDhrg6uTyKOgx0cTocw3U6d4cIOlg7XjqS\r\nBpI6hUohOgyqbzoJ/qM6toGTOhMtkjroDzs6/aMrOrhPmDrFGqI6ckpvOkJAQDp2O5s6UDBiOvsK\r\nATuC2SM6ZZFQOuvDgjp/dIo6fIpsOiXxZTqucOQ6l+QAO80xBjrAmsA6fi5iOscAgzpDsK062Gtr\r\nOh2fcjqKEpU6oHMNO6agLDr6FaQ64nKoOvQjczop8qM61eLpOl+T/TpeFVg6+vdKOp4UCTvL2Lc6\r\nv61nOmuw/TnVLxI6DSvFOp/m2Dq3OqA6bhNZOup5XTonzX06DusrOtbUhDoCFzg6qI3OOsDI0zro\r\nZGA6bJxbOiWkcjqRRqQ6wCcLOg0DqDrTXio6dpveOsC1GTooAYc6L+9POmxROjp3eIU6UrsVOyaR\r\nkzqs6I86THQbO8g6QTpQTpo6TrgLOqCaTDqeYMk6Toc1Om5pYDoxjmY6vgftOjL0ETuFqDg6rJR6\r\nOhjOPTpE03U618nAOpjSljrL47Q6VlVsOuKeKDppJpQ69k77OsDcbDrPCZo6M1SjOhBI8DqwrIw6\r\n3HSAOnRMijpGbD06PEuVOmnwlzq0QWU6J1CjOlt9eDqRMls6InCiOiL3Yjr0psM6biZHOpwjUzra\r\nG4c6jeQfOrLHhTpmEZE6hrcqOjuCbTr/0cI6BWq0OhxErTruB406jiSbOuY2dTprIbo6+gfkOr4y\r\njTpAuHk6JkqXOoRSMjownsI6IxdVOk3+ozr1r6E6gJgSOi5INTr0j0Q6OhpeOt6g5jl4EmM6dJOw\r\nOiRokTpiZTM6ASVNOpoNlzqeT5U57Sg2OhJEgjqIf5w6z7FuOgYFcDqsHUk6BveEOlwaaDpfTaU6\r\nrj6LOnesqzrJkoA6nPOSOly7NDpRlJ469BfLOXoySToOp2E6q02aOg6dozrjkx46lA1ZOhLD3TpW\r\n4Zc6mXuFOpnX6jqdTY86WJI0Og5E/DlK0Ro6IX0bOgFIgTrBeTw6CFI+Ovi+vTqOpoo6tJtdOrJ7\r\nrTo+u/M5I6iROruH2Tq2yYI6mJGPOnxfrTosfo06vA1hOrSldjozwC46eL+fOhLZuDq9YCw60xOo\r\nOsbmdTpZm7I6VEUeOvURnjqk3jk6uI3gOSYKxDrSIjo67CN4OkYqZzqoV805eb8lOh9QmDpDX0A6\r\nC2HYOmXESjqwt6A6XkOBOtvu0TrcGhY6L2kuOuguaTrBh7g6rGfiOj4iczr+nJU6BhSTOiBgAzsT\r\nYaE6x/RzOgLUozpEUUE6tk0ROjw8RjpGGaI6TvRdOsQwZjqj3DU69BSqOvpCejobtSw6RExpOhZa\r\nEzqsojk66XlCOo0iWzrtCzg6cd7eOj4upjrkTys6PNfhOnJq8TnOd805JG2jOouvVTr7YGE6RLui\r\nOlqkiTppHhA6jKhOOjuXXzpX+006rXZMOur9mDqdv9w6Njf2OTkaVjrsFCw6s77UOvPGmTrAJUg6\r\n+ZrwOli7YDr3Hh86NdwzOoHoJDr5e5w61du2Oit9fDq3MIA6CmX2OrZVeTqIUEE6xzsVO6ZYdDoN\r\nKOY67CY0Om+XNjpt/Xk6+rkGOrM/fTpx6pA6qZjeOhYXsTo2A6s6+UciOrT2/DnjQik6PAxuOgwv\r\nITq7/Gk6Oa6POlOkVjpBA1464zlqOgR2TjoBO0c6/T1eOtV4ijrs9qI6UeGPOhzkWzqZsAw7gVAz\r\nOnelgTrSVhc663pkOkpQVDooRIw66sp6OpVQgDpI4lQ6GRxYOre7pTokJVY6c/E8OkhFjjr21Gk6\r\n+MiMOnTcnTpYnTQ692wqOnw1KTrSjVU6vDShOjcjgjpot5w6LM9NOsAPajrwl4c6BddWOm86OzoF\r\nk5A6ouV9OtUmNjrEgTI6WwO0OlTyODoFuhg6alw+Ov15izpoqDY683ZaOiRZSDpu+ow62jrrOqLt\r\nZDqlwoE6OntCOpQPJDqAe6E63tuZOm0UwDrNkrY6FwP+OezZQDrxdTI64w2EOnLcmTpOniA7cf0q\r\nOgC7lDqX8Kw6jAMfOpLn8zmQeHM619egOh1gPzpof5s6zv6iOibWgDpJdmU6tU6jOrIOHzuzklU6\r\nuu+YOsE8gzq+vZk6SshnOhNW6jqyEBo60FAtOteGoTpwk+c6VipLOlN1Hjqrm7w6te8gOiu/jjpJ\r\nWIo6zApSOg6eYjpfdgA63mqwOiXBRjqUunc6+A9hOtJeEjrE+VM6jVwfOmtfJzpiQxU6OYmLOtlQ\r\ntzqeD3M6sThkOgKORDqGeA860BrAOrcDUDp+EI46B42aOvYNJzp2Doc6zL3DOioACzrcS5c6kC1s\r\nOsY4Lzr6dng6cHSjOln/9zquqkI6qIhROjUdpDpECFg6BBjCOjheqzoBDYo6ePUoOtZH4jnntZY6\r\nh9qgOkIPoDqA/pA6rOldOkAMpToGV4U6XHkwOigUYjpSnBs6rjE4OulGTDok0r06//WIOnMYljoE\r\ndwU6t6mEOqImQjoTV3c6k2NzOq7aajpHLYE6Dqt6Op51DTpYEDk6rnsWOgYnEzqmJ5Q6jhsrOkuV\r\nHTqQVn86vcuaOow2XToLXy07SuJkOp/MSTrvK0o6qA/iOtSpnjq00oI64dCtOvS1ozo0Kms6tPdC\r\nOnKEQjoPiAQ6MJ42OkttLDp2rS06cA+XOkrgjjpGn9464AztOr2wWDq7+zs6GDFsOn6ktDq3/3c6\r\nNhSWOmIIODpOCFE6Gu1NOs5zHDqO4z477m2TOo3RmTqra7U6yjeSOpMcjzouzTQ62I2GOiD/FTqA\r\nJK862mGaOpdQLDpiASI76KA5OtKp0zmaojU5LzJQOQHySzkKmQM6O82iOR7vpTfIDbI3hk+IN7iu\r\nxjdwPl82WCpsNjuzKzguBqk4GXMVOO5UHzisddI3BZUHODO9PDhjY5Q3MqqFN8hdijgcpiQ4fgxP\r\nN1kOizcWhlI4OiqAOE6eTDeTY4U3yrXqN/aitDfyJ283HapROf9EgTmgmcM5mjgXOkQoNTq3Uog5\r\nLnAHOsaySTpr3js6Yu+TOTpRIDqyy2g6iuLgOdLsAjnGA6Y4C+utOC8aVzkESIg4ykB+Oam1ATrg\r\nKZg5LGugOXfCrTkqU8045ipFOZh0ZTnWxAI6s17uOUjCPTlTxDo5EnHcOA3+OzmkSx05Eg+tOcRT\r\nejp8AlQ68StEOfJ/oThnYlY5hjGQOSbtADrwC8s51ErQOJfogzgoLEM4ysD+OEjpyjlAHJk55i1s\r\nOWoGSTnNdAM6pJwXOhl4WjkT2l85LD25OHw9ijieK904dbMFOTrsRzkBX504jLKkOdzzljl5QHA4\r\nOJbbOWoQojlsWaA1NT+lNbkzJDVx+oo1ROZqNZhglzUyZIY1dbYUNfYoBzXocY81PSNZNTzGezUP\r\nEB41c2dXNZADZzVjFkk1qzTENSOrKjV8OZ01JUBGNR4q8DRbJ1I1VD0/NRfPmzVUlZk10jdJNaOe\r\nGTV/hYU1AmmDNbxFCDWf55E1sbfUNTOzQjUYpHU1SrmfNSrMTDVY41M16JZeNf7TxzQetaY1lkv4\r\nNNLmJDVVPsU0HLA6NXotJDVNcXI1uu6CNTgo9TX105I1FKxFNW1SYDWbmvY0m7xwNXZ8HTVCzUo1\r\nsaFoNbRjHTWDLTs1J2YkNX1ZJjaSUDk1QDevNU88MjXw+oY1Y16NNSBkLDXGIIQ1PJ+pNfBYkDWD\r\nGBU14A5iNZ/pEjVK5h01RiRCNZurUTXweYE1t6ceNRGlZDUVtjI1/y42NfbZADUCqko1pVZWNYlG\r\nUDXSe0o1fnsKNT84gDUmm5k1rKpoNSVMjzXCnXw1UphbNVQCMDUsajk1nO/MNLFOMzfKQEU58UQw\r\nOpG5TjqY3l85daZSOc9uVDaRR8I383MbObZAEDp+xgc62R0oOR7RHjmDVSI56rzxOEIeCjm5EKo5\r\nEq8uOu4YSjpFaJc5WXmHORybwDh9zZo4cvGVNyMAbTlKprA5LBQROR/pXDg3rAA4kVNOOCz7Sjg6\r\nx6Y4elYBOUUAhDWXeME1kpmdNWCm4DTcSV01F4G6NY9DRDU1kSo1yQfrNFNdkDWClIA1FL0gNdU9\r\nkTWNs1E1u7VKNYUJLDUebis1K8AWNSEWFjUX/0E1YGSeNQ+WGzWtsCM1jTErNfpQgTWkEEo1bioa\r\nNW+XZDX6iwk1e89JNRFKdDXhqBw1vcoXNSceGjXRSog1UEVlNZriAjWG1BQ1M1FYNZ0tTTVwN1g1\r\nmgKLNcJQNTX1sZw1aFDDNeaqNTXppRI1MI8zNfzgEzV0m5U1SovONYbDBTWojNM0VjcyNQWlNTV2\r\nVRM17k3GNHwsQjXzFbQ1YkoBNd+kJTXnYQE179uLNQ+yhzUqpgY1hsHKNUNsiDVJhQI1stJ1Nbaj\r\nhzWIyYc0rxMtNS/G0TQEIoI1sZEINT8xNTX8igo1RUgTNc8D+TRYoTM1e3GANY574zSfaAg1/bNU\r\nNYpDPDVzIgw1QjnUNMh1nzRTCmI1MMluNUXzgjUmkjE1wXFFNTCdrDULq4k1AEA2NQ==",
                            "noiseTrainingType" : "default"
                          }
                        }
                    ],
                    "start" : 17641,
                    "duration" : 669,
                    "mediaStart" : 36,
                    "mediaDuration" : 669,
                    "scalar" : 1,
                    "metadata" : {
                      "WinSubProjectDisplayName" : "",
                      "clipSpeedAttribute" : false
                    },
                    "animationTracks" : {

                    }
                  },
                  {
                    "id" : 105,
                    "_type" : "AMFile",
                    "src" : 20,
                    "trackNumber" : 1,
                    "attributes" : {
                      "ident" : "Aufn. 07-11-19_041",
                      "sampleRate" : 44100,
                      "bitDepth" : 16,
                      "gain" : 1.0,
                      "mixToMono" : true
                    },
                      "channelNumber" : "0,1",
                    "effects" : [
                        {
                          "effectName" : "NoiseReduction",
                          "category" : "categoryAudioEffects",
                          "parameters" : {
                            "denoiserAmount" : 20.0,
                            "denoiserThreshold" : 0.0,
                            "noiseProfile" : "QRXIQOJdrD9J44U+jpFaPtwjxz3Z6m09HHg1PSQK8jypwd08C0+IPAP+GDxO2Zo8b0zYO7bS7Dsd\r\nrpw7/KevOy5ArDuOuJI7Ky50O6gbRzvUpTI7oqYlOy3bJzshijA7v4gZO2YI7jqzmA47oQzdOjDA\r\nIDtrDuE6ubvqOjqZ4zo3n7s6Yel7OsjWmTr1Q106cwr0Ohb+RzpynUA6g/xCOqwNYjpeR+I5BR3D\r\nOY94HTqBd4s65hQaOrzDzDmAH1o6hHrsOSXhATqGm8A5kxkkOqLRnjkV/b85gb3POS3RFzrih7k5\r\nlHYWOgEWSjrArIs5ifeWOXM48jmaZBg6nJUJOgJKCDoXbbM525EIOotY6zndGZE5dybvOaY3hTmA\r\npZA5dvigOQ423zjv24M5HnC3OQ5l8TkOjQk5hTKXOaE/6jlQdKQ59ZRXOWrcRjmgmk05PpBlOVek\r\nkzlCqAU5aZFGOTbgwjlzQjo5HK5cOTyK9jgGJnQ5UE/bOCu6RTm+S9w4YERdOf0vwjiZRSI5j29+\r\nOZh4QDlbmYk41VPQOBqnrjgugDs5pDf2OLQ9EzngOK44B2RmORPugjgUDCI5u5b9OKzb4DiOEdQ4\r\neTn6ONf3NznVYEU5YHkCOSDJ8jirBwA4DxpZOHIt0ziM7/44Sk0COftCSTlBdvM4KjbpODR8Ljgk\r\nx4g4Y+hxONDv3TiiqoM4gywBOYS4kzgzyLg43c2EOFHEITlkOpI4eyCbOMOWdDh9zbY41wBtOKD6\r\ncThFv6I4d9/YOMWQTDjvcoU4hEHJOEk4NThsspk4NLRvOBoaBzildXg4t2mqOCqUUzhebgI4Hfq4\r\nOPGzhTiexdo3kaMJOL8OYjg27KI42NOAOAo0QTglFvI3eV0qOCqfJThdmy44p0NfOOzoZziuc4o4\r\n4A8hOGVlUDheeS8422zYN4QZJzg6o+k3/LjkNz7pRzgfjTU4cOn7N/4S1zcV2uk3YSUXOAKGETim\r\nfyQ4BkwBOF9SBziTayg4xwbBN9y9hzfXwR44Of9OOMAhFTgByaE4MI+mN4eGLjhuY+Q3fOYFOBUh\r\n+zc9kjg4Nr4yOOn1OjjZRPk34BYSOOdmNjgS2Uo4C+4DOBOOOzhjXAQ46JTGN6jt/Ddq5AU4JQiu\r\nN8yeCzj2qBI4GMLzN9jExDdcvcs3d+OCNybY1Tdyhgk4+afWNxxyuTcBRWM40JqNN9i93Defn843\r\ntPwNOH9qsjckvKg3Y9p2NyftNThTyTY3beybN/X1LDiZj4c3FLNlN7xnDDjJRoY3JD3BNyh1hzdH\r\nZ4A3L8nqN8KmijcqGto30jJtOHfyLDcXlOA3TMiWN1gykze0Ero3mIKdN6SXADjGHYY3w1ZON+cs\r\nVjctjng3d7cfOGY4rzeQuXE3kmZTN6BP1De/nAw4ibSBN2jCqzekPOU3ntq2N/47kDcAvow3ttSa\r\nNwLarTcs8rc3DvhBN7aNtzengZM3lkCIN8SLvzdP3zk3DQksN5qt0zeG1aw3GPS9N+JjbTc2JKQ3\r\nI607N148WzemIgc32hzzNx7rljdJFek3AHJgN+LNgzdGQ7I3rfirNyysJDcKsow3a0gCN/pGfjd2\r\n/oU3Hc2pN1eikTdNgr03vAh5NyFWwjcIqTo3trQFN9J/Yzd2S583AmdGN6IYRjejv443XJIVN7Yd\r\neTdMx6o37LgKNybitzdlQzA32jqpN2OgWTcWUdQ3JezRN2H6bzfY97o3TvfPN8T+gTdc7w44Nr7v\r\nNjXmeDcaCUE37lGQN2NEVze201I3XH+YN4P1Vjezz1E3ciaZN/d+vTesb/g3aI+dN17tBjdOZIY3\r\nUGIeN4DBVDcwfoE3rwcVNw9b7jfLeJY2/2xlN0jz5TaE9G83mPqBNjRMszf8b203VtGENzZyQjfk\r\niMY2j2MfN4kobjdR7ck2jtiFN/KPzjZJFqE32+q2NtNudDdcGPY2Yj0QN4OOADe7SxQ3bGwwN/BT\r\nkTehKoA3h91pNzssdDfZvWY3f+cTN2C3mzcnJBM3WIWQN9hIzjZs4UI34jNGN8SVhTeKv/82sqpv\r\nNzuy2jai/So3aSInNy026zfeg+Y2laOgN3gsODcMdF8376sCN/xPlDddah03rKIAONxDijcYOgQ3\r\n6/P8Nzpkfjh2KUw31B4HOKj8CDhIkQk3ZXVXN2LtAjhmEfM27V3WN9CIDDhkb983BYqaN+sl+TeA\r\nTwI3r0ekN63I1TfmZNc2YNRsN+Lc/Ta7eQs36owYOBwKtzcqYhw3pbs4N9X+jTe8+9Y24jhVN1Th\r\n4zZgHZQ3NGcINzGTOzckkHg32P2TNy4iiDeKAmI3re+eNn+4jDaBwEI3qbGoN31v+DZ3cf02h/Ig\r\nNxI5Rzcq+Jk3hrVCOPJe6Tby9A43na6fNoAEUjctV1o3ZkmwN4DsAjd3hpo3wutEN/LvHDfT+v83\r\n3ELDN1cOsTafJhg4Gj1QNxgXoTerKeE3sRgeOGCotTcVfg84lbgVODlM4zcs/Vs4i8RLOAqT/jeg\r\ngHA42OoDOHwUjTgnZq84UNGoOBo0OTgxD604PkpIOPXsIzhxNU84MF2EOEbkZzhR/rs4vGgtOC0G\r\nSTeIMkE30JgSON3UAzhBLSE4TkP0N+bawDhOnGo4iEXxN8oT6zcqedo3ZskyN1jmRThEPXM4gF7h\r\nNyCTBDdv/ic3BkA2N0bvaDgbalU4AGVGOI6JmTc9PJ43RjcKN/Y63jfPrxs4c2AZOKmrMDgAAGE3\r\nS5fBN2eLaTgG0oU4q6OKNzu+BDd8FoA4kMSyOMyaFTnY/9k4Xq0mODOgaTimN6447+jkOMKSEDnp\r\ni7M4BICkOCpXqDiQ7NA4Gq3oOBy6Izk8sXY42TfGN39kgzhCGTk4yzl5OIpCqTgmfG04DMiAOHXB\r\nQTdG7I83FLpZOFSagTj12bE3Xo4AOOGncDjiFkI4tfahODN8BDnbpQU5Lp4SOTmR+zeoEGE4QsFx\r\nONc9xTi9ZqQ48PmbOAyOizhHjIM3fgOtN4r8rjjEbaM47JYxOHlRWDfe9gk37bNVN71HODjmxUc4\r\n7GHON6oJAjebyzE4gafPOBPjeDjwypM3WljrN8bOBDgW4x44sM6WOEx9ODi2Eow3yguCOLApRjiF\r\nFpg23lSuN7rkNThuG3A4OmupOGyOEDgPrjM4nCaJOCdEIziK88c3ED9rOFgqLDimcEo4X1AKOMxo\r\n3jc62a43DFIXOG/1hzdx1NQ3gXEmOJrwPjhIXcc371K2NoMOYTcmM2o4qYtZOA7QrDgCtkM4EuHt\r\nNyqlxTdWJ6A4K+FTOBbUvzfkuS046JYrOJLAkjfmraQ4ewHAOOTjvThm9nk4WZ2hOFoXAjjdjwY5\r\nmVIsOc2wNTlA6AE5DkxTOMDaUDhp5MQ4sWVCOT7DSjkGAyg5AfMQOSABszju+0M5ukoxOdxYpjgz\r\nZmM4DAujOLLcnTiZq904EPXUOOVSKzgapGE4QsqwOPdxoDh4Fa84CQ8gOMS1CTjM2Js4cJjvOOG+\r\njzjTi004QilgOLvuFjk6Rzo5i9kfOZAugjj7LC44qnnNOH3zRzk1bR45VTydOPR0vDeFfno4ZNDw\r\nOJKNNzm1C8Y4V7yXN5DlVzcT75o44HDcOB84KDnNC8U4UMuaNzmSKDdSmks4nqFAOMe3QDjwOgA3\r\nOXGJNvhZwzcAenA4KGi/N+ZePjcZy5Y28xzXNn14mzZmhLg2iYvGNqJvhDb6RsA2SM5XNxhOsDcm\r\ncCY4sY9HN7BjLzd9qm42S2hUN/TeCDc/57A20hmJNn8AAjdsBk02buVFN4QUSzZbTLw2aD2NNu02\r\nDDc4prk2xJ2jNpCVTTZNQ2w20sZnNvTckjYgbog2G7upNqgufzY8PI02gEeeNrrCZTarGDg2ZEiT\r\nNoEOhzbdPWs2RkF7Nmklqja1jK82kdOrNrJDmzZvDpc23IldNu2uITYDc4I2AF2xNbTSxDbmoDs3\r\nXjfANs4H8jW+iyc2ZpFrNhKKhjYkzXU2u9nzNiTUaTdvHZc3zDohNqImoDb8iUE25dCLNjW2Kjf5\r\nxzs2XhLwNZ/4sTbB+I82aBqhNXfIyDZ9U5Q2SXMTN2ReEjdL2HM3ZVSzNnxlnDZv3ew2lxw3Niqy\r\nTTZkyyk2T7CrNaJtZTYLDHQ2L8qNNjfPWjbAfAQ2JBFuNvq+QDbcBpE2TCBjNngpcDadKFI20l9e\r\nNmhDOjZUHkk2KPsuNmBGNDYX+As2BsYhNiINejaN4z42D5JFNhrbBjZMTY42umVoNkk+eja+xHM2\r\n6Gq/NglcYjbOuJo2qLOHNtVobzZc7TI21uRJNqM2mTacUD42nBV1NgvLoDZN8JE2yj1YNm/M7TbW\r\nArA2e8KGNmLnZjbowHY2TC11NqZrkDbLN/02twucNmkGhTb724I2qFNONlGkvTYpCvc2m1g6NrAA\r\nbjdKyT83Gi/VNg5NsDfSyEI3LEZNNvRagDbv2W82c245NtiLdTZQUjA2++EJNpUHGTbc+iU2o9+N\r\nNpCxFza7E882NpJwNktHGTYLrzk2ei0PNnCPgTa2qHk2ZLAoNiAkNDYmHYY2Ta9gNhzxZDayOWc2\r\n1UZsNlb93zWGs3c2iAIRNiLANzYCxms2/dlDNi7oLjbS9Fg2cSsyNh12FzZ2ijI20zIzNurPIjbN\r\nMjk2S1eENhjwIzbYkhc2x5oINhsKVjbM9kU2hwv+Ndbo+zVGuoI270eLNgEBfDZb3IY231FvNuX2\r\ngjYhcPo1MesZNonOnzbhikU2Rq4KNlaiXjbwAok2ghUbNodUFDbplQI2OgJzNs7MLDb2el425uuj\r\nNVZOczZVQB420mNQNhvJPzbCX2Q2lrpfNqtHdTZlTDs2vyTwNdF3PzZKxzM2YhsVNlW7GDa9bUM2\r\nlFo9Nn9+WjZW1RI2xA8ZNm/bJjZIXSY2930uNn5MRDb56mY2H4Y1NivHgTYzcsI1t54JNr2pLzan\r\nvBk2aL4SNgXdAjYaVEw29ZtTNozyMzYNhFY2QcFxNqoGTTb9tF42LTMhNizXCzYXXlU2siYZNl6L\r\nODYDZU42HHEJNqQYJzZQwU42nXIsNumiWDbO5HI2/pWANjurKTYS+S82cgCHNkwvqTYp4mA2zK2a\r\nNiCNRzazvWs2b+0ZNsPGLTbWXkY25iwNNsYbLTYB6Eg2+JskNt5NnjbXajY21NkaNqzAVjZN5Po1\r\nzJs7NqRdFjYQT3M2vBAcNoOYLDb/Dy42xNpANsqNPzaf3DE2LTQFNrMSQjbgQcI1Tu0YNmEKKTYh\r\nLS42nxBYNrwugjapsQ42jyVfNlbLVDZZnTc23qI5NsAsxjVBSHo2jDUuNo00TTZvBWU2RjKxNUvY\r\nRTZBE0028wdaNvLW+TWfuys2lDpqNoY4OjZ8SoI25V8uNvduUzZc3Dc2Z4pMNog7AjaXKIs2CCM9\r\nNs1RKTYyHoM2fr2cNtUZLDYWqYI2rjgZNphvRjYsZVk2lvdINkOzODb5VYc2HcFhNgBIjDb0Nag9\r\nr8wFOxtKZDrIOfw65q+pOuAQezoEjmU6qkOmOhGXGzt1h6E6d7KIOjTtLTpqzTE6AjebOvQ3jDoQ\r\nd1I6rjHdOoZ/qDo8wGg6am0QOheO0TokCO864ebyOWCv3TrEvG06YJqbOojnaDqgDlk6hRI5OvEv\r\nsjqzQdI6ErRlOtZclzrsBEI6NRMiOk6+vDrOZso6QUL8Otpijjrx+Xk6fDB+OgotwTq4hhI6Up1t\r\nOl56Hzpwjtk643+zOnpfdjqxg6Y69ujNOjmWoTp9g4w6vDOjOrQOczrhftY657zGOnPzYTovp4s6\r\nIex7OtgwdzoOpX867QOlOvjXtDolmvo61QOaOmVaVzr5gb86Hnp9OthDgDqmZ4I64UFHOrKjiTpD\r\nbp86EW1yOjtQpDqmxU46JN+jOl6pvTqa0Do6p0TLOlpVMzpQQpo6SzKBOj3/8jqfHZk63NjTOq7J\r\ngTrnbJU6SkUgOjAPnTqlqJw6QJ85OtOVAjrcDqw6Wa5JOrHRmTobtBU6oU2fOsTXpjqMBaw60gSE\r\nOljhZDp6xjE6DS/SOoVVjToMTrE6hiOUOuBEgjqtCDQ6mkgyOjbvojpMEJI6FIKZOrYQQDrwxKU6\r\nxiaqOrijwTp7OWA6KEeUOq3ydTr3vKA6jwKROgx5zzqyv8g6ODybOitpizrGkJw6TiVhOhpsXzq9\r\nNpM6G8AnOu9FDzq6Fy86mEmsOovTqTqZ3pM6CrQ1Ov0XeDooAoI6cQ6TOohFdjotbQE703COOrZb\r\nhjq7Q6Q6TC4SOpRMHzql+pk6bRADO1/ftDoeWKs6TiMJO5LTdTr4Z146PDGTOkTfLDqXEc860mmj\r\nOu0kkTrHX3M6n1w8OtuikDrlcsQ69gBKOoIowTrJihQ61vCfOnt3Wjr+qzU6OCO+OmPZojq6yJo6\r\nt4xDOnKJPDrxH2k6RcmJOtI2HjqpHpI6ccKKOtOepzq2O4w6LKIHOmNkpzpR/ag6SjRzOvr45zoo\r\n1bM6ipnOOhHpWDpr5Ik6j6jTOr7cZDrv/IQ6oKaoOhYr4DqAbCU6sO64OiLrdzrlThc6P9ebOg7C\r\nRzpUkp46N+i/Ou3bEjprPJw6dBJEOjlJnjoqyYk6z0l4OmfPnzqUwpc6AQjWOg9sGTrDRFo6+5W4\r\nOikT0zqzGiQ6FMANOtpZjjrmxpY6dre1OkGshDp7Swc6gm73Oo+KTzrEoIA6pfY2OkhvpTo1SEQ6\r\n4RawOlH4Vzpc0oQ65ic2Ov+2YTpL7I46nmNkOsZlKzokx3g6nXApOpLvZTrITzQ6aZSEOq5FIzp4\r\nnKU6ALadOl7PXTo17b86ZV6EOjhxJjqf0b86922MOm7SwzrU3pY6SudUOihyiDpOH5467t9AOgG8\r\ntjoARpg6AefWOrzlTjrbBqE64FeVOg46tjrsyK86R9FROlNEqzqKDiw6daCUOt7BczrLhmI6jvpl\r\nOujQujrMXpg5nHSiOsQquzqMg6s6gLo1OlSm5zqOh0c6d5yCOmy72zrcC5U63HCnOg6HtzoGzBA6\r\n87fwOoKPSjpupJU6tiAqOoBcNDrLbmA6k9OOOhwmlTqGh5I6EpNdOkteRTr/Hyo6P+VWOl57QDrU\r\n2Hg67KXBOqxzvToxA4U6fOFrOle3qzqcvz86mu6/OlxuFTsnVI468AozOglj8Tof/h46ljyiOkhU\r\nkTrkoZg6cv6DOtSThjo8A406MsvNOk1LhDre6TU6BCioOmbICTrb9q06sCGvOnhMljroQX867Sg7\r\nOszKJTpLrIo6SGtDOnEcnzo4IRA6YUCCOoEetDplMd06B+uuOvItmDpqA6A64F5XOl2S5DotYZI6\r\nACB3OrS8aDpFepE6lHBCOvqD2jmiAqg65yIsOoxFjDqT7Io6T0Z5OmEemzoMQxI6oLgcOsRERDoR\r\nZIA6PfAZOzWQJjq24hU6V904OjgtbzpJEVg6Cps/OjYBxTqJzzQ6KJR2Og0iSDptoFI62CjUOibA\r\nNjqHWWw6antHOihfNTqPK846usfmOoyzcDqubWA6BKVNOljlpzqCrvU5DfirOiqldzr9QKg608F1\r\nOhGyETpQcFE6f66ZOge+uDrrCI06vm5dOsW0jzoutQU6ZheTOq9iPjqQZ3g6TGTKOkk7WzqOuDQ6\r\ncF5WOgegATpKlHw6YuO9OsmOfTqK23w6QbF7OtTSGzs1wEI60+45OjnIqjoyyds5WTqtOkoMhTrn\r\n7SM6hgn4OrrQlDrP6BY6hPrMOiXLgTqJchY61P5WOu1mVjt/bpY6i+GoOibqRDoAcJE6pR3KOrP+\r\neDrRCZs6ZDaXOqMrLzr+oW86wF1uOj/NkzpoiKA6/wmdOlIMATsPJKU6XHrrOVs4DToXqrc6cogh\r\nOlJnYTrtzU06CpNgOsY0kDqgmvw5Wzz7OXLDXDrcThc6ps3GOqPHMjrFz7w6JyUeOhskgTpiKeM6\r\nDoWOOpLGhTqUmtU6eRKLOvronjqsDkQ6rGjGOuxxzDn5NfM6vk+fOiF2hzo2Wow6APjROrrLijrU\r\nUao6DPYkOpjYlzqtHqs6SFiZOgf8Tjry/DA6nCcPOjmgWzrROVM6NVbPOjFOHzrJO9w63KTxOVc5\r\nsTpQdzg6ofI9Or4bKzqejnQ6aDhoOgB4kTq944o6KqCFOskNkjpY6dA6zQM3OoVmSzqmLFg6QIUL\r\nO5TjsjoOy5c6r45JOj9MYDoa2w46jEztOihSHTp45Lw6K2g5OvPoszo3nJk60iI9OqBdfTpZ+0o6\r\nV5c9OnQsdjoULHE6PbKkOpZKgzqCK4M6qXqVOgSCbDqIbKI60+iaOty7uzqLD9o6MOifOsc2sDoV\r\nWqs6AWBJOvb/VjrjL7s69HG5OuZX0DrtPx06ZicgOpfdNzrDr506vgLFOiRvAzv0OIw6rOfeOiaY\r\nPjoxwI86FllGOuXGBTtAOFE6/tZlOiJ/kzoKjtQ6n2TgOUnYPTpF1F06/aaBOggcSzqurpA6x59S\r\nOqt4Mzrf8YI6PDGLOtrI7jrAyYs6KZrQOpD5RjrKhR868VUpOmBZKDqjAyU6f5ndOVyvrDobK/05\r\nA0ozOihRLzrtJI46A3lpOvBv5TpORiQ6JqKWOWO8hzqUJTo66utOOhgaQTqFgqE6GhmJOrWYYDo+\r\nWss64vpIOn3Hujpx3Vk6DrSJOufqZTorJLQ63blCOlQOHTvhnCY6QpUPOhrGkjpAJJ46RUafOjU/\r\nLjpCS0I6vdoiOsem5DmmJIM6zC9LOrIlSDrpTeo6nVEGOkPblzoIDsw6CsCDOj/vQzog7n06XF9l\r\nOuoMlDpqKl86EjI1OiQXcToeZ0g6sXvLOtbGJTqkoIM6AwFHOiJXeToK4wI6vU0QO8A5uToa0IQ6\r\n96KZOr2iKjrW3yk67XOuOr7Xkzo5sDg61BW6OprzQjpn9jA6Y3hyOuHUBDrD8kU6EMcVOoq/4TkO\r\nJ2Y6uKkWOrikpjogBRg644J7OmiGODoz+8069RG7OjWtpTq0IYI6oOxLOsZwDzumX6U6kXc6OvXT\r\nkzrU9TY67+vOOvlTpjoO1Go64AEdOmnEBjrcPEY6T1I5OhVuxzpyIIU6mJUlOj+5BTqf6Ew6FXMv\r\nOhHxejoWGwA7JPThOj16YzoAg6E6/Dg0OpmeWDrevGc6eNKsOgcCkDoSkLU636hpOt5+MDqE0gE6\r\nLlWCOjPDBDvDvIw65f0oOs4Epjpu02Q6soHEOr/eXjqvRUQ6YitVOvVbqTqqzVs6xGM1OigLWTpO\r\nLzI6svJUOihQPzo/PZg68M1AOv1Y/zmtzWo4/nU7OVdd1jju/zw4KWCJOEkBnTi4UHk5KS96OYZS\r\n1zgKeAI4lpwaOO9DuTgEMTc5itKVOHl6HThM4145PJe7Oa7qFjoyzMg5UISiOBd3ejmyeIY509Kx\r\nObOQqjktBic5TBQBOTyKuDkQUzY6M4WIOc6XdjjERcw4ABKEOOG+kTj2xyM5E/1lOVGWTzm8TO84\r\nu4SFOXRWiTmxjQY6GDYBOhUuZjkEVuQ55EcjOgspiTllUWg5qdYdOryV7Tlew8M5tNAjOcWmFjlN\r\nmYE5QawCOlYnATrmbxQ6L81SOfxsJjg1EpM5LfOqOeLblzl2m5Y5m5LgOF2cDjmUJqw3u6oNNwrZ\r\ngTY+f4M3gpBTNwsNOzdr1yI3dNohN5nf0TYqLMc2PjaWNjJFmDaRWpU2/ReKNlYrsTY8UNA2LgZH\r\nNi4VoTaLE2k2BKkyNmzk9jUnyR82ThlCNhtc6TWKyBI2g7kMNgMe3DUtxRI2eFSJNQ06/jVaruU1\r\nXEe0NTqxXDhR4hk5YomrOdyqyzm2g9U4FvkOOCfIxzc7bZE4Zpt1OLoGxTj8s2A5xlU8ObzXWDiY\r\nwV84YumcOMMOUDhv/A054NocOve3KTohuVo6XE/bORd1IDYSKzw43vOPOWCDWDncMC45kGU5OpDr\r\nHjqqD5c5HeBeOGajUjhwRI84vFN9OORgrzV6jpY1I7qQNWS6SDUEPMs1eoqHNQd+MDUvOBE17UVd\r\nNaBgGTVCOV41zqvGNCD1PDXeX581HdwdNd+MpjUdEKc1XJI9NdvyVzWq8Ck1W1E2Nb7xEDUEWlc1\r\nEU0NNfcYETVqAH012v1qNfNOFTVHYxM15IFmNc2iZzVJLxQ1KB85NcByWjWTfxE18LY6NcJJLTXS\r\nMyQ10UwtNV6CSjX/W0011fwmNWx5hTWaLO80zrIJNfnMPjXdlvY0CIdKNcxclTU1rD41DlwZNUTn\r\nJjUpjQE1dCTXNLYKRzWxtls1hGgWNcY1BTXPe9A0bun/NMBQBTV3wHs060EHNfMcKDUMSZs0Z7xY\r\nNRXR9jQSP9A0uw4ZNZAoEDUI7680og+GNLm15DTUOh41tF04NWe/1TSukOQ0GN6QNTk9EDWbojM1\r\nQ74nNfHc1zR/vwM1E2NBNcugIjW6E3s1IUEANULJrjSUeJU1qR2gNA7EPjUsEGE1DZoUNdo9BjU9\r\nhMA0+XWGNWhh2TRWpG818kl7NfPqvTQgS/o0kzFHNYRu+jRxdrg0fuewNUqb2DQnoAo1FU4bNaio\r\n9TTaJNI0b7T1NIxKFDXCHBU13mHCNMLqiTWoOBY185u5NO5NfjVqwsg0W8NINZYuXDUfYjM1F7nv\r\nNJhQHjUsDBo1iu4fNZjlWDWEYBA1+n3YNHSoFzUqDfI0M+7FNDiHCzVeDiE1tb1ONVhwFDUzQ0E1\r\nH631NF+kJjVLHh416HkbNVYeBzU0I/Y0INSLNaAd+zQI0gQ1FoIwNbxdMDU28zI1Lqz7NL9H1jTu\r\nrdQ0QPYNNbTTAjWeORA15RvSNI0pcjXoGbI0OKFZNat6MjWQQPE0AStpNZDGOzXQB600AC6SNaQj\r\npjS0JC01XmxGNdLi/jRygiw1Sq0sNXZLCzWsSzs1kQIgNZoYzzR4xJk0QgEoNVYCHzWUVQY1MinN\r\nNCb6zjRNfRc1bna9NKlPAjUC1DQ1iv8NNXyl1TQSa9k0q9oQNbRxtjTRkSI1AAApNQ==",
                            "noiseTrainingType" : "default"
                          }
                        }
                    ],
                    "start" : 18310,
                    "duration" : 177,
                    "mediaStart" : 31,
                    "mediaDuration" : 177,
                    "scalar" : 1,
                    "metadata" : {
                      "WinSubProjectDisplayName" : "",
                      "clipSpeedAttribute" : false
                    },
                    "animationTracks" : {

                    }
                  }
                ]
              },
              {
                "trackIndex" : 2,
                "medias" : [
                ]
              },
              {
                "trackIndex" : 3,
                "medias" : [
                ]
              },
              {
                "trackIndex" : 4,
                "medias" : [
                ]
              },
              {
                "trackIndex" : 5,
                "medias" : [
                ]
              },
              {
                "trackIndex" : 6,
                "medias" : [
                ]
              },
              {
                "trackIndex" : 7,
                "medias" : [
                ]
              },
              {
                "trackIndex" : 8,
                "medias" : [
                ]
              }
            ]
          }
        }
      ]
    },
    "trackAttributes" : [
      {
        "ident" : "",
        "audioMuted" : false,
        "videoHidden" : false,
        "magnetic" : false,
        "metadata" : {
          "IsLocked" : "False",
          "WinTrackHeight" : "56"
        }
      },
      {
        "ident" : "",
        "audioMuted" : false,
        "videoHidden" : false,
        "magnetic" : false,
        "metadata" : {
          "IsLocked" : "False",
          "WinTrackHeight" : "56"
        }
      },
      {
        "ident" : "",
        "audioMuted" : false,
        "videoHidden" : false,
        "magnetic" : false,
        "metadata" : {
          "IsLocked" : "False",
          "WinTrackHeight" : "56"
        }
      },
      {
        "ident" : "",
        "audioMuted" : false,
        "videoHidden" : false,
        "magnetic" : false,
        "metadata" : {
          "IsLocked" : "False",
          "WinTrackHeight" : "56"
        }
      },
      {
        "ident" : "",
        "audioMuted" : false,
        "videoHidden" : false,
        "magnetic" : false,
        "metadata" : {
          "IsLocked" : "False",
          "WinTrackHeight" : "56"
        }
      },
      {
        "ident" : "",
        "audioMuted" : false,
        "videoHidden" : false,
        "magnetic" : false,
        "metadata" : {
          "IsLocked" : "False",
          "WinTrackHeight" : "56"
        }
      },
      {
        "ident" : "",
        "audioMuted" : false,
        "videoHidden" : false,
        "magnetic" : false,
        "metadata" : {
          "IsLocked" : "False",
          "WinTrackHeight" : "56"
        }
      },
      {
        "ident" : "",
        "audioMuted" : false,
        "videoHidden" : false,
        "magnetic" : false,
        "metadata" : {
          "IsLocked" : "False",
          "WinTrackHeight" : "56"
        }
      },
      {
        "ident" : "",
        "audioMuted" : false,
        "videoHidden" : false,
        "magnetic" : false,
        "metadata" : {
          "IsLocked" : "False",
          "WinTrackHeight" : "56"
        }
      }
    ],
    "captionAttributes" : {
      "enabled" : true,
      "fontName" : "Arial",
      "fontSize" : 64,
      "backgroundColor" : [ 0, 0, 0, 191],
      "foregroundColor" : [ 255, 255, 255, 255],
      "lang" : "en",
      "alignment" : 0,
      "defaultFontSize" : true,
      "opacity" : 0.5,
      "backgroundEnabled" : true,
      "backgroundOnlyAroundText" : true
    },
    "backgroundColor" : [ 0, 0, 0, 255]
  },
  "metadata" : {
    "AutoSaveFile" : "C:\\Users\\ungerw\\AppData\\Local\\TechSmith\\Camtasia Studio\\19.0\\Auto-Saves\\integrationIDE5042ac3.autosave.tscproj",
    "CanvasZoom" : 39,
    "Date" : "11.07.2019 04:49:54 ",
    "IsAutoSave" : "0",
    "Language" : "DEU",
    "ProfileName" : "",
    "ProjectDimensionsChanged" : "1",
    "Title" : "integrationIDE",
    "audioNarrationNotes" : "",
    "calloutStyle" : "Basic",
    "canvasDetached" : "False",
    "canvasPositionHeight" : "0",
    "canvasPositionLeft" : "0",
    "canvasPositionTop" : "0",
    "canvasPositionWidth" : "0"
  },
  "audioFormatSampleRate" : 44100
,
  "themeFile" : null

}
