{
  "title" : "",
  "description" : "",
  "author" : "",
  "targetLoudness" : -18.0,
  "shouldApplyLoudnessNormalization" : true,
  "videoFormatFrameRate" : 30,
  "audioFormatSampleRate" : 44100,
  "width" : 1920.0,
  "height" : 1080.0,
  "version" : "3.0",
  "editRate" : 30,
  "authoringClientName" :  {
    "name" : "Camtasia",
    "platform" : "Windows",
    "version" : "19.0"
  },
  "sourceBin" : [
    {
      "id" : 1,
      "src" : "C:\\Users\\ungerw\\Documents\\Camtasia\\Aufn. 07-07-19_004.trec",
      "rect" : [0, 0, 1920, 1080],
      "lastMod" : "20190707T134629",
      "sourceTracks" : [
        {
          "range" : [0, 1365],
          "type" : 0,
          "editRate" : 30,
          "trackRect" : [0, 0, 1920, 1080],
          "sampleRate" : 0,
          "bitDepth" : 0,
          "numChannels" : 0,
          "integratedLUFS" : 100.0,
          "peakLevel" : -1.0,
          "metaData" : "2b7b6a00-7a1f-11e2-83d0-0017f200be7f;2b7b6aef-7a1f-11e2-83d0-0017f200be7f;2b7b6af0-7a1f-11e2-83d0-0017f200be7f;2b7b6af1-7a1f-11e2-83d0-0017f200be7f;2b7b6af2-7a1f-11e2-83d0-0017f200be7f;2b7b6af3-7a1f-11e2-83d0-0017f200be7f;2b7b6af5-7a1f-11e2-83d0-0017f200be7f;2b7b6af6-7a1f-11e2-83d0-0017f200be7f;2b7b6af7-7a1f-11e2-83d0-0017f200be7f;2b7b6af8-7a1f-11e2-83d0-0017f200be7f;2b7b6af9-7a1f-11e2-83d0-0017f200be7f;2b7b6afa-7a1f-11e2-83d0-0017f200be7f;"
        },
        {
          "range" : [0, 2008064],
          "type" : 2,
          "editRate" : 44100,
          "trackRect" : [0, 0, 0, 0],
          "sampleRate" : 44100,
          "bitDepth" : 16,
          "numChannels" : 2,
          "integratedLUFS" : -34.2041281305341,
          "peakLevel" : 0.222686767578125,
          "metaData" : ""
        },
        {
          "range" : [0, 2007040],
          "type" : 2,
          "editRate" : 44100,
          "trackRect" : [0, 0, 0, 0],
          "sampleRate" : 44100,
          "bitDepth" : 16,
          "numChannels" : 2,
          "integratedLUFS" : 0.0,
          "peakLevel" : 0.0,
          "metaData" : ""
        }
      ]
    },
    {
      "id" : 2,
      "src" : "C:\\Users\\ungerw\\Documents\\Camtasia\\Aufn. 07-07-19_007.trec",
      "rect" : [0, 0, 1920, 1080],
      "lastMod" : "20190707T135114",
      "sourceTracks" : [
        {
          "range" : [0, 1108],
          "type" : 0,
          "editRate" : 30,
          "trackRect" : [0, 0, 1920, 1080],
          "sampleRate" : 0,
          "bitDepth" : 0,
          "numChannels" : 0,
          "integratedLUFS" : 100.0,
          "peakLevel" : -1.0,
          "metaData" : "2b7b6a00-7a1f-11e2-83d0-0017f200be7f;2b7b6aef-7a1f-11e2-83d0-0017f200be7f;2b7b6af0-7a1f-11e2-83d0-0017f200be7f;2b7b6af1-7a1f-11e2-83d0-0017f200be7f;2b7b6af2-7a1f-11e2-83d0-0017f200be7f;2b7b6af3-7a1f-11e2-83d0-0017f200be7f;2b7b6af5-7a1f-11e2-83d0-0017f200be7f;2b7b6af6-7a1f-11e2-83d0-0017f200be7f;2b7b6af7-7a1f-11e2-83d0-0017f200be7f;2b7b6af8-7a1f-11e2-83d0-0017f200be7f;2b7b6af9-7a1f-11e2-83d0-0017f200be7f;2b7b6afa-7a1f-11e2-83d0-0017f200be7f;"
        },
        {
          "range" : [0, 1610752],
          "type" : 2,
          "editRate" : 44100,
          "trackRect" : [0, 0, 0, 0],
          "sampleRate" : 44100,
          "bitDepth" : 16,
          "numChannels" : 2,
          "integratedLUFS" : -33.9006274022367,
          "peakLevel" : 0.207244873046875,
          "metaData" : ""
        },
        {
          "range" : [0, 1626112],
          "type" : 2,
          "editRate" : 44100,
          "trackRect" : [0, 0, 0, 0],
          "sampleRate" : 44100,
          "bitDepth" : 16,
          "numChannels" : 2,
          "integratedLUFS" : 0.0,
          "peakLevel" : 0.0,
          "metaData" : ""
        }
      ]
    },
    {
      "id" : 3,
      "src" : "C:\\Users\\ungerw\\Documents\\Camtasia\\Aufn. 07-07-19_013.trec",
      "rect" : [0, 0, 1920, 1080],
      "lastMod" : "20190707T140116",
      "sourceTracks" : [
        {
          "range" : [0, 1932],
          "type" : 0,
          "editRate" : 30,
          "trackRect" : [0, 0, 1920, 1080],
          "sampleRate" : 0,
          "bitDepth" : 0,
          "numChannels" : 0,
          "integratedLUFS" : 100.0,
          "peakLevel" : -1.0,
          "metaData" : "2b7b6a00-7a1f-11e2-83d0-0017f200be7f;2b7b6aef-7a1f-11e2-83d0-0017f200be7f;2b7b6af0-7a1f-11e2-83d0-0017f200be7f;2b7b6af1-7a1f-11e2-83d0-0017f200be7f;2b7b6af2-7a1f-11e2-83d0-0017f200be7f;2b7b6af3-7a1f-11e2-83d0-0017f200be7f;2b7b6af5-7a1f-11e2-83d0-0017f200be7f;2b7b6af6-7a1f-11e2-83d0-0017f200be7f;2b7b6af7-7a1f-11e2-83d0-0017f200be7f;2b7b6af8-7a1f-11e2-83d0-0017f200be7f;2b7b6af9-7a1f-11e2-83d0-0017f200be7f;2b7b6afa-7a1f-11e2-83d0-0017f200be7f;"
        },
        {
          "range" : [0, 2824192],
          "type" : 2,
          "editRate" : 44100,
          "trackRect" : [0, 0, 0, 0],
          "sampleRate" : 44100,
          "bitDepth" : 16,
          "numChannels" : 2,
          "integratedLUFS" : -36.6656997360157,
          "peakLevel" : 0.280517578125,
          "metaData" : ""
        },
        {
          "range" : [0, 2837504],
          "type" : 2,
          "editRate" : 44100,
          "trackRect" : [0, 0, 0, 0],
          "sampleRate" : 44100,
          "bitDepth" : 16,
          "numChannels" : 2,
          "integratedLUFS" : 0.0,
          "peakLevel" : 0.0,
          "metaData" : ""
        }
      ]
    },
    {
      "id" : 4,
      "src" : "C:\\Users\\ungerw\\Documents\\Camtasia\\Aufn. 07-07-19_014.trec",
      "rect" : [0, 0, 1920, 1080],
      "lastMod" : "20190707T140639",
      "sourceTracks" : [
        {
          "range" : [0, 557],
          "type" : 0,
          "editRate" : 30,
          "trackRect" : [0, 0, 1920, 1080],
          "sampleRate" : 0,
          "bitDepth" : 0,
          "numChannels" : 0,
          "integratedLUFS" : 100.0,
          "peakLevel" : -1.0,
          "metaData" : "2b7b6a00-7a1f-11e2-83d0-0017f200be7f;2b7b6aef-7a1f-11e2-83d0-0017f200be7f;2b7b6af0-7a1f-11e2-83d0-0017f200be7f;2b7b6af1-7a1f-11e2-83d0-0017f200be7f;2b7b6af2-7a1f-11e2-83d0-0017f200be7f;2b7b6af3-7a1f-11e2-83d0-0017f200be7f;2b7b6af5-7a1f-11e2-83d0-0017f200be7f;2b7b6af6-7a1f-11e2-83d0-0017f200be7f;2b7b6af7-7a1f-11e2-83d0-0017f200be7f;2b7b6af8-7a1f-11e2-83d0-0017f200be7f;2b7b6af9-7a1f-11e2-83d0-0017f200be7f;2b7b6afa-7a1f-11e2-83d0-0017f200be7f;"
        },
        {
          "range" : [0, 817152],
          "type" : 2,
          "editRate" : 44100,
          "trackRect" : [0, 0, 0, 0],
          "sampleRate" : 44100,
          "bitDepth" : 16,
          "numChannels" : 2,
          "integratedLUFS" : -35.1745544366792,
          "peakLevel" : 0.16204833984375,
          "metaData" : ""
        },
        {
          "range" : [0, 816128],
          "type" : 2,
          "editRate" : 44100,
          "trackRect" : [0, 0, 0, 0],
          "sampleRate" : 44100,
          "bitDepth" : 16,
          "numChannels" : 2,
          "integratedLUFS" : 0.0,
          "peakLevel" : 0.0,
          "metaData" : ""
        }
      ]
    },
    {
      "id" : 5,
      "src" : "C:\\Users\\ungerw\\Documents\\Camtasia\\Aufn. 07-07-19_016.trec",
      "rect" : [0, 0, 1920, 1080],
      "lastMod" : "20190707T141254",
      "sourceTracks" : [
        {
          "range" : [0, 1770],
          "type" : 0,
          "editRate" : 30,
          "trackRect" : [0, 0, 1920, 1080],
          "sampleRate" : 0,
          "bitDepth" : 0,
          "numChannels" : 0,
          "integratedLUFS" : 100.0,
          "peakLevel" : -1.0,
          "metaData" : "2b7b6a00-7a1f-11e2-83d0-0017f200be7f;2b7b6aef-7a1f-11e2-83d0-0017f200be7f;2b7b6af0-7a1f-11e2-83d0-0017f200be7f;2b7b6af1-7a1f-11e2-83d0-0017f200be7f;2b7b6af2-7a1f-11e2-83d0-0017f200be7f;2b7b6af3-7a1f-11e2-83d0-0017f200be7f;2b7b6af5-7a1f-11e2-83d0-0017f200be7f;2b7b6af6-7a1f-11e2-83d0-0017f200be7f;2b7b6af7-7a1f-11e2-83d0-0017f200be7f;2b7b6af8-7a1f-11e2-83d0-0017f200be7f;2b7b6af9-7a1f-11e2-83d0-0017f200be7f;2b7b6afa-7a1f-11e2-83d0-0017f200be7f;"
        },
        {
          "range" : [0, 2603008],
          "type" : 2,
          "editRate" : 44100,
          "trackRect" : [0, 0, 0, 0],
          "sampleRate" : 44100,
          "bitDepth" : 16,
          "numChannels" : 2,
          "integratedLUFS" : -36.4402188994162,
          "peakLevel" : 0.134857177734375,
          "metaData" : ""
        },
        {
          "range" : [0, 2603008],
          "type" : 2,
          "editRate" : 44100,
          "trackRect" : [0, 0, 0, 0],
          "sampleRate" : 44100,
          "bitDepth" : 16,
          "numChannels" : 2,
          "integratedLUFS" : 0.0,
          "peakLevel" : 0.0,
          "metaData" : ""
        }
      ]
    },
    {
      "id" : 6,
      "src" : "C:\\Users\\ungerw\\Documents\\Camtasia\\Aufn. 07-07-19_017.trec",
      "rect" : [0, 0, 1920, 1080],
      "lastMod" : "20190707T190504",
      "sourceTracks" : [
        {
          "range" : [0, 3835],
          "type" : 0,
          "editRate" : 30,
          "trackRect" : [0, 0, 1920, 1080],
          "sampleRate" : 0,
          "bitDepth" : 0,
          "numChannels" : 0,
          "integratedLUFS" : 100.0,
          "peakLevel" : -1.0,
          "metaData" : "2b7b6a00-7a1f-11e2-83d0-0017f200be7f;2b7b6aef-7a1f-11e2-83d0-0017f200be7f;2b7b6af0-7a1f-11e2-83d0-0017f200be7f;2b7b6af1-7a1f-11e2-83d0-0017f200be7f;2b7b6af2-7a1f-11e2-83d0-0017f200be7f;2b7b6af3-7a1f-11e2-83d0-0017f200be7f;2b7b6af5-7a1f-11e2-83d0-0017f200be7f;2b7b6af6-7a1f-11e2-83d0-0017f200be7f;2b7b6af7-7a1f-11e2-83d0-0017f200be7f;2b7b6af8-7a1f-11e2-83d0-0017f200be7f;2b7b6af9-7a1f-11e2-83d0-0017f200be7f;2b7b6afa-7a1f-11e2-83d0-0017f200be7f;"
        },
        {
          "range" : [0, 5623808],
          "type" : 2,
          "editRate" : 44100,
          "trackRect" : [0, 0, 0, 0],
          "sampleRate" : 44100,
          "bitDepth" : 16,
          "numChannels" : 2,
          "integratedLUFS" : -36.188934079534,
          "peakLevel" : 0.1788330078125,
          "metaData" : ""
        },
        {
          "range" : [0, 5638144],
          "type" : 2,
          "editRate" : 44100,
          "trackRect" : [0, 0, 0, 0],
          "sampleRate" : 44100,
          "bitDepth" : 16,
          "numChannels" : 2,
          "integratedLUFS" : 0.0,
          "peakLevel" : 0.0,
          "metaData" : ""
        }
      ]
    },
    {
      "id" : 7,
      "src" : "C:\\Users\\ungerw\\Documents\\Camtasia\\Aufn. 07-12-19.trec",
      "rect" : [0, 0, 1920, 1080],
      "lastMod" : "20190712T144347",
      "sourceTracks" : [
        {
          "range" : [0, 702],
          "type" : 0,
          "editRate" : 30,
          "trackRect" : [0, 0, 1920, 1080],
          "sampleRate" : 0,
          "bitDepth" : 0,
          "numChannels" : 0,
          "integratedLUFS" : 100.0,
          "peakLevel" : -1.0,
          "metaData" : "2b7b6a00-7a1f-11e2-83d0-0017f200be7f;2b7b6aef-7a1f-11e2-83d0-0017f200be7f;2b7b6af0-7a1f-11e2-83d0-0017f200be7f;2b7b6af1-7a1f-11e2-83d0-0017f200be7f;2b7b6af2-7a1f-11e2-83d0-0017f200be7f;2b7b6af3-7a1f-11e2-83d0-0017f200be7f;2b7b6af5-7a1f-11e2-83d0-0017f200be7f;2b7b6af6-7a1f-11e2-83d0-0017f200be7f;2b7b6af7-7a1f-11e2-83d0-0017f200be7f;2b7b6af8-7a1f-11e2-83d0-0017f200be7f;2b7b6af9-7a1f-11e2-83d0-0017f200be7f;2b7b6afa-7a1f-11e2-83d0-0017f200be7f;"
        },
        {
          "range" : [0, 1015808],
          "type" : 2,
          "editRate" : 44100,
          "trackRect" : [0, 0, 0, 0],
          "sampleRate" : 44100,
          "bitDepth" : 16,
          "numChannels" : 2,
          "integratedLUFS" : -50.018003086576,
          "peakLevel" : 0.10260009765625,
          "metaData" : ""
        },
        {
          "range" : [0, 1035264],
          "type" : 2,
          "editRate" : 44100,
          "trackRect" : [0, 0, 0, 0],
          "sampleRate" : 44100,
          "bitDepth" : 16,
          "numChannels" : 2,
          "integratedLUFS" : -18.5102917432128,
          "peakLevel" : 0.60406494140625,
          "metaData" : ""
        }
      ]
    }
  ],
  "timeline" : {
    "id" : 8,
    "sceneTrack" : {
      "scenes" : [
        {
          "duration" : 329.633333333333,
          "title" : "",
          "type" : "",
          "csml" : {
            "tracks" : [
              {
                "trackIndex" : 0,
                "medias" : [
                  {
                    "id" : 9,
                    "_type" : "UnifiedMedia",
                    "video" : 
                        {
                          "id" : 10,
                          "_type" : "ScreenVMFile",
                          "src" : 1,
                          "trackNumber" : 0,
                          "attributes" : {
                            "ident" : "Aufn. 07-07-19_004"
                          },
                          "parameters" : {
                            "cursorScale" : {
                              "type" : "double",
                              "defaultValue" : 1.0,
                              "interp" : "linr"
                            },
                            "cursorOpacity" : {
                              "type" : "double",
                              "defaultValue" : 1.0,
                              "interp" : "linr"
                            }
                          },
                          "effects" : [

                          ],
                          "start" : 0,
                          "duration" : 1287,
                          "mediaStart" : 57,
                          "mediaDuration" : 1287,
                          "scalar" : 1,
                          "animationTracks" : {

                          }
                        },
                    "audio" : 
                        {
                          "id" : 11,
                          "_type" : "AMFile",
                          "src" : 1,
                          "trackNumber" : 2,
                          "attributes" : {
                            "ident" : "",
                            "sampleRate" : 44100,
                            "bitDepth" : 16,
                            "gain" : 1.0,
                            "mixToMono" : false
                          },
                            "channelNumber" : "0,1",
                          "effects" : [

                          ],
                          "start" : 0,
                          "duration" : 1287,
                          "mediaStart" : 57,
                          "mediaDuration" : 1287,
                          "scalar" : 1,
                          "animationTracks" : {

                          }
                        }
,
                    "start" : 0,
                    "duration" : 1287,
                    "mediaStart" : 0,
                    "mediaDuration" : 1365,
                    "scalar" : 1,
                    "metadata" : {
                      "AutoAppliedSmartFocus" : "False",
                      "WinSubProjectDisplayName" : "",
                      "clipSpeedAttribute" : false
                    }
                  },
                  {
                    "id" : 12,
                    "_type" : "UnifiedMedia",
                    "video" : 
                        {
                          "id" : 13,
                          "_type" : "ScreenVMFile",
                          "src" : 2,
                          "trackNumber" : 0,
                          "attributes" : {
                            "ident" : "Aufn. 07-07-19_007"
                          },
                          "parameters" : {
                            "cursorScale" : {
                              "type" : "double",
                              "defaultValue" : 1.0,
                              "interp" : "linr"
                            },
                            "cursorOpacity" : {
                              "type" : "double",
                              "defaultValue" : 1.0,
                              "interp" : "linr"
                            }
                          },
                          "effects" : [

                          ],
                          "start" : 1287,
                          "duration" : 1041,
                          "mediaStart" : 40,
                          "mediaDuration" : 1041,
                          "scalar" : 1,
                          "animationTracks" : {

                          }
                        },
                    "audio" : 
                        {
                          "id" : 14,
                          "_type" : "AMFile",
                          "src" : 2,
                          "trackNumber" : 2,
                          "attributes" : {
                            "ident" : "",
                            "sampleRate" : 44100,
                            "bitDepth" : 16,
                            "gain" : 1.0,
                            "mixToMono" : false
                          },
                            "channelNumber" : "0,1",
                          "effects" : [

                          ],
                          "start" : 1287,
                          "duration" : 1041,
                          "mediaStart" : 40,
                          "mediaDuration" : 1041,
                          "scalar" : 1,
                          "animationTracks" : {

                          }
                        }
,
                    "start" : 1287,
                    "duration" : 1041,
                    "mediaStart" : 0,
                    "mediaDuration" : 1106,
                    "scalar" : 1,
                    "metadata" : {
                      "AutoAppliedSmartFocus" : "False",
                      "WinSubProjectDisplayName" : "",
                      "clipSpeedAttribute" : false
                    }
                  },
                  {
                    "id" : 15,
                    "_type" : "UnifiedMedia",
                    "video" : 
                        {
                          "id" : 16,
                          "_type" : "ScreenVMFile",
                          "src" : 3,
                          "trackNumber" : 0,
                          "attributes" : {
                            "ident" : "Aufn. 07-07-19_013"
                          },
                          "parameters" : {
                            "cursorScale" : {
                              "type" : "double",
                              "defaultValue" : 1.0,
                              "interp" : "linr"
                            },
                            "cursorOpacity" : {
                              "type" : "double",
                              "defaultValue" : 1.0,
                              "interp" : "linr"
                            }
                          },
                          "effects" : [

                          ],
                          "start" : 2328,
                          "duration" : 1576,
                          "mediaStart" : 34,
                          "mediaDuration" : 1576,
                          "scalar" : 1,
                          "animationTracks" : {

                          }
                        },
                    "audio" : 
                        {
                          "id" : 17,
                          "_type" : "AMFile",
                          "src" : 3,
                          "trackNumber" : 2,
                          "attributes" : {
                            "ident" : "",
                            "sampleRate" : 44100,
                            "bitDepth" : 16,
                            "gain" : 1.0,
                            "mixToMono" : false
                          },
                            "channelNumber" : "0,1",
                          "effects" : [

                          ],
                          "start" : 2328,
                          "duration" : 1576,
                          "mediaStart" : 34,
                          "mediaDuration" : 1576,
                          "scalar" : 1,
                          "animationTracks" : {

                          }
                        }
,
                    "start" : 2328,
                    "duration" : 1576,
                    "mediaStart" : 0,
                    "mediaDuration" : 1930,
                    "scalar" : 1,
                    "metadata" : {
                      "AutoAppliedSmartFocus" : "False",
                      "WinSubProjectDisplayName" : "",
                      "clipSpeedAttribute" : false
                    }
                  },
                  {
                    "id" : 18,
                    "_type" : "UnifiedMedia",
                    "video" : 
                        {
                          "id" : 19,
                          "_type" : "ScreenVMFile",
                          "src" : 4,
                          "trackNumber" : 0,
                          "attributes" : {
                            "ident" : "Aufn. 07-07-19_014"
                          },
                          "parameters" : {
                            "cursorScale" : {
                              "type" : "double",
                              "defaultValue" : 1.0,
                              "interp" : "linr"
                            },
                            "cursorOpacity" : {
                              "type" : "double",
                              "defaultValue" : 1.0,
                              "interp" : "linr"
                            }
                          },
                          "effects" : [

                          ],
                          "start" : 3904,
                          "duration" : 507,
                          "mediaStart" : 37,
                          "mediaDuration" : 507,
                          "scalar" : 1,
                          "animationTracks" : {

                          }
                        },
                    "audio" : 
                        {
                          "id" : 20,
                          "_type" : "AMFile",
                          "src" : 4,
                          "trackNumber" : 2,
                          "attributes" : {
                            "ident" : "",
                            "sampleRate" : 44100,
                            "bitDepth" : 16,
                            "gain" : 1.0,
                            "mixToMono" : false
                          },
                            "channelNumber" : "0,1",
                          "effects" : [

                          ],
                          "start" : 3904,
                          "duration" : 507,
                          "mediaStart" : 37,
                          "mediaDuration" : 507,
                          "scalar" : 1,
                          "animationTracks" : {

                          }
                        }
,
                    "start" : 3904,
                    "duration" : 507,
                    "mediaStart" : 0,
                    "mediaDuration" : 555,
                    "scalar" : 1,
                    "metadata" : {
                      "AutoAppliedSmartFocus" : "False",
                      "WinSubProjectDisplayName" : "",
                      "clipSpeedAttribute" : false
                    }
                  },
                  {
                    "id" : 21,
                    "_type" : "UnifiedMedia",
                    "video" : 
                        {
                          "id" : 22,
                          "_type" : "ScreenVMFile",
                          "src" : 5,
                          "trackNumber" : 0,
                          "attributes" : {
                            "ident" : "Aufn. 07-07-19_016"
                          },
                          "parameters" : {
                            "cursorScale" : {
                              "type" : "double",
                              "defaultValue" : 1.0,
                              "interp" : "linr"
                            },
                            "cursorOpacity" : {
                              "type" : "double",
                              "defaultValue" : 1.0,
                              "interp" : "linr"
                            }
                          },
                          "effects" : [

                          ],
                          "start" : 4411,
                          "duration" : 1701,
                          "mediaStart" : 53,
                          "mediaDuration" : 1701,
                          "scalar" : 1,
                          "animationTracks" : {

                          }
                        },
                    "audio" : 
                        {
                          "id" : 23,
                          "_type" : "AMFile",
                          "src" : 5,
                          "trackNumber" : 2,
                          "attributes" : {
                            "ident" : "",
                            "sampleRate" : 44100,
                            "bitDepth" : 16,
                            "gain" : 1.0,
                            "mixToMono" : false
                          },
                            "channelNumber" : "0,1",
                          "effects" : [

                          ],
                          "start" : 4411,
                          "duration" : 1701,
                          "mediaStart" : 53,
                          "mediaDuration" : 1701,
                          "scalar" : 1,
                          "animationTracks" : {

                          }
                        }
,
                    "start" : 4411,
                    "duration" : 1701,
                    "mediaStart" : 0,
                    "mediaDuration" : 1770,
                    "scalar" : 1,
                    "metadata" : {
                      "AutoAppliedSmartFocus" : "False",
                      "WinSubProjectDisplayName" : "",
                      "clipSpeedAttribute" : false
                    }
                  },
                  {
                    "id" : 24,
                    "_type" : "UnifiedMedia",
                    "video" : 
                        {
                          "id" : 25,
                          "_type" : "ScreenVMFile",
                          "src" : 6,
                          "trackNumber" : 0,
                          "attributes" : {
                            "ident" : "Aufn. 07-07-19_017"
                          },
                          "parameters" : {
                            "cursorScale" : {
                              "type" : "double",
                              "defaultValue" : 1.0,
                              "interp" : "linr"
                            },
                            "cursorOpacity" : {
                              "type" : "double",
                              "defaultValue" : 1.0,
                              "interp" : "linr"
                            }
                          },
                          "effects" : [

                          ],
                          "start" : 6112,
                          "duration" : 3777,
                          "mediaStart" : 25,
                          "mediaDuration" : 3777,
                          "scalar" : 1,
                          "animationTracks" : {

                          }
                        },
                    "audio" : 
                        {
                          "id" : 26,
                          "_type" : "AMFile",
                          "src" : 6,
                          "trackNumber" : 2,
                          "attributes" : {
                            "ident" : "",
                            "sampleRate" : 44100,
                            "bitDepth" : 16,
                            "gain" : 1.0,
                            "mixToMono" : false
                          },
                            "channelNumber" : "0,1",
                          "effects" : [

                          ],
                          "start" : 6112,
                          "duration" : 3777,
                          "mediaStart" : 25,
                          "mediaDuration" : 3777,
                          "scalar" : 1,
                          "animationTracks" : {

                          }
                        }
,
                    "start" : 6112,
                    "duration" : 3777,
                    "mediaStart" : 0,
                    "mediaDuration" : 3835,
                    "scalar" : 1,
                    "metadata" : {
                      "AutoAppliedSmartFocus" : "False",
                      "WinSubProjectDisplayName" : "",
                      "clipSpeedAttribute" : false
                    }
                  }
                ]
              },
              {
                "trackIndex" : 1,
                "medias" : [
                  {
                    "id" : 27,
                    "_type" : "AMFile",
                    "src" : 1,
                    "trackNumber" : 1,
                    "attributes" : {
                      "ident" : "Aufn. 07-07-19_004",
                      "sampleRate" : 44100,
                      "bitDepth" : 16,
                      "gain" : 1.0,
                      "mixToMono" : true
                    },
                      "channelNumber" : "0,1",
                    "effects" : [
                        {
                          "effectName" : "NoiseReduction",
                          "category" : "categoryAudioEffects",
                          "parameters" : {
                            "denoiserAmount" : 20.0,
                            "denoiserThreshold" : 0.0,
                            "noiseProfile" : "nSLOQHOBuj786mY+KhNJPWdAlDxJFVg8bU5HPcMpZjzSoMg7jOGyO80BvDtWMLs7ySWYO5qbNjvK\r\nZDg7HYTGOgB8GTvg3g07JrOvOm7U+TpBCf46TyE+O4shmzsC99A5LrJUOj+Txzm8NTM6GMu8OZSE\r\n2jlYBJM5IkMUOiF/7jku91A6GHuhOWHheTrK6S86JwFOOoxxwznx92w5hmDKOfOfhjkM7Cw5kF+O\r\nOW0eDzpRkFQ6w9ahOYn0+DmaRF45qM2lOemigjmcEwE5RIMSOZ3QhTkNKAQ5ceDvOJhBnTm7py05\r\nVtcfOd8xyTjIaYk5sfxNOfYNdjlAL/I4GMGiOEBTSjmaKu04NGgTOYwmOjmZzXA4PjgsOab2LjmO\r\nxQo5y4jtOEaWPzk1W9I4doqpOLYc9DjUWXo4pKmcOPp3xzhY0Ro5tXQLORNEYDi1mVU4C47cOMx9\r\naDjmoEA5KmSJOASEGjn8I1E5Clu6OOhRojh81VI4V2oPORcLFzliwOc4I/z1OF55NDmyZaU49IwA\r\nOcp7rzj8gVc47GKtOFJHfDgN3eA4ej1LOVLgYDiofEI4Y+SkOAt3ETjHRFo4GFEdONug1ThqTXE4\r\n1EI4ON5MqTffyts35pkXOMxxjDgcjkA4Pf0GONVepjeTPIQ4YMUzONBy6TfmKnc3A8fGN3ucnjdh\r\n25k3tTr4Nw0XMTiag+43gdc9OMCbqDfx8v83cNBRN2HDhzdd4gk4KNGtN+jSBDiGdg04jG6PN/GQ\r\nATgSrZA30dbeN1QWaDe0K9g3WJ+GN8PwijdGhC44LoHAN9rnSzf25s83Gv60N0svHDhCJmc3nzFs\r\nN4jEFDeBeGU3AQGFN1d1czfAUdM3KfEDOMw9ljemUtk3IfVKN7rK3jd0a703UJ4vOFjyljcw/qI3\r\nrh/XNx5kbTc7SGE3aVDFNz15njcD36Y3Zm48N18JeDczOYE3xNA/NxpWQjdwhb83rupINxj2QDe2\r\nnBQ3EdiAN75vLDfVcJQ3SKxMN8OlkDen5VQ30EORN6IFEzecXAU3cg9HN5Rx+TY30E03acOQN0fD\r\nUDe6CtY2TqmfNx8bDjcgI4U3wiUVN7QJgjc8Wn03IOs7N5a6qjeBhC43CWxiN8eDADf2bpo3ZgMD\r\nN0gHVDeGGQA3mM2aN9D6HjflVic3njDZNvZ+Dzcm+6Y3NBQEN7cFPjceYiY3BPXONhPe6jbsFKg2\r\nlxTKNrRj3DajUQE31voPN0t3gzc89Ao3mgUHN0vRMTezVxI3EJwSN8Z6pjaEzAE3MZzONs9dWTc8\r\nlOQ2fIbkNu4UwjfNIoI2AlDkNmUXIzenyQw3C0vfNlE7VjZYYpA3SDgbNwwHFjcIqMk2/CKbNrPD\r\nBzewdRo3HioSN03i4zaUhKQ2L3T4NqTrUjevYxs3QmA2N1Z66TYqmBU3MDujNq0hyDYw4dI2mG0W\r\nN8UWmjZ77+Q2Dt/mNlSLHzdkces20AUON3n1Hzfql3s3z0WjNxzTDDcuO8g2IESsNoMnFDelfv82\r\n69QVNxrcQDfwRIQ33GW0Nki+wDYEkvM2+fuFNlehGTcVmng2ECCoNk8KADeageA2/bXANhAdBDck\r\n+dA2YBK2Nm96xDYerAU3i/zINtwnHTcGl4k28mKNNkwppDZv/KA2KT1fNoJ2uTboS4g26b8LN76N\r\nwzY5Vvk2Rd/ZNjGLozZXvpg2snvFNm8vnzamIOs2qi4FN1Fb3za6L8g2dQRxNiCKqzakE9c2iUsM\r\nNlg6fjZSc/c2/ADyNunqRTdB5Ec2smagNlcsVzbK/4A2DNAUNybVJDYbi5g2j33TNtY+YDbETJk2\r\nk4YcNrt46TbgWM82gLatNvCSrza+9X82KeZtNm9RgTY9ALM2YRhwNoWEjTayh5A2Si0qNku4kDYQ\r\nsnM2d5VRNkZrxDbGLjI2tBqENiG7lzZg2Og2ffXQNrUMeDb6U5026JMQN7CKsTa4Q2I2sZoBNqg1\r\nlDZdSxY2jHNWNuS+/zbhg342W1EVNuT8MTY8xz02BWheNoOjcTZrT9s2vTu5NkDrzzYOdyI268A3\r\nNl1KYjbkDag26r1dNkkXpjbzvOg2FNVZNtIGljYWtWE2jW8LNhAKADdozIE2LRUEN/6tXTaM9I82\r\nMoPANrzTNzagMJY2zwn4NjGJqDZP5OE1g8VLNl7RmTbKDUM2oyYsNuB7IjaWLSs30919NnOULDYf\r\nbJU2alpfNhaEqTZVmXU22OGTNmEaqDZ8p3M22NRBNkezCzYJTLQ2+ttsNh2iijZ48nQ2xZClNtZ+\r\nIzZ4ta82CauTNp6KszY6GR82xecUNgkSOzZGKzw2nnNnNi9WNzYma8g1BbxYNn/sEzYONw02qoLw\r\nNjIwGDaZKRA2A0hmNoFvLDb699Q19OQmNqFqHTaIIgU2AVQiNianVTYWaRk2Lo5gNhyqvjbaEYE2\r\nsPaKNnicJDZEi702WzEqNonwaDa2fFQ2KfKNNn7yajYr/7c25KRKNlpQljawbgE3hK+UNn++DTbo\r\nHjQ2aIsQNoe6jzZwxVA25DFzNlDL0zV3Igg3XuaENrONljb5rqM2N5MBNi6I1jUHqTk2HSUaNojI\r\nBjZb/aM18X9KNnrzBDamYQY2ReMmNpiFVzWiAhQ2X7KdNfKYJzZqgnA2T4qoNWozrTXtQOE15q/t\r\nNcF1ojWl1L81PHpANuTdsjZ2bMY1uDH0NY72BTYMsno2uOKCNd+2HDaeVec1HhdeNtoU9zUAIM81\r\n4hruNbhR9zVRdfY1GS0kNpwwLzZp2801MP7MNWA6pjU7ygk2/90nNuy1BDYFoqM1xfTLNdxShzUe\r\nItQ1+tLYNTDFtTXa3QQ2i8dkNf7CAjYLqyw2BNutNaB3azWwoaw1HVi/NUTcDDZuvVw1MkjgNUqT\r\n7DXhCK01hrP/NRztwjUNPqs1PmqDNZSU7jU0yck1JcTgNeSPgjUG6sI16Sf1NY2i+zWQR2w14Wet\r\nNUzJxTWwt781i03XNTzgwzU21Yw1PtjDNeL5zjUwcZU10+vHNWkqBza1IOc1kMjFNeXmlDWKihw2\r\nCigyNqzsNzWF5qw1GESPNc4lATbwCmo2YrLsNbb+0TV0a7o15EzCNbfzCTYILAE2YFLKNfzPozWY\r\n+v81GOsBNpJamjVu1HY1sFy4NeXs6jXdbhQ2+2wCNl7+/zW03pM1qVIYNe7GpjUqQIM1FB8INh6q\r\njTVtlJg1OMMdNnuE6TWigBc2GNqwNUjr0DW/Ut81PQSYNXEliTX0Slk279gANlxWaTahzR42p4z9\r\nNSaGFDY4ems2J7dbN/Xc0Db7bk827baONmngrTZaQUU2dGwNNoaeKjYZ8AU2/JT2NYzIhDbM9rU1\r\nD0PBNcyooTVLO0826rZFNvieMDZv65o26+hyNmBwezbmlSQ2FpAFNsP7HTZCS9Y1RsEFNt4N1zUd\r\nSco1yv2zNjR8Ijf6vLY2hPIENmy4pzU9Mis2XoDENSi3uTXMw4M1VvwYNtNO0jX+ycM1PAMONhBv\r\nEDaYIKo12uaMNgBi3DUAkKU1LuqWNd/YZTUGHTc21miGNqdRHDZG83s2q65EN1eswDaWXVU2uvmO\r\nNfZt4TXzm5Y1GltANlq3ijbxG302uBtrNkXmmDb5nCY2JCOgNmqVHjYDZSg1hCDuNVQiWjbvouw1\r\n/g96NgdcHDZqFkA2FuwVNrPzqDbY8442sW4rNmYNrDVSgyg2PBZNNhqEqDWujBg2tqoRNiKFwzXi\r\nLi82XmqqNS61bTWoz1o1G1QLNgNurzVTtLo2Mu4qNv7iOzbeIK41tbtHNuiunTa0vZk12c9wNlae\r\nIDfmd1M35FlUNsqupDaJeFM2zC33NRcwGTa8HUc1eY0AN7oWVzaQpu81ImZxNk/trTYXDkg2ki2M\r\nNuB/NTZeYCs2BWOzNqtJXTY+ADw3aMMYNzKIszZQsdA25xCsNSWaADe80pQ1TnDPNbgKijWC+rE1\r\nizzNNZqg8DXAPdo1CANANZK98zXuAYY1uT6QNeujaTb8F4I13dOCNVAekTU1cmI1hdhtNVW7YDXy\r\n9pE15U2wNW7zLjV1FLE1/Af3NTA1HDbiajI1lkOtNQD4ljWpq1w1nqbDNcwYjzWUlJ41I5tMNcS6\r\n3zWryZk1kZOgNS4MqTX1pAw2OC+TNVFYoDWnWec1gX8qNSTEgjVtJbc1iWUWNgZPYzVIgO81bq6D\r\nNf/V2zWekoY1Ue58Nd/jpjU94iI1lQ1ANWPwpjWuCms1cq/HNbl1qzW7hlE1boN9NVWOSzVinuc1\r\ncFOMNcglLjWiSIg2GtD2NlpM9DbqRZo2KEyoNnmz1zZQmyQ2I9NTN9yiTDd+r1E2MYv/NpF6UDY4\r\nV9I27P6PNuT6oTbG9RM3QALhNmpJ7zZjyQc3VD9tNgzHWTY0ULk2sBiZNjbyLzZPj4U1+kFENQ1W\r\nwjVCCWQ2IgJINhEJZzb2gDY2UnWsNvCPPTeEkzI3TGSlNaV00zWQ92U2vWlLN8fNdTczUEU3ay7d\r\nNlt6fzfJSdw3UC60N3WHFDczz4o2YGLLNckErTe1Cw84zx+eN6DiDze+5M03wXUMObo+kTko3+w4\r\nBI5YNyiAaTfKRGw37cYtN59NDDgvUok4NtblN82KIzdD9BQ3xNmaNj8qszVrRbE1ciUJNjxsmTUI\r\nB2o1zRzRNfPJsTVbhiY2Z2hfNcYKDjX8IKs1k7h1NQT/fjXGQoI10LswNcGvgDWd9Hw1CGCgNf/o\r\n4TUucQQ2f1K1NVOWfDX97G41tMBQNT6mUTXILZE106MlNfwzezUdnYo1Jdm+NXBn5DWx2uk25Oj/\r\nNpKdFzZbeLA1bZieNUQ6jzXOY0k26NfdNlfRDzcS56027a8qNkL19jVxnxs2mEoRNk7VfDVz9jQ2\r\npllzNrGI/TXbopU2AMSZNsDkmjb9Em02eNiSNpRoLTYZVWY2rnOjNsIXhzWzLA826j89Nkq8UDaj\r\n1YU20lukNk4ZLzVlYS41QDq2Ne+mCTUvlBQ1vCBcNXpAlTX07/E0qig1Ne5m0TWZ2pQ1INNVNaz9\r\nODVgWkQ1d943NbS7azVUaTs1V/G5NaqlmTU4Bgs1k+d7NcxxWTXfMoo1rU54NX6GvTVpOU01D2yU\r\nNQIlFjXgq2812/+VNeitMTXiaXo1VftlNW+TXjUGbbU1ARFjNWqy7zQJBLw1JgU1NeHvVjVLjyo1\r\ncQm2NSdmgDVUMj81ZifZNJ8sPzW1wRk1dJ67NZYLwzUrgSs1+qaDNVCkUzVRhFI1o151NUk3fjWO\r\njbQ0dDRPNQEyeDVtuJM1kK6MNfVSXjWrNFU10hRSNQlzyjWeN5Y1XyWONdNOkjUXoTs11KpbNQw8\r\nETXrXos19NdmNb8JqDVqzN01jRMcNZ70NzUAkp41ra6bNS9rhzV2pig1j8SDNeCqbjXluJ01zVEl\r\nNcKclTUVDLE1CCakNR7EgjUD+5k1EiE6NfVngTUEZ4Y1XVs5NdSyQDXKPzM1js04NQAAgDUgkKI7\r\nfkUpOsyqjTpuPpY6wranOgmwwzomQIU6StrAOk0mOzpKVyY6i1WIOopqvzrSqnw6tIZcOj/BujqO\r\nC2Q6amXTOrEXnzozwLA6UDFpOnwlBzq3FrM6O4RUOjgcMjp8gnI6TsNiOvXR1TqrSns6zuYCOk13\r\nIDpOiXc6m/rJOtWsjDpfzNw6Sga9Oq6yOjo5tHo6FsyjOnxZdDuBmnU6Jio5O32e1jqqyfU67Ai2\r\nOhakZzq+JtU63XqJOhr7Bjq2OuE6AJuKOvTYhzr2sIs6JFsbOgaCwDodc+U6BVeKOt9Y9jqWJ8U6\r\n4jM/OvQ6wTrLnXY6kGigOiLyXjrx+5E6faPYOuc2Pzo0vfQ5TazgOlCDHjqyu0U6JnOsOsCLtTog\r\nXpI6HHN+Ok4wlzrOcj066k6DOgatIDvU2a86Q71qOl9ukjpkHxY77a0mOpelrTqI/pA6yj2EOp+W\r\nTTrP6pc6/0o+Ol6RkDq3MSE6ga09OvP0YTqDW546asOzOs5MvTrzNQk6UldsOqNJlDoGhos6BwTC\r\nOU7zmjrjljA6CIkdOv8ESTq26T86F4SAOsxtlzp3LgQ7UMiYOqQ3XjpszWY6MjI9OtphgTruI646\r\n7ct0OtjzfjrCaqg6kTcNO5GUizqqTTY6yMGfOmgR3jrsWH86OV0FO6MWizpICWA6ecCBOkKv2Dp5\r\nMJY6jQiWOvM0AzqMEmA6Rbh0Og25gDqoDkg6mqhrOlYOaTohQNU6ZGwcOnm4KTrgBmw6gvEqOg6y\r\nazro3qw6kiubOgh5BTt0j4M6XkbLOt2VWzpaXKA6k13bOgQffjrIBpA6RIlmOmDgdjpPjng6KCXE\r\nOhGM1DrA3lA6OoCPOrZfnjp8FCI6wOdHOoijrzrDG6Q6GxdgOtbC1TlP0HU6mM1+OvrFWDrCmlU6\r\n3wFZOrCgETriyQo6zGZoOlByZjrsGUg6h2kUO0W2pDoz+Ls6EjgyOu/ElTpHyjw6o9WHOnD0Ozqq\r\n6aI6p00HOn40vjoIH646kVyHOvgsazrA1W46JBCqOpfjqzo1awE7QkOgOgbwwDlrTTU6kPqeOlgc\r\noDrK85Y61W34ORlzIzpB9GI6FPS7OgImIzq4tLA64QSsOurMRDrwaRg6V5WbOnui4zqG/Fk6jSeZ\r\nOqzg+jpk0VE6ggiQOmoPOTpfsM06aFVmOlpZlTr7pn46pJHLOgJAlDpyJlE67El/OoOf1zqpemk6\r\nBFaMOrMejTpykUA6UQtBOuXQRjpYsoI67CxmOngZXjoX7p46Sv2lOqMckTqFT4I68VWAOrfckTq6\r\n0YU624yrOrqrhTqkCiQ67xJ5Oi0vrzpmlAk6Fw+ZOmAMlDr70wY7uUxgOq+H+zp/LGQ6mAIYOlkI\r\nlDrwD3s6fSm1OpBKgToaCo06tl44OjMUzzrBjKI6zvDsOXD7dTqPWDA65FmIOtEpijrWdIY6JkWJ\r\nOn/svzomLac6+ooHOvZJgDppikQ68NYUOjhnQzrEFTk6wETCOuLPXDrIWFo60EJuOodfgTp0EZU6\r\nCgpQOn1jAjqS+Xc6kR2OOhL5pDr48b46QB9TOhDPsjoEzkE6+XqyOr4rsjrKYo86epSUOmjftjo9\r\nLrg6z4BtOpHMmDp7lx46qcqiOoyQJjqiip06etk5OqYhiTorpUI6opmWOt4twjrk/aE6HNFbOrlo\r\nLDr5wxE6+ACeOghVvjoez5k6Vp3TOpkcgzpnexE6fPGPOsYtoDprtI067QxjOubdlDpvGnQ6fOA6\r\nOiEFYzoCXQ46j5CqOoKFajrdc5w6MOSIOu6GyDousSU6sN1POjErETv/SCM6WsiCOgvXPzpGLh47\r\nlFnBOm8FqjpKRVo6xa9lOgP0rjqaNFE6D9zPOslpaTrej0I6CgluOpFcADreGWs6xiaIOl1G5TlK\r\nxlY65wqDOuzOSzr4HIM6azYfOhR0KTqJezA7fR44OoiMZTojQIg6GAZ3OvuUpjr7MaE670ZjOlXO\r\n9zppW7Q66dpHOiujhzorkWM66YlUOn/5iDr/GlA6GfCrOqWssDpCxx86pIhuOj7p/zm7rH46vUUs\r\nOv2rgzoVaUA6yJKQOhndITqGQs4640aeOusPyTq/6GI62nSZOs2xbjpuod45KgB0OtI7bzqyrZI6\r\nXxOQOjRNlzowiXE6GYx5OgS66zlmTHI6XeOSOjBIcTo5VG86+BqYOkCvAzpiUp06HkqBOqa2uTro\r\njGk6bl7AOrQeZzow06g6onFMOjGxkzqRM0E6xAGYOj99gzpwAIo6Awh8OhYsjzpkGZc6fogbOh0l\r\nkjr/HlM6HoGkOsRtWDrzIpk6FjuMOna6IDorwFw6k2HQOofXATsBtEw6XzSlOlsxfDpetTQ6fbSk\r\nOuY/dTpiO/o5cQOPOh7LsTrF8mk6J/JYOqi0Xjow+8o67nBjOptRbzrS/yE6hP+WOuJzlTrqW5Y6\r\nlxqeOpVBWzpuVzE6GqlEOvUbgDrYza46ZmOEOhW5njoawBs7DHnPOkRbrDqmlQg6t319OtRbXDo4\r\nKqE63qROOsgklTpssBI65kN1OpX7jTozCI46JucvOp4uYDqv5CM6ytCIOtC5wzphECo6hUA1O0Mw\r\nbDrl2WM6prb1ORHHWjrEvWQ6+qE2OgcMTzqyUUs6iwR8Ol2JWjpYDvY6tKhEOhe3ljr+nms6o66F\r\nOqpsBjp4C5E68j7BOm7AqTqOsxg6lLBeOrkVizo9zAc6d7lQOnVfPjpwFLY6vw4wOkBgIDpULjU6\r\nDl5HOustrTq4UjA6Bs8vOiMpjDrXQHc6kV94OkbAvTqT/Io6w2R2Oob6UDq60KY6MEWrOg/LpDpu\r\nBTM6KnL7ObgxjjqTMGM6uvCxOsbvajqEiMg6kPojOnvKPTqhuOA5TOxjOtc/WjrqxOA6EmE9Oqdv\r\nmTp6TEI6ejR+Og63hDrMFiM6fsNsOnHyTzqqbNg6zMqVOkzjmDp7j9M6vVs0OqDNeDrhs2s62DAU\r\nOk1BAjoax3s6hp2uOhOBhjpYD4s6OO8POjGmXzrcpD86HshKOsmNrDoxdYI6iaV1Onqi1zpeY5I6\r\nCECMOprWmzqLiTA6d9lgOupnmzoPa9U5jOuUOrIzRjq2Wcs6WjUOOt9Hujr5QRo6eBFfOvqXAzoT\r\nV4466k6WOpcPwDptgSc6hkrLOdKcVzpw5gE6oIWYOrWtCjqK23M65/SAOmfkUDoHXX46lPaNOv4A\r\nRzo9kZ865g7HOlMoiTpGhSQ6jrRHOhqYWjpiYpU6PsPpOXwFFTqwLJs6yB2HOj9yCjrqJFE67uwB\r\nOsohVDoomlI62OcWOunJzTq0Ehk6vEvbOa10Ezp2SGE6Yd/XOZUxIzoPMW06QIumOuLA1DkqcYw6\r\nh1E9OqAnGTpmPIs6eFZPOsWuXjorgzc6vu+UOlRpqDoktEI6TuEDOtbnnzlJ1Jw6DAzNOmDdLzoJ\r\nh0k6yOBBOh72yDqxMIY6ho+JOo4aVzoesfY52pPDOjkt5DqAXk06qnuUOsKgHjrZ9Bk7Fu6qOkyl\r\nIzrgjT86xt3MOlf4HDqnc9I6oRYLO0f7kjpa9Ss6to5MOlcQaToWFsA6ybmgOqFKPzqON0A6B16V\r\nOuvSVTr8uTw6Rk+ROji/iDrktls6VJ6VOgEtPDr5S047txPYOi9tLTqGqkQ6CaS4OoKh3DpPqSE6\r\nC0qZOijWrjqf+Qo6ALIpOt0R2Tr2jsI6ChGOOg26ETrdYZQ6FqVAOqL8zzo+iUg6v7JNOqCgbTpe\r\nh4867zYAOjT/qDoCrio6yHWsOiNtMTqlZLc4A2nlN7PDRThuG2c5ZhwCOayO3Tj6rzI59O0zOjv7\r\nQDpHPaY4HowSORZy+TmjPMI5wHlzOQmkajijTGw52cTeOYWA5zgkK4c40cxeOQNoBDksri84uhVl\r\nOcw+uDn/u4Q5BsC0OV1pKDoIewQ6+1qEOdtm7jmWJE86XmfnObaNNDYTRyY24O5lNq3VWTbsiFI2\r\nWYcHNsoaHTYVxgE2KrEtNpEX8TXEKgA2SLabNSAXlDWZkgk23oiPNfFpoTV+dfw1ytaoNYFPnzXa\r\n3MM1zMXvNZIjpDV2rSE2cUGNNXDBmjWrTs01U+rCNY98kDXKKac1F/VsNblYkDV1gc01tOXSNZZl\r\nnTXGiKs18oeaNQgeADZOP4U1JKCcNYNHqTUTnpc1FsrYNa81ojVFMYc1fL+dNdDekTWAAbI1JtnG\r\nNZnLyjVEmoQ1fHdkNVTWmjVKdYE1DPWJNZDURDVmys01Zs9aNWqCxzUPApI18FWCNRl6LTW/O2U1\r\nZGKtNVYYMDkm7bM5sS8YOrX0BDr3ALE5Sp87OQzBnDnA8BU6GENqOgd0JzrVkuI58rMoOexIuTmj\r\nUfo598JoOmOQJjq6gOU5u7FjOQPXuzlCjCY6IoXBOWiUDjorh2g6VJPYObfmvDgmB/s40qtCOQfj\r\nQDmAOaU5DWfWOWpOtzmw7WY50oYoOJJZZTcH3os1UkzNNo8fVjegXyY3o1WUNjdyNzcNkIA3xyCH\r\nN6k5jjfAMY43AGaDN/gqhjaQVz82igxNN32xvjcMw3c3Iz0AN00hZzenfxg5756KORn4BTmlPZ03\r\np1vDN+6UWDe9a543jj++NxYfqjgSFhY4BMCAN0AkJTdtohY3qUSNNWbVOTWlpx41wx3cNSKZejWL\r\nP9I07QMSNYVJcTX6YIU1QzUoNbcsWjWCQ3A18MChNebhdDUUY5U14LSmNY0QTTX7tUw1emKKNUGE\r\neDUKE0M1pSvXNdrnYDViexE1giz7Nae9GTUCs5U1+E0kNdNDDzYQvmQ1q8uwNZPGkTn2IRA6AcIJ\r\nOtEMjzmnTEg4Bw28OLWaWTni41c5DMWDORDG9zmw+eg5CkW9OcfJ0Dnozms59m+VOfaUMzoDvCk6\r\nhj/nOfnCRjkwZjc6aqU6Ogdh0ji6XKU4yquCOagHpzkS9dg4XpklOfR0/ThRqTk48nFgOVwwkTm8\r\ntvY4QMfoOGT7gjU1lhY1FLTyNR4WfjWsRWg1wKhpNaM8eDUTSLo1rl9oNbSrIjUD0Uc1cvZeNagw\r\n+jSLYm41EXqDNdYq4jS1hSs1YE9fNbESpzXj04M1OKNKNQvYIzXRSS811Wg7NWLm1zRlUTM19yko\r\nNfKUNDXJAy41ZfdhNdQPjzXuaUE1sU50NesjpjRc2gM1j+EFNa1QdDVk4+Y0uDBNNRgOoDUsejo1\r\na/EqNXC57TR86Fs1BI4uNZ7PEjU/L6k09SYGNYTYEjVxlPk0RQTpNBY1izWomUg18S4JNYdLFDWL\r\nrRY13CziNOXSDjXyK4Y13EXeNLTrUjXMP/I0LM2HNca7GjUTXYw1P/j4NCI3GzXrdgo1hsyZNex+\r\niTVKGoc1plM5NVR0VjXbJPw04N5bNSvHbjUdYQY1TGHdNEcvQTVm0lQ1O5MYNb53CDX89YY1NtcO\r\nNX/nGjUqvV01WdhtNc7gmjU0nzU1LQFVNTceIzVA9jw1AO2sNH4ZtjQAfbI0AAApNQ==",
                            "noiseTrainingType" : "default"
                          }
                        }
                    ],
                    "start" : 0,
                    "duration" : 1287,
                    "mediaStart" : 57,
                    "mediaDuration" : 1287,
                    "scalar" : 1,
                    "metadata" : {
                      "WinSubProjectDisplayName" : "",
                      "clipSpeedAttribute" : false
                    },
                    "animationTracks" : {

                    }
                  },
                  {
                    "id" : 28,
                    "_type" : "AMFile",
                    "src" : 2,
                    "trackNumber" : 1,
                    "attributes" : {
                      "ident" : "Aufn. 07-07-19_007",
                      "sampleRate" : 44100,
                      "bitDepth" : 16,
                      "gain" : 1.0,
                      "mixToMono" : true
                    },
                      "channelNumber" : "0,1",
                    "effects" : [
                        {
                          "effectName" : "NoiseReduction",
                          "category" : "categoryAudioEffects",
                          "parameters" : {
                            "denoiserAmount" : 20.0,
                            "denoiserThreshold" : 0.0,
                            "noiseProfile" : "ndMKQKkTaj6zK5s+gvPGPEhOaTwWhRw85ygrPAJj/zvWgrA7PiqEO8INIDs7xbg7KA8PO2c9jDqD\r\nsM466myWOqTCuzokD7E6dLSCOmKb3DkQO8s551ntOZWNqznncOc5A/npOWhjnTkdy5c5m5yTOW3N\r\nojls18g52+qCOYv5gTmM83M5Paw/OS0lrDn7DDE5PB7+OfPvGjqY64w5YnkmOXthHTmNu4A5m7GT\r\nOXilBjkyjV85zmSqOe+IrzlKqIQ5YLGDOZqpMjlUQ884nEcmOXy5wzgKZUQ5Lvq+OGp9bDhOBVg5\r\nZk7cOUMuZDnkGnY5n4z1OHaYXjmv6zE5K7WfOOqxqTn0upM4nKemOBexAzk3cyA5resSOcFLmDls\r\nULw4CDclOfSEozmCnQQ5BQAKOX9KsjiLdbU4/9OrOGFEJDnkK2M5ZJCCOHx0gjhOh7o44BC8OPJ0\r\nFTkStg85FCCoOLhQOzg3u5s4is/SOM7mHTm4aIc52kAkOSg6bjlgwuI4JdmnOWnLCDmwd/g4oiYd\r\nOnAA3Tg83AE5CnOvOMcW2ziMiRI57nbXOUrcBTk1g1s4OQmsOKwvLzkpBYM4GxhIOGAa0Tijf1E5\r\n6k9TOBkKmDhMslo40N2fOMr6jzgU1SQ4XS5SOIemuDeppQo4+vWROHSA0DeycLs3bt1aN5GirzfX\r\nYlc4FVQSOPkawzdxSOE3YBEBOO1Psjfycp836WB7N2X6WTiJxiA4z/mGNxD48je/tNk4syh5N5lP\r\nSjjOM883O4mmN/4jijc6uYw4WngGOP01HDg0+eA3jq31N6cZnTdt8s03t7iUODruXjjUQFU4z988\r\nOC159zd3Cao3YghNOKZKkDfGObA3p2qJOD4HozfAUbY3scSFN8N0mzeo3xg4XFOnNyJNHTfBh3E3\r\n+Ml0N6yVYzfUoIM3wYyaNz1tITfQipU3rwCzN9HeijeoDiE3dfCCN6FaHTfvYno3ZuudNyrpkTfj\r\nIDA3UP+GN/GSize7gwU3hNIEN2rA8jYKZY43eZj8NpskuDdAQH43ynlVNyBfJDcHTyI3uqyINxau\r\nLTeUXAk3EgcmN/GDsTeF6ts2diqcN0MUYTchaIs3tL4HN+1KXDfCq0s3tfy9N4kV/jZmp683G2vR\r\nNu7jijdhyR43KPR3NoDF3zZ1juI2vxkpN0+4CjcD+g831YkbN/ol5TbqW0U3OWxDNz5glDZLDHo2\r\nWSNAN4MmCDfQvAA3fsAAN6nUMzfKVQ83EJscN+55BTc8dMY2oqEqNxJ96zbyuZE2e+k6N/ocITdq\r\nfLY2Cjm7NjAQvzaXhrI2sIRaN0q5IjcOx5s3XOUmN7GcJzekOnQ3B7r5NqaWkjbSw5A2wcPLNt/i\r\noDY7mbc2IEUDN6vCRjYNZY82U81iNmHGrDb50nQ2jYw8N0cZKzcxgYU3gY+SNjWAETcflss29qSW\r\nN0Ip4TZJSLw2EqqvNq2CMjfeiv02AxS2NmHkzDb/qQA3a27bNr7Q3Dbu9bk271imNgqxkzacrP42\r\nEDlxNqsO1DY27OA2lqkpN6j71zZk/is3AsclNu8kzjbIzNg2MkW1Np9SyDbV7+s2Pfx3Ng+Czja8\r\nQ702XyibNqW5fzYmOUE37un+NtFukzZTUPo2FKaINmPJojbVPo82S5uWNpyk1jZKDIg27xsON4Di\r\nyTb9hE83ToTBNgG6KDde5J822DhWNyR13DYoQ/s2+XUYN2y5pjYflCA3yjMkNzNhfTYS6v82W1PZ\r\nNqZy4TZf7qw2/OJJNlUthDaim8E2vV7GNnQi+TZymqc2LpOjNjP3YzbhwPo2+6U0Nng3hzYLvq82\r\nKFiSNs5DpTa5zsM27d5JNkCzojXWLpk26p/qNvATfjZIBRQ21CenNt4sljY3kMU222mjNvQ/GjaL\r\nB7k2T5eYNqrjCDYMprY2f+zTNu46LDZNrhI3sPBYNo4aGDeyoYU2VtmjNnrNbzb65o42rWdnNkyS\r\nFTa4/M82dfCUNjDTyTWosU020r1ENs6SQjYjmV42jy24NgcfajY5/DQ2lK2JNuLY/jZgQww2vzF6\r\nNlAxazaGWUE2x7abNgbcNzaVhwk3twCLNr6oJzaOpAI23eAjNrAfizb7Rys2qOcMNsg9rTbR5Ds2\r\nJEIMNrM7OjZouwo2TOvgNmEUhjZBH2M2SjlQNvE44Dap/3Y2FT2kNQzOjzYkewo2LspRNugldjYe\r\nkfg28s2gNswFPDYImIU2QoPGNg6XbTYIw242WWB1NlbkWjWhue42ElWcNvxSgzY9mAg2n5ksNgQ6\r\nkTbmQoE2erBUNss5KDbULCI2rQq2Nd8d4zVfUiU2kTWHNnxCkTabVGE2nWOtNlITMDaGxq42OGqg\r\nNs/KCzZ6IyQ2zoRpNjGKozZkZGc2ZOhQNl9lfzYoNBM2EvceNnQfZjWm4dg1USi6NldFczZqX0A2\r\nVkP+NXeBLzaFgIY27zAONuQJgzb0xBU2p6ZtNlz0DjbgaZc27BNFNhQyaDb5YyM2jlM+NtU0hTaa\r\n2ng2AJ5JNrYzVDaQ0BA2LBlCNiyUozUQAGk2lo4LNjO9bjaKD6c2K485NvbLejWI8ac1dMq9NYVK\r\nYTXjNDI1oLnRNW0SijUajCE11+hiNS6FMDXE3qI1qFhkNdrU1DWpT5E1F7ePNZRAjTXYyz011UVL\r\nNewHaDUgXkA1jPToNQZneTUN7oM11nRcNXCDGDVBMiQ1NS5XNTtIwjWy+7o12PWWNTZkhzUAgLg1\r\nI7t7NXH7EzXJraI1JLMhNX5uuzU7W1Q1r+xMNdoJWjU1XJc11VKANQRCsDUYPTU1yXonNYbG9zWI\r\nURY15Z6KNQurGjVaJ5I1+DOQNY1VaTU2NpY1xViBNYtOfTXjlCM1OG5wNU7uFTZGNHw1EKUoNUWl\r\njTXhmek1gq4xNfWIhDUYas41gb+qNfl94TW/9Cc1benmNQ6FETUopz016X+NNawxSzVUu2I1FEBY\r\nNR8qLDWegHc1sGqINYPoQTVgwV41P/v7NETYGDUAihg1N/QnNSFIhDUxHSs1Pzh1NZcPDzZx7ZI1\r\nJ2gsNfuXZjVY2aU1pWd4NW/8MTWVLV81V5nONQRZxDWP3pc1P0qeNXhdkDXvqgQ1wi7BNYl/lzVL\r\nMQQ2u7yLNn+QqjYltt81YkeVNaQyGTY72UQ1K3pCNpX3WjV4NDI2J7bmNaPK1jSS7IM1fGalNd19\r\ntDVpAJE1JooJNoReWjV8fCA1KCP2NA8y3TVhMi41FWGDNUSHqTV23Ls1nxQ8Nva4/jXi3ow1nBsq\r\nNW6lmTXCGVk1dCITNfTk8DRPD0M1ViDZNbiikTV8KSE1EzmaNTDu5jUapAE2EntoNugm7Ta5MBQ2\r\n2LukNUSNlDU4p301db6aNfCChzUgRZA1UnFsNDaqjTXIcnI1xNloNeyDXjUIOcI1kFIUNqGkmDVI\r\nMQ82uPY5NsxWEDaYRQE2BnPkNbX5XjaUsbE23L9MNi+EIzYf9IA2+ELuNosOsDYhNVo2ElqqNlKK\r\nljUak481DH3CNUHAIjYibKg2eH3BNljrOzbso3M2xBrsNTjBbjW+QEw1vx+TNdyD1TVmESw2LUsN\r\nNsQDTDZyTBQ2OuF7NbXjYjVCTH41Q+k1NYjhsjV5sFk116uPNZzrmTXmD5k1c39SNTiyDjX1bXg1\r\nouk+NmO5jTVazLs1AVNfNfdCJzUXtAQ216r8Nc45gzXwbn41WtI5NRfxzDWAuck1Fo4WNU48NzZp\r\n/VM2xEAqNYDvXDUUnjg1WsG+Nc4WijWfomU1qGgFNYhemjXLdDA1eUiDNTwYXDWsD2418MtMNZHq\r\nCDXvgBU1Q+2QNVo3JjWvFC41RESiNaKyXzWm/1U1P3CYNVVdiTUeUSk1HeUiNXhmtjVvmAs1ytuG\r\nNXYDJTVM/3k1SnkYNacXDDWuc+M0NXU8NZ0v1TTi+JA1pnZgNXzDADVOlIo1X/BuNaeJCzWrLk81\r\n7HxHNUSChjUSGqA1hkGGNU7mazUidgw18oYRNUQZSjU6Bog129KkNVNVRjVkcxo1DO9YNU6bdTUp\r\nAhw1thl9Nex4UTWDyz81Z1MRNbl+ejVi8xI1LF14NR7DhjW3+yw1W0w0NZpDQDXyhjM1aircNU7/\r\nDTYSW4g1ICiSNtlfxTaSIoM1TB0mNhIVDTfn4rk2RsDfNpMDMTa1Yow15lOxNbvkxzU2ElQ12oH9\r\nNmWltzYQE9U1L7j7Nrs/KDfRrlQ22n4tNmzWoDX0JqI17YRZNveSpzW2f5I2WNqMNlO+JDbITl81\r\n05UwNnaCxTULJus0n5VGNaRVBjVR04w1d90SNQMbBDUtBcA09TBpNbcApDQKcJw0Th2jNaQKnTS/\r\naSQ1twcFNcB1HzXGaOI0aGMYNaIzXjUu/R41486UNUHuVzV2gBM1veqINXJPujXYHBw1DIX4NFNU\r\nUDVVpUM1xTDtNC7aMjU4DAg1U/lFNQUzJTXX8G011BAuNWVw7jRP6oA1rs8HNUTqsDUaPrA145wR\r\nNV6K7zRE8Qk1TG4tNagKCjWAWNQ0veqENVsmWjWoKf00xC/9NGOLlTUokGc1CJpONSdJnDVOFmA1\r\nTHYNNR2GGDXqG9o0xjH6NDMoODUhg8U0hMjWNH5EijXY+Sg1xAdZNXUOazVg6Hw1GpH2NO/5UTVu\r\nvCs1VRusNXUQUTVvRx4177ZnNbetXjWnEis1vagRNUmrHDUQrgs10hVENSR+STXN3y81hz6BNYi/\r\nfzXfCfo0xtZZNd+o/DR3hv00d1cqNSZJyTT8PQo154BjNfTUHjWpLAA1F08CNacCnDR5+b41gr84\r\nNcDtXDUWM0I1D+KrNYJZDTXVGWQ1/q0qNXDNeTVLKAU14IA9NRT9DzWSRRc1XC6rNAay+jTWwWI1\r\nqBKKNZrnHDUQFhc1uNUINS55NDWsmMY062TxNNMeQDWpKJg1kA2fNUobYDWxVEY1IIVaNcuSMTWm\r\n1jo143SDNdoiIzVnBiw1vcFGNbsD0DSJznI1jg79NNVYyzT2oU012ccINfwTQzUDjQQ1z+wbNZEe\r\nDTX+aFo1nI+dNZqClzUCrLE1Unc7NZo/0DTHfx41Mi81Nb/dDDWpfg81MKa4NEvsBTV0kCM1HOM7\r\nNfjDSDUTaUU10h9ZNf2iPzUNuCY1ZOI9NRxGKjX9VCI1Nts8NT2Z8zSRbqs1R0O5NXsRlDX+diY1\r\nd5mTNZhqHTXfSOk0zL1NNUHJfTXjgvo0Y0JBNTrzOTVPSws1GoRvNcfSFDVyORc1VmJ3NbkI3zQ8\r\nHhY1QC5BNe83FjW23101T+TCNBZjNzXqMjk1fD9LNQ1Y0TTKDAw1Gq8eNZt2sDXllOQ0LNflNPT3\r\nyzQ4jKU0XtfENbY0GjWe5C01cPrXNLExCTXQMCI1CXkMNeQVYzXcfpo1AzgANhatHzWrprs0HXyG\r\nNZ7sITUun7w0qc8yNbN6VTWmTxE1NhehNfUNDzU0vhs1fk4yNVjyDTVaGn41M/Z+NQCAkDUZfig8\r\nDhXVOrZUrjrUpKQ6GNlvOpK4/ToUDVs6ZURcOpdZTzq758E6As2qOnucnzp2n5Y6pDdXOgKtGTqM\r\nmZA6n/KkOr4YNTvCHlo6OprVOmntuTpXNS06uW+/Ousy3TqK/KU62CiNOmOh8Dpv0lY6+HSVOsDM\r\nfDoJFoE6BCf0OtKKuzrWFKM6A2CtOluMdzo0goQ6MCnKOm9Cqjr5uLg6MBqROpLu5DoaMbg6ArkW\r\nOuJDyzqQuao6Nci1OlGk0zr8TgA7EnWmOXKn9zqpZKA63VxyOjCB5jqehIQ6/FSWOsnmQjotAlc6\r\nRpSpOv/CfDrsRI8687fEOlvijToIcqM688IMOpoXaTqclJc6WoaoOuoQrzrSREo67KZzOojAUjog\r\nF2E6DJFwOnyNKztut3Y61gmeOnH5BTt1v7I6hqlfOoD9gDpUKLU6EymWOntLrjo+CZQ6/icQOlQI\r\nMTpwXIY6dWBWOsvjEjvfzt86kCKsOlOrFjv7Dno6On8dOuUkWzuBQYs6OiCcOhvSKDpZz6I66gUH\r\nO08pFzuNzx06vGfEOuaDijoXJyM6zSjFOnYpujpY9Ys6OVGeOiA8+zlO0kk6I7wXOskghjo5S/Q6\r\nkmOFOqbCtzoK5Vs6vLGpOoHRDTtT92o6tgWwOQMCIzrQZog6kcCJOqyGWjr29rw6dgEYOlFUfzpD\r\n/jY6tjN1Om/RyDqzXoY6hApfOka8ljq1uBI6AjGDOiyeXTo+CHM6dKlMOmCgDzpotZ06CwE6OgkM\r\nJDruVGU6wLHEOgot6jo7Il46d7VCOjjvRzpFamQ6EN+gOsftGjrkgqo6i1oSOqhd4Tp7ZFU60Lg/\r\nOg65LzrTHKg6EhPnOqK79zpaZIo6NPeTOq6IeTp9BZM6Amb/Ocv+mjp2dLk6ct0KO5BnbTr6LhU7\r\nKrB/OpRYeTp7rps6HC4cOpzpuDoi1VY68wVkOv0ZPztYHIM67geaOhyjeDrHmos6IAjGOjVSMDrF\r\nD4w6jr6nOlJTQTryCSI67ZGZOtyvKDpS7EI6afXSOvLMvToWg6Y6eO02Osy4Pzpf2ZQ6dVlgOt3W\r\ngDqWiE86xGokOpCluTrUClk69keSOrhfSjpMzPU6fwuCOiiH3Drp9eI61geSOkAVPTqTGJw62X+s\r\nOuQGpzoCb4c6EuGHOhrniDrALng6ib/NOkTzlzqdiUI6BYaBOtQibjqq4Wc6td40O7/8ZjpQXdA6\r\nz8JKOpdBSjrDHkM6IGKbOucSFTrzGow6ajRVOu5EcjqcPxo6uKkzOm7LeTqlZeE5XNjPOmAzBzu2\r\nrVI6aVKZOg8mgDoOFw86TKawOosVbzqRFIg69n2eOpbn4zr5CKE6aHdfOjjWfDod2e86lFFwOsM+\r\nVDpLE7U6XLKNOkbEUDoMjYs6urmXOiq7nzrg7wI6upGUOk4tjzo6pcs6DpzVOr0CdDrAGM86zkuP\r\nOqTOmjrOFGs6gTvOOZJB0DkS4I86UUxPOkhrljoYd5E6g2F1OlLqPzqSS3U6PeG9OuBHDDriRZg6\r\nZGCEOnehcjqg6mM6AlJgOhuXKTr4eZU6BB7wOZ5PiTovBI06Xtf4Ob//LzomGCQ6iiQGOi1zhTpD\r\nYCI6tgvoOoUoQDoCxLY6qZcTOj9dODoWtkw6m4mbOlahVDosxI465TCjOj+ujjrfX4E6mkd/Ovhn\r\nQjpiuCo6Km/4Ovr4oTph4W86KBuGOn5+XDq4oyk6AgBaOg3MvjoteXo6HXaxOtpsuTqY2cw6lD4Q\r\nOli8jjqLnwE6ZzaROqS9azp4C106vyOSOmrd1zrefBE6VRqEOulFhTo0Q3I6pOhXOsPkZzoiQqI6\r\ne4QwOmSZnzp5ITM6csyWOhdEjjrEAEA6vkglOgrPgTpYTuI65reGOsQWbDoZ6Bo6nnMWOuJqqDq2\r\nk9o6GFdvOnD0WDqs3II6BNh1Or7ojDqMXi86VO6QOkH/BToGRCU6anRoOuQwNTrFrg46TEYtOhY+\r\nrDrsWXQ6Bde4On4Aczo0YGw6ezRSOq6RPjpYsUs6fO2VOjbaujriuLE6nMdXOi/eszq01XE6HBrn\r\nOUIMsDpc41Y6gUalOvFxxDpgNp06WELyOpgoPDsUmp46OP/oOrgdSjqC8hU7wA+VOgR7LDoC6PY6\r\nBySnOlp5lTrFsb86SX4uOgfdATov9KA6PohGOpYahDqzCbI6h6gKOsksmDq1bjE63GaGOjxWOTqk\r\ncn06NbV1OqS56zmckM46C942OjhphTrcoj46Tk6SOpThhTqePb86gh2aOsADSzq5w4Y6FfyYOnq5\r\nxzq7BSc6VrcFOlJ6pjr7MlY6zpqZOkbeEDqAbJ86WfGfOq97pTrsTAo6u1hQOhp3KToMmEs6lB9f\r\nOsDpNjoop7w6VLUlOtbVJjpSlKo6NEz2OduGHzrQIEY6PqVEOvrvMDpv9Sk6oWxJOgJQozqjl7M6\r\nXvw+OnTKmDop2ns6V6NXOimgWjqEoaE6lbgwOgOHhzpeuD46MqjAOhsSEzuZczE63kqCOsrHhzqc\r\nsZw6QUItOiI+rTqYRYU6CfEDOl7HajpEazY63FV4OgI/Tjr040M6QJjUOj1rZDozcgc6MSI6OvI0\r\nJzovezo6RMdaOrjezDorszA6hHo/OjGPKjpC7Tw6HukYOlUOmjoF6KQ6SI4dOmAtIDpjJyo622BK\r\nOi2u3DpezQA6j43LOpKACDqHU4463M7VOvTjqDrQ1ng6TTRVOgh85TkSwkc6Rk0COiAsVjrUr2M6\r\n7XM7Op4ZqzrmJ1g6PfxBOtUyEzq1jco6w2R0Oi6UwTpS+UU61SKKOh6bgTpN0qc6EJJ3OuZ1pjqi\r\n1/s64lxZOmU2Nzq33pY65GoROk13PTq51F46HDFgOvv4gjq4uXE6KUA2Oku7DDrc7vM5od4DOvds\r\n9TrYCus5mb62OhYiXDrAn1c6XaSUOp2w8zo49Xg6SBB1OvATGjsB7Ik6MdZ7Ov7c6Dln4HE6iIch\r\nOkCGhzrQ9pc6bBbpOs6+3zmOBJw6tK9OOrPSATtF+kM6OFwCOuTf7jqKCoc6rMhiOux4mDoeQO06\r\nZrpEOkB/szrET4Y6Y8CxOiqMXzqEagk6rVZYOk6CuTqmgmY6LQGGOhQ/gjr0K4o63UhAOhhvVjoy\r\nXwI76HyROrGgHjqLyUo72lQ3OrMjjzrjsnE6nLqTOo2a0jrJc1A6sKTQOXoh8jpWaw46ngCAOvxR\r\nsDrElr06zpyEOtHLJjr3M8Q5waSmOpjLIzpoEIM6XrmkOuVKjDqUoDc6SNyzOkksgDpoj1o6udqU\r\nOkkkFToMICo6rAooOvBX4Dmu7e861fg1OvqJIzrRchY6FjAiOsKWHjrazJE6PBiVOjo3SzpPezY6\r\n0azoOp2oujpZ1Gs6cGWPOnybHjriap06esOSOvPHGDofVqw6VixnOqT8Czo0vn867ihrOm+zPjr0\r\n+gM6SsguO0gnejrjyYY6UIPOOV5VhzocBiw6bfTMOidVETrPwAM6OAKKOjCSyDoBD3A66vdbOp3L\r\nezqY3o46zOwtOsh89DkrTvo5vUixOvBV+Dnalj06oDZ0Orcn0Tr0isE6aiAIOrDpSzo4d0w69FVD\r\nOhm5JjrjLCw6EACOOuzBBzoYAGI6abaSOgYrozogOpY6U4yBOrIR0To0jo86+6I6OrhO6DnT1Ds6\r\nB96FOkrClzpi26461oR/OuqrUzoFdEY6F5JMOjilKDqJE0I6ln+GOvHfgzpAbTs6vRkdOsNnWDpK\r\nqjE6AAE6OtxOfDproik6QpmYOn2/jToVjVg4z48gN4YcLjfUKag2eAGpNkjTpzZdC8E2gK2tNiMB\r\ngjaPtVE2FTydNqmBjTapupY28Qw4Nj6lhTaVG5c26VAgNmMuETY3iRA2/dghNim4NjaydUM2paUP\r\nNoz+8TUD+uQ1UE9SNmr/Dza+3xY20Iu/NWxM2DXwa8E1mBPwNTzyujVsIhE2F8QhNoTdnDU9Z2Y1\r\n2Ai7NXCVkzUfs6k1mcaqNTCZxjWt6p41UOWLNTgu/zXfTdk16lt3NZbFczVv5bs1HFW2NX+whjVN\r\nBZE1ymhpNZJCxDVo+5o15FFgNXfHlzWGaXQ1wp03NTEOhDX9p5c1HO3ANSzmijV4BIs214VJOVnQ\r\njTlY/Ew4tRAQOE7PNTjvDn44jbC2OJ5/mTge8fk50XckOhSijznaRX85pCqrOYSPSDjs4As6VE8u\r\nOtGWBjg5vts3gjCMOcok4DhkeVk30CTVN0uj7DhKAio5XK62OGzwkDiZwb84RmgMOstpGzpATrk5\r\nror4OMkfFDhy3FY1xFt3NYG0ZTViSig1d1JZNeJsVDUWICo15gA8NaQSKTX0Fy41zVMENVIH8jSm\r\nzvM0/NHONa+/QTUOcEM1o720NCoEPTXsENY0Ms+gNX18DDWhohg18G39NASNWDXW6kI1kG0wNf3P\r\nOjXslFw1w4rzNDAZFjXIouQ0H64GNXGQ3jQCre00XP0UNSZanjRKi1E1OW5fNR68TDV/F9U0ROgx\r\nNZb2TDXVb4M1UdxtNVMrJjV0QoI0loEgNZBPBTXogXg12RYMNareFTWq+EQ1xJk8NbdyKTUzlBw1\r\nRPltNRfWsTSCRY81gJUtNQ66AjX4qCo10cYzNfyEJzVRwyM1sRSNNea+YDWZVR41V8kANZ/wFTV4\r\nLi81c4A4NeICMzWNYsE0hARCNRDuYDXEV6418zWINSg3WTVO16A0+98QNc3XDzVOzA41mRoVNZTU\r\nCzWPCOo0rDQONVQy/jRJhTI1SLRpNUfqfTU6WMU09dsCNZb2TTV6DRc1PCWHNYCWUzUkJxk1Ib5H\r\nNbA/wjT6W4k1g7DYNLOOKzVeFLE00CrjNJkx9jR+E3Y1gBgLNWEa0TSMHr40bbsvNS+VyjQMoAU1\r\n99q7NMOtDDUoUB0190bzNCPnsjSLR0U1hq0mNb6uJTVkXAM1R4YWNQy/yjTNCx81slDGNIyvDzUh\r\n5wY1nSorNd/7/jS7Jwk1b64bNesGyDRi9uo0Ov99NTd3OTXsJhs1O5/0NMznSzV/I6Y0HbpJNXT5\r\n4jRWIqE03NfgNGXBnjTQyZg06nkoNbw9EDVb4aw11vDeNItmFjWWkeQ0yZE2NcQdKDVTxxQ18isO\r\nNSMwvjTMVq00f1rwNJYgAzV17Sk17DgSNdkX7zTui700GtMYNcAODTXsJEE1adqnNG4sZzWGj001\r\nBKtmNdefFzURQ9Q01wf2NM/tyTR9JEs1ufMANtJPazVslA81HA4MNfD0szRCLgE1LyzKNP+TbzSd\r\nGiA1OWcCNTdYeDXuMok1cgJ9NYizqTWdvIo068JHNSPWFzWhQxc1HNFdNcQgAzW6uM000ZIZNYpb\r\nMTVboBM1r8QyNWyM+TQ222M1W9RJNRmXgzUqmO00TBz7NErxKDUeeNs0Ud8pNaBokTVew/w0urEQ\r\nNeeEIDXZ3js1zPIgNZVCPDWdKS41hQhyNXKf8DS/Nvs0fj4FNRGsDzWwLB41AAApNQ==",
                            "noiseTrainingType" : "default"
                          }
                        }
                    ],
                    "start" : 1287,
                    "duration" : 1041,
                    "mediaStart" : 40,
                    "mediaDuration" : 1041,
                    "scalar" : 1,
                    "metadata" : {
                      "WinSubProjectDisplayName" : "",
                      "clipSpeedAttribute" : false
                    },
                    "animationTracks" : {

                    }
                  },
                  {
                    "id" : 29,
                    "_type" : "AMFile",
                    "src" : 3,
                    "trackNumber" : 1,
                    "attributes" : {
                      "ident" : "Aufn. 07-07-19_013",
                      "sampleRate" : 44100,
                      "bitDepth" : 16,
                      "gain" : 1.0,
                      "mixToMono" : true
                    },
                      "channelNumber" : "0,1",
                    "effects" : [
                        {
                          "effectName" : "NoiseReduction",
                          "category" : "categoryAudioEffects",
                          "parameters" : {
                            "denoiserAmount" : 20.0,
                            "denoiserThreshold" : 0.0,
                            "noiseProfile" : "KrqkQJA4Bj++jUA/HMmDPaIS8T1U7AM9s5lEPOboVzz/ZBY8Su3SPOsTiDwQOaQ8Iw8WO3R3fDqy\r\nEmQ6hwLjOtBJ8TrowUY7COL6OnwG3ToY2lc6JnBSOnIL7zlDIL05h6NKOhKRhTmCdbM5umtUOUiC\r\nvTkXY9U5IxarOS7RHzq0tNM54p+ZOXjLajmCaB06VPKjOf8oaDohRJ45KuqROVqAgDmXMiA5irAe\r\nOnFZhzmIAYU5Su5POcwbizmPJsA5vvdvOUVxiTkoH0k52510OVrwKzkk1Q05/CMbOT4/RTlZswM5\r\n1cklOZEAOTkFGoc5m1ZjOX6hbzniasg5wrjxOKpFjDlJenY5AAJWOQkKiTkQ8IM55fVLOSw2IjnX\r\nxew4imqiOes6JTmzqQQ59WuLOWHITznw0t84F5xlOKdnLzmU2Cc5KTDeOEHbljixf0I4oV7uOCbk\r\ncjgBq+o4CTsKOcgdMDnzvTo5OfCAOWE7nDgBflM5x5cbOTf9IzkOmrs49HRtOQb2WzkjxF45UVuQ\r\nOdptxzklon840dNFOdQh2Th6sZc5W50MOQM4DDnCs3I45NBrOFhz2jhgVfo4kVuPOLw9XjiKoho5\r\neGOgOMZwgTiykzE4eH+IOCWtjTgCrxw4kjm9OFStLjj1/Y44C9E3OFvaUDifuTI4Nh1HOF6Q9jcg\r\nYF04crVpOHEB/TfFf/w3e7LhN4633jd+oK83b8isN2EWijiUmB04haNPOFT7YziXBj44yi5bOI0O\r\nnDcyWrU4vlXJN5qZCzjswkI4+VQKOH1v+TdhiRk4S1vpN0KKsDcahgY4ZrQmN3BR1zcZro04knNf\r\nOKA54DdSQ9o3hlguOFY8VjdK3WA4EWMkOFtkizfptU03bgScN9jYtTdjuZs3yGfON6K6sTeiwPQ2\r\n9wuRN8FdhTda23k3r35uNzJwizfySrQ3Eo/aN2wIoTeYWIg36a+hN2qchjeOD/c3PjDdN45UpTde\r\nV+42/Nd8NwtJBzjVZ0E3hSaBNywprDe2d8U3IN8BOE67tjc4+pY3gzf+N18XrjcIYmo3DKSWN8Pv\r\nqzfggaQ2rj1kN9o8BDdMWqg3r75jN77XVTcu1Wo3lfBfOLK8kjfI8C83xZGCN95lNzf6c1k3X3lL\r\nN2H7mzeEGZA31194N79IbTfHdyI3OkiHN9mEoDbN1WI3i4UDN3h9czfPMag3QHgPN2fc0jYrjBU3\r\ndHMRN52+djev/FI366RSN8kSVDctIy83ZXonN3w2uzcnhhQ3maQPN4tu6jZ8bh83ObOoNvVivTbH\r\nrmI32DHTNuq1ITfHUCo342spN+h75jZCJjo3XsHBNk3MzDZEMH43Kr/yNkiRPDdXdrw3ltQrN9B8\r\nBTezL+02FeVhN5LG1DaKgek2NIDNNgxDuja4R9M2gU5NN3olATd6w6c2flN0N3SaLTdiQd42hKMp\r\nNw57vzY6VcA2DvUON6l7Jzfbjw03Ywe6NqPI8Db44qk2g3tON3f0SDeWMK82w25wN+aV9jYhHBM3\r\n/N+DNgSiHzdgdpc2ZjoFN20qnzbxdYk2vg5JN43DTDcMbhU3olWmNvJwQDcImyc3b4TaNu8rbja7\r\ntoY2hY4iN5nShzb0Vxg3+ISkNmAIMTcjHm83xZ0UN0fbnjYEsxk3D4zzNjUdMjfqu6g21+hcN18Z\r\n7za8tTg3ZTVINmgkXjZEgbE2t0A9NwH0STdOPKg2di9rN/zNPDd4C1k3x0ImN+pU9TYIGs82HDKr\r\nNjNIWjdQ5AU3jwKYNuYBwjZJQOk2uPOlNuJSLjaJ8t82uvf4NqKANzewT842SIjHNlCZBzfsZZc2\r\nUn3gNiv8UjYk06s2Cuy7NpSYyTa6Lps21ThnNmpzHTc29KQ2AzvuNpDQvTbTq6I2KLTSNj8zmjYe\r\nS5s2ekNdNr/5dTZcMCg2X3nxNsWP8zaQuIg2aoo4Nob2sDaAH4U2BegIN2sOlDYnDpI29W3DNmXN\r\nmjY8mc02BAajNsh2fzbQ/Pc2PIRXNqjcezZQU102Y35oNmMiHjZugBg2q8PfNm4RUDYCJRQ36t7p\r\nNsnIHza2XoM2+v2GNqoIwjZkvJ02o3CaNrSRfjaJ94E27NiSNlMA2TahOJI2NJ3GNv+CCDd0Pis2\r\nkBWdNmZEkDY0QMo2cNOdNlANXDaZazI2SsYuNvo2WDZ9Q3s2s5irNvZk9jZsSa02BM2DNjPZvjbu\r\npvo2PwpgNpKgjzbS51c2k8OwNltnLDZk3TA2z9bcNsJxMTYj64U28o6NNlQChTZw1/k1GqvyNd5W\r\nhTZU2dA24jOiNgwhFDZ5qEs2yX92NroYWTauLRg2nhLfNWtUSjaJ90E2YoYKNqCx3DUjHlw2thwc\r\nNi0vSDbVdPo1OpMZNuiuuDa7I1o2xbSeNlbVbzZmPSs2dWrmNsUgEDe4bB42tscYNq7ybjaudz42\r\nj9FpNuSk/TYBlo02LF43NrCdnTYG+AM2W285NvINMjbN0Tg2dwKiNoHQdjay4xI2oWkjNrkLHzYv\r\n7yU2yDMQNrrN0TX5NCs2JsJFNhSVjDYGMaU2NwORNsOxGDZa+jU2YvhMNjdm7zVMuyQ2hRvPNaeO\r\n/DVtxuE1EwA5Nuc9BjYncJ01s51kNXWMtTVOkb81Dr23NevKojWYCG01EAxlNQQ0ajXu3/U1pncF\r\nNrM+wDWOLWM1vpf2NcrX8jV8hv01DKt8NSCOZTWjb+k1y4c1NsxkxTXFQkk25uFwNc2wZTUAgIQ1\r\n158ENstYojWWEJY1KvOuNbi84jXg3U82P5NMNpHz8TXanL01uqQUNgKPSjUYOLQ1FEfvNYnt7TXf\r\nLAs23OlrNf3kLjVJpK41Af+eNVNhGjal5eo1zv+RNS2RFzZ4Xzk2iv48NVCxyzUfd8M1gP5wNWNW\r\nlDVCyO41nnORNRKvnzWFWTI2vHipNQRzZzWXHqo1bMMWNtKv3DW25uk1N2T2NXqiFDYK+rM1kYq4\r\nNSSgkDUZWwc2CouMNfpsizW2Y901pN3ZNTsErDXtaFs1IL2MNQC0wDVQ44Y13i1UNZT9HTUp76Y1\r\nmA3cNfODVjW+OMI1VlMyNVbFBzbJ32I1Uv2pNbMe3TVjx5I1stIMNgW4mza2V5I1SCjCNfBJOTf2\r\nrG42Ng3lNaq4OzZMYpw2ZhexNS5E+TVCThM2TMIBNtUjdzXU1uA1oMwpNYZOATeqHbg2P7vfNlz+\r\nLDdYdII1EQDDNVoLJTcAuwI3ZV6INUpDwzWdn5w1BigPNq5crjX0Rfg1U8JfNQ8VzTVEQ2U1GjVm\r\nNZNWUjV+sXM17NbRNSCLnDWahcE11Ze3NXCs/zWuN4Y1VVCuNe4yQjXgqf41nEDBNZBeyTWf0SE1\r\nmaelNdkewTXG/34228o9NbYaQDWdQxc23n3yNb/7CzYYMzU1YNKkNawG1TUcIKg1gG3TNWhvSjUa\r\nY4w1bHB/NSxyMTX1Va81A/nYNfGuuTWuTf00GpHDNb2WPTWiuqU173i6NagVHzVcXEs1pvnJNX5M\r\nGjVT9Fc1aIK7NVHjkTWXfDM1/+usNTSrpzWLD8A1KUhDNcV+HjWoCPE1TtWGNUxFnjXerJE11kzk\r\nNbtQgTV5nGs1ljNKNUttgTVXelQ29+CONvaIcjURS9Y1l0ahNfUnfDVtEYA1zQaVNew1fTWZ2J01\r\nCKFONlBe+TXJ7qI2/B3rNeSb5jWkkFg1+HsINTNPvTX3fZk2lHKqNkGogzXfkZ81PMGSNY3L6TVq\r\nZY82/Tu0Nd40gjbSVkY1bCqkNYL5wjW8hRA1InuONdA8CDY6b5c1yVmXNRqrhTWRXYk1VUpYNfo/\r\nlDUtfmU1UyBWNaCbNjWtsRc1C7BZNTT8UjWbJAM1W/U8NQ/QZTUwRVQ1lcyHNcSXszS4GAw1+jQd\r\nNXC+nzVdv401aHj0NbXwszV4oEM1rxeNNR5/pzWqW3c1OHE/NZDVqzZSB0Y4WIJ7OFXr/TZGZj83\r\n8kugOJ0iyTi2bro4RrtoOO3mNzhbr944UoeqOEdvozecj2I3w2iUOIAF0TiKuFY4HEvIN+PQXDc8\r\n4bA1KM0hNaBsqzjhKZg436yDOLyHwDiC/RI4ySicNzSBIDjX4Fg4Z5LMN8jZYzj+oN43ut97NsnZ\r\nCDmGWQw5CvtqOBy1SjjMn503iE6/NthHJzeWY7Y3xLm5N5fmFTcUcjU4+lKaOOaEKDjBxtk3eg6m\r\nN5np/zdqrAA5HHWAOVSrAjnvMiM2mKmqN6/LAjhAl0w3xr9LNlqSpTjg3nk4cFvkNngPlTf4Rag4\r\ntTYZObR5rDhI6uE2/CWQOE7YijhLUZE38KPFODGgsjjdMVg4TQvcN7ALljjlXyI5lNQFOWzXXDiw\r\nEbA39rzTOJBWCjkAuxY46M/KNrEElzbtIRI4x3SvODzykzi0TZ43P8gSNkpQHjdnJmI4/BeCOA/P\r\nKjgqU5Q45MKUOLBLEDhyxqo4eTkvOIogmjeO2PM1LNVsNsz04jUdJJ02Oq8GNtiKdjbehZQ2wZKg\r\nNQLd0jUgFmc1lrIMNliFqDWeRKo1pN2pNYExsjb1ygI206e2NTCtOTWLNoU173yFNSkMkzUeRWo1\r\nDG00NaaJKTX9IQc1IDBcNbV0zjUsAmg2slFRNipqZTU6S4Q2lfQMNvS5djVxSko1gbODNerHUDV+\r\n7BI1DgASNXtOzzXw1Wk1zFQGNdDbnjW6RI01CCZXNS1vXzUqYFs1j3hBNQmZhDXEYVc1fpOGNWEL\r\nnjX+4FM1Eky7NTzQBzVst0k1cnRhNd4XdzXb4DY1YQBPNSCmkDVzlI41IOB5NXr1YzXnbE41Yzz6\r\nNQ24wDU83GM1rYJTNZFfiDVWoVI1ehp7NdPJljUDHgE12ExyNd+NtTWYHlI1PJBdNVSkKTV+EZY1\r\n+ee6NeL9IzX+IIs1JCCyNdxLczWjK/M1VQ9lNUKZGzVawGE1PGVBNdhwqDWrsGQ1CpCtNdLsqjWh\r\naeM1mF+TNQh5aTVSJ4s1yOFwNaR/xTWEkm01GaCnNVn8YTUorWE1MZFyNZ0JYDU7/lY14TRONdeo\r\ngjWIyjc1nGHgNGSfPDU5iVY10FRGNXADaDVWFn412TFyNZppczV6VjQ1zRQpNV94IzUx+Nw1beZS\r\nNR2lXzWrSKE1cnETNdiA/zSbWm41e/lPNeyuizU4NBQ1kE6BNdaYJjXtJCY1nea2NfDnWjXE3EI1\r\ndTaRNaIilzVhKT41dpjvNUK4aDUukEg193c1NeK4/DSf3S81VImUNUv4IDW2THY1PCh5NbnzMzXu\r\n0Dc1HZUiNWTtHzWOwIk1ESXeNHyYdjX2q581WcchNWp+pTVusiE14K54NkjtTDU4sac1JZmYNd6d\r\noTXah5k1ixqHNRSUhDWXIfo04gJJNWlBbDX0MgA1ZzaKNc3DPjXXE9w0KjQ9NafeojUxVHk1Aog0\r\nNQNIxjXiDl01AnabNaXXUzWznHU1KY9hNfAJmTVTVao1cVZ4Ne8BGzU8YYo1MYYYNQAAKTVSO5I8\r\nJ5BOOjfJVzreyFU6PAHCOoM1WzrY/Hc62p+YOgbNsTqZkrc6vIQEO5s+njo8Q6w62oGHOtbgJzsA\r\n9Zc6gvNXOuneoDr4MnI63rGmOkepwjrV65c6OsgzOuZTejpjwTQ65m6WOv7hrDqm1Cs6bV/HOsTm\r\nAjqStIU6vyJfOmok1Tq/42w64rGZOsnXlzqmd0Y6LMylOlH0MjqTvqo6SEaxOhyvSTqU1oI6MaLl\r\nOgZF5zrwvjs6AkJoOsws6jqPkYo6vU1kOtaC6TqnIB86HEidOr6DsToCpoM6XzooOiEIWjoiYQI7\r\nA/WZOnfijTr+nqw6XVmROtxTlzrkKHY6YA7pOhgrYzr8q805WLZ9Oi6FyzpKyLA6FrALOqc2RTq8\r\nWPI6h2YAOlr0hjofJo86ZbFMOtdcuTrrNq86TEKJOh/4yDqLO3k65vk6O4zUdDohqLs6P/STOnyT\r\nbDpTLWY6MuxNOtprSTofprg6yDBuOgnVSToZOYA6ivo7Os3KgDofw6M6IO7DOvKOgTrV8QY6k6bI\r\nOooDgTrAHgc7LKSGOov3aToAXhE6Ttd6OhqDgDr8RLw6B2bkOjBXnToHrZk6VA+jOjvW6zoKMYs6\r\n4XsCOuMDsjrmOIg6eLLXOlJskzpczXU6Jmu1OurnRTqN+LA6amBtOlYnMjqp7kI6kzWgOqzWCzuL\r\nTnk67x4NOvr4czoe75k6dzapOt+cbDrJudo6OhxDOkF/Czqu1H46wjPAOhfSWjoorq46v+YKOxgO\r\ngzoeRJA68KWzOuBUHTq0wys6HERDOoQagjpcYfA6fIgmOlDhtzrKKBo6s6mKOgrcmDp9JRo6phnn\r\nOjfyDTveTbo6pHOsOr9jAzrpT746sFIwOogkVjo8dUA6+hvIOrBLmzpGy5A6YvDCOpj9kToMUNo6\r\nd7fJOjmAdDpioD06RAAxOga2Szrslzs6Gu+ROq6aizpMCgQ7T5tgOiJMSDozvwY6b/B8Ovf5Mjsd\r\ne546liqgOsjWjDoAUkQ6M4pPOmJFNjoEsyc6f51pOr6uKzo8vCA6Rr0tOg6bQjrMSwc7WPWMOt8r\r\nKDovtlY61HdKOkESZjr+ijs6CUyiOpChNTqOTzI6ydWIOj6TZzoxZSk6UzhjOkRnnjpw+fk6y86R\r\nOtWjajo6JlA6MHwwOsU8zDr+jqg6/qTrOtinjDqtPhA6V3FsOh76Izrh25k6zN7DOglKYjqhAVU6\r\nOuU6OsxclDqwKBw6YfKyOrRfaTo4YJY6Q9XVOvLBwjotnps6PmBNOiQfljoDfmI6umUlOv6EBztl\r\n2JM64AhxOrQp0Dq901I6ReFLOjeEhjr9V4Q6ELq7OmjU8jrrmmk6hC+7OmUVmDqyl5A6ryEqOtAH\r\nOTo06Js6+s3tOmIh4zoAkUI6KB4sOqZQMDozu5k67fvQOq66YzoBVoo61XuAOuH9OTp5nCs6KVV3\r\nOtViyTrkRvI5t7iAOrrCOzomtR46GzhFOmDdfTpGXS46dHlUOmS8ojqdH1U6mZuFOr6LzjornIQ6\r\nx8pTOklgvjqekMY6LL+FOgkWUTq3fT86bdmvOjFgUzruvVo64uiPOvB7IjqzZJE6SIZ/Olr9mDrD\r\nsgQ7RvefOhsHujqz4Hc6CQ5ZOtopfDrQxM06E1vMOnckGzpGcFo6OjKJOr7Hmjq7fFc6oAQ5OkYL\r\ncDoDebU6onmjOkEmtzrTxp86hsY4OlA8uDp0T/w6UzeKOn0DhDq3pKo6AlLjOq+9gjqHUaA63oGv\r\nOnqPnTqSdsE6h4uyOuOXtDpi0IU6Bvg+OpLuhToork46KfSBOivWbTobRZw69k1gOt4DqTq6Q3E6\r\nogCDOgmebDqvnIE65GlkOsm0iDpEw/Q6Unm7OvaDtzqARYc6mapGOvfugzpVVUY6ZAZmOoWBijpx\r\nLoU6ITGPOt+MmTpkFYM6gzSgOoUT8DkYuDM6Ps+fOt/JEzvaS7A6Kja5OijCnDqOZr866yo8Oo/j\r\neTrYOPo5k4w/OqBEPjo2IqQ6mzCUOoYsAzpY/Hg6KqQ6OvacozqzFRM6062QOrTbGTqa7JI6hv2T\r\nOspYxDpjoZE6FrNlOqpVmDrOuhQ6IuU6OlwktDod8IA6iPxROgRMZzoRTbQ6SQikOlD/eDqEvL86\r\nQK1yOk86Pzr0hzA6dCrwOmIKtDo0HE46toyKOq58aDqAnHg6p3u+Oj5rdDo/hZ86dmkoOj2qXzqS\r\nezY6SIpLOmd/5zpMKyk6oFykOtyzlDo/lYU6ajlrOs6ndToS/046LCBaOvVDYDrBjLQ6IqNPOtw3\r\nQTqfhg86UYFYOlSexjr+NXo63/RAOryMIjqbezc7ZhE2OjIOATqsdOQ5aHMPOh8RjDqQ8cU6cdmf\r\nOp7QMzq0rpo6Hm13OozodDq4Ccg6dRXeOUBK5TqEEYY6yetQOls9uToOUoo6jTaMOs5MHjsQ5iE6\r\n8lasOtyKjTrnIJI6vFt6OuCXWDoRPUE6BlJ2Ok6MNTraF+46OfWAOgdGjzq5iZc66+jDOkk3gjpP\r\nR306ckKGOge9ijp4vZA6G3qrOj9U0TnyTb06K2ZKOjr7Zjq3s5861AknOhdZhTqiUIM6pNGpOiAp\r\nSzoQ5Ys6N5JrOmlHkTqk7G46gZp1OkRxajpJ/PM6TV6GOvTGfzqGdF86PUFhOlPzvDqNfQI7DcuN\r\nOnG4vTpRcYY65GVdOhCcsToiRbA6BvNWOjKuiDppATg67QhaOuQRUDrhJkI60a2VOlDzYDpy74c6\r\na2AYOkQTMzogxrE6pvgjOoVEQTojvZo6+NGVOl5nuzr6CXg65j4COlIsXjrsGWA6wcXSOnqHhDoq\r\nN2E6EGKPOtvOczqtLUU6ZcY9OmDMYToyfL46dllDOizrDTpwkmQ61IZsOtl6yDp/fWk6+omROiHK\r\nbDrzCVM6dlIIOmhULTrnLZY6FniYOoI3mTr0fKg6Snx1OjyNATo1grY60yaQOgNCZzqGVYU6CAM/\r\nOvRl3jnmXRQ7efgmOgP9nTk9pzo6+qmBOqSlNDo4axA6+IR+OkNrRjoNok46T/kgOvDaMDpdpIo6\r\n/9UTOqvcMzqbOJc6A5yyOlIC2Trr0qY6kKmbOnGrPjpwjak6ZSyNOtlcwzpwBWk6gnWcOlXFdToK\r\nja867ZI4OgzGsToruqc6426JOhwvQTq6e546hDFfOgaBcTq/KHE6aXBWOkidsDq/gIs6v/ZGOvmx\r\nzTrSBbM6RmJyOjjEIzpuNTs61q6AOl0kJTqOHPQ5bNrLOp2A5TosVkY6WpCNOgFupToZdlg6l/GJ\r\nOp2eSzr5rmg6q2q0OiH2GzoZEQ06AmMdOs07wjrsoiw6ktr4OWKdtTqt40M6ilSeOoFHRjrkPI46\r\nbICXOmSxrjrCyGs6SWmXOu46yDo6eOk6JEjVOtjsbjoryXI6KnpaOjnlkjrDPK86jlp9OvggXTq4\r\n0JQ6hyUbO3MMZTqDGVo6KjaCOlsfEjoL/pA6FqnfOg7Rljp6jcg6IvWbOpfxmzo8IJk6OdWFOqOG\r\nMzpwCaI6ILhCOmezdDoTip464aPROsf7EjubQzk6gJGDOhC1bTrgnZs6QcIIO04KizqN0Gs6Tk6G\r\nOpv8qzol3Fk6/t1IOlujOTp+Cag64OddOmIGDzrbgg86we41OpTs/znNmHE6Q56uOgMvdjr6Cck5\r\nrusgOlrkhjpUA5U68PduOlorIjqoZpg6h2gvOuTOTzrgVkc6DW9OOixq8jo+tKc6JBo5OhnmkjqC\r\nw2I6t35kOkWfgDoMH4c6SeAsOqNLTzo3lW44S9UMNw3IJTeSEBI3vxaxNljw8Ta6M8w2ygzJNjEY\r\neTZauGI2+l+ONkXbZjarxmA2OuioNveDpTZzR282WF1zNvwnTjZksiY2XGZDNmjfIDajJrU21z4e\r\nNpY8NzaEBiQ2JD1vNsZpQTZ16Uw2UchPNjQkLjYZkvc1RFhhNjB1NDgA4XA4AQogN7cxYTaNCKU4\r\nIT3DOOqBvjiwRUQ4LfJkOP5k0jgjebc4XF6pN7OaXTcFipE4ZiLHONQ1LTiXo6k3xCaGNxa+yDUm\r\n4kY2KxWpOFgwgzhNcIM4XLWvOMuF4jewP4s3sJdgOOtjVjhaIAE4hNxKOJEotjeO6e84ALEDOX5T\r\n7jj1Ssg5g71qOeKLEjkNAY458QaaOQyfWjlyBB46vqkIOnjimzlDABY62bLvOTgPszm3BDI51sV1\r\nORIwbTloNHk5EIGvOSJnlDmCGAc6FdAlOpy/azo3bhA6FmDnOTtWnjl2WWU56wADOW95uzmLWC06\r\nyQOXOWv3/jjzyoo46YO3OPED1jaFWaw4kvP1OKOfSziaC+A3ysyZONChHzmDZvY4KiwSOKHiqTfH\r\nuwU5j0cpOQqJyTfKChk2nMhKNzV8STi1i8M4pI98OO5g/DcIOAc2E7nMNmhNlThy1I44OdEnOFVn\r\nJDjO4XM4L3MQODVUlDhgXYU4WrIEOVr4WDkoR+s4jDyPN1NPzjdTKoQ6DdCLOiKXtDlChTY5o2eD\r\nORo1rTiOA7Y3F/ouOKEAgDgK5N84GIUjOc9X4Thqmt84joW3OdAawTjSabA4IMaAOAKZrTimid03\r\n+tD8OC5emjlhAVc5G5wNOJUOJTcsrFU3vh+QNwObojgtte04cGd8NatxkDWAw6o15fkkNZovqjUe\r\nXnw12t+UNeMqTzUcInw1pODhNf9z+DVoPyM1hL3FNbJH0jU86X41qP1cNfBViDUpeb01ecsqNXR1\r\nODXQn9c1/tkGNX3CQzUvmxM2VXNqNb7DZjXCZd41vV0cNdZ6RjVRvTk1ORFjNXxYoDUjjME1azJy\r\nNevUwzV+na01FGs7NS+ASDUeazM12lIpNQ6m+TQGp2Y1XIA1NTDEJDWkPUA1tgJoNTjQTzWz2a01\r\naKgZNb6vkDVSGEI1rU1tNV62ZTXZolk1pM0+NdKwCjWy44c154WvNeCkQzWGToI1AtD0NF5CYTWB\r\nt7E1msU7NToGYDXxvZU1H5AENTIIEDWWnJ01aLbdNJwEUTXI/rE1CuYuNTMdrjVq0Bk13g3lNBdZ\r\nPDXyuIY18OalNa/vNTWVlKQ1XfYPNQf3ZzUyeSQ1nGN/NZ6xvDXI/1A1nBFkNQIU4zWLxn41s7e0\r\nNZ/7kzW/Bg01s95DNVk4YDWuGJU11j+0NRrWeDWyC4g10YOFNURUODUz5Qc1HNFGNSB1pDWH4EQ1\r\nB8cXNatJMjUL9CI1B5RuNXq+MDVmz0E1Ov9hNQYBDzWlXH41vQVwNaQ9CTVOLUU1IDElNbYLYTX6\r\nPGk1V7h+NQyTTDUN8fM0HxidNb5SSTWERUw1/tAPNXQl6DShDwo1oY6BNar6bTXXKtk0gD6cNQxw\r\nVjWb9yw1Kd1MNWRO6zSrpQI1OrOXNWT5gzUJnTE1mLspNU9BLDW1n2Y1ARtMNd5F5TQB5V41mFzf\r\nNNwQtjX62Fs1mHAkNfhLJDXO45g1w6k8NTc2cDWuKW01BfxLNbBgWTUCyjE1ACCZNQ==",
                            "noiseTrainingType" : "default"
                          }
                        }
                    ],
                    "start" : 2328,
                    "duration" : 994,
                    "mediaStart" : 34,
                    "mediaDuration" : 994,
                    "scalar" : 1,
                    "metadata" : {
                      "WinSubProjectDisplayName" : "",
                      "clipSpeedAttribute" : false
                    },
                    "animationTracks" : {

                    }
                  },
                  {
                    "id" : 30,
                    "_type" : "AMFile",
                    "src" : 3,
                    "trackNumber" : 1,
                    "attributes" : {
                      "ident" : "Aufn. 07-07-19_013",
                      "sampleRate" : 44100,
                      "bitDepth" : 16,
                      "gain" : 1.0,
                      "mixToMono" : true
                    },
                      "channelNumber" : "0,1",
                    "effects" : [
                        {
                          "effectName" : "NoiseReduction",
                          "category" : "categoryAudioEffects",
                          "parameters" : {
                            "denoiserAmount" : 20.0,
                            "denoiserThreshold" : 0.0,
                            "noiseProfile" : "KrqkQJA4Bj++jUA/HMmDPaIS8T1U7AM9s5lEPOboVzz/ZBY8Su3SPOsTiDwQOaQ8Iw8WO3R3fDqy\r\nEmQ6hwLjOtBJ8TrowUY7COL6OnwG3ToY2lc6JnBSOnIL7zlDIL05h6NKOhKRhTmCdbM5umtUOUiC\r\nvTkXY9U5IxarOS7RHzq0tNM54p+ZOXjLajmCaB06VPKjOf8oaDohRJ45KuqROVqAgDmXMiA5irAe\r\nOnFZhzmIAYU5Su5POcwbizmPJsA5vvdvOUVxiTkoH0k52510OVrwKzkk1Q05/CMbOT4/RTlZswM5\r\n1cklOZEAOTkFGoc5m1ZjOX6hbzniasg5wrjxOKpFjDlJenY5AAJWOQkKiTkQ8IM55fVLOSw2IjnX\r\nxew4imqiOes6JTmzqQQ59WuLOWHITznw0t84F5xlOKdnLzmU2Cc5KTDeOEHbljixf0I4oV7uOCbk\r\ncjgBq+o4CTsKOcgdMDnzvTo5OfCAOWE7nDgBflM5x5cbOTf9IzkOmrs49HRtOQb2WzkjxF45UVuQ\r\nOdptxzklon840dNFOdQh2Th6sZc5W50MOQM4DDnCs3I45NBrOFhz2jhgVfo4kVuPOLw9XjiKoho5\r\neGOgOMZwgTiykzE4eH+IOCWtjTgCrxw4kjm9OFStLjj1/Y44C9E3OFvaUDifuTI4Nh1HOF6Q9jcg\r\nYF04crVpOHEB/TfFf/w3e7LhN4633jd+oK83b8isN2EWijiUmB04haNPOFT7YziXBj44yi5bOI0O\r\nnDcyWrU4vlXJN5qZCzjswkI4+VQKOH1v+TdhiRk4S1vpN0KKsDcahgY4ZrQmN3BR1zcZro04knNf\r\nOKA54DdSQ9o3hlguOFY8VjdK3WA4EWMkOFtkizfptU03bgScN9jYtTdjuZs3yGfON6K6sTeiwPQ2\r\n9wuRN8FdhTda23k3r35uNzJwizfySrQ3Eo/aN2wIoTeYWIg36a+hN2qchjeOD/c3PjDdN45UpTde\r\nV+42/Nd8NwtJBzjVZ0E3hSaBNywprDe2d8U3IN8BOE67tjc4+pY3gzf+N18XrjcIYmo3DKSWN8Pv\r\nqzfggaQ2rj1kN9o8BDdMWqg3r75jN77XVTcu1Wo3lfBfOLK8kjfI8C83xZGCN95lNzf6c1k3X3lL\r\nN2H7mzeEGZA31194N79IbTfHdyI3OkiHN9mEoDbN1WI3i4UDN3h9czfPMag3QHgPN2fc0jYrjBU3\r\ndHMRN52+djev/FI366RSN8kSVDctIy83ZXonN3w2uzcnhhQ3maQPN4tu6jZ8bh83ObOoNvVivTbH\r\nrmI32DHTNuq1ITfHUCo342spN+h75jZCJjo3XsHBNk3MzDZEMH43Kr/yNkiRPDdXdrw3ltQrN9B8\r\nBTezL+02FeVhN5LG1DaKgek2NIDNNgxDuja4R9M2gU5NN3olATd6w6c2flN0N3SaLTdiQd42hKMp\r\nNw57vzY6VcA2DvUON6l7Jzfbjw03Ywe6NqPI8Db44qk2g3tON3f0SDeWMK82w25wN+aV9jYhHBM3\r\n/N+DNgSiHzdgdpc2ZjoFN20qnzbxdYk2vg5JN43DTDcMbhU3olWmNvJwQDcImyc3b4TaNu8rbja7\r\ntoY2hY4iN5nShzb0Vxg3+ISkNmAIMTcjHm83xZ0UN0fbnjYEsxk3D4zzNjUdMjfqu6g21+hcN18Z\r\n7za8tTg3ZTVINmgkXjZEgbE2t0A9NwH0STdOPKg2di9rN/zNPDd4C1k3x0ImN+pU9TYIGs82HDKr\r\nNjNIWjdQ5AU3jwKYNuYBwjZJQOk2uPOlNuJSLjaJ8t82uvf4NqKANzewT842SIjHNlCZBzfsZZc2\r\nUn3gNiv8UjYk06s2Cuy7NpSYyTa6Lps21ThnNmpzHTc29KQ2AzvuNpDQvTbTq6I2KLTSNj8zmjYe\r\nS5s2ekNdNr/5dTZcMCg2X3nxNsWP8zaQuIg2aoo4Nob2sDaAH4U2BegIN2sOlDYnDpI29W3DNmXN\r\nmjY8mc02BAajNsh2fzbQ/Pc2PIRXNqjcezZQU102Y35oNmMiHjZugBg2q8PfNm4RUDYCJRQ36t7p\r\nNsnIHza2XoM2+v2GNqoIwjZkvJ02o3CaNrSRfjaJ94E27NiSNlMA2TahOJI2NJ3GNv+CCDd0Pis2\r\nkBWdNmZEkDY0QMo2cNOdNlANXDaZazI2SsYuNvo2WDZ9Q3s2s5irNvZk9jZsSa02BM2DNjPZvjbu\r\npvo2PwpgNpKgjzbS51c2k8OwNltnLDZk3TA2z9bcNsJxMTYj64U28o6NNlQChTZw1/k1GqvyNd5W\r\nhTZU2dA24jOiNgwhFDZ5qEs2yX92NroYWTauLRg2nhLfNWtUSjaJ90E2YoYKNqCx3DUjHlw2thwc\r\nNi0vSDbVdPo1OpMZNuiuuDa7I1o2xbSeNlbVbzZmPSs2dWrmNsUgEDe4bB42tscYNq7ybjaudz42\r\nj9FpNuSk/TYBlo02LF43NrCdnTYG+AM2W285NvINMjbN0Tg2dwKiNoHQdjay4xI2oWkjNrkLHzYv\r\n7yU2yDMQNrrN0TX5NCs2JsJFNhSVjDYGMaU2NwORNsOxGDZa+jU2YvhMNjdm7zVMuyQ2hRvPNaeO\r\n/DVtxuE1EwA5Nuc9BjYncJ01s51kNXWMtTVOkb81Dr23NevKojWYCG01EAxlNQQ0ajXu3/U1pncF\r\nNrM+wDWOLWM1vpf2NcrX8jV8hv01DKt8NSCOZTWjb+k1y4c1NsxkxTXFQkk25uFwNc2wZTUAgIQ1\r\n158ENstYojWWEJY1KvOuNbi84jXg3U82P5NMNpHz8TXanL01uqQUNgKPSjUYOLQ1FEfvNYnt7TXf\r\nLAs23OlrNf3kLjVJpK41Af+eNVNhGjal5eo1zv+RNS2RFzZ4Xzk2iv48NVCxyzUfd8M1gP5wNWNW\r\nlDVCyO41nnORNRKvnzWFWTI2vHipNQRzZzWXHqo1bMMWNtKv3DW25uk1N2T2NXqiFDYK+rM1kYq4\r\nNSSgkDUZWwc2CouMNfpsizW2Y901pN3ZNTsErDXtaFs1IL2MNQC0wDVQ44Y13i1UNZT9HTUp76Y1\r\nmA3cNfODVjW+OMI1VlMyNVbFBzbJ32I1Uv2pNbMe3TVjx5I1stIMNgW4mza2V5I1SCjCNfBJOTf2\r\nrG42Ng3lNaq4OzZMYpw2ZhexNS5E+TVCThM2TMIBNtUjdzXU1uA1oMwpNYZOATeqHbg2P7vfNlz+\r\nLDdYdII1EQDDNVoLJTcAuwI3ZV6INUpDwzWdn5w1BigPNq5crjX0Rfg1U8JfNQ8VzTVEQ2U1GjVm\r\nNZNWUjV+sXM17NbRNSCLnDWahcE11Ze3NXCs/zWuN4Y1VVCuNe4yQjXgqf41nEDBNZBeyTWf0SE1\r\nmaelNdkewTXG/34228o9NbYaQDWdQxc23n3yNb/7CzYYMzU1YNKkNawG1TUcIKg1gG3TNWhvSjUa\r\nY4w1bHB/NSxyMTX1Va81A/nYNfGuuTWuTf00GpHDNb2WPTWiuqU173i6NagVHzVcXEs1pvnJNX5M\r\nGjVT9Fc1aIK7NVHjkTWXfDM1/+usNTSrpzWLD8A1KUhDNcV+HjWoCPE1TtWGNUxFnjXerJE11kzk\r\nNbtQgTV5nGs1ljNKNUttgTVXelQ29+CONvaIcjURS9Y1l0ahNfUnfDVtEYA1zQaVNew1fTWZ2J01\r\nCKFONlBe+TXJ7qI2/B3rNeSb5jWkkFg1+HsINTNPvTX3fZk2lHKqNkGogzXfkZ81PMGSNY3L6TVq\r\nZY82/Tu0Nd40gjbSVkY1bCqkNYL5wjW8hRA1InuONdA8CDY6b5c1yVmXNRqrhTWRXYk1VUpYNfo/\r\nlDUtfmU1UyBWNaCbNjWtsRc1C7BZNTT8UjWbJAM1W/U8NQ/QZTUwRVQ1lcyHNcSXszS4GAw1+jQd\r\nNXC+nzVdv401aHj0NbXwszV4oEM1rxeNNR5/pzWqW3c1OHE/NZDVqzZSB0Y4WIJ7OFXr/TZGZj83\r\n8kugOJ0iyTi2bro4RrtoOO3mNzhbr944UoeqOEdvozecj2I3w2iUOIAF0TiKuFY4HEvIN+PQXDc8\r\n4bA1KM0hNaBsqzjhKZg436yDOLyHwDiC/RI4ySicNzSBIDjX4Fg4Z5LMN8jZYzj+oN43ut97NsnZ\r\nCDmGWQw5CvtqOBy1SjjMn503iE6/NthHJzeWY7Y3xLm5N5fmFTcUcjU4+lKaOOaEKDjBxtk3eg6m\r\nN5np/zdqrAA5HHWAOVSrAjnvMiM2mKmqN6/LAjhAl0w3xr9LNlqSpTjg3nk4cFvkNngPlTf4Rag4\r\ntTYZObR5rDhI6uE2/CWQOE7YijhLUZE38KPFODGgsjjdMVg4TQvcN7ALljjlXyI5lNQFOWzXXDiw\r\nEbA39rzTOJBWCjkAuxY46M/KNrEElzbtIRI4x3SvODzykzi0TZ43P8gSNkpQHjdnJmI4/BeCOA/P\r\nKjgqU5Q45MKUOLBLEDhyxqo4eTkvOIogmjeO2PM1LNVsNsz04jUdJJ02Oq8GNtiKdjbehZQ2wZKg\r\nNQLd0jUgFmc1lrIMNliFqDWeRKo1pN2pNYExsjb1ygI206e2NTCtOTWLNoU173yFNSkMkzUeRWo1\r\nDG00NaaJKTX9IQc1IDBcNbV0zjUsAmg2slFRNipqZTU6S4Q2lfQMNvS5djVxSko1gbODNerHUDV+\r\n7BI1DgASNXtOzzXw1Wk1zFQGNdDbnjW6RI01CCZXNS1vXzUqYFs1j3hBNQmZhDXEYVc1fpOGNWEL\r\nnjX+4FM1Eky7NTzQBzVst0k1cnRhNd4XdzXb4DY1YQBPNSCmkDVzlI41IOB5NXr1YzXnbE41Yzz6\r\nNQ24wDU83GM1rYJTNZFfiDVWoVI1ehp7NdPJljUDHgE12ExyNd+NtTWYHlI1PJBdNVSkKTV+EZY1\r\n+ee6NeL9IzX+IIs1JCCyNdxLczWjK/M1VQ9lNUKZGzVawGE1PGVBNdhwqDWrsGQ1CpCtNdLsqjWh\r\naeM1mF+TNQh5aTVSJ4s1yOFwNaR/xTWEkm01GaCnNVn8YTUorWE1MZFyNZ0JYDU7/lY14TRONdeo\r\ngjWIyjc1nGHgNGSfPDU5iVY10FRGNXADaDVWFn412TFyNZppczV6VjQ1zRQpNV94IzUx+Nw1beZS\r\nNR2lXzWrSKE1cnETNdiA/zSbWm41e/lPNeyuizU4NBQ1kE6BNdaYJjXtJCY1nea2NfDnWjXE3EI1\r\ndTaRNaIilzVhKT41dpjvNUK4aDUukEg193c1NeK4/DSf3S81VImUNUv4IDW2THY1PCh5NbnzMzXu\r\n0Dc1HZUiNWTtHzWOwIk1ESXeNHyYdjX2q581WcchNWp+pTVusiE14K54NkjtTDU4sac1JZmYNd6d\r\noTXah5k1ixqHNRSUhDWXIfo04gJJNWlBbDX0MgA1ZzaKNc3DPjXXE9w0KjQ9NafeojUxVHk1Aog0\r\nNQNIxjXiDl01AnabNaXXUzWznHU1KY9hNfAJmTVTVao1cVZ4Ne8BGzU8YYo1MYYYNQAAKTVSO5I8\r\nJ5BOOjfJVzreyFU6PAHCOoM1WzrY/Hc62p+YOgbNsTqZkrc6vIQEO5s+njo8Q6w62oGHOtbgJzsA\r\n9Zc6gvNXOuneoDr4MnI63rGmOkepwjrV65c6OsgzOuZTejpjwTQ65m6WOv7hrDqm1Cs6bV/HOsTm\r\nAjqStIU6vyJfOmok1Tq/42w64rGZOsnXlzqmd0Y6LMylOlH0MjqTvqo6SEaxOhyvSTqU1oI6MaLl\r\nOgZF5zrwvjs6AkJoOsws6jqPkYo6vU1kOtaC6TqnIB86HEidOr6DsToCpoM6XzooOiEIWjoiYQI7\r\nA/WZOnfijTr+nqw6XVmROtxTlzrkKHY6YA7pOhgrYzr8q805WLZ9Oi6FyzpKyLA6FrALOqc2RTq8\r\nWPI6h2YAOlr0hjofJo86ZbFMOtdcuTrrNq86TEKJOh/4yDqLO3k65vk6O4zUdDohqLs6P/STOnyT\r\nbDpTLWY6MuxNOtprSTofprg6yDBuOgnVSToZOYA6ivo7Os3KgDofw6M6IO7DOvKOgTrV8QY6k6bI\r\nOooDgTrAHgc7LKSGOov3aToAXhE6Ttd6OhqDgDr8RLw6B2bkOjBXnToHrZk6VA+jOjvW6zoKMYs6\r\n4XsCOuMDsjrmOIg6eLLXOlJskzpczXU6Jmu1OurnRTqN+LA6amBtOlYnMjqp7kI6kzWgOqzWCzuL\r\nTnk67x4NOvr4czoe75k6dzapOt+cbDrJudo6OhxDOkF/Czqu1H46wjPAOhfSWjoorq46v+YKOxgO\r\ngzoeRJA68KWzOuBUHTq0wys6HERDOoQagjpcYfA6fIgmOlDhtzrKKBo6s6mKOgrcmDp9JRo6phnn\r\nOjfyDTveTbo6pHOsOr9jAzrpT746sFIwOogkVjo8dUA6+hvIOrBLmzpGy5A6YvDCOpj9kToMUNo6\r\nd7fJOjmAdDpioD06RAAxOga2Szrslzs6Gu+ROq6aizpMCgQ7T5tgOiJMSDozvwY6b/B8Ovf5Mjsd\r\ne546liqgOsjWjDoAUkQ6M4pPOmJFNjoEsyc6f51pOr6uKzo8vCA6Rr0tOg6bQjrMSwc7WPWMOt8r\r\nKDovtlY61HdKOkESZjr+ijs6CUyiOpChNTqOTzI6ydWIOj6TZzoxZSk6UzhjOkRnnjpw+fk6y86R\r\nOtWjajo6JlA6MHwwOsU8zDr+jqg6/qTrOtinjDqtPhA6V3FsOh76Izrh25k6zN7DOglKYjqhAVU6\r\nOuU6OsxclDqwKBw6YfKyOrRfaTo4YJY6Q9XVOvLBwjotnps6PmBNOiQfljoDfmI6umUlOv6EBztl\r\n2JM64AhxOrQp0Dq901I6ReFLOjeEhjr9V4Q6ELq7OmjU8jrrmmk6hC+7OmUVmDqyl5A6ryEqOtAH\r\nOTo06Js6+s3tOmIh4zoAkUI6KB4sOqZQMDozu5k67fvQOq66YzoBVoo61XuAOuH9OTp5nCs6KVV3\r\nOtViyTrkRvI5t7iAOrrCOzomtR46GzhFOmDdfTpGXS46dHlUOmS8ojqdH1U6mZuFOr6LzjornIQ6\r\nx8pTOklgvjqekMY6LL+FOgkWUTq3fT86bdmvOjFgUzruvVo64uiPOvB7IjqzZJE6SIZ/Olr9mDrD\r\nsgQ7RvefOhsHujqz4Hc6CQ5ZOtopfDrQxM06E1vMOnckGzpGcFo6OjKJOr7Hmjq7fFc6oAQ5OkYL\r\ncDoDebU6onmjOkEmtzrTxp86hsY4OlA8uDp0T/w6UzeKOn0DhDq3pKo6AlLjOq+9gjqHUaA63oGv\r\nOnqPnTqSdsE6h4uyOuOXtDpi0IU6Bvg+OpLuhToork46KfSBOivWbTobRZw69k1gOt4DqTq6Q3E6\r\nogCDOgmebDqvnIE65GlkOsm0iDpEw/Q6Unm7OvaDtzqARYc6mapGOvfugzpVVUY6ZAZmOoWBijpx\r\nLoU6ITGPOt+MmTpkFYM6gzSgOoUT8DkYuDM6Ps+fOt/JEzvaS7A6Kja5OijCnDqOZr866yo8Oo/j\r\neTrYOPo5k4w/OqBEPjo2IqQ6mzCUOoYsAzpY/Hg6KqQ6OvacozqzFRM6062QOrTbGTqa7JI6hv2T\r\nOspYxDpjoZE6FrNlOqpVmDrOuhQ6IuU6OlwktDod8IA6iPxROgRMZzoRTbQ6SQikOlD/eDqEvL86\r\nQK1yOk86Pzr0hzA6dCrwOmIKtDo0HE46toyKOq58aDqAnHg6p3u+Oj5rdDo/hZ86dmkoOj2qXzqS\r\nezY6SIpLOmd/5zpMKyk6oFykOtyzlDo/lYU6ajlrOs6ndToS/046LCBaOvVDYDrBjLQ6IqNPOtw3\r\nQTqfhg86UYFYOlSexjr+NXo63/RAOryMIjqbezc7ZhE2OjIOATqsdOQ5aHMPOh8RjDqQ8cU6cdmf\r\nOp7QMzq0rpo6Hm13OozodDq4Ccg6dRXeOUBK5TqEEYY6yetQOls9uToOUoo6jTaMOs5MHjsQ5iE6\r\n8lasOtyKjTrnIJI6vFt6OuCXWDoRPUE6BlJ2Ok6MNTraF+46OfWAOgdGjzq5iZc66+jDOkk3gjpP\r\nR306ckKGOge9ijp4vZA6G3qrOj9U0TnyTb06K2ZKOjr7Zjq3s5861AknOhdZhTqiUIM6pNGpOiAp\r\nSzoQ5Ys6N5JrOmlHkTqk7G46gZp1OkRxajpJ/PM6TV6GOvTGfzqGdF86PUFhOlPzvDqNfQI7DcuN\r\nOnG4vTpRcYY65GVdOhCcsToiRbA6BvNWOjKuiDppATg67QhaOuQRUDrhJkI60a2VOlDzYDpy74c6\r\na2AYOkQTMzogxrE6pvgjOoVEQTojvZo6+NGVOl5nuzr6CXg65j4COlIsXjrsGWA6wcXSOnqHhDoq\r\nN2E6EGKPOtvOczqtLUU6ZcY9OmDMYToyfL46dllDOizrDTpwkmQ61IZsOtl6yDp/fWk6+omROiHK\r\nbDrzCVM6dlIIOmhULTrnLZY6FniYOoI3mTr0fKg6Snx1OjyNATo1grY60yaQOgNCZzqGVYU6CAM/\r\nOvRl3jnmXRQ7efgmOgP9nTk9pzo6+qmBOqSlNDo4axA6+IR+OkNrRjoNok46T/kgOvDaMDpdpIo6\r\n/9UTOqvcMzqbOJc6A5yyOlIC2Trr0qY6kKmbOnGrPjpwjak6ZSyNOtlcwzpwBWk6gnWcOlXFdToK\r\nja867ZI4OgzGsToruqc6426JOhwvQTq6e546hDFfOgaBcTq/KHE6aXBWOkidsDq/gIs6v/ZGOvmx\r\nzTrSBbM6RmJyOjjEIzpuNTs61q6AOl0kJTqOHPQ5bNrLOp2A5TosVkY6WpCNOgFupToZdlg6l/GJ\r\nOp2eSzr5rmg6q2q0OiH2GzoZEQ06AmMdOs07wjrsoiw6ktr4OWKdtTqt40M6ilSeOoFHRjrkPI46\r\nbICXOmSxrjrCyGs6SWmXOu46yDo6eOk6JEjVOtjsbjoryXI6KnpaOjnlkjrDPK86jlp9OvggXTq4\r\n0JQ6hyUbO3MMZTqDGVo6KjaCOlsfEjoL/pA6FqnfOg7Rljp6jcg6IvWbOpfxmzo8IJk6OdWFOqOG\r\nMzpwCaI6ILhCOmezdDoTip464aPROsf7EjubQzk6gJGDOhC1bTrgnZs6QcIIO04KizqN0Gs6Tk6G\r\nOpv8qzol3Fk6/t1IOlujOTp+Cag64OddOmIGDzrbgg86we41OpTs/znNmHE6Q56uOgMvdjr6Cck5\r\nrusgOlrkhjpUA5U68PduOlorIjqoZpg6h2gvOuTOTzrgVkc6DW9OOixq8jo+tKc6JBo5OhnmkjqC\r\nw2I6t35kOkWfgDoMH4c6SeAsOqNLTzo3lW44S9UMNw3IJTeSEBI3vxaxNljw8Ta6M8w2ygzJNjEY\r\neTZauGI2+l+ONkXbZjarxmA2OuioNveDpTZzR282WF1zNvwnTjZksiY2XGZDNmjfIDajJrU21z4e\r\nNpY8NzaEBiQ2JD1vNsZpQTZ16Uw2UchPNjQkLjYZkvc1RFhhNjB1NDgA4XA4AQogN7cxYTaNCKU4\r\nIT3DOOqBvjiwRUQ4LfJkOP5k0jgjebc4XF6pN7OaXTcFipE4ZiLHONQ1LTiXo6k3xCaGNxa+yDUm\r\n4kY2KxWpOFgwgzhNcIM4XLWvOMuF4jewP4s3sJdgOOtjVjhaIAE4hNxKOJEotjeO6e84ALEDOX5T\r\n7jj1Ssg5g71qOeKLEjkNAY458QaaOQyfWjlyBB46vqkIOnjimzlDABY62bLvOTgPszm3BDI51sV1\r\nORIwbTloNHk5EIGvOSJnlDmCGAc6FdAlOpy/azo3bhA6FmDnOTtWnjl2WWU56wADOW95uzmLWC06\r\nyQOXOWv3/jjzyoo46YO3OPED1jaFWaw4kvP1OKOfSziaC+A3ysyZONChHzmDZvY4KiwSOKHiqTfH\r\nuwU5j0cpOQqJyTfKChk2nMhKNzV8STi1i8M4pI98OO5g/DcIOAc2E7nMNmhNlThy1I44OdEnOFVn\r\nJDjO4XM4L3MQODVUlDhgXYU4WrIEOVr4WDkoR+s4jDyPN1NPzjdTKoQ6DdCLOiKXtDlChTY5o2eD\r\nORo1rTiOA7Y3F/ouOKEAgDgK5N84GIUjOc9X4Thqmt84joW3OdAawTjSabA4IMaAOAKZrTimid03\r\n+tD8OC5emjlhAVc5G5wNOJUOJTcsrFU3vh+QNwObojgtte04cGd8NatxkDWAw6o15fkkNZovqjUe\r\nXnw12t+UNeMqTzUcInw1pODhNf9z+DVoPyM1hL3FNbJH0jU86X41qP1cNfBViDUpeb01ecsqNXR1\r\nODXQn9c1/tkGNX3CQzUvmxM2VXNqNb7DZjXCZd41vV0cNdZ6RjVRvTk1ORFjNXxYoDUjjME1azJy\r\nNevUwzV+na01FGs7NS+ASDUeazM12lIpNQ6m+TQGp2Y1XIA1NTDEJDWkPUA1tgJoNTjQTzWz2a01\r\naKgZNb6vkDVSGEI1rU1tNV62ZTXZolk1pM0+NdKwCjWy44c154WvNeCkQzWGToI1AtD0NF5CYTWB\r\nt7E1msU7NToGYDXxvZU1H5AENTIIEDWWnJ01aLbdNJwEUTXI/rE1CuYuNTMdrjVq0Bk13g3lNBdZ\r\nPDXyuIY18OalNa/vNTWVlKQ1XfYPNQf3ZzUyeSQ1nGN/NZ6xvDXI/1A1nBFkNQIU4zWLxn41s7e0\r\nNZ/7kzW/Bg01s95DNVk4YDWuGJU11j+0NRrWeDWyC4g10YOFNURUODUz5Qc1HNFGNSB1pDWH4EQ1\r\nB8cXNatJMjUL9CI1B5RuNXq+MDVmz0E1Ov9hNQYBDzWlXH41vQVwNaQ9CTVOLUU1IDElNbYLYTX6\r\nPGk1V7h+NQyTTDUN8fM0HxidNb5SSTWERUw1/tAPNXQl6DShDwo1oY6BNar6bTXXKtk0gD6cNQxw\r\nVjWb9yw1Kd1MNWRO6zSrpQI1OrOXNWT5gzUJnTE1mLspNU9BLDW1n2Y1ARtMNd5F5TQB5V41mFzf\r\nNNwQtjX62Fs1mHAkNfhLJDXO45g1w6k8NTc2cDWuKW01BfxLNbBgWTUCyjE1ACCZNQ==",
                            "noiseTrainingType" : "default"
                          }
                        }
                    ],
                    "start" : 3334,
                    "duration" : 230,
                    "mediaStart" : 1610,
                    "mediaDuration" : 230,
                    "scalar" : 1,
                    "metadata" : {
                      "WinSubProjectDisplayName" : "",
                      "clipSpeedAttribute" : false
                    },
                    "animationTracks" : {

                    }
                  },
                  {
                    "id" : 31,
                    "_type" : "AMFile",
                    "src" : 3,
                    "trackNumber" : 1,
                    "attributes" : {
                      "ident" : "Aufn. 07-07-19_013",
                      "sampleRate" : 44100,
                      "bitDepth" : 16,
                      "gain" : 1.0,
                      "mixToMono" : true
                    },
                      "channelNumber" : "0,1",
                    "effects" : [
                        {
                          "effectName" : "NoiseReduction",
                          "category" : "categoryAudioEffects",
                          "parameters" : {
                            "denoiserAmount" : 20.0,
                            "denoiserThreshold" : 0.0,
                            "noiseProfile" : "KrqkQJA4Bj++jUA/HMmDPaIS8T1U7AM9s5lEPOboVzz/ZBY8Su3SPOsTiDwQOaQ8Iw8WO3R3fDqy\r\nEmQ6hwLjOtBJ8TrowUY7COL6OnwG3ToY2lc6JnBSOnIL7zlDIL05h6NKOhKRhTmCdbM5umtUOUiC\r\nvTkXY9U5IxarOS7RHzq0tNM54p+ZOXjLajmCaB06VPKjOf8oaDohRJ45KuqROVqAgDmXMiA5irAe\r\nOnFZhzmIAYU5Su5POcwbizmPJsA5vvdvOUVxiTkoH0k52510OVrwKzkk1Q05/CMbOT4/RTlZswM5\r\n1cklOZEAOTkFGoc5m1ZjOX6hbzniasg5wrjxOKpFjDlJenY5AAJWOQkKiTkQ8IM55fVLOSw2IjnX\r\nxew4imqiOes6JTmzqQQ59WuLOWHITznw0t84F5xlOKdnLzmU2Cc5KTDeOEHbljixf0I4oV7uOCbk\r\ncjgBq+o4CTsKOcgdMDnzvTo5OfCAOWE7nDgBflM5x5cbOTf9IzkOmrs49HRtOQb2WzkjxF45UVuQ\r\nOdptxzklon840dNFOdQh2Th6sZc5W50MOQM4DDnCs3I45NBrOFhz2jhgVfo4kVuPOLw9XjiKoho5\r\neGOgOMZwgTiykzE4eH+IOCWtjTgCrxw4kjm9OFStLjj1/Y44C9E3OFvaUDifuTI4Nh1HOF6Q9jcg\r\nYF04crVpOHEB/TfFf/w3e7LhN4633jd+oK83b8isN2EWijiUmB04haNPOFT7YziXBj44yi5bOI0O\r\nnDcyWrU4vlXJN5qZCzjswkI4+VQKOH1v+TdhiRk4S1vpN0KKsDcahgY4ZrQmN3BR1zcZro04knNf\r\nOKA54DdSQ9o3hlguOFY8VjdK3WA4EWMkOFtkizfptU03bgScN9jYtTdjuZs3yGfON6K6sTeiwPQ2\r\n9wuRN8FdhTda23k3r35uNzJwizfySrQ3Eo/aN2wIoTeYWIg36a+hN2qchjeOD/c3PjDdN45UpTde\r\nV+42/Nd8NwtJBzjVZ0E3hSaBNywprDe2d8U3IN8BOE67tjc4+pY3gzf+N18XrjcIYmo3DKSWN8Pv\r\nqzfggaQ2rj1kN9o8BDdMWqg3r75jN77XVTcu1Wo3lfBfOLK8kjfI8C83xZGCN95lNzf6c1k3X3lL\r\nN2H7mzeEGZA31194N79IbTfHdyI3OkiHN9mEoDbN1WI3i4UDN3h9czfPMag3QHgPN2fc0jYrjBU3\r\ndHMRN52+djev/FI366RSN8kSVDctIy83ZXonN3w2uzcnhhQ3maQPN4tu6jZ8bh83ObOoNvVivTbH\r\nrmI32DHTNuq1ITfHUCo342spN+h75jZCJjo3XsHBNk3MzDZEMH43Kr/yNkiRPDdXdrw3ltQrN9B8\r\nBTezL+02FeVhN5LG1DaKgek2NIDNNgxDuja4R9M2gU5NN3olATd6w6c2flN0N3SaLTdiQd42hKMp\r\nNw57vzY6VcA2DvUON6l7Jzfbjw03Ywe6NqPI8Db44qk2g3tON3f0SDeWMK82w25wN+aV9jYhHBM3\r\n/N+DNgSiHzdgdpc2ZjoFN20qnzbxdYk2vg5JN43DTDcMbhU3olWmNvJwQDcImyc3b4TaNu8rbja7\r\ntoY2hY4iN5nShzb0Vxg3+ISkNmAIMTcjHm83xZ0UN0fbnjYEsxk3D4zzNjUdMjfqu6g21+hcN18Z\r\n7za8tTg3ZTVINmgkXjZEgbE2t0A9NwH0STdOPKg2di9rN/zNPDd4C1k3x0ImN+pU9TYIGs82HDKr\r\nNjNIWjdQ5AU3jwKYNuYBwjZJQOk2uPOlNuJSLjaJ8t82uvf4NqKANzewT842SIjHNlCZBzfsZZc2\r\nUn3gNiv8UjYk06s2Cuy7NpSYyTa6Lps21ThnNmpzHTc29KQ2AzvuNpDQvTbTq6I2KLTSNj8zmjYe\r\nS5s2ekNdNr/5dTZcMCg2X3nxNsWP8zaQuIg2aoo4Nob2sDaAH4U2BegIN2sOlDYnDpI29W3DNmXN\r\nmjY8mc02BAajNsh2fzbQ/Pc2PIRXNqjcezZQU102Y35oNmMiHjZugBg2q8PfNm4RUDYCJRQ36t7p\r\nNsnIHza2XoM2+v2GNqoIwjZkvJ02o3CaNrSRfjaJ94E27NiSNlMA2TahOJI2NJ3GNv+CCDd0Pis2\r\nkBWdNmZEkDY0QMo2cNOdNlANXDaZazI2SsYuNvo2WDZ9Q3s2s5irNvZk9jZsSa02BM2DNjPZvjbu\r\npvo2PwpgNpKgjzbS51c2k8OwNltnLDZk3TA2z9bcNsJxMTYj64U28o6NNlQChTZw1/k1GqvyNd5W\r\nhTZU2dA24jOiNgwhFDZ5qEs2yX92NroYWTauLRg2nhLfNWtUSjaJ90E2YoYKNqCx3DUjHlw2thwc\r\nNi0vSDbVdPo1OpMZNuiuuDa7I1o2xbSeNlbVbzZmPSs2dWrmNsUgEDe4bB42tscYNq7ybjaudz42\r\nj9FpNuSk/TYBlo02LF43NrCdnTYG+AM2W285NvINMjbN0Tg2dwKiNoHQdjay4xI2oWkjNrkLHzYv\r\n7yU2yDMQNrrN0TX5NCs2JsJFNhSVjDYGMaU2NwORNsOxGDZa+jU2YvhMNjdm7zVMuyQ2hRvPNaeO\r\n/DVtxuE1EwA5Nuc9BjYncJ01s51kNXWMtTVOkb81Dr23NevKojWYCG01EAxlNQQ0ajXu3/U1pncF\r\nNrM+wDWOLWM1vpf2NcrX8jV8hv01DKt8NSCOZTWjb+k1y4c1NsxkxTXFQkk25uFwNc2wZTUAgIQ1\r\n158ENstYojWWEJY1KvOuNbi84jXg3U82P5NMNpHz8TXanL01uqQUNgKPSjUYOLQ1FEfvNYnt7TXf\r\nLAs23OlrNf3kLjVJpK41Af+eNVNhGjal5eo1zv+RNS2RFzZ4Xzk2iv48NVCxyzUfd8M1gP5wNWNW\r\nlDVCyO41nnORNRKvnzWFWTI2vHipNQRzZzWXHqo1bMMWNtKv3DW25uk1N2T2NXqiFDYK+rM1kYq4\r\nNSSgkDUZWwc2CouMNfpsizW2Y901pN3ZNTsErDXtaFs1IL2MNQC0wDVQ44Y13i1UNZT9HTUp76Y1\r\nmA3cNfODVjW+OMI1VlMyNVbFBzbJ32I1Uv2pNbMe3TVjx5I1stIMNgW4mza2V5I1SCjCNfBJOTf2\r\nrG42Ng3lNaq4OzZMYpw2ZhexNS5E+TVCThM2TMIBNtUjdzXU1uA1oMwpNYZOATeqHbg2P7vfNlz+\r\nLDdYdII1EQDDNVoLJTcAuwI3ZV6INUpDwzWdn5w1BigPNq5crjX0Rfg1U8JfNQ8VzTVEQ2U1GjVm\r\nNZNWUjV+sXM17NbRNSCLnDWahcE11Ze3NXCs/zWuN4Y1VVCuNe4yQjXgqf41nEDBNZBeyTWf0SE1\r\nmaelNdkewTXG/34228o9NbYaQDWdQxc23n3yNb/7CzYYMzU1YNKkNawG1TUcIKg1gG3TNWhvSjUa\r\nY4w1bHB/NSxyMTX1Va81A/nYNfGuuTWuTf00GpHDNb2WPTWiuqU173i6NagVHzVcXEs1pvnJNX5M\r\nGjVT9Fc1aIK7NVHjkTWXfDM1/+usNTSrpzWLD8A1KUhDNcV+HjWoCPE1TtWGNUxFnjXerJE11kzk\r\nNbtQgTV5nGs1ljNKNUttgTVXelQ29+CONvaIcjURS9Y1l0ahNfUnfDVtEYA1zQaVNew1fTWZ2J01\r\nCKFONlBe+TXJ7qI2/B3rNeSb5jWkkFg1+HsINTNPvTX3fZk2lHKqNkGogzXfkZ81PMGSNY3L6TVq\r\nZY82/Tu0Nd40gjbSVkY1bCqkNYL5wjW8hRA1InuONdA8CDY6b5c1yVmXNRqrhTWRXYk1VUpYNfo/\r\nlDUtfmU1UyBWNaCbNjWtsRc1C7BZNTT8UjWbJAM1W/U8NQ/QZTUwRVQ1lcyHNcSXszS4GAw1+jQd\r\nNXC+nzVdv401aHj0NbXwszV4oEM1rxeNNR5/pzWqW3c1OHE/NZDVqzZSB0Y4WIJ7OFXr/TZGZj83\r\n8kugOJ0iyTi2bro4RrtoOO3mNzhbr944UoeqOEdvozecj2I3w2iUOIAF0TiKuFY4HEvIN+PQXDc8\r\n4bA1KM0hNaBsqzjhKZg436yDOLyHwDiC/RI4ySicNzSBIDjX4Fg4Z5LMN8jZYzj+oN43ut97NsnZ\r\nCDmGWQw5CvtqOBy1SjjMn503iE6/NthHJzeWY7Y3xLm5N5fmFTcUcjU4+lKaOOaEKDjBxtk3eg6m\r\nN5np/zdqrAA5HHWAOVSrAjnvMiM2mKmqN6/LAjhAl0w3xr9LNlqSpTjg3nk4cFvkNngPlTf4Rag4\r\ntTYZObR5rDhI6uE2/CWQOE7YijhLUZE38KPFODGgsjjdMVg4TQvcN7ALljjlXyI5lNQFOWzXXDiw\r\nEbA39rzTOJBWCjkAuxY46M/KNrEElzbtIRI4x3SvODzykzi0TZ43P8gSNkpQHjdnJmI4/BeCOA/P\r\nKjgqU5Q45MKUOLBLEDhyxqo4eTkvOIogmjeO2PM1LNVsNsz04jUdJJ02Oq8GNtiKdjbehZQ2wZKg\r\nNQLd0jUgFmc1lrIMNliFqDWeRKo1pN2pNYExsjb1ygI206e2NTCtOTWLNoU173yFNSkMkzUeRWo1\r\nDG00NaaJKTX9IQc1IDBcNbV0zjUsAmg2slFRNipqZTU6S4Q2lfQMNvS5djVxSko1gbODNerHUDV+\r\n7BI1DgASNXtOzzXw1Wk1zFQGNdDbnjW6RI01CCZXNS1vXzUqYFs1j3hBNQmZhDXEYVc1fpOGNWEL\r\nnjX+4FM1Eky7NTzQBzVst0k1cnRhNd4XdzXb4DY1YQBPNSCmkDVzlI41IOB5NXr1YzXnbE41Yzz6\r\nNQ24wDU83GM1rYJTNZFfiDVWoVI1ehp7NdPJljUDHgE12ExyNd+NtTWYHlI1PJBdNVSkKTV+EZY1\r\n+ee6NeL9IzX+IIs1JCCyNdxLczWjK/M1VQ9lNUKZGzVawGE1PGVBNdhwqDWrsGQ1CpCtNdLsqjWh\r\naeM1mF+TNQh5aTVSJ4s1yOFwNaR/xTWEkm01GaCnNVn8YTUorWE1MZFyNZ0JYDU7/lY14TRONdeo\r\ngjWIyjc1nGHgNGSfPDU5iVY10FRGNXADaDVWFn412TFyNZppczV6VjQ1zRQpNV94IzUx+Nw1beZS\r\nNR2lXzWrSKE1cnETNdiA/zSbWm41e/lPNeyuizU4NBQ1kE6BNdaYJjXtJCY1nea2NfDnWjXE3EI1\r\ndTaRNaIilzVhKT41dpjvNUK4aDUukEg193c1NeK4/DSf3S81VImUNUv4IDW2THY1PCh5NbnzMzXu\r\n0Dc1HZUiNWTtHzWOwIk1ESXeNHyYdjX2q581WcchNWp+pTVusiE14K54NkjtTDU4sac1JZmYNd6d\r\noTXah5k1ixqHNRSUhDWXIfo04gJJNWlBbDX0MgA1ZzaKNc3DPjXXE9w0KjQ9NafeojUxVHk1Aog0\r\nNQNIxjXiDl01AnabNaXXUzWznHU1KY9hNfAJmTVTVao1cVZ4Ne8BGzU8YYo1MYYYNQAAKTVSO5I8\r\nJ5BOOjfJVzreyFU6PAHCOoM1WzrY/Hc62p+YOgbNsTqZkrc6vIQEO5s+njo8Q6w62oGHOtbgJzsA\r\n9Zc6gvNXOuneoDr4MnI63rGmOkepwjrV65c6OsgzOuZTejpjwTQ65m6WOv7hrDqm1Cs6bV/HOsTm\r\nAjqStIU6vyJfOmok1Tq/42w64rGZOsnXlzqmd0Y6LMylOlH0MjqTvqo6SEaxOhyvSTqU1oI6MaLl\r\nOgZF5zrwvjs6AkJoOsws6jqPkYo6vU1kOtaC6TqnIB86HEidOr6DsToCpoM6XzooOiEIWjoiYQI7\r\nA/WZOnfijTr+nqw6XVmROtxTlzrkKHY6YA7pOhgrYzr8q805WLZ9Oi6FyzpKyLA6FrALOqc2RTq8\r\nWPI6h2YAOlr0hjofJo86ZbFMOtdcuTrrNq86TEKJOh/4yDqLO3k65vk6O4zUdDohqLs6P/STOnyT\r\nbDpTLWY6MuxNOtprSTofprg6yDBuOgnVSToZOYA6ivo7Os3KgDofw6M6IO7DOvKOgTrV8QY6k6bI\r\nOooDgTrAHgc7LKSGOov3aToAXhE6Ttd6OhqDgDr8RLw6B2bkOjBXnToHrZk6VA+jOjvW6zoKMYs6\r\n4XsCOuMDsjrmOIg6eLLXOlJskzpczXU6Jmu1OurnRTqN+LA6amBtOlYnMjqp7kI6kzWgOqzWCzuL\r\nTnk67x4NOvr4czoe75k6dzapOt+cbDrJudo6OhxDOkF/Czqu1H46wjPAOhfSWjoorq46v+YKOxgO\r\ngzoeRJA68KWzOuBUHTq0wys6HERDOoQagjpcYfA6fIgmOlDhtzrKKBo6s6mKOgrcmDp9JRo6phnn\r\nOjfyDTveTbo6pHOsOr9jAzrpT746sFIwOogkVjo8dUA6+hvIOrBLmzpGy5A6YvDCOpj9kToMUNo6\r\nd7fJOjmAdDpioD06RAAxOga2Szrslzs6Gu+ROq6aizpMCgQ7T5tgOiJMSDozvwY6b/B8Ovf5Mjsd\r\ne546liqgOsjWjDoAUkQ6M4pPOmJFNjoEsyc6f51pOr6uKzo8vCA6Rr0tOg6bQjrMSwc7WPWMOt8r\r\nKDovtlY61HdKOkESZjr+ijs6CUyiOpChNTqOTzI6ydWIOj6TZzoxZSk6UzhjOkRnnjpw+fk6y86R\r\nOtWjajo6JlA6MHwwOsU8zDr+jqg6/qTrOtinjDqtPhA6V3FsOh76Izrh25k6zN7DOglKYjqhAVU6\r\nOuU6OsxclDqwKBw6YfKyOrRfaTo4YJY6Q9XVOvLBwjotnps6PmBNOiQfljoDfmI6umUlOv6EBztl\r\n2JM64AhxOrQp0Dq901I6ReFLOjeEhjr9V4Q6ELq7OmjU8jrrmmk6hC+7OmUVmDqyl5A6ryEqOtAH\r\nOTo06Js6+s3tOmIh4zoAkUI6KB4sOqZQMDozu5k67fvQOq66YzoBVoo61XuAOuH9OTp5nCs6KVV3\r\nOtViyTrkRvI5t7iAOrrCOzomtR46GzhFOmDdfTpGXS46dHlUOmS8ojqdH1U6mZuFOr6LzjornIQ6\r\nx8pTOklgvjqekMY6LL+FOgkWUTq3fT86bdmvOjFgUzruvVo64uiPOvB7IjqzZJE6SIZ/Olr9mDrD\r\nsgQ7RvefOhsHujqz4Hc6CQ5ZOtopfDrQxM06E1vMOnckGzpGcFo6OjKJOr7Hmjq7fFc6oAQ5OkYL\r\ncDoDebU6onmjOkEmtzrTxp86hsY4OlA8uDp0T/w6UzeKOn0DhDq3pKo6AlLjOq+9gjqHUaA63oGv\r\nOnqPnTqSdsE6h4uyOuOXtDpi0IU6Bvg+OpLuhToork46KfSBOivWbTobRZw69k1gOt4DqTq6Q3E6\r\nogCDOgmebDqvnIE65GlkOsm0iDpEw/Q6Unm7OvaDtzqARYc6mapGOvfugzpVVUY6ZAZmOoWBijpx\r\nLoU6ITGPOt+MmTpkFYM6gzSgOoUT8DkYuDM6Ps+fOt/JEzvaS7A6Kja5OijCnDqOZr866yo8Oo/j\r\neTrYOPo5k4w/OqBEPjo2IqQ6mzCUOoYsAzpY/Hg6KqQ6OvacozqzFRM6062QOrTbGTqa7JI6hv2T\r\nOspYxDpjoZE6FrNlOqpVmDrOuhQ6IuU6OlwktDod8IA6iPxROgRMZzoRTbQ6SQikOlD/eDqEvL86\r\nQK1yOk86Pzr0hzA6dCrwOmIKtDo0HE46toyKOq58aDqAnHg6p3u+Oj5rdDo/hZ86dmkoOj2qXzqS\r\nezY6SIpLOmd/5zpMKyk6oFykOtyzlDo/lYU6ajlrOs6ndToS/046LCBaOvVDYDrBjLQ6IqNPOtw3\r\nQTqfhg86UYFYOlSexjr+NXo63/RAOryMIjqbezc7ZhE2OjIOATqsdOQ5aHMPOh8RjDqQ8cU6cdmf\r\nOp7QMzq0rpo6Hm13OozodDq4Ccg6dRXeOUBK5TqEEYY6yetQOls9uToOUoo6jTaMOs5MHjsQ5iE6\r\n8lasOtyKjTrnIJI6vFt6OuCXWDoRPUE6BlJ2Ok6MNTraF+46OfWAOgdGjzq5iZc66+jDOkk3gjpP\r\nR306ckKGOge9ijp4vZA6G3qrOj9U0TnyTb06K2ZKOjr7Zjq3s5861AknOhdZhTqiUIM6pNGpOiAp\r\nSzoQ5Ys6N5JrOmlHkTqk7G46gZp1OkRxajpJ/PM6TV6GOvTGfzqGdF86PUFhOlPzvDqNfQI7DcuN\r\nOnG4vTpRcYY65GVdOhCcsToiRbA6BvNWOjKuiDppATg67QhaOuQRUDrhJkI60a2VOlDzYDpy74c6\r\na2AYOkQTMzogxrE6pvgjOoVEQTojvZo6+NGVOl5nuzr6CXg65j4COlIsXjrsGWA6wcXSOnqHhDoq\r\nN2E6EGKPOtvOczqtLUU6ZcY9OmDMYToyfL46dllDOizrDTpwkmQ61IZsOtl6yDp/fWk6+omROiHK\r\nbDrzCVM6dlIIOmhULTrnLZY6FniYOoI3mTr0fKg6Snx1OjyNATo1grY60yaQOgNCZzqGVYU6CAM/\r\nOvRl3jnmXRQ7efgmOgP9nTk9pzo6+qmBOqSlNDo4axA6+IR+OkNrRjoNok46T/kgOvDaMDpdpIo6\r\n/9UTOqvcMzqbOJc6A5yyOlIC2Trr0qY6kKmbOnGrPjpwjak6ZSyNOtlcwzpwBWk6gnWcOlXFdToK\r\nja867ZI4OgzGsToruqc6426JOhwvQTq6e546hDFfOgaBcTq/KHE6aXBWOkidsDq/gIs6v/ZGOvmx\r\nzTrSBbM6RmJyOjjEIzpuNTs61q6AOl0kJTqOHPQ5bNrLOp2A5TosVkY6WpCNOgFupToZdlg6l/GJ\r\nOp2eSzr5rmg6q2q0OiH2GzoZEQ06AmMdOs07wjrsoiw6ktr4OWKdtTqt40M6ilSeOoFHRjrkPI46\r\nbICXOmSxrjrCyGs6SWmXOu46yDo6eOk6JEjVOtjsbjoryXI6KnpaOjnlkjrDPK86jlp9OvggXTq4\r\n0JQ6hyUbO3MMZTqDGVo6KjaCOlsfEjoL/pA6FqnfOg7Rljp6jcg6IvWbOpfxmzo8IJk6OdWFOqOG\r\nMzpwCaI6ILhCOmezdDoTip464aPROsf7EjubQzk6gJGDOhC1bTrgnZs6QcIIO04KizqN0Gs6Tk6G\r\nOpv8qzol3Fk6/t1IOlujOTp+Cag64OddOmIGDzrbgg86we41OpTs/znNmHE6Q56uOgMvdjr6Cck5\r\nrusgOlrkhjpUA5U68PduOlorIjqoZpg6h2gvOuTOTzrgVkc6DW9OOixq8jo+tKc6JBo5OhnmkjqC\r\nw2I6t35kOkWfgDoMH4c6SeAsOqNLTzo3lW44S9UMNw3IJTeSEBI3vxaxNljw8Ta6M8w2ygzJNjEY\r\neTZauGI2+l+ONkXbZjarxmA2OuioNveDpTZzR282WF1zNvwnTjZksiY2XGZDNmjfIDajJrU21z4e\r\nNpY8NzaEBiQ2JD1vNsZpQTZ16Uw2UchPNjQkLjYZkvc1RFhhNjB1NDgA4XA4AQogN7cxYTaNCKU4\r\nIT3DOOqBvjiwRUQ4LfJkOP5k0jgjebc4XF6pN7OaXTcFipE4ZiLHONQ1LTiXo6k3xCaGNxa+yDUm\r\n4kY2KxWpOFgwgzhNcIM4XLWvOMuF4jewP4s3sJdgOOtjVjhaIAE4hNxKOJEotjeO6e84ALEDOX5T\r\n7jj1Ssg5g71qOeKLEjkNAY458QaaOQyfWjlyBB46vqkIOnjimzlDABY62bLvOTgPszm3BDI51sV1\r\nORIwbTloNHk5EIGvOSJnlDmCGAc6FdAlOpy/azo3bhA6FmDnOTtWnjl2WWU56wADOW95uzmLWC06\r\nyQOXOWv3/jjzyoo46YO3OPED1jaFWaw4kvP1OKOfSziaC+A3ysyZONChHzmDZvY4KiwSOKHiqTfH\r\nuwU5j0cpOQqJyTfKChk2nMhKNzV8STi1i8M4pI98OO5g/DcIOAc2E7nMNmhNlThy1I44OdEnOFVn\r\nJDjO4XM4L3MQODVUlDhgXYU4WrIEOVr4WDkoR+s4jDyPN1NPzjdTKoQ6DdCLOiKXtDlChTY5o2eD\r\nORo1rTiOA7Y3F/ouOKEAgDgK5N84GIUjOc9X4Thqmt84joW3OdAawTjSabA4IMaAOAKZrTimid03\r\n+tD8OC5emjlhAVc5G5wNOJUOJTcsrFU3vh+QNwObojgtte04cGd8NatxkDWAw6o15fkkNZovqjUe\r\nXnw12t+UNeMqTzUcInw1pODhNf9z+DVoPyM1hL3FNbJH0jU86X41qP1cNfBViDUpeb01ecsqNXR1\r\nODXQn9c1/tkGNX3CQzUvmxM2VXNqNb7DZjXCZd41vV0cNdZ6RjVRvTk1ORFjNXxYoDUjjME1azJy\r\nNevUwzV+na01FGs7NS+ASDUeazM12lIpNQ6m+TQGp2Y1XIA1NTDEJDWkPUA1tgJoNTjQTzWz2a01\r\naKgZNb6vkDVSGEI1rU1tNV62ZTXZolk1pM0+NdKwCjWy44c154WvNeCkQzWGToI1AtD0NF5CYTWB\r\nt7E1msU7NToGYDXxvZU1H5AENTIIEDWWnJ01aLbdNJwEUTXI/rE1CuYuNTMdrjVq0Bk13g3lNBdZ\r\nPDXyuIY18OalNa/vNTWVlKQ1XfYPNQf3ZzUyeSQ1nGN/NZ6xvDXI/1A1nBFkNQIU4zWLxn41s7e0\r\nNZ/7kzW/Bg01s95DNVk4YDWuGJU11j+0NRrWeDWyC4g10YOFNURUODUz5Qc1HNFGNSB1pDWH4EQ1\r\nB8cXNatJMjUL9CI1B5RuNXq+MDVmz0E1Ov9hNQYBDzWlXH41vQVwNaQ9CTVOLUU1IDElNbYLYTX6\r\nPGk1V7h+NQyTTDUN8fM0HxidNb5SSTWERUw1/tAPNXQl6DShDwo1oY6BNar6bTXXKtk0gD6cNQxw\r\nVjWb9yw1Kd1MNWRO6zSrpQI1OrOXNWT5gzUJnTE1mLspNU9BLDW1n2Y1ARtMNd5F5TQB5V41mFzf\r\nNNwQtjX62Fs1mHAkNfhLJDXO45g1w6k8NTc2cDWuKW01BfxLNbBgWTUCyjE1ACCZNQ==",
                            "noiseTrainingType" : "default"
                          }
                        }
                    ],
                    "start" : 3596,
                    "duration" : 308,
                    "mediaStart" : 1302,
                    "mediaDuration" : 308,
                    "scalar" : 1,
                    "metadata" : {
                      "WinSubProjectDisplayName" : "",
                      "clipSpeedAttribute" : false
                    },
                    "animationTracks" : {

                    }
                  },
                  {
                    "id" : 32,
                    "_type" : "AMFile",
                    "src" : 4,
                    "trackNumber" : 1,
                    "attributes" : {
                      "ident" : "Aufn. 07-07-19_014",
                      "sampleRate" : 44100,
                      "bitDepth" : 16,
                      "gain" : 1.0,
                      "mixToMono" : true
                    },
                      "channelNumber" : "0,1",
                    "effects" : [
                        {
                          "effectName" : "NoiseReduction",
                          "category" : "categoryAudioEffects",
                          "parameters" : {
                            "denoiserAmount" : 20.0,
                            "denoiserThreshold" : 0.0,
                            "noiseProfile" : "MyBRQMA6tz5EMTZBFIwXPl7AYz2QGxk9sHhxPOjSkjwglKE8cfW8PA7uDTxXZoY7PTb4O+8lTTtz\r\npXk7zEUDOzSPZDt+fQQ7LYxDO8jrjjoM6cM6vyKMOkxQRzqyKYQ6r+CfOqFfgDrExl06sSr4OQIo\r\nXTr/wOA51lJEOiJ3BDq1yQY6FUEMOrkh/znQwRA6zBAdOrqofTmPQOw5LQK6OcMlDDrWmwg6tGUi\r\nOr1ghDn7up05n/JwOdL38DmUQOo5j34IOsH48zmWdYs5RmSaORZjOzrSuGo5+kHUORHIDDkJzZY5\r\nwB+AOf4saDl8NjM5zKofOjuBljkOjbw5enkPORuDqDkJIug4ohtQOf6XLjnt/V85VIpmOVEF0zlj\r\nqoQ5fHo1OR/AszguIiw5ta6YOHz4GDk/ELw45rxhOfP3KznEAGE5q/nEODpy2Titwc04XrODODPi\r\nyTh1Au85/+EROce3FDkqqe44Bz9WOdVWxThxL9k49g7MOP3ZQTlK9yA5bLgGOvnjrznOph450uJF\r\nOaxjdDpCt0Y4XaijOG4Bmjgnltw4ilarOcaPQjjXRpY42BgYOepThjhY0i45zMO1ONq28jg6BSQ5\r\nxTcDOdNmJjgOJZc4oXa0OHiqnDgkpEY4uKO2ONLxXTgpoL442Cb7N9Z3cTja72Y4OhNIOBjMdDiY\r\nIsM4dLJtOB+wjzgHlD44TmVYOAlSGDhZNhM4MF3FN/hQkTijcII4u7V+OKUzbjhdXvU4r3WSOM5j\r\nrTijQ6o3B/6VOKB2Ljj5Sn443m0POM6i9zf26R84jDUfOFb4wjeclEk4uWonODdQQzjmpAI5eeYy\r\nODBUJTjaLgo4xs1OOJKzWDh5MTA4iF4+OK/ZzTdSado3TrjZNwmrFjgllIw3ZuG/NxrvLTgoVC84\r\nx0aEN7BLIDjdGj84bl/UN3WpgjfJ6iE4gsaPN9zl4DdXlFY3LmbTN4zZuTcb3bI320GwN6+FWjes\r\n7Mg30xIdOM02ozfmH5o3iiuYNxwNOjjqcKQ3i6GgN5AJijc5fnQ3r7raNxwCcTcxAoo38u9wNykT\r\npzeLenE3/nR6N7JujjcYM243pi42OGh3gTcdAig3pG9VN/hqMzfeBcI3zKSiN/6ySTcyceA3XW+4\r\nN511fze3rNE33CODN/0zejc69FI3LV6PN4R/yDdfeho3jO6tN0rVLDdlPCY3Z90LN+69izcMv3s3\r\nP6gEN+IPJDeqFIQ3BSE+N+s2djckNSA3xFiRN1yrAzeJk0k3/zw2N+UAWjew5oc3CH3NN9HZmjf6\r\nJHU3B0csN8aayDeofzM3HapDNw0ZPTfryp83HhWQN4xBQzcCFNI3WuxEN1e9MzcO/X03ptkrN5+i\r\nfDdvi9E2AzOmNmRnRDfAyu027fuKNx1AZTdTUqE228xQNzD6Yjctong30saCN1waJTfTKhM3EiA5\r\nN+YpATdnaqI3drnmNtFWizcpUGE3OJNfN8oZxTZi/Vk3LIgsN2bHczd39xg3rjA8N8jDETdSC483\r\n/3lnNy5DGDdfLfE2aputN2yxDjeuJUU3YsYWN/4CSTctD2Q3WUkrN587KzfKlYA3DpgyN1Lrwjag\r\n0Bk3aMkjN7WOpTYICRg31tdRN/s6eje+3ko3+nxRN7o4BjdfeBA37UPrNuDw3jZAwx035J3/No7I\r\ndjfP7q422rTxNnZwjTa+c9c2xV61NgkkyDYLtYo3qx4wN3+JbzcR1/g2HegWN66oGTe02+42GrnW\r\nNrq3zzY/Rwk3IuVRN44IljYlShk3PmYINwClEDefjeQ2doPiNgmIjDY+Cho3G1URN8AF9DZjgQU3\r\ndcoHN4K49TaSzOg2M+OzNta/+zbMBp027KLyNnOQlDacYdI2CYsIN/o0qTbY1Jg2fip4N0oqZzZ0\r\nezk3rhjxNi/jLzbtZ5I2uiYXN2j/EzdiyOs2avmUNsEUAzfjR202N80mNywXhTbSf5E21WS1Nuu9\r\nozYhwqg2XpP5NlaU/DbVr7k2fSACN8zNyTYfZow2GWikNqxykjZTxJo2HsSyNuUPAzd6c842Dnbq\r\nNj7ChjZi6pU2B9tsNsO6xjaqhvM2yhOdNjcfkzZj3Po2rE+5NmxR5zZs67g2cU0/NqSL6DbvMp42\r\n8Bv5Nj14iDZQmj02Wsy2Ns6a1TbOuI82kMNwNtiS4jbVuKk21RPJNhk0BTcE+3Y2JBXDNtPD0TYl\r\nvdM2GhaRNlLUrDZ4QNw2ipp+NlLt3DZY8zA2+HyjNqaaRDa6qcU2NH1+NjswuzZaYKM2vNVONxye\r\nlzZp8NA2PJiaNr2dqzbytX82xDysNjeY7TYziro2JSZONumbdjbgvlY2KACfNhTRfDae+Yk28JA0\r\nNsiMhDZoB482mtFCNqkUdDbKAdQ27P1TNj+fQDfMJks2Yz/TNlR4ATdJy1o2ZCB4NhS+oDa3n4A2\r\nf9P/NgxyHja691Q2r+2CNhv9nDaujok21IOjNqoioTY24ZE2nbTeNoxejzZy8MI2bqi0NshCpzY+\r\naEY26BysNj3OqTaEuns2FOxWNmTUtzZv2Zw2M8EkNuaTgzY5rY82pUQfNu6xHzY4HEA2rp5DNoN+\r\nKTbAwic2MsE1NimQKzZYXho2zkRXNtKoZjbfJiE2msFtNjx1ETYQIDM2p5q4NXLrKza4CiI28M0g\r\nNk/FwDaJSOE2YqlGNtzsRTbrO142A38fNpIjVzbkLX42e+4mNix4LTaYmzM2jRAvNma9XjYAoGI2\r\n57AwNuAJJTYuobk1f1hVNkeIOzY4DDY2YMNINulxQTaAKwY26deWNozrHDY4xxs2MPjbNcCWCzZp\r\nNNQ17EG/NQDzGTYo4e81evoTNqNkIzbv9fI1hGgVNtLLJjYshzU2yuodNm56+TWUgfs12vsTNhrJ\r\nFDZiURY2KZP5NQtEsDUnhA42erhCNgRSLTaolrI1AmQyNuw3VDZbJSk2X6sPNviP1jU6jy025Lz3\r\nNVYO8zUMM/A1+N0MNkUIAzbe4yk2iUYhNlc+KDYCjAQ2co8zNsNvGDZhxRg2/2DrNTBTEjbctCU2\r\nKBWyNdrtOTYA6Cg2WI/ONaBkDTbUCdM1cOMuNjS1DzYiR6w2tRVtNhAnbzaS3mM2gqCdNrtSHjbq\r\nvjY2YEr4NWq7VzZ38yM3WD+fNtsIkTZd9j82GrcKNp1MMTZkbQ02BQpkNtWCzzbxScs2a6AMNmAk\r\nijY2rRw2iHydNUNC7zUgoF82MkBENtae4jXJXRQ2SL+WNumrPzYgUkY2e8K9NYxMIjay8PE1TVIL\r\nNpAL4DWCyZ023vHjNmltljaY1+E14rxWNhDDzDV2SQM2nJIBNu6AiTZywXE2YjIDN/g2KTYFuiE2\r\n3rQENsNwKjaxGbI1WIL0NZacHTb9JwI29hfzNWo3nzYm0AQ26cKzNQ5/7zVrbBU2mYwBNrz0WjbF\r\nIMY1YF/NNj2HCzaK8AU3JSwhNv8KDTaEXNA1f1naNVzUADYmVYo2hjaxNcDDfjapEVc2ToGkNqer\r\nCzZEFjY2oBi2NfLXEjaitY81ynW2NfSamzXvth42CyWONQd+iDYnKvY1W4iDNi9ygzZwVo82Yp6Q\r\nNZFc2jYmQ/g1fpTiNTWCizYn2Ao3a1UENglKajaNMnc19q/bNlvgHzcmznc24mvgNYwZOjbco+U1\r\n/jbGNRB4Czb3bAI2lOwANmLcmzakVIo1WuvlNWNqDzZ1lYs2Ot1INjCbhjZPfgk27TrsNXCNyzVu\r\nBVY22HdyNUenDDYDdzs2HCwHNro2tTWRQM41jteaNUP/rzXwje01RCHDNZvr6TUJnAs2Wj3zNUu3\r\nNzaLurM1S+sSNtH+ojVhVK01BmTWNfiYFjbI/a41394DNquI8jU1g8g16u5+NQrFyDWRs5k1RI30\r\nNYxwBTZN5xM22yUQNtLvFDZyAqc1IYeGNWA46DWJbNI1BQG9NXiIqDZEL8k3esA3Ny/GqzdK40o4\r\nvTkUOZOiUjisr4A4SAaJOPB+rTdWbb83tHyIN+yRZzcq/pc4r9VhOY6uMjlqRBs4az3kN3LK6Ddz\r\nevg3nOYYOPbzGDhKT7043Om2OGAV0jbsH+c4f4bbOG0G8zdoiqo4bNAFOAN5AjdyqL42zZZBNqtY\r\nKjYw2BU3wv56N7Zgzzf1ZY43wdCPNyIM1jZESBw3s6VwNguKADehNaE27VwUN9EVvTYSrvc2O4Rj\r\nNghEwDa3Wlw3XrLrNjju9DYeBQE3UZ6GNkpCxjbOb082zwiQNynN8zYpt9w2u+s9N3iM0Tc6dBk2\r\nFuTVNk7hrjaNJvg24nXdNaiajzWvFZw1T/QTNmc+zjUqm7Q1kTfBNY7FwDX3v7c1JVjTNU6k4DXi\r\nwYU1VPOvNVA7qjVrMIg1wG3kNSxFnTXPJJE1SCyINQrO0TUcMKA1uiStNUfHgTUixsU1TuWfNVNP\r\nBjYysMI13uyzNRTBmzXaL9U10ZZENeQcJDZzqLY1hdyLNZVVnjV9RQk2+e20NrJG4jYLxt81Utmh\r\nNdMAtzUrQos12JxMNSYpaTWlXKY1lpvVNYJ5kzVEBts1BVdsNmOxyjbOyt41Qsm/NRodrzVKXxc2\r\n63G8Nasw0TUFx4o1Vh79NdF1gjWR1TA2DrqlNUCGbTW+JbM1J+mfNfA+iTUvIQQ2aGFcNYOIJDbI\r\nvMM1zletNRnysjUXrdk17CrCNfv4gzUDik81dM3CNSRwlzVVPEs2T8DTNbJJzzXjMLg1qmdbNdRM\r\n0jXjnZQ1U1pNNV3udTWck9c1cmmlNV0fATZ5VpQ1so9DNaLcDzb9U4E11SgINfIb0jWAdMw1fSC8\r\nNULTojUDuXw1EMmrNa6ogjUebJ41PgLdNdH0MTbUpcU1Fb7wNT43pjVEb7U1WG3TNbwPDjY9oqQ1\r\nnQbSNf+B6zV+FD02xsuINaSG5TWY3sk1OjmFNe48hjVhmBk2hEAGNgA/tjVKv0c1unR2NTIhazUG\r\nQec1+119NXr0kTVcfIc1tLfVNQLwnzUJ9Go18AmdNWklTTUU7o01ptmcNa7r3zW4ha01eet4NQzT\r\npTXwZfM1dJK8NTvgjTVXoe81KrxbNXis9zVCyK41Y6jRNbEDrjU4eIk1BSLYNTQ+tTUhHGg1mKa+\r\nNZaOaDV0kRg2zZhINYuemTXDjag1p/k/NcbrfjWMiYk1XCKxNf6QAjZyB7w1BoOrNW1otDW3pZg1\r\nmvRQNUMi/zXS1Ys1OmezNSRwnzUQMzg2LBSwNdZ1ljVe56I1MiXMNRQM1TWd+H41oP9WNagKjTXE\r\n1XM1YyOiNcgHjjUv6hY2U1SvNdGV2DUisIg1cofFNcKUpjWexd81rRqQNQwE+TXPnIE1/qipNVV9\r\nuDXkr5A1krCgNfMF0zUSDYg1hmiENbhmhTUNb401cpKHNc0SpjVeUII1FsXmNZepzjUuB6k1/ue7\r\nNbbXizUejso1AkKfNTqUQTXr5QM2mbmCNcZiiTUgQbA1QetsNeyRjjVkH9M1vTt5NQCAtDUgvL47\r\nfNUQO/sEiTpKCwU70vOqOkPhVzraUh46ZXizOqubXDoKMZs6/gyJOsnN2jotPEo7esKxOtI3nzqK\r\nCX07HR+EOs24kTr631c6Nts3Ol4OYjouqmQ60bSgOiKstToJaK86K4awOmAsTzoep7Y6fXS2Oq4E\r\niTqjnQ077erHOoQviTrwDZA6KuKiOoRH3zpKyg06lMXoOocpUzp2e9g6FASlOmLEtTpPb246rKWA\r\nOsb/6jmA/xs7kCtyOm/WijrCs4E692zzOfa6CzsfZjc6qnwrOv7JRzqF3rE6vP81Ol5BiDqEDSY7\r\ngi1wOrd9hTr5GlE6NyweOtjkTToE8oE6M4sDO9p5VDqc5hw6p66WOtHNujoS3Ug6I4WpOnzIGjqL\r\nrTM6dGV/OvS2RDohoDs6/O6vOmR3VzqoRlI6lX1LOpesYDq8uZU6Jp+iOh4zmDpys4E6QySmOk5X\r\nrDouYyw6xuikOvFnUzr9C4Q6ZkCBOpoEMjpRu786wPb8Ohh/mDrGIcc6+DhBOt8Lyjq8a+06zbbH\r\nOiuRLjpcjYA6YZOpOkB/5Tr/9ko6YHqSOjXeTjo3EE06WcCHOuoYvzrp7Ck6M8ynOmveaToXJys6\r\nluyuOowwPDqDP+86+NAuOp5nTDpHN6w62UrvOtdmlzrOX8A6ksEqOqY8SDqre8s6HN/dOv+OnTpP\r\nEzo6GdSXOg7zeDr1nQQ7y3BVOuMN8TrQkaY6UPn8OeFSbDq4Xm067u4ZOowO6Dos3vY6dBZHOsy3\r\nlDrtuY06c1KWOuuKOzpmX086CkvvORR5Mjr33dc6bPBwOkwb2zpvlqU6htpmOn3jXjpEc786OUEe\r\nOmuggTq5c8E6klGGOjnlFTq8ETI6SJmtOuRcnzoxQms6PLSoOmmnhDrL6Vg6qDzROn5stDpt4KM6\r\nPR6BOr9Pozo+8mE6ADtkOvyJ3jrwKQE7gSzUOUxCGjoX9Es6osrjOuUVSDofwoQ6JsevOvk61zrt\r\ngkA6ia2uOl6TODqM0Cc6qtucOkKCNTp8MFc64Wy7OjC3xDrGlIE60K55OotW1DrBTy06U24lOlZY\r\nZjqWkoI6sV6DOqo+ajqFC3Q69ko7OgE1fTopNMs6ukFeOn9QvDopjW86dLTCOrQB8DoMFJo60r2u\r\nOqC/PzpMz7o6pGd/Oml+ezqvy0s623V1Ovz0Lzrq8q46QZ3LOmRLWzrM0os6WRywOkJvMDpP2l46\r\nijOeOsqYCTpOMgk6gg/zOfghvTpBGJ86HmwoOlDrDTpFBsU6O56WOraI3TroScs60o6cOnmtQzo/\r\nsQQ6bNK9Okl7sjoaYMI6hrM6Op1dfjpO7bc6N+3AOoREXDp4CZo6Vt6UOg6CSjrOiVo6oP91OqIL\r\nUzrYAV06TzBnOviM7jqPVJY6ZduDOuLgNDoUaXA62pJYOszlyjpMKUo6Dl3SOmRbbDopMr46oKI5\r\nOhpzHjruf2w6hPSZOvhx1joTUJE6/KUmOm4JGTrGTJE6EhcEOtmYVDp5M6Y6h9leOvQsiTqwiGE6\r\n8pwpOvrrZjqiLBk65JwhOl+vsDqsO546J6SNOgEqkjqUsrA6djO/OtpeizqOn/06FbaAOtxPVjrL\r\nR0w6Zr4zOv6RWjp7jXQ66/iMOp+8qTosc+U6MNIuOq32nDr9/Jo673+lOkYThzq2bJo61GwdO9GG\r\nijrMWH86vieuOnYLcTrn9Y06VtQeOizclDoieC87zW4vOp2TlTqtfoA6xpcsOjxHFjpHPK46heNz\r\nOrTipzqS8sw6dlUTOhsRkjqI4Qg7nO1rOqkBgjr0L4s6OzkgOnRzlzpWptk6gswkOiZgXzqUQ6g6\r\n3kWHOtF9gDrecLI69/4IOmduzDph0486BtyLOnCrOjrWIIQ6KIPeOgU+nzrjvTo6Hy/KOlfejTr1\r\n95k6EMGgOmxyOjpQ/2g6xAqhOuTwXzpHmyg6utVEOhkBUTqUxa46iJNtOoqmqTrNL6g6ml9VOlZX\r\nNjpRNa865efJOsbatjqe5p06qu5AOnBYGzvd3h07A6E+OvxoATrbPpQ6cYA0OlxQ+jn12W060AqH\r\nOtpQVjqghxk6pFMNOmfDgjop9ZI6u5V9OlCqdjpfTzE6/3egOqvHYjo3FIk6XXEUOqqa5joMDnM6\r\ns98VOhpwTDoOycM6RVIfOtAxyzoNz3M6UQ1BOizwjjoUJhk6ZNg3OpwnjjoalrY6K6sPOrYnFzuO\r\nC4M6dU+JOrPzjToSYW06WLkIO7xAXDqo/jg6KYqhOrgGTTqAbmM6xnmHOqInHToVyIM6grqfOiBx\r\nqjr1KYs6fmqVOi6dNzqhFVY6mZ1vOo41LjpmCYQ6FPYrOhTFTjrTCCA61fqJOqwFTTr4iqw6303a\r\nOnxbmzpJQJM61uyJOopniTrJuvQ5GKIJOrPpcDpaxAo6r49hOshabjqzQXU6xp4qOmrIJDpAHXA6\r\n06uFOpbakTqdFTU6glmQOsXrYToZ+RQ6rpaqOjHKozp+3p46nuwnOjxisjqHBR86fe7gOsLppDo6\r\nQ946JjFtOlSFejpQzyU6/raXOkxROzoIRFM6t2u2Osq0GDpn6Ao6f2ooOqk5tDoDVGE60QkJOzJL\r\nRzrsYbE6os6eOnAmkDrSZIk6hlcLOi/OGjpzWG46qhCEOj23Ujri+1E6QmJIOlniezp9+ZY6CfOI\r\nOru4Nzqh8GM6EP9TOmc90Tq95zA6uGNzOhXkiTqvkG06AIuCOnNiRzo0E4I6ZGUUOkiCzjppJYI6\r\naiIaOySndzoBZL06zHz0Og2ixDqkUgY6LU1WOtiqPTpb5qI6E6lOOu8SZDprI4M6JRqGOkDcDzrM\r\nMHo6bw2NOpgFpzqJOWA6n4lUOoDqYzoniho6Ua2EOhitiTrWS5U6skOWOnrdgzogWko6zl6TOh6x\r\n0joW3gE66FqqOkb2HTrWo6w6PnY3Ov2yQzolFTY66MCcOoEoyzr/PdE61L9XOpzunjrUD3c67zO1\r\nOnEwqTqvL4Q6nSQQOovPlTpSaRo6O2dxOgh+Jzoytx06lfAFOrU/YzrVX5s6m73BOgwgpDpGopk6\r\nk6/JOsx8NjqmqS46sGuqOlGCWDoPGZU6mSWROnuTpTqpLm06q/L+OsBN+Tq1gwc6In9NOr9UbjqD\r\nQgo6hLidOujddDqVI6g6gydSOl06kjpoWM862tuxOrKAizojuP05zXuAOuJVoDovtG06LGNbOpWi\r\nITrHzT866SkdOk+NAjs4chQ6ZSLxOZnLfDqKF186y7ZsOnH2YzpG2DU6NKpXOkA0STrnGoQ6UE4o\r\nOoauPjqak8Y5L8OSOtqIzzqf4Jk61zAROhDGPTpoRzg6gowgOjfIxTmR6OU5lNEyOl6hQjqhcTc6\r\nxl+nOvitWjq0Sas6EC+XOlLGTDrc5Rg6MDkHOtKdBDqsxpI6uJ/2OX15EzpaPkg6t1R2OnRsPjuy\r\nPYo6+MeZOqwObzqKNFc6z11eOiwoYTp4ODg6utROOsTX8zqFRxY6jWeoOoIQaTreTpo6RvyDOmRq\r\nezrXvEo6w+wbOu49NTqvzKM6OPZyOiJtsTpPrrY6tEWXOnPIljpwCX86Gs9XOsC2jDqUt246Pl1x\r\nOqv6fDrztGM6WFRIOlbxNTqdbIM6EC+fOjUwdjq4eC46o8Q9OpI2kjpwk0M6dYRcOhok2zoUUoE6\r\nRYwBO9yFhToFWZg6mvO/OaT3jzqYK846DX0rOom/VTpTcYA6qvd3OqzqhzrKmk86nLJ4Og67hTqw\r\nyEI6gShLOuNCqDqwfCk6BhiaOsPmVDrA5VQ49B2eNzEfLDcv6KA2gaW4NuTQrDa0pJU28IVHNpKu\r\nBTaVuhE2HRQLNvRo8zVrqAc2rAcHNqvS5TX0tqw1okm7NfLuljVmmK816hPaNTVUvjXzO5I1Kt6X\r\nNTpGlDVagqM10pAVNsyABDZtF8k1GuLJNVhNQDaotEY2Ht1zNaC18Dcif2c3KArPNzdvVThOtkE5\r\nIF6FOPrKkzhZjG04YhiONxTFxjcAH183W7slN2ECeTjZMk050kwwOYfGHji72Aw4Z3AgOIZ88zf1\r\nORs4UlETOCZDszhMLaU4BkHgNmooqDhaR804xTcQOIaAhTg9ecM3xCCDN0ZlcTekNRU44iOzOUde\r\nfDnI6xo6VPdiOvyGjDnaNOM58SA+Ov7zTTpyiII5wgJAONq8FDkMnrQ5oOfmOJ3+KzpNCKg5tVRe\r\nOa3ngDrhKEM65ooROl7B3DjV+Rk6QyTEOcYG/zlIk4Y5Bjg7OUuRxjppp4Q6zLCAOrAJ5jkxbdc5\r\nbkWxOQZ9MDk6Fck3/2ETNmrDJTZ47BU1Ya90NdxRQjVik+I0nj4JNcE7gDVqmGk1xiGmNbiFGDVL\r\nJC81zgJDNQ+XATWzYkI1IHZUNXNJlzRI3sM0PmsCNcG2FDV2OiY1SDnANNhoYzXqEQY1u7g8NXRi\r\nzDTzlao1uBsVNb5lezVJgkM13zttOMeJiTncDIU5lPQCOTBfsDkE9iE5IIOIOUkx+jkoQvQ49/S/\r\nOLRxXTksw2M50O1xOB1VHDpo2gQ6RYeCONDVxzkWeYk5cJIsOEG8jjgCAlc4NOV7OP+wETj42vc4\r\nv9mCOFAQiDhQsaw5urlSOcNRNDXfpD05h43tOAsFzTis2Ug5AGFUNdyzizWaViM1c3cUNbykcTVQ\r\neAg1T5ogNYKRgTU5il4185MINRkYwjQH4JM01a8UNUGUAjVCetY0o5aGNBieEjVo4rk1z1U5Nfe9\r\nQDXaaJ41sKDBNOD6zzQo8Ps0EvfRNBfgCzVM9lU1kn9ONbqCKDVargM1tO00NSwb5jRBCwE1cL+w\r\nNRWmCzUAjgk1HH2yNC6ZzjTRlO80blQtNSrZBzXL7+k0cMKINAmhHzX0Pw01PPehNGL2+DQeES41\r\ndO+1NF68BzV4FLg0POGcNVsX5DRJ5wg1IZ3mNHA70DTHgRA1loUnNWvE3jRbQLE0h+8fNT5F3jSU\r\n0dU17AqfNBZ5ADVZbEQ1dH0xNQArWzXX24U0BPoWNUn/5jT9+Yo1IiU1NSYk5DTGFgE1H1QLNdGG\r\nEzUqe001IYEiNRxqyzQMguc0BzkSNba1ijUUppk0qxPYNDgpojTGUPU0hBTnNMZaJTVJM/k0meUn\r\nNXhaADX+wwk1uePpNMU8QDWThrs0OCMhNW6RajXp1DY1focNNUeaGTV2DQs10jgINUdu5jS05Zg0\r\nMwYINZH6pjQcaLQ0a2HgNGWJADXe2vA0/BQdNUJr5zSD9LI08qHxNCfzXDU45Eo1UsXuNOnOTzXB\r\nkgE1gAXkNKw6DDVn3xw1Sk4XNSK+/zRwjgo1SYZHNWhMCzUdHMY0pNU2NXJy+TSciD41EIlbNQ74\r\nhTXJUvY0QNwPNcDjGTVEDRw1/AL/NOCzrjUqa/A07gWrNNGDgTXxQKI1NE7uNDYvIzWk2Dw1z9wn\r\nNaf8NTWtS/k05v8xNfGMtzR6Mso0o7YkNbLU/DQLyog11m0bNUNOBzV8HN40ACC+NQ==",
                            "noiseTrainingType" : "default"
                          }
                        }
                    ],
                    "start" : 3904,
                    "duration" : 507,
                    "mediaStart" : 37,
                    "mediaDuration" : 507,
                    "scalar" : 1,
                    "metadata" : {
                      "WinSubProjectDisplayName" : "",
                      "clipSpeedAttribute" : false
                    },
                    "animationTracks" : {

                    }
                  },
                  {
                    "id" : 33,
                    "_type" : "AMFile",
                    "src" : 5,
                    "trackNumber" : 1,
                    "attributes" : {
                      "ident" : "Aufn. 07-07-19_016",
                      "sampleRate" : 44100,
                      "bitDepth" : 16,
                      "gain" : 1.0,
                      "mixToMono" : true
                    },
                      "channelNumber" : "0,1",
                    "effects" : [
                        {
                          "effectName" : "NoiseReduction",
                          "category" : "categoryAudioEffects",
                          "parameters" : {
                            "denoiserAmount" : 20.0,
                            "denoiserThreshold" : 0.0,
                            "noiseProfile" : "2M6nQKYeuz5u7mg+VNRmPeYLTjwIPi48sSUhPAmowjtU14A7g0ahO0aMQDtxvQI7SGmtOmJTijoX\r\nd5I6dUUZOusCFDo/NVc6OkcFOkcAHDpnxaI6UM0HOkFIjznnD7U5lkEBOmEVAzoXquo5kvaUOYK9\r\nrjnWxIk5tyrAOXDWTjmxr645ASIrObhbHDmyQcc51d+8OaeGNjm6ccQ5iEmyOZkdrjlHQP84g5K8\r\nOWoWbTmwCvk4CAFEOZxQTjkKtPM5XvpxOdi7Mjn+DOU4IWkEORuIJjmBjhs5g9jbORw8wjhLGQc5\r\nCF8/OWpnKTk3rkk5GPGROJcOKDmPNiI5qtsDOed9DDkeQY04JkS6OBkQ/jj+PCA5RMlJOfakMjnm\r\neFI5dHYXOUfvqDlooPU40LlVOd59bjlS0TA4biN7OFz38zgWDQM5BofEONzrPDitbdQ46+CsOM8J\r\nhzgeN7g4ZS2AOBXgVDgHYr44d+07ORhlsTiiT7U4eOgIOUZlfDgbUAY5TrZWOVaUDzkfV50454Ao\r\nOeqWqjqSHPY4XZsqOXnnpzhlYt44MEivOQyFljjpy1I46KYYOTwUWjlzzd44plipODShlTj0dV85\r\nzN22ONZ/CjkqtW849N2yONIx8Tgjk0441QbMOFalUTi2+L04uv+zNyAoizjkokk4en94OD48Tjie\r\nz0w4SrxKOK82KTjSlwM4oxQROGSzMjjd/oY3kOfUNybb7Teh7xE4cMkiOKeJGziUaIA4Fv0hOJyb\r\n/jdoVZQ3ttu6ODwJwDd/Src32zkVOIs/rjcSGwA4msoKOGWDqTexUIs3gjLgN03w7TfkXcQ3RM8L\r\nOMIBgTd+Jfc3xhwiOHcSITi8ZQ44ifW5N9XmRTd/wBg3mU5TN//ZijdaDK43xrwPN2vQuTdWyvw3\r\nmgZrN0pBEzcVvo43LdjeN5G+XDdz9Yg3dF9rNwiYJjeSyT43TRI7N0VYHDfeeF03ANe0Nxj8mjfe\r\ni1M3W1OnN3oZBDeCcS43BlV0N4DsjDeVqOw2oRAZN+tENTduG4E3S/VxNxx/QzfIiR430U8iN/Ye\r\nAzdWaCs3rMwVN6m4tTdcdIo3nLC4N004WzdiEyk3nEuZNwkQSDfhG942KWmRNyuM9zYad5w3fhPV\r\nNhtiJDcpUZY2ZllPN0DAODe/Bjw333jsNlReCDcXIjM3wet3NulA2DbrdLA2XGasNj5A0zZ187o2\r\nYJenNozf5Ta9lQI3fqToNjVqSTf5zDQ3gWX6Nvx6KjdyrD03ZpvTNhrXsjYAyiM3ByDgNleQ8jb8\r\nuR4381PUNqcx6Tb8PQ43lKRKN6LCJjdPrhM3WtDbNpROzja4pLA2JOcQN4pisjZPGPo2LJnSNsfd\r\njza9JbI2AMqiNl9SVDbk8Iw2A/9BN+JV3TZvrsk2JUsUNx4A4Ta6RJo2s1gAN4xjozZXV7c2UEbu\r\nNkY/9TZ1UUc3aY1ZN6xRoTbys4g2elckN0pzIDekk0E3upg8N/04AzfeqKQ2yuSxNuAevTYIaSQ3\r\nidvPNoCszzYoca02ct6pNlUJmzbO9qE2hP27NoPhrjaBwlQ2KDdpNmvn5DbeE0o3R+HMNozHnTZB\r\nBpY2mqm1Nnu4pTbpupI2XZsUNwiuEjcdBYY2skPINtZA5Da3FKU28sq1NswUhzYI5Ac3v7gfN0x/\r\nADeYkkA234q7NmpIxjYWg7Y2oAmbNjGfgDawF9A21YoAN5yKWjbYBnI2XFEJNwxC0jYbO+s2SMH2\r\nNhZlMTaoB6423p+kNj2YuzbdJdM2BTC+No8cIDdgf6U24ddmNnl3zDaimsg2D+5ENifDkzbf76M2\r\npeeZNhAJujYshZg2riyxNtZAPjaUUr829jOSNqGPAzb1nos2dlblNgB1JDaCOT82RJlPNqYiPDaS\r\nDy428W1BNi1xbTaCLYk2VoaaNlFMmTYPiuM2PEMKNuREPjYRijo2B4fnNiCFDjeizQE3nn6KNgSQ\r\njTZhRq029Rg9NnOvgTaojYg2uGYGNmSwaDZrqXo2fMWwNvolATcjAqI2x/oNNqZUVDZGoG82ESx/\r\nNo9VQDY00ic2/l+nNjA8azb9rZc2bxYDNsqBWjbIyxI25dXONhZzbDYTr182gU9rNkcUYjYoDS42\r\n9/IINuoJyzbmtjw2vncbNvFkUzYqWqU2Z7AmNnH3HjZeIwQ2VVrRNk7jPTb0Neo2dBHJNeToAjZq\r\nQUA2AbBYNmdIgDa1qN02CIygNlUHMDaHwn42KopsNmLygDZfWlQ2G+IkNhB2ijbzAW42ETkHNph3\r\nJzZjIGE2NzmbNpXLUDZhjxI2uninNgztATauud01CpsDNqGu4za7H0I2asN5NhldVDYQGFM2QeeV\r\nNkcsEzYQ3QY2zUdnNm1FIDbEsCE24ZUuNiR3JTaKYaM2e28VNjwYnTa8vWE2YjSCNphnTTa0GDA2\r\nrWYUNve9zTWRJE427nkyNqy9DjadUXk25Nf+NTR3dTbfoys24qSKNsfSmjYW8NY16y8vNtSOOjbd\r\nfc024oFENlgiXzZiJ1I2iWJzNhJRlTaGQUg2PpzlNYk/ETaEZ4I29r0GNpzDvTXRyHU1JAx0NR+l\r\ncTWF3Ig1/L7DNcSIRDVmAL81jtfDNY4RvjXwlr01LsilNU1GvDWEgWg1ZkYBNjGE0TXzaXQ1S7Dz\r\nNWjeXzXb82k1Zy1dNSqByDV+la81dJZtNQEPiDUuSpw1uG5gNRaHqDWoRXQ1hP6GNUyMwTUAgIw1\r\nspS0NUxk3jVCAkA1WLuINdBNqTVksug1ur6iNZ11YjU/+tg1t9qXNZHZJTU/tMk1sdtONczRcjWS\r\nmo81lHVINS9EoDVZO2810BSnNUCdjjXZd0Q1ULJcNR3hojWOpos1pQyHNagQkTUaalA1nu0SNWif\r\nTDVdFo41sxmcNUxQZjUwKQo1mLTvNcZwlzW4j4E1LZuGNbbnWjUWaqs1wXudNX4pUzU2Jqc1KE6W\r\nNTTPuTWwTGk1HEd2NRxRgTVECJM1iseqNYC7vTVxSbo1Vu2JNcB5XDXIGEk1HbBPNUhZDTak5GI1\r\nQruHNe+x4DV4yAc19FdRNWj83jXMOR01k3+fNQCrwjWXHBg2gibgNYkz+zWbcQo2QbHDNQg08jWj\r\nntI1gthTNvMM5jYYlro29UhjNmLzgTWChfY1GB/1NY0j4jU7jZA2wa0qNy1fozag3PU12iaPNjZy\r\nITbnWNY2dAe6NcTF/TUTWw024T4FNtCGfDYFTGg2vedpNe98tzX4nAE2fquKNQsJYjVSDrw0//71\r\nNXnfgTUz1lY1bEhmNfYeHTWGroo15qY1NclSVzVTcwQ2g+qjNRPCrDVwlkE1vN2XNaTfKDXH/J01\r\n9YNCNbObKzXLnRM1IyBCNQ86gjXIPVQ1bMp4NZR2JzUm59o1hi2jNbxgZDVTbDY1uIdYNaT8ljWm\r\n+R01Mg5sNenJiDW+wbw1qJVVNfOKkzXCcuI0RoPYNRvlFTXKrDw17HcrNSBJSjX7XWs1zqWKNZzu\r\nazXXU181J6VyNRouTTV/Jo81Iyk8NdIORzXf+C81f4iCNedwZzX29aI1za5KNXUgITXmT+Y07GAh\r\nNRRKDjWyyj415qQlNUEu7zUjnKU1sAUXNab6xDXjMxg1sF+7NSGnwTUK5Ws1UIlHNXxMkDVSJIc1\r\nfCmHNfTOOTVIS0Y1so8bNfnM1jVKrgE1iEcFNfjvTzX0s4c1B7UINS/bYDWj9hg1TMnYNTjmoDWt\r\nij02X4VcNmbWcjWV3Wo17VFlNVO6vTXItYg2+vuGNhCXxTUnkjg3XrOgOC5NfzmjMmM5WlCZOHNC\r\nDDi6xcM4+zsvOcAYGjmUbJM4ltOmN4uTATjkWw04eMK4N0X98jjodPk4LDfTNzIzdDc65lk4DZ2X\r\nOEuAMDdXOQk3+dFZNtELETbbIQI3f4U/OGbfFjjgPv031OoLOLmkIjcGyzc2/SNXNrFH7DVdQKo1\r\nO45CNldwsDW+O201AQh/NYT2ajXnEmc1JoADNme8HDZ6OJQ1Y4bLNjYvITb6HZ81POrKNSu+fjWi\r\n0iI1SP6INZK8LDboTIE1W54yNhxprDavMJc2N/6bNnaCuTbIsC02YaKSNWuaRTYyqGE1XG6ONYqi\r\nKjZRgAE2DwlQNvShlzYg5mU26q4VNZe3mzbdbw03wwc7NlAPjTXKqZA1YEIcNl01DjbjOI41NnyM\r\nNSx9STehGmA3Owd1Nr208TZHRZY2C79LNm1dCTc4pjw26oH4NX9RdTXGbTg2MABYNp3fdDauCgg3\r\n3t39Nic5oTbZSmE1cutmNcaWZDV/+1w1+slvNbe6RTXpjTU1Bjf7NOUlFjVgnRQ1c6R9NYfCWTWJ\r\nOQ410zXXNP1YETWC9SA1jnoDNU8lijUie9o0CFaONYNQBDW85gY1deqmNZw5JTVty0w1sH8oNcNh\r\nBTVVv5g1R+I0NTWUKzV8DYA1PLm4Nbd/sDVP+LE12Jt1NVklPTVWswU1ANwJNVqB6zSOxJ41bVOS\r\nNQiY6DRVSwQ1TGwXNZ4nHTWwNp4189mtNekxETUKyEQ1ONhzNRhCWjVbqTQ1XZwlNWrLgzXOy0E1\r\n/6HRNBrcLDWaT9c1z1cANaWXozUjGTQ1X00CNepnpjQAK/w0rtV2NQ2hQjWEAjQ2EocQNnFxdjUn\r\nYY019uagNbXWMjWysYA1OtBJNomvfDXu0pk1s/9WNuqBLTY2yPw10onXNhLnyTYssBE2qHrnNWqo\r\nWTb4D+Q1YwSYNj3sRjaf9742KEGWNuahFzfK3TY3zF5CNxv9pTZlZN82+xB7NuFUETZxAa01n0KB\r\nNjQtETasHg82EUgtNQxzwDXkRts1jsnwNWFvzzUXG4U2HsxiNvvk3DQolwI2sAeDNhCrATbh4EQ1\r\nyBuiNZfCWzZkjUs2FbRONUJGaTVst8A1DuAvNmzQ/zWaQEc1eGPNNTjuyjWLpGQ2SGskNlcg2DVy\r\nt101BahhNtS4JDY0Ltc0oeRKNW4mLDWnkgc1pIwsNcISvjXQ2ww15Ot+NQ7IlzUmr2g1YudNNbJz\r\nDzVa3Dw1NXlZNeb+BTUVBag1iDiSNY5XQTWsy+s0PJ22NXuzATVD7ds0yi0aNdf1iDVNrSQ17juE\r\nNez9MjUCBHU1s9puNTCChTWIBA41YJU8NevWMTWFKs80QMA/Ne6QFDUTgKA131BfNYBnfzUZ2S01\r\nP6NcNbrOeDXAHS81QMtONWVnjDW95BM1WPvQNO4qBzX8bWQ1pQNYNSruMzVbsA41rr0eNUvLQjV6\r\ndkA1rcEzNYkDATX6Q0w1bPdONcFsfzWnruI0ovZzNRqPAzW6IS81Q1j2NCAdkDXgUyE1BZgpNXEq\r\nUDWpeFo1WnIgNc5mKjVUlAU1YHPnNEET7DSYhBw19D00NRDAITUjoG01gZNFNdOxsDXOZgY1Xtca\r\nNRVvAjUUYjE1g//eNERHTDX94HE1yvWzNDIDlTVMuEs1EZxXNVqvhjWK0ys1qvgoNQAgvjWi06k8\r\nd/GKOu+LnTr+03s6wVggOq57ajoS9Jc6iA+fOlf9azoG1nw6+GCVOtjyWjolujg6tR6kOiYU4zr+\r\nU/A5tqYyOql33DoIJGo611udOlRqzDrS8Q06rv8YOsjbsjr0uIY6KhKjOj6jhDqLGMo61pmPOlhz\r\nzTrKe3I6T2tyOkiP5TqCgGk6GCwDOyCoIDpQyYw6LgctOl2pizqUsqw6Eo77OdVFWzpUQNY6Dteb\r\nOtglcToE7MM6L/uXOnwioTojhaQ65kbAOiEIrTqW0H86TvyQOscAYjrSSzQ6m++fOk1b3jnpcKQ6\r\nIg2FOqX+Rjq2NNU6+D5dOtSPkTrNFmg6H/+0Ov1CbzqqCII6ZL+EOvO+UjoU30I68IOcOgtqpjqx\r\nZWU6KMJGOkFeljqGq9I6XjeOOm78bDpJdmg6A1SfOmmiUjooVM06C+icOqxQdjqsYKU6RZk0OhJk\r\npTrHZJ86n2IqOsyGYDr0bvw5esiROhN55jmY4os6KVWoOnKAEzr4lYo6R7xsOr3thTp4gkM6CljV\r\nOvQ0njptWUw6ApWQOmTwFTok1X866iDiOqPFZzqGOYw6nOq0Ot1PZzpyDkE6xA2jOksfpjqtclc6\r\nSm+KOlwcEjv3IBY6mV6uOn1pMDrUXLA6G7dhOh6puDrsUok658TMOkNmlTqBaUg6rkwWO5aaKjqV\r\nnrg69N6EOuwUUjpY05g61AywOvY2xjrkvr46Pf6xOua9Azu4it86hXOZOq9dgTofJkg6W1s/Oof/\r\nmzrbfGM6dlmoOtQpOTqOVHk6Q6QzOojNpjqOsoY6FZ5ZOogxoDonNd45OLvMOo9mrzpvjl86huji\r\nOp5Fnjr9XK86uAXDOtrkCzs83T4694oMOsrFMju5GH86Z7qnOvZTSzrKwKM6olmkOmOIFTs/J0s6\r\nmZB0OrZJwDq6eIM6ECs0OqfNiTqTHJo6JEQ7OmmQHTof0OA6w6m4OtOlBDuqSUo6n2M4OusPpDp7\r\nG4A6upFUOnnzmTp0jpo6JtHWOvXuAjqxUX06CTOPOno3qTqXt6Y6P7zwOptjoTogBr86pLJqOrKz\r\nMTpHykg6dSSXOqprYjpntoo6Yq57OlVQVDoSEvE5nK8XOmzoJTqzSys63M/lOtjVcTptgnY6ZdhU\r\nOqq+UzpYZa46C6mGOnofZDoonT86bXK3Oh017jqPyjM64soxOv/trjop3OE6B6mOOpc3LDqzk1Y6\r\nxmuVOjevtzpirYg69BiwOnweYTohcG46lI81OtRNqjoyBfU6vq1XOmzNnzqB8pY67oAwOnIAsTp4\r\ngmI6chgmOtsSsjonTa06LZV2OiuDxDpgTYo6y7/SOt+xijqrEK46FgWNOpiIhzr0RoU616sOOvC1\r\nZTrhsVI61NdOOmwqOjok/pU69rW6Otk1nTrCQOc6HLYdO9lCvTq2yLE6WEfoOpJrjTpeyVU6In8x\r\nOs79YTo0Sz06WNEXOum1mjqBrA06Xry1OkUj2zk7tmQ6H9FOOiQSlDoiEJk6/AScOpGQhzoR/lY6\r\nxWn1OgDGljqU9qQ6cZU2OqwXXTpwzNM6cOIsOqsaCztiQFY6HArbOo1MQTsEu6M6yLB4Oimxnzol\r\nNUg6SBIhOqoGZTpAwWE6H4gQOu2ZVzrixTE61FhsOt1fgDqIk106riezOtTV1zoIE6c6V/mAOgXt\r\ngTqIxk86HGUOOioAHzp0MIE6RrJAOkQ3RzpU8oU6sTk4Ot7bVDrKnnQ6jn0ROi8qkTpBaYM6g04u\r\nOqhkYDrUGL46en1MOkW0STrw1Fw6o6QiOvbxFjoqu1o6Vc9NOlI9qDnAUBw6WaFgOj59ODoFgiU6\r\nwSOYOirYLTr82mA60PyEOiB9pDqTd0w65zvhOi2jGzolToc6+098OiRIdzpkLWY6Kw+QOqaCfzri\r\nXnY6JLXBOiX8gDoS48I6yhnUOghjiTqtTys6oizCOiDbzTpFfEk6YB2KOqqDXDpgrwY6A/iXOm3r\r\nvjqdmHY6g95gOhMm5zrJZYE6dGy6OiMnBjrRbJE6vqiNOZ+sJzvK/1c6tiozOkI5XzrVhuY6IqJD\r\nOsafIzr0GlU67ml2OkjBgzpu/p062jWmOt4KSTrZqY46VpwYOsbK/zkimqk6gcMbOhaOMTo/3gk6\r\nOwCdOhRAuTrO0yU6RnWROo4TzzqWAbs6RNRyOu76pjrUlXQ6MUSSOnZLYzrK0ac6pGugOl98Tjo+\r\nAbk6zTVrOgiepjrwflU6K5heOiJ3UzqlaIM6LPRPOmntSTqKwlg6HR+xOoJs+TrSB4A67yy1Okgq\r\nszqLEoQ6UZ85Ot9YMjqR26g6dvHWOsrfQzr00o46kgQGOjrGyDoRMJA65FquOpFewTomZ686tCaS\r\nOpKzKjriLTU6iOEaOmTp8zrkWtw67Z0mO/cXhzoG3p46eJJQOrOvLzpIC4k61TONOhePYDoM73I6\r\nWPCqOZmzmjpndqw6qNbDOvJ2Yjqk+Fc6KN5MOnzCEDuoIIM6Vd+WOh3tUTrgkpQ6Kq1bOmLezTrd\r\n1II6zuprOsTCozp4L0k6S8HjOkqHVzrVO9Q6zMdLOhvnUzrTsmU6blBQOkX6lDoXZjk6RM5COnrq\r\nnTpsOR06Hv9NOpq3iDok35465UBJOhCyxzoQaKo69EPwOdrOcjoC83w6Ft6KOjdMhDqyzbU5gJTf\r\nOpKnRjpz4IM6EG5qOq/6jjqmoBQ6yheFOjk0QDog3jk62a18Ov9lkDpU/xg6lLI9OqBOEjsPvNI6\r\nz3SnOrDmEDoIxkk68lWTOvbgpTrWkVY6vXGNOhTacTpIsho66h9pOncPdDoB3/w5jJSeOU1QKzqA\r\nkzU6g+aiOrsgUTqn4ZQ6UMYbOpavqTrv4Fw6liFlOvbx+jmAho46FLWvOjI7UTpU5QE6FYaZOjmP\r\nrTp45fw6ys6OOpiYZTqID3g63MGROsf2LDqVTSs6Mu2EOrM0lzr1bsU6HQUxOm2wTTrfe4E6sXR0\r\nOqFkwjq+QUs6majZOs8tKzpsems6fO+iOnjKKToDZIs6UQEFO3JadTqY/W46s5W1Os4iOjq+m9A6\r\ngOOYOoqpZjrg+Zo6MRm+OiG3TDrmnLU6od0aOl2aRjoBCYo6zrd3OnslBTuu5Gk6sTYOOqQ5FDoU\r\nH2c6zNk4OhAeFjohnpA6gDBtOlSLpzqtnzM65kGpOlcoVzprCq46mqOPOqS7cTrEIJ86Vm2bOmlX\r\neTrMNn06HIOSOtoFpjr6jGA6aD4dOhkGhjoUhmI68FkpOsa0MjqGGOY6p0u1OmFnwjpuPDM6qtaM\r\nOmX0cjqFkEk6oaY9OrZCIzpIdmE6v40AOjo2ijryWpA6loJ4OggsJDqeyzw61eREOisKaDoyzT46\r\n5r6GOiTfiTqHNaE6FFRGOufVOTpq0rE67stHOrpivDoQ8SU69DREOtCkIDqBQDk6Vv8xOiQ4DDom\r\nIRY6LfhfOjusvDp1nkU6/GNuOkfzhDqiJ7A6ZqD+OQNzNTrQwxk6tTieOk7Bnzqqows6nFo3OopP\r\nAzq3M2w6TCVOOpx+YjrwNow6EoQ+OluakzrkASs6vIsbOkcaZjqWUbk6M8KyOjbGiDoGV146pr+t\r\nOphLLzrmQKY6NmBFOvClLjqGshk6HJsZOmB5lzrqmSo6Giz5Orr2ETqH3xc7GD+pOhMeCDqfgkw6\r\nDzNlOgQTkTo+LPU5D3Q+OkC9MDrbiwQ6lNFtOiqzfTrjCJo5fcbwOldPyjqaeFg6YrbKOk7+kDpJ\r\nLGs6DmVAOm+95TkD/4g6xPV9OuIcFjpDPFQ49kbkNtfhIDeQNc84iF2gOc9qPzlcUDY4r6Q7OB1A\r\nxjgpKw05UAMDOcKtpzgkstc3qvgbOJ+/Szg5eXg3aZUaOeSMCjkJ7aY3wVejN0d/izh3+I44Mp5q\r\nNwr5BzdFbZM2OH6GNYXQGjciiaw3JMiAOH0gLDg7T7o3alZYODoNVTiGU7w4474xObtv0DiTvgs4\r\nbAqaOJaHWjjEHIU4PCmSONh3mjlumSM6XEP6Oa1Sszggvrk4+Pj2OL3CEzg6feo3FFH6OJ0L4DkI\r\nybc5OUUNOuYB7jlYN7g4jNTHOHdTRTkp6PY5AFShOStfGDnQBxw61XgFOrUc+jeMJDs4NdUHOWwx\r\nnzhl00Q4u6vROCwUNziyyg84nPiAOAi5gzn9BZY5Uoq2OCChGTUs6c04CPm7ONprVjngQao5cJD2\r\nObkRAzobNKE5aA5NOZbpIjj3V4E4jzWGOQZIyTncwI053fg3OQGVgjiCDfw3z155OZpqCTo3H645\r\nkNmxOLNsRDj1KdY0tbIANalpLzUX/0s1TqP3NAYw5TSWfyk1n2MpNeu6djVMAeI07W9RNWaQpzQQ\r\n/w017vMPNUE1sjRQ1Pk02tTTNLDAHTUH56015oB7NMxjyDRMOjU1i9OBNf6PojUYMys1BobWNJks\r\nNjUQ+7M0oysBNX5/wzS8oFU1eFcRNcJkXTWugQM1F8WqNHLwLDUHucg0FVUcNVGhuzSqRjE1S0It\r\nNQ578zSUkzw1z/gnNfCu5jSA2fA0E+gbNYfuDDXbIq80BvtjNWsILDU/ZEI1LhgyNQ6G/TRXj4g1\r\n68H5NCtQ0zRFD+k0ZzoqNRZwuDSF66c1ao1hNaYAoDR7zrE51VruOYfegzhpdVg3ne2lOP/e6Tgq\r\nrzA50Uq3OEw98Dn7YQU6wPFHOYzanTg0sI84fAaFOBYmKznOHjc5vpOjOQvBDTrVY+44jXugOYrb\r\nAzloRqk50QDRORT0PjlUwpY5jEbiOeACCjqXfbI5erOcORZY5DlQ5Q062+YhOrxUFDnL2hY4RXvy\r\nOPTqmjnmjWE53wEUOdj8tThXcuI4jboDOX9MDziMmhA4DnaWOAZdRznYnlI5X56JOdLM+DidUVw4\r\n0xC2OMYM6Dk1Zlk62e4YOv5tmDbOfyA6w55sOjRqnDn0DYk3W6MPOJ9KEjoDYm86Dp82OUXyrDUD\r\n18k5a1SLOfzPEjX13Co1BBRANYUicTWlSCQ1iR/ONIWnuTSABA01cwNfNZfZcjXiij80kaMENa2K\r\ngzVFWxk1yKXzNM0QazWG4LY0bxqwNCAEIDVW77Q0n4fENCRg+zQO7AI1jhDBNHsLqTTz5OI027Tq\r\nNAXS0DQHOWQ1Zc4cNUGXOjXgaiE1CSgENbscgTQC5Es1zTG9NAQcSzT6/xU1pGmpNLBHmzRRrgs1\r\nedsbNRkR/DSO9dk0hBGsNNmt0TTMouw0lkUINYp3sjTy/4k05bkGNWaXyzSAhhE1fl/SNBvYFTWH\r\nfaU0GsfVNCCaRzU4b8c0HGkgNSr+xjRpn5Q0AUfFNFrNpjRAIhA1LH/HNJGH1zQgzfw01pqHNA+o\r\n7jQkWeA0B5iwNHW9iDSXhLo0M2KSNEosUjX3uhQ1NUP9NMfJxzRHzTE1n1jwNKVW5zRglRE19vwv\r\nNXE+9zS2KME06scgNfCz+jRVdf800x4oNfKAazQR3vA0XCdyNOnvPDVv+Qg1AABhNQ==",
                            "noiseTrainingType" : "default"
                          }
                        }
                    ],
                    "start" : 4411,
                    "duration" : 1701,
                    "mediaStart" : 53,
                    "mediaDuration" : 1701,
                    "scalar" : 1,
                    "metadata" : {
                      "WinSubProjectDisplayName" : "",
                      "clipSpeedAttribute" : false
                    },
                    "animationTracks" : {

                    }
                  },
                  {
                    "id" : 34,
                    "_type" : "AMFile",
                    "src" : 6,
                    "trackNumber" : 1,
                    "attributes" : {
                      "ident" : "Aufn. 07-07-19_017",
                      "sampleRate" : 44100,
                      "bitDepth" : 16,
                      "gain" : 1.0,
                      "mixToMono" : true
                    },
                      "channelNumber" : "0,1",
                    "effects" : [
                        {
                          "effectName" : "NoiseReduction",
                          "category" : "categoryAudioEffects",
                          "parameters" : {
                            "denoiserAmount" : 20.0,
                            "denoiserThreshold" : 0.0,
                            "noiseProfile" : "wi7yP2pO1j4+Srg+SkhMPWyHuzz5mnw8tgioPK4dQDzOSMw7zbKJOzIQBTu3YEE7oNWQO6Tvzzsz\r\nFU077YeuOwPuBzygIK87mCT0OgXhvTzEIxs8B5OkPH18AjyLur07y/SmO8JGJTv1hrk6PO4QOsIw\r\niDliKJo6pGjgOTwGmznEuAo6BoAkOTAvlTng94Q58nKdOgMpITrE4ew50NKhOb9vKzoCRQI6AKIS\r\nO1YxCDrTzfU5/VdWOlLiYzoOV8U5fSQGOgkI4TnOWpo5NNSiOXUI/DlAF2A5W8lNOpYujzk5G4c6\r\n+IaTOnQdsTqz2Kg5ZZEUOuukljl4MtY51vlrOpf7ATpY6IQ5jix7OhSbYTpqgY46JaynOlYFCzvG\r\npho7uesNOw0ahztCCpQ7ynALO85qXjshk4E7yBaJO6LG9jrJoyQ7yKYGOwpzFjvrvA47keBIOycb\r\nUju83B47AV0XO1cSFDtHyzU7vCC/OhlYeDrm2zk6tx2bOVCMXDpUH6M6JY4QOgF9qjpR9kE5a6/U\r\nOc5rwzlmdjY6LGA+Ohe5JTqTARY6ucWHOq0odzqdyrk5XECsOpmOcjqbLio6rfbZOTO1nDq2+oE6\r\nYTgKOwHeADtBsAA7Lr7vOTpDdTqGSMg66rieOmYwzjqMkvc6b1knO9qt8Drjinc6RgY5Ovs/qDqG\r\nmP058ndXOrZSBDlijhY6WGRzOq4gqjrRvw06Vh+LOXMRaTraakI6LOYPOu2JrDnx0+E5eXOpOWVu\r\nnTlqg7U5DkDWOfs/kznAGGE5q3AaOQYUxjn89GY5JmpSOVD5qDh0IfM4CJMlOCp4JzjDKrQ4YkJC\r\nOcueIjmix705vOwSOdSxsjkgXoA5/HckOiOezzk6drs5gMamObwUXjmEAq45Ggc5ObsLQDlgTMs4\r\nxtrEOI47bDimL6Q4iT5UOPI/DDgZ2S441aeiNwKr2zf6rHc3S8LMN77emTe8sig4N0AvOAHnbzjv\r\nBYI4FrxnODj0VzgUBBU4nIaDOOFGMjhuTrk4fGzNOE+DgzgI1HA41spcONYPEDn8IVk4qhViOVLg\r\nGDnx+Es5Z5+LOSUnTzmwlh85y2YsOYq/Cjm+ylc4vENCOAJXOTjeAes3XCiaOBOwpTgUaEY4MWJz\r\nNzY/PTgWxGc4wS/ENyu8pDe8Jtg2zVoXOD43LzcUkfU3vg6dN2Am9DeCwBg43oeKN3hXdDdvSYA3\r\nwJPxNwIGlTetGhw4nYeTN1skbDiyTcc3Cak5OJ3tFTg8oaQ34MzDN/CBBDdvWyA3G8CKN/RTOjdG\r\nnZE3/AmAN1qVmzeEUR83Dv6zN+ZwTjdTXDg4KKU4N4nk4TcVzYo3M3cxNy6TijcaBCw3YtDSNqII\r\nBzhmoog32HDJNy1YJzerBko3lSluNmY3WDdx8TU3ZwFPN9GF3TaiQ383MoDkNitH3DY8m+w267D/\r\nNnXOmTYsV5Q211b5Nl3xCTd9lKU25GPCNgBrNDehzqc2YqVENxpSGDdfAyY3yg/TN6zOaDeLsz43\r\nm/sVN9RwzjZLtRQ3aEdQN1JiVzdFEIk3U8kGN89t6DbJxio39CaNNtgm6jZ4ArI2zDksN+OAczcs\r\n0P43DdBBNy6wxjZ3m1c3QBeTN6ztkzjW18w4ACEnOM/YwTfww783HajjN739RDjOhKY43Uh3OLBz\r\n4TjCRZc4/q6lNx7IRjdfRd034jXSN3515ze6sOs3162aNyqopjc8qoM3M03MNgkoiTdBRBw4GFWZ\r\nN19tpDfsfSI3cvFANxdYUTdW0M439a83N4MEejfK2N83fl5GN3uOyjbUxqY2PajkNmP4KDfWTHs3\r\n+EcUN5AGgTfZdpM2BoKFNqoU5TZs+DM3Bi1bNzN1FTffltw2cBORNtalvzZLh/42q802N5QBSzcg\r\nQmc3BtYmN10eijaKgfI28fjGNholEjcuPxg3TDA2NrNmFTe8ht82Kyi1NjtCATevOqo2Php9NgRn\r\nCDfQBRE3Nl9+NhGqTzd/JjY3uImbNkf35TZwtME2cADENvKTSDb0H/o20Ni/NonPtDa0xJU2mO6G\r\nN/D+mzaZ3m42xIfUNrtpwjaMtyA3fAagNkrl4zZl0Ko28qmvNhLZJjdEUDM3ODYlNrBjhzbDU3M2\r\nW2BrNtTirTaEmoI2Z7IeNoolkDaB8L82/hW7NqGE0jYgNW42fFi2NpzYzja97q42YrWCNmJIcDZW\r\ng1o2AGq/Nt8HxTYx8U43YBCSNgvijTYQxtg2ACGoNtjsBTcP74M2hCp/NkLb+TY/a1A2zeqgNvea\r\njDZUT5M2sjltNp5HpjYj1jI2S4avNlHOwDYQE582DhWiNmPx7jZjgY82e8ERN7q8BjeGPhE3eraW\r\nNhNMnDZ/qcU2ZA07NrLkITciXwI3k8DnNjMkbjdS4602beGsNpZnUzZRGzc3V3FeNx9vWTerTXI3\r\neu0GNwhHjTemoPM3m7egN5JDeDccr4U3o1gVOLgOfjc7BQY4PZj6NpKKUjfJYDk4fyurNwFmCzig\r\nXoE3LJsCN00Avzb0BqY3d8PsN4gnaTcS9CU3JygMN6oWeDfFU003hkMZN4J8SjfCwcg2nLR2Ny1f\r\nbzdPvSw3tvutNmseVzdiwCc35IC6N2rlrzfE9us3umMGOLqbujdEDL03zvt1N0C61Tf9MUA35ICr\r\nN+6dSDewsa830uycN57AdDdHdqA3tLrXN7meOTgsxgM4Tjv7N4bumDc/m9E3RdobODBQuzcAQq83\r\nblAmONq02Tfumww4GXoeOKryLTj09zU4Jm8COG4RFTjWyoY4LGAwOEw3MDhiAok3T1aPN9ko5ze4\r\nWCk3pXDDNxSvZjcQgWg363W1NtZX3jbaQLI2CwbbN9oQBDczXKI27bU3N5BQKzc38a42jb33NoTz\r\ndzb+ax43cbeDNp7LsTa6LOM2puOqNnLnHTaLE6Y2pxWANqvK3DaU1FE3aUDINiKCsDZLopM2jYhx\r\nNu0fpzbUwxE3RjyRNwDkkTd4Uvc2xmleNgaA7Tbnfn43eqUKOLM5FDi3mIU3osbINxcbhDdCqqM2\r\nC0MjNprBJzcAzpQ3vXiMN+GpIjdCV/I2JhIoNmNSMTZju542i9bXN9r+cThMeQQ4JHnxNlkIIDal\r\nvzg2TGxENh4mwzZ/+XQ2wMj+NQNoJTb+tyA3WdqWNrrusza8GjM2rHCENi7zSDYorDA22o7cNsYd\r\n2jZMtEE2oC2cNsRleTb1MP41QfK1NcerjDUQEhw2hK0CNkg51DWxmr81dtRRNig/ijWNz2I2Sk6s\r\nNQ7EITaw7Vk2lreNNiWh5DVCd2g2lrSVNst5HjZKwbc11GLKNuvAFDY+sHU1cBYzN8sumDble6o2\r\ns3AoNwibkzafKZk1PalgNsIjxjbqF5g1GCg0NzOmPDfKfjA21iuENu/v3DW9r4w1kyx8NoBZ5zV8\r\nahM1/P8ZNSfjEDX8FnI1lJDXNJj99DSRIQ41HSlINVm7FDWAdQQ1xwLoND3hXjU8hyI1kqh7NSLD\r\n8TQsb6E1pDhBNZX9bTUycAQ17rZtNb+Z9TSylIg1RzzLNf3FfTWctK416NfbNHrtxDR6Qv40FuX5\r\nNGBzwzSEFAc1AoePNar+VDUG3IE1quZcNs6cdzb7HTQ2deSgNnOxiTby8rg28M6/NhKKtjaBhuc2\r\ncTULN4X4oTZOfDY2mXBzNhafPjbE5Us1D0/ONnEupTZZ/gY2XySoNcyZhzbMBvg1SBNeNl9OAja1\r\neuQ0ZCbmNbZ2EDbFCVc2qbJANqoC7TVgk483t+oWOLDYpTf1qQ03CN02OIO3fzil9T42zQ2UNwyN\r\n/DhPffA4r8ghOI5IITianIQ3cu54N/CFpDj0juo4FKYkOXa0Czl0gyA4e//1N9LFDDiSjhU4xpE8\r\nNwRXGDi6QVA41jIkOA+wJDg8J5U44algOGIZCTh4Yd83KiDfNyP4RDcSXgI1zGWZNVxLNzU+x1g1\r\nZr42Nc0oGTWm3h81H3wbNZJ4YzVruoE1QbE2NcmiTDX1t4A157SsNXCWMzW7oUw1dj9oNdRZ5TSP\r\nF4c1y42gNcRKpzQb6DM1MFCXNHapjzW3FFM1KMEtNVwc3TUKCvY0p+MONRY3KTXhzAU13fZLNRSk\r\nRjU5fgw14QsHNUCmhDWkjGY1RG5iNU9fZDVbIUA1JmteNX4N7zR2s1I1HDiPNfyMYjW47YU1+WVB\r\nNQ/oKTVMy2s1iNE7Ne4MgjW/Q0Y1jpEgNY+VizX4ShE1RcwUNaQXIzUGDEI1GgdWNersVDUxi880\r\nYJZENUzN9TSBRYU1aylANYG/DjUyoS41IQZINSIV+jRTw90033pWNXFGdDUVdyY1GOF5NU9HiDX2\r\n5Vc1PhE/NQNiRDWlW880m6QGNcJQ/TQgxEI1MI97NdO80zTkFWM1Bs+WNez6PTVYPe80vOVWNQHB\r\nIzUqo5012W+dNZaVKzVkDpo1OO/0NF26+jRmnOk0/iYBNawdwDXuaIo1yzr1NOT5oTVaFfI0/k06\r\nNZST9DToR+s0ZXtiNf3qQDU9IRk1DplQNRlGAjWK6C01DEWFNYJ/WzVQ+SA1Tb/MNI+9CzXS+jU1\r\nBmh4NQ61zjSs9Es1fHUsNSIeFTVHSlA1nQFRNVuuoTVQ01U1YQ+eNVSBODUYxmE14bOaNXvtCjX/\r\ni5Y1j9kzNfxTDTX/dLs0b+oINQtkFTXjyIs1QGt3NQo4ITUzFjM1ybwkNdtjUzUuZ301vphJNRjA\r\nGDUIvn81/SedNM8kFzX6SdA0yiUvNcX8DTUVGBM1sPLqNARmzzXJwQg1bZY7NbC9ODUUkuM0ZWwz\r\nNSa/dTVKbWI1cGYpNUGEDzXUmOc0VKEINai7FjWyC4o17HSwNE44SzXF6Sw1M1gzNahUUDXYjEE1\r\nG06/NUwkKjXXuAs1fOT6NOQzETWid/M0HLTONFAl3TXohCg1fJraNOyhZjXkMBo1XfLlNDB7DDWy\r\ndB81sxI/NZXTkzU0ePw0B5RuNcR5+DSuhAk127TUNMCsAzUzySo1vbrtNEbWAjVogEU1m6ZbNUuL\r\nBTUHM0U1Dsv2NC2RgDUFDu80zlwVNQO0+DRhNA41aY4KNdMGBzWU6181+pQENRuyJjWIn2k1swqD\r\nNS6kvDTACrk0zzITNT1onTWrWCs1u/AnNQ6KyTWuO3Y1/ZiyNCCJ2zRE6Ng0u+AoNUhFhTQMWHQ1\r\nyO0KNYhVmDWuU0412gwmNdt9PjX8CCM1KDYtNVzxPDXFKGI1U0spNewqNTXL5Jc1ZQbuNLpiUzXQ\r\nNT41JPqbNejQKDXQM0Q1qgHyNNqn5jShBRc1Dz6wNUwQ+zSxz1s1PWxONSr64TSKMRw1nhL0NHr+\r\nITW2s8Q0MjswNfF6BjVQHPw0aOfkNBM9KzWZV+000E3sNPm2XTX82Gs1vaMTNQhmEDXc3Eg1aDgi\r\nNe2lBzUcdsA0C2sBNcqi4DRySBc1IA4pNdbgZzWbk/I0DhOPNWhz7TRqNBw1e7tcNQBABDWQxjs8\r\nFMCjOhe/ijpQNCY6HXaKOnxb1Tqcar06FJaEOo+OozpeWbk6coigOsXrAjs2Jqg6X71dOo7JEjvA\r\nzZY6KzlYOr9iozpT50w6sd2HOsAhijr8Vlg69V6EOshXCjtBVkA60ncjO4Kx3TqKUU46L1G5Oq91\r\ndzp8knI6LXS7Og2TwjoFTTo6qHNjOsimEztTUJ06u6xlOo7xYDpPto86zWd9OlBfajoUxiU6Jooo\r\nOgI8Vzoh6os6SSRiOrEhETvHVYs64BBuOic1pDrm3JU6NXZnOgipnTp+z0I60iV4OvRuQTqMSkQ6\r\nsPrcOjK3Tjow1nY60jlVOmaCsTqUMUU6kDw5OvCPQjowoo460KB4OvVaeDqrYq869QTyOc9dgDq9\r\n6zk6avTROpUnVjrKvS06WV1cOj9w9Tqn4ow6mB+JOrIIWzpD4g06zppPOnOwLjqIr3Q6tW8cOoaw\r\nWzpsWDA6mgxrOv3foTr+bnI6fvSlOlu6rTrloNc6bN+mOgBXQTrxtrQ6I5NDOiVsljpemIQ6vWJ/\r\nOjYq6TqURRA7jTqUOvZlojo2TDw6Kl10OoOlOToswYI6mOlzOuSgjDqK8ZM6sP0rOuqFdjpIdn46\r\nWvKAOlbDNjo8G4s6PsJrOlSH0TryTiM65fy6OptNyToG+4k6kFe5OpVakTqKYYI6KmxoOmGhkTqr\r\n4aY6l6nEOoS8dDpSxBY6iGNYOiBMuDoh7cs6JabnOrQrLDqeH846Ai88OsoqJzpiInk6pCP5OUsE\r\njDoA2LY6uXa1OhbW/DopUpM66PMdOlLqWDpTPjk6mvOoOk7+iDoa6946UITgOmSCtjpogtA6GLjC\r\nOrHotDqythw7CF2XOkaocjrVKb06L1ZuOoI6XToEA6Q6lr+ZOqx01Dp4dbk6n2yROt3q5jrsbzU6\r\nSEaTOpQ8ODrJLGU6jhISOvigdzoxlCg6IqxdOni19joYv3c6CUevOm6MGTr2yaI6zauTOo6TuToE\r\nFQw71hllOl23CjumZJs6V4+GOp+wTTredko6kgzSOjQagDpwar46j9T3OgFAQTrO7Hw6eEalOi2s\r\nIzoRi8Q5NIehOu/WAzoFpUY6t9hPOiB9OzrcmKY6G6YFOgoujTpHU006LZ1JOtdPBDoyhl064eyt\r\nOn9jhjq7Zjo6mUOIOpceqTqmJjc6nCRiOojlDzpqMXI6d0ssOoaCZTq+JT06KNSHOkzVezo853w6\r\nyFF+Op3rljqvt0I69LpqOnYnEjq2zik6Rx9dOgSIjzqgs5867MkdO7+D3Do4Xu8608ubOnrnaToX\r\nroA6UgulOuCWLjoXNGw6Q9u2Oh4htTqN/Dc6x6M2OjJFXDoEIaw6ZtauOtQYkDpUkZM6dAwqOvu+\r\nMzqNL5k67ht7Ok5WRjrxgiM6zos3OkETfDrsc6c6PIA3Om7VpTrChpM6er6AOuDj0zpyloI6tQFi\r\nOv7GqDqS5TE6/gYgOsezhDprZxk6hneAOsM7bDq6ytM6iP+UOlDgXjp3laA6o2QpOo6pizp4qFY6\r\nUt99OoVmgDqjhrA6OhQ6OmAA8TlGYXA6yPFpOha7eTrwTWA6eQD0OiBHbDrCySI6MQL1OTdDiTqg\r\n2846cfTiOoAXgDr5luc5roggOtqplDqHClg6FWkMO97NzDrYrLo6WQaFOoo3kTpIej06HpWIOg6F\r\nizo1qz46ezJuOt+ujzobaYA6aacNO4b7MjrRe5w6+lf9Ot4mzDpy34I69jjwOQLwDjqaHC06Ol32\r\nOXBHIzovX1A6DAMPO+R0kDrzUlQ6+Y0ZOliljzr6WGo6862/Os4MhDpPCSw6x0KgOq+vkDru13M6\r\nFrvPOsBmRzrCe3o6cvtfOjNlLzp2rBw6bTWEOmqCYTrqPyY6ssvrOuoMSzpWWbU6GeyEOowaLzpa\r\nlbo6MQFyOqCWFzrxQxM7YP8vOhOXgToGUZI6+HCkOnpOZDpsr1s6xTvrOuySXDri6Sk6lt2SOkyQ\r\nxTpkmY46K7nmOrMAjjpaMWA6eumYOo0Otjq2fHc6xlsnOgm+ozoF9II6a2e3OmRwvjoV/6c6IO3Y\r\nOhRE5Tr6lMw6qOBaOtX6nTrzhSM65zBFOkOCpjqezwQ7o1ktOgFzODoiZzA6Wma4OpBcgjoCG0Y6\r\n3plyOrAfxzollJ46ZUF7Ok72UzrIDoA6x7NDOthKXzoFUYQ6Hq2mOhpzZTpuq5o6QbSjOpC1/jkQ\r\njWU6pOl6OkAGgDoMbHQ6+vtxOrMDSTrcCYc6mPKJOkwslDpmz1o6gcYYOstGYjoWllQ6dtOIOl14\r\nxTp6TY86xcmTOgRDnjpyW5w6wt7TOXQ0fTo98mU6/D0eOrf0iTpLWYo6/lp8OpLYUzoRu2s6NrSv\r\nOvgxeDofON06026EOjWwRjrE0Xg64IOIOjplejq0euc5XA6xOpV9ojqIdYs6gDkROjX/gDog7YU6\r\nyBkOOjT5jDpW9q46H9L6Ov365TmrrpE666uuOvHYADpszsM6+29gOlwWdjrEz7U66Bi6Orc9VzpC\r\nsVw6SGaYOjxWtzkSuLo6x4AbOjX+Ljopkw86Wp0LO/plpTp0kY06BfEzOrMRBzsgboM6Sek+Opcr\r\njDpOKks6gh6QOqbLkTqlkoI6EtPQOmw2GztihTg6DkzmOhHVPzqeBHc6YdDvOuj6WDqL3xs6vyIG\r\nOk+1VDoAL4I60ECuOtZVWjpHN4g6kPZxOt2TMToqAlY664SyOkLEDDrU7A06R0FjOlBuBjrL+EE6\r\nvgWVOuocATo6CG46ZhhDOmhQMTo3NXk6QEEyOgiiijpsQY06xapVOqIrjDqJIzc6T/vVOpEwRTsE\r\ntI86apYKOu52JTokeJQ6P7KhOk2rnzo0yxA6zqMsO76NeTo0Kxw6UixDOoey+jl5NSE6ETM9OnRk\r\nCTrYiYw6y7QlOoAiazq/AIM6jZh3OgHjwTrUfD46m306Ot4KJToGUsU6D+MjOibcpDpeQ0g6dOI9\r\nOnPTazqlz0s6LxmhOky4PDoJ94k6o208OipudTqu4xI6yHtiOkhpiDoojIY61u9iOtZ7oDpfA5k6\r\ngyUcOpweZjqJT386OdhROhwdrDoxhSo6ORnJOsUWfDrYy6s6jF5UOt8lOTqka3Q6Q+ZDOrZyDTqo\r\nQpQ6q2mbOns3zTqVSFg6oYR1OkC2bDolh946sJmbOlU5vDodxCw6DTp4OtzHWzpu5J06GeTGOr2l\r\nATrkmQs6j9FCOuAJmjrJGYM6IpYfOsVvxzo022A6IYi6Oop9xDo0XiU6CIpWOu+OXzo5FK86x2ni\r\nOuKzUTp7IfE68qIsOhjgDDoM9rE6DgTEOngXozmyoTA6WeUAOqUyiDoC5Xo6jWiUOh7hnDonlNU6\r\nXc2UOkuaPTp/mFk6cALFOmRobTpUme061z0zOsLoqTpuMV86Gr0bOjnwvDqzY1U6w6QXOkWveDoj\r\nohs6yGSXOvReoDoeo5o61DyfOr/KMDp7TaA6lCEbOr6JozqoKiM6F0weOhTUkTp4jCc6GAinOgsQ\r\nmzpf6Kk68WgwOufOFTpoa5U6LPg+OoktLDpykuk5mBJMOu68LDq9w6A68rUkOtcrgDqO2FM6YU6A\r\nOkZclTp/im86/0iOOqqlnjrDACk6oLRxOswNLzroAgg6xj+9OsvEcjoJF7s6YTGROq+L5jmIFy86\r\nuPMuOtFVZzranRg64OJNOo9QQDreU/46MXAiOhI0STrIHng6e+WIORORJzrCJNI6FyJbOpaWVToV\r\ns286ixiTOkZ9JzoZAoQ6iVGWOkj78DmezYY5JKWTOFxAEzj3kak4VqHNOSQ5EDrIcQo5Xy/VONRi\r\nkzn2VBw61pDKOXQPiDft4L84NNiQOLewCDkJKxI5QSIvOfBRbzigGJs5jAITOvMF3jkl35s52jZO\r\nOQNiqzh0voU49/4iOEq6xTiWdfA4pgvUONY6bTkkSDo5unamNweqVjbr53828ncSNrOA/jVCgc01\r\n8sCrNbrxpTX1btQ1n2vWNfjdEDYPzgQ2+i6sNZMZ8DXqJqA1BdqRNTGUmzXry2A1nluONQQZojXv\r\nxPA19j6UNYbSfDXqVG41mu3cNRrVDTWHGV81UR4pNQpCRTWg6I41Yr4VNRSJeDX8gi41INHqNQ4u\r\n5DWu3Hs17/WnNfUZJjUk4WQ1KDr5NYVHfzU0ejc1xi5SNT/vJjUfsZA1sNt4NcHVODXstJg1gkl4\r\nNa0UFTX/wak1gZJbNe0CYDVxkms1ptqSNToDBTVovBA1oa40NQi/ojWUvCs1zKl8Nb2/HTWde081\r\nKk5uNRofADUJZXg1HnqmNRrLpDV+9Zw14cprNag7MDX5kpc1oZ5YNQZvbTXAbE815cIHNfZVHjUn\r\nWlY18t3PNO9o/zQZc7w1VdAeNWWl3TQi8pg1TYuGNXRfhjVItRY1yhyiNb5iMTUbEX01Vjn3NH2V\r\nqTV2+GE1+TAxNR9CHTUfLY81XVp3NdkeNDU98hU1QrBLNbWbPjVPvxI1lduWNR0UWjVhEpc1tVRV\r\nNQxAGDXK+uI0/H5YNaL+TzVamRM1v//NNO0XDjVcfRg1M8uLNUasLjUTA4U151MyNcCIZjUSmrc1\r\nbpxINd6LZzWWSgQ178gZNUL1CzUSYC01hP5uNZ9vmDSANe00BXCNNdBaNTWd2Kw1Bo+8NSavAjVI\r\nuMU0AEQgNbl4ITUI+EA1AqXfNJN6jjVFp6o0JeJzNYlw1jTiDMA0CnkBNUxcijUw+S01LtUgNb7n\r\nizWoMEM1NhtCNaq3NTU6w841V7ILNRRCCzYgCuQ0MhYsNQ9IJTUkIBM1vKE2NSZogzWf78I1nS8T\r\nNQZwKTVcRy01Qp4HNWwSLTUT2yY1tjYaNZLLOzVVoSk11+VSNZ6j6jRCHQY1ZwgrNV0WMDUEFl01\r\niyqYNfPuXDV6fq80zOedNMxLfDWdCUI11QqlNFnSkzUy35s12NzrNFf6nTUvlww1BDFwNQTZ7DSM\r\nBgs143UeNej+NTXMaTg15GhMNccAFjWUClM18dmrNYF92zQHxOQ0cDr6NCRBEDUqFFY1/HM9NYwn\r\n/DQq89w09p77NIicUjVRogs1gx4iNWLrmzWVslQ1lpQWNfP/MTUbXs00YNbMNPj7FTV+YyM1grgY\r\nNXwjBjW5EEI1FQwUNQIWLTU2gVc1T1ZpNXJabDVsdus0g2PeNB3wFDXEqg414fd+NUy5uDXC+UM1\r\nZEKDNKqA6TRQkSg1SvMXNVqvJDVdlSA1WQWpNYkkTDXlKt80e5GZNcE05DRj3eg0sBtpNf9zLzVn\r\nD4w13ikfNZT0fjWf3Fo1Qb68NTW1bzWQAiw1GLVhNaT6ADXzDxk1fKWDNXqvzDQj6kY1wMAqNQ9s\r\nNzUyxXA1lawnNY1KVTXqfa00kxGGNcmuXjWuBlc1gcdBNUjcmjQbm7w04p+CNdQFAjVRVmA1UFo6\r\nNfQnMDWVPwk1Tr2fNEBfgTU9VwA1zJgeNbWjpTTDICc1RvJvNSE0aDW2FUk1AABENQ==",
                            "noiseTrainingType" : "default"
                          }
                        }
                    ],
                    "start" : 6112,
                    "duration" : 3777,
                    "mediaStart" : 25,
                    "mediaDuration" : 3777,
                    "scalar" : 1,
                    "metadata" : {
                      "WinSubProjectDisplayName" : "",
                      "clipSpeedAttribute" : false
                    },
                    "animationTracks" : {

                    }
                  }
                ]
              },
              {
                "trackIndex" : 2,
                "medias" : [
                  {
                    "id" : 35,
                    "_type" : "UnifiedMedia",
                    "video" : 
                        {
                          "id" : 36,
                          "_type" : "ScreenVMFile",
                          "src" : 7,
                          "trackNumber" : 0,
                          "attributes" : {
                            "ident" : "Aufn. 07-12-19"
                          },
                          "parameters" : {
                            "cursorScale" : {
                              "type" : "double",
                              "defaultValue" : 1.0,
                              "interp" : "linr"
                            },
                            "cursorOpacity" : {
                              "type" : "double",
                              "defaultValue" : 1.0,
                              "interp" : "linr"
                            }
                          },
                          "effects" : [

                          ],
                          "start" : 0,
                          "duration" : 202,
                          "mediaStart" : 500,
                          "mediaDuration" : 202,
                          "scalar" : 1,
                          "animationTracks" : {

                          }
                        },
                    "audio" : 
                        {
                          "id" : 37,
                          "_type" : "AMFile",
                          "src" : 7,
                          "trackNumber" : 2,
                          "attributes" : {
                            "ident" : "",
                            "sampleRate" : 44100,
                            "bitDepth" : 16,
                            "gain" : 1.0,
                            "mixToMono" : false
                          },
                            "channelNumber" : "0,1",
                          "effects" : [

                          ],
                          "start" : 0,
                          "duration" : 202,
                          "mediaStart" : 500,
                          "mediaDuration" : 202,
                          "scalar" : 1,
                          "animationTracks" : {

                          }
                        }
,
                    "start" : 0,
                    "duration" : 202,
                    "mediaStart" : 0,
                    "mediaDuration" : 702,
                    "scalar" : 1,
                    "metadata" : {
                      "AutoAppliedSmartFocus" : "False",
                      "WinSubProjectDisplayName" : "",
                      "clipSpeedAttribute" : false
                    }
                  }
                ],
                "transitions" : [
                  {
                    "name" : "Fade",
                    "duration" : 30,
                    "trivial" : false,
                    "useAudioPreRoll" : true,
                    "useVisualPreRoll" : true,
                    "leftMedia" : 35
                  }
                ]
              },
              {
                "trackIndex" : 3,
                "medias" : [
                ]
              },
              {
                "trackIndex" : 4,
                "medias" : [
                ]
              },
              {
                "trackIndex" : 5,
                "medias" : [
                ]
              }
            ]
          }
        }
      ]
    },
    "trackAttributes" : [
      {
        "ident" : "",
        "audioMuted" : false,
        "videoHidden" : false,
        "magnetic" : false,
        "metadata" : {
          "IsLocked" : "False",
          "WinTrackHeight" : "56"
        }
      },
      {
        "ident" : "",
        "audioMuted" : false,
        "videoHidden" : false,
        "magnetic" : false,
        "metadata" : {
          "IsLocked" : "False",
          "WinTrackHeight" : "56"
        }
      },
      {
        "ident" : "",
        "audioMuted" : false,
        "videoHidden" : false,
        "magnetic" : false,
        "metadata" : {
          "IsLocked" : "False",
          "WinTrackHeight" : "56"
        }
      },
      {
        "ident" : "",
        "audioMuted" : false,
        "videoHidden" : false,
        "magnetic" : false,
        "metadata" : {
          "IsLocked" : "False",
          "WinTrackHeight" : "56"
        }
      },
      {
        "ident" : "",
        "audioMuted" : false,
        "videoHidden" : false,
        "magnetic" : false,
        "metadata" : {
          "IsLocked" : "False",
          "WinTrackHeight" : "56"
        }
      },
      {
        "ident" : "",
        "audioMuted" : false,
        "videoHidden" : false,
        "magnetic" : false,
        "metadata" : {
          "IsLocked" : "False",
          "WinTrackHeight" : "56"
        }
      }
    ],
    "captionAttributes" : {
      "enabled" : true,
      "fontName" : "Arial",
      "fontSize" : 64,
      "backgroundColor" : [ 0, 0, 0, 191],
      "foregroundColor" : [ 255, 255, 255, 255],
      "lang" : "en",
      "alignment" : 0,
      "defaultFontSize" : true,
      "opacity" : 0.5,
      "backgroundEnabled" : true,
      "backgroundOnlyAroundText" : true
    },
    "backgroundColor" : [ 0, 0, 0, 255]
  },
  "metadata" : {
    "AutoSaveFile" : "",
    "CanvasZoom" : 39,
    "Date" : "07.07.2019 03:31:34 ",
    "IsAutoSave" : "0",
    "Language" : "DEU",
    "ProfileName" : "",
    "ProjectDimensionsChanged" : "1",
    "Title" : "browseFiles",
    "audioNarrationNotes" : "",
    "calloutStyle" : "Basic",
    "canvasDetached" : "False",
    "canvasPositionHeight" : "0",
    "canvasPositionLeft" : "0",
    "canvasPositionTop" : "0",
    "canvasPositionWidth" : "0"
  },
  "audioFormatSampleRate" : 44100
,
  "themeFile" : null

}
